<?xml version="1.0" encoding="utf-8" ?>
<svg xmlns="http://www.w3.org/2000/svg" xmlns:xlink="http://www.w3.org/1999/xlink" width="800" height="300">
	<rect fill="white" width="800" height="300"/>
	<path fill="none" stroke="#010101" stroke-width="1" stroke-miterlimit="4" stroke-opacity="0.098039217" d="M73.532 270.039L73.532 15M128.217 270.039L128.217 15M182.902 270.039L182.902 15M237.587 270.039L237.587 15M292.272 270.039L292.272 15M346.957 270.039L346.957 15M401.642 270.039L401.642 15M456.327 270.039L456.327 15M511.012 270.039L511.012 15M565.697 270.039L565.697 15M620.382 270.039L620.382 15M675.067 270.039L675.067 15M729.752 270.039L729.752 15M784.437 270.039L784.437 15"/>
	<path fill="none" stroke="#010101" stroke-width="1" stroke-miterlimit="4" stroke-opacity="0.098039217" d="M26.4688 236.265L785 236.265M26.4688 201.161L785 201.161M26.4688 166.057L785 166.057M26.4688 130.953L785 130.953M26.4688 95.8489L785 95.8489M26.4688 60.7449L785 60.7449M26.4688 25.6408L785 25.6408"/>
	<clipPath id="cl_f9">
		<rect x="26.46875" y="15" width="758.53125" height="255.03906"/>
	</clipPath>
	<g clip-path="url(#cl_f9)">
		<path fill="none" stroke="red" stroke-width="1" stroke-miterlimit="4" d=""/>
		<ellipse fill="red" cx="281.96484" cy="226.67003" rx="2.5" ry="2.5"/>
	</g>
	<clipPath id="cl_fa">
		<rect x="26.46875" y="15" width="758.53125" height="255.03906"/>
	</clipPath>
	<g clip-path="url(#cl_fa)">
		<path fill="none" stroke="lime" stroke-width="1" stroke-miterlimit="4" d="M71.3372 227.773L76.1931 227.276L111.007 223.19L111.007 220.095L117.196 219.011L117.219 224.619L117.585 227.904L118.774 227.959L181.424 214.485L218.167 226.024L218.311 226.049L252.344 230.069L252.344 230.069L252.344 230.069L439.107 167.897L472.462 174.536L472.462 174.536"/>
		<ellipse fill="lime" cx="71.337151" cy="227.77336" rx="2.5" ry="2.5"/>
		<ellipse fill="lime" cx="76.193085" cy="227.27574" rx="2.5" ry="2.5"/>
		<ellipse fill="lime" cx="111.00694" cy="223.18962" rx="2.5" ry="2.5"/>
		<ellipse fill="lime" cx="111.00694" cy="220.09531" rx="2.5" ry="2.5"/>
		<ellipse fill="lime" cx="117.19631" cy="219.01146" rx="2.5" ry="2.5"/>
		<ellipse fill="lime" cx="117.21854" cy="224.61916" rx="2.5" ry="2.5"/>
		<ellipse fill="lime" cx="117.58523" cy="227.90399" rx="2.5" ry="2.5"/>
		<ellipse fill="lime" cx="118.77422" cy="227.95888" rx="2.5" ry="2.5"/>
		<ellipse fill="lime" cx="181.42358" cy="214.48476" rx="2.5" ry="2.5"/>
		<ellipse fill="lime" cx="218.16701" cy="226.02367" rx="2.5" ry="2.5"/>
		<ellipse fill="lime" cx="218.3109" cy="226.04935" rx="2.5" ry="2.5"/>
		<ellipse fill="lime" cx="252.34399" cy="230.06917" rx="2.5" ry="2.5"/>
		<ellipse fill="lime" cx="252.34399" cy="230.06917" rx="2.5" ry="2.5"/>
		<ellipse fill="lime" cx="252.34399" cy="230.06917" rx="2.5" ry="2.5"/>
		<ellipse fill="lime" cx="439.10724" cy="167.89746" rx="2.5" ry="2.5"/>
		<ellipse fill="lime" cx="472.46219" cy="174.53625" rx="2.5" ry="2.5"/>
		<ellipse fill="lime" cx="472.46219" cy="174.53625" rx="2.5" ry="2.5"/>
	</g>
	<clipPath id="cl_fb">
		<rect x="26.46875" y="15" width="758.53125" height="255.03906"/>
	</clipPath>
	<g clip-path="url(#cl_fb)">
		<path fill="none" stroke="#AFA" stroke-width="1" stroke-miterlimit="4" d="M60.9474 241.023L77.571 243.948L90.3275 239.112L91.9499 242.707L95.7502 240.442L105.707 244.055L106.173 232.438L107.491 232.073L107.513 245.818L112.151 246.619L112.174 237.518L117.619 238.719L120.741 235.398L121.408 236.649L124.264 240.075L124.341 237.771L124.345 237.286L156.622 238.015L156.622 238.015L224.327 233L224.327 233L224.327 233L235.399 197.764L235.399 197.764L235.399 197.764L235.399 197.764L238.006 233.515"/>
		<ellipse fill="#AFA" cx="60.947445" cy="241.0228" rx="2.5" ry="2.5"/>
		<ellipse fill="#AFA" cx="77.570969" cy="243.94756" rx="2.5" ry="2.5"/>
		<ellipse fill="#AFA" cx="90.32753" cy="239.11243" rx="2.5" ry="2.5"/>
		<ellipse fill="#AFA" cx="91.949883" cy="242.70667" rx="2.5" ry="2.5"/>
		<ellipse fill="#AFA" cx="95.750183" cy="240.44171" rx="2.5" ry="2.5"/>
		<ellipse fill="#AFA" cx="105.70652" cy="244.05476" rx="2.5" ry="2.5"/>
		<ellipse fill="#AFA" cx="106.17323" cy="232.4382" rx="2.5" ry="2.5"/>
		<ellipse fill="#AFA" cx="107.49135" cy="232.073" rx="2.5" ry="2.5"/>
		<ellipse fill="#AFA" cx="107.51322" cy="245.8185" rx="2.5" ry="2.5"/>
		<ellipse fill="#AFA" cx="112.15147" cy="246.61931" rx="2.5" ry="2.5"/>
		<ellipse fill="#AFA" cx="112.1737" cy="237.51831" rx="2.5" ry="2.5"/>
		<ellipse fill="#AFA" cx="117.61857" cy="238.71939" rx="2.5" ry="2.5"/>
		<ellipse fill="#AFA" cx="120.74104" cy="235.39822" rx="2.5" ry="2.5"/>
		<ellipse fill="#AFA" cx="121.40775" cy="236.64948" rx="2.5" ry="2.5"/>
		<ellipse fill="#AFA" cx="124.26353" cy="240.07451" rx="2.5" ry="2.5"/>
		<ellipse fill="#AFA" cx="124.34132" cy="237.77071" rx="2.5" ry="2.5"/>
		<ellipse fill="#AFA" cx="124.34525" cy="237.28618" rx="2.5" ry="2.5"/>
		<ellipse fill="#AFA" cx="156.62163" cy="238.01486" rx="2.5" ry="2.5"/>
		<ellipse fill="#AFA" cx="156.62163" cy="238.01486" rx="2.5" ry="2.5"/>
		<ellipse fill="#AFA" cx="224.32697" cy="233.00023" rx="2.5" ry="2.5"/>
		<ellipse fill="#AFA" cx="224.32697" cy="233.00023" rx="2.5" ry="2.5"/>
		<ellipse fill="#AFA" cx="224.32697" cy="233.00023" rx="2.5" ry="2.5"/>
		<ellipse fill="#AFA" cx="235.39949" cy="197.7639" rx="2.5" ry="2.5"/>
		<ellipse fill="#AFA" cx="235.39949" cy="197.7639" rx="2.5" ry="2.5"/>
		<ellipse fill="#AFA" cx="235.39949" cy="197.7639" rx="2.5" ry="2.5"/>
		<ellipse fill="#AFA" cx="235.39949" cy="197.7639" rx="2.5" ry="2.5"/>
		<ellipse fill="#AFA" cx="238.00581" cy="233.5148" rx="2.5" ry="2.5"/>
	</g>
	<clipPath id="cl_fc">
		<rect x="26.46875" y="15" width="758.53125" height="255.03906"/>
	</clipPath>
	<g clip-path="url(#cl_fc)">
		<path fill="none" stroke="#AAA" stroke-width="1" stroke-miterlimit="4" d="M73.6742 236.311L73.6742 236.311L73.6742 236.311L73.6742 236.311L85.5299 230.245L85.5299 230.81L85.5299 230.245L85.5299 230.245L85.5299 230.245L92.9342 229.628L92.9342 229.628L92.9342 229.628L92.9342 229.628L92.9342 229.628L108.432 229.372L108.432 224.922L108.432 224.922L108.432 221.699L108.432 226.749L108.618 233.097L108.618 233.097L108.618 228.845L108.618 228.845L108.618 228.845L170.576 231.007L170.576 231.007L170.576 231.009L170.576 231.007L213.613 228.274L213.613 228.274L213.613 228.274L213.613 228.274L234.568 234.958L234.568 232.158L234.568 232.158L234.568 232.158L234.568 232.158L246.293 209.359L246.293 209.359L246.293 209.359L246.293 209.359L276.194 228.304L276.194 228.304"/>
		<ellipse fill="#AAA" cx="73.674164" cy="236.3107" rx="2.5" ry="2.5"/>
		<ellipse fill="#AAA" cx="73.674164" cy="236.3107" rx="2.5" ry="2.5"/>
		<ellipse fill="#AAA" cx="73.674164" cy="236.3107" rx="2.5" ry="2.5"/>
		<ellipse fill="#AAA" cx="73.674164" cy="236.3107" rx="2.5" ry="2.5"/>
		<ellipse fill="#AAA" cx="85.529861" cy="230.24521" rx="2.5" ry="2.5"/>
		<ellipse fill="#AAA" cx="85.529861" cy="230.80983" rx="2.5" ry="2.5"/>
		<ellipse fill="#AAA" cx="85.529861" cy="230.24521" rx="2.5" ry="2.5"/>
		<ellipse fill="#AAA" cx="85.529861" cy="230.24521" rx="2.5" ry="2.5"/>
		<ellipse fill="#AAA" cx="85.529861" cy="230.24521" rx="2.5" ry="2.5"/>
		<ellipse fill="#AAA" cx="92.934212" cy="229.62833" rx="2.5" ry="2.5"/>
		<ellipse fill="#AAA" cx="92.934212" cy="229.62833" rx="2.5" ry="2.5"/>
		<ellipse fill="#AAA" cx="92.934212" cy="229.62833" rx="2.5" ry="2.5"/>
		<ellipse fill="#AAA" cx="92.934212" cy="229.62833" rx="2.5" ry="2.5"/>
		<ellipse fill="#AAA" cx="92.934212" cy="229.62833" rx="2.5" ry="2.5"/>
		<ellipse fill="#AAA" cx="108.43193" cy="229.37219" rx="2.5" ry="2.5"/>
		<ellipse fill="#AAA" cx="108.43193" cy="224.92197" rx="2.5" ry="2.5"/>
		<ellipse fill="#AAA" cx="108.43193" cy="224.92197" rx="2.5" ry="2.5"/>
		<ellipse fill="#AAA" cx="108.43193" cy="221.69939" rx="2.5" ry="2.5"/>
		<ellipse fill="#AAA" cx="108.43193" cy="226.74916" rx="2.5" ry="2.5"/>
		<ellipse fill="#AAA" cx="108.61786" cy="233.09705" rx="2.5" ry="2.5"/>
		<ellipse fill="#AAA" cx="108.61786" cy="233.09705" rx="2.5" ry="2.5"/>
		<ellipse fill="#AAA" cx="108.61786" cy="228.84457" rx="2.5" ry="2.5"/>
		<ellipse fill="#AAA" cx="108.61786" cy="228.84457" rx="2.5" ry="2.5"/>
		<ellipse fill="#AAA" cx="108.61786" cy="228.84457" rx="2.5" ry="2.5"/>
		<ellipse fill="#AAA" cx="170.57593" cy="231.00687" rx="2.5" ry="2.5"/>
		<ellipse fill="#AAA" cx="170.57593" cy="231.00687" rx="2.5" ry="2.5"/>
		<ellipse fill="#AAA" cx="170.57593" cy="231.00858" rx="2.5" ry="2.5"/>
		<ellipse fill="#AAA" cx="170.57593" cy="231.00687" rx="2.5" ry="2.5"/>
		<ellipse fill="#AAA" cx="213.61299" cy="228.27405" rx="2.5" ry="2.5"/>
		<ellipse fill="#AAA" cx="213.61299" cy="228.27405" rx="2.5" ry="2.5"/>
		<ellipse fill="#AAA" cx="213.61299" cy="228.27405" rx="2.5" ry="2.5"/>
		<ellipse fill="#AAA" cx="213.61299" cy="228.27405" rx="2.5" ry="2.5"/>
		<ellipse fill="#AAA" cx="234.56827" cy="234.95834" rx="2.5" ry="2.5"/>
		<ellipse fill="#AAA" cx="234.56827" cy="232.15752" rx="2.5" ry="2.5"/>
		<ellipse fill="#AAA" cx="234.56827" cy="232.15752" rx="2.5" ry="2.5"/>
		<ellipse fill="#AAA" cx="234.56827" cy="232.15752" rx="2.5" ry="2.5"/>
		<ellipse fill="#AAA" cx="234.56827" cy="232.15752" rx="2.5" ry="2.5"/>
		<ellipse fill="#AAA" cx="246.29272" cy="209.35883" rx="2.5" ry="2.5"/>
		<ellipse fill="#AAA" cx="246.29272" cy="209.35883" rx="2.5" ry="2.5"/>
		<ellipse fill="#AAA" cx="246.29272" cy="209.35883" rx="2.5" ry="2.5"/>
		<ellipse fill="#AAA" cx="246.29272" cy="209.35883" rx="2.5" ry="2.5"/>
		<ellipse fill="#AAA" cx="276.19446" cy="228.30426" rx="2.5" ry="2.5"/>
		<ellipse fill="#AAA" cx="276.19446" cy="228.30426" rx="2.5" ry="2.5"/>
	</g>
	<clipPath id="cl_fd">
		<rect x="26.46875" y="15" width="758.53125" height="255.03906"/>
	</clipPath>
	<g clip-path="url(#cl_fd)">
		<path fill="none" stroke="#FF5454" stroke-width="1" stroke-miterlimit="4" d="M82.3269 245.051L82.3269 245.051L94.1432 244.785L99.4505 239.443L99.4505 239.443L108.642 239.082L108.642 239.082L108.642 239.082L108.642 239.082L108.642 239.082L108.642 239.082L111.618 229.189L111.618 229.189L111.618 229.189L111.618 229.189L111.618 229.189L111.618 229.189L121.286 234.717L121.286 238.382L121.397 247.196L121.397 247.196L121.397 247.196L121.397 247.196L121.397 247.196L125.286 239.201L125.286 239.201L125.286 239.201L125.286 239.201L125.286 239.201L128.397 248.226L134.82 235.57L134.909 241.014L137.287 253.406L137.287 253.406L137.342 235.455L137.342 235.455L137.342 235.455L137.342 235.455L137.342 235.455L137.342 235.455L137.342 233.459L137.349 235.456L142.621 252.007L142.621 252.007L142.621 252.007L142.621 252.007L142.621 252.007L142.621 252.007L142.621 252.007L142.621 252.007L142.621 252.007L147.51 238.048L165.511 227.513L170.801 228.635L170.801 228.635L170.801 228.635L182.846 227.478L182.902 228.367L183.068 228.399L183.068 228.399L186.735 228.245L186.735 228.245L207.759 228.815L207.759 228.815L207.759 228.815L207.759 228.815L217.293 231.176L241.962 231.29L241.962 231.29L241.962 231.29L241.962 231.29L246.629 234.67L246.629 234.67L246.629 234.67L246.629 234.67L250.296 217.697L272.964 221.637L275.955 229.503L292.966 224.663L297.188 225.255L297.188 225.255L326.302 191.856L326.302 191.856L326.302 211.999L326.302 191.856L326.302 191.856L348.376 226.402L353.337 226.975L389.276 172.025L406.553 175.905L425.703 167.388L437.533 181.909L458.757 185.981L477.601 174.16"/>
		<ellipse fill="#FF5454" cx="82.326904" cy="245.05124" rx="2.5" ry="2.5"/>
		<ellipse fill="#FF5454" cx="82.326904" cy="245.05124" rx="2.5" ry="2.5"/>
		<ellipse fill="#FF5454" cx="94.14325" cy="244.78537" rx="2.5" ry="2.5"/>
		<ellipse fill="#FF5454" cx="99.45047" cy="239.44298" rx="2.5" ry="2.5"/>
		<ellipse fill="#FF5454" cx="99.45047" cy="239.44298" rx="2.5" ry="2.5"/>
		<ellipse fill="#FF5454" cx="108.64174" cy="239.0824" rx="2.5" ry="2.5"/>
		<ellipse fill="#FF5454" cx="108.64174" cy="239.0824" rx="2.5" ry="2.5"/>
		<ellipse fill="#FF5454" cx="108.64174" cy="239.0824" rx="2.5" ry="2.5"/>
		<ellipse fill="#FF5454" cx="108.64174" cy="239.0824" rx="2.5" ry="2.5"/>
		<ellipse fill="#FF5454" cx="108.64174" cy="239.0824" rx="2.5" ry="2.5"/>
		<ellipse fill="#FF5454" cx="108.64174" cy="239.0824" rx="2.5" ry="2.5"/>
		<ellipse fill="#FF5454" cx="111.6181" cy="229.18907" rx="2.5" ry="2.5"/>
		<ellipse fill="#FF5454" cx="111.6181" cy="229.18907" rx="2.5" ry="2.5"/>
		<ellipse fill="#FF5454" cx="111.6181" cy="229.18907" rx="2.5" ry="2.5"/>
		<ellipse fill="#FF5454" cx="111.6181" cy="229.18907" rx="2.5" ry="2.5"/>
		<ellipse fill="#FF5454" cx="111.6181" cy="229.18907" rx="2.5" ry="2.5"/>
		<ellipse fill="#FF5454" cx="111.6181" cy="229.18907" rx="2.5" ry="2.5"/>
		<ellipse fill="#FF5454" cx="121.28552" cy="234.71652" rx="2.5" ry="2.5"/>
		<ellipse fill="#FF5454" cx="121.28552" cy="238.38179" rx="2.5" ry="2.5"/>
		<ellipse fill="#FF5454" cx="121.39664" cy="247.19553" rx="2.5" ry="2.5"/>
		<ellipse fill="#FF5454" cx="121.39664" cy="247.19553" rx="2.5" ry="2.5"/>
		<ellipse fill="#FF5454" cx="121.39664" cy="247.19553" rx="2.5" ry="2.5"/>
		<ellipse fill="#FF5454" cx="121.39664" cy="247.19553" rx="2.5" ry="2.5"/>
		<ellipse fill="#FF5454" cx="121.39664" cy="247.19553" rx="2.5" ry="2.5"/>
		<ellipse fill="#FF5454" cx="125.28584" cy="239.20079" rx="2.5" ry="2.5"/>
		<ellipse fill="#FF5454" cx="125.28584" cy="239.20079" rx="2.5" ry="2.5"/>
		<ellipse fill="#FF5454" cx="125.28584" cy="239.20079" rx="2.5" ry="2.5"/>
		<ellipse fill="#FF5454" cx="125.28584" cy="239.20079" rx="2.5" ry="2.5"/>
		<ellipse fill="#FF5454" cx="125.28584" cy="239.20079" rx="2.5" ry="2.5"/>
		<ellipse fill="#FF5454" cx="128.39719" cy="248.22592" rx="2.5" ry="2.5"/>
		<ellipse fill="#FF5454" cx="134.81992" cy="235.57047" rx="2.5" ry="2.5"/>
		<ellipse fill="#FF5454" cx="134.90881" cy="241.01373" rx="2.5" ry="2.5"/>
		<ellipse fill="#FF5454" cx="137.28677" cy="253.40608" rx="2.5" ry="2.5"/>
		<ellipse fill="#FF5454" cx="137.28677" cy="253.40608" rx="2.5" ry="2.5"/>
		<ellipse fill="#FF5454" cx="137.34235" cy="235.45451" rx="2.5" ry="2.5"/>
		<ellipse fill="#FF5454" cx="137.34235" cy="235.45451" rx="2.5" ry="2.5"/>
		<ellipse fill="#FF5454" cx="137.34235" cy="235.45451" rx="2.5" ry="2.5"/>
		<ellipse fill="#FF5454" cx="137.34235" cy="235.45451" rx="2.5" ry="2.5"/>
		<ellipse fill="#FF5454" cx="137.34235" cy="235.45451" rx="2.5" ry="2.5"/>
		<ellipse fill="#FF5454" cx="137.34235" cy="235.45451" rx="2.5" ry="2.5"/>
		<ellipse fill="#FF5454" cx="137.34235" cy="233.45926" rx="2.5" ry="2.5"/>
		<ellipse fill="#FF5454" cx="137.34933" cy="235.45596" rx="2.5" ry="2.5"/>
		<ellipse fill="#FF5454" cx="142.62054" cy="252.00671" rx="2.5" ry="2.5"/>
		<ellipse fill="#FF5454" cx="142.62054" cy="252.00671" rx="2.5" ry="2.5"/>
		<ellipse fill="#FF5454" cx="142.62054" cy="252.00671" rx="2.5" ry="2.5"/>
		<ellipse fill="#FF5454" cx="142.62054" cy="252.00671" rx="2.5" ry="2.5"/>
		<ellipse fill="#FF5454" cx="142.62054" cy="252.00671" rx="2.5" ry="2.5"/>
		<ellipse fill="#FF5454" cx="142.62054" cy="252.00671" rx="2.5" ry="2.5"/>
		<ellipse fill="#FF5454" cx="142.62054" cy="252.00671" rx="2.5" ry="2.5"/>
		<ellipse fill="#FF5454" cx="142.62054" cy="252.00671" rx="2.5" ry="2.5"/>
		<ellipse fill="#FF5454" cx="142.62054" cy="252.00671" rx="2.5" ry="2.5"/>
		<ellipse fill="#FF5454" cx="147.5098" cy="238.04817" rx="2.5" ry="2.5"/>
		<ellipse fill="#FF5454" cx="165.51123" cy="227.51276" rx="2.5" ry="2.5"/>
		<ellipse fill="#FF5454" cx="170.80052" cy="228.63535" rx="2.5" ry="2.5"/>
		<ellipse fill="#FF5454" cx="170.80052" cy="228.63535" rx="2.5" ry="2.5"/>
		<ellipse fill="#FF5454" cx="170.80052" cy="228.63535" rx="2.5" ry="2.5"/>
		<ellipse fill="#FF5454" cx="182.84592" cy="227.47787" rx="2.5" ry="2.5"/>
		<ellipse fill="#FF5454" cx="182.90192" cy="228.36671" rx="2.5" ry="2.5"/>
		<ellipse fill="#FF5454" cx="183.06816" cy="228.39937" rx="2.5" ry="2.5"/>
		<ellipse fill="#FF5454" cx="183.06816" cy="228.39937" rx="2.5" ry="2.5"/>
		<ellipse fill="#FF5454" cx="186.73511" cy="228.24481" rx="2.5" ry="2.5"/>
		<ellipse fill="#FF5454" cx="186.73511" cy="228.24481" rx="2.5" ry="2.5"/>
		<ellipse fill="#FF5454" cx="207.75899" cy="228.81451" rx="2.5" ry="2.5"/>
		<ellipse fill="#FF5454" cx="207.75899" cy="228.81451" rx="2.5" ry="2.5"/>
		<ellipse fill="#FF5454" cx="207.75899" cy="228.81451" rx="2.5" ry="2.5"/>
		<ellipse fill="#FF5454" cx="207.75899" cy="228.81451" rx="2.5" ry="2.5"/>
		<ellipse fill="#FF5454" cx="217.29308" cy="231.17569" rx="2.5" ry="2.5"/>
		<ellipse fill="#FF5454" cx="241.96169" cy="231.28975" rx="2.5" ry="2.5"/>
		<ellipse fill="#FF5454" cx="241.96169" cy="231.28975" rx="2.5" ry="2.5"/>
		<ellipse fill="#FF5454" cx="241.96169" cy="231.28975" rx="2.5" ry="2.5"/>
		<ellipse fill="#FF5454" cx="241.96169" cy="231.28975" rx="2.5" ry="2.5"/>
		<ellipse fill="#FF5454" cx="246.62871" cy="234.67038" rx="2.5" ry="2.5"/>
		<ellipse fill="#FF5454" cx="246.62871" cy="234.67038" rx="2.5" ry="2.5"/>
		<ellipse fill="#FF5454" cx="246.62871" cy="234.67038" rx="2.5" ry="2.5"/>
		<ellipse fill="#FF5454" cx="246.62871" cy="234.67038" rx="2.5" ry="2.5"/>
		<ellipse fill="#FF5454" cx="250.29567" cy="217.69736" rx="2.5" ry="2.5"/>
		<ellipse fill="#FF5454" cx="272.96411" cy="221.63728" rx="2.5" ry="2.5"/>
		<ellipse fill="#FF5454" cx="275.95526" cy="229.50259" rx="2.5" ry="2.5"/>
		<ellipse fill="#FF5454" cx="292.9657" cy="224.66254" rx="2.5" ry="2.5"/>
		<ellipse fill="#FF5454" cx="297.18823" cy="225.25475" rx="2.5" ry="2.5"/>
		<ellipse fill="#FF5454" cx="297.18823" cy="225.25475" rx="2.5" ry="2.5"/>
		<ellipse fill="#FF5454" cx="326.30164" cy="191.85574" rx="2.5" ry="2.5"/>
		<ellipse fill="#FF5454" cx="326.30164" cy="191.85574" rx="2.5" ry="2.5"/>
		<ellipse fill="#FF5454" cx="326.30164" cy="211.99915" rx="2.5" ry="2.5"/>
		<ellipse fill="#FF5454" cx="326.30164" cy="191.85574" rx="2.5" ry="2.5"/>
		<ellipse fill="#FF5454" cx="326.30164" cy="191.85574" rx="2.5" ry="2.5"/>
		<ellipse fill="#FF5454" cx="348.37613" cy="226.40211" rx="2.5" ry="2.5"/>
		<ellipse fill="#FF5454" cx="353.33743" cy="226.97537" rx="2.5" ry="2.5"/>
		<ellipse fill="#FF5454" cx="389.27585" cy="172.02493" rx="2.5" ry="2.5"/>
		<ellipse fill="#FF5454" cx="406.55276" cy="175.90469" rx="2.5" ry="2.5"/>
		<ellipse fill="#FF5454" cx="425.70316" cy="167.38797" rx="2.5" ry="2.5"/>
		<ellipse fill="#FF5454" cx="437.53262" cy="181.90906" rx="2.5" ry="2.5"/>
		<ellipse fill="#FF5454" cx="458.7565" cy="185.98082" rx="2.5" ry="2.5"/>
		<ellipse fill="#FF5454" cx="477.60129" cy="174.1595" rx="2.5" ry="2.5"/>
	</g>
	<clipPath id="cl_fe">
		<rect x="26.46875" y="15" width="758.53125" height="255.03906"/>
	</clipPath>
	<g clip-path="url(#cl_fe)">
		<path fill="none" stroke="#303030" stroke-width="1" stroke-miterlimit="4" d="M364.831 112.37L364.831 116.362L476.46 158.827L491.203 152.61"/>
		<ellipse fill="#303030" cx="364.83081" cy="112.3701" rx="2.5" ry="2.5"/>
		<ellipse fill="#303030" cx="364.83081" cy="116.36208" rx="2.5" ry="2.5"/>
		<ellipse fill="#303030" cx="476.46021" cy="158.82693" rx="2.5" ry="2.5"/>
		<ellipse fill="#303030" cx="491.20261" cy="152.60977" rx="2.5" ry="2.5"/>
	</g>
	<clipPath id="cl_ff">
		<rect x="26.46875" y="15" width="758.53125" height="255.03906"/>
	</clipPath>
	<g clip-path="url(#cl_ff)">
		<path fill="none" stroke="blue" stroke-width="1" stroke-miterlimit="4" d="M79.9568 223.292L80.9324 230.27L87.3126 227.099L89.0078 227.701L91.9936 221.813L92.5077 228.891L93.4154 232.763L93.6451 232.615L94.9029 228.289L97.5934 231.086L100.131 230.2L117.186 232.304L117.186 232.304L117.186 230.134L117.186 230.134L126.795 230.623L169.274 229.253L169.274 229.253L169.274 229.253L169.274 229.253L169.274 229.253L169.274 229.253L218.228 227.546L220.908 229.499L220.908 229.499L220.908 229.499L220.908 229.499L225.95 230.305L225.95 230.305L289.723 111.474L309.91 146.445L429.113 143.378L429.113 143.378"/>
		<ellipse fill="blue" cx="79.956757" cy="223.2925" rx="2.5" ry="2.5"/>
		<ellipse fill="blue" cx="80.932419" cy="230.27005" rx="2.5" ry="2.5"/>
		<ellipse fill="blue" cx="87.312592" cy="227.09941" rx="2.5" ry="2.5"/>
		<ellipse fill="blue" cx="89.007828" cy="227.70053" rx="2.5" ry="2.5"/>
		<ellipse fill="blue" cx="91.993629" cy="221.81264" rx="2.5" ry="2.5"/>
		<ellipse fill="blue" cx="92.507668" cy="228.89133" rx="2.5" ry="2.5"/>
		<ellipse fill="blue" cx="93.415436" cy="232.76334" rx="2.5" ry="2.5"/>
		<ellipse fill="blue" cx="93.645119" cy="232.61505" rx="2.5" ry="2.5"/>
		<ellipse fill="blue" cx="94.90287" cy="228.28934" rx="2.5" ry="2.5"/>
		<ellipse fill="blue" cx="97.593369" cy="231.08583" rx="2.5" ry="2.5"/>
		<ellipse fill="blue" cx="100.13075" cy="230.19984" rx="2.5" ry="2.5"/>
		<ellipse fill="blue" cx="117.18565" cy="232.3044" rx="2.5" ry="2.5"/>
		<ellipse fill="blue" cx="117.18565" cy="232.3044" rx="2.5" ry="2.5"/>
		<ellipse fill="blue" cx="117.18565" cy="230.13412" rx="2.5" ry="2.5"/>
		<ellipse fill="blue" cx="117.18565" cy="230.13412" rx="2.5" ry="2.5"/>
		<ellipse fill="blue" cx="126.79514" cy="230.62299" rx="2.4999962" ry="2.5"/>
		<ellipse fill="blue" cx="169.27443" cy="229.2533" rx="2.5" ry="2.5"/>
		<ellipse fill="blue" cx="169.27443" cy="229.2533" rx="2.5" ry="2.5"/>
		<ellipse fill="blue" cx="169.27443" cy="229.2533" rx="2.5" ry="2.5"/>
		<ellipse fill="blue" cx="169.27443" cy="229.2533" rx="2.5" ry="2.5"/>
		<ellipse fill="blue" cx="169.27443" cy="229.2533" rx="2.5" ry="2.5"/>
		<ellipse fill="blue" cx="169.27443" cy="229.2533" rx="2.5" ry="2.5"/>
		<ellipse fill="blue" cx="218.22841" cy="227.54578" rx="2.5" ry="2.5"/>
		<ellipse fill="blue" cx="220.90797" cy="229.49854" rx="2.5" ry="2.5"/>
		<ellipse fill="blue" cx="220.90797" cy="229.49854" rx="2.5" ry="2.5"/>
		<ellipse fill="blue" cx="220.90797" cy="229.49854" rx="2.5" ry="2.5"/>
		<ellipse fill="blue" cx="220.90797" cy="229.49854" rx="2.5" ry="2.5"/>
		<ellipse fill="blue" cx="225.94992" cy="230.30495" rx="2.5" ry="2.5"/>
		<ellipse fill="blue" cx="225.94992" cy="230.30495" rx="2.5" ry="2.5"/>
		<ellipse fill="blue" cx="289.72324" cy="111.47443" rx="2.5" ry="2.5"/>
		<ellipse fill="blue" cx="309.91049" cy="146.4447" rx="2.5" ry="2.5"/>
		<ellipse fill="blue" cx="429.11255" cy="143.37796" rx="2.5" ry="2.5"/>
		<ellipse fill="blue" cx="429.11255" cy="143.37796" rx="2.5" ry="2.5"/>
	</g>
	<clipPath id="cl_100">
		<rect x="26.46875" y="15" width="758.53125" height="255.03906"/>
	</clipPath>
	<g clip-path="url(#cl_100)">
		<path fill="none" stroke="#6060FF" stroke-width="1" stroke-miterlimit="4" d="M78.4822 244.166L78.4822 244.166L78.6605 234.615L78.6605 236.139L90.9498 241.39L92.6722 244.481L92.6722 244.481L92.6722 244.481L101.528 231.122L102.287 246.353L105.54 232.264L106.343 245.716L106.907 232.638L108.629 244.793L130.264 231.844L130.264 231.844L130.264 231.844L130.264 231.844L130.264 231.844L141.954 239.301L141.954 239.301L141.954 237.52L141.954 237.52L141.954 237.52L141.954 237.52L141.954 237.52L190.624 228.985L190.624 228.985L202.862 226.333L206.681 227.042L253.074 234.16L253.074 234.16L264.929 239.712L269.742 241.768L292.983 231.671L300.02 235.625L319.746 236.818L319.746 236.818L319.746 241.677L323.079 240.776L323.079 240.776L326.413 240.739L326.659 241.608L326.659 241.608L327.446 240.827L355.632 238.636L434.066 172.507L434.066 172.507L473.941 173.461L473.941 173.461L473.941 173.461L473.941 173.461L553.624 133.288L556.962 134.065L603.546 144.069L630.881 149.288"/>
		<ellipse fill="#6060FF" cx="78.482155" cy="244.16612" rx="2.5" ry="2.5"/>
		<ellipse fill="#6060FF" cx="78.482155" cy="244.16612" rx="2.5" ry="2.5"/>
		<ellipse fill="#6060FF" cx="78.660477" cy="234.61473" rx="2.5" ry="2.5"/>
		<ellipse fill="#6060FF" cx="78.660477" cy="236.13875" rx="2.5" ry="2.5"/>
		<ellipse fill="#6060FF" cx="90.949806" cy="241.39046" rx="2.5" ry="2.5"/>
		<ellipse fill="#6060FF" cx="92.672157" cy="244.48105" rx="2.5" ry="2.5"/>
		<ellipse fill="#6060FF" cx="92.672157" cy="244.48105" rx="2.5" ry="2.5"/>
		<ellipse fill="#6060FF" cx="92.672157" cy="244.48105" rx="2.5" ry="2.5"/>
		<ellipse fill="#6060FF" cx="101.52841" cy="231.12183" rx="2.5" ry="2.5"/>
		<ellipse fill="#6060FF" cx="102.28695" cy="246.35272" rx="2.5" ry="2.5"/>
		<ellipse fill="#6060FF" cx="105.53984" cy="232.26379" rx="2.5" ry="2.5"/>
		<ellipse fill="#6060FF" cx="106.34296" cy="245.71622" rx="2.5" ry="2.5"/>
		<ellipse fill="#6060FF" cx="106.90662" cy="232.63823" rx="2.5" ry="2.5"/>
		<ellipse fill="#6060FF" cx="108.6288" cy="244.79332" rx="2.5" ry="2.5"/>
		<ellipse fill="#6060FF" cx="130.26401" cy="231.84375" rx="2.5" ry="2.5"/>
		<ellipse fill="#6060FF" cx="130.26401" cy="231.84375" rx="2.5" ry="2.5"/>
		<ellipse fill="#6060FF" cx="130.26401" cy="231.84375" rx="2.5" ry="2.5"/>
		<ellipse fill="#6060FF" cx="130.26401" cy="231.84375" rx="2.5" ry="2.5"/>
		<ellipse fill="#6060FF" cx="130.26401" cy="231.84375" rx="2.5" ry="2.5"/>
		<ellipse fill="#6060FF" cx="141.95381" cy="239.30132" rx="2.5" ry="2.5"/>
		<ellipse fill="#6060FF" cx="141.95381" cy="239.30132" rx="2.5" ry="2.5"/>
		<ellipse fill="#6060FF" cx="141.95381" cy="237.51976" rx="2.5" ry="2.5"/>
		<ellipse fill="#6060FF" cx="141.95381" cy="237.51976" rx="2.5" ry="2.5"/>
		<ellipse fill="#6060FF" cx="141.95381" cy="237.51976" rx="2.5" ry="2.5"/>
		<ellipse fill="#6060FF" cx="141.95381" cy="237.51976" rx="2.5" ry="2.5"/>
		<ellipse fill="#6060FF" cx="141.95381" cy="237.51976" rx="2.5" ry="2.5"/>
		<ellipse fill="#6060FF" cx="190.62431" cy="228.98543" rx="2.5" ry="2.5"/>
		<ellipse fill="#6060FF" cx="190.62431" cy="228.98543" rx="2.5" ry="2.5"/>
		<ellipse fill="#6060FF" cx="202.86192" cy="226.33304" rx="2.5" ry="2.5"/>
		<ellipse fill="#6060FF" cx="206.68112" cy="227.04228" rx="2.5" ry="2.5"/>
		<ellipse fill="#6060FF" cx="253.07367" cy="234.16016" rx="2.5" ry="2.5"/>
		<ellipse fill="#6060FF" cx="253.07367" cy="234.16016" rx="2.5" ry="2.5"/>
		<ellipse fill="#6060FF" cx="264.92938" cy="239.7117" rx="2.5" ry="2.5"/>
		<ellipse fill="#6060FF" cx="269.74164" cy="241.76819" rx="2.5" ry="2.5"/>
		<ellipse fill="#6060FF" cx="292.9834" cy="231.67067" rx="2.5" ry="2.5"/>
		<ellipse fill="#6060FF" cx="300.01993" cy="235.62546" rx="2.5" ry="2.5"/>
		<ellipse fill="#6060FF" cx="319.74557" cy="236.81793" rx="2.5" ry="2.5"/>
		<ellipse fill="#6060FF" cx="319.74557" cy="236.81793" rx="2.5" ry="2.5"/>
		<ellipse fill="#6060FF" cx="319.74557" cy="241.67671" rx="2.5" ry="2.5"/>
		<ellipse fill="#6060FF" cx="323.07916" cy="240.77582" rx="2.5" ry="2.5"/>
		<ellipse fill="#6060FF" cx="323.07916" cy="240.77582" rx="2.5" ry="2.5"/>
		<ellipse fill="#6060FF" cx="326.41278" cy="240.7394" rx="2.5" ry="2.5"/>
		<ellipse fill="#6060FF" cx="326.65936" cy="241.60754" rx="2.5" ry="2.5"/>
		<ellipse fill="#6060FF" cx="326.65936" cy="241.60754" rx="2.5" ry="2.5"/>
		<ellipse fill="#6060FF" cx="327.4462" cy="240.82654" rx="2.5" ry="2.5"/>
		<ellipse fill="#6060FF" cx="355.63229" cy="238.6358" rx="2.5" ry="2.5"/>
		<ellipse fill="#6060FF" cx="434.06595" cy="172.50668" rx="2.5" ry="2.5"/>
		<ellipse fill="#6060FF" cx="434.06595" cy="172.50668" rx="2.5" ry="2.5"/>
		<ellipse fill="#6060FF" cx="473.94064" cy="173.46146" rx="2.5" ry="2.5"/>
		<ellipse fill="#6060FF" cx="473.94064" cy="173.46146" rx="2.5" ry="2.5"/>
		<ellipse fill="#6060FF" cx="473.94064" cy="173.46146" rx="2.5" ry="2.5"/>
		<ellipse fill="#6060FF" cx="473.94064" cy="173.46146" rx="2.5" ry="2.5"/>
		<ellipse fill="#6060FF" cx="553.62354" cy="133.28764" rx="2.5" ry="2.5"/>
		<ellipse fill="#6060FF" cx="556.96155" cy="134.06516" rx="2.5" ry="2.5"/>
		<ellipse fill="#6060FF" cx="603.54565" cy="144.06885" rx="2.5" ry="2.5"/>
		<ellipse fill="#6060FF" cx="630.88116" cy="149.28815" rx="2.5" ry="2.5"/>
	</g>
	<clipPath id="cl_101">
		<rect x="26.46875" y="15" width="758.53125" height="255.03906"/>
	</clipPath>
	<g clip-path="url(#cl_101)">
		<path fill="none" stroke="yellow" stroke-width="1" stroke-miterlimit="4" d="M61.3697 220.513L62.2031 218.281L62.2031 214.978L80.5268 217.919L80.5268 217.919L80.5268 214.95L125.286 224.189L125.286 223.712L125.375 226.573L182.902 223.979L201.374 228.64L201.374 228.64L209.967 230.759"/>
		<ellipse fill="yellow" cx="61.369698" cy="220.51274" rx="2.5" ry="2.5"/>
		<ellipse fill="yellow" cx="62.203094" cy="218.28058" rx="2.4999981" ry="2.5"/>
		<ellipse fill="yellow" cx="62.203094" cy="214.97818" rx="2.4999981" ry="2.5"/>
		<ellipse fill="yellow" cx="80.526764" cy="217.91902" rx="2.5" ry="2.5"/>
		<ellipse fill="yellow" cx="80.526764" cy="217.91902" rx="2.5" ry="2.5"/>
		<ellipse fill="yellow" cx="80.526764" cy="214.94957" rx="2.5" ry="2.5"/>
		<ellipse fill="yellow" cx="125.28584" cy="224.18887" rx="2.5" ry="2.5"/>
		<ellipse fill="yellow" cx="125.28584" cy="223.71231" rx="2.5" ry="2.5"/>
		<ellipse fill="yellow" cx="125.37473" cy="226.5726" rx="2.5" ry="2.5"/>
		<ellipse fill="yellow" cx="182.90192" cy="223.9787" rx="2.5" ry="2.5"/>
		<ellipse fill="yellow" cx="201.3745" cy="228.64029" rx="2.5" ry="2.5"/>
		<ellipse fill="yellow" cx="201.3745" cy="228.64029" rx="2.5" ry="2.5"/>
		<ellipse fill="yellow" cx="209.96689" cy="230.7587" rx="2.5" ry="2.5"/>
	</g>
	<clipPath id="cl_102">
		<rect x="26.46875" y="15" width="758.53125" height="255.03906"/>
	</clipPath>
	<g clip-path="url(#cl_102)">
		<path fill="none" stroke="#FFB600" stroke-width="1" stroke-miterlimit="4" d="M135.873 236.712L135.873 236.712L135.873 236.712"/>
		<ellipse fill="#FFB600" cx="135.87285" cy="236.71231" rx="2.5" ry="2.5"/>
		<ellipse fill="#FFB600" cx="135.87285" cy="236.71231" rx="2.5" ry="2.5"/>
		<ellipse fill="#FFB600" cx="135.87285" cy="236.71231" rx="2.5" ry="2.5"/>
	</g>
	<clipPath id="cl_103">
		<rect x="26.46875" y="15" width="758.53125" height="255.03906"/>
	</clipPath>
	<g clip-path="url(#cl_103)">
		<path fill="none" stroke="#FFBFBF" stroke-width="1" stroke-miterlimit="4" d="M100.062 237.044L100.062 237.044L123.197 239.865L129.175 241.006L132.398 240.561L133.064 240.682L141.398 236.71L146.21 239.714L179.423 242.056L187.513 230.114L202.436 231.087L206.77 231.806L330.206 229.414L330.256 229.42L338.369 225.2L338.369 225.2L366.138 194.96L366.138 194.96L675.362 190.393L750.521 198.133"/>
		<ellipse fill="#FFBFBF" cx="100.06163" cy="237.04395" rx="2.5" ry="2.5"/>
		<ellipse fill="#FFBFBF" cx="100.06163" cy="237.04395" rx="2.5" ry="2.5"/>
		<ellipse fill="#FFBFBF" cx="123.19678" cy="239.86459" rx="2.5" ry="2.5"/>
		<ellipse fill="#FFBFBF" cx="129.17503" cy="241.00597" rx="2.5" ry="2.5"/>
		<ellipse fill="#FFBFBF" cx="132.39751" cy="240.56061" rx="2.5" ry="2.5"/>
		<ellipse fill="#FFBFBF" cx="133.06422" cy="240.68222" rx="2.5" ry="2.5"/>
		<ellipse fill="#FFBFBF" cx="141.39822" cy="236.70963" rx="2.5" ry="2.5"/>
		<ellipse fill="#FFBFBF" cx="146.2097" cy="239.71356" rx="2.5" ry="2.5"/>
		<ellipse fill="#FFBFBF" cx="179.42343" cy="242.05627" rx="2.5" ry="2.5"/>
		<ellipse fill="#FFBFBF" cx="187.51295" cy="230.11397" rx="2.5" ry="2.5"/>
		<ellipse fill="#FFBFBF" cx="202.43636" cy="231.08652" rx="2.5" ry="2.5"/>
		<ellipse fill="#FFBFBF" cx="206.77002" cy="231.80609" rx="2.5" ry="2.5"/>
		<ellipse fill="#FFBFBF" cx="330.20605" cy="229.41435" rx="2.5" ry="2.5"/>
		<ellipse fill="#FFBFBF" cx="330.25598" cy="229.42007" rx="2.5" ry="2.5"/>
		<ellipse fill="#FFBFBF" cx="338.3692" cy="225.19963" rx="2.5" ry="2.5"/>
		<ellipse fill="#FFBFBF" cx="338.3692" cy="225.19963" rx="2.5" ry="2.5"/>
		<ellipse fill="#FFBFBF" cx="366.13797" cy="194.96007" rx="2.5" ry="2.5"/>
		<ellipse fill="#FFBFBF" cx="366.13797" cy="194.96007" rx="2.5" ry="2.5"/>
		<ellipse fill="#FFBFBF" cx="675.36194" cy="190.39346" rx="2.5" ry="2.5"/>
		<ellipse fill="#FFBFBF" cx="750.5213" cy="198.13303" rx="2.5" ry="2.5"/>
	</g>
	<clipPath id="cl_104">
		<rect x="26.46875" y="15" width="758.53125" height="255.03906"/>
	</clipPath>
	<g clip-path="url(#cl_104)">
		<path fill="none" stroke="#AB4E00" stroke-width="1" stroke-miterlimit="4" d="M175.038 228.584L198.873 228.635"/>
		<ellipse fill="#AB4E00" cx="175.03822" cy="228.58377" rx="2.5" ry="2.5"/>
		<ellipse fill="#AB4E00" cx="198.87325" cy="228.63477" rx="2.5" ry="2.5"/>
	</g>
	<clipPath id="cl_105">
		<rect x="26.46875" y="15" width="758.53125" height="255.03906"/>
	</clipPath>
	<g clip-path="url(#cl_105)">
		<path fill="none" stroke="#AAF" stroke-width="1" stroke-miterlimit="4" d="M307.414 226.629L307.414 226.629"/>
		<ellipse fill="#AAF" cx="307.41409" cy="226.62856" rx="2.5" ry="2.5"/>
		<ellipse fill="#AAF" cx="307.41409" cy="226.62856" rx="2.5" ry="2.5"/>
	</g>
	<clipPath id="cl_106">
		<rect x="26.46875" y="15" width="758.53125" height="255.03906"/>
	</clipPath>
	<g clip-path="url(#cl_106)">
		<path fill="#FF5454" d="M156.084 188.806L156.521 188.993L157.8 189.535L157.605 189.995L157.649 189.497L165.752 190.218L165.663 191.214L157.482 190.486L156.129 189.913L155.691 189.726L156.084 188.806ZM169.659 185.135L170.596 175.179L171.591 175.273L170.654 185.229L169.659 185.135ZM171.533 165.223L172.47 155.267L173.465 155.361L172.528 165.317L171.533 165.223ZM173.406 145.311L174.343 135.355L175.339 135.449L174.402 145.405L173.406 145.311ZM175.28 125.399L176.217 115.443L177.213 115.537L176.276 125.493L175.28 125.399ZM180.707 110.861L189.102 116.295L188.558 117.134L180.163 111.701L180.707 110.861ZM197.497 121.728L205.892 127.162L205.348 128.001L196.953 122.568L197.497 121.728ZM214.287 132.595L214.946 133.022L221.211 139.958L220.469 140.628L214.248 133.741L214.619 133.406L214.348 133.825L213.744 133.435L214.287 132.595ZM227.913 147.379L234.616 154.8L233.874 155.471L227.171 148.049L227.913 147.379ZM241.318 162.222L248.021 169.643L247.279 170.313L240.576 162.892L241.318 162.222ZM254.724 177.064L256.441 178.966L256.07 179.302L255.747 178.92L261.325 174.193L261.648 174.575L261.148 174.575L261.148 174.449L262.148 174.449L262.148 174.807L256.024 179.996L253.981 177.735L254.724 177.064ZM261.148 164.449L261.148 154.449L262.148 154.449L262.148 164.449L261.148 164.449ZM261.148 144.449L261.148 134.449L262.148 134.449L262.148 144.449L261.148 144.449ZM264.005 127.397L266.418 128.553L269.205 135.754L268.272 136.115L265.557 129.098L266.023 128.918L265.807 129.369L263.573 128.299L264.005 127.397ZM272.815 145.079L276.424 154.405L275.492 154.766L271.882 145.44L272.815 145.079ZM280.034 163.731L281.801 168.298L281.335 168.478L281.289 167.98L286.37 167.509L286.463 168.505L281.005 169.011L279.101 164.092L280.034 163.731ZM296.328 166.586L306.285 165.662L306.377 166.658L296.42 167.581L296.328 166.586ZM316.242 164.739L326.199 163.816L326.292 164.811L316.335 165.735L316.242 164.739ZM336.157 162.892L346.114 161.969L346.206 162.965L336.249 163.888L336.157 162.892ZM356.071 161.046L366.029 160.123L366.121 161.118L356.164 162.042L356.071 161.046ZM375.986 159.199L385.943 158.276L386.035 159.272L376.078 160.195L375.986 159.199ZM395.9 157.353L405.858 156.429L405.95 157.425L395.993 158.348L395.9 157.353ZM415.815 155.506L425.772 154.583L425.865 155.579L415.907 156.502L415.815 155.506ZM435.73 153.66L435.812 153.652L445.788 154.111L445.742 155.11L435.8 154.652L435.823 154.153L435.869 154.651L435.822 154.655L435.73 153.66ZM455.777 154.571L465.767 155.03L465.721 156.029L455.731 155.569L455.777 154.571ZM475.756 155.49L485.746 155.949L485.7 156.948L475.71 156.489L475.756 155.49ZM495.735 156.409L502.285 156.71L502.239 157.709L495.689 157.408L495.735 156.409Z"/>
		<ellipse fill="#FF5454" cx="155.88754" cy="189.26614" rx="2.5" ry="2.5"/>
		<ellipse fill="#FF5454" cx="156.32503" cy="189.45306" rx="2.5" ry="2.5"/>
		<ellipse fill="#FF5454" cx="157.60464" cy="189.99493" rx="2.5" ry="2.5"/>
		<ellipse fill="#FF5454" cx="169.77753" cy="191.078" rx="2.5" ry="2.5"/>
		<ellipse fill="#FF5454" cx="169.77753" cy="189.21075" rx="2.5" ry="2.5"/>
		<ellipse fill="#FF5454" cx="177.30217" cy="109.25072" rx="2.5" ry="2.5"/>
		<ellipse fill="#FF5454" cx="177.32405" cy="109.26735" rx="2.5" ry="2.5"/>
		<ellipse fill="#FF5454" cx="214.6192" cy="133.40565" rx="2.5" ry="2.5"/>
		<ellipse fill="#FF5454" cx="256.0704" cy="179.30161" rx="2.5" ry="2.5"/>
		<ellipse fill="#FF5454" cx="256.0704" cy="179.30161" rx="2.5" ry="2.5"/>
		<ellipse fill="#FF5454" cx="261.64825" cy="174.57492" rx="2.5" ry="2.5"/>
		<ellipse fill="#FF5454" cx="261.64825" cy="126.82307" rx="2.5" ry="2.5"/>
		<ellipse fill="#FF5454" cx="266.02307" cy="128.91795" rx="2.5" ry="2.5"/>
		<ellipse fill="#FF5454" cx="281.33484" cy="168.478" rx="2.5" ry="2.5"/>
		<ellipse fill="#FF5454" cx="435.82327" cy="154.15302" rx="2.5" ry="2.5"/>
		<ellipse fill="#FF5454" cx="502.26212" cy="157.20966" rx="2.5" ry="2.5"/>
	</g>
	<clipPath id="cl_107">
		<rect x="26.46875" y="15" width="758.53125" height="255.03906"/>
	</clipPath>
	<g clip-path="url(#cl_107)">
		<path fill="#AAA" d="M175.97 195.795L185.936 194.968L186.019 195.964L176.053 196.792L175.97 195.795ZM195.902 194.141L205.867 193.314L205.95 194.31L195.984 195.137L195.902 194.141ZM215.201 192.447L219.512 183.424L220.415 183.855L216.104 192.878L215.201 192.447ZM223.823 174.401L228.134 165.378L229.036 165.809L224.725 174.832L223.823 174.401ZM232.445 156.355L236.756 147.332L237.658 147.763L233.347 156.786L232.445 156.355ZM241.527 155.54L245.357 164.778L244.433 165.161L240.603 155.923L241.527 155.54ZM249.187 174.015L253.017 183.253L252.093 183.636L248.263 174.398L249.187 174.015ZM254.814 186.129L255.482 176.152L256.479 176.218L255.812 186.196L254.814 186.129ZM257.174 166.711L258.965 176.549L257.982 176.728L256.19 166.89L257.174 166.711ZM266.333 176.782L276.115 174.702L276.323 175.681L266.541 177.76L266.333 176.782ZM285.896 172.623L295.678 170.544L295.886 171.522L286.104 173.601L285.896 172.623ZM305.662 169.617L315.296 172.297L315.028 173.261L305.394 170.581L305.662 169.617ZM324.93 174.977L330.685 176.578L330.417 177.541L324.662 175.941L324.93 174.977Z"/>
		<ellipse fill="#AAA" cx="176.01161" cy="196.29326" rx="2.5" ry="2.5"/>
		<ellipse fill="#AAA" cx="215.48322" cy="193.01712" rx="2.5" ry="2.5"/>
		<ellipse fill="#AAA" cx="215.48322" cy="193.01712" rx="2.5" ry="2.5"/>
		<ellipse fill="#AAA" cx="237.45564" cy="147.0271" rx="2.5" ry="2.5"/>
		<ellipse fill="#AAA" cx="255.08606" cy="189.5477" rx="2.4999924" ry="2.5"/>
		<ellipse fill="#AAA" cx="256.62817" cy="166.50598" rx="2.5" ry="2.5"/>
		<ellipse fill="#AAA" cx="258.88123" cy="178.87695" rx="2.5" ry="2.5"/>
		<ellipse fill="#AAA" cx="303.20883" cy="169.45419" rx="2.5" ry="2.5"/>
		<ellipse fill="#AAA" cx="330.55133" cy="177.05978" rx="2.5" ry="2.5"/>
	</g>
	<clipPath id="cl_108">
		<rect x="26.46875" y="15" width="758.53125" height="255.03906"/>
	</clipPath>
	<g clip-path="url(#cl_108)">
		<path fill="#303030" d=""/>
		<ellipse fill="#303030" cx="324.90842" cy="147.91345" rx="2.5" ry="2.5"/>
	</g>
	<clipPath id="cl_109">
		<rect x="26.46875" y="15" width="758.53125" height="255.03906"/>
	</clipPath>
	<g clip-path="url(#cl_109)">
		<path fill="#FF9300" d=""/>
		<ellipse fill="#FF9300" cx="270.2666" cy="45.603516" rx="2.5" ry="2.5"/>
	</g>
	<clipPath id="cl_10a">
		<rect x="26.46875" y="15" width="758.53125" height="255.03906"/>
	</clipPath>
	<g clip-path="url(#cl_10a)">
		<path fill="#FF5454" d=""/>
		<ellipse fill="#FF5454" cx="169.77753" cy="189.21075" rx="2.5" ry="2.5"/>
	</g>
	<clipPath id="cl_10b">
		<rect x="26.46875" y="15" width="758.53125" height="255.03906"/>
	</clipPath>
	<g clip-path="url(#cl_10b)">
		<path fill="#FFBFBF" d="M263.444 188.876L272.459 184.547L272.892 185.449L263.877 189.777L263.444 188.876ZM281.474 180.219L290.488 175.89L290.921 176.792L281.906 181.12L281.474 180.219ZM299.503 171.562L308.517 167.233L308.95 168.134L299.936 172.463L299.503 171.562ZM317.532 162.904L326.547 158.576L326.98 159.477L317.965 163.806L317.532 162.904ZM335.561 154.247L344.576 149.919L345.009 150.82L335.994 155.149L335.561 154.247ZM353.591 145.59L362.605 141.262L363.038 142.163L354.024 146.492L353.591 145.59ZM372.307 143.302L381.685 146.775L381.338 147.713L371.96 144.24L372.307 143.302ZM391.063 150.248L400.44 153.72L400.093 154.658L390.715 151.185L391.063 150.248ZM409.818 157.193L415.126 159.159L414.778 160.097L409.471 158.131L409.818 157.193Z"/>
		<ellipse fill="#FFBFBF" cx="263.66068" cy="189.3264" rx="2.5" ry="2.5"/>
		<ellipse fill="#FFBFBF" cx="263.66068" cy="189.3264" rx="2.5" ry="2.5"/>
		<ellipse fill="#FFBFBF" cx="263.66068" cy="189.3264" rx="2.5" ry="2.5"/>
		<ellipse fill="#FFBFBF" cx="263.66068" cy="189.3264" rx="2.5" ry="2.5"/>
		<ellipse fill="#FFBFBF" cx="364.45599" cy="140.92789" rx="2.5" ry="2.5"/>
		<ellipse fill="#FFBFBF" cx="364.45599" cy="140.92789" rx="2.5" ry="2.5"/>
		<ellipse fill="#FFBFBF" cx="364.45599" cy="140.92789" rx="2.5" ry="2.5"/>
		<ellipse fill="#FFBFBF" cx="364.45599" cy="140.92789" rx="2.5" ry="2.5"/>
		<ellipse fill="#FFBFBF" cx="414.95212" cy="159.62762" rx="2.5" ry="2.5"/>
	</g>
	<clipPath id="cl_10c">
		<rect x="26.46875" y="15" width="758.53125" height="255.03906"/>
	</clipPath>
	<g clip-path="url(#cl_10c)">
		<path fill="#AFA" d=""/>
		<ellipse fill="#AFA" cx="325.32346" cy="201.20786" rx="2.5" ry="2.5"/>
	</g>
	<clipPath id="cl_10d">
		<rect x="26.46875" y="15" width="758.53125" height="255.03906"/>
	</clipPath>
	<g clip-path="url(#cl_10d)">
		<path fill="#C00000" d="M413.02 31.4013L417.653 40.2634L416.766 40.7267L412.133 31.8646M422.285 49.1255L426.918 57.9875L426.032 58.4508L421.399 49.5888M431.551 66.8496L436.184 75.7117L435.298 76.175L430.665 67.3129M440.817 84.5737L445.45 93.4358L444.564 93.8991L439.931 85.037M450.083 102.298L451.841 105.662L450.955 106.125L449.197 102.761"/>
		<ellipse fill="#C00000" cx="412.57651" cy="31.63298" rx="2.5" ry="2.5"/>
		<ellipse fill="#C00000" cx="451.39816" cy="105.89317" rx="2.5" ry="2.5"/>
	</g>
	<clipPath id="cl_10e">
		<rect x="26.46875" y="15" width="758.53125" height="255.03906"/>
	</clipPath>
	<g clip-path="url(#cl_10e)">
		<path fill="#6060FF" d="M363.996 126.832L373.996 126.962L373.983 127.961L363.984 127.832L363.996 126.832ZM383.995 127.091L393.994 127.22L393.981 128.22L383.982 128.091L383.995 127.091ZM403.993 127.349L413.992 127.478L413.979 128.478L403.98 128.349L403.993 127.349ZM423.991 127.607L433.991 127.736L433.978 128.736L423.979 128.607L423.991 127.607ZM443.99 127.865L447.584 127.912L447.571 128.911L443.977 128.865L443.99 127.865Z"/>
		<ellipse fill="#6060FF" cx="363.99002" cy="127.33244" rx="2.5" ry="2.5"/>
		<ellipse fill="#6060FF" cx="363.99002" cy="127.33244" rx="2.5" ry="2.5"/>
		<ellipse fill="#6060FF" cx="363.99002" cy="127.33244" rx="2.5" ry="2.5"/>
		<ellipse fill="#6060FF" cx="447.57715" cy="128.4115" rx="2.5" ry="2.5"/>
	</g>
	<path fill="none" stroke="black" stroke-width="1" stroke-miterlimit="4" d="M73.532 270.039L73.532 274.039"/>
	<text transform="translate(73.532 276.039)" font-size="12" font-family="Segoe UI" x="-17.472656, -11.003906, -4.5351563, -1.9335938, 4.5351563, 11.003906, " y="11.027344, ">
			10,000
	</text>
	<path fill="none" stroke="black" stroke-width="1" stroke-miterlimit="4" d="M128.217 270.039L128.217 274.039"/>
	<text transform="translate(128.217 276.039)" font-size="12" font-family="Segoe UI" x="-17.472656, -11.003906, -4.5351563, -1.9335938, 4.5351563, 11.003906, " y="11.027344, ">
			15,000
	</text>
	<path fill="none" stroke="black" stroke-width="1" stroke-miterlimit="4" d="M182.902 270.039L182.902 274.039"/>
	<text transform="translate(182.902 276.039)" font-size="12" font-family="Segoe UI" x="-17.472656, -11.003906, -4.5351563, -1.9335938, 4.5351563, 11.003906, " y="11.027344, ">
			20,000
	</text>
	<path fill="none" stroke="black" stroke-width="1" stroke-miterlimit="4" d="M237.587 270.039L237.587 274.039"/>
	<text transform="translate(237.587 276.039)" font-size="12" font-family="Segoe UI" x="-17.472656, -11.003906, -4.5351563, -1.9335938, 4.5351563, 11.003906, " y="11.027344, ">
			25,000
	</text>
	<path fill="none" stroke="black" stroke-width="1" stroke-miterlimit="4" d="M292.272 270.039L292.272 274.039"/>
	<text transform="translate(292.272 276.039)" font-size="12" font-family="Segoe UI" x="-17.472656, -11.003906, -4.5351563, -1.9335938, 4.5351563, 11.003906, " y="11.027344, ">
			30,000
	</text>
	<path fill="none" stroke="black" stroke-width="1" stroke-miterlimit="4" d="M346.957 270.039L346.957 274.039"/>
	<text transform="translate(346.957 276.039)" font-size="12" font-family="Segoe UI" x="-17.472656, -11.003906, -4.5351563, -1.9335938, 4.5351563, 11.003906, " y="11.027344, ">
			35,000
	</text>
	<path fill="none" stroke="black" stroke-width="1" stroke-miterlimit="4" d="M401.642 270.039L401.642 274.039"/>
	<text transform="translate(401.642 276.039)" font-size="12" font-family="Segoe UI" x="-17.472656, -11.003906, -4.5351563, -1.9335938, 4.5351563, 11.003906, " y="11.027344, ">
			40,000
	</text>
	<path fill="none" stroke="black" stroke-width="1" stroke-miterlimit="4" d="M456.327 270.039L456.327 274.039"/>
	<text transform="translate(456.327 276.039)" font-size="12" font-family="Segoe UI" x="-17.472656, -11.003906, -4.5351563, -1.9335938, 4.5351563, 11.003906, " y="11.027344, ">
			45,000
	</text>
	<path fill="none" stroke="black" stroke-width="1" stroke-miterlimit="4" d="M511.012 270.039L511.012 274.039"/>
	<text transform="translate(511.012 276.039)" font-size="12" font-family="Segoe UI" x="-17.472656, -11.003906, -4.5351563, -1.9335938, 4.5351563, 11.003906, " y="11.027344, ">
			50,000
	</text>
	<path fill="none" stroke="black" stroke-width="1" stroke-miterlimit="4" d="M565.697 270.039L565.697 274.039"/>
	<text transform="translate(565.697 276.039)" font-size="12" font-family="Segoe UI" x="-17.472656, -11.003906, -4.5351563, -1.9335938, 4.5351563, 11.003906, " y="11.027344, ">
			55,000
	</text>
	<path fill="none" stroke="black" stroke-width="1" stroke-miterlimit="4" d="M620.382 270.039L620.382 274.039"/>
	<text transform="translate(620.382 276.039)" font-size="12" font-family="Segoe UI" x="-17.472656, -11.003906, -4.5351563, -1.9335938, 4.5351563, 11.003906, " y="11.027344, ">
			60,000
	</text>
	<path fill="none" stroke="black" stroke-width="1" stroke-miterlimit="4" d="M675.067 270.039L675.067 274.039"/>
	<text transform="translate(675.067 276.039)" font-size="12" font-family="Segoe UI" x="-17.472656, -11.003906, -4.5351563, -1.9335938, 4.5351563, 11.003906, " y="11.027344, ">
			65,000
	</text>
	<path fill="none" stroke="black" stroke-width="1" stroke-miterlimit="4" d="M729.752 270.039L729.752 274.039"/>
	<text transform="translate(729.752 276.039)" font-size="12" font-family="Segoe UI" x="-17.472656, -11.003906, -4.5351563, -1.9335938, 4.5351563, 11.003906, " y="11.027344, ">
			70,000
	</text>
	<path fill="none" stroke="black" stroke-width="1" stroke-miterlimit="4" d="M784.437 270.039L784.437 274.039"/>
	<text transform="translate(784.437 276.039)" font-size="12" font-family="Segoe UI" x="-17.472656, -11.003906, -4.5351563, -1.9335938, 4.5351563, 11.003906, " y="11.027344, ">
			75,000
	</text>
	<path fill="none" stroke="black" stroke-width="1" stroke-miterlimit="4" d="M29.784 270.039L29.784 272.039"/>
	<path fill="none" stroke="black" stroke-width="1" stroke-miterlimit="4" d="M40.721 270.039L40.721 272.039"/>
	<path fill="none" stroke="black" stroke-width="1" stroke-miterlimit="4" d="M51.658 270.039L51.658 272.039"/>
	<path fill="none" stroke="black" stroke-width="1" stroke-miterlimit="4" d="M62.595 270.039L62.595 272.039"/>
	<path fill="none" stroke="black" stroke-width="1" stroke-miterlimit="4" d="M84.469 270.039L84.469 272.039"/>
	<path fill="none" stroke="black" stroke-width="1" stroke-miterlimit="4" d="M95.406 270.039L95.406 272.039"/>
	<path fill="none" stroke="black" stroke-width="1" stroke-miterlimit="4" d="M106.343 270.039L106.343 272.039"/>
	<path fill="none" stroke="black" stroke-width="1" stroke-miterlimit="4" d="M117.28 270.039L117.28 272.039"/>
	<path fill="none" stroke="black" stroke-width="1" stroke-miterlimit="4" d="M139.154 270.039L139.154 272.039"/>
	<path fill="none" stroke="black" stroke-width="1" stroke-miterlimit="4" d="M150.091 270.039L150.091 272.039"/>
	<path fill="none" stroke="black" stroke-width="1" stroke-miterlimit="4" d="M161.028 270.039L161.028 272.039"/>
	<path fill="none" stroke="black" stroke-width="1" stroke-miterlimit="4" d="M171.965 270.039L171.965 272.039"/>
	<path fill="none" stroke="black" stroke-width="1" stroke-miterlimit="4" d="M193.839 270.039L193.839 272.039"/>
	<path fill="none" stroke="black" stroke-width="1" stroke-miterlimit="4" d="M204.776 270.039L204.776 272.039"/>
	<path fill="none" stroke="black" stroke-width="1" stroke-miterlimit="4" d="M215.713 270.039L215.713 272.039"/>
	<path fill="none" stroke="black" stroke-width="1" stroke-miterlimit="4" d="M226.65 270.039L226.65 272.039"/>
	<path fill="none" stroke="black" stroke-width="1" stroke-miterlimit="4" d="M248.524 270.039L248.524 272.039"/>
	<path fill="none" stroke="black" stroke-width="1" stroke-miterlimit="4" d="M259.461 270.039L259.461 272.039"/>
	<path fill="none" stroke="black" stroke-width="1" stroke-miterlimit="4" d="M270.398 270.039L270.398 272.039"/>
	<path fill="none" stroke="black" stroke-width="1" stroke-miterlimit="4" d="M281.335 270.039L281.335 272.039"/>
	<path fill="none" stroke="black" stroke-width="1" stroke-miterlimit="4" d="M303.209 270.039L303.209 272.039"/>
	<path fill="none" stroke="black" stroke-width="1" stroke-miterlimit="4" d="M314.146 270.039L314.146 272.039"/>
	<path fill="none" stroke="black" stroke-width="1" stroke-miterlimit="4" d="M325.083 270.039L325.083 272.039"/>
	<path fill="none" stroke="black" stroke-width="1" stroke-miterlimit="4" d="M336.02 270.039L336.02 272.039"/>
	<path fill="none" stroke="black" stroke-width="1" stroke-miterlimit="4" d="M357.894 270.039L357.894 272.039"/>
	<path fill="none" stroke="black" stroke-width="1" stroke-miterlimit="4" d="M368.831 270.039L368.831 272.039"/>
	<path fill="none" stroke="black" stroke-width="1" stroke-miterlimit="4" d="M379.768 270.039L379.768 272.039"/>
	<path fill="none" stroke="black" stroke-width="1" stroke-miterlimit="4" d="M390.705 270.039L390.705 272.039"/>
	<path fill="none" stroke="black" stroke-width="1" stroke-miterlimit="4" d="M412.579 270.039L412.579 272.039"/>
	<path fill="none" stroke="black" stroke-width="1" stroke-miterlimit="4" d="M423.516 270.039L423.516 272.039"/>
	<path fill="none" stroke="black" stroke-width="1" stroke-miterlimit="4" d="M434.453 270.039L434.453 272.039"/>
	<path fill="none" stroke="black" stroke-width="1" stroke-miterlimit="4" d="M445.39 270.039L445.39 272.039"/>
	<path fill="none" stroke="black" stroke-width="1" stroke-miterlimit="4" d="M467.264 270.039L467.264 272.039"/>
	<path fill="none" stroke="black" stroke-width="1" stroke-miterlimit="4" d="M478.201 270.039L478.201 272.039"/>
	<path fill="none" stroke="black" stroke-width="1" stroke-miterlimit="4" d="M489.138 270.039L489.138 272.039"/>
	<path fill="none" stroke="black" stroke-width="1" stroke-miterlimit="4" d="M500.075 270.039L500.075 272.039"/>
	<path fill="none" stroke="black" stroke-width="1" stroke-miterlimit="4" d="M521.949 270.039L521.949 272.039"/>
	<path fill="none" stroke="black" stroke-width="1" stroke-miterlimit="4" d="M532.886 270.039L532.886 272.039"/>
	<path fill="none" stroke="black" stroke-width="1" stroke-miterlimit="4" d="M543.823 270.039L543.823 272.039"/>
	<path fill="none" stroke="black" stroke-width="1" stroke-miterlimit="4" d="M554.76 270.039L554.76 272.039"/>
	<path fill="none" stroke="black" stroke-width="1" stroke-miterlimit="4" d="M576.634 270.039L576.634 272.039"/>
	<path fill="none" stroke="black" stroke-width="1" stroke-miterlimit="4" d="M587.571 270.039L587.571 272.039"/>
	<path fill="none" stroke="black" stroke-width="1" stroke-miterlimit="4" d="M598.508 270.039L598.508 272.039"/>
	<path fill="none" stroke="black" stroke-width="1" stroke-miterlimit="4" d="M609.445 270.039L609.445 272.039"/>
	<path fill="none" stroke="black" stroke-width="1" stroke-miterlimit="4" d="M631.319 270.039L631.319 272.039"/>
	<path fill="none" stroke="black" stroke-width="1" stroke-miterlimit="4" d="M642.256 270.039L642.256 272.039"/>
	<path fill="none" stroke="black" stroke-width="1" stroke-miterlimit="4" d="M653.193 270.039L653.193 272.039"/>
	<path fill="none" stroke="black" stroke-width="1" stroke-miterlimit="4" d="M664.13 270.039L664.13 272.039"/>
	<path fill="none" stroke="black" stroke-width="1" stroke-miterlimit="4" d="M686.004 270.039L686.004 272.039"/>
	<path fill="none" stroke="black" stroke-width="1" stroke-miterlimit="4" d="M696.941 270.039L696.941 272.039"/>
	<path fill="none" stroke="black" stroke-width="1" stroke-miterlimit="4" d="M707.878 270.039L707.878 272.039"/>
	<path fill="none" stroke="black" stroke-width="1" stroke-miterlimit="4" d="M718.815 270.039L718.815 272.039"/>
	<path fill="none" stroke="black" stroke-width="1" stroke-miterlimit="4" d="M740.689 270.039L740.689 272.039"/>
	<path fill="none" stroke="black" stroke-width="1" stroke-miterlimit="4" d="M751.626 270.039L751.626 272.039"/>
	<path fill="none" stroke="black" stroke-width="1" stroke-miterlimit="4" d="M762.563 270.039L762.563 272.039"/>
	<path fill="none" stroke="black" stroke-width="1" stroke-miterlimit="4" d="M773.5 270.039L773.5 272.039"/>
	<path fill="none" stroke="black" stroke-width="1" stroke-miterlimit="4" d="M26.4688 270.039L785 270.039"/>
	<path fill="none" stroke="black" stroke-width="1" stroke-miterlimit="4" d="M26.4688 15.1L785 15.1"/>
	<path fill="none" stroke="black" stroke-width="1" stroke-miterlimit="4" d="M26.4688 236.265L22.4688 236.265"/>
	<text transform="translate(17.4688 236.265)" font-size="12" font-family="Segoe UI" x="-6.46875, " y="3.046875, ">
			1
	</text>
	<path fill="none" stroke="black" stroke-width="1" stroke-miterlimit="4" d="M26.4688 201.161L22.4688 201.161"/>
	<text transform="translate(17.4688 201.161)" font-size="12" font-family="Segoe UI" x="-6.46875, " y="3.046875, ">
			2
	</text>
	<path fill="none" stroke="black" stroke-width="1" stroke-miterlimit="4" d="M26.4688 166.057L22.4688 166.057"/>
	<text transform="translate(17.4688 166.057)" font-size="12" font-family="Segoe UI" x="-6.46875, " y="3.046875, ">
			3
	</text>
	<path fill="none" stroke="black" stroke-width="1" stroke-miterlimit="4" d="M26.4688 130.953L22.4688 130.953"/>
	<text transform="translate(17.4688 130.953)" font-size="12" font-family="Segoe UI" x="-6.46875, " y="3.046875, ">
			4
	</text>
	<path fill="none" stroke="black" stroke-width="1" stroke-miterlimit="4" d="M26.4688 95.8489L22.4688 95.8489"/>
	<text transform="translate(17.4688 95.8489)" font-size="12" font-family="Segoe UI" x="-6.46875, " y="3.046875, ">
			5
	</text>
	<path fill="none" stroke="black" stroke-width="1" stroke-miterlimit="4" d="M26.4688 60.7449L22.4688 60.7449"/>
	<text transform="translate(17.4688 60.7449)" font-size="12" font-family="Segoe UI" x="-6.46875, " y="3.046875, ">
			6
	</text>
	<path fill="none" stroke="black" stroke-width="1" stroke-miterlimit="4" d="M26.4688 25.6408L22.4688 25.6408"/>
	<text transform="translate(17.4688 25.6408)" font-size="12" font-family="Segoe UI" x="-6.46875, " y="3.046875, ">
			7
	</text>
	<path fill="none" stroke="black" stroke-width="1" stroke-miterlimit="4" d="M26.4688 264.348L24.4688 264.348"/>
	<path fill="none" stroke="black" stroke-width="1" stroke-miterlimit="4" d="M26.4688 257.328L24.4688 257.328"/>
	<path fill="none" stroke="black" stroke-width="1" stroke-miterlimit="4" d="M26.4688 250.307L24.4688 250.307"/>
	<path fill="none" stroke="black" stroke-width="1" stroke-miterlimit="4" d="M26.4688 243.286L24.4688 243.286"/>
	<path fill="none" stroke="black" stroke-width="1" stroke-miterlimit="4" d="M26.4688 229.244L24.4688 229.244"/>
	<path fill="none" stroke="black" stroke-width="1" stroke-miterlimit="4" d="M26.4688 222.223L24.4688 222.223"/>
	<path fill="none" stroke="black" stroke-width="1" stroke-miterlimit="4" d="M26.4688 215.203L24.4688 215.203"/>
	<path fill="none" stroke="black" stroke-width="1" stroke-miterlimit="4" d="M26.4688 208.182L24.4688 208.182"/>
	<path fill="none" stroke="black" stroke-width="1" stroke-miterlimit="4" d="M26.4688 194.14L24.4688 194.14"/>
	<path fill="none" stroke="black" stroke-width="1" stroke-miterlimit="4" d="M26.4688 187.119L24.4688 187.119"/>
	<path fill="none" stroke="black" stroke-width="1" stroke-miterlimit="4" d="M26.4688 180.099L24.4688 180.099"/>
	<path fill="none" stroke="black" stroke-width="1" stroke-miterlimit="4" d="M26.4688 173.078L24.4688 173.078"/>
	<path fill="none" stroke="black" stroke-width="1" stroke-miterlimit="4" d="M26.4688 159.036L24.4688 159.036"/>
	<path fill="none" stroke="black" stroke-width="1" stroke-miterlimit="4" d="M26.4688 152.015L24.4688 152.015"/>
	<path fill="none" stroke="black" stroke-width="1" stroke-miterlimit="4" d="M26.4688 144.995L24.4688 144.995"/>
	<path fill="none" stroke="black" stroke-width="1" stroke-miterlimit="4" d="M26.4688 137.974L24.4688 137.974"/>
	<path fill="none" stroke="black" stroke-width="1" stroke-miterlimit="4" d="M26.4688 123.932L24.4688 123.932"/>
	<path fill="none" stroke="black" stroke-width="1" stroke-miterlimit="4" d="M26.4688 116.911L24.4688 116.911"/>
	<path fill="none" stroke="black" stroke-width="1" stroke-miterlimit="4" d="M26.4688 109.891L24.4688 109.891"/>
	<path fill="none" stroke="black" stroke-width="1" stroke-miterlimit="4" d="M26.4688 102.87L24.4688 102.87"/>
	<path fill="none" stroke="black" stroke-width="1" stroke-miterlimit="4" d="M26.4688 88.8281L24.4688 88.8281"/>
	<path fill="none" stroke="black" stroke-width="1" stroke-miterlimit="4" d="M26.4688 81.8073L24.4688 81.8073"/>
	<path fill="none" stroke="black" stroke-width="1" stroke-miterlimit="4" d="M26.4688 74.7865L24.4688 74.7865"/>
	<path fill="none" stroke="black" stroke-width="1" stroke-miterlimit="4" d="M26.4688 67.7657L24.4688 67.7657"/>
	<path fill="none" stroke="black" stroke-width="1" stroke-miterlimit="4" d="M26.4688 53.7241L24.4688 53.7241"/>
	<path fill="none" stroke="black" stroke-width="1" stroke-miterlimit="4" d="M26.4688 46.7032L24.4688 46.7032"/>
	<path fill="none" stroke="black" stroke-width="1" stroke-miterlimit="4" d="M26.4688 39.6824L24.4688 39.6824"/>
	<path fill="none" stroke="black" stroke-width="1" stroke-miterlimit="4" d="M26.4688 32.6616L24.4688 32.6616"/>
	<path fill="none" stroke="black" stroke-width="1" stroke-miterlimit="4" d="M26.4688 18.62L24.4688 18.62"/>
	<path fill="none" stroke="black" stroke-width="1" stroke-miterlimit="4" d="M26.4688 270.039L26.4688 15"/>
	<path fill="none" stroke="black" stroke-width="1" stroke-miterlimit="4" d="M785 270.039L785 15"/>
</svg>
