<?xml version="1.0" encoding="utf-8" ?>
<svg xmlns="http://www.w3.org/2000/svg" xmlns:xlink="http://www.w3.org/1999/xlink" width="800" height="300">
	<rect fill="white" width="800" height="300"/>
	<path fill="none" stroke="#010101" stroke-width="1" stroke-miterlimit="4" stroke-opacity="0.098039217" d="M81.3497 270.039L81.3497 15M131.064 270.039L131.064 15M180.778 270.039L180.778 15M230.492 270.039L230.492 15M280.206 270.039L280.206 15M329.92 270.039L329.92 15M379.634 270.039L379.634 15M429.348 270.039L429.348 15M479.062 270.039L479.062 15M528.776 270.039L528.776 15M578.49 270.039L578.49 15M628.204 270.039L628.204 15M677.918 270.039L677.918 15M727.632 270.039L727.632 15M777.346 270.039L777.346 15"/>
	<path fill="none" stroke="#010101" stroke-width="1" stroke-miterlimit="4" stroke-opacity="0.098039217" d="M42.0078 256.784L785 256.784M42.0078 232.162L785 232.162M42.0078 207.54L785 207.54M42.0078 182.917L785 182.917M42.0078 158.295L785 158.295M42.0078 133.673L785 133.673M42.0078 109.051L785 109.051M42.0078 84.4283L785 84.4283M42.0078 59.8061L785 59.8061M42.0078 35.1838L785 35.1838"/>
	<clipPath id="cl_dd">
		<rect x="42.007813" y="15" width="742.99219" height="255.03906"/>
	</clipPath>
	<g clip-path="url(#cl_dd)">
		<path fill="none" stroke="#1F77B4" stroke-width="1" stroke-miterlimit="4" d="M75.7802 109.674L79.5684 78.3609L79.5684 32.0343L162.858 73.289L162.858 73.289L162.858 31.633L366.311 161.243L366.311 154.558L366.715 194.683L628.204 158.295L712.171 223.689L712.171 223.689L751.228 253.406"/>
		<ellipse fill="#1F77B4" cx="75.780182" cy="109.67415" rx="2.5" ry="2.5"/>
		<ellipse fill="#1F77B4" cx="79.56839" cy="78.360901" rx="2.5" ry="2.5"/>
		<ellipse fill="#1F77B4" cx="79.56839" cy="32.034286" rx="2.5" ry="2.5"/>
		<ellipse fill="#1F77B4" cx="162.85847" cy="73.288971" rx="2.5" ry="2.5"/>
		<ellipse fill="#1F77B4" cx="162.85847" cy="73.288971" rx="2.5" ry="2.5"/>
		<ellipse fill="#1F77B4" cx="162.85847" cy="31.63298" rx="2.5" ry="2.5"/>
		<ellipse fill="#1F77B4" cx="366.31052" cy="161.24345" rx="2.5" ry="2.5"/>
		<ellipse fill="#1F77B4" cx="366.31052" cy="154.55807" rx="2.5" ry="2.5"/>
		<ellipse fill="#1F77B4" cx="366.7146" cy="194.68283" rx="2.5" ry="2.5"/>
		<ellipse fill="#1F77B4" cx="628.20398" cy="158.2952" rx="2.5" ry="2.5"/>
		<ellipse fill="#1F77B4" cx="712.17096" cy="223.6886" rx="2.5" ry="2.5"/>
		<ellipse fill="#1F77B4" cx="712.17096" cy="223.6886" rx="2.5" ry="2.5"/>
		<ellipse fill="#1F77B4" cx="751.2276" cy="253.40608" rx="2.5" ry="2.5"/>
	</g>
	<path fill="none" stroke="black" stroke-width="1" stroke-miterlimit="4" d="M81.3497 270.039L81.3497 274.039"/>
	<text transform="translate(81.3497 276.039)" font-size="12" font-family="Segoe UI" x="-14.238281, -7.7695313, -5.1679688, 1.3007813, 7.7695313, " y="11.027344, ">
			9,000
	</text>
	<path fill="none" stroke="black" stroke-width="1" stroke-miterlimit="4" d="M131.064 270.039L131.064 274.039"/>
	<text transform="translate(131.064 276.039)" font-size="12" font-family="Segoe UI" x="-17.472656, -11.003906, -4.5351563, -1.9335938, 4.5351563, 11.003906, " y="11.027344, ">
			10,000
	</text>
	<path fill="none" stroke="black" stroke-width="1" stroke-miterlimit="4" d="M180.778 270.039L180.778 274.039"/>
	<text transform="translate(180.778 276.039)" font-size="12" font-family="Segoe UI" x="-17.472656, -11.003906, -4.5351563, -1.9335938, 4.5351563, 11.003906, " y="11.027344, ">
			11,000
	</text>
	<path fill="none" stroke="black" stroke-width="1" stroke-miterlimit="4" d="M230.492 270.039L230.492 274.039"/>
	<text transform="translate(230.492 276.039)" font-size="12" font-family="Segoe UI" x="-17.472656, -11.003906, -4.5351563, -1.9335938, 4.5351563, 11.003906, " y="11.027344, ">
			12,000
	</text>
	<path fill="none" stroke="black" stroke-width="1" stroke-miterlimit="4" d="M280.206 270.039L280.206 274.039"/>
	<text transform="translate(280.206 276.039)" font-size="12" font-family="Segoe UI" x="-17.472656, -11.003906, -4.5351563, -1.9335938, 4.5351563, 11.003906, " y="11.027344, ">
			13,000
	</text>
	<path fill="none" stroke="black" stroke-width="1" stroke-miterlimit="4" d="M329.92 270.039L329.92 274.039"/>
	<text transform="translate(329.92 276.039)" font-size="12" font-family="Segoe UI" x="-17.472656, -11.003906, -4.5351563, -1.9335938, 4.5351563, 11.003906, " y="11.027344, ">
			14,000
	</text>
	<path fill="none" stroke="black" stroke-width="1" stroke-miterlimit="4" d="M379.634 270.039L379.634 274.039"/>
	<text transform="translate(379.634 276.039)" font-size="12" font-family="Segoe UI" x="-17.472656, -11.003906, -4.5351563, -1.9335938, 4.5351563, 11.003906, " y="11.027344, ">
			15,000
	</text>
	<path fill="none" stroke="black" stroke-width="1" stroke-miterlimit="4" d="M429.348 270.039L429.348 274.039"/>
	<text transform="translate(429.348 276.039)" font-size="12" font-family="Segoe UI" x="-17.472656, -11.003906, -4.5351563, -1.9335938, 4.5351563, 11.003906, " y="11.027344, ">
			16,000
	</text>
	<path fill="none" stroke="black" stroke-width="1" stroke-miterlimit="4" d="M479.062 270.039L479.062 274.039"/>
	<text transform="translate(479.062 276.039)" font-size="12" font-family="Segoe UI" x="-17.472656, -11.003906, -4.5351563, -1.9335938, 4.5351563, 11.003906, " y="11.027344, ">
			17,000
	</text>
	<path fill="none" stroke="black" stroke-width="1" stroke-miterlimit="4" d="M528.776 270.039L528.776 274.039"/>
	<text transform="translate(528.776 276.039)" font-size="12" font-family="Segoe UI" x="-17.472656, -11.003906, -4.5351563, -1.9335938, 4.5351563, 11.003906, " y="11.027344, ">
			18,000
	</text>
	<path fill="none" stroke="black" stroke-width="1" stroke-miterlimit="4" d="M578.49 270.039L578.49 274.039"/>
	<text transform="translate(578.49 276.039)" font-size="12" font-family="Segoe UI" x="-17.472656, -11.003906, -4.5351563, -1.9335938, 4.5351563, 11.003906, " y="11.027344, ">
			19,000
	</text>
	<path fill="none" stroke="black" stroke-width="1" stroke-miterlimit="4" d="M628.204 270.039L628.204 274.039"/>
	<text transform="translate(628.204 276.039)" font-size="12" font-family="Segoe UI" x="-17.472656, -11.003906, -4.5351563, -1.9335938, 4.5351563, 11.003906, " y="11.027344, ">
			20,000
	</text>
	<path fill="none" stroke="black" stroke-width="1" stroke-miterlimit="4" d="M677.918 270.039L677.918 274.039"/>
	<text transform="translate(677.918 276.039)" font-size="12" font-family="Segoe UI" x="-17.472656, -11.003906, -4.5351563, -1.9335938, 4.5351563, 11.003906, " y="11.027344, ">
			21,000
	</text>
	<path fill="none" stroke="black" stroke-width="1" stroke-miterlimit="4" d="M727.632 270.039L727.632 274.039"/>
	<text transform="translate(727.632 276.039)" font-size="12" font-family="Segoe UI" x="-17.472656, -11.003906, -4.5351563, -1.9335938, 4.5351563, 11.003906, " y="11.027344, ">
			22,000
	</text>
	<path fill="none" stroke="black" stroke-width="1" stroke-miterlimit="4" d="M777.346 270.039L777.346 274.039"/>
	<text transform="translate(777.346 276.039)" font-size="12" font-family="Segoe UI" x="-17.472656, -11.003906, -4.5351563, -1.9335938, 4.5351563, 11.003906, " y="11.027344, ">
			23,000
	</text>
	<path fill="none" stroke="black" stroke-width="1" stroke-miterlimit="4" d="M51.5213 270.039L51.5213 272.039"/>
	<path fill="none" stroke="black" stroke-width="1" stroke-miterlimit="4" d="M61.4641 270.039L61.4641 272.039"/>
	<path fill="none" stroke="black" stroke-width="1" stroke-miterlimit="4" d="M71.4069 270.039L71.4069 272.039"/>
	<path fill="none" stroke="black" stroke-width="1" stroke-miterlimit="4" d="M91.2925 270.039L91.2925 272.039"/>
	<path fill="none" stroke="black" stroke-width="1" stroke-miterlimit="4" d="M101.235 270.039L101.235 272.039"/>
	<path fill="none" stroke="black" stroke-width="1" stroke-miterlimit="4" d="M111.178 270.039L111.178 272.039"/>
	<path fill="none" stroke="black" stroke-width="1" stroke-miterlimit="4" d="M121.121 270.039L121.121 272.039"/>
	<path fill="none" stroke="black" stroke-width="1" stroke-miterlimit="4" d="M141.007 270.039L141.007 272.039"/>
	<path fill="none" stroke="black" stroke-width="1" stroke-miterlimit="4" d="M150.949 270.039L150.949 272.039"/>
	<path fill="none" stroke="black" stroke-width="1" stroke-miterlimit="4" d="M160.892 270.039L160.892 272.039"/>
	<path fill="none" stroke="black" stroke-width="1" stroke-miterlimit="4" d="M170.835 270.039L170.835 272.039"/>
	<path fill="none" stroke="black" stroke-width="1" stroke-miterlimit="4" d="M190.721 270.039L190.721 272.039"/>
	<path fill="none" stroke="black" stroke-width="1" stroke-miterlimit="4" d="M200.663 270.039L200.663 272.039"/>
	<path fill="none" stroke="black" stroke-width="1" stroke-miterlimit="4" d="M210.606 270.039L210.606 272.039"/>
	<path fill="none" stroke="black" stroke-width="1" stroke-miterlimit="4" d="M220.549 270.039L220.549 272.039"/>
	<path fill="none" stroke="black" stroke-width="1" stroke-miterlimit="4" d="M240.435 270.039L240.435 272.039"/>
	<path fill="none" stroke="black" stroke-width="1" stroke-miterlimit="4" d="M250.377 270.039L250.377 272.039"/>
	<path fill="none" stroke="black" stroke-width="1" stroke-miterlimit="4" d="M260.32 270.039L260.32 272.039"/>
	<path fill="none" stroke="black" stroke-width="1" stroke-miterlimit="4" d="M270.263 270.039L270.263 272.039"/>
	<path fill="none" stroke="black" stroke-width="1" stroke-miterlimit="4" d="M290.149 270.039L290.149 272.039"/>
	<path fill="none" stroke="black" stroke-width="1" stroke-miterlimit="4" d="M300.091 270.039L300.091 272.039"/>
	<path fill="none" stroke="black" stroke-width="1" stroke-miterlimit="4" d="M310.034 270.039L310.034 272.039"/>
	<path fill="none" stroke="black" stroke-width="1" stroke-miterlimit="4" d="M319.977 270.039L319.977 272.039"/>
	<path fill="none" stroke="black" stroke-width="1" stroke-miterlimit="4" d="M339.863 270.039L339.863 272.039"/>
	<path fill="none" stroke="black" stroke-width="1" stroke-miterlimit="4" d="M349.805 270.039L349.805 272.039"/>
	<path fill="none" stroke="black" stroke-width="1" stroke-miterlimit="4" d="M359.748 270.039L359.748 272.039"/>
	<path fill="none" stroke="black" stroke-width="1" stroke-miterlimit="4" d="M369.691 270.039L369.691 272.039"/>
	<path fill="none" stroke="black" stroke-width="1" stroke-miterlimit="4" d="M389.577 270.039L389.577 272.039"/>
	<path fill="none" stroke="black" stroke-width="1" stroke-miterlimit="4" d="M399.52 270.039L399.52 272.039"/>
	<path fill="none" stroke="black" stroke-width="1" stroke-miterlimit="4" d="M409.462 270.039L409.462 272.039"/>
	<path fill="none" stroke="black" stroke-width="1" stroke-miterlimit="4" d="M419.405 270.039L419.405 272.039"/>
	<path fill="none" stroke="black" stroke-width="1" stroke-miterlimit="4" d="M439.291 270.039L439.291 272.039"/>
	<path fill="none" stroke="black" stroke-width="1" stroke-miterlimit="4" d="M449.234 270.039L449.234 272.039"/>
	<path fill="none" stroke="black" stroke-width="1" stroke-miterlimit="4" d="M459.176 270.039L459.176 272.039"/>
	<path fill="none" stroke="black" stroke-width="1" stroke-miterlimit="4" d="M469.119 270.039L469.119 272.039"/>
	<path fill="none" stroke="black" stroke-width="1" stroke-miterlimit="4" d="M489.005 270.039L489.005 272.039"/>
	<path fill="none" stroke="black" stroke-width="1" stroke-miterlimit="4" d="M498.948 270.039L498.948 272.039"/>
	<path fill="none" stroke="black" stroke-width="1" stroke-miterlimit="4" d="M508.89 270.039L508.89 272.039"/>
	<path fill="none" stroke="black" stroke-width="1" stroke-miterlimit="4" d="M518.833 270.039L518.833 272.039"/>
	<path fill="none" stroke="black" stroke-width="1" stroke-miterlimit="4" d="M538.719 270.039L538.719 272.039"/>
	<path fill="none" stroke="black" stroke-width="1" stroke-miterlimit="4" d="M548.662 270.039L548.662 272.039"/>
	<path fill="none" stroke="black" stroke-width="1" stroke-miterlimit="4" d="M558.604 270.039L558.604 272.039"/>
	<path fill="none" stroke="black" stroke-width="1" stroke-miterlimit="4" d="M568.547 270.039L568.547 272.039"/>
	<path fill="none" stroke="black" stroke-width="1" stroke-miterlimit="4" d="M588.433 270.039L588.433 272.039"/>
	<path fill="none" stroke="black" stroke-width="1" stroke-miterlimit="4" d="M598.376 270.039L598.376 272.039"/>
	<path fill="none" stroke="black" stroke-width="1" stroke-miterlimit="4" d="M608.318 270.039L608.318 272.039"/>
	<path fill="none" stroke="black" stroke-width="1" stroke-miterlimit="4" d="M618.261 270.039L618.261 272.039"/>
	<path fill="none" stroke="black" stroke-width="1" stroke-miterlimit="4" d="M638.147 270.039L638.147 272.039"/>
	<path fill="none" stroke="black" stroke-width="1" stroke-miterlimit="4" d="M648.09 270.039L648.09 272.039"/>
	<path fill="none" stroke="black" stroke-width="1" stroke-miterlimit="4" d="M658.032 270.039L658.032 272.039"/>
	<path fill="none" stroke="black" stroke-width="1" stroke-miterlimit="4" d="M667.975 270.039L667.975 272.039"/>
	<path fill="none" stroke="black" stroke-width="1" stroke-miterlimit="4" d="M687.861 270.039L687.861 272.039"/>
	<path fill="none" stroke="black" stroke-width="1" stroke-miterlimit="4" d="M697.804 270.039L697.804 272.039"/>
	<path fill="none" stroke="black" stroke-width="1" stroke-miterlimit="4" d="M707.746 270.039L707.746 272.039"/>
	<path fill="none" stroke="black" stroke-width="1" stroke-miterlimit="4" d="M717.689 270.039L717.689 272.039"/>
	<path fill="none" stroke="black" stroke-width="1" stroke-miterlimit="4" d="M737.575 270.039L737.575 272.039"/>
	<path fill="none" stroke="black" stroke-width="1" stroke-miterlimit="4" d="M747.518 270.039L747.518 272.039"/>
	<path fill="none" stroke="black" stroke-width="1" stroke-miterlimit="4" d="M757.46 270.039L757.46 272.039"/>
	<path fill="none" stroke="black" stroke-width="1" stroke-miterlimit="4" d="M767.403 270.039L767.403 272.039"/>
	<path fill="none" stroke="black" stroke-width="1" stroke-miterlimit="4" d="M42.0078 270.039L785 270.039"/>
	<path fill="none" stroke="black" stroke-width="1" stroke-miterlimit="4" d="M42.0078 15.1L785 15.1"/>
	<path fill="none" stroke="black" stroke-width="1" stroke-miterlimit="4" d="M42.0078 256.784L38.0078 256.784"/>
	<text transform="translate(33.0078 256.784)" font-size="12" font-family="Segoe UI" x="-22.007813, -15.539063, -12.9375, -6.46875, " y="3.046875, ">
			1.15
	</text>
	<path fill="none" stroke="black" stroke-width="1" stroke-miterlimit="4" d="M42.0078 232.162L38.0078 232.162"/>
	<text transform="translate(33.0078 232.162)" font-size="12" font-family="Segoe UI" x="-15.539063, -9.0703125, -6.46875, " y="3.046875, ">
			1.2
	</text>
	<path fill="none" stroke="black" stroke-width="1" stroke-miterlimit="4" d="M42.0078 207.54L38.0078 207.54"/>
	<text transform="translate(33.0078 207.54)" font-size="12" font-family="Segoe UI" x="-22.007813, -15.539063, -12.9375, -6.46875, " y="3.046875, ">
			1.25
	</text>
	<path fill="none" stroke="black" stroke-width="1" stroke-miterlimit="4" d="M42.0078 182.917L38.0078 182.917"/>
	<text transform="translate(33.0078 182.917)" font-size="12" font-family="Segoe UI" x="-15.539063, -9.0703125, -6.46875, " y="3.046875, ">
			1.3
	</text>
	<path fill="none" stroke="black" stroke-width="1" stroke-miterlimit="4" d="M42.0078 158.295L38.0078 158.295"/>
	<text transform="translate(33.0078 158.295)" font-size="12" font-family="Segoe UI" x="-22.007813, -15.539063, -12.9375, -6.46875, " y="3.046875, ">
			1.35
	</text>
	<path fill="none" stroke="black" stroke-width="1" stroke-miterlimit="4" d="M42.0078 133.673L38.0078 133.673"/>
	<text transform="translate(33.0078 133.673)" font-size="12" font-family="Segoe UI" x="-15.539063, -9.0703125, -6.46875, " y="3.046875, ">
			1.4
	</text>
	<path fill="none" stroke="black" stroke-width="1" stroke-miterlimit="4" d="M42.0078 109.051L38.0078 109.051"/>
	<text transform="translate(33.0078 109.051)" font-size="12" font-family="Segoe UI" x="-22.007813, -15.539063, -12.9375, -6.46875, " y="3.046875, ">
			1.45
	</text>
	<path fill="none" stroke="black" stroke-width="1" stroke-miterlimit="4" d="M42.0078 84.4283L38.0078 84.4283"/>
	<text transform="translate(33.0078 84.4283)" font-size="12" font-family="Segoe UI" x="-15.539063, -9.0703125, -6.46875, " y="3.046875, ">
			1.5
	</text>
	<path fill="none" stroke="black" stroke-width="1" stroke-miterlimit="4" d="M42.0078 59.8061L38.0078 59.8061"/>
	<text transform="translate(33.0078 59.8061)" font-size="12" font-family="Segoe UI" x="-22.007813, -15.539063, -12.9375, -6.46875, " y="3.046875, ">
			1.55
	</text>
	<path fill="none" stroke="black" stroke-width="1" stroke-miterlimit="4" d="M42.0078 35.1838L38.0078 35.1838"/>
	<text transform="translate(33.0078 35.1838)" font-size="12" font-family="Segoe UI" x="-15.539063, -9.0703125, -6.46875, " y="3.046875, ">
			1.6
	</text>
	<path fill="none" stroke="black" stroke-width="1" stroke-miterlimit="4" d="M42.0078 266.633L40.0078 266.633"/>
	<path fill="none" stroke="black" stroke-width="1" stroke-miterlimit="4" d="M42.0078 261.709L40.0078 261.709"/>
	<path fill="none" stroke="black" stroke-width="1" stroke-miterlimit="4" d="M42.0078 251.86L40.0078 251.86"/>
	<path fill="none" stroke="black" stroke-width="1" stroke-miterlimit="4" d="M42.0078 246.935L40.0078 246.935"/>
	<path fill="none" stroke="black" stroke-width="1" stroke-miterlimit="4" d="M42.0078 242.011L40.0078 242.011"/>
	<path fill="none" stroke="black" stroke-width="1" stroke-miterlimit="4" d="M42.0078 237.087L40.0078 237.087"/>
	<path fill="none" stroke="black" stroke-width="1" stroke-miterlimit="4" d="M42.0078 227.238L40.0078 227.238"/>
	<path fill="none" stroke="black" stroke-width="1" stroke-miterlimit="4" d="M42.0078 222.313L40.0078 222.313"/>
	<path fill="none" stroke="black" stroke-width="1" stroke-miterlimit="4" d="M42.0078 217.389L40.0078 217.389"/>
	<path fill="none" stroke="black" stroke-width="1" stroke-miterlimit="4" d="M42.0078 212.464L40.0078 212.464"/>
	<path fill="none" stroke="black" stroke-width="1" stroke-miterlimit="4" d="M42.0078 202.615L40.0078 202.615"/>
	<path fill="none" stroke="black" stroke-width="1" stroke-miterlimit="4" d="M42.0078 197.691L40.0078 197.691"/>
	<path fill="none" stroke="black" stroke-width="1" stroke-miterlimit="4" d="M42.0078 192.766L40.0078 192.766"/>
	<path fill="none" stroke="black" stroke-width="1" stroke-miterlimit="4" d="M42.0078 187.842L40.0078 187.842"/>
	<path fill="none" stroke="black" stroke-width="1" stroke-miterlimit="4" d="M42.0078 177.993L40.0078 177.993"/>
	<path fill="none" stroke="black" stroke-width="1" stroke-miterlimit="4" d="M42.0078 173.069L40.0078 173.069"/>
	<path fill="none" stroke="black" stroke-width="1" stroke-miterlimit="4" d="M42.0078 168.144L40.0078 168.144"/>
	<path fill="none" stroke="black" stroke-width="1" stroke-miterlimit="4" d="M42.0078 163.22L40.0078 163.22"/>
	<path fill="none" stroke="black" stroke-width="1" stroke-miterlimit="4" d="M42.0078 153.371L40.0078 153.371"/>
	<path fill="none" stroke="black" stroke-width="1" stroke-miterlimit="4" d="M42.0078 148.446L40.0078 148.446"/>
	<path fill="none" stroke="black" stroke-width="1" stroke-miterlimit="4" d="M42.0078 143.522L40.0078 143.522"/>
	<path fill="none" stroke="black" stroke-width="1" stroke-miterlimit="4" d="M42.0078 138.597L40.0078 138.597"/>
	<path fill="none" stroke="black" stroke-width="1" stroke-miterlimit="4" d="M42.0078 128.748L40.0078 128.748"/>
	<path fill="none" stroke="black" stroke-width="1" stroke-miterlimit="4" d="M42.0078 123.824L40.0078 123.824"/>
	<path fill="none" stroke="black" stroke-width="1" stroke-miterlimit="4" d="M42.0078 118.9L40.0078 118.9"/>
	<path fill="none" stroke="black" stroke-width="1" stroke-miterlimit="4" d="M42.0078 113.975L40.0078 113.975"/>
	<path fill="none" stroke="black" stroke-width="1" stroke-miterlimit="4" d="M42.0078 104.126L40.0078 104.126"/>
	<path fill="none" stroke="black" stroke-width="1" stroke-miterlimit="4" d="M42.0078 99.2017L40.0078 99.2017"/>
	<path fill="none" stroke="black" stroke-width="1" stroke-miterlimit="4" d="M42.0078 94.2773L40.0078 94.2773"/>
	<path fill="none" stroke="black" stroke-width="1" stroke-miterlimit="4" d="M42.0078 89.3528L40.0078 89.3528"/>
	<path fill="none" stroke="black" stroke-width="1" stroke-miterlimit="4" d="M42.0078 79.5039L40.0078 79.5039"/>
	<path fill="none" stroke="black" stroke-width="1" stroke-miterlimit="4" d="M42.0078 74.5794L40.0078 74.5794"/>
	<path fill="none" stroke="black" stroke-width="1" stroke-miterlimit="4" d="M42.0078 69.655L40.0078 69.655"/>
	<path fill="none" stroke="black" stroke-width="1" stroke-miterlimit="4" d="M42.0078 64.7305L40.0078 64.7305"/>
	<path fill="none" stroke="black" stroke-width="1" stroke-miterlimit="4" d="M42.0078 54.8816L40.0078 54.8816"/>
	<path fill="none" stroke="black" stroke-width="1" stroke-miterlimit="4" d="M42.0078 49.9572L40.0078 49.9572"/>
	<path fill="none" stroke="black" stroke-width="1" stroke-miterlimit="4" d="M42.0078 45.0327L40.0078 45.0327"/>
	<path fill="none" stroke="black" stroke-width="1" stroke-miterlimit="4" d="M42.0078 40.1082L40.0078 40.1082"/>
	<path fill="none" stroke="black" stroke-width="1" stroke-miterlimit="4" d="M42.0078 30.2593L40.0078 30.2593"/>
	<path fill="none" stroke="black" stroke-width="1" stroke-miterlimit="4" d="M42.0078 25.3349L40.0078 25.3349"/>
	<path fill="none" stroke="black" stroke-width="1" stroke-miterlimit="4" d="M42.0078 20.4104L40.0078 20.4104"/>
	<path fill="none" stroke="black" stroke-width="1" stroke-miterlimit="4" d="M42.0078 15.4859L40.0078 15.4859"/>
	<path fill="none" stroke="black" stroke-width="1" stroke-miterlimit="4" d="M42.0078 270.039L42.0078 15"/>
	<path fill="none" stroke="black" stroke-width="1" stroke-miterlimit="4" d="M785 270.039L785 15"/>
</svg>
