<?xml version="1.0" encoding="utf-8" ?>
<svg xmlns="http://www.w3.org/2000/svg" xmlns:xlink="http://www.w3.org/1999/xlink" width="800" height="300">
	<rect fill="white" width="800" height="300"/>
	<path fill="none" stroke="#010101" stroke-width="1" stroke-miterlimit="4" stroke-opacity="0.098039217" d="M69.1271 270.039L69.1271 15M142.717 270.039L142.717 15M216.306 270.039L216.306 15M289.896 270.039L289.896 15M363.485 270.039L363.485 15M437.074 270.039L437.074 15M510.664 270.039L510.664 15M584.253 270.039L584.253 15M657.843 270.039L657.843 15M731.432 270.039L731.432 15"/>
	<path fill="none" stroke="#010101" stroke-width="1" stroke-miterlimit="4" stroke-opacity="0.098039217" d="M35.5391 253.031L785 253.031M35.5391 224.146L785 224.146M35.5391 195.26L785 195.26M35.5391 166.375L785 166.375M35.5391 137.49L785 137.49M35.5391 108.604L785 108.604M35.5391 79.7192L785 79.7192M35.5391 50.8338L785 50.8338M35.5391 21.9485L785 21.9485"/>
	<clipPath id="cl_d3">
		<rect x="35.539063" y="15" width="749.46094" height="255.03906"/>
	</clipPath>
	<g clip-path="url(#cl_d3)">
		<path fill="none" stroke="#1F77B4" stroke-width="1" stroke-miterlimit="4" d="M69.6055 253.406L69.6055 253.406L69.6055 253.406L69.6055 253.406L109.491 203.496L109.491 208.142L109.491 203.496L109.491 203.496L109.491 203.496L134.401 198.42L134.401 198.42L134.401 198.42L134.401 198.42L134.401 198.42L186.539 196.313L186.539 159.694L186.539 159.694L186.539 133.177L186.539 174.729L187.165 226.963L187.165 226.963L187.165 191.971L187.165 191.971L187.165 191.971L395.607 209.764L395.607 209.764L395.607 209.778L395.607 209.764L540.394 187.277L540.394 187.277L540.394 187.277L540.394 187.277L610.893 242.278L610.893 219.232L610.893 219.232L610.893 219.232L610.893 219.232L650.337 31.633L650.337 31.633L650.337 31.633L650.337 31.633L750.934 187.525L750.934 187.525"/>
		<ellipse fill="#1F77B4" cx="69.605469" cy="253.40608" rx="2.5" ry="2.5"/>
		<ellipse fill="#1F77B4" cx="69.605469" cy="253.40608" rx="2.5" ry="2.5"/>
		<ellipse fill="#1F77B4" cx="69.605469" cy="253.40608" rx="2.5" ry="2.5"/>
		<ellipse fill="#1F77B4" cx="69.605469" cy="253.40608" rx="2.5" ry="2.5"/>
		<ellipse fill="#1F77B4" cx="109.49096" cy="203.49628" rx="2.5" ry="2.5"/>
		<ellipse fill="#1F77B4" cx="109.49096" cy="208.14227" rx="2.5" ry="2.5"/>
		<ellipse fill="#1F77B4" cx="109.49096" cy="203.49628" rx="2.5" ry="2.5"/>
		<ellipse fill="#1F77B4" cx="109.49096" cy="203.49628" rx="2.5" ry="2.5"/>
		<ellipse fill="#1F77B4" cx="109.49096" cy="203.49628" rx="2.5" ry="2.5"/>
		<ellipse fill="#1F77B4" cx="134.401" cy="198.42029" rx="2.5" ry="2.5"/>
		<ellipse fill="#1F77B4" cx="134.401" cy="198.42029" rx="2.5" ry="2.5"/>
		<ellipse fill="#1F77B4" cx="134.401" cy="198.42029" rx="2.5" ry="2.5"/>
		<ellipse fill="#1F77B4" cx="134.401" cy="198.42029" rx="2.5" ry="2.5"/>
		<ellipse fill="#1F77B4" cx="134.401" cy="198.42029" rx="2.5" ry="2.5"/>
		<ellipse fill="#1F77B4" cx="186.53914" cy="196.31265" rx="2.5" ry="2.5"/>
		<ellipse fill="#1F77B4" cx="186.53914" cy="159.69406" rx="2.5" ry="2.5"/>
		<ellipse fill="#1F77B4" cx="186.53914" cy="159.69406" rx="2.5" ry="2.5"/>
		<ellipse fill="#1F77B4" cx="186.53914" cy="133.17712" rx="2.5" ry="2.5"/>
		<ellipse fill="#1F77B4" cx="186.53914" cy="174.72913" rx="2.5" ry="2.5"/>
		<ellipse fill="#1F77B4" cx="187.16466" cy="226.96254" rx="2.5" ry="2.5"/>
		<ellipse fill="#1F77B4" cx="187.16466" cy="226.96254" rx="2.5" ry="2.5"/>
		<ellipse fill="#1F77B4" cx="187.16466" cy="191.97125" rx="2.5" ry="2.5"/>
		<ellipse fill="#1F77B4" cx="187.16466" cy="191.97125" rx="2.5" ry="2.5"/>
		<ellipse fill="#1F77B4" cx="187.16466" cy="191.97125" rx="2.5" ry="2.5"/>
		<ellipse fill="#1F77B4" cx="395.60684" cy="209.76353" rx="2.5" ry="2.5"/>
		<ellipse fill="#1F77B4" cx="395.60684" cy="209.76353" rx="2.5" ry="2.5"/>
		<ellipse fill="#1F77B4" cx="395.60684" cy="209.77765" rx="2.5" ry="2.5"/>
		<ellipse fill="#1F77B4" cx="395.60684" cy="209.76353" rx="2.5" ry="2.5"/>
		<ellipse fill="#1F77B4" cx="540.3941" cy="187.27669" rx="2.5" ry="2.5"/>
		<ellipse fill="#1F77B4" cx="540.3941" cy="187.27669" rx="2.5" ry="2.5"/>
		<ellipse fill="#1F77B4" cx="540.3941" cy="187.27669" rx="2.5" ry="2.5"/>
		<ellipse fill="#1F77B4" cx="540.3941" cy="187.27669" rx="2.5" ry="2.5"/>
		<ellipse fill="#1F77B4" cx="610.89282" cy="242.27834" rx="2.5" ry="2.5"/>
		<ellipse fill="#1F77B4" cx="610.89282" cy="219.23172" rx="2.5" ry="2.5"/>
		<ellipse fill="#1F77B4" cx="610.89282" cy="219.23172" rx="2.5" ry="2.5"/>
		<ellipse fill="#1F77B4" cx="610.89282" cy="219.23172" rx="2.5" ry="2.5"/>
		<ellipse fill="#1F77B4" cx="610.89282" cy="219.23172" rx="2.5" ry="2.5"/>
		<ellipse fill="#1F77B4" cx="650.33679" cy="31.63298" rx="2.5" ry="2.5"/>
		<ellipse fill="#1F77B4" cx="650.33679" cy="31.63298" rx="2.5" ry="2.5"/>
		<ellipse fill="#1F77B4" cx="650.33679" cy="31.63298" rx="2.5" ry="2.5"/>
		<ellipse fill="#1F77B4" cx="650.33679" cy="31.63298" rx="2.5" ry="2.5"/>
		<ellipse fill="#1F77B4" cx="750.93359" cy="187.52527" rx="2.5" ry="2.5"/>
		<ellipse fill="#1F77B4" cx="750.93359" cy="187.52527" rx="2.5" ry="2.5"/>
	</g>
	<path fill="none" stroke="black" stroke-width="1" stroke-miterlimit="4" d="M69.1271 270.039L69.1271 274.039"/>
	<text transform="translate(69.1271 276.039)" font-size="12" font-family="Segoe UI" x="-17.472656, -11.003906, -4.5351563, -1.9335938, 4.5351563, 11.003906, " y="11.027344, ">
			10,000
	</text>
	<path fill="none" stroke="black" stroke-width="1" stroke-miterlimit="4" d="M142.717 270.039L142.717 274.039"/>
	<text transform="translate(142.717 276.039)" font-size="12" font-family="Segoe UI" x="-17.472656, -11.003906, -4.5351563, -1.9335938, 4.5351563, 11.003906, " y="11.027344, ">
			12,000
	</text>
	<path fill="none" stroke="black" stroke-width="1" stroke-miterlimit="4" d="M216.306 270.039L216.306 274.039"/>
	<text transform="translate(216.306 276.039)" font-size="12" font-family="Segoe UI" x="-17.472656, -11.003906, -4.5351563, -1.9335938, 4.5351563, 11.003906, " y="11.027344, ">
			14,000
	</text>
	<path fill="none" stroke="black" stroke-width="1" stroke-miterlimit="4" d="M289.896 270.039L289.896 274.039"/>
	<text transform="translate(289.896 276.039)" font-size="12" font-family="Segoe UI" x="-17.472656, -11.003906, -4.5351563, -1.9335938, 4.5351563, 11.003906, " y="11.027344, ">
			16,000
	</text>
	<path fill="none" stroke="black" stroke-width="1" stroke-miterlimit="4" d="M363.485 270.039L363.485 274.039"/>
	<text transform="translate(363.485 276.039)" font-size="12" font-family="Segoe UI" x="-17.472656, -11.003906, -4.5351563, -1.9335938, 4.5351563, 11.003906, " y="11.027344, ">
			18,000
	</text>
	<path fill="none" stroke="black" stroke-width="1" stroke-miterlimit="4" d="M437.074 270.039L437.074 274.039"/>
	<text transform="translate(437.074 276.039)" font-size="12" font-family="Segoe UI" x="-17.472656, -11.003906, -4.5351563, -1.9335938, 4.5351563, 11.003906, " y="11.027344, ">
			20,000
	</text>
	<path fill="none" stroke="black" stroke-width="1" stroke-miterlimit="4" d="M510.664 270.039L510.664 274.039"/>
	<text transform="translate(510.664 276.039)" font-size="12" font-family="Segoe UI" x="-17.472656, -11.003906, -4.5351563, -1.9335938, 4.5351563, 11.003906, " y="11.027344, ">
			22,000
	</text>
	<path fill="none" stroke="black" stroke-width="1" stroke-miterlimit="4" d="M584.253 270.039L584.253 274.039"/>
	<text transform="translate(584.253 276.039)" font-size="12" font-family="Segoe UI" x="-17.472656, -11.003906, -4.5351563, -1.9335938, 4.5351563, 11.003906, " y="11.027344, ">
			24,000
	</text>
	<path fill="none" stroke="black" stroke-width="1" stroke-miterlimit="4" d="M657.843 270.039L657.843 274.039"/>
	<text transform="translate(657.843 276.039)" font-size="12" font-family="Segoe UI" x="-17.472656, -11.003906, -4.5351563, -1.9335938, 4.5351563, 11.003906, " y="11.027344, ">
			26,000
	</text>
	<path fill="none" stroke="black" stroke-width="1" stroke-miterlimit="4" d="M731.432 270.039L731.432 274.039"/>
	<text transform="translate(731.432 276.039)" font-size="12" font-family="Segoe UI" x="-17.472656, -11.003906, -4.5351563, -1.9335938, 4.5351563, 11.003906, " y="11.027344, ">
			28,000
	</text>
	<path fill="none" stroke="black" stroke-width="1" stroke-miterlimit="4" d="M39.6913 270.039L39.6913 272.039"/>
	<path fill="none" stroke="black" stroke-width="1" stroke-miterlimit="4" d="M54.4092 270.039L54.4092 272.039"/>
	<path fill="none" stroke="black" stroke-width="1" stroke-miterlimit="4" d="M83.845 270.039L83.845 272.039"/>
	<path fill="none" stroke="black" stroke-width="1" stroke-miterlimit="4" d="M98.5629 270.039L98.5629 272.039"/>
	<path fill="none" stroke="black" stroke-width="1" stroke-miterlimit="4" d="M113.281 270.039L113.281 272.039"/>
	<path fill="none" stroke="black" stroke-width="1" stroke-miterlimit="4" d="M127.999 270.039L127.999 272.039"/>
	<path fill="none" stroke="black" stroke-width="1" stroke-miterlimit="4" d="M157.435 270.039L157.435 272.039"/>
	<path fill="none" stroke="black" stroke-width="1" stroke-miterlimit="4" d="M172.152 270.039L172.152 272.039"/>
	<path fill="none" stroke="black" stroke-width="1" stroke-miterlimit="4" d="M186.87 270.039L186.87 272.039"/>
	<path fill="none" stroke="black" stroke-width="1" stroke-miterlimit="4" d="M201.588 270.039L201.588 272.039"/>
	<path fill="none" stroke="black" stroke-width="1" stroke-miterlimit="4" d="M231.024 270.039L231.024 272.039"/>
	<path fill="none" stroke="black" stroke-width="1" stroke-miterlimit="4" d="M245.742 270.039L245.742 272.039"/>
	<path fill="none" stroke="black" stroke-width="1" stroke-miterlimit="4" d="M260.46 270.039L260.46 272.039"/>
	<path fill="none" stroke="black" stroke-width="1" stroke-miterlimit="4" d="M275.178 270.039L275.178 272.039"/>
	<path fill="none" stroke="black" stroke-width="1" stroke-miterlimit="4" d="M304.613 270.039L304.613 272.039"/>
	<path fill="none" stroke="black" stroke-width="1" stroke-miterlimit="4" d="M319.331 270.039L319.331 272.039"/>
	<path fill="none" stroke="black" stroke-width="1" stroke-miterlimit="4" d="M334.049 270.039L334.049 272.039"/>
	<path fill="none" stroke="black" stroke-width="1" stroke-miterlimit="4" d="M348.767 270.039L348.767 272.039"/>
	<path fill="none" stroke="black" stroke-width="1" stroke-miterlimit="4" d="M378.203 270.039L378.203 272.039"/>
	<path fill="none" stroke="black" stroke-width="1" stroke-miterlimit="4" d="M392.921 270.039L392.921 272.039"/>
	<path fill="none" stroke="black" stroke-width="1" stroke-miterlimit="4" d="M407.639 270.039L407.639 272.039"/>
	<path fill="none" stroke="black" stroke-width="1" stroke-miterlimit="4" d="M422.357 270.039L422.357 272.039"/>
	<path fill="none" stroke="black" stroke-width="1" stroke-miterlimit="4" d="M451.792 270.039L451.792 272.039"/>
	<path fill="none" stroke="black" stroke-width="1" stroke-miterlimit="4" d="M466.51 270.039L466.51 272.039"/>
	<path fill="none" stroke="black" stroke-width="1" stroke-miterlimit="4" d="M481.228 270.039L481.228 272.039"/>
	<path fill="none" stroke="black" stroke-width="1" stroke-miterlimit="4" d="M495.946 270.039L495.946 272.039"/>
	<path fill="none" stroke="black" stroke-width="1" stroke-miterlimit="4" d="M525.382 270.039L525.382 272.039"/>
	<path fill="none" stroke="black" stroke-width="1" stroke-miterlimit="4" d="M540.1 270.039L540.1 272.039"/>
	<path fill="none" stroke="black" stroke-width="1" stroke-miterlimit="4" d="M554.818 270.039L554.818 272.039"/>
	<path fill="none" stroke="black" stroke-width="1" stroke-miterlimit="4" d="M569.536 270.039L569.536 272.039"/>
	<path fill="none" stroke="black" stroke-width="1" stroke-miterlimit="4" d="M598.971 270.039L598.971 272.039"/>
	<path fill="none" stroke="black" stroke-width="1" stroke-miterlimit="4" d="M613.689 270.039L613.689 272.039"/>
	<path fill="none" stroke="black" stroke-width="1" stroke-miterlimit="4" d="M628.407 270.039L628.407 272.039"/>
	<path fill="none" stroke="black" stroke-width="1" stroke-miterlimit="4" d="M643.125 270.039L643.125 272.039"/>
	<path fill="none" stroke="black" stroke-width="1" stroke-miterlimit="4" d="M672.561 270.039L672.561 272.039"/>
	<path fill="none" stroke="black" stroke-width="1" stroke-miterlimit="4" d="M687.279 270.039L687.279 272.039"/>
	<path fill="none" stroke="black" stroke-width="1" stroke-miterlimit="4" d="M701.997 270.039L701.997 272.039"/>
	<path fill="none" stroke="black" stroke-width="1" stroke-miterlimit="4" d="M716.714 270.039L716.714 272.039"/>
	<path fill="none" stroke="black" stroke-width="1" stroke-miterlimit="4" d="M746.15 270.039L746.15 272.039"/>
	<path fill="none" stroke="black" stroke-width="1" stroke-miterlimit="4" d="M760.868 270.039L760.868 272.039"/>
	<path fill="none" stroke="black" stroke-width="1" stroke-miterlimit="4" d="M775.586 270.039L775.586 272.039"/>
	<path fill="none" stroke="black" stroke-width="1" stroke-miterlimit="4" d="M35.5391 270.039L785 270.039"/>
	<path fill="none" stroke="black" stroke-width="1" stroke-miterlimit="4" d="M35.5391 15.1L785 15.1"/>
	<path fill="none" stroke="black" stroke-width="1" stroke-miterlimit="4" d="M35.5391 253.031L31.5391 253.031"/>
	<text transform="translate(26.5391 253.031)" font-size="12" font-family="Segoe UI" x="-6.46875, " y="3.046875, ">
			1
	</text>
	<path fill="none" stroke="black" stroke-width="1" stroke-miterlimit="4" d="M35.5391 224.146L31.5391 224.146"/>
	<text transform="translate(26.5391 224.146)" font-size="12" font-family="Segoe UI" x="-15.539063, -9.0703125, -6.46875, " y="3.046875, ">
			1.1
	</text>
	<path fill="none" stroke="black" stroke-width="1" stroke-miterlimit="4" d="M35.5391 195.26L31.5391 195.26"/>
	<text transform="translate(26.5391 195.26)" font-size="12" font-family="Segoe UI" x="-15.539063, -9.0703125, -6.46875, " y="3.046875, ">
			1.2
	</text>
	<path fill="none" stroke="black" stroke-width="1" stroke-miterlimit="4" d="M35.5391 166.375L31.5391 166.375"/>
	<text transform="translate(26.5391 166.375)" font-size="12" font-family="Segoe UI" x="-15.539063, -9.0703125, -6.46875, " y="3.046875, ">
			1.3
	</text>
	<path fill="none" stroke="black" stroke-width="1" stroke-miterlimit="4" d="M35.5391 137.49L31.5391 137.49"/>
	<text transform="translate(26.5391 137.49)" font-size="12" font-family="Segoe UI" x="-15.539063, -9.0703125, -6.46875, " y="3.046875, ">
			1.4
	</text>
	<path fill="none" stroke="black" stroke-width="1" stroke-miterlimit="4" d="M35.5391 108.604L31.5391 108.604"/>
	<text transform="translate(26.5391 108.604)" font-size="12" font-family="Segoe UI" x="-15.539063, -9.0703125, -6.46875, " y="3.046875, ">
			1.5
	</text>
	<path fill="none" stroke="black" stroke-width="1" stroke-miterlimit="4" d="M35.5391 79.7192L31.5391 79.7192"/>
	<text transform="translate(26.5391 79.7192)" font-size="12" font-family="Segoe UI" x="-15.539063, -9.0703125, -6.46875, " y="3.046875, ">
			1.6
	</text>
	<path fill="none" stroke="black" stroke-width="1" stroke-miterlimit="4" d="M35.5391 50.8338L31.5391 50.8338"/>
	<text transform="translate(26.5391 50.8338)" font-size="12" font-family="Segoe UI" x="-15.539063, -9.0703125, -6.46875, " y="3.046875, ">
			1.7
	</text>
	<path fill="none" stroke="black" stroke-width="1" stroke-miterlimit="4" d="M35.5391 21.9485L31.5391 21.9485"/>
	<text transform="translate(26.5391 21.9485)" font-size="12" font-family="Segoe UI" x="-15.539063, -9.0703125, -6.46875, " y="3.046875, ">
			1.8
	</text>
	<path fill="none" stroke="black" stroke-width="1" stroke-miterlimit="4" d="M35.5391 264.585L33.5391 264.585"/>
	<path fill="none" stroke="black" stroke-width="1" stroke-miterlimit="4" d="M35.5391 258.808L33.5391 258.808"/>
	<path fill="none" stroke="black" stroke-width="1" stroke-miterlimit="4" d="M35.5391 247.254L33.5391 247.254"/>
	<path fill="none" stroke="black" stroke-width="1" stroke-miterlimit="4" d="M35.5391 241.477L33.5391 241.477"/>
	<path fill="none" stroke="black" stroke-width="1" stroke-miterlimit="4" d="M35.5391 235.7L33.5391 235.7"/>
	<path fill="none" stroke="black" stroke-width="1" stroke-miterlimit="4" d="M35.5391 229.923L33.5391 229.923"/>
	<path fill="none" stroke="black" stroke-width="1" stroke-miterlimit="4" d="M35.5391 218.369L33.5391 218.369"/>
	<path fill="none" stroke="black" stroke-width="1" stroke-miterlimit="4" d="M35.5391 212.592L33.5391 212.592"/>
	<path fill="none" stroke="black" stroke-width="1" stroke-miterlimit="4" d="M35.5391 206.815L33.5391 206.815"/>
	<path fill="none" stroke="black" stroke-width="1" stroke-miterlimit="4" d="M35.5391 201.037L33.5391 201.037"/>
	<path fill="none" stroke="black" stroke-width="1" stroke-miterlimit="4" d="M35.5391 189.483L33.5391 189.483"/>
	<path fill="none" stroke="black" stroke-width="1" stroke-miterlimit="4" d="M35.5391 183.706L33.5391 183.706"/>
	<path fill="none" stroke="black" stroke-width="1" stroke-miterlimit="4" d="M35.5391 177.929L33.5391 177.929"/>
	<path fill="none" stroke="black" stroke-width="1" stroke-miterlimit="4" d="M35.5391 172.152L33.5391 172.152"/>
	<path fill="none" stroke="black" stroke-width="1" stroke-miterlimit="4" d="M35.5391 160.598L33.5391 160.598"/>
	<path fill="none" stroke="black" stroke-width="1" stroke-miterlimit="4" d="M35.5391 154.821L33.5391 154.821"/>
	<path fill="none" stroke="black" stroke-width="1" stroke-miterlimit="4" d="M35.5391 149.044L33.5391 149.044"/>
	<path fill="none" stroke="black" stroke-width="1" stroke-miterlimit="4" d="M35.5391 143.267L33.5391 143.267"/>
	<path fill="none" stroke="black" stroke-width="1" stroke-miterlimit="4" d="M35.5391 131.713L33.5391 131.713"/>
	<path fill="none" stroke="black" stroke-width="1" stroke-miterlimit="4" d="M35.5391 125.936L33.5391 125.936"/>
	<path fill="none" stroke="black" stroke-width="1" stroke-miterlimit="4" d="M35.5391 120.159L33.5391 120.159"/>
	<path fill="none" stroke="black" stroke-width="1" stroke-miterlimit="4" d="M35.5391 114.382L33.5391 114.382"/>
	<path fill="none" stroke="black" stroke-width="1" stroke-miterlimit="4" d="M35.5391 102.827L33.5391 102.827"/>
	<path fill="none" stroke="black" stroke-width="1" stroke-miterlimit="4" d="M35.5391 97.0504L33.5391 97.0504"/>
	<path fill="none" stroke="black" stroke-width="1" stroke-miterlimit="4" d="M35.5391 91.2733L33.5391 91.2733"/>
	<path fill="none" stroke="black" stroke-width="1" stroke-miterlimit="4" d="M35.5391 85.4962L33.5391 85.4962"/>
	<path fill="none" stroke="black" stroke-width="1" stroke-miterlimit="4" d="M35.5391 73.9421L33.5391 73.9421"/>
	<path fill="none" stroke="black" stroke-width="1" stroke-miterlimit="4" d="M35.5391 68.165L33.5391 68.165"/>
	<path fill="none" stroke="black" stroke-width="1" stroke-miterlimit="4" d="M35.5391 62.388L33.5391 62.388"/>
	<path fill="none" stroke="black" stroke-width="1" stroke-miterlimit="4" d="M35.5391 56.6109L33.5391 56.6109"/>
	<path fill="none" stroke="black" stroke-width="1" stroke-miterlimit="4" d="M35.5391 45.0568L33.5391 45.0568"/>
	<path fill="none" stroke="black" stroke-width="1" stroke-miterlimit="4" d="M35.5391 39.2797L33.5391 39.2797"/>
	<path fill="none" stroke="black" stroke-width="1" stroke-miterlimit="4" d="M35.5391 33.5027L33.5391 33.5027"/>
	<path fill="none" stroke="black" stroke-width="1" stroke-miterlimit="4" d="M35.5391 27.7256L33.5391 27.7256"/>
	<path fill="none" stroke="black" stroke-width="1" stroke-miterlimit="4" d="M35.5391 16.1715L33.5391 16.1715"/>
	<path fill="none" stroke="black" stroke-width="1" stroke-miterlimit="4" d="M35.5391 270.039L35.5391 15"/>
	<path fill="none" stroke="black" stroke-width="1" stroke-miterlimit="4" d="M785 270.039L785 15"/>
</svg>
