<?xml version="1.0" encoding="utf-8" ?>
<svg xmlns="http://www.w3.org/2000/svg" xmlns:xlink="http://www.w3.org/1999/xlink" width="800" height="300">
	<rect fill="white" width="800" height="300"/>
	<path fill="none" stroke="#010101" stroke-width="1" stroke-miterlimit="4" stroke-opacity="0.098039217" d="M36.69 270.039L36.69 15M79.7168 270.039L79.7168 15M122.743 270.039L122.743 15M165.77 270.039L165.77 15M208.797 270.039L208.797 15M251.824 270.039L251.824 15M294.85 270.039L294.85 15M337.877 270.039L337.877 15M380.904 270.039L380.904 15M423.931 270.039L423.931 15M466.957 270.039L466.957 15M509.984 270.039L509.984 15M553.011 270.039L553.011 15M596.037 270.039L596.037 15M639.064 270.039L639.064 15M682.091 270.039L682.091 15M725.118 270.039L725.118 15M768.144 270.039L768.144 15"/>
	<path fill="none" stroke="#010101" stroke-width="1" stroke-miterlimit="4" stroke-opacity="0.098039217" d="M35.5391 233.163L785 233.163M35.5391 185.593L785 185.593M35.5391 138.022L785 138.022M35.5391 90.4517L785 90.4517M35.5391 42.8812L785 42.8812"/>
	<clipPath id="cl_e7">
		<rect x="35.539063" y="15" width="749.46094" height="255.03906"/>
	</clipPath>
	<g clip-path="url(#cl_e7)">
		<path fill="none" stroke="#1F77B4" stroke-width="1" stroke-miterlimit="4" d="M69.6055 248.495L70.466 249.002L72.9831 250.471L96.9274 253.406L96.9274 248.345L111.729 31.633L111.772 31.6781L185.132 97.0991L266.668 221.489L266.668 221.489L277.64 208.678L277.64 79.2587L286.245 84.9363L316.364 192.154L620.247 153.33L750.934 161.614"/>
		<ellipse fill="#1F77B4" cx="69.605469" cy="248.4955" rx="2.5" ry="2.5"/>
		<ellipse fill="#1F77B4" cx="70.466003" cy="249.00209" rx="2.5" ry="2.5"/>
		<ellipse fill="#1F77B4" cx="72.983063" cy="250.47072" rx="2.5" ry="2.5"/>
		<ellipse fill="#1F77B4" cx="96.927437" cy="253.40608" rx="2.5" ry="2.5"/>
		<ellipse fill="#1F77B4" cx="96.927437" cy="248.34538" rx="2.5" ry="2.5"/>
		<ellipse fill="#1F77B4" cx="111.72863" cy="31.63298" rx="2.5" ry="2.5"/>
		<ellipse fill="#1F77B4" cx="111.77165" cy="31.67807" rx="2.5" ry="2.5"/>
		<ellipse fill="#1F77B4" cx="185.13222" cy="97.099121" rx="2.5" ry="2.5"/>
		<ellipse fill="#1F77B4" cx="266.66785" cy="221.48901" rx="2.5" ry="2.5"/>
		<ellipse fill="#1F77B4" cx="266.66785" cy="221.48901" rx="2.5" ry="2.5"/>
		<ellipse fill="#1F77B4" cx="277.63965" cy="208.67847" rx="2.5" ry="2.5"/>
		<ellipse fill="#1F77B4" cx="277.63965" cy="79.258652" rx="2.5" ry="2.5"/>
		<ellipse fill="#1F77B4" cx="286.245" cy="84.936295" rx="2.5" ry="2.5"/>
		<ellipse fill="#1F77B4" cx="316.36371" cy="192.15424" rx="2.5" ry="2.5"/>
		<ellipse fill="#1F77B4" cx="620.24658" cy="153.32982" rx="2.5" ry="2.5"/>
		<ellipse fill="#1F77B4" cx="750.93359" cy="161.61414" rx="2.5" ry="2.5"/>
	</g>
	<path fill="none" stroke="black" stroke-width="1" stroke-miterlimit="4" d="M36.69 270.039L36.69 274.039"/>
	<text transform="translate(36.69 276.039)" font-size="12" font-family="Segoe UI" x="-17.472656, -11.003906, -4.5351563, -1.9335938, 4.5351563, 11.003906, " y="11.027344, ">
			16,000
	</text>
	<path fill="none" stroke="black" stroke-width="1" stroke-miterlimit="4" d="M79.7168 270.039L79.7168 274.039"/>
	<text transform="translate(79.7168 276.039)" font-size="12" font-family="Segoe UI" x="-17.472656, -11.003906, -4.5351563, -1.9335938, 4.5351563, 11.003906, " y="11.027344, ">
			18,000
	</text>
	<path fill="none" stroke="black" stroke-width="1" stroke-miterlimit="4" d="M122.743 270.039L122.743 274.039"/>
	<text transform="translate(122.743 276.039)" font-size="12" font-family="Segoe UI" x="-17.472656, -11.003906, -4.5351563, -1.9335938, 4.5351563, 11.003906, " y="11.027344, ">
			20,000
	</text>
	<path fill="none" stroke="black" stroke-width="1" stroke-miterlimit="4" d="M165.77 270.039L165.77 274.039"/>
	<text transform="translate(165.77 276.039)" font-size="12" font-family="Segoe UI" x="-17.472656, -11.003906, -4.5351563, -1.9335938, 4.5351563, 11.003906, " y="11.027344, ">
			22,000
	</text>
	<path fill="none" stroke="black" stroke-width="1" stroke-miterlimit="4" d="M208.797 270.039L208.797 274.039"/>
	<text transform="translate(208.797 276.039)" font-size="12" font-family="Segoe UI" x="-17.472656, -11.003906, -4.5351563, -1.9335938, 4.5351563, 11.003906, " y="11.027344, ">
			24,000
	</text>
	<path fill="none" stroke="black" stroke-width="1" stroke-miterlimit="4" d="M251.824 270.039L251.824 274.039"/>
	<text transform="translate(251.824 276.039)" font-size="12" font-family="Segoe UI" x="-17.472656, -11.003906, -4.5351563, -1.9335938, 4.5351563, 11.003906, " y="11.027344, ">
			26,000
	</text>
	<path fill="none" stroke="black" stroke-width="1" stroke-miterlimit="4" d="M294.85 270.039L294.85 274.039"/>
	<text transform="translate(294.85 276.039)" font-size="12" font-family="Segoe UI" x="-17.472656, -11.003906, -4.5351563, -1.9335938, 4.5351563, 11.003906, " y="11.027344, ">
			28,000
	</text>
	<path fill="none" stroke="black" stroke-width="1" stroke-miterlimit="4" d="M337.877 270.039L337.877 274.039"/>
	<text transform="translate(337.877 276.039)" font-size="12" font-family="Segoe UI" x="-17.472656, -11.003906, -4.5351563, -1.9335938, 4.5351563, 11.003906, " y="11.027344, ">
			30,000
	</text>
	<path fill="none" stroke="black" stroke-width="1" stroke-miterlimit="4" d="M380.904 270.039L380.904 274.039"/>
	<text transform="translate(380.904 276.039)" font-size="12" font-family="Segoe UI" x="-17.472656, -11.003906, -4.5351563, -1.9335938, 4.5351563, 11.003906, " y="11.027344, ">
			32,000
	</text>
	<path fill="none" stroke="black" stroke-width="1" stroke-miterlimit="4" d="M423.931 270.039L423.931 274.039"/>
	<text transform="translate(423.931 276.039)" font-size="12" font-family="Segoe UI" x="-17.472656, -11.003906, -4.5351563, -1.9335938, 4.5351563, 11.003906, " y="11.027344, ">
			34,000
	</text>
	<path fill="none" stroke="black" stroke-width="1" stroke-miterlimit="4" d="M466.957 270.039L466.957 274.039"/>
	<text transform="translate(466.957 276.039)" font-size="12" font-family="Segoe UI" x="-17.472656, -11.003906, -4.5351563, -1.9335938, 4.5351563, 11.003906, " y="11.027344, ">
			36,000
	</text>
	<path fill="none" stroke="black" stroke-width="1" stroke-miterlimit="4" d="M509.984 270.039L509.984 274.039"/>
	<text transform="translate(509.984 276.039)" font-size="12" font-family="Segoe UI" x="-17.472656, -11.003906, -4.5351563, -1.9335938, 4.5351563, 11.003906, " y="11.027344, ">
			38,000
	</text>
	<path fill="none" stroke="black" stroke-width="1" stroke-miterlimit="4" d="M553.011 270.039L553.011 274.039"/>
	<text transform="translate(553.011 276.039)" font-size="12" font-family="Segoe UI" x="-17.472656, -11.003906, -4.5351563, -1.9335938, 4.5351563, 11.003906, " y="11.027344, ">
			40,000
	</text>
	<path fill="none" stroke="black" stroke-width="1" stroke-miterlimit="4" d="M596.037 270.039L596.037 274.039"/>
	<text transform="translate(596.037 276.039)" font-size="12" font-family="Segoe UI" x="-17.472656, -11.003906, -4.5351563, -1.9335938, 4.5351563, 11.003906, " y="11.027344, ">
			42,000
	</text>
	<path fill="none" stroke="black" stroke-width="1" stroke-miterlimit="4" d="M639.064 270.039L639.064 274.039"/>
	<text transform="translate(639.064 276.039)" font-size="12" font-family="Segoe UI" x="-17.472656, -11.003906, -4.5351563, -1.9335938, 4.5351563, 11.003906, " y="11.027344, ">
			44,000
	</text>
	<path fill="none" stroke="black" stroke-width="1" stroke-miterlimit="4" d="M682.091 270.039L682.091 274.039"/>
	<text transform="translate(682.091 276.039)" font-size="12" font-family="Segoe UI" x="-17.472656, -11.003906, -4.5351563, -1.9335938, 4.5351563, 11.003906, " y="11.027344, ">
			46,000
	</text>
	<path fill="none" stroke="black" stroke-width="1" stroke-miterlimit="4" d="M725.118 270.039L725.118 274.039"/>
	<text transform="translate(725.118 276.039)" font-size="12" font-family="Segoe UI" x="-17.472656, -11.003906, -4.5351563, -1.9335938, 4.5351563, 11.003906, " y="11.027344, ">
			48,000
	</text>
	<path fill="none" stroke="black" stroke-width="1" stroke-miterlimit="4" d="M768.144 270.039L768.144 274.039"/>
	<text transform="translate(768.144 276.039)" font-size="12" font-family="Segoe UI" x="-17.472656, -11.003906, -4.5351563, -1.9335938, 4.5351563, 11.003906, " y="11.027344, ">
			50,000
	</text>
	<path fill="none" stroke="black" stroke-width="1" stroke-miterlimit="4" d="M45.2954 270.039L45.2954 272.039"/>
	<path fill="none" stroke="black" stroke-width="1" stroke-miterlimit="4" d="M53.9007 270.039L53.9007 272.039"/>
	<path fill="none" stroke="black" stroke-width="1" stroke-miterlimit="4" d="M62.5061 270.039L62.5061 272.039"/>
	<path fill="none" stroke="black" stroke-width="1" stroke-miterlimit="4" d="M71.1114 270.039L71.1114 272.039"/>
	<path fill="none" stroke="black" stroke-width="1" stroke-miterlimit="4" d="M88.3221 270.039L88.3221 272.039"/>
	<path fill="none" stroke="black" stroke-width="1" stroke-miterlimit="4" d="M96.9274 270.039L96.9274 272.039"/>
	<path fill="none" stroke="black" stroke-width="1" stroke-miterlimit="4" d="M105.533 270.039L105.533 272.039"/>
	<path fill="none" stroke="black" stroke-width="1" stroke-miterlimit="4" d="M114.138 270.039L114.138 272.039"/>
	<path fill="none" stroke="black" stroke-width="1" stroke-miterlimit="4" d="M131.349 270.039L131.349 272.039"/>
	<path fill="none" stroke="black" stroke-width="1" stroke-miterlimit="4" d="M139.954 270.039L139.954 272.039"/>
	<path fill="none" stroke="black" stroke-width="1" stroke-miterlimit="4" d="M148.56 270.039L148.56 272.039"/>
	<path fill="none" stroke="black" stroke-width="1" stroke-miterlimit="4" d="M157.165 270.039L157.165 272.039"/>
	<path fill="none" stroke="black" stroke-width="1" stroke-miterlimit="4" d="M174.376 270.039L174.376 272.039"/>
	<path fill="none" stroke="black" stroke-width="1" stroke-miterlimit="4" d="M182.981 270.039L182.981 272.039"/>
	<path fill="none" stroke="black" stroke-width="1" stroke-miterlimit="4" d="M191.586 270.039L191.586 272.039"/>
	<path fill="none" stroke="black" stroke-width="1" stroke-miterlimit="4" d="M200.192 270.039L200.192 272.039"/>
	<path fill="none" stroke="black" stroke-width="1" stroke-miterlimit="4" d="M217.402 270.039L217.402 272.039"/>
	<path fill="none" stroke="black" stroke-width="1" stroke-miterlimit="4" d="M226.008 270.039L226.008 272.039"/>
	<path fill="none" stroke="black" stroke-width="1" stroke-miterlimit="4" d="M234.613 270.039L234.613 272.039"/>
	<path fill="none" stroke="black" stroke-width="1" stroke-miterlimit="4" d="M243.218 270.039L243.218 272.039"/>
	<path fill="none" stroke="black" stroke-width="1" stroke-miterlimit="4" d="M260.429 270.039L260.429 272.039"/>
	<path fill="none" stroke="black" stroke-width="1" stroke-miterlimit="4" d="M269.034 270.039L269.034 272.039"/>
	<path fill="none" stroke="black" stroke-width="1" stroke-miterlimit="4" d="M277.64 270.039L277.64 272.039"/>
	<path fill="none" stroke="black" stroke-width="1" stroke-miterlimit="4" d="M286.245 270.039L286.245 272.039"/>
	<path fill="none" stroke="black" stroke-width="1" stroke-miterlimit="4" d="M303.456 270.039L303.456 272.039"/>
	<path fill="none" stroke="black" stroke-width="1" stroke-miterlimit="4" d="M312.061 270.039L312.061 272.039"/>
	<path fill="none" stroke="black" stroke-width="1" stroke-miterlimit="4" d="M320.666 270.039L320.666 272.039"/>
	<path fill="none" stroke="black" stroke-width="1" stroke-miterlimit="4" d="M329.272 270.039L329.272 272.039"/>
	<path fill="none" stroke="black" stroke-width="1" stroke-miterlimit="4" d="M346.482 270.039L346.482 272.039"/>
	<path fill="none" stroke="black" stroke-width="1" stroke-miterlimit="4" d="M355.088 270.039L355.088 272.039"/>
	<path fill="none" stroke="black" stroke-width="1" stroke-miterlimit="4" d="M363.693 270.039L363.693 272.039"/>
	<path fill="none" stroke="black" stroke-width="1" stroke-miterlimit="4" d="M372.298 270.039L372.298 272.039"/>
	<path fill="none" stroke="black" stroke-width="1" stroke-miterlimit="4" d="M389.509 270.039L389.509 272.039"/>
	<path fill="none" stroke="black" stroke-width="1" stroke-miterlimit="4" d="M398.114 270.039L398.114 272.039"/>
	<path fill="none" stroke="black" stroke-width="1" stroke-miterlimit="4" d="M406.72 270.039L406.72 272.039"/>
	<path fill="none" stroke="black" stroke-width="1" stroke-miterlimit="4" d="M415.325 270.039L415.325 272.039"/>
	<path fill="none" stroke="black" stroke-width="1" stroke-miterlimit="4" d="M432.536 270.039L432.536 272.039"/>
	<path fill="none" stroke="black" stroke-width="1" stroke-miterlimit="4" d="M441.141 270.039L441.141 272.039"/>
	<path fill="none" stroke="black" stroke-width="1" stroke-miterlimit="4" d="M449.747 270.039L449.747 272.039"/>
	<path fill="none" stroke="black" stroke-width="1" stroke-miterlimit="4" d="M458.352 270.039L458.352 272.039"/>
	<path fill="none" stroke="black" stroke-width="1" stroke-miterlimit="4" d="M475.563 270.039L475.563 272.039"/>
	<path fill="none" stroke="black" stroke-width="1" stroke-miterlimit="4" d="M484.168 270.039L484.168 272.039"/>
	<path fill="none" stroke="black" stroke-width="1" stroke-miterlimit="4" d="M492.773 270.039L492.773 272.039"/>
	<path fill="none" stroke="black" stroke-width="1" stroke-miterlimit="4" d="M501.379 270.039L501.379 272.039"/>
	<path fill="none" stroke="black" stroke-width="1" stroke-miterlimit="4" d="M518.589 270.039L518.589 272.039"/>
	<path fill="none" stroke="black" stroke-width="1" stroke-miterlimit="4" d="M527.195 270.039L527.195 272.039"/>
	<path fill="none" stroke="black" stroke-width="1" stroke-miterlimit="4" d="M535.8 270.039L535.8 272.039"/>
	<path fill="none" stroke="black" stroke-width="1" stroke-miterlimit="4" d="M544.405 270.039L544.405 272.039"/>
	<path fill="none" stroke="black" stroke-width="1" stroke-miterlimit="4" d="M561.616 270.039L561.616 272.039"/>
	<path fill="none" stroke="black" stroke-width="1" stroke-miterlimit="4" d="M570.221 270.039L570.221 272.039"/>
	<path fill="none" stroke="black" stroke-width="1" stroke-miterlimit="4" d="M578.827 270.039L578.827 272.039"/>
	<path fill="none" stroke="black" stroke-width="1" stroke-miterlimit="4" d="M587.432 270.039L587.432 272.039"/>
	<path fill="none" stroke="black" stroke-width="1" stroke-miterlimit="4" d="M604.643 270.039L604.643 272.039"/>
	<path fill="none" stroke="black" stroke-width="1" stroke-miterlimit="4" d="M613.248 270.039L613.248 272.039"/>
	<path fill="none" stroke="black" stroke-width="1" stroke-miterlimit="4" d="M621.853 270.039L621.853 272.039"/>
	<path fill="none" stroke="black" stroke-width="1" stroke-miterlimit="4" d="M630.459 270.039L630.459 272.039"/>
	<path fill="none" stroke="black" stroke-width="1" stroke-miterlimit="4" d="M647.669 270.039L647.669 272.039"/>
	<path fill="none" stroke="black" stroke-width="1" stroke-miterlimit="4" d="M656.275 270.039L656.275 272.039"/>
	<path fill="none" stroke="black" stroke-width="1" stroke-miterlimit="4" d="M664.88 270.039L664.88 272.039"/>
	<path fill="none" stroke="black" stroke-width="1" stroke-miterlimit="4" d="M673.485 270.039L673.485 272.039"/>
	<path fill="none" stroke="black" stroke-width="1" stroke-miterlimit="4" d="M690.696 270.039L690.696 272.039"/>
	<path fill="none" stroke="black" stroke-width="1" stroke-miterlimit="4" d="M699.302 270.039L699.302 272.039"/>
	<path fill="none" stroke="black" stroke-width="1" stroke-miterlimit="4" d="M707.907 270.039L707.907 272.039"/>
	<path fill="none" stroke="black" stroke-width="1" stroke-miterlimit="4" d="M716.512 270.039L716.512 272.039"/>
	<path fill="none" stroke="black" stroke-width="1" stroke-miterlimit="4" d="M733.723 270.039L733.723 272.039"/>
	<path fill="none" stroke="black" stroke-width="1" stroke-miterlimit="4" d="M742.328 270.039L742.328 272.039"/>
	<path fill="none" stroke="black" stroke-width="1" stroke-miterlimit="4" d="M750.934 270.039L750.934 272.039"/>
	<path fill="none" stroke="black" stroke-width="1" stroke-miterlimit="4" d="M759.539 270.039L759.539 272.039"/>
	<path fill="none" stroke="black" stroke-width="1" stroke-miterlimit="4" d="M776.75 270.039L776.75 272.039"/>
	<path fill="none" stroke="black" stroke-width="1" stroke-miterlimit="4" d="M35.5391 270.039L785 270.039"/>
	<path fill="none" stroke="black" stroke-width="1" stroke-miterlimit="4" d="M35.5391 15.1L785 15.1"/>
	<path fill="none" stroke="black" stroke-width="1" stroke-miterlimit="4" d="M35.5391 233.163L31.5391 233.163"/>
	<text transform="translate(26.5391 233.163)" font-size="12" font-family="Segoe UI" x="-15.539063, -9.0703125, -6.46875, " y="3.046875, ">
			2.5
	</text>
	<path fill="none" stroke="black" stroke-width="1" stroke-miterlimit="4" d="M35.5391 185.593L31.5391 185.593"/>
	<text transform="translate(26.5391 185.593)" font-size="12" font-family="Segoe UI" x="-6.46875, " y="3.046875, ">
			3
	</text>
	<path fill="none" stroke="black" stroke-width="1" stroke-miterlimit="4" d="M35.5391 138.022L31.5391 138.022"/>
	<text transform="translate(26.5391 138.022)" font-size="12" font-family="Segoe UI" x="-15.539063, -9.0703125, -6.46875, " y="3.046875, ">
			3.5
	</text>
	<path fill="none" stroke="black" stroke-width="1" stroke-miterlimit="4" d="M35.5391 90.4517L31.5391 90.4517"/>
	<text transform="translate(26.5391 90.4517)" font-size="12" font-family="Segoe UI" x="-6.46875, " y="3.046875, ">
			4
	</text>
	<path fill="none" stroke="black" stroke-width="1" stroke-miterlimit="4" d="M35.5391 42.8812L31.5391 42.8812"/>
	<text transform="translate(26.5391 42.8812)" font-size="12" font-family="Segoe UI" x="-15.539063, -9.0703125, -6.46875, " y="3.046875, ">
			4.5
	</text>
	<path fill="none" stroke="black" stroke-width="1" stroke-miterlimit="4" d="M35.5391 261.706L33.5391 261.706"/>
	<path fill="none" stroke="black" stroke-width="1" stroke-miterlimit="4" d="M35.5391 252.192L33.5391 252.192"/>
	<path fill="none" stroke="black" stroke-width="1" stroke-miterlimit="4" d="M35.5391 242.677L33.5391 242.677"/>
	<path fill="none" stroke="black" stroke-width="1" stroke-miterlimit="4" d="M35.5391 223.649L33.5391 223.649"/>
	<path fill="none" stroke="black" stroke-width="1" stroke-miterlimit="4" d="M35.5391 214.135L33.5391 214.135"/>
	<path fill="none" stroke="black" stroke-width="1" stroke-miterlimit="4" d="M35.5391 204.621L33.5391 204.621"/>
	<path fill="none" stroke="black" stroke-width="1" stroke-miterlimit="4" d="M35.5391 195.107L33.5391 195.107"/>
	<path fill="none" stroke="black" stroke-width="1" stroke-miterlimit="4" d="M35.5391 176.079L33.5391 176.079"/>
	<path fill="none" stroke="black" stroke-width="1" stroke-miterlimit="4" d="M35.5391 166.565L33.5391 166.565"/>
	<path fill="none" stroke="black" stroke-width="1" stroke-miterlimit="4" d="M35.5391 157.05L33.5391 157.05"/>
	<path fill="none" stroke="black" stroke-width="1" stroke-miterlimit="4" d="M35.5391 147.536L33.5391 147.536"/>
	<path fill="none" stroke="black" stroke-width="1" stroke-miterlimit="4" d="M35.5391 128.508L33.5391 128.508"/>
	<path fill="none" stroke="black" stroke-width="1" stroke-miterlimit="4" d="M35.5391 118.994L33.5391 118.994"/>
	<path fill="none" stroke="black" stroke-width="1" stroke-miterlimit="4" d="M35.5391 109.48L33.5391 109.48"/>
	<path fill="none" stroke="black" stroke-width="1" stroke-miterlimit="4" d="M35.5391 99.9658L33.5391 99.9658"/>
	<path fill="none" stroke="black" stroke-width="1" stroke-miterlimit="4" d="M35.5391 80.9376L33.5391 80.9376"/>
	<path fill="none" stroke="black" stroke-width="1" stroke-miterlimit="4" d="M35.5391 71.4235L33.5391 71.4235"/>
	<path fill="none" stroke="black" stroke-width="1" stroke-miterlimit="4" d="M35.5391 61.9094L33.5391 61.9094"/>
	<path fill="none" stroke="black" stroke-width="1" stroke-miterlimit="4" d="M35.5391 52.3953L33.5391 52.3953"/>
	<path fill="none" stroke="black" stroke-width="1" stroke-miterlimit="4" d="M35.5391 33.3671L33.5391 33.3671"/>
	<path fill="none" stroke="black" stroke-width="1" stroke-miterlimit="4" d="M35.5391 23.853L33.5391 23.853"/>
	<path fill="none" stroke="black" stroke-width="1" stroke-miterlimit="4" d="M35.5391 270.039L35.5391 15"/>
	<path fill="none" stroke="black" stroke-width="1" stroke-miterlimit="4" d="M785 270.039L785 15"/>
</svg>
