<?xml version="1.0" encoding="utf-8" ?>
<svg xmlns="http://www.w3.org/2000/svg" xmlns:xlink="http://www.w3.org/1999/xlink" width="800" height="300">
	<rect fill="white" width="800" height="300"/>
	<path fill="none" stroke="#010101" stroke-width="1" stroke-miterlimit="4" stroke-opacity="0.098039217" d="M28.8742 270.039L28.8742 15M60.9474 270.039L60.9474 15M93.0206 270.039L93.0206 15M125.094 270.039L125.094 15M157.167 270.039L157.167 15M189.24 270.039L189.24 15M221.313 270.039L221.313 15M253.387 270.039L253.387 15M285.46 270.039L285.46 15M317.533 270.039L317.533 15M349.606 270.039L349.606 15M381.679 270.039L381.679 15M413.753 270.039L413.753 15M445.826 270.039L445.826 15M477.899 270.039L477.899 15M509.972 270.039L509.972 15M542.045 270.039L542.045 15M574.119 270.039L574.119 15M606.192 270.039L606.192 15M638.265 270.039L638.265 15M670.338 270.039L670.338 15M702.411 270.039L702.411 15M734.485 270.039L734.485 15M766.558 270.039L766.558 15"/>
	<path fill="none" stroke="#010101" stroke-width="1" stroke-miterlimit="4" stroke-opacity="0.098039217" d="M26.4688 236.265L785 236.265M26.4688 201.161L785 201.161M26.4688 166.057L785 166.057M26.4688 130.953L785 130.953M26.4688 95.8489L785 95.8489M26.4688 60.7449L785 60.7449M26.4688 25.6408L785 25.6408"/>
	<clipPath id="cl_b6">
		<rect x="26.46875" y="15" width="758.53125" height="255.03906"/>
	</clipPath>
	<g clip-path="url(#cl_b6)">
		<path fill="none" stroke="red" stroke-width="1" stroke-miterlimit="4" d=""/>
		<ellipse fill="red" cx="317.53308" cy="226.67003" rx="2.5" ry="2.5"/>
	</g>
	<clipPath id="cl_b7">
		<rect x="26.46875" y="15" width="758.53125" height="255.03906"/>
	</clipPath>
	<g clip-path="url(#cl_b7)">
		<path fill="none" stroke="lime" stroke-width="1" stroke-miterlimit="4" d="M189.24 227.276L189.24 227.773L253.387 223.19L253.387 220.095L253.387 227.904L285.46 227.959L285.46 224.619L285.46 230.069L285.46 230.069L285.46 226.049L285.46 226.024L317.533 219.011L317.533 214.485L317.533 230.069L574.119 174.536L574.119 174.536L574.119 167.897"/>
		<ellipse fill="lime" cx="189.24025" cy="227.27574" rx="2.5" ry="2.5"/>
		<ellipse fill="lime" cx="189.24025" cy="227.77336" rx="2.5" ry="2.5"/>
		<ellipse fill="lime" cx="253.38666" cy="223.18962" rx="2.5" ry="2.5"/>
		<ellipse fill="lime" cx="253.38666" cy="220.09531" rx="2.5" ry="2.5"/>
		<ellipse fill="lime" cx="253.38666" cy="227.90399" rx="2.5" ry="2.5"/>
		<ellipse fill="lime" cx="285.45987" cy="227.95888" rx="2.5" ry="2.5"/>
		<ellipse fill="lime" cx="285.45987" cy="224.61916" rx="2.5" ry="2.5"/>
		<ellipse fill="lime" cx="285.45987" cy="230.06917" rx="2.5" ry="2.5"/>
		<ellipse fill="lime" cx="285.45987" cy="230.06917" rx="2.5" ry="2.5"/>
		<ellipse fill="lime" cx="285.45987" cy="226.04935" rx="2.5" ry="2.5"/>
		<ellipse fill="lime" cx="285.45987" cy="226.02367" rx="2.5" ry="2.5"/>
		<ellipse fill="lime" cx="317.53308" cy="219.01146" rx="2.5" ry="2.5"/>
		<ellipse fill="lime" cx="317.53308" cy="214.48476" rx="2.5" ry="2.5"/>
		<ellipse fill="lime" cx="317.53308" cy="230.06917" rx="2.5" ry="2.5"/>
		<ellipse fill="lime" cx="574.11871" cy="174.53625" rx="2.5" ry="2.5"/>
		<ellipse fill="lime" cx="574.11871" cy="174.53625" rx="2.5" ry="2.5"/>
		<ellipse fill="lime" cx="574.11871" cy="167.89746" rx="2.5" ry="2.5"/>
	</g>
	<clipPath id="cl_b8">
		<rect x="26.46875" y="15" width="758.53125" height="255.03906"/>
	</clipPath>
	<g clip-path="url(#cl_b8)">
		<path fill="none" stroke="#AFA" stroke-width="1" stroke-miterlimit="4" d="M60.9474 241.023L93.0206 243.948L125.094 246.619L125.094 239.112L125.094 242.707L125.094 240.442L125.094 245.818L125.094 244.055L157.167 237.771L173.204 237.286L189.24 240.075L189.24 238.719L189.24 237.518L189.24 232.438L189.24 235.398L189.24 232.073L189.24 236.649L189.24 238.015L189.24 238.015L285.46 233L285.46 233L285.46 233.515L285.46 233L381.679 197.764L381.679 197.764L381.679 197.764L381.679 197.764"/>
		<ellipse fill="#AFA" cx="60.947445" cy="241.0228" rx="2.5" ry="2.5"/>
		<ellipse fill="#AFA" cx="93.020645" cy="243.94756" rx="2.5" ry="2.5"/>
		<ellipse fill="#AFA" cx="125.09385" cy="246.61931" rx="2.5" ry="2.5"/>
		<ellipse fill="#AFA" cx="125.09385" cy="239.11243" rx="2.5" ry="2.5"/>
		<ellipse fill="#AFA" cx="125.09385" cy="242.70667" rx="2.5" ry="2.5"/>
		<ellipse fill="#AFA" cx="125.09385" cy="240.44171" rx="2.5" ry="2.5"/>
		<ellipse fill="#AFA" cx="125.09385" cy="245.8185" rx="2.5" ry="2.5"/>
		<ellipse fill="#AFA" cx="125.09385" cy="244.05476" rx="2.5" ry="2.5"/>
		<ellipse fill="#AFA" cx="157.16705" cy="237.77071" rx="2.5" ry="2.5"/>
		<ellipse fill="#AFA" cx="173.20366" cy="237.28618" rx="2.5" ry="2.5"/>
		<ellipse fill="#AFA" cx="189.24025" cy="240.07451" rx="2.5" ry="2.5"/>
		<ellipse fill="#AFA" cx="189.24025" cy="238.71939" rx="2.5" ry="2.5"/>
		<ellipse fill="#AFA" cx="189.24025" cy="237.51831" rx="2.5" ry="2.5"/>
		<ellipse fill="#AFA" cx="189.24025" cy="232.4382" rx="2.5" ry="2.5"/>
		<ellipse fill="#AFA" cx="189.24025" cy="235.39822" rx="2.5" ry="2.5"/>
		<ellipse fill="#AFA" cx="189.24025" cy="232.073" rx="2.5" ry="2.5"/>
		<ellipse fill="#AFA" cx="189.24025" cy="236.64948" rx="2.5" ry="2.5"/>
		<ellipse fill="#AFA" cx="189.24025" cy="238.01486" rx="2.5" ry="2.5"/>
		<ellipse fill="#AFA" cx="189.24025" cy="238.01486" rx="2.5" ry="2.5"/>
		<ellipse fill="#AFA" cx="285.45987" cy="233.00023" rx="2.5" ry="2.5"/>
		<ellipse fill="#AFA" cx="285.45987" cy="233.00023" rx="2.5" ry="2.5"/>
		<ellipse fill="#AFA" cx="285.45987" cy="233.5148" rx="2.5" ry="2.5"/>
		<ellipse fill="#AFA" cx="285.45987" cy="233.00023" rx="2.5" ry="2.5"/>
		<ellipse fill="#AFA" cx="381.67947" cy="197.7639" rx="2.5" ry="2.5"/>
		<ellipse fill="#AFA" cx="381.67947" cy="197.7639" rx="2.5" ry="2.5"/>
		<ellipse fill="#AFA" cx="381.67947" cy="197.7639" rx="2.5" ry="2.5"/>
		<ellipse fill="#AFA" cx="381.67947" cy="197.7639" rx="2.5" ry="2.5"/>
	</g>
	<clipPath id="cl_b9">
		<rect x="26.46875" y="15" width="758.53125" height="255.03906"/>
	</clipPath>
	<g clip-path="url(#cl_b9)">
		<path fill="none" stroke="#AAA" stroke-width="1" stroke-miterlimit="4" d="M125.094 236.311L125.094 236.311L125.094 236.311L125.094 236.311L157.167 230.245L157.167 230.81L157.167 230.245L157.167 230.245L157.167 230.245L189.24 229.628L189.24 229.628L189.24 229.628L189.24 229.628L189.24 229.628L189.24 233.097L189.24 233.097L189.24 228.845L189.24 228.845L189.24 228.845L189.24 229.372L189.24 224.922L189.24 224.922L189.24 221.699L221.313 226.749L221.313 231.007L221.313 231.007L221.313 231.009L221.313 231.007L253.387 228.274L253.387 228.274L253.387 228.274L285.46 228.274L285.46 234.958L285.46 209.359L285.46 209.359L285.46 209.359L285.46 209.359L285.46 228.304L317.533 232.158L317.533 232.158L317.533 232.158L317.533 228.304L349.606 232.158"/>
		<ellipse fill="#AAA" cx="125.09385" cy="236.3107" rx="2.5" ry="2.5"/>
		<ellipse fill="#AAA" cx="125.09385" cy="236.3107" rx="2.5" ry="2.5"/>
		<ellipse fill="#AAA" cx="125.09385" cy="236.3107" rx="2.5" ry="2.5"/>
		<ellipse fill="#AAA" cx="125.09385" cy="236.3107" rx="2.5" ry="2.5"/>
		<ellipse fill="#AAA" cx="157.16705" cy="230.24521" rx="2.5" ry="2.5"/>
		<ellipse fill="#AAA" cx="157.16705" cy="230.80983" rx="2.5" ry="2.5"/>
		<ellipse fill="#AAA" cx="157.16705" cy="230.24521" rx="2.5" ry="2.5"/>
		<ellipse fill="#AAA" cx="157.16705" cy="230.24521" rx="2.5" ry="2.5"/>
		<ellipse fill="#AAA" cx="157.16705" cy="230.24521" rx="2.5" ry="2.5"/>
		<ellipse fill="#AAA" cx="189.24025" cy="229.62833" rx="2.5" ry="2.5"/>
		<ellipse fill="#AAA" cx="189.24025" cy="229.62833" rx="2.5" ry="2.5"/>
		<ellipse fill="#AAA" cx="189.24025" cy="229.62833" rx="2.5" ry="2.5"/>
		<ellipse fill="#AAA" cx="189.24025" cy="229.62833" rx="2.5" ry="2.5"/>
		<ellipse fill="#AAA" cx="189.24025" cy="229.62833" rx="2.5" ry="2.5"/>
		<ellipse fill="#AAA" cx="189.24025" cy="233.09705" rx="2.5" ry="2.5"/>
		<ellipse fill="#AAA" cx="189.24025" cy="233.09705" rx="2.5" ry="2.5"/>
		<ellipse fill="#AAA" cx="189.24025" cy="228.84457" rx="2.5" ry="2.5"/>
		<ellipse fill="#AAA" cx="189.24025" cy="228.84457" rx="2.5" ry="2.5"/>
		<ellipse fill="#AAA" cx="189.24025" cy="228.84457" rx="2.5" ry="2.5"/>
		<ellipse fill="#AAA" cx="189.24025" cy="229.37219" rx="2.5" ry="2.5"/>
		<ellipse fill="#AAA" cx="189.24025" cy="224.92197" rx="2.5" ry="2.5"/>
		<ellipse fill="#AAA" cx="189.24025" cy="224.92197" rx="2.5" ry="2.5"/>
		<ellipse fill="#AAA" cx="189.24025" cy="221.69939" rx="2.5" ry="2.5"/>
		<ellipse fill="#AAA" cx="221.31346" cy="226.74916" rx="2.5" ry="2.5"/>
		<ellipse fill="#AAA" cx="221.31346" cy="231.00687" rx="2.5" ry="2.5"/>
		<ellipse fill="#AAA" cx="221.31346" cy="231.00687" rx="2.5" ry="2.5"/>
		<ellipse fill="#AAA" cx="221.31346" cy="231.00858" rx="2.5" ry="2.5"/>
		<ellipse fill="#AAA" cx="221.31346" cy="231.00687" rx="2.5" ry="2.5"/>
		<ellipse fill="#AAA" cx="253.38666" cy="228.27405" rx="2.5" ry="2.5"/>
		<ellipse fill="#AAA" cx="253.38666" cy="228.27405" rx="2.5" ry="2.5"/>
		<ellipse fill="#AAA" cx="253.38666" cy="228.27405" rx="2.5" ry="2.5"/>
		<ellipse fill="#AAA" cx="285.45987" cy="228.27405" rx="2.5" ry="2.5"/>
		<ellipse fill="#AAA" cx="285.45987" cy="234.95834" rx="2.5" ry="2.5"/>
		<ellipse fill="#AAA" cx="285.45987" cy="209.35883" rx="2.5" ry="2.5"/>
		<ellipse fill="#AAA" cx="285.45987" cy="209.35883" rx="2.5" ry="2.5"/>
		<ellipse fill="#AAA" cx="285.45987" cy="209.35883" rx="2.5" ry="2.5"/>
		<ellipse fill="#AAA" cx="285.45987" cy="209.35883" rx="2.5" ry="2.5"/>
		<ellipse fill="#AAA" cx="285.45987" cy="228.30426" rx="2.5" ry="2.5"/>
		<ellipse fill="#AAA" cx="317.53308" cy="232.15752" rx="2.5" ry="2.5"/>
		<ellipse fill="#AAA" cx="317.53308" cy="232.15752" rx="2.5" ry="2.5"/>
		<ellipse fill="#AAA" cx="317.53308" cy="232.15752" rx="2.5" ry="2.5"/>
		<ellipse fill="#AAA" cx="317.53308" cy="228.30426" rx="2.5" ry="2.5"/>
		<ellipse fill="#AAA" cx="349.60626" cy="232.15752" rx="2.5" ry="2.5"/>
	</g>
	<clipPath id="cl_ba">
		<rect x="26.46875" y="15" width="758.53125" height="255.03906"/>
	</clipPath>
	<g clip-path="url(#cl_ba)">
		<path fill="none" stroke="#FF5454" stroke-width="1" stroke-miterlimit="4" d="M115.472 253.406L115.472 253.406L125.094 252.007L125.094 252.007L125.094 252.007L125.094 252.007L125.094 252.007L125.094 252.007L125.094 252.007L125.094 252.007L125.094 252.007L157.167 247.196L157.167 248.226L157.167 247.196L157.167 245.051L157.167 245.051L157.167 247.196L157.167 247.196L157.167 247.196L189.24 239.082L189.24 239.082L189.24 239.082L189.24 239.082L189.24 239.201L189.24 239.201L189.24 239.082L189.24 239.082L189.24 239.201L189.24 241.014L189.24 239.201L189.24 239.201L189.24 234.717L189.24 238.382L189.24 235.455L189.24 235.455L189.24 235.455L189.24 235.455L189.24 235.455L189.24 235.455L189.24 233.459L189.24 238.048L189.24 235.57L205.277 235.456L221.313 244.785L221.313 229.189L221.313 229.189L221.313 229.189L221.313 229.189L221.313 229.189L221.313 229.189L221.313 239.443L221.313 239.443L285.46 227.513L285.46 228.635L285.46 228.635L285.46 228.635L285.46 228.399L285.46 228.367L285.46 227.478L285.46 228.399L285.46 228.245L285.46 228.245L285.46 228.815L285.46 234.67L285.46 234.67L285.46 228.815L285.46 228.815L285.46 228.815L285.46 231.29L285.46 231.29L285.46 234.67L285.46 234.67L285.46 231.29L285.46 231.29L285.46 231.176L285.46 224.663L285.46 221.637L317.533 229.503L317.533 225.255L317.533 217.697L349.606 225.255L349.606 226.402L349.606 226.975L381.679 191.856L381.679 191.856L381.679 211.999L381.679 191.856L381.679 191.856L509.972 167.388L509.972 175.905L509.972 172.025L509.972 185.981L542.045 181.909L574.119 174.16"/>
		<ellipse fill="#FF5454" cx="115.47189" cy="253.40608" rx="2.5" ry="2.5"/>
		<ellipse fill="#FF5454" cx="115.47189" cy="253.40608" rx="2.5" ry="2.5"/>
		<ellipse fill="#FF5454" cx="125.09385" cy="252.00671" rx="2.5" ry="2.5"/>
		<ellipse fill="#FF5454" cx="125.09385" cy="252.00671" rx="2.5" ry="2.5"/>
		<ellipse fill="#FF5454" cx="125.09385" cy="252.00671" rx="2.5" ry="2.5"/>
		<ellipse fill="#FF5454" cx="125.09385" cy="252.00671" rx="2.5" ry="2.5"/>
		<ellipse fill="#FF5454" cx="125.09385" cy="252.00671" rx="2.5" ry="2.5"/>
		<ellipse fill="#FF5454" cx="125.09385" cy="252.00671" rx="2.5" ry="2.5"/>
		<ellipse fill="#FF5454" cx="125.09385" cy="252.00671" rx="2.5" ry="2.5"/>
		<ellipse fill="#FF5454" cx="125.09385" cy="252.00671" rx="2.5" ry="2.5"/>
		<ellipse fill="#FF5454" cx="125.09385" cy="252.00671" rx="2.5" ry="2.5"/>
		<ellipse fill="#FF5454" cx="157.16705" cy="247.19553" rx="2.5" ry="2.5"/>
		<ellipse fill="#FF5454" cx="157.16705" cy="248.22592" rx="2.5" ry="2.5"/>
		<ellipse fill="#FF5454" cx="157.16705" cy="247.19553" rx="2.5" ry="2.5"/>
		<ellipse fill="#FF5454" cx="157.16705" cy="245.05124" rx="2.5" ry="2.5"/>
		<ellipse fill="#FF5454" cx="157.16705" cy="245.05124" rx="2.5" ry="2.5"/>
		<ellipse fill="#FF5454" cx="157.16705" cy="247.19553" rx="2.5" ry="2.5"/>
		<ellipse fill="#FF5454" cx="157.16705" cy="247.19553" rx="2.5" ry="2.5"/>
		<ellipse fill="#FF5454" cx="157.16705" cy="247.19553" rx="2.5" ry="2.5"/>
		<ellipse fill="#FF5454" cx="189.24025" cy="239.0824" rx="2.5" ry="2.5"/>
		<ellipse fill="#FF5454" cx="189.24025" cy="239.0824" rx="2.5" ry="2.5"/>
		<ellipse fill="#FF5454" cx="189.24025" cy="239.0824" rx="2.5" ry="2.5"/>
		<ellipse fill="#FF5454" cx="189.24025" cy="239.0824" rx="2.5" ry="2.5"/>
		<ellipse fill="#FF5454" cx="189.24025" cy="239.20079" rx="2.5" ry="2.5"/>
		<ellipse fill="#FF5454" cx="189.24025" cy="239.20079" rx="2.5" ry="2.5"/>
		<ellipse fill="#FF5454" cx="189.24025" cy="239.0824" rx="2.5" ry="2.5"/>
		<ellipse fill="#FF5454" cx="189.24025" cy="239.0824" rx="2.5" ry="2.5"/>
		<ellipse fill="#FF5454" cx="189.24025" cy="239.20079" rx="2.5" ry="2.5"/>
		<ellipse fill="#FF5454" cx="189.24025" cy="241.01373" rx="2.5" ry="2.5"/>
		<ellipse fill="#FF5454" cx="189.24025" cy="239.20079" rx="2.5" ry="2.5"/>
		<ellipse fill="#FF5454" cx="189.24025" cy="239.20079" rx="2.5" ry="2.5"/>
		<ellipse fill="#FF5454" cx="189.24025" cy="234.71652" rx="2.5" ry="2.5"/>
		<ellipse fill="#FF5454" cx="189.24025" cy="238.38179" rx="2.5" ry="2.5"/>
		<ellipse fill="#FF5454" cx="189.24025" cy="235.45451" rx="2.5" ry="2.5"/>
		<ellipse fill="#FF5454" cx="189.24025" cy="235.45451" rx="2.5" ry="2.5"/>
		<ellipse fill="#FF5454" cx="189.24025" cy="235.45451" rx="2.5" ry="2.5"/>
		<ellipse fill="#FF5454" cx="189.24025" cy="235.45451" rx="2.5" ry="2.5"/>
		<ellipse fill="#FF5454" cx="189.24025" cy="235.45451" rx="2.5" ry="2.5"/>
		<ellipse fill="#FF5454" cx="189.24025" cy="235.45451" rx="2.5" ry="2.5"/>
		<ellipse fill="#FF5454" cx="189.24025" cy="233.45926" rx="2.5" ry="2.5"/>
		<ellipse fill="#FF5454" cx="189.24025" cy="238.04817" rx="2.5" ry="2.5"/>
		<ellipse fill="#FF5454" cx="189.24025" cy="235.57047" rx="2.5" ry="2.5"/>
		<ellipse fill="#FF5454" cx="205.27686" cy="235.45596" rx="2.5" ry="2.5"/>
		<ellipse fill="#FF5454" cx="221.31346" cy="244.78537" rx="2.5" ry="2.5"/>
		<ellipse fill="#FF5454" cx="221.31346" cy="229.18907" rx="2.5" ry="2.5"/>
		<ellipse fill="#FF5454" cx="221.31346" cy="229.18907" rx="2.5" ry="2.5"/>
		<ellipse fill="#FF5454" cx="221.31346" cy="229.18907" rx="2.5" ry="2.5"/>
		<ellipse fill="#FF5454" cx="221.31346" cy="229.18907" rx="2.5" ry="2.5"/>
		<ellipse fill="#FF5454" cx="221.31346" cy="229.18907" rx="2.5" ry="2.5"/>
		<ellipse fill="#FF5454" cx="221.31346" cy="229.18907" rx="2.5" ry="2.5"/>
		<ellipse fill="#FF5454" cx="221.31346" cy="239.44298" rx="2.5" ry="2.5"/>
		<ellipse fill="#FF5454" cx="221.31346" cy="239.44298" rx="2.5" ry="2.5"/>
		<ellipse fill="#FF5454" cx="285.45987" cy="227.51276" rx="2.5" ry="2.5"/>
		<ellipse fill="#FF5454" cx="285.45987" cy="228.63535" rx="2.5" ry="2.5"/>
		<ellipse fill="#FF5454" cx="285.45987" cy="228.63535" rx="2.5" ry="2.5"/>
		<ellipse fill="#FF5454" cx="285.45987" cy="228.63535" rx="2.5" ry="2.5"/>
		<ellipse fill="#FF5454" cx="285.45987" cy="228.39937" rx="2.5" ry="2.5"/>
		<ellipse fill="#FF5454" cx="285.45987" cy="228.36671" rx="2.5" ry="2.5"/>
		<ellipse fill="#FF5454" cx="285.45987" cy="227.47787" rx="2.5" ry="2.5"/>
		<ellipse fill="#FF5454" cx="285.45987" cy="228.39937" rx="2.5" ry="2.5"/>
		<ellipse fill="#FF5454" cx="285.45987" cy="228.24481" rx="2.5" ry="2.5"/>
		<ellipse fill="#FF5454" cx="285.45987" cy="228.24481" rx="2.5" ry="2.5"/>
		<ellipse fill="#FF5454" cx="285.45987" cy="228.81451" rx="2.5" ry="2.5"/>
		<ellipse fill="#FF5454" cx="285.45987" cy="234.67038" rx="2.5" ry="2.5"/>
		<ellipse fill="#FF5454" cx="285.45987" cy="234.67038" rx="2.5" ry="2.5"/>
		<ellipse fill="#FF5454" cx="285.45987" cy="228.81451" rx="2.5" ry="2.5"/>
		<ellipse fill="#FF5454" cx="285.45987" cy="228.81451" rx="2.5" ry="2.5"/>
		<ellipse fill="#FF5454" cx="285.45987" cy="228.81451" rx="2.5" ry="2.5"/>
		<ellipse fill="#FF5454" cx="285.45987" cy="231.28975" rx="2.5" ry="2.5"/>
		<ellipse fill="#FF5454" cx="285.45987" cy="231.28975" rx="2.5" ry="2.5"/>
		<ellipse fill="#FF5454" cx="285.45987" cy="234.67038" rx="2.5" ry="2.5"/>
		<ellipse fill="#FF5454" cx="285.45987" cy="234.67038" rx="2.5" ry="2.5"/>
		<ellipse fill="#FF5454" cx="285.45987" cy="231.28975" rx="2.5" ry="2.5"/>
		<ellipse fill="#FF5454" cx="285.45987" cy="231.28975" rx="2.5" ry="2.5"/>
		<ellipse fill="#FF5454" cx="285.45987" cy="231.17569" rx="2.5" ry="2.5"/>
		<ellipse fill="#FF5454" cx="285.45987" cy="224.66254" rx="2.5" ry="2.5"/>
		<ellipse fill="#FF5454" cx="285.45987" cy="221.63728" rx="2.5" ry="2.5"/>
		<ellipse fill="#FF5454" cx="317.53308" cy="229.50259" rx="2.5" ry="2.5"/>
		<ellipse fill="#FF5454" cx="317.53308" cy="225.25475" rx="2.5" ry="2.5"/>
		<ellipse fill="#FF5454" cx="317.53308" cy="217.69736" rx="2.5" ry="2.5"/>
		<ellipse fill="#FF5454" cx="349.60626" cy="225.25475" rx="2.5" ry="2.5"/>
		<ellipse fill="#FF5454" cx="349.60626" cy="226.40211" rx="2.5" ry="2.5"/>
		<ellipse fill="#FF5454" cx="349.60626" cy="226.97537" rx="2.5" ry="2.5"/>
		<ellipse fill="#FF5454" cx="381.67947" cy="191.85574" rx="2.5" ry="2.5"/>
		<ellipse fill="#FF5454" cx="381.67947" cy="191.85574" rx="2.5" ry="2.5"/>
		<ellipse fill="#FF5454" cx="381.67947" cy="211.99915" rx="2.5" ry="2.5"/>
		<ellipse fill="#FF5454" cx="381.67947" cy="191.85574" rx="2.5" ry="2.5"/>
		<ellipse fill="#FF5454" cx="381.67947" cy="191.85574" rx="2.5" ry="2.5"/>
		<ellipse fill="#FF5454" cx="509.97229" cy="167.38797" rx="2.5" ry="2.5"/>
		<ellipse fill="#FF5454" cx="509.97229" cy="175.90469" rx="2.5" ry="2.5"/>
		<ellipse fill="#FF5454" cx="509.97229" cy="172.02493" rx="2.5" ry="2.5"/>
		<ellipse fill="#FF5454" cx="509.97229" cy="185.98082" rx="2.5" ry="2.5"/>
		<ellipse fill="#FF5454" cx="542.04547" cy="181.90906" rx="2.5" ry="2.5"/>
		<ellipse fill="#FF5454" cx="574.11871" cy="174.1595" rx="2.5" ry="2.5"/>
	</g>
	<clipPath id="cl_bb">
		<rect x="26.46875" y="15" width="758.53125" height="255.03906"/>
	</clipPath>
	<g clip-path="url(#cl_bb)">
		<path fill="none" stroke="#303030" stroke-width="1" stroke-miterlimit="4" d="M574.119 158.827L574.119 152.61L606.192 112.37L606.192 116.362"/>
		<ellipse fill="#303030" cx="574.11871" cy="158.82693" rx="2.5" ry="2.5"/>
		<ellipse fill="#303030" cx="574.11871" cy="152.60977" rx="2.5" ry="2.5"/>
		<ellipse fill="#303030" cx="606.19189" cy="112.3701" rx="2.5" ry="2.5"/>
		<ellipse fill="#303030" cx="606.19189" cy="116.36208" rx="2.5" ry="2.5"/>
	</g>
	<clipPath id="cl_bc">
		<rect x="26.46875" y="15" width="758.53125" height="255.03906"/>
	</clipPath>
	<g clip-path="url(#cl_bc)">
		<path fill="none" stroke="blue" stroke-width="1" stroke-miterlimit="4" d="M157.167 230.27L157.167 232.763L157.167 228.289L157.167 228.891L157.167 227.099L157.167 230.2L189.24 232.615L189.24 227.701L189.24 223.292L189.24 231.086L189.24 221.813L189.24 230.623L189.24 232.304L189.24 232.304L189.24 230.134L189.24 230.134L221.313 229.253L221.313 229.253L221.313 229.253L221.313 229.253L221.313 229.253L221.313 229.253L253.387 230.305L253.387 227.546L253.387 230.305L285.46 229.499L285.46 229.499L285.46 229.499L285.46 229.499L542.045 111.474L542.045 146.445L638.265 143.378L638.265 143.378"/>
		<ellipse fill="blue" cx="157.16705" cy="230.27005" rx="2.5" ry="2.5"/>
		<ellipse fill="blue" cx="157.16705" cy="232.76334" rx="2.5" ry="2.5"/>
		<ellipse fill="blue" cx="157.16705" cy="228.28934" rx="2.5" ry="2.5"/>
		<ellipse fill="blue" cx="157.16705" cy="228.89133" rx="2.5" ry="2.5"/>
		<ellipse fill="blue" cx="157.16705" cy="227.09941" rx="2.5" ry="2.5"/>
		<ellipse fill="blue" cx="157.16705" cy="230.19984" rx="2.5" ry="2.5"/>
		<ellipse fill="blue" cx="189.24025" cy="232.61505" rx="2.5" ry="2.5"/>
		<ellipse fill="blue" cx="189.24025" cy="227.70053" rx="2.5" ry="2.5"/>
		<ellipse fill="blue" cx="189.24025" cy="223.2925" rx="2.5" ry="2.5"/>
		<ellipse fill="blue" cx="189.24025" cy="231.08583" rx="2.5" ry="2.5"/>
		<ellipse fill="blue" cx="189.24025" cy="221.81264" rx="2.5" ry="2.5"/>
		<ellipse fill="blue" cx="189.24025" cy="230.62299" rx="2.5" ry="2.5"/>
		<ellipse fill="blue" cx="189.24025" cy="232.3044" rx="2.5" ry="2.5"/>
		<ellipse fill="blue" cx="189.24025" cy="232.3044" rx="2.5" ry="2.5"/>
		<ellipse fill="blue" cx="189.24025" cy="230.13412" rx="2.5" ry="2.5"/>
		<ellipse fill="blue" cx="189.24025" cy="230.13412" rx="2.5" ry="2.5"/>
		<ellipse fill="blue" cx="221.31346" cy="229.2533" rx="2.5" ry="2.5"/>
		<ellipse fill="blue" cx="221.31346" cy="229.2533" rx="2.5" ry="2.5"/>
		<ellipse fill="blue" cx="221.31346" cy="229.2533" rx="2.5" ry="2.5"/>
		<ellipse fill="blue" cx="221.31346" cy="229.2533" rx="2.5" ry="2.5"/>
		<ellipse fill="blue" cx="221.31346" cy="229.2533" rx="2.5" ry="2.5"/>
		<ellipse fill="blue" cx="221.31346" cy="229.2533" rx="2.5" ry="2.5"/>
		<ellipse fill="blue" cx="253.38666" cy="230.30495" rx="2.5" ry="2.5"/>
		<ellipse fill="blue" cx="253.38666" cy="227.54578" rx="2.5" ry="2.5"/>
		<ellipse fill="blue" cx="253.38666" cy="230.30495" rx="2.5" ry="2.5"/>
		<ellipse fill="blue" cx="285.45987" cy="229.49854" rx="2.5" ry="2.5"/>
		<ellipse fill="blue" cx="285.45987" cy="229.49854" rx="2.5" ry="2.5"/>
		<ellipse fill="blue" cx="285.45987" cy="229.49854" rx="2.5" ry="2.5"/>
		<ellipse fill="blue" cx="285.45987" cy="229.49854" rx="2.5" ry="2.5"/>
		<ellipse fill="blue" cx="542.04547" cy="111.47443" rx="2.5" ry="2.5"/>
		<ellipse fill="blue" cx="542.04547" cy="146.4447" rx="2.5" ry="2.5"/>
		<ellipse fill="blue" cx="638.26508" cy="143.37796" rx="2.5" ry="2.5"/>
		<ellipse fill="blue" cx="638.26508" cy="143.37796" rx="2.5" ry="2.5"/>
	</g>
	<clipPath id="cl_bd">
		<rect x="26.46875" y="15" width="758.53125" height="255.03906"/>
	</clipPath>
	<g clip-path="url(#cl_bd)">
		<path fill="none" stroke="#6060FF" stroke-width="1" stroke-miterlimit="4" d="M93.0206 246.353L93.0206 244.166L93.0206 244.166L125.094 241.39L125.094 244.481L125.094 244.481L125.094 244.481L125.094 234.615L157.167 236.139L157.167 244.793L157.167 245.716L189.24 232.638L189.24 231.122L189.24 232.264L189.24 239.301L189.24 239.301L189.24 237.52L189.24 237.52L189.24 237.52L189.24 237.52L189.24 237.52L221.313 231.844L221.313 231.844L221.313 231.844L221.313 231.844L221.313 231.844L253.387 234.16L253.387 234.16L253.387 239.712L253.387 241.768L285.46 228.985L285.46 228.985L285.46 227.042L285.46 226.333L285.46 241.608L285.46 241.608L285.46 238.636L285.46 231.671L285.46 236.818L285.46 236.818L285.46 241.677L285.46 240.776L285.46 240.776L285.46 240.739L285.46 235.625L285.46 240.827L477.899 173.461L477.899 173.461L477.899 173.461L477.899 173.461L509.972 172.507L509.972 172.507L638.265 133.288L638.265 134.065L670.338 144.069L670.338 149.288"/>
		<ellipse fill="#6060FF" cx="93.020645" cy="246.35272" rx="2.5" ry="2.5"/>
		<ellipse fill="#6060FF" cx="93.020645" cy="244.16612" rx="2.5" ry="2.5"/>
		<ellipse fill="#6060FF" cx="93.020645" cy="244.16612" rx="2.5" ry="2.5"/>
		<ellipse fill="#6060FF" cx="125.09385" cy="241.39046" rx="2.5" ry="2.5"/>
		<ellipse fill="#6060FF" cx="125.09385" cy="244.48105" rx="2.5" ry="2.5"/>
		<ellipse fill="#6060FF" cx="125.09385" cy="244.48105" rx="2.5" ry="2.5"/>
		<ellipse fill="#6060FF" cx="125.09385" cy="244.48105" rx="2.5" ry="2.5"/>
		<ellipse fill="#6060FF" cx="125.09385" cy="234.61473" rx="2.5" ry="2.5"/>
		<ellipse fill="#6060FF" cx="157.16705" cy="236.13875" rx="2.5" ry="2.5"/>
		<ellipse fill="#6060FF" cx="157.16705" cy="244.79332" rx="2.5" ry="2.5"/>
		<ellipse fill="#6060FF" cx="157.16705" cy="245.71622" rx="2.5" ry="2.5"/>
		<ellipse fill="#6060FF" cx="189.24025" cy="232.63823" rx="2.5" ry="2.5"/>
		<ellipse fill="#6060FF" cx="189.24025" cy="231.12183" rx="2.5" ry="2.5"/>
		<ellipse fill="#6060FF" cx="189.24025" cy="232.26379" rx="2.5" ry="2.5"/>
		<ellipse fill="#6060FF" cx="189.24025" cy="239.30132" rx="2.5" ry="2.5"/>
		<ellipse fill="#6060FF" cx="189.24025" cy="239.30132" rx="2.5" ry="2.5"/>
		<ellipse fill="#6060FF" cx="189.24025" cy="237.51976" rx="2.5" ry="2.5"/>
		<ellipse fill="#6060FF" cx="189.24025" cy="237.51976" rx="2.5" ry="2.5"/>
		<ellipse fill="#6060FF" cx="189.24025" cy="237.51976" rx="2.5" ry="2.5"/>
		<ellipse fill="#6060FF" cx="189.24025" cy="237.51976" rx="2.5" ry="2.5"/>
		<ellipse fill="#6060FF" cx="189.24025" cy="237.51976" rx="2.5" ry="2.5"/>
		<ellipse fill="#6060FF" cx="221.31346" cy="231.84375" rx="2.5" ry="2.5"/>
		<ellipse fill="#6060FF" cx="221.31346" cy="231.84375" rx="2.5" ry="2.5"/>
		<ellipse fill="#6060FF" cx="221.31346" cy="231.84375" rx="2.5" ry="2.5"/>
		<ellipse fill="#6060FF" cx="221.31346" cy="231.84375" rx="2.5" ry="2.5"/>
		<ellipse fill="#6060FF" cx="221.31346" cy="231.84375" rx="2.5" ry="2.5"/>
		<ellipse fill="#6060FF" cx="253.38666" cy="234.16016" rx="2.5" ry="2.5"/>
		<ellipse fill="#6060FF" cx="253.38666" cy="234.16016" rx="2.5" ry="2.5"/>
		<ellipse fill="#6060FF" cx="253.38666" cy="239.7117" rx="2.5" ry="2.5"/>
		<ellipse fill="#6060FF" cx="253.38666" cy="241.76819" rx="2.5" ry="2.5"/>
		<ellipse fill="#6060FF" cx="285.45987" cy="228.98543" rx="2.5" ry="2.5"/>
		<ellipse fill="#6060FF" cx="285.45987" cy="228.98543" rx="2.5" ry="2.5"/>
		<ellipse fill="#6060FF" cx="285.45987" cy="227.04228" rx="2.5" ry="2.5"/>
		<ellipse fill="#6060FF" cx="285.45987" cy="226.33304" rx="2.5" ry="2.5"/>
		<ellipse fill="#6060FF" cx="285.45987" cy="241.60754" rx="2.5" ry="2.5"/>
		<ellipse fill="#6060FF" cx="285.45987" cy="241.60754" rx="2.5" ry="2.5"/>
		<ellipse fill="#6060FF" cx="285.45987" cy="238.6358" rx="2.5" ry="2.5"/>
		<ellipse fill="#6060FF" cx="285.45987" cy="231.67067" rx="2.5" ry="2.5"/>
		<ellipse fill="#6060FF" cx="285.45987" cy="236.81793" rx="2.5" ry="2.5"/>
		<ellipse fill="#6060FF" cx="285.45987" cy="236.81793" rx="2.5" ry="2.5"/>
		<ellipse fill="#6060FF" cx="285.45987" cy="241.67671" rx="2.5" ry="2.5"/>
		<ellipse fill="#6060FF" cx="285.45987" cy="240.77582" rx="2.5" ry="2.5"/>
		<ellipse fill="#6060FF" cx="285.45987" cy="240.77582" rx="2.5" ry="2.5"/>
		<ellipse fill="#6060FF" cx="285.45987" cy="240.7394" rx="2.5" ry="2.5"/>
		<ellipse fill="#6060FF" cx="285.45987" cy="235.62546" rx="2.5" ry="2.5"/>
		<ellipse fill="#6060FF" cx="285.45987" cy="240.82654" rx="2.5" ry="2.5"/>
		<ellipse fill="#6060FF" cx="477.89908" cy="173.46146" rx="2.5" ry="2.5"/>
		<ellipse fill="#6060FF" cx="477.89908" cy="173.46146" rx="2.5" ry="2.5"/>
		<ellipse fill="#6060FF" cx="477.89908" cy="173.46146" rx="2.5" ry="2.5"/>
		<ellipse fill="#6060FF" cx="477.89908" cy="173.46146" rx="2.5" ry="2.5"/>
		<ellipse fill="#6060FF" cx="509.97229" cy="172.50668" rx="2.5" ry="2.5"/>
		<ellipse fill="#6060FF" cx="509.97229" cy="172.50668" rx="2.5" ry="2.5"/>
		<ellipse fill="#6060FF" cx="638.26508" cy="133.28764" rx="2.5" ry="2.5"/>
		<ellipse fill="#6060FF" cx="638.26508" cy="134.06516" rx="2.5" ry="2.5"/>
		<ellipse fill="#6060FF" cx="670.33832" cy="144.06885" rx="2.5" ry="2.5"/>
		<ellipse fill="#6060FF" cx="670.33832" cy="149.28815" rx="2.5" ry="2.5"/>
	</g>
	<clipPath id="cl_be">
		<rect x="26.46875" y="15" width="758.53125" height="255.03906"/>
	</clipPath>
	<g clip-path="url(#cl_be)">
		<path fill="none" stroke="yellow" stroke-width="1" stroke-miterlimit="4" d="M221.313 218.281L221.313 220.513L221.313 214.978L253.387 217.919L253.387 217.919L253.387 214.95L253.387 226.573L253.387 224.189L253.387 223.712L253.387 223.979L253.387 228.64L253.387 228.64L253.387 230.759"/>
		<ellipse fill="yellow" cx="221.31346" cy="218.28058" rx="2.5" ry="2.5"/>
		<ellipse fill="yellow" cx="221.31346" cy="220.51274" rx="2.5" ry="2.5"/>
		<ellipse fill="yellow" cx="221.31346" cy="214.97818" rx="2.5" ry="2.5"/>
		<ellipse fill="yellow" cx="253.38666" cy="217.91902" rx="2.5" ry="2.5"/>
		<ellipse fill="yellow" cx="253.38666" cy="217.91902" rx="2.5" ry="2.5"/>
		<ellipse fill="yellow" cx="253.38666" cy="214.94957" rx="2.5" ry="2.5"/>
		<ellipse fill="yellow" cx="253.38666" cy="226.5726" rx="2.5" ry="2.5"/>
		<ellipse fill="yellow" cx="253.38666" cy="224.18887" rx="2.5" ry="2.5"/>
		<ellipse fill="yellow" cx="253.38666" cy="223.71231" rx="2.5" ry="2.5"/>
		<ellipse fill="yellow" cx="253.38666" cy="223.9787" rx="2.5" ry="2.5"/>
		<ellipse fill="yellow" cx="253.38666" cy="228.64029" rx="2.5" ry="2.5"/>
		<ellipse fill="yellow" cx="253.38666" cy="228.64029" rx="2.5" ry="2.5"/>
		<ellipse fill="yellow" cx="253.38666" cy="230.7587" rx="2.5" ry="2.5"/>
	</g>
	<clipPath id="cl_bf">
		<rect x="26.46875" y="15" width="758.53125" height="255.03906"/>
	</clipPath>
	<g clip-path="url(#cl_bf)">
		<path fill="none" stroke="#FFB600" stroke-width="1" stroke-miterlimit="4" d="M221.313 236.712L221.313 236.712L221.313 236.712"/>
		<ellipse fill="#FFB600" cx="221.31346" cy="236.71231" rx="2.5" ry="2.5"/>
		<ellipse fill="#FFB600" cx="221.31346" cy="236.71231" rx="2.5" ry="2.5"/>
		<ellipse fill="#FFB600" cx="221.31346" cy="236.71231" rx="2.5" ry="2.5"/>
	</g>
	<clipPath id="cl_c0">
		<rect x="26.46875" y="15" width="758.53125" height="255.03906"/>
	</clipPath>
	<g clip-path="url(#cl_c0)">
		<path fill="none" stroke="#FFBFBF" stroke-width="1" stroke-miterlimit="4" d="M189.24 237.044L189.24 237.044L189.24 241.006L189.24 240.682L189.24 239.865L189.24 240.561L189.24 239.714L189.24 236.71L189.24 242.056L253.387 230.114L285.46 231.806L285.46 231.087L317.533 229.414L349.606 229.42L349.606 225.2L349.606 225.2L445.826 194.96L445.826 194.96L477.899 190.393L493.936 198.133"/>
		<ellipse fill="#FFBFBF" cx="189.24025" cy="237.04395" rx="2.5" ry="2.5"/>
		<ellipse fill="#FFBFBF" cx="189.24025" cy="237.04395" rx="2.5" ry="2.5"/>
		<ellipse fill="#FFBFBF" cx="189.24025" cy="241.00597" rx="2.5" ry="2.5"/>
		<ellipse fill="#FFBFBF" cx="189.24025" cy="240.68222" rx="2.5" ry="2.5"/>
		<ellipse fill="#FFBFBF" cx="189.24025" cy="239.86459" rx="2.5" ry="2.5"/>
		<ellipse fill="#FFBFBF" cx="189.24025" cy="240.56061" rx="2.5" ry="2.5"/>
		<ellipse fill="#FFBFBF" cx="189.24025" cy="239.71356" rx="2.5" ry="2.5"/>
		<ellipse fill="#FFBFBF" cx="189.24025" cy="236.70963" rx="2.5" ry="2.5"/>
		<ellipse fill="#FFBFBF" cx="189.24025" cy="242.05627" rx="2.5" ry="2.5"/>
		<ellipse fill="#FFBFBF" cx="253.38666" cy="230.11397" rx="2.5" ry="2.5"/>
		<ellipse fill="#FFBFBF" cx="285.45987" cy="231.80609" rx="2.5" ry="2.5"/>
		<ellipse fill="#FFBFBF" cx="285.45987" cy="231.08652" rx="2.5" ry="2.5"/>
		<ellipse fill="#FFBFBF" cx="317.53308" cy="229.41435" rx="2.5" ry="2.5"/>
		<ellipse fill="#FFBFBF" cx="349.60626" cy="229.42007" rx="2.5" ry="2.5"/>
		<ellipse fill="#FFBFBF" cx="349.60626" cy="225.19963" rx="2.5" ry="2.5"/>
		<ellipse fill="#FFBFBF" cx="349.60626" cy="225.19963" rx="2.5" ry="2.5"/>
		<ellipse fill="#FFBFBF" cx="445.82587" cy="194.96007" rx="2.5" ry="2.5"/>
		<ellipse fill="#FFBFBF" cx="445.82587" cy="194.96007" rx="2.5" ry="2.5"/>
		<ellipse fill="#FFBFBF" cx="477.89908" cy="190.39346" rx="2.5" ry="2.5"/>
		<ellipse fill="#FFBFBF" cx="493.93567" cy="198.13303" rx="2.5" ry="2.5"/>
	</g>
	<clipPath id="cl_c1">
		<rect x="26.46875" y="15" width="758.53125" height="255.03906"/>
	</clipPath>
	<g clip-path="url(#cl_c1)">
		<path fill="none" stroke="#AB4E00" stroke-width="1" stroke-miterlimit="4" d="M285.46 228.584L301.496 228.635"/>
		<ellipse fill="#AB4E00" cx="285.45987" cy="228.58377" rx="2.5" ry="2.5"/>
		<ellipse fill="#AB4E00" cx="301.49646" cy="228.63477" rx="2.5" ry="2.5"/>
	</g>
	<clipPath id="cl_c2">
		<rect x="26.46875" y="15" width="758.53125" height="255.03906"/>
	</clipPath>
	<g clip-path="url(#cl_c2)">
		<path fill="none" stroke="#AAF" stroke-width="1" stroke-miterlimit="4" d="M317.533 226.629L317.533 226.629"/>
		<ellipse fill="#AAF" cx="317.53308" cy="226.62856" rx="2.5" ry="2.5"/>
		<ellipse fill="#AAF" cx="317.53308" cy="226.62856" rx="2.5" ry="2.5"/>
	</g>
	<clipPath id="cl_c3">
		<rect x="26.46875" y="15" width="758.53125" height="255.03906"/>
	</clipPath>
	<g clip-path="url(#cl_c3)">
		<path fill="#FF5454" d="M414.253 189.266L414.253 189.453L414.253 189.995L414.253 191.078L413.253 191.078L413.253 188.76L419.989 188.066L420.092 189.061L413.804 189.708L413.753 189.211L414.253 189.211L414.253 191.078L413.753 191.078L413.253 191.078L413.253 189.995L413.253 189.453L413.253 189.266L414.253 189.266ZM429.936 187.041L439.884 186.017L439.986 187.012L430.039 188.036L429.936 187.041ZM449.831 184.993L459.779 183.968L459.881 184.963L449.934 185.987L449.831 184.993ZM469.726 182.944L479.673 181.919L479.776 182.914L469.828 183.938L469.726 182.944ZM489.621 180.895L499.568 179.87L499.671 180.865L489.723 181.89L489.621 180.895ZM509.516 178.846L509.921 178.804L509.972 179.302L509.472 179.302L509.472 174.575L509.472 169.709L510.472 169.709L510.472 174.575L510.472 179.753L509.618 179.841L509.516 178.846ZM518.572 166.692L528.463 165.22L528.61 166.209L518.719 167.681L518.572 166.692ZM538.354 163.747L548.245 162.275L548.392 163.264L538.501 164.736L538.354 163.747ZM558.136 160.802L568.027 159.329L568.174 160.319L558.283 161.791L558.136 160.802ZM577.918 157.857L587.809 156.384L587.956 157.373L578.065 158.846L577.918 157.857ZM597.7 154.912L606.692 153.573L606.692 155.642L605.692 155.642L605.692 154.153L606.192 154.153L606.266 154.648L597.847 155.901L597.7 154.912ZM609.915 149.628L614.846 140.928L615.716 141.421L610.785 150.121L609.915 149.628ZM619.777 132.228L621.794 128.671L622.229 128.918L621.729 128.918L621.729 126.629L624.433 123.668L625.172 124.342L622.598 127.16L622.229 126.823L622.729 126.823L622.729 129.05L620.647 132.721L619.777 132.228ZM631.178 116.285L637.896 108.93L638.265 109.267L637.765 109.267L637.765 109.251L638.765 109.251L638.765 109.273L637.765 109.273L637.765 109.251L638.265 109.251L638.765 109.251L638.765 109.461L631.916 116.959L631.178 116.285ZM638.765 119.273L638.765 129.273L637.765 129.273L637.765 119.273L638.765 119.273Z"/>
		<ellipse fill="#FF5454" cx="413.75269" cy="189.26614" rx="2.5" ry="2.5"/>
		<ellipse fill="#FF5454" cx="413.75269" cy="189.45306" rx="2.5" ry="2.5"/>
		<ellipse fill="#FF5454" cx="413.75269" cy="189.99493" rx="2.5" ry="2.5"/>
		<ellipse fill="#FF5454" cx="413.75269" cy="191.078" rx="2.5" ry="2.5"/>
		<ellipse fill="#FF5454" cx="413.75269" cy="189.21075" rx="2.5" ry="2.5"/>
		<ellipse fill="#FF5454" cx="509.97229" cy="179.30161" rx="2.5" ry="2.5"/>
		<ellipse fill="#FF5454" cx="509.97229" cy="179.30161" rx="2.5" ry="2.5"/>
		<ellipse fill="#FF5454" cx="509.97229" cy="174.57492" rx="2.5" ry="2.5"/>
		<ellipse fill="#FF5454" cx="509.97229" cy="168.478" rx="2.5" ry="2.5"/>
		<ellipse fill="#FF5454" cx="606.19189" cy="154.15302" rx="2.5" ry="2.5"/>
		<ellipse fill="#FF5454" cx="606.19189" cy="157.20966" rx="2.5" ry="2.5"/>
		<ellipse fill="#FF5454" cx="622.22852" cy="128.91795" rx="2.5" ry="2.5"/>
		<ellipse fill="#FF5454" cx="622.22852" cy="126.82307" rx="2.5" ry="2.5"/>
		<ellipse fill="#FF5454" cx="638.26508" cy="109.26735" rx="2.5" ry="2.5"/>
		<ellipse fill="#FF5454" cx="638.26508" cy="109.25072" rx="2.5" ry="2.5"/>
		<ellipse fill="#FF5454" cx="638.26508" cy="133.40565" rx="2.5" ry="2.5"/>
	</g>
	<clipPath id="cl_c4">
		<rect x="26.46875" y="15" width="758.53125" height="255.03906"/>
	</clipPath>
	<g clip-path="url(#cl_c4)">
		<path fill="#AAA" d="M429.477 189.157L437.293 182.918L437.917 183.7L430.101 189.938L429.477 189.157ZM445.108 176.68L452.924 170.441L453.547 171.223L445.732 177.461L445.108 176.68ZM460.51 168.997L465.113 177.875L464.226 178.335L459.622 169.458L460.51 168.997ZM474.13 177.642L484.097 176.835L484.178 177.832L474.211 178.639L474.13 177.642ZM491.886 182.043L497.888 190.042L497.088 190.642L491.086 182.643L491.886 182.043ZM504.134 194.862L509.783 192.554L509.972 193.017L509.472 193.017L509.472 189.12L510.472 189.12L510.472 193.353L504.512 195.788L504.134 194.862ZM509.472 179.12L509.472 169.419L509.525 169.052L510.515 169.194L510.467 169.525L509.972 169.454L510.472 169.454L510.472 179.12L509.472 179.12ZM510.94 159.153L512.356 149.254L513.346 149.395L511.93 159.295L510.94 159.153ZM515.242 154.441L517.289 164.229L516.311 164.434L514.263 154.646L515.242 154.441ZM519.337 174.017L521.385 183.805L520.406 184.01L518.358 174.222L519.337 174.017Z"/>
		<ellipse fill="#AAA" cx="429.78928" cy="189.5477" rx="2.5" ry="2.5"/>
		<ellipse fill="#AAA" cx="458.65515" cy="166.50598" rx="2.5" ry="2.5"/>
		<ellipse fill="#AAA" cx="465.06979" cy="178.87695" rx="2.5" ry="2.5"/>
		<ellipse fill="#AAA" cx="487.52106" cy="177.05978" rx="2.5" ry="2.5"/>
		<ellipse fill="#AAA" cx="501.95398" cy="196.29326" rx="2.5" ry="2.5"/>
		<ellipse fill="#AAA" cx="509.97229" cy="193.01712" rx="2.5" ry="2.5"/>
		<ellipse fill="#AAA" cx="509.97229" cy="169.45419" rx="2.5" ry="2.5"/>
		<ellipse fill="#AAA" cx="513.17957" cy="147.0271" rx="2.5" ry="2.5"/>
		<ellipse fill="#AAA" cx="522.80157" cy="193.01712" rx="2.5" ry="2.5"/>
	</g>
	<clipPath id="cl_c5">
		<rect x="26.46875" y="15" width="758.53125" height="255.03906"/>
	</clipPath>
	<g clip-path="url(#cl_c5)">
		<path fill="#303030" d=""/>
		<ellipse fill="#303030" cx="734.48468" cy="147.91345" rx="2.5" ry="2.5"/>
	</g>
	<clipPath id="cl_c6">
		<rect x="26.46875" y="15" width="758.53125" height="255.03906"/>
	</clipPath>
	<g clip-path="url(#cl_c6)">
		<path fill="#FF9300" d=""/>
		<ellipse fill="#FF9300" cx="702.4115" cy="45.603516" rx="2.5" ry="2.5"/>
	</g>
	<clipPath id="cl_c7">
		<rect x="26.46875" y="15" width="758.53125" height="255.03906"/>
	</clipPath>
	<g clip-path="url(#cl_c7)">
		<path fill="#FF5454" d=""/>
		<ellipse fill="#FF5454" cx="413.75269" cy="189.21075" rx="2.5" ry="2.5"/>
	</g>
	<clipPath id="cl_c8">
		<rect x="26.46875" y="15" width="758.53125" height="255.03906"/>
	</clipPath>
	<g clip-path="url(#cl_c8)">
		<path fill="#FFBFBF" d="M445.826 188.826L455.826 188.826L455.826 189.826L445.826 189.826L445.826 188.826ZM465.826 188.826L475.826 188.826L475.826 189.826L465.826 189.826L465.826 188.826ZM485.826 188.826L493.936 188.826L493.936 189.326L493.762 188.858L495.535 188.201L495.882 189.139L494.025 189.826L485.826 189.826L485.826 188.826ZM504.912 184.728L514.289 181.254L514.637 182.192L505.259 185.665L504.912 184.728ZM523.667 177.781L533.044 174.308L533.392 175.246L524.014 178.719L523.667 177.781ZM542.422 170.835L551.799 167.361L552.146 168.299L542.769 171.772L542.422 170.835ZM561.177 163.888L570.554 160.415L570.901 161.352L561.524 164.826L561.177 163.888ZM573.619 153.244L573.619 143.244L574.619 143.244L574.619 153.244L573.619 153.244Z"/>
		<ellipse fill="#FFBFBF" cx="445.82587" cy="189.3264" rx="2.5" ry="2.5"/>
		<ellipse fill="#FFBFBF" cx="493.93567" cy="189.3264" rx="2.5" ry="2.5"/>
		<ellipse fill="#FFBFBF" cx="493.93567" cy="189.3264" rx="2.5" ry="2.5"/>
		<ellipse fill="#FFBFBF" cx="493.93567" cy="189.3264" rx="2.5" ry="2.5"/>
		<ellipse fill="#FFBFBF" cx="574.11871" cy="159.62762" rx="2.5" ry="2.5"/>
		<ellipse fill="#FFBFBF" cx="574.11871" cy="140.92789" rx="2.5" ry="2.5"/>
		<ellipse fill="#FFBFBF" cx="574.11871" cy="140.92789" rx="2.5" ry="2.5"/>
		<ellipse fill="#FFBFBF" cx="574.11871" cy="140.92789" rx="2.5" ry="2.5"/>
		<ellipse fill="#FFBFBF" cx="574.11871" cy="140.92789" rx="2.5" ry="2.5"/>
	</g>
	<clipPath id="cl_c9">
		<rect x="26.46875" y="15" width="758.53125" height="255.03906"/>
	</clipPath>
	<g clip-path="url(#cl_c9)">
		<path fill="#AFA" d=""/>
		<ellipse fill="#AFA" cx="461.86249" cy="201.20786" rx="2.5" ry="2.5"/>
	</g>
	<clipPath id="cl_ca">
		<rect x="26.46875" y="15" width="758.53125" height="255.03906"/>
	</clipPath>
	<g clip-path="url(#cl_ca)">
		<path fill="#C00000" d="M637.989 105.476L646.329 99.9589L646.881 100.793L638.541 106.31M654.67 94.4416L663.01 88.9243L663.562 89.7584L655.221 95.2756M671.35 83.4071L679.69 77.8898L680.242 78.7238L671.902 84.2411M688.031 72.3725L696.371 66.8552L696.923 67.6893L688.582 73.2066M704.711 61.338L713.051 55.8207L713.603 56.6547L705.263 62.172M721.392 50.3034L729.732 44.7862L730.284 45.6202L721.943 51.1375M738.072 39.2689L746.412 33.7516L746.964 34.5856L738.624 40.1029"/>
		<ellipse fill="#C00000" cx="638.26508" cy="105.89317" rx="2.5" ry="2.5"/>
		<ellipse fill="#C00000" cx="750.5213" cy="31.63298" rx="2.5" ry="2.5"/>
	</g>
	<clipPath id="cl_cb">
		<rect x="26.46875" y="15" width="758.53125" height="255.03906"/>
	</clipPath>
	<g clip-path="url(#cl_cb)">
		<path fill="#6060FF" d="M669.838 128.411L669.838 127.332L670.838 127.332L670.838 128.411L669.838 128.411Z"/>
		<ellipse fill="#6060FF" cx="670.33832" cy="128.4115" rx="2.5" ry="2.5"/>
		<ellipse fill="#6060FF" cx="670.33832" cy="127.33244" rx="2.5" ry="2.5"/>
		<ellipse fill="#6060FF" cx="670.33832" cy="127.33244" rx="2.5" ry="2.5"/>
		<ellipse fill="#6060FF" cx="670.33832" cy="127.33244" rx="2.5" ry="2.5"/>
	</g>
	<path fill="none" stroke="black" stroke-width="1" stroke-miterlimit="4" d="M28.8742 270.039L28.8742 274.039"/>
	<text transform="translate(28.8742 276.039)" font-size="12" font-family="Segoe UI" x="-6.46875, 0, " y="11.027344, ">
			13
	</text>
	<path fill="none" stroke="black" stroke-width="1" stroke-miterlimit="4" d="M60.9474 270.039L60.9474 274.039"/>
	<text transform="translate(60.9474 276.039)" font-size="12" font-family="Segoe UI" x="-6.46875, 0, " y="11.027344, ">
			14
	</text>
	<path fill="none" stroke="black" stroke-width="1" stroke-miterlimit="4" d="M93.0206 270.039L93.0206 274.039"/>
	<text transform="translate(93.0206 276.039)" font-size="12" font-family="Segoe UI" x="-6.46875, 0, " y="11.027344, ">
			15
	</text>
	<path fill="none" stroke="black" stroke-width="1" stroke-miterlimit="4" d="M125.094 270.039L125.094 274.039"/>
	<text transform="translate(125.094 276.039)" font-size="12" font-family="Segoe UI" x="-6.46875, 0, " y="11.027344, ">
			16
	</text>
	<path fill="none" stroke="black" stroke-width="1" stroke-miterlimit="4" d="M157.167 270.039L157.167 274.039"/>
	<text transform="translate(157.167 276.039)" font-size="12" font-family="Segoe UI" x="-6.46875, 0, " y="11.027344, ">
			17
	</text>
	<path fill="none" stroke="black" stroke-width="1" stroke-miterlimit="4" d="M189.24 270.039L189.24 274.039"/>
	<text transform="translate(189.24 276.039)" font-size="12" font-family="Segoe UI" x="-6.46875, 0, " y="11.027344, ">
			18
	</text>
	<path fill="none" stroke="black" stroke-width="1" stroke-miterlimit="4" d="M221.313 270.039L221.313 274.039"/>
	<text transform="translate(221.313 276.039)" font-size="12" font-family="Segoe UI" x="-6.46875, 0, " y="11.027344, ">
			19
	</text>
	<path fill="none" stroke="black" stroke-width="1" stroke-miterlimit="4" d="M253.387 270.039L253.387 274.039"/>
	<text transform="translate(253.387 276.039)" font-size="12" font-family="Segoe UI" x="-6.46875, 0, " y="11.027344, ">
			20
	</text>
	<path fill="none" stroke="black" stroke-width="1" stroke-miterlimit="4" d="M285.46 270.039L285.46 274.039"/>
	<text transform="translate(285.46 276.039)" font-size="12" font-family="Segoe UI" x="-6.46875, 0, " y="11.027344, ">
			21
	</text>
	<path fill="none" stroke="black" stroke-width="1" stroke-miterlimit="4" d="M317.533 270.039L317.533 274.039"/>
	<text transform="translate(317.533 276.039)" font-size="12" font-family="Segoe UI" x="-6.46875, 0, " y="11.027344, ">
			22
	</text>
	<path fill="none" stroke="black" stroke-width="1" stroke-miterlimit="4" d="M349.606 270.039L349.606 274.039"/>
	<text transform="translate(349.606 276.039)" font-size="12" font-family="Segoe UI" x="-6.46875, 0, " y="11.027344, ">
			23
	</text>
	<path fill="none" stroke="black" stroke-width="1" stroke-miterlimit="4" d="M381.679 270.039L381.679 274.039"/>
	<text transform="translate(381.679 276.039)" font-size="12" font-family="Segoe UI" x="-6.46875, 0, " y="11.027344, ">
			24
	</text>
	<path fill="none" stroke="black" stroke-width="1" stroke-miterlimit="4" d="M413.753 270.039L413.753 274.039"/>
	<text transform="translate(413.753 276.039)" font-size="12" font-family="Segoe UI" x="-6.46875, 0, " y="11.027344, ">
			25
	</text>
	<path fill="none" stroke="black" stroke-width="1" stroke-miterlimit="4" d="M445.826 270.039L445.826 274.039"/>
	<text transform="translate(445.826 276.039)" font-size="12" font-family="Segoe UI" x="-6.46875, 0, " y="11.027344, ">
			26
	</text>
	<path fill="none" stroke="black" stroke-width="1" stroke-miterlimit="4" d="M477.899 270.039L477.899 274.039"/>
	<text transform="translate(477.899 276.039)" font-size="12" font-family="Segoe UI" x="-6.46875, 0, " y="11.027344, ">
			27
	</text>
	<path fill="none" stroke="black" stroke-width="1" stroke-miterlimit="4" d="M509.972 270.039L509.972 274.039"/>
	<text transform="translate(509.972 276.039)" font-size="12" font-family="Segoe UI" x="-6.46875, 0, " y="11.027344, ">
			28
	</text>
	<path fill="none" stroke="black" stroke-width="1" stroke-miterlimit="4" d="M542.045 270.039L542.045 274.039"/>
	<text transform="translate(542.045 276.039)" font-size="12" font-family="Segoe UI" x="-6.46875, 0, " y="11.027344, ">
			29
	</text>
	<path fill="none" stroke="black" stroke-width="1" stroke-miterlimit="4" d="M574.119 270.039L574.119 274.039"/>
	<text transform="translate(574.119 276.039)" font-size="12" font-family="Segoe UI" x="-6.46875, 0, " y="11.027344, ">
			30
	</text>
	<path fill="none" stroke="black" stroke-width="1" stroke-miterlimit="4" d="M606.192 270.039L606.192 274.039"/>
	<text transform="translate(606.192 276.039)" font-size="12" font-family="Segoe UI" x="-6.46875, 0, " y="11.027344, ">
			31
	</text>
	<path fill="none" stroke="black" stroke-width="1" stroke-miterlimit="4" d="M638.265 270.039L638.265 274.039"/>
	<text transform="translate(638.265 276.039)" font-size="12" font-family="Segoe UI" x="-6.46875, 0, " y="11.027344, ">
			32
	</text>
	<path fill="none" stroke="black" stroke-width="1" stroke-miterlimit="4" d="M670.338 270.039L670.338 274.039"/>
	<text transform="translate(670.338 276.039)" font-size="12" font-family="Segoe UI" x="-6.46875, 0, " y="11.027344, ">
			33
	</text>
	<path fill="none" stroke="black" stroke-width="1" stroke-miterlimit="4" d="M702.411 270.039L702.411 274.039"/>
	<text transform="translate(702.411 276.039)" font-size="12" font-family="Segoe UI" x="-6.46875, 0, " y="11.027344, ">
			34
	</text>
	<path fill="none" stroke="black" stroke-width="1" stroke-miterlimit="4" d="M734.485 270.039L734.485 274.039"/>
	<text transform="translate(734.485 276.039)" font-size="12" font-family="Segoe UI" x="-6.46875, 0, " y="11.027344, ">
			35
	</text>
	<path fill="none" stroke="black" stroke-width="1" stroke-miterlimit="4" d="M766.558 270.039L766.558 274.039"/>
	<text transform="translate(766.558 276.039)" font-size="12" font-family="Segoe UI" x="-6.46875, 0, " y="11.027344, ">
			36
	</text>
	<path fill="none" stroke="black" stroke-width="1" stroke-miterlimit="4" d="M35.2889 270.039L35.2889 272.039"/>
	<path fill="none" stroke="black" stroke-width="1" stroke-miterlimit="4" d="M41.7035 270.039L41.7035 272.039"/>
	<path fill="none" stroke="black" stroke-width="1" stroke-miterlimit="4" d="M48.1182 270.039L48.1182 272.039"/>
	<path fill="none" stroke="black" stroke-width="1" stroke-miterlimit="4" d="M54.5328 270.039L54.5328 272.039"/>
	<path fill="none" stroke="black" stroke-width="1" stroke-miterlimit="4" d="M67.3621 270.039L67.3621 272.039"/>
	<path fill="none" stroke="black" stroke-width="1" stroke-miterlimit="4" d="M73.7767 270.039L73.7767 272.039"/>
	<path fill="none" stroke="black" stroke-width="1" stroke-miterlimit="4" d="M80.1914 270.039L80.1914 272.039"/>
	<path fill="none" stroke="black" stroke-width="1" stroke-miterlimit="4" d="M86.606 270.039L86.606 272.039"/>
	<path fill="none" stroke="black" stroke-width="1" stroke-miterlimit="4" d="M99.4353 270.039L99.4353 272.039"/>
	<path fill="none" stroke="black" stroke-width="1" stroke-miterlimit="4" d="M105.85 270.039L105.85 272.039"/>
	<path fill="none" stroke="black" stroke-width="1" stroke-miterlimit="4" d="M112.265 270.039L112.265 272.039"/>
	<path fill="none" stroke="black" stroke-width="1" stroke-miterlimit="4" d="M118.679 270.039L118.679 272.039"/>
	<path fill="none" stroke="black" stroke-width="1" stroke-miterlimit="4" d="M131.508 270.039L131.508 272.039"/>
	<path fill="none" stroke="black" stroke-width="1" stroke-miterlimit="4" d="M137.923 270.039L137.923 272.039"/>
	<path fill="none" stroke="black" stroke-width="1" stroke-miterlimit="4" d="M144.338 270.039L144.338 272.039"/>
	<path fill="none" stroke="black" stroke-width="1" stroke-miterlimit="4" d="M150.752 270.039L150.752 272.039"/>
	<path fill="none" stroke="black" stroke-width="1" stroke-miterlimit="4" d="M163.582 270.039L163.582 272.039"/>
	<path fill="none" stroke="black" stroke-width="1" stroke-miterlimit="4" d="M169.996 270.039L169.996 272.039"/>
	<path fill="none" stroke="black" stroke-width="1" stroke-miterlimit="4" d="M176.411 270.039L176.411 272.039"/>
	<path fill="none" stroke="black" stroke-width="1" stroke-miterlimit="4" d="M182.826 270.039L182.826 272.039"/>
	<path fill="none" stroke="black" stroke-width="1" stroke-miterlimit="4" d="M195.655 270.039L195.655 272.039"/>
	<path fill="none" stroke="black" stroke-width="1" stroke-miterlimit="4" d="M202.07 270.039L202.07 272.039"/>
	<path fill="none" stroke="black" stroke-width="1" stroke-miterlimit="4" d="M208.484 270.039L208.484 272.039"/>
	<path fill="none" stroke="black" stroke-width="1" stroke-miterlimit="4" d="M214.899 270.039L214.899 272.039"/>
	<path fill="none" stroke="black" stroke-width="1" stroke-miterlimit="4" d="M227.728 270.039L227.728 272.039"/>
	<path fill="none" stroke="black" stroke-width="1" stroke-miterlimit="4" d="M234.143 270.039L234.143 272.039"/>
	<path fill="none" stroke="black" stroke-width="1" stroke-miterlimit="4" d="M240.557 270.039L240.557 272.039"/>
	<path fill="none" stroke="black" stroke-width="1" stroke-miterlimit="4" d="M246.972 270.039L246.972 272.039"/>
	<path fill="none" stroke="black" stroke-width="1" stroke-miterlimit="4" d="M259.801 270.039L259.801 272.039"/>
	<path fill="none" stroke="black" stroke-width="1" stroke-miterlimit="4" d="M266.216 270.039L266.216 272.039"/>
	<path fill="none" stroke="black" stroke-width="1" stroke-miterlimit="4" d="M272.631 270.039L272.631 272.039"/>
	<path fill="none" stroke="black" stroke-width="1" stroke-miterlimit="4" d="M279.045 270.039L279.045 272.039"/>
	<path fill="none" stroke="black" stroke-width="1" stroke-miterlimit="4" d="M291.875 270.039L291.875 272.039"/>
	<path fill="none" stroke="black" stroke-width="1" stroke-miterlimit="4" d="M298.289 270.039L298.289 272.039"/>
	<path fill="none" stroke="black" stroke-width="1" stroke-miterlimit="4" d="M304.704 270.039L304.704 272.039"/>
	<path fill="none" stroke="black" stroke-width="1" stroke-miterlimit="4" d="M311.118 270.039L311.118 272.039"/>
	<path fill="none" stroke="black" stroke-width="1" stroke-miterlimit="4" d="M323.948 270.039L323.948 272.039"/>
	<path fill="none" stroke="black" stroke-width="1" stroke-miterlimit="4" d="M330.362 270.039L330.362 272.039"/>
	<path fill="none" stroke="black" stroke-width="1" stroke-miterlimit="4" d="M336.777 270.039L336.777 272.039"/>
	<path fill="none" stroke="black" stroke-width="1" stroke-miterlimit="4" d="M343.192 270.039L343.192 272.039"/>
	<path fill="none" stroke="black" stroke-width="1" stroke-miterlimit="4" d="M356.021 270.039L356.021 272.039"/>
	<path fill="none" stroke="black" stroke-width="1" stroke-miterlimit="4" d="M362.436 270.039L362.436 272.039"/>
	<path fill="none" stroke="black" stroke-width="1" stroke-miterlimit="4" d="M368.85 270.039L368.85 272.039"/>
	<path fill="none" stroke="black" stroke-width="1" stroke-miterlimit="4" d="M375.265 270.039L375.265 272.039"/>
	<path fill="none" stroke="black" stroke-width="1" stroke-miterlimit="4" d="M388.094 270.039L388.094 272.039"/>
	<path fill="none" stroke="black" stroke-width="1" stroke-miterlimit="4" d="M394.509 270.039L394.509 272.039"/>
	<path fill="none" stroke="black" stroke-width="1" stroke-miterlimit="4" d="M400.923 270.039L400.923 272.039"/>
	<path fill="none" stroke="black" stroke-width="1" stroke-miterlimit="4" d="M407.338 270.039L407.338 272.039"/>
	<path fill="none" stroke="black" stroke-width="1" stroke-miterlimit="4" d="M420.167 270.039L420.167 272.039"/>
	<path fill="none" stroke="black" stroke-width="1" stroke-miterlimit="4" d="M426.582 270.039L426.582 272.039"/>
	<path fill="none" stroke="black" stroke-width="1" stroke-miterlimit="4" d="M432.997 270.039L432.997 272.039"/>
	<path fill="none" stroke="black" stroke-width="1" stroke-miterlimit="4" d="M439.411 270.039L439.411 272.039"/>
	<path fill="none" stroke="black" stroke-width="1" stroke-miterlimit="4" d="M452.241 270.039L452.241 272.039"/>
	<path fill="none" stroke="black" stroke-width="1" stroke-miterlimit="4" d="M458.655 270.039L458.655 272.039"/>
	<path fill="none" stroke="black" stroke-width="1" stroke-miterlimit="4" d="M465.07 270.039L465.07 272.039"/>
	<path fill="none" stroke="black" stroke-width="1" stroke-miterlimit="4" d="M471.484 270.039L471.484 272.039"/>
	<path fill="none" stroke="black" stroke-width="1" stroke-miterlimit="4" d="M484.314 270.039L484.314 272.039"/>
	<path fill="none" stroke="black" stroke-width="1" stroke-miterlimit="4" d="M490.728 270.039L490.728 272.039"/>
	<path fill="none" stroke="black" stroke-width="1" stroke-miterlimit="4" d="M497.143 270.039L497.143 272.039"/>
	<path fill="none" stroke="black" stroke-width="1" stroke-miterlimit="4" d="M503.558 270.039L503.558 272.039"/>
	<path fill="none" stroke="black" stroke-width="1" stroke-miterlimit="4" d="M516.387 270.039L516.387 272.039"/>
	<path fill="none" stroke="black" stroke-width="1" stroke-miterlimit="4" d="M522.802 270.039L522.802 272.039"/>
	<path fill="none" stroke="black" stroke-width="1" stroke-miterlimit="4" d="M529.216 270.039L529.216 272.039"/>
	<path fill="none" stroke="black" stroke-width="1" stroke-miterlimit="4" d="M535.631 270.039L535.631 272.039"/>
	<path fill="none" stroke="black" stroke-width="1" stroke-miterlimit="4" d="M548.46 270.039L548.46 272.039"/>
	<path fill="none" stroke="black" stroke-width="1" stroke-miterlimit="4" d="M554.875 270.039L554.875 272.039"/>
	<path fill="none" stroke="black" stroke-width="1" stroke-miterlimit="4" d="M561.289 270.039L561.289 272.039"/>
	<path fill="none" stroke="black" stroke-width="1" stroke-miterlimit="4" d="M567.704 270.039L567.704 272.039"/>
	<path fill="none" stroke="black" stroke-width="1" stroke-miterlimit="4" d="M580.533 270.039L580.533 272.039"/>
	<path fill="none" stroke="black" stroke-width="1" stroke-miterlimit="4" d="M586.948 270.039L586.948 272.039"/>
	<path fill="none" stroke="black" stroke-width="1" stroke-miterlimit="4" d="M593.363 270.039L593.363 272.039"/>
	<path fill="none" stroke="black" stroke-width="1" stroke-miterlimit="4" d="M599.777 270.039L599.777 272.039"/>
	<path fill="none" stroke="black" stroke-width="1" stroke-miterlimit="4" d="M612.607 270.039L612.607 272.039"/>
	<path fill="none" stroke="black" stroke-width="1" stroke-miterlimit="4" d="M619.021 270.039L619.021 272.039"/>
	<path fill="none" stroke="black" stroke-width="1" stroke-miterlimit="4" d="M625.436 270.039L625.436 272.039"/>
	<path fill="none" stroke="black" stroke-width="1" stroke-miterlimit="4" d="M631.85 270.039L631.85 272.039"/>
	<path fill="none" stroke="black" stroke-width="1" stroke-miterlimit="4" d="M644.68 270.039L644.68 272.039"/>
	<path fill="none" stroke="black" stroke-width="1" stroke-miterlimit="4" d="M651.094 270.039L651.094 272.039"/>
	<path fill="none" stroke="black" stroke-width="1" stroke-miterlimit="4" d="M657.509 270.039L657.509 272.039"/>
	<path fill="none" stroke="black" stroke-width="1" stroke-miterlimit="4" d="M663.924 270.039L663.924 272.039"/>
	<path fill="none" stroke="black" stroke-width="1" stroke-miterlimit="4" d="M676.753 270.039L676.753 272.039"/>
	<path fill="none" stroke="black" stroke-width="1" stroke-miterlimit="4" d="M683.168 270.039L683.168 272.039"/>
	<path fill="none" stroke="black" stroke-width="1" stroke-miterlimit="4" d="M689.582 270.039L689.582 272.039"/>
	<path fill="none" stroke="black" stroke-width="1" stroke-miterlimit="4" d="M695.997 270.039L695.997 272.039"/>
	<path fill="none" stroke="black" stroke-width="1" stroke-miterlimit="4" d="M708.826 270.039L708.826 272.039"/>
	<path fill="none" stroke="black" stroke-width="1" stroke-miterlimit="4" d="M715.241 270.039L715.241 272.039"/>
	<path fill="none" stroke="black" stroke-width="1" stroke-miterlimit="4" d="M721.655 270.039L721.655 272.039"/>
	<path fill="none" stroke="black" stroke-width="1" stroke-miterlimit="4" d="M728.07 270.039L728.07 272.039"/>
	<path fill="none" stroke="black" stroke-width="1" stroke-miterlimit="4" d="M740.899 270.039L740.899 272.039"/>
	<path fill="none" stroke="black" stroke-width="1" stroke-miterlimit="4" d="M747.314 270.039L747.314 272.039"/>
	<path fill="none" stroke="black" stroke-width="1" stroke-miterlimit="4" d="M753.729 270.039L753.729 272.039"/>
	<path fill="none" stroke="black" stroke-width="1" stroke-miterlimit="4" d="M760.143 270.039L760.143 272.039"/>
	<path fill="none" stroke="black" stroke-width="1" stroke-miterlimit="4" d="M772.973 270.039L772.973 272.039"/>
	<path fill="none" stroke="black" stroke-width="1" stroke-miterlimit="4" d="M779.387 270.039L779.387 272.039"/>
	<path fill="none" stroke="black" stroke-width="1" stroke-miterlimit="4" d="M26.4688 270.039L785 270.039"/>
	<path fill="none" stroke="black" stroke-width="1" stroke-miterlimit="4" d="M26.4688 15.1L785 15.1"/>
	<path fill="none" stroke="black" stroke-width="1" stroke-miterlimit="4" d="M26.4688 236.265L22.4688 236.265"/>
	<text transform="translate(17.4688 236.265)" font-size="12" font-family="Segoe UI" x="-6.46875, " y="3.046875, ">
			1
	</text>
	<path fill="none" stroke="black" stroke-width="1" stroke-miterlimit="4" d="M26.4688 201.161L22.4688 201.161"/>
	<text transform="translate(17.4688 201.161)" font-size="12" font-family="Segoe UI" x="-6.46875, " y="3.046875, ">
			2
	</text>
	<path fill="none" stroke="black" stroke-width="1" stroke-miterlimit="4" d="M26.4688 166.057L22.4688 166.057"/>
	<text transform="translate(17.4688 166.057)" font-size="12" font-family="Segoe UI" x="-6.46875, " y="3.046875, ">
			3
	</text>
	<path fill="none" stroke="black" stroke-width="1" stroke-miterlimit="4" d="M26.4688 130.953L22.4688 130.953"/>
	<text transform="translate(17.4688 130.953)" font-size="12" font-family="Segoe UI" x="-6.46875, " y="3.046875, ">
			4
	</text>
	<path fill="none" stroke="black" stroke-width="1" stroke-miterlimit="4" d="M26.4688 95.8489L22.4688 95.8489"/>
	<text transform="translate(17.4688 95.8489)" font-size="12" font-family="Segoe UI" x="-6.46875, " y="3.046875, ">
			5
	</text>
	<path fill="none" stroke="black" stroke-width="1" stroke-miterlimit="4" d="M26.4688 60.7449L22.4688 60.7449"/>
	<text transform="translate(17.4688 60.7449)" font-size="12" font-family="Segoe UI" x="-6.46875, " y="3.046875, ">
			6
	</text>
	<path fill="none" stroke="black" stroke-width="1" stroke-miterlimit="4" d="M26.4688 25.6408L22.4688 25.6408"/>
	<text transform="translate(17.4688 25.6408)" font-size="12" font-family="Segoe UI" x="-6.46875, " y="3.046875, ">
			7
	</text>
	<path fill="none" stroke="black" stroke-width="1" stroke-miterlimit="4" d="M26.4688 264.348L24.4688 264.348"/>
	<path fill="none" stroke="black" stroke-width="1" stroke-miterlimit="4" d="M26.4688 257.328L24.4688 257.328"/>
	<path fill="none" stroke="black" stroke-width="1" stroke-miterlimit="4" d="M26.4688 250.307L24.4688 250.307"/>
	<path fill="none" stroke="black" stroke-width="1" stroke-miterlimit="4" d="M26.4688 243.286L24.4688 243.286"/>
	<path fill="none" stroke="black" stroke-width="1" stroke-miterlimit="4" d="M26.4688 229.244L24.4688 229.244"/>
	<path fill="none" stroke="black" stroke-width="1" stroke-miterlimit="4" d="M26.4688 222.223L24.4688 222.223"/>
	<path fill="none" stroke="black" stroke-width="1" stroke-miterlimit="4" d="M26.4688 215.203L24.4688 215.203"/>
	<path fill="none" stroke="black" stroke-width="1" stroke-miterlimit="4" d="M26.4688 208.182L24.4688 208.182"/>
	<path fill="none" stroke="black" stroke-width="1" stroke-miterlimit="4" d="M26.4688 194.14L24.4688 194.14"/>
	<path fill="none" stroke="black" stroke-width="1" stroke-miterlimit="4" d="M26.4688 187.119L24.4688 187.119"/>
	<path fill="none" stroke="black" stroke-width="1" stroke-miterlimit="4" d="M26.4688 180.099L24.4688 180.099"/>
	<path fill="none" stroke="black" stroke-width="1" stroke-miterlimit="4" d="M26.4688 173.078L24.4688 173.078"/>
	<path fill="none" stroke="black" stroke-width="1" stroke-miterlimit="4" d="M26.4688 159.036L24.4688 159.036"/>
	<path fill="none" stroke="black" stroke-width="1" stroke-miterlimit="4" d="M26.4688 152.015L24.4688 152.015"/>
	<path fill="none" stroke="black" stroke-width="1" stroke-miterlimit="4" d="M26.4688 144.995L24.4688 144.995"/>
	<path fill="none" stroke="black" stroke-width="1" stroke-miterlimit="4" d="M26.4688 137.974L24.4688 137.974"/>
	<path fill="none" stroke="black" stroke-width="1" stroke-miterlimit="4" d="M26.4688 123.932L24.4688 123.932"/>
	<path fill="none" stroke="black" stroke-width="1" stroke-miterlimit="4" d="M26.4688 116.911L24.4688 116.911"/>
	<path fill="none" stroke="black" stroke-width="1" stroke-miterlimit="4" d="M26.4688 109.891L24.4688 109.891"/>
	<path fill="none" stroke="black" stroke-width="1" stroke-miterlimit="4" d="M26.4688 102.87L24.4688 102.87"/>
	<path fill="none" stroke="black" stroke-width="1" stroke-miterlimit="4" d="M26.4688 88.8281L24.4688 88.8281"/>
	<path fill="none" stroke="black" stroke-width="1" stroke-miterlimit="4" d="M26.4688 81.8073L24.4688 81.8073"/>
	<path fill="none" stroke="black" stroke-width="1" stroke-miterlimit="4" d="M26.4688 74.7865L24.4688 74.7865"/>
	<path fill="none" stroke="black" stroke-width="1" stroke-miterlimit="4" d="M26.4688 67.7657L24.4688 67.7657"/>
	<path fill="none" stroke="black" stroke-width="1" stroke-miterlimit="4" d="M26.4688 53.7241L24.4688 53.7241"/>
	<path fill="none" stroke="black" stroke-width="1" stroke-miterlimit="4" d="M26.4688 46.7032L24.4688 46.7032"/>
	<path fill="none" stroke="black" stroke-width="1" stroke-miterlimit="4" d="M26.4688 39.6824L24.4688 39.6824"/>
	<path fill="none" stroke="black" stroke-width="1" stroke-miterlimit="4" d="M26.4688 32.6616L24.4688 32.6616"/>
	<path fill="none" stroke="black" stroke-width="1" stroke-miterlimit="4" d="M26.4688 18.62L24.4688 18.62"/>
	<path fill="none" stroke="black" stroke-width="1" stroke-miterlimit="4" d="M26.4688 270.039L26.4688 15"/>
	<path fill="none" stroke="black" stroke-width="1" stroke-miterlimit="4" d="M785 270.039L785 15"/>
</svg>
