<?xml version="1.0" encoding="utf-8" ?>
<svg xmlns="http://www.w3.org/2000/svg" xmlns:xlink="http://www.w3.org/1999/xlink" width="800" height="300">
	<rect fill="white" width="800" height="300"/>
	<path fill="none" stroke="#010101" stroke-width="1" stroke-miterlimit="4" stroke-opacity="0.098039217" d="M75.7802 270.039L75.7802 15M143.325 270.039L143.325 15M210.87 270.039L210.87 15M278.414 270.039L278.414 15M345.959 270.039L345.959 15M413.504 270.039L413.504 15M481.049 270.039L481.049 15M548.593 270.039L548.593 15M616.138 270.039L616.138 15M683.683 270.039L683.683 15M751.228 270.039L751.228 15"/>
	<path fill="none" stroke="#010101" stroke-width="1" stroke-miterlimit="4" stroke-opacity="0.098039217" d="M42.0078 256.784L785 256.784M42.0078 232.162L785 232.162M42.0078 207.54L785 207.54M42.0078 182.917L785 182.917M42.0078 158.295L785 158.295M42.0078 133.673L785 133.673M42.0078 109.051L785 109.051M42.0078 84.4283L785 84.4283M42.0078 59.8061L785 59.8061M42.0078 35.1838L785 35.1838"/>
	<clipPath id="cl_6c">
		<rect x="42.007813" y="15" width="742.99219" height="255.03906"/>
	</clipPath>
	<g clip-path="url(#cl_6c)">
		<path fill="none" stroke="#1F77B4" stroke-width="1" stroke-miterlimit="4" d="M75.7802 78.3609L75.7802 109.674L75.7802 32.0343L751.228 73.289L751.228 73.289L751.228 31.633L751.228 194.683L751.228 161.243L751.228 154.558L751.228 158.295L751.228 223.689L751.228 223.689L751.228 253.406"/>
		<ellipse fill="#1F77B4" cx="75.780182" cy="78.360901" rx="2.5" ry="2.5"/>
		<ellipse fill="#1F77B4" cx="75.780182" cy="109.67415" rx="2.5" ry="2.5"/>
		<ellipse fill="#1F77B4" cx="75.780182" cy="32.034286" rx="2.5" ry="2.5"/>
		<ellipse fill="#1F77B4" cx="751.2276" cy="73.288971" rx="2.5" ry="2.5"/>
		<ellipse fill="#1F77B4" cx="751.2276" cy="73.288971" rx="2.5" ry="2.5"/>
		<ellipse fill="#1F77B4" cx="751.2276" cy="31.63298" rx="2.5" ry="2.5"/>
		<ellipse fill="#1F77B4" cx="751.2276" cy="194.68283" rx="2.5" ry="2.5"/>
		<ellipse fill="#1F77B4" cx="751.2276" cy="161.24345" rx="2.5" ry="2.5"/>
		<ellipse fill="#1F77B4" cx="751.2276" cy="154.55807" rx="2.5" ry="2.5"/>
		<ellipse fill="#1F77B4" cx="751.2276" cy="158.2952" rx="2.5" ry="2.5"/>
		<ellipse fill="#1F77B4" cx="751.2276" cy="223.6886" rx="2.5" ry="2.5"/>
		<ellipse fill="#1F77B4" cx="751.2276" cy="223.6886" rx="2.5" ry="2.5"/>
		<ellipse fill="#1F77B4" cx="751.2276" cy="253.40608" rx="2.5" ry="2.5"/>
	</g>
	<path fill="none" stroke="black" stroke-width="1" stroke-miterlimit="4" d="M75.7802 270.039L75.7802 274.039"/>
	<text transform="translate(75.7802 276.039)" font-size="12" font-family="Segoe UI" x="-6.46875, 0, " y="11.027344, ">
			19
	</text>
	<path fill="none" stroke="black" stroke-width="1" stroke-miterlimit="4" d="M143.325 270.039L143.325 274.039"/>
	<text transform="translate(143.325 276.039)" font-size="12" font-family="Segoe UI" x="-11.003906, -4.5351563, 1.9335938, 4.5351563, " y="11.027344, ">
			19.1
	</text>
	<path fill="none" stroke="black" stroke-width="1" stroke-miterlimit="4" d="M210.87 270.039L210.87 274.039"/>
	<text transform="translate(210.87 276.039)" font-size="12" font-family="Segoe UI" x="-11.003906, -4.5351563, 1.9335938, 4.5351563, " y="11.027344, ">
			19.2
	</text>
	<path fill="none" stroke="black" stroke-width="1" stroke-miterlimit="4" d="M278.414 270.039L278.414 274.039"/>
	<text transform="translate(278.414 276.039)" font-size="12" font-family="Segoe UI" x="-11.003906, -4.5351563, 1.9335938, 4.5351563, " y="11.027344, ">
			19.3
	</text>
	<path fill="none" stroke="black" stroke-width="1" stroke-miterlimit="4" d="M345.959 270.039L345.959 274.039"/>
	<text transform="translate(345.959 276.039)" font-size="12" font-family="Segoe UI" x="-11.003906, -4.5351563, 1.9335938, 4.5351563, " y="11.027344, ">
			19.4
	</text>
	<path fill="none" stroke="black" stroke-width="1" stroke-miterlimit="4" d="M413.504 270.039L413.504 274.039"/>
	<text transform="translate(413.504 276.039)" font-size="12" font-family="Segoe UI" x="-11.003906, -4.5351563, 1.9335938, 4.5351563, " y="11.027344, ">
			19.5
	</text>
	<path fill="none" stroke="black" stroke-width="1" stroke-miterlimit="4" d="M481.049 270.039L481.049 274.039"/>
	<text transform="translate(481.049 276.039)" font-size="12" font-family="Segoe UI" x="-11.003906, -4.5351563, 1.9335938, 4.5351563, " y="11.027344, ">
			19.6
	</text>
	<path fill="none" stroke="black" stroke-width="1" stroke-miterlimit="4" d="M548.593 270.039L548.593 274.039"/>
	<text transform="translate(548.593 276.039)" font-size="12" font-family="Segoe UI" x="-11.003906, -4.5351563, 1.9335938, 4.5351563, " y="11.027344, ">
			19.7
	</text>
	<path fill="none" stroke="black" stroke-width="1" stroke-miterlimit="4" d="M616.138 270.039L616.138 274.039"/>
	<text transform="translate(616.138 276.039)" font-size="12" font-family="Segoe UI" x="-11.003906, -4.5351563, 1.9335938, 4.5351563, " y="11.027344, ">
			19.8
	</text>
	<path fill="none" stroke="black" stroke-width="1" stroke-miterlimit="4" d="M683.683 270.039L683.683 274.039"/>
	<text transform="translate(683.683 276.039)" font-size="12" font-family="Segoe UI" x="-11.003906, -4.5351563, 1.9335938, 4.5351563, " y="11.027344, ">
			19.9
	</text>
	<path fill="none" stroke="black" stroke-width="1" stroke-miterlimit="4" d="M751.228 270.039L751.228 274.039"/>
	<text transform="translate(751.228 276.039)" font-size="12" font-family="Segoe UI" x="-6.46875, 0, " y="11.027344, ">
			20
	</text>
	<path fill="none" stroke="black" stroke-width="1" stroke-miterlimit="4" d="M48.7623 270.039L48.7623 272.039"/>
	<path fill="none" stroke="black" stroke-width="1" stroke-miterlimit="4" d="M62.2712 270.039L62.2712 272.039"/>
	<path fill="none" stroke="black" stroke-width="1" stroke-miterlimit="4" d="M89.2891 270.039L89.2891 272.039"/>
	<path fill="none" stroke="black" stroke-width="1" stroke-miterlimit="4" d="M102.798 270.039L102.798 272.039"/>
	<path fill="none" stroke="black" stroke-width="1" stroke-miterlimit="4" d="M116.307 270.039L116.307 272.039"/>
	<path fill="none" stroke="black" stroke-width="1" stroke-miterlimit="4" d="M129.816 270.039L129.816 272.039"/>
	<path fill="none" stroke="black" stroke-width="1" stroke-miterlimit="4" d="M156.834 270.039L156.834 272.039"/>
	<path fill="none" stroke="black" stroke-width="1" stroke-miterlimit="4" d="M170.343 270.039L170.343 272.039"/>
	<path fill="none" stroke="black" stroke-width="1" stroke-miterlimit="4" d="M183.852 270.039L183.852 272.039"/>
	<path fill="none" stroke="black" stroke-width="1" stroke-miterlimit="4" d="M197.361 270.039L197.361 272.039"/>
	<path fill="none" stroke="black" stroke-width="1" stroke-miterlimit="4" d="M224.379 270.039L224.379 272.039"/>
	<path fill="none" stroke="black" stroke-width="1" stroke-miterlimit="4" d="M237.888 270.039L237.888 272.039"/>
	<path fill="none" stroke="black" stroke-width="1" stroke-miterlimit="4" d="M251.397 270.039L251.397 272.039"/>
	<path fill="none" stroke="black" stroke-width="1" stroke-miterlimit="4" d="M264.905 270.039L264.905 272.039"/>
	<path fill="none" stroke="black" stroke-width="1" stroke-miterlimit="4" d="M291.923 270.039L291.923 272.039"/>
	<path fill="none" stroke="black" stroke-width="1" stroke-miterlimit="4" d="M305.432 270.039L305.432 272.039"/>
	<path fill="none" stroke="black" stroke-width="1" stroke-miterlimit="4" d="M318.941 270.039L318.941 272.039"/>
	<path fill="none" stroke="black" stroke-width="1" stroke-miterlimit="4" d="M332.45 270.039L332.45 272.039"/>
	<path fill="none" stroke="black" stroke-width="1" stroke-miterlimit="4" d="M359.468 270.039L359.468 272.039"/>
	<path fill="none" stroke="black" stroke-width="1" stroke-miterlimit="4" d="M372.977 270.039L372.977 272.039"/>
	<path fill="none" stroke="black" stroke-width="1" stroke-miterlimit="4" d="M386.486 270.039L386.486 272.039"/>
	<path fill="none" stroke="black" stroke-width="1" stroke-miterlimit="4" d="M399.995 270.039L399.995 272.039"/>
	<path fill="none" stroke="black" stroke-width="1" stroke-miterlimit="4" d="M427.013 270.039L427.013 272.039"/>
	<path fill="none" stroke="black" stroke-width="1" stroke-miterlimit="4" d="M440.522 270.039L440.522 272.039"/>
	<path fill="none" stroke="black" stroke-width="1" stroke-miterlimit="4" d="M454.031 270.039L454.031 272.039"/>
	<path fill="none" stroke="black" stroke-width="1" stroke-miterlimit="4" d="M467.54 270.039L467.54 272.039"/>
	<path fill="none" stroke="black" stroke-width="1" stroke-miterlimit="4" d="M494.558 270.039L494.558 272.039"/>
	<path fill="none" stroke="black" stroke-width="1" stroke-miterlimit="4" d="M508.067 270.039L508.067 272.039"/>
	<path fill="none" stroke="black" stroke-width="1" stroke-miterlimit="4" d="M521.576 270.039L521.576 272.039"/>
	<path fill="none" stroke="black" stroke-width="1" stroke-miterlimit="4" d="M535.084 270.039L535.084 272.039"/>
	<path fill="none" stroke="black" stroke-width="1" stroke-miterlimit="4" d="M562.102 270.039L562.102 272.039"/>
	<path fill="none" stroke="black" stroke-width="1" stroke-miterlimit="4" d="M575.611 270.039L575.611 272.039"/>
	<path fill="none" stroke="black" stroke-width="1" stroke-miterlimit="4" d="M589.12 270.039L589.12 272.039"/>
	<path fill="none" stroke="black" stroke-width="1" stroke-miterlimit="4" d="M602.629 270.039L602.629 272.039"/>
	<path fill="none" stroke="black" stroke-width="1" stroke-miterlimit="4" d="M629.647 270.039L629.647 272.039"/>
	<path fill="none" stroke="black" stroke-width="1" stroke-miterlimit="4" d="M643.156 270.039L643.156 272.039"/>
	<path fill="none" stroke="black" stroke-width="1" stroke-miterlimit="4" d="M656.665 270.039L656.665 272.039"/>
	<path fill="none" stroke="black" stroke-width="1" stroke-miterlimit="4" d="M670.174 270.039L670.174 272.039"/>
	<path fill="none" stroke="black" stroke-width="1" stroke-miterlimit="4" d="M697.192 270.039L697.192 272.039"/>
	<path fill="none" stroke="black" stroke-width="1" stroke-miterlimit="4" d="M710.701 270.039L710.701 272.039"/>
	<path fill="none" stroke="black" stroke-width="1" stroke-miterlimit="4" d="M724.21 270.039L724.21 272.039"/>
	<path fill="none" stroke="black" stroke-width="1" stroke-miterlimit="4" d="M737.719 270.039L737.719 272.039"/>
	<path fill="none" stroke="black" stroke-width="1" stroke-miterlimit="4" d="M764.737 270.039L764.737 272.039"/>
	<path fill="none" stroke="black" stroke-width="1" stroke-miterlimit="4" d="M778.246 270.039L778.246 272.039"/>
	<path fill="none" stroke="black" stroke-width="1" stroke-miterlimit="4" d="M42.0078 270.039L785 270.039"/>
	<path fill="none" stroke="black" stroke-width="1" stroke-miterlimit="4" d="M42.0078 15.1L785 15.1"/>
	<path fill="none" stroke="black" stroke-width="1" stroke-miterlimit="4" d="M42.0078 256.784L38.0078 256.784"/>
	<text transform="translate(33.0078 256.784)" font-size="12" font-family="Segoe UI" x="-22.007813, -15.539063, -12.9375, -6.46875, " y="3.046875, ">
			1.15
	</text>
	<path fill="none" stroke="black" stroke-width="1" stroke-miterlimit="4" d="M42.0078 232.162L38.0078 232.162"/>
	<text transform="translate(33.0078 232.162)" font-size="12" font-family="Segoe UI" x="-15.539063, -9.0703125, -6.46875, " y="3.046875, ">
			1.2
	</text>
	<path fill="none" stroke="black" stroke-width="1" stroke-miterlimit="4" d="M42.0078 207.54L38.0078 207.54"/>
	<text transform="translate(33.0078 207.54)" font-size="12" font-family="Segoe UI" x="-22.007813, -15.539063, -12.9375, -6.46875, " y="3.046875, ">
			1.25
	</text>
	<path fill="none" stroke="black" stroke-width="1" stroke-miterlimit="4" d="M42.0078 182.917L38.0078 182.917"/>
	<text transform="translate(33.0078 182.917)" font-size="12" font-family="Segoe UI" x="-15.539063, -9.0703125, -6.46875, " y="3.046875, ">
			1.3
	</text>
	<path fill="none" stroke="black" stroke-width="1" stroke-miterlimit="4" d="M42.0078 158.295L38.0078 158.295"/>
	<text transform="translate(33.0078 158.295)" font-size="12" font-family="Segoe UI" x="-22.007813, -15.539063, -12.9375, -6.46875, " y="3.046875, ">
			1.35
	</text>
	<path fill="none" stroke="black" stroke-width="1" stroke-miterlimit="4" d="M42.0078 133.673L38.0078 133.673"/>
	<text transform="translate(33.0078 133.673)" font-size="12" font-family="Segoe UI" x="-15.539063, -9.0703125, -6.46875, " y="3.046875, ">
			1.4
	</text>
	<path fill="none" stroke="black" stroke-width="1" stroke-miterlimit="4" d="M42.0078 109.051L38.0078 109.051"/>
	<text transform="translate(33.0078 109.051)" font-size="12" font-family="Segoe UI" x="-22.007813, -15.539063, -12.9375, -6.46875, " y="3.046875, ">
			1.45
	</text>
	<path fill="none" stroke="black" stroke-width="1" stroke-miterlimit="4" d="M42.0078 84.4283L38.0078 84.4283"/>
	<text transform="translate(33.0078 84.4283)" font-size="12" font-family="Segoe UI" x="-15.539063, -9.0703125, -6.46875, " y="3.046875, ">
			1.5
	</text>
	<path fill="none" stroke="black" stroke-width="1" stroke-miterlimit="4" d="M42.0078 59.8061L38.0078 59.8061"/>
	<text transform="translate(33.0078 59.8061)" font-size="12" font-family="Segoe UI" x="-22.007813, -15.539063, -12.9375, -6.46875, " y="3.046875, ">
			1.55
	</text>
	<path fill="none" stroke="black" stroke-width="1" stroke-miterlimit="4" d="M42.0078 35.1838L38.0078 35.1838"/>
	<text transform="translate(33.0078 35.1838)" font-size="12" font-family="Segoe UI" x="-15.539063, -9.0703125, -6.46875, " y="3.046875, ">
			1.6
	</text>
	<path fill="none" stroke="black" stroke-width="1" stroke-miterlimit="4" d="M42.0078 266.633L40.0078 266.633"/>
	<path fill="none" stroke="black" stroke-width="1" stroke-miterlimit="4" d="M42.0078 261.709L40.0078 261.709"/>
	<path fill="none" stroke="black" stroke-width="1" stroke-miterlimit="4" d="M42.0078 251.86L40.0078 251.86"/>
	<path fill="none" stroke="black" stroke-width="1" stroke-miterlimit="4" d="M42.0078 246.935L40.0078 246.935"/>
	<path fill="none" stroke="black" stroke-width="1" stroke-miterlimit="4" d="M42.0078 242.011L40.0078 242.011"/>
	<path fill="none" stroke="black" stroke-width="1" stroke-miterlimit="4" d="M42.0078 237.087L40.0078 237.087"/>
	<path fill="none" stroke="black" stroke-width="1" stroke-miterlimit="4" d="M42.0078 227.238L40.0078 227.238"/>
	<path fill="none" stroke="black" stroke-width="1" stroke-miterlimit="4" d="M42.0078 222.313L40.0078 222.313"/>
	<path fill="none" stroke="black" stroke-width="1" stroke-miterlimit="4" d="M42.0078 217.389L40.0078 217.389"/>
	<path fill="none" stroke="black" stroke-width="1" stroke-miterlimit="4" d="M42.0078 212.464L40.0078 212.464"/>
	<path fill="none" stroke="black" stroke-width="1" stroke-miterlimit="4" d="M42.0078 202.615L40.0078 202.615"/>
	<path fill="none" stroke="black" stroke-width="1" stroke-miterlimit="4" d="M42.0078 197.691L40.0078 197.691"/>
	<path fill="none" stroke="black" stroke-width="1" stroke-miterlimit="4" d="M42.0078 192.766L40.0078 192.766"/>
	<path fill="none" stroke="black" stroke-width="1" stroke-miterlimit="4" d="M42.0078 187.842L40.0078 187.842"/>
	<path fill="none" stroke="black" stroke-width="1" stroke-miterlimit="4" d="M42.0078 177.993L40.0078 177.993"/>
	<path fill="none" stroke="black" stroke-width="1" stroke-miterlimit="4" d="M42.0078 173.069L40.0078 173.069"/>
	<path fill="none" stroke="black" stroke-width="1" stroke-miterlimit="4" d="M42.0078 168.144L40.0078 168.144"/>
	<path fill="none" stroke="black" stroke-width="1" stroke-miterlimit="4" d="M42.0078 163.22L40.0078 163.22"/>
	<path fill="none" stroke="black" stroke-width="1" stroke-miterlimit="4" d="M42.0078 153.371L40.0078 153.371"/>
	<path fill="none" stroke="black" stroke-width="1" stroke-miterlimit="4" d="M42.0078 148.446L40.0078 148.446"/>
	<path fill="none" stroke="black" stroke-width="1" stroke-miterlimit="4" d="M42.0078 143.522L40.0078 143.522"/>
	<path fill="none" stroke="black" stroke-width="1" stroke-miterlimit="4" d="M42.0078 138.597L40.0078 138.597"/>
	<path fill="none" stroke="black" stroke-width="1" stroke-miterlimit="4" d="M42.0078 128.748L40.0078 128.748"/>
	<path fill="none" stroke="black" stroke-width="1" stroke-miterlimit="4" d="M42.0078 123.824L40.0078 123.824"/>
	<path fill="none" stroke="black" stroke-width="1" stroke-miterlimit="4" d="M42.0078 118.9L40.0078 118.9"/>
	<path fill="none" stroke="black" stroke-width="1" stroke-miterlimit="4" d="M42.0078 113.975L40.0078 113.975"/>
	<path fill="none" stroke="black" stroke-width="1" stroke-miterlimit="4" d="M42.0078 104.126L40.0078 104.126"/>
	<path fill="none" stroke="black" stroke-width="1" stroke-miterlimit="4" d="M42.0078 99.2017L40.0078 99.2017"/>
	<path fill="none" stroke="black" stroke-width="1" stroke-miterlimit="4" d="M42.0078 94.2773L40.0078 94.2773"/>
	<path fill="none" stroke="black" stroke-width="1" stroke-miterlimit="4" d="M42.0078 89.3528L40.0078 89.3528"/>
	<path fill="none" stroke="black" stroke-width="1" stroke-miterlimit="4" d="M42.0078 79.5039L40.0078 79.5039"/>
	<path fill="none" stroke="black" stroke-width="1" stroke-miterlimit="4" d="M42.0078 74.5794L40.0078 74.5794"/>
	<path fill="none" stroke="black" stroke-width="1" stroke-miterlimit="4" d="M42.0078 69.655L40.0078 69.655"/>
	<path fill="none" stroke="black" stroke-width="1" stroke-miterlimit="4" d="M42.0078 64.7305L40.0078 64.7305"/>
	<path fill="none" stroke="black" stroke-width="1" stroke-miterlimit="4" d="M42.0078 54.8816L40.0078 54.8816"/>
	<path fill="none" stroke="black" stroke-width="1" stroke-miterlimit="4" d="M42.0078 49.9572L40.0078 49.9572"/>
	<path fill="none" stroke="black" stroke-width="1" stroke-miterlimit="4" d="M42.0078 45.0327L40.0078 45.0327"/>
	<path fill="none" stroke="black" stroke-width="1" stroke-miterlimit="4" d="M42.0078 40.1082L40.0078 40.1082"/>
	<path fill="none" stroke="black" stroke-width="1" stroke-miterlimit="4" d="M42.0078 30.2593L40.0078 30.2593"/>
	<path fill="none" stroke="black" stroke-width="1" stroke-miterlimit="4" d="M42.0078 25.3349L40.0078 25.3349"/>
	<path fill="none" stroke="black" stroke-width="1" stroke-miterlimit="4" d="M42.0078 20.4104L40.0078 20.4104"/>
	<path fill="none" stroke="black" stroke-width="1" stroke-miterlimit="4" d="M42.0078 15.4859L40.0078 15.4859"/>
	<path fill="none" stroke="black" stroke-width="1" stroke-miterlimit="4" d="M42.0078 270.039L42.0078 15"/>
	<path fill="none" stroke="black" stroke-width="1" stroke-miterlimit="4" d="M785 270.039L785 15"/>
</svg>
