<?xml version="1.0" encoding="utf-8" ?>
<svg xmlns="http://www.w3.org/2000/svg" xmlns:xlink="http://www.w3.org/1999/xlink" width="800" height="300">
	<rect fill="white" width="800" height="300"/>
	<path fill="none" stroke="#010101" stroke-width="1" stroke-miterlimit="4" stroke-opacity="0.098039217" d="M88.1296 270.039L88.1296 15M154.498 270.039L154.498 15M220.867 270.039L220.867 15M287.235 270.039L287.235 15M353.604 270.039L353.604 15M419.973 270.039L419.973 15M486.341 270.039L486.341 15M552.71 270.039L552.71 15M619.078 270.039L619.078 15M685.447 270.039L685.447 15M751.816 270.039L751.816 15"/>
	<path fill="none" stroke="#010101" stroke-width="1" stroke-miterlimit="4" stroke-opacity="0.098039217" d="M54.9453 247.91L785 247.91M54.9453 217.372L785 217.372M54.9453 186.834L785 186.834M54.9453 156.296L785 156.296M54.9453 125.759L785 125.759M54.9453 95.2207L785 95.2207M54.9453 64.6828L785 64.6828M54.9453 34.1449L785 34.1449"/>
	<clipPath id="cl_72">
		<rect x="54.945313" y="15" width="730.05469" height="255.03906"/>
	</clipPath>
	<g clip-path="url(#cl_72)">
		<path fill="none" stroke="#1F77B4" stroke-width="1" stroke-miterlimit="4" d="M88.1296 31.633L751.816 253.406"/>
		<ellipse fill="#1F77B4" cx="88.129616" cy="31.63298" rx="2.5" ry="2.5"/>
		<ellipse fill="#1F77B4" cx="751.81567" cy="253.40608" rx="2.5" ry="2.5"/>
	</g>
	<path fill="none" stroke="black" stroke-width="1" stroke-miterlimit="4" d="M88.1296 270.039L88.1296 274.039"/>
	<text transform="translate(88.1296 276.039)" font-size="12" font-family="Segoe UI" x="-6.46875, 0, " y="11.027344, ">
			21
	</text>
	<path fill="none" stroke="black" stroke-width="1" stroke-miterlimit="4" d="M154.498 270.039L154.498 274.039"/>
	<text transform="translate(154.498 276.039)" font-size="12" font-family="Segoe UI" x="-14.238281, -7.7695313, -1.3007813, 1.3007813, 7.7695313, " y="11.027344, ">
			21.05
	</text>
	<path fill="none" stroke="black" stroke-width="1" stroke-miterlimit="4" d="M220.867 270.039L220.867 274.039"/>
	<text transform="translate(220.867 276.039)" font-size="12" font-family="Segoe UI" x="-11.003906, -4.5351563, 1.9335938, 4.5351563, " y="11.027344, ">
			21.1
	</text>
	<path fill="none" stroke="black" stroke-width="1" stroke-miterlimit="4" d="M287.235 270.039L287.235 274.039"/>
	<text transform="translate(287.235 276.039)" font-size="12" font-family="Segoe UI" x="-14.238281, -7.7695313, -1.3007813, 1.3007813, 7.7695313, " y="11.027344, ">
			21.15
	</text>
	<path fill="none" stroke="black" stroke-width="1" stroke-miterlimit="4" d="M353.604 270.039L353.604 274.039"/>
	<text transform="translate(353.604 276.039)" font-size="12" font-family="Segoe UI" x="-11.003906, -4.5351563, 1.9335938, 4.5351563, " y="11.027344, ">
			21.2
	</text>
	<path fill="none" stroke="black" stroke-width="1" stroke-miterlimit="4" d="M419.973 270.039L419.973 274.039"/>
	<text transform="translate(419.973 276.039)" font-size="12" font-family="Segoe UI" x="-14.238281, -7.7695313, -1.3007813, 1.3007813, 7.7695313, " y="11.027344, ">
			21.25
	</text>
	<path fill="none" stroke="black" stroke-width="1" stroke-miterlimit="4" d="M486.341 270.039L486.341 274.039"/>
	<text transform="translate(486.341 276.039)" font-size="12" font-family="Segoe UI" x="-11.003906, -4.5351563, 1.9335938, 4.5351563, " y="11.027344, ">
			21.3
	</text>
	<path fill="none" stroke="black" stroke-width="1" stroke-miterlimit="4" d="M552.71 270.039L552.71 274.039"/>
	<text transform="translate(552.71 276.039)" font-size="12" font-family="Segoe UI" x="-14.238281, -7.7695313, -1.3007813, 1.3007813, 7.7695313, " y="11.027344, ">
			21.35
	</text>
	<path fill="none" stroke="black" stroke-width="1" stroke-miterlimit="4" d="M619.078 270.039L619.078 274.039"/>
	<text transform="translate(619.078 276.039)" font-size="12" font-family="Segoe UI" x="-11.003906, -4.5351563, 1.9335938, 4.5351563, " y="11.027344, ">
			21.4
	</text>
	<path fill="none" stroke="black" stroke-width="1" stroke-miterlimit="4" d="M685.447 270.039L685.447 274.039"/>
	<text transform="translate(685.447 276.039)" font-size="12" font-family="Segoe UI" x="-14.238281, -7.7695313, -1.3007813, 1.3007813, 7.7695313, " y="11.027344, ">
			21.45
	</text>
	<path fill="none" stroke="black" stroke-width="1" stroke-miterlimit="4" d="M751.816 270.039L751.816 274.039"/>
	<text transform="translate(751.816 276.039)" font-size="12" font-family="Segoe UI" x="-11.003906, -4.5351563, 1.9335938, 4.5351563, " y="11.027344, ">
			21.5
	</text>
	<path fill="none" stroke="black" stroke-width="1" stroke-miterlimit="4" d="M61.5822 270.039L61.5822 272.039"/>
	<path fill="none" stroke="black" stroke-width="1" stroke-miterlimit="4" d="M74.8559 270.039L74.8559 272.039"/>
	<path fill="none" stroke="black" stroke-width="1" stroke-miterlimit="4" d="M101.403 270.039L101.403 272.039"/>
	<path fill="none" stroke="black" stroke-width="1" stroke-miterlimit="4" d="M114.677 270.039L114.677 272.039"/>
	<path fill="none" stroke="black" stroke-width="1" stroke-miterlimit="4" d="M127.951 270.039L127.951 272.039"/>
	<path fill="none" stroke="black" stroke-width="1" stroke-miterlimit="4" d="M141.225 270.039L141.225 272.039"/>
	<path fill="none" stroke="black" stroke-width="1" stroke-miterlimit="4" d="M167.772 270.039L167.772 272.039"/>
	<path fill="none" stroke="black" stroke-width="1" stroke-miterlimit="4" d="M181.046 270.039L181.046 272.039"/>
	<path fill="none" stroke="black" stroke-width="1" stroke-miterlimit="4" d="M194.319 270.039L194.319 272.039"/>
	<path fill="none" stroke="black" stroke-width="1" stroke-miterlimit="4" d="M207.593 270.039L207.593 272.039"/>
	<path fill="none" stroke="black" stroke-width="1" stroke-miterlimit="4" d="M234.141 270.039L234.141 272.039"/>
	<path fill="none" stroke="black" stroke-width="1" stroke-miterlimit="4" d="M247.414 270.039L247.414 272.039"/>
	<path fill="none" stroke="black" stroke-width="1" stroke-miterlimit="4" d="M260.688 270.039L260.688 272.039"/>
	<path fill="none" stroke="black" stroke-width="1" stroke-miterlimit="4" d="M273.962 270.039L273.962 272.039"/>
	<path fill="none" stroke="black" stroke-width="1" stroke-miterlimit="4" d="M300.509 270.039L300.509 272.039"/>
	<path fill="none" stroke="black" stroke-width="1" stroke-miterlimit="4" d="M313.783 270.039L313.783 272.039"/>
	<path fill="none" stroke="black" stroke-width="1" stroke-miterlimit="4" d="M327.057 270.039L327.057 272.039"/>
	<path fill="none" stroke="black" stroke-width="1" stroke-miterlimit="4" d="M340.33 270.039L340.33 272.039"/>
	<path fill="none" stroke="black" stroke-width="1" stroke-miterlimit="4" d="M366.878 270.039L366.878 272.039"/>
	<path fill="none" stroke="black" stroke-width="1" stroke-miterlimit="4" d="M380.151 270.039L380.151 272.039"/>
	<path fill="none" stroke="black" stroke-width="1" stroke-miterlimit="4" d="M393.425 270.039L393.425 272.039"/>
	<path fill="none" stroke="black" stroke-width="1" stroke-miterlimit="4" d="M406.699 270.039L406.699 272.039"/>
	<path fill="none" stroke="black" stroke-width="1" stroke-miterlimit="4" d="M433.246 270.039L433.246 272.039"/>
	<path fill="none" stroke="black" stroke-width="1" stroke-miterlimit="4" d="M446.52 270.039L446.52 272.039"/>
	<path fill="none" stroke="black" stroke-width="1" stroke-miterlimit="4" d="M459.794 270.039L459.794 272.039"/>
	<path fill="none" stroke="black" stroke-width="1" stroke-miterlimit="4" d="M473.068 270.039L473.068 272.039"/>
	<path fill="none" stroke="black" stroke-width="1" stroke-miterlimit="4" d="M499.615 270.039L499.615 272.039"/>
	<path fill="none" stroke="black" stroke-width="1" stroke-miterlimit="4" d="M512.889 270.039L512.889 272.039"/>
	<path fill="none" stroke="black" stroke-width="1" stroke-miterlimit="4" d="M526.162 270.039L526.162 272.039"/>
	<path fill="none" stroke="black" stroke-width="1" stroke-miterlimit="4" d="M539.436 270.039L539.436 272.039"/>
	<path fill="none" stroke="black" stroke-width="1" stroke-miterlimit="4" d="M565.984 270.039L565.984 272.039"/>
	<path fill="none" stroke="black" stroke-width="1" stroke-miterlimit="4" d="M579.257 270.039L579.257 272.039"/>
	<path fill="none" stroke="black" stroke-width="1" stroke-miterlimit="4" d="M592.531 270.039L592.531 272.039"/>
	<path fill="none" stroke="black" stroke-width="1" stroke-miterlimit="4" d="M605.805 270.039L605.805 272.039"/>
	<path fill="none" stroke="black" stroke-width="1" stroke-miterlimit="4" d="M632.352 270.039L632.352 272.039"/>
	<path fill="none" stroke="black" stroke-width="1" stroke-miterlimit="4" d="M645.626 270.039L645.626 272.039"/>
	<path fill="none" stroke="black" stroke-width="1" stroke-miterlimit="4" d="M658.9 270.039L658.9 272.039"/>
	<path fill="none" stroke="black" stroke-width="1" stroke-miterlimit="4" d="M672.173 270.039L672.173 272.039"/>
	<path fill="none" stroke="black" stroke-width="1" stroke-miterlimit="4" d="M698.721 270.039L698.721 272.039"/>
	<path fill="none" stroke="black" stroke-width="1" stroke-miterlimit="4" d="M711.995 270.039L711.995 272.039"/>
	<path fill="none" stroke="black" stroke-width="1" stroke-miterlimit="4" d="M725.268 270.039L725.268 272.039"/>
	<path fill="none" stroke="black" stroke-width="1" stroke-miterlimit="4" d="M738.542 270.039L738.542 272.039"/>
	<path fill="none" stroke="black" stroke-width="1" stroke-miterlimit="4" d="M765.089 270.039L765.089 272.039"/>
	<path fill="none" stroke="black" stroke-width="1" stroke-miterlimit="4" d="M778.363 270.039L778.363 272.039"/>
	<path fill="none" stroke="black" stroke-width="1" stroke-miterlimit="4" d="M54.9453 270.039L785 270.039"/>
	<path fill="none" stroke="black" stroke-width="1" stroke-miterlimit="4" d="M54.9453 15.1L785 15.1"/>
	<path fill="none" stroke="black" stroke-width="1" stroke-miterlimit="4" d="M54.9453 247.91L50.9453 247.91"/>
	<text transform="translate(45.9453 247.91)" font-size="12" font-family="Segoe UI" x="-34.945313, -28.476563, -25.875, -19.40625, -12.9375, -6.46875, " y="3.046875, ">
			1.2174
	</text>
	<path fill="none" stroke="black" stroke-width="1" stroke-miterlimit="4" d="M54.9453 217.372L50.9453 217.372"/>
	<text transform="translate(45.9453 217.372)" font-size="12" font-family="Segoe UI" x="-34.945313, -28.476563, -25.875, -19.40625, -12.9375, -6.46875, " y="3.046875, ">
			1.2176
	</text>
	<path fill="none" stroke="black" stroke-width="1" stroke-miterlimit="4" d="M54.9453 186.834L50.9453 186.834"/>
	<text transform="translate(45.9453 186.834)" font-size="12" font-family="Segoe UI" x="-34.945313, -28.476563, -25.875, -19.40625, -12.9375, -6.46875, " y="3.046875, ">
			1.2178
	</text>
	<path fill="none" stroke="black" stroke-width="1" stroke-miterlimit="4" d="M54.9453 156.296L50.9453 156.296"/>
	<text transform="translate(45.9453 156.296)" font-size="12" font-family="Segoe UI" x="-28.476563, -22.007813, -19.40625, -12.9375, -6.46875, " y="3.046875, ">
			1.218
	</text>
	<path fill="none" stroke="black" stroke-width="1" stroke-miterlimit="4" d="M54.9453 125.759L50.9453 125.759"/>
	<text transform="translate(45.9453 125.759)" font-size="12" font-family="Segoe UI" x="-34.945313, -28.476563, -25.875, -19.40625, -12.9375, -6.46875, " y="3.046875, ">
			1.2182
	</text>
	<path fill="none" stroke="black" stroke-width="1" stroke-miterlimit="4" d="M54.9453 95.2207L50.9453 95.2207"/>
	<text transform="translate(45.9453 95.2207)" font-size="12" font-family="Segoe UI" x="-34.945313, -28.476563, -25.875, -19.40625, -12.9375, -6.46875, " y="3.046875, ">
			1.2184
	</text>
	<path fill="none" stroke="black" stroke-width="1" stroke-miterlimit="4" d="M54.9453 64.6828L50.9453 64.6828"/>
	<text transform="translate(45.9453 64.6828)" font-size="12" font-family="Segoe UI" x="-34.945313, -28.476563, -25.875, -19.40625, -12.9375, -6.46875, " y="3.046875, ">
			1.2186
	</text>
	<path fill="none" stroke="black" stroke-width="1" stroke-miterlimit="4" d="M54.9453 34.1449L50.9453 34.1449"/>
	<text transform="translate(45.9453 34.1449)" font-size="12" font-family="Segoe UI" x="-34.945313, -28.476563, -25.875, -19.40625, -12.9375, -6.46875, " y="3.046875, ">
			1.2188
	</text>
	<path fill="none" stroke="black" stroke-width="1" stroke-miterlimit="4" d="M54.9453 266.233L52.9453 266.233"/>
	<path fill="none" stroke="black" stroke-width="1" stroke-miterlimit="4" d="M54.9453 260.125L52.9453 260.125"/>
	<path fill="none" stroke="black" stroke-width="1" stroke-miterlimit="4" d="M54.9453 254.018L52.9453 254.018"/>
	<path fill="none" stroke="black" stroke-width="1" stroke-miterlimit="4" d="M54.9453 241.802L52.9453 241.802"/>
	<path fill="none" stroke="black" stroke-width="1" stroke-miterlimit="4" d="M54.9453 235.695L52.9453 235.695"/>
	<path fill="none" stroke="black" stroke-width="1" stroke-miterlimit="4" d="M54.9453 229.587L52.9453 229.587"/>
	<path fill="none" stroke="black" stroke-width="1" stroke-miterlimit="4" d="M54.9453 223.48L52.9453 223.48"/>
	<path fill="none" stroke="black" stroke-width="1" stroke-miterlimit="4" d="M54.9453 211.265L52.9453 211.265"/>
	<path fill="none" stroke="black" stroke-width="1" stroke-miterlimit="4" d="M54.9453 205.157L52.9453 205.157"/>
	<path fill="none" stroke="black" stroke-width="1" stroke-miterlimit="4" d="M54.9453 199.049L52.9453 199.049"/>
	<path fill="none" stroke="black" stroke-width="1" stroke-miterlimit="4" d="M54.9453 192.942L52.9453 192.942"/>
	<path fill="none" stroke="black" stroke-width="1" stroke-miterlimit="4" d="M54.9453 180.727L52.9453 180.727"/>
	<path fill="none" stroke="black" stroke-width="1" stroke-miterlimit="4" d="M54.9453 174.619L52.9453 174.619"/>
	<path fill="none" stroke="black" stroke-width="1" stroke-miterlimit="4" d="M54.9453 168.512L52.9453 168.512"/>
	<path fill="none" stroke="black" stroke-width="1" stroke-miterlimit="4" d="M54.9453 162.404L52.9453 162.404"/>
	<path fill="none" stroke="black" stroke-width="1" stroke-miterlimit="4" d="M54.9453 150.189L52.9453 150.189"/>
	<path fill="none" stroke="black" stroke-width="1" stroke-miterlimit="4" d="M54.9453 144.081L52.9453 144.081"/>
	<path fill="none" stroke="black" stroke-width="1" stroke-miterlimit="4" d="M54.9453 137.974L52.9453 137.974"/>
	<path fill="none" stroke="black" stroke-width="1" stroke-miterlimit="4" d="M54.9453 131.866L52.9453 131.866"/>
	<path fill="none" stroke="black" stroke-width="1" stroke-miterlimit="4" d="M54.9453 119.651L52.9453 119.651"/>
	<path fill="none" stroke="black" stroke-width="1" stroke-miterlimit="4" d="M54.9453 113.543L52.9453 113.543"/>
	<path fill="none" stroke="black" stroke-width="1" stroke-miterlimit="4" d="M54.9453 107.436L52.9453 107.436"/>
	<path fill="none" stroke="black" stroke-width="1" stroke-miterlimit="4" d="M54.9453 101.328L52.9453 101.328"/>
	<path fill="none" stroke="black" stroke-width="1" stroke-miterlimit="4" d="M54.9453 89.1131L52.9453 89.1131"/>
	<path fill="none" stroke="black" stroke-width="1" stroke-miterlimit="4" d="M54.9453 83.0055L52.9453 83.0055"/>
	<path fill="none" stroke="black" stroke-width="1" stroke-miterlimit="4" d="M54.9453 76.8979L52.9453 76.8979"/>
	<path fill="none" stroke="black" stroke-width="1" stroke-miterlimit="4" d="M54.9453 70.7904L52.9453 70.7904"/>
	<path fill="none" stroke="black" stroke-width="1" stroke-miterlimit="4" d="M54.9453 58.5752L52.9453 58.5752"/>
	<path fill="none" stroke="black" stroke-width="1" stroke-miterlimit="4" d="M54.9453 52.4677L52.9453 52.4677"/>
	<path fill="none" stroke="black" stroke-width="1" stroke-miterlimit="4" d="M54.9453 46.3601L52.9453 46.3601"/>
	<path fill="none" stroke="black" stroke-width="1" stroke-miterlimit="4" d="M54.9453 40.2525L52.9453 40.2525"/>
	<path fill="none" stroke="black" stroke-width="1" stroke-miterlimit="4" d="M54.9453 28.0374L52.9453 28.0374"/>
	<path fill="none" stroke="black" stroke-width="1" stroke-miterlimit="4" d="M54.9453 21.9298L52.9453 21.9298"/>
	<path fill="none" stroke="black" stroke-width="1" stroke-miterlimit="4" d="M54.9453 15.8222L52.9453 15.8222"/>
	<path fill="none" stroke="black" stroke-width="1" stroke-miterlimit="4" d="M54.9453 270.039L54.9453 15"/>
	<path fill="none" stroke="black" stroke-width="1" stroke-miterlimit="4" d="M785 270.039L785 15"/>
</svg>
