<?xml version="1.0" encoding="utf-8" ?>
<svg xmlns="http://www.w3.org/2000/svg" xmlns:xlink="http://www.w3.org/1999/xlink" width="800" height="300">
	<rect fill="white" width="800" height="300"/>
	<path fill="none" stroke="#010101" stroke-width="1" stroke-miterlimit="4" stroke-opacity="0.098039217" d="M69.6055 270.039L69.6055 15M118.272 270.039L118.272 15M166.938 270.039L166.938 15M215.604 270.039L215.604 15M264.271 270.039L264.271 15M312.937 270.039L312.937 15M361.603 270.039L361.603 15M410.27 270.039L410.27 15M458.936 270.039L458.936 15M507.602 270.039L507.602 15M556.268 270.039L556.268 15M604.935 270.039L604.935 15M653.601 270.039L653.601 15M702.267 270.039L702.267 15M750.934 270.039L750.934 15"/>
	<path fill="none" stroke="#010101" stroke-width="1" stroke-miterlimit="4" stroke-opacity="0.098039217" d="M35.5391 253.031L785 253.031M35.5391 224.146L785 224.146M35.5391 195.26L785 195.26M35.5391 166.375L785 166.375M35.5391 137.49L785 137.49M35.5391 108.604L785 108.604M35.5391 79.7192L785 79.7192M35.5391 50.8338L785 50.8338M35.5391 21.9485L785 21.9485"/>
	<clipPath id="cl_62">
		<rect x="35.539063" y="15" width="749.46094" height="255.03906"/>
	</clipPath>
	<g clip-path="url(#cl_62)">
		<path fill="none" stroke="#1F77B4" stroke-width="1" stroke-miterlimit="4" d="M69.6055 253.406L69.6055 253.406L69.6055 253.406L69.6055 253.406L166.938 203.496L166.938 208.142L166.938 203.496L166.938 203.496L166.938 203.496L264.271 198.42L264.271 198.42L264.271 198.42L264.271 198.42L264.271 198.42L264.271 226.963L264.271 226.963L264.271 191.971L264.271 191.971L264.271 191.971L264.271 196.313L264.271 159.694L264.271 159.694L264.271 133.177L361.603 174.729L361.603 209.764L361.603 209.764L361.603 209.778L361.603 209.764L458.936 187.277L458.936 187.277L458.936 187.277L556.268 187.277L556.268 242.278L556.268 31.633L556.268 31.633L556.268 31.633L556.268 31.633L556.268 187.525L653.601 219.232L653.601 219.232L653.601 219.232L653.601 187.525L750.934 219.232"/>
		<ellipse fill="#1F77B4" cx="69.605469" cy="253.40608" rx="2.5" ry="2.5"/>
		<ellipse fill="#1F77B4" cx="69.605469" cy="253.40608" rx="2.5" ry="2.5"/>
		<ellipse fill="#1F77B4" cx="69.605469" cy="253.40608" rx="2.5" ry="2.5"/>
		<ellipse fill="#1F77B4" cx="69.605469" cy="253.40608" rx="2.5" ry="2.5"/>
		<ellipse fill="#1F77B4" cx="166.93806" cy="203.49628" rx="2.5" ry="2.5"/>
		<ellipse fill="#1F77B4" cx="166.93806" cy="208.14227" rx="2.5" ry="2.5"/>
		<ellipse fill="#1F77B4" cx="166.93806" cy="203.49628" rx="2.5" ry="2.5"/>
		<ellipse fill="#1F77B4" cx="166.93806" cy="203.49628" rx="2.5" ry="2.5"/>
		<ellipse fill="#1F77B4" cx="166.93806" cy="203.49628" rx="2.5" ry="2.5"/>
		<ellipse fill="#1F77B4" cx="264.27063" cy="198.42029" rx="2.5" ry="2.5"/>
		<ellipse fill="#1F77B4" cx="264.27063" cy="198.42029" rx="2.5" ry="2.5"/>
		<ellipse fill="#1F77B4" cx="264.27063" cy="198.42029" rx="2.5" ry="2.5"/>
		<ellipse fill="#1F77B4" cx="264.27063" cy="198.42029" rx="2.5" ry="2.5"/>
		<ellipse fill="#1F77B4" cx="264.27063" cy="198.42029" rx="2.5" ry="2.5"/>
		<ellipse fill="#1F77B4" cx="264.27063" cy="226.96254" rx="2.5" ry="2.5"/>
		<ellipse fill="#1F77B4" cx="264.27063" cy="226.96254" rx="2.5" ry="2.5"/>
		<ellipse fill="#1F77B4" cx="264.27063" cy="191.97125" rx="2.5" ry="2.5"/>
		<ellipse fill="#1F77B4" cx="264.27063" cy="191.97125" rx="2.5" ry="2.5"/>
		<ellipse fill="#1F77B4" cx="264.27063" cy="191.97125" rx="2.5" ry="2.5"/>
		<ellipse fill="#1F77B4" cx="264.27063" cy="196.31265" rx="2.5" ry="2.5"/>
		<ellipse fill="#1F77B4" cx="264.27063" cy="159.69406" rx="2.5" ry="2.5"/>
		<ellipse fill="#1F77B4" cx="264.27063" cy="159.69406" rx="2.5" ry="2.5"/>
		<ellipse fill="#1F77B4" cx="264.27063" cy="133.17712" rx="2.5" ry="2.5"/>
		<ellipse fill="#1F77B4" cx="361.60324" cy="174.72913" rx="2.5" ry="2.5"/>
		<ellipse fill="#1F77B4" cx="361.60324" cy="209.76353" rx="2.5" ry="2.5"/>
		<ellipse fill="#1F77B4" cx="361.60324" cy="209.76353" rx="2.5" ry="2.5"/>
		<ellipse fill="#1F77B4" cx="361.60324" cy="209.77765" rx="2.5" ry="2.5"/>
		<ellipse fill="#1F77B4" cx="361.60324" cy="209.76353" rx="2.5" ry="2.5"/>
		<ellipse fill="#1F77B4" cx="458.93582" cy="187.27669" rx="2.5" ry="2.5"/>
		<ellipse fill="#1F77B4" cx="458.93582" cy="187.27669" rx="2.5" ry="2.5"/>
		<ellipse fill="#1F77B4" cx="458.93582" cy="187.27669" rx="2.5" ry="2.5"/>
		<ellipse fill="#1F77B4" cx="556.26843" cy="187.27669" rx="2.5" ry="2.5"/>
		<ellipse fill="#1F77B4" cx="556.26843" cy="242.27834" rx="2.5" ry="2.5"/>
		<ellipse fill="#1F77B4" cx="556.26843" cy="31.63298" rx="2.5" ry="2.5"/>
		<ellipse fill="#1F77B4" cx="556.26843" cy="31.63298" rx="2.5" ry="2.5"/>
		<ellipse fill="#1F77B4" cx="556.26843" cy="31.63298" rx="2.5" ry="2.5"/>
		<ellipse fill="#1F77B4" cx="556.26843" cy="31.63298" rx="2.5" ry="2.5"/>
		<ellipse fill="#1F77B4" cx="556.26843" cy="187.52527" rx="2.5" ry="2.5"/>
		<ellipse fill="#1F77B4" cx="653.60101" cy="219.23172" rx="2.5" ry="2.5"/>
		<ellipse fill="#1F77B4" cx="653.60101" cy="219.23172" rx="2.5" ry="2.5"/>
		<ellipse fill="#1F77B4" cx="653.60101" cy="219.23172" rx="2.5" ry="2.5"/>
		<ellipse fill="#1F77B4" cx="653.60101" cy="187.52527" rx="2.5" ry="2.5"/>
		<ellipse fill="#1F77B4" cx="750.93359" cy="219.23172" rx="2.5" ry="2.5"/>
	</g>
	<path fill="none" stroke="black" stroke-width="1" stroke-miterlimit="4" d="M69.6055 270.039L69.6055 274.039"/>
	<text transform="translate(69.6055 276.039)" font-size="12" font-family="Segoe UI" x="-6.46875, 0, " y="11.027344, ">
			16
	</text>
	<path fill="none" stroke="black" stroke-width="1" stroke-miterlimit="4" d="M118.272 270.039L118.272 274.039"/>
	<text transform="translate(118.272 276.039)" font-size="12" font-family="Segoe UI" x="-11.003906, -4.5351563, 1.9335938, 4.5351563, " y="11.027344, ">
			16.5
	</text>
	<path fill="none" stroke="black" stroke-width="1" stroke-miterlimit="4" d="M166.938 270.039L166.938 274.039"/>
	<text transform="translate(166.938 276.039)" font-size="12" font-family="Segoe UI" x="-6.46875, 0, " y="11.027344, ">
			17
	</text>
	<path fill="none" stroke="black" stroke-width="1" stroke-miterlimit="4" d="M215.604 270.039L215.604 274.039"/>
	<text transform="translate(215.604 276.039)" font-size="12" font-family="Segoe UI" x="-11.003906, -4.5351563, 1.9335938, 4.5351563, " y="11.027344, ">
			17.5
	</text>
	<path fill="none" stroke="black" stroke-width="1" stroke-miterlimit="4" d="M264.271 270.039L264.271 274.039"/>
	<text transform="translate(264.271 276.039)" font-size="12" font-family="Segoe UI" x="-6.46875, 0, " y="11.027344, ">
			18
	</text>
	<path fill="none" stroke="black" stroke-width="1" stroke-miterlimit="4" d="M312.937 270.039L312.937 274.039"/>
	<text transform="translate(312.937 276.039)" font-size="12" font-family="Segoe UI" x="-11.003906, -4.5351563, 1.9335938, 4.5351563, " y="11.027344, ">
			18.5
	</text>
	<path fill="none" stroke="black" stroke-width="1" stroke-miterlimit="4" d="M361.603 270.039L361.603 274.039"/>
	<text transform="translate(361.603 276.039)" font-size="12" font-family="Segoe UI" x="-6.46875, 0, " y="11.027344, ">
			19
	</text>
	<path fill="none" stroke="black" stroke-width="1" stroke-miterlimit="4" d="M410.27 270.039L410.27 274.039"/>
	<text transform="translate(410.27 276.039)" font-size="12" font-family="Segoe UI" x="-11.003906, -4.5351563, 1.9335938, 4.5351563, " y="11.027344, ">
			19.5
	</text>
	<path fill="none" stroke="black" stroke-width="1" stroke-miterlimit="4" d="M458.936 270.039L458.936 274.039"/>
	<text transform="translate(458.936 276.039)" font-size="12" font-family="Segoe UI" x="-6.46875, 0, " y="11.027344, ">
			20
	</text>
	<path fill="none" stroke="black" stroke-width="1" stroke-miterlimit="4" d="M507.602 270.039L507.602 274.039"/>
	<text transform="translate(507.602 276.039)" font-size="12" font-family="Segoe UI" x="-11.003906, -4.5351563, 1.9335938, 4.5351563, " y="11.027344, ">
			20.5
	</text>
	<path fill="none" stroke="black" stroke-width="1" stroke-miterlimit="4" d="M556.268 270.039L556.268 274.039"/>
	<text transform="translate(556.268 276.039)" font-size="12" font-family="Segoe UI" x="-6.46875, 0, " y="11.027344, ">
			21
	</text>
	<path fill="none" stroke="black" stroke-width="1" stroke-miterlimit="4" d="M604.935 270.039L604.935 274.039"/>
	<text transform="translate(604.935 276.039)" font-size="12" font-family="Segoe UI" x="-11.003906, -4.5351563, 1.9335938, 4.5351563, " y="11.027344, ">
			21.5
	</text>
	<path fill="none" stroke="black" stroke-width="1" stroke-miterlimit="4" d="M653.601 270.039L653.601 274.039"/>
	<text transform="translate(653.601 276.039)" font-size="12" font-family="Segoe UI" x="-6.46875, 0, " y="11.027344, ">
			22
	</text>
	<path fill="none" stroke="black" stroke-width="1" stroke-miterlimit="4" d="M702.267 270.039L702.267 274.039"/>
	<text transform="translate(702.267 276.039)" font-size="12" font-family="Segoe UI" x="-11.003906, -4.5351563, 1.9335938, 4.5351563, " y="11.027344, ">
			22.5
	</text>
	<path fill="none" stroke="black" stroke-width="1" stroke-miterlimit="4" d="M750.934 270.039L750.934 274.039"/>
	<text transform="translate(750.934 276.039)" font-size="12" font-family="Segoe UI" x="-6.46875, 0, " y="11.027344, ">
			23
	</text>
	<path fill="none" stroke="black" stroke-width="1" stroke-miterlimit="4" d="M40.4057 270.039L40.4057 272.039"/>
	<path fill="none" stroke="black" stroke-width="1" stroke-miterlimit="4" d="M50.139 270.039L50.139 272.039"/>
	<path fill="none" stroke="black" stroke-width="1" stroke-miterlimit="4" d="M59.8722 270.039L59.8722 272.039"/>
	<path fill="none" stroke="black" stroke-width="1" stroke-miterlimit="4" d="M79.3387 270.039L79.3387 272.039"/>
	<path fill="none" stroke="black" stroke-width="1" stroke-miterlimit="4" d="M89.072 270.039L89.072 272.039"/>
	<path fill="none" stroke="black" stroke-width="1" stroke-miterlimit="4" d="M98.8052 270.039L98.8052 272.039"/>
	<path fill="none" stroke="black" stroke-width="1" stroke-miterlimit="4" d="M108.539 270.039L108.539 272.039"/>
	<path fill="none" stroke="black" stroke-width="1" stroke-miterlimit="4" d="M128.005 270.039L128.005 272.039"/>
	<path fill="none" stroke="black" stroke-width="1" stroke-miterlimit="4" d="M137.738 270.039L137.738 272.039"/>
	<path fill="none" stroke="black" stroke-width="1" stroke-miterlimit="4" d="M147.472 270.039L147.472 272.039"/>
	<path fill="none" stroke="black" stroke-width="1" stroke-miterlimit="4" d="M157.205 270.039L157.205 272.039"/>
	<path fill="none" stroke="black" stroke-width="1" stroke-miterlimit="4" d="M176.671 270.039L176.671 272.039"/>
	<path fill="none" stroke="black" stroke-width="1" stroke-miterlimit="4" d="M186.405 270.039L186.405 272.039"/>
	<path fill="none" stroke="black" stroke-width="1" stroke-miterlimit="4" d="M196.138 270.039L196.138 272.039"/>
	<path fill="none" stroke="black" stroke-width="1" stroke-miterlimit="4" d="M205.871 270.039L205.871 272.039"/>
	<path fill="none" stroke="black" stroke-width="1" stroke-miterlimit="4" d="M225.338 270.039L225.338 272.039"/>
	<path fill="none" stroke="black" stroke-width="1" stroke-miterlimit="4" d="M235.071 270.039L235.071 272.039"/>
	<path fill="none" stroke="black" stroke-width="1" stroke-miterlimit="4" d="M244.804 270.039L244.804 272.039"/>
	<path fill="none" stroke="black" stroke-width="1" stroke-miterlimit="4" d="M254.537 270.039L254.537 272.039"/>
	<path fill="none" stroke="black" stroke-width="1" stroke-miterlimit="4" d="M274.004 270.039L274.004 272.039"/>
	<path fill="none" stroke="black" stroke-width="1" stroke-miterlimit="4" d="M283.737 270.039L283.737 272.039"/>
	<path fill="none" stroke="black" stroke-width="1" stroke-miterlimit="4" d="M293.47 270.039L293.47 272.039"/>
	<path fill="none" stroke="black" stroke-width="1" stroke-miterlimit="4" d="M303.204 270.039L303.204 272.039"/>
	<path fill="none" stroke="black" stroke-width="1" stroke-miterlimit="4" d="M322.67 270.039L322.67 272.039"/>
	<path fill="none" stroke="black" stroke-width="1" stroke-miterlimit="4" d="M332.403 270.039L332.403 272.039"/>
	<path fill="none" stroke="black" stroke-width="1" stroke-miterlimit="4" d="M342.137 270.039L342.137 272.039"/>
	<path fill="none" stroke="black" stroke-width="1" stroke-miterlimit="4" d="M351.87 270.039L351.87 272.039"/>
	<path fill="none" stroke="black" stroke-width="1" stroke-miterlimit="4" d="M371.336 270.039L371.336 272.039"/>
	<path fill="none" stroke="black" stroke-width="1" stroke-miterlimit="4" d="M381.07 270.039L381.07 272.039"/>
	<path fill="none" stroke="black" stroke-width="1" stroke-miterlimit="4" d="M390.803 270.039L390.803 272.039"/>
	<path fill="none" stroke="black" stroke-width="1" stroke-miterlimit="4" d="M400.536 270.039L400.536 272.039"/>
	<path fill="none" stroke="black" stroke-width="1" stroke-miterlimit="4" d="M420.003 270.039L420.003 272.039"/>
	<path fill="none" stroke="black" stroke-width="1" stroke-miterlimit="4" d="M429.736 270.039L429.736 272.039"/>
	<path fill="none" stroke="black" stroke-width="1" stroke-miterlimit="4" d="M439.469 270.039L439.469 272.039"/>
	<path fill="none" stroke="black" stroke-width="1" stroke-miterlimit="4" d="M449.203 270.039L449.203 272.039"/>
	<path fill="none" stroke="black" stroke-width="1" stroke-miterlimit="4" d="M468.669 270.039L468.669 272.039"/>
	<path fill="none" stroke="black" stroke-width="1" stroke-miterlimit="4" d="M478.402 270.039L478.402 272.039"/>
	<path fill="none" stroke="black" stroke-width="1" stroke-miterlimit="4" d="M488.136 270.039L488.136 272.039"/>
	<path fill="none" stroke="black" stroke-width="1" stroke-miterlimit="4" d="M497.869 270.039L497.869 272.039"/>
	<path fill="none" stroke="black" stroke-width="1" stroke-miterlimit="4" d="M517.335 270.039L517.335 272.039"/>
	<path fill="none" stroke="black" stroke-width="1" stroke-miterlimit="4" d="M527.069 270.039L527.069 272.039"/>
	<path fill="none" stroke="black" stroke-width="1" stroke-miterlimit="4" d="M536.802 270.039L536.802 272.039"/>
	<path fill="none" stroke="black" stroke-width="1" stroke-miterlimit="4" d="M546.535 270.039L546.535 272.039"/>
	<path fill="none" stroke="black" stroke-width="1" stroke-miterlimit="4" d="M566.002 270.039L566.002 272.039"/>
	<path fill="none" stroke="black" stroke-width="1" stroke-miterlimit="4" d="M575.735 270.039L575.735 272.039"/>
	<path fill="none" stroke="black" stroke-width="1" stroke-miterlimit="4" d="M585.468 270.039L585.468 272.039"/>
	<path fill="none" stroke="black" stroke-width="1" stroke-miterlimit="4" d="M595.201 270.039L595.201 272.039"/>
	<path fill="none" stroke="black" stroke-width="1" stroke-miterlimit="4" d="M614.668 270.039L614.668 272.039"/>
	<path fill="none" stroke="black" stroke-width="1" stroke-miterlimit="4" d="M624.401 270.039L624.401 272.039"/>
	<path fill="none" stroke="black" stroke-width="1" stroke-miterlimit="4" d="M634.134 270.039L634.134 272.039"/>
	<path fill="none" stroke="black" stroke-width="1" stroke-miterlimit="4" d="M643.868 270.039L643.868 272.039"/>
	<path fill="none" stroke="black" stroke-width="1" stroke-miterlimit="4" d="M663.334 270.039L663.334 272.039"/>
	<path fill="none" stroke="black" stroke-width="1" stroke-miterlimit="4" d="M673.068 270.039L673.068 272.039"/>
	<path fill="none" stroke="black" stroke-width="1" stroke-miterlimit="4" d="M682.801 270.039L682.801 272.039"/>
	<path fill="none" stroke="black" stroke-width="1" stroke-miterlimit="4" d="M692.534 270.039L692.534 272.039"/>
	<path fill="none" stroke="black" stroke-width="1" stroke-miterlimit="4" d="M712.001 270.039L712.001 272.039"/>
	<path fill="none" stroke="black" stroke-width="1" stroke-miterlimit="4" d="M721.734 270.039L721.734 272.039"/>
	<path fill="none" stroke="black" stroke-width="1" stroke-miterlimit="4" d="M731.467 270.039L731.467 272.039"/>
	<path fill="none" stroke="black" stroke-width="1" stroke-miterlimit="4" d="M741.2 270.039L741.2 272.039"/>
	<path fill="none" stroke="black" stroke-width="1" stroke-miterlimit="4" d="M760.667 270.039L760.667 272.039"/>
	<path fill="none" stroke="black" stroke-width="1" stroke-miterlimit="4" d="M770.4 270.039L770.4 272.039"/>
	<path fill="none" stroke="black" stroke-width="1" stroke-miterlimit="4" d="M780.133 270.039L780.133 272.039"/>
	<path fill="none" stroke="black" stroke-width="1" stroke-miterlimit="4" d="M35.5391 270.039L785 270.039"/>
	<path fill="none" stroke="black" stroke-width="1" stroke-miterlimit="4" d="M35.5391 15.1L785 15.1"/>
	<path fill="none" stroke="black" stroke-width="1" stroke-miterlimit="4" d="M35.5391 253.031L31.5391 253.031"/>
	<text transform="translate(26.5391 253.031)" font-size="12" font-family="Segoe UI" x="-6.46875, " y="3.046875, ">
			1
	</text>
	<path fill="none" stroke="black" stroke-width="1" stroke-miterlimit="4" d="M35.5391 224.146L31.5391 224.146"/>
	<text transform="translate(26.5391 224.146)" font-size="12" font-family="Segoe UI" x="-15.539063, -9.0703125, -6.46875, " y="3.046875, ">
			1.1
	</text>
	<path fill="none" stroke="black" stroke-width="1" stroke-miterlimit="4" d="M35.5391 195.26L31.5391 195.26"/>
	<text transform="translate(26.5391 195.26)" font-size="12" font-family="Segoe UI" x="-15.539063, -9.0703125, -6.46875, " y="3.046875, ">
			1.2
	</text>
	<path fill="none" stroke="black" stroke-width="1" stroke-miterlimit="4" d="M35.5391 166.375L31.5391 166.375"/>
	<text transform="translate(26.5391 166.375)" font-size="12" font-family="Segoe UI" x="-15.539063, -9.0703125, -6.46875, " y="3.046875, ">
			1.3
	</text>
	<path fill="none" stroke="black" stroke-width="1" stroke-miterlimit="4" d="M35.5391 137.49L31.5391 137.49"/>
	<text transform="translate(26.5391 137.49)" font-size="12" font-family="Segoe UI" x="-15.539063, -9.0703125, -6.46875, " y="3.046875, ">
			1.4
	</text>
	<path fill="none" stroke="black" stroke-width="1" stroke-miterlimit="4" d="M35.5391 108.604L31.5391 108.604"/>
	<text transform="translate(26.5391 108.604)" font-size="12" font-family="Segoe UI" x="-15.539063, -9.0703125, -6.46875, " y="3.046875, ">
			1.5
	</text>
	<path fill="none" stroke="black" stroke-width="1" stroke-miterlimit="4" d="M35.5391 79.7192L31.5391 79.7192"/>
	<text transform="translate(26.5391 79.7192)" font-size="12" font-family="Segoe UI" x="-15.539063, -9.0703125, -6.46875, " y="3.046875, ">
			1.6
	</text>
	<path fill="none" stroke="black" stroke-width="1" stroke-miterlimit="4" d="M35.5391 50.8338L31.5391 50.8338"/>
	<text transform="translate(26.5391 50.8338)" font-size="12" font-family="Segoe UI" x="-15.539063, -9.0703125, -6.46875, " y="3.046875, ">
			1.7
	</text>
	<path fill="none" stroke="black" stroke-width="1" stroke-miterlimit="4" d="M35.5391 21.9485L31.5391 21.9485"/>
	<text transform="translate(26.5391 21.9485)" font-size="12" font-family="Segoe UI" x="-15.539063, -9.0703125, -6.46875, " y="3.046875, ">
			1.8
	</text>
	<path fill="none" stroke="black" stroke-width="1" stroke-miterlimit="4" d="M35.5391 264.585L33.5391 264.585"/>
	<path fill="none" stroke="black" stroke-width="1" stroke-miterlimit="4" d="M35.5391 258.808L33.5391 258.808"/>
	<path fill="none" stroke="black" stroke-width="1" stroke-miterlimit="4" d="M35.5391 247.254L33.5391 247.254"/>
	<path fill="none" stroke="black" stroke-width="1" stroke-miterlimit="4" d="M35.5391 241.477L33.5391 241.477"/>
	<path fill="none" stroke="black" stroke-width="1" stroke-miterlimit="4" d="M35.5391 235.7L33.5391 235.7"/>
	<path fill="none" stroke="black" stroke-width="1" stroke-miterlimit="4" d="M35.5391 229.923L33.5391 229.923"/>
	<path fill="none" stroke="black" stroke-width="1" stroke-miterlimit="4" d="M35.5391 218.369L33.5391 218.369"/>
	<path fill="none" stroke="black" stroke-width="1" stroke-miterlimit="4" d="M35.5391 212.592L33.5391 212.592"/>
	<path fill="none" stroke="black" stroke-width="1" stroke-miterlimit="4" d="M35.5391 206.815L33.5391 206.815"/>
	<path fill="none" stroke="black" stroke-width="1" stroke-miterlimit="4" d="M35.5391 201.037L33.5391 201.037"/>
	<path fill="none" stroke="black" stroke-width="1" stroke-miterlimit="4" d="M35.5391 189.483L33.5391 189.483"/>
	<path fill="none" stroke="black" stroke-width="1" stroke-miterlimit="4" d="M35.5391 183.706L33.5391 183.706"/>
	<path fill="none" stroke="black" stroke-width="1" stroke-miterlimit="4" d="M35.5391 177.929L33.5391 177.929"/>
	<path fill="none" stroke="black" stroke-width="1" stroke-miterlimit="4" d="M35.5391 172.152L33.5391 172.152"/>
	<path fill="none" stroke="black" stroke-width="1" stroke-miterlimit="4" d="M35.5391 160.598L33.5391 160.598"/>
	<path fill="none" stroke="black" stroke-width="1" stroke-miterlimit="4" d="M35.5391 154.821L33.5391 154.821"/>
	<path fill="none" stroke="black" stroke-width="1" stroke-miterlimit="4" d="M35.5391 149.044L33.5391 149.044"/>
	<path fill="none" stroke="black" stroke-width="1" stroke-miterlimit="4" d="M35.5391 143.267L33.5391 143.267"/>
	<path fill="none" stroke="black" stroke-width="1" stroke-miterlimit="4" d="M35.5391 131.713L33.5391 131.713"/>
	<path fill="none" stroke="black" stroke-width="1" stroke-miterlimit="4" d="M35.5391 125.936L33.5391 125.936"/>
	<path fill="none" stroke="black" stroke-width="1" stroke-miterlimit="4" d="M35.5391 120.159L33.5391 120.159"/>
	<path fill="none" stroke="black" stroke-width="1" stroke-miterlimit="4" d="M35.5391 114.382L33.5391 114.382"/>
	<path fill="none" stroke="black" stroke-width="1" stroke-miterlimit="4" d="M35.5391 102.827L33.5391 102.827"/>
	<path fill="none" stroke="black" stroke-width="1" stroke-miterlimit="4" d="M35.5391 97.0504L33.5391 97.0504"/>
	<path fill="none" stroke="black" stroke-width="1" stroke-miterlimit="4" d="M35.5391 91.2733L33.5391 91.2733"/>
	<path fill="none" stroke="black" stroke-width="1" stroke-miterlimit="4" d="M35.5391 85.4962L33.5391 85.4962"/>
	<path fill="none" stroke="black" stroke-width="1" stroke-miterlimit="4" d="M35.5391 73.9421L33.5391 73.9421"/>
	<path fill="none" stroke="black" stroke-width="1" stroke-miterlimit="4" d="M35.5391 68.165L33.5391 68.165"/>
	<path fill="none" stroke="black" stroke-width="1" stroke-miterlimit="4" d="M35.5391 62.388L33.5391 62.388"/>
	<path fill="none" stroke="black" stroke-width="1" stroke-miterlimit="4" d="M35.5391 56.6109L33.5391 56.6109"/>
	<path fill="none" stroke="black" stroke-width="1" stroke-miterlimit="4" d="M35.5391 45.0568L33.5391 45.0568"/>
	<path fill="none" stroke="black" stroke-width="1" stroke-miterlimit="4" d="M35.5391 39.2797L33.5391 39.2797"/>
	<path fill="none" stroke="black" stroke-width="1" stroke-miterlimit="4" d="M35.5391 33.5027L33.5391 33.5027"/>
	<path fill="none" stroke="black" stroke-width="1" stroke-miterlimit="4" d="M35.5391 27.7256L33.5391 27.7256"/>
	<path fill="none" stroke="black" stroke-width="1" stroke-miterlimit="4" d="M35.5391 16.1715L33.5391 16.1715"/>
	<path fill="none" stroke="black" stroke-width="1" stroke-miterlimit="4" d="M35.5391 270.039L35.5391 15"/>
	<path fill="none" stroke="black" stroke-width="1" stroke-miterlimit="4" d="M785 270.039L785 15"/>
</svg>
