<?xml version="1.0" encoding="utf-8" ?>
<svg xmlns="http://www.w3.org/2000/svg" xmlns:xlink="http://www.w3.org/1999/xlink" width="800" height="300">
	<rect fill="white" width="800" height="300"/>
	<path fill="none" stroke="#010101" stroke-width="1" stroke-miterlimit="4" stroke-opacity="0.098039217" d="M69.6055 270.039L69.6055 15M118.272 270.039L118.272 15M166.938 270.039L166.938 15M215.604 270.039L215.604 15M264.271 270.039L264.271 15M312.937 270.039L312.937 15M361.603 270.039L361.603 15M410.27 270.039L410.27 15M458.936 270.039L458.936 15M507.602 270.039L507.602 15M556.268 270.039L556.268 15M604.935 270.039L604.935 15M653.601 270.039L653.601 15M702.267 270.039L702.267 15M750.934 270.039L750.934 15"/>
	<path fill="none" stroke="#010101" stroke-width="1" stroke-miterlimit="4" stroke-opacity="0.098039217" d="M35.5391 233.163L785 233.163M35.5391 185.593L785 185.593M35.5391 138.022L785 138.022M35.5391 90.4517L785 90.4517M35.5391 42.8812L785 42.8812"/>
	<clipPath id="cl_76">
		<rect x="35.539063" y="15" width="749.46094" height="255.03906"/>
	</clipPath>
	<g clip-path="url(#cl_76)">
		<path fill="none" stroke="#1F77B4" stroke-width="1" stroke-miterlimit="4" d="M69.6055 248.495L69.6055 249.002L69.6055 250.471L69.6055 253.406L69.6055 248.345L361.603 221.489L361.603 221.489L361.603 208.678L361.603 192.154L653.601 153.33L653.601 161.614L702.267 84.9363L702.267 79.2587L750.934 31.6781L750.934 31.633L750.934 97.0991"/>
		<ellipse fill="#1F77B4" cx="69.605469" cy="248.4955" rx="2.5" ry="2.5"/>
		<ellipse fill="#1F77B4" cx="69.605469" cy="249.00209" rx="2.5" ry="2.5"/>
		<ellipse fill="#1F77B4" cx="69.605469" cy="250.47072" rx="2.5" ry="2.5"/>
		<ellipse fill="#1F77B4" cx="69.605469" cy="253.40608" rx="2.5" ry="2.5"/>
		<ellipse fill="#1F77B4" cx="69.605469" cy="248.34538" rx="2.5" ry="2.5"/>
		<ellipse fill="#1F77B4" cx="361.60324" cy="221.48901" rx="2.5" ry="2.5"/>
		<ellipse fill="#1F77B4" cx="361.60324" cy="221.48901" rx="2.5" ry="2.5"/>
		<ellipse fill="#1F77B4" cx="361.60324" cy="208.67847" rx="2.5" ry="2.5"/>
		<ellipse fill="#1F77B4" cx="361.60324" cy="192.15424" rx="2.5" ry="2.5"/>
		<ellipse fill="#1F77B4" cx="653.60101" cy="153.32982" rx="2.5" ry="2.5"/>
		<ellipse fill="#1F77B4" cx="653.60101" cy="161.61414" rx="2.5" ry="2.5"/>
		<ellipse fill="#1F77B4" cx="702.26727" cy="84.936295" rx="2.5" ry="2.5"/>
		<ellipse fill="#1F77B4" cx="702.26727" cy="79.258652" rx="2.5" ry="2.5"/>
		<ellipse fill="#1F77B4" cx="750.93359" cy="31.67807" rx="2.5" ry="2.5"/>
		<ellipse fill="#1F77B4" cx="750.93359" cy="31.63298" rx="2.5" ry="2.5"/>
		<ellipse fill="#1F77B4" cx="750.93359" cy="97.099121" rx="2.5" ry="2.5"/>
	</g>
	<path fill="none" stroke="black" stroke-width="1" stroke-miterlimit="4" d="M69.6055 270.039L69.6055 274.039"/>
	<text transform="translate(69.6055 276.039)" font-size="12" font-family="Segoe UI" x="-6.46875, 0, " y="11.027344, ">
			25
	</text>
	<path fill="none" stroke="black" stroke-width="1" stroke-miterlimit="4" d="M118.272 270.039L118.272 274.039"/>
	<text transform="translate(118.272 276.039)" font-size="12" font-family="Segoe UI" x="-11.003906, -4.5351563, 1.9335938, 4.5351563, " y="11.027344, ">
			25.5
	</text>
	<path fill="none" stroke="black" stroke-width="1" stroke-miterlimit="4" d="M166.938 270.039L166.938 274.039"/>
	<text transform="translate(166.938 276.039)" font-size="12" font-family="Segoe UI" x="-6.46875, 0, " y="11.027344, ">
			26
	</text>
	<path fill="none" stroke="black" stroke-width="1" stroke-miterlimit="4" d="M215.604 270.039L215.604 274.039"/>
	<text transform="translate(215.604 276.039)" font-size="12" font-family="Segoe UI" x="-11.003906, -4.5351563, 1.9335938, 4.5351563, " y="11.027344, ">
			26.5
	</text>
	<path fill="none" stroke="black" stroke-width="1" stroke-miterlimit="4" d="M264.271 270.039L264.271 274.039"/>
	<text transform="translate(264.271 276.039)" font-size="12" font-family="Segoe UI" x="-6.46875, 0, " y="11.027344, ">
			27
	</text>
	<path fill="none" stroke="black" stroke-width="1" stroke-miterlimit="4" d="M312.937 270.039L312.937 274.039"/>
	<text transform="translate(312.937 276.039)" font-size="12" font-family="Segoe UI" x="-11.003906, -4.5351563, 1.9335938, 4.5351563, " y="11.027344, ">
			27.5
	</text>
	<path fill="none" stroke="black" stroke-width="1" stroke-miterlimit="4" d="M361.603 270.039L361.603 274.039"/>
	<text transform="translate(361.603 276.039)" font-size="12" font-family="Segoe UI" x="-6.46875, 0, " y="11.027344, ">
			28
	</text>
	<path fill="none" stroke="black" stroke-width="1" stroke-miterlimit="4" d="M410.27 270.039L410.27 274.039"/>
	<text transform="translate(410.27 276.039)" font-size="12" font-family="Segoe UI" x="-11.003906, -4.5351563, 1.9335938, 4.5351563, " y="11.027344, ">
			28.5
	</text>
	<path fill="none" stroke="black" stroke-width="1" stroke-miterlimit="4" d="M458.936 270.039L458.936 274.039"/>
	<text transform="translate(458.936 276.039)" font-size="12" font-family="Segoe UI" x="-6.46875, 0, " y="11.027344, ">
			29
	</text>
	<path fill="none" stroke="black" stroke-width="1" stroke-miterlimit="4" d="M507.602 270.039L507.602 274.039"/>
	<text transform="translate(507.602 276.039)" font-size="12" font-family="Segoe UI" x="-11.003906, -4.5351563, 1.9335938, 4.5351563, " y="11.027344, ">
			29.5
	</text>
	<path fill="none" stroke="black" stroke-width="1" stroke-miterlimit="4" d="M556.268 270.039L556.268 274.039"/>
	<text transform="translate(556.268 276.039)" font-size="12" font-family="Segoe UI" x="-6.46875, 0, " y="11.027344, ">
			30
	</text>
	<path fill="none" stroke="black" stroke-width="1" stroke-miterlimit="4" d="M604.935 270.039L604.935 274.039"/>
	<text transform="translate(604.935 276.039)" font-size="12" font-family="Segoe UI" x="-11.003906, -4.5351563, 1.9335938, 4.5351563, " y="11.027344, ">
			30.5
	</text>
	<path fill="none" stroke="black" stroke-width="1" stroke-miterlimit="4" d="M653.601 270.039L653.601 274.039"/>
	<text transform="translate(653.601 276.039)" font-size="12" font-family="Segoe UI" x="-6.46875, 0, " y="11.027344, ">
			31
	</text>
	<path fill="none" stroke="black" stroke-width="1" stroke-miterlimit="4" d="M702.267 270.039L702.267 274.039"/>
	<text transform="translate(702.267 276.039)" font-size="12" font-family="Segoe UI" x="-11.003906, -4.5351563, 1.9335938, 4.5351563, " y="11.027344, ">
			31.5
	</text>
	<path fill="none" stroke="black" stroke-width="1" stroke-miterlimit="4" d="M750.934 270.039L750.934 274.039"/>
	<text transform="translate(750.934 276.039)" font-size="12" font-family="Segoe UI" x="-6.46875, 0, " y="11.027344, ">
			32
	</text>
	<path fill="none" stroke="black" stroke-width="1" stroke-miterlimit="4" d="M40.4057 270.039L40.4057 272.039"/>
	<path fill="none" stroke="black" stroke-width="1" stroke-miterlimit="4" d="M50.139 270.039L50.139 272.039"/>
	<path fill="none" stroke="black" stroke-width="1" stroke-miterlimit="4" d="M59.8722 270.039L59.8722 272.039"/>
	<path fill="none" stroke="black" stroke-width="1" stroke-miterlimit="4" d="M79.3387 270.039L79.3387 272.039"/>
	<path fill="none" stroke="black" stroke-width="1" stroke-miterlimit="4" d="M89.072 270.039L89.072 272.039"/>
	<path fill="none" stroke="black" stroke-width="1" stroke-miterlimit="4" d="M98.8052 270.039L98.8052 272.039"/>
	<path fill="none" stroke="black" stroke-width="1" stroke-miterlimit="4" d="M108.539 270.039L108.539 272.039"/>
	<path fill="none" stroke="black" stroke-width="1" stroke-miterlimit="4" d="M128.005 270.039L128.005 272.039"/>
	<path fill="none" stroke="black" stroke-width="1" stroke-miterlimit="4" d="M137.738 270.039L137.738 272.039"/>
	<path fill="none" stroke="black" stroke-width="1" stroke-miterlimit="4" d="M147.472 270.039L147.472 272.039"/>
	<path fill="none" stroke="black" stroke-width="1" stroke-miterlimit="4" d="M157.205 270.039L157.205 272.039"/>
	<path fill="none" stroke="black" stroke-width="1" stroke-miterlimit="4" d="M176.671 270.039L176.671 272.039"/>
	<path fill="none" stroke="black" stroke-width="1" stroke-miterlimit="4" d="M186.405 270.039L186.405 272.039"/>
	<path fill="none" stroke="black" stroke-width="1" stroke-miterlimit="4" d="M196.138 270.039L196.138 272.039"/>
	<path fill="none" stroke="black" stroke-width="1" stroke-miterlimit="4" d="M205.871 270.039L205.871 272.039"/>
	<path fill="none" stroke="black" stroke-width="1" stroke-miterlimit="4" d="M225.338 270.039L225.338 272.039"/>
	<path fill="none" stroke="black" stroke-width="1" stroke-miterlimit="4" d="M235.071 270.039L235.071 272.039"/>
	<path fill="none" stroke="black" stroke-width="1" stroke-miterlimit="4" d="M244.804 270.039L244.804 272.039"/>
	<path fill="none" stroke="black" stroke-width="1" stroke-miterlimit="4" d="M254.537 270.039L254.537 272.039"/>
	<path fill="none" stroke="black" stroke-width="1" stroke-miterlimit="4" d="M274.004 270.039L274.004 272.039"/>
	<path fill="none" stroke="black" stroke-width="1" stroke-miterlimit="4" d="M283.737 270.039L283.737 272.039"/>
	<path fill="none" stroke="black" stroke-width="1" stroke-miterlimit="4" d="M293.47 270.039L293.47 272.039"/>
	<path fill="none" stroke="black" stroke-width="1" stroke-miterlimit="4" d="M303.204 270.039L303.204 272.039"/>
	<path fill="none" stroke="black" stroke-width="1" stroke-miterlimit="4" d="M322.67 270.039L322.67 272.039"/>
	<path fill="none" stroke="black" stroke-width="1" stroke-miterlimit="4" d="M332.403 270.039L332.403 272.039"/>
	<path fill="none" stroke="black" stroke-width="1" stroke-miterlimit="4" d="M342.137 270.039L342.137 272.039"/>
	<path fill="none" stroke="black" stroke-width="1" stroke-miterlimit="4" d="M351.87 270.039L351.87 272.039"/>
	<path fill="none" stroke="black" stroke-width="1" stroke-miterlimit="4" d="M371.336 270.039L371.336 272.039"/>
	<path fill="none" stroke="black" stroke-width="1" stroke-miterlimit="4" d="M381.07 270.039L381.07 272.039"/>
	<path fill="none" stroke="black" stroke-width="1" stroke-miterlimit="4" d="M390.803 270.039L390.803 272.039"/>
	<path fill="none" stroke="black" stroke-width="1" stroke-miterlimit="4" d="M400.536 270.039L400.536 272.039"/>
	<path fill="none" stroke="black" stroke-width="1" stroke-miterlimit="4" d="M420.003 270.039L420.003 272.039"/>
	<path fill="none" stroke="black" stroke-width="1" stroke-miterlimit="4" d="M429.736 270.039L429.736 272.039"/>
	<path fill="none" stroke="black" stroke-width="1" stroke-miterlimit="4" d="M439.469 270.039L439.469 272.039"/>
	<path fill="none" stroke="black" stroke-width="1" stroke-miterlimit="4" d="M449.203 270.039L449.203 272.039"/>
	<path fill="none" stroke="black" stroke-width="1" stroke-miterlimit="4" d="M468.669 270.039L468.669 272.039"/>
	<path fill="none" stroke="black" stroke-width="1" stroke-miterlimit="4" d="M478.402 270.039L478.402 272.039"/>
	<path fill="none" stroke="black" stroke-width="1" stroke-miterlimit="4" d="M488.136 270.039L488.136 272.039"/>
	<path fill="none" stroke="black" stroke-width="1" stroke-miterlimit="4" d="M497.869 270.039L497.869 272.039"/>
	<path fill="none" stroke="black" stroke-width="1" stroke-miterlimit="4" d="M517.335 270.039L517.335 272.039"/>
	<path fill="none" stroke="black" stroke-width="1" stroke-miterlimit="4" d="M527.069 270.039L527.069 272.039"/>
	<path fill="none" stroke="black" stroke-width="1" stroke-miterlimit="4" d="M536.802 270.039L536.802 272.039"/>
	<path fill="none" stroke="black" stroke-width="1" stroke-miterlimit="4" d="M546.535 270.039L546.535 272.039"/>
	<path fill="none" stroke="black" stroke-width="1" stroke-miterlimit="4" d="M566.002 270.039L566.002 272.039"/>
	<path fill="none" stroke="black" stroke-width="1" stroke-miterlimit="4" d="M575.735 270.039L575.735 272.039"/>
	<path fill="none" stroke="black" stroke-width="1" stroke-miterlimit="4" d="M585.468 270.039L585.468 272.039"/>
	<path fill="none" stroke="black" stroke-width="1" stroke-miterlimit="4" d="M595.201 270.039L595.201 272.039"/>
	<path fill="none" stroke="black" stroke-width="1" stroke-miterlimit="4" d="M614.668 270.039L614.668 272.039"/>
	<path fill="none" stroke="black" stroke-width="1" stroke-miterlimit="4" d="M624.401 270.039L624.401 272.039"/>
	<path fill="none" stroke="black" stroke-width="1" stroke-miterlimit="4" d="M634.134 270.039L634.134 272.039"/>
	<path fill="none" stroke="black" stroke-width="1" stroke-miterlimit="4" d="M643.868 270.039L643.868 272.039"/>
	<path fill="none" stroke="black" stroke-width="1" stroke-miterlimit="4" d="M663.334 270.039L663.334 272.039"/>
	<path fill="none" stroke="black" stroke-width="1" stroke-miterlimit="4" d="M673.068 270.039L673.068 272.039"/>
	<path fill="none" stroke="black" stroke-width="1" stroke-miterlimit="4" d="M682.801 270.039L682.801 272.039"/>
	<path fill="none" stroke="black" stroke-width="1" stroke-miterlimit="4" d="M692.534 270.039L692.534 272.039"/>
	<path fill="none" stroke="black" stroke-width="1" stroke-miterlimit="4" d="M712.001 270.039L712.001 272.039"/>
	<path fill="none" stroke="black" stroke-width="1" stroke-miterlimit="4" d="M721.734 270.039L721.734 272.039"/>
	<path fill="none" stroke="black" stroke-width="1" stroke-miterlimit="4" d="M731.467 270.039L731.467 272.039"/>
	<path fill="none" stroke="black" stroke-width="1" stroke-miterlimit="4" d="M741.2 270.039L741.2 272.039"/>
	<path fill="none" stroke="black" stroke-width="1" stroke-miterlimit="4" d="M760.667 270.039L760.667 272.039"/>
	<path fill="none" stroke="black" stroke-width="1" stroke-miterlimit="4" d="M770.4 270.039L770.4 272.039"/>
	<path fill="none" stroke="black" stroke-width="1" stroke-miterlimit="4" d="M780.133 270.039L780.133 272.039"/>
	<path fill="none" stroke="black" stroke-width="1" stroke-miterlimit="4" d="M35.5391 270.039L785 270.039"/>
	<path fill="none" stroke="black" stroke-width="1" stroke-miterlimit="4" d="M35.5391 15.1L785 15.1"/>
	<path fill="none" stroke="black" stroke-width="1" stroke-miterlimit="4" d="M35.5391 233.163L31.5391 233.163"/>
	<text transform="translate(26.5391 233.163)" font-size="12" font-family="Segoe UI" x="-15.539063, -9.0703125, -6.46875, " y="3.046875, ">
			2.5
	</text>
	<path fill="none" stroke="black" stroke-width="1" stroke-miterlimit="4" d="M35.5391 185.593L31.5391 185.593"/>
	<text transform="translate(26.5391 185.593)" font-size="12" font-family="Segoe UI" x="-6.46875, " y="3.046875, ">
			3
	</text>
	<path fill="none" stroke="black" stroke-width="1" stroke-miterlimit="4" d="M35.5391 138.022L31.5391 138.022"/>
	<text transform="translate(26.5391 138.022)" font-size="12" font-family="Segoe UI" x="-15.539063, -9.0703125, -6.46875, " y="3.046875, ">
			3.5
	</text>
	<path fill="none" stroke="black" stroke-width="1" stroke-miterlimit="4" d="M35.5391 90.4517L31.5391 90.4517"/>
	<text transform="translate(26.5391 90.4517)" font-size="12" font-family="Segoe UI" x="-6.46875, " y="3.046875, ">
			4
	</text>
	<path fill="none" stroke="black" stroke-width="1" stroke-miterlimit="4" d="M35.5391 42.8812L31.5391 42.8812"/>
	<text transform="translate(26.5391 42.8812)" font-size="12" font-family="Segoe UI" x="-15.539063, -9.0703125, -6.46875, " y="3.046875, ">
			4.5
	</text>
	<path fill="none" stroke="black" stroke-width="1" stroke-miterlimit="4" d="M35.5391 261.706L33.5391 261.706"/>
	<path fill="none" stroke="black" stroke-width="1" stroke-miterlimit="4" d="M35.5391 252.192L33.5391 252.192"/>
	<path fill="none" stroke="black" stroke-width="1" stroke-miterlimit="4" d="M35.5391 242.677L33.5391 242.677"/>
	<path fill="none" stroke="black" stroke-width="1" stroke-miterlimit="4" d="M35.5391 223.649L33.5391 223.649"/>
	<path fill="none" stroke="black" stroke-width="1" stroke-miterlimit="4" d="M35.5391 214.135L33.5391 214.135"/>
	<path fill="none" stroke="black" stroke-width="1" stroke-miterlimit="4" d="M35.5391 204.621L33.5391 204.621"/>
	<path fill="none" stroke="black" stroke-width="1" stroke-miterlimit="4" d="M35.5391 195.107L33.5391 195.107"/>
	<path fill="none" stroke="black" stroke-width="1" stroke-miterlimit="4" d="M35.5391 176.079L33.5391 176.079"/>
	<path fill="none" stroke="black" stroke-width="1" stroke-miterlimit="4" d="M35.5391 166.565L33.5391 166.565"/>
	<path fill="none" stroke="black" stroke-width="1" stroke-miterlimit="4" d="M35.5391 157.05L33.5391 157.05"/>
	<path fill="none" stroke="black" stroke-width="1" stroke-miterlimit="4" d="M35.5391 147.536L33.5391 147.536"/>
	<path fill="none" stroke="black" stroke-width="1" stroke-miterlimit="4" d="M35.5391 128.508L33.5391 128.508"/>
	<path fill="none" stroke="black" stroke-width="1" stroke-miterlimit="4" d="M35.5391 118.994L33.5391 118.994"/>
	<path fill="none" stroke="black" stroke-width="1" stroke-miterlimit="4" d="M35.5391 109.48L33.5391 109.48"/>
	<path fill="none" stroke="black" stroke-width="1" stroke-miterlimit="4" d="M35.5391 99.9658L33.5391 99.9658"/>
	<path fill="none" stroke="black" stroke-width="1" stroke-miterlimit="4" d="M35.5391 80.9376L33.5391 80.9376"/>
	<path fill="none" stroke="black" stroke-width="1" stroke-miterlimit="4" d="M35.5391 71.4235L33.5391 71.4235"/>
	<path fill="none" stroke="black" stroke-width="1" stroke-miterlimit="4" d="M35.5391 61.9094L33.5391 61.9094"/>
	<path fill="none" stroke="black" stroke-width="1" stroke-miterlimit="4" d="M35.5391 52.3953L33.5391 52.3953"/>
	<path fill="none" stroke="black" stroke-width="1" stroke-miterlimit="4" d="M35.5391 33.3671L33.5391 33.3671"/>
	<path fill="none" stroke="black" stroke-width="1" stroke-miterlimit="4" d="M35.5391 23.853L33.5391 23.853"/>
	<path fill="none" stroke="black" stroke-width="1" stroke-miterlimit="4" d="M35.5391 270.039L35.5391 15"/>
	<path fill="none" stroke="black" stroke-width="1" stroke-miterlimit="4" d="M785 270.039L785 15"/>
</svg>
