<?xml version="1.0" encoding="utf-8" ?>
<svg xmlns="http://www.w3.org/2000/svg" xmlns:xlink="http://www.w3.org/1999/xlink" width="800" height="300">
	<rect fill="white" width="800" height="300"/>
	<path fill="none" stroke="#010101" stroke-width="1" stroke-miterlimit="4" stroke-opacity="0.098039217" d="M36.2537 270.039L36.2537 15M83.8991 270.039L83.8991 15M131.544 270.039L131.544 15M179.19 270.039L179.19 15M226.835 270.039L226.835 15M274.48 270.039L274.48 15M322.126 270.039L322.126 15M369.771 270.039L369.771 15M417.416 270.039L417.416 15M465.062 270.039L465.062 15M512.707 270.039L512.707 15M560.352 270.039L560.352 15M607.998 270.039L607.998 15M655.643 270.039L655.643 15M703.288 270.039L703.288 15M750.934 270.039L750.934 15"/>
	<path fill="none" stroke="#010101" stroke-width="1" stroke-miterlimit="4" stroke-opacity="0.098039217" d="M35.5391 254.466L785 254.466M35.5391 209.213L785 209.213M35.5391 163.96L785 163.96M35.5391 118.707L785 118.707M35.5391 73.4544L785 73.4544M35.5391 28.2015L785 28.2015"/>
	<clipPath id="cl_64">
		<rect x="35.539063" y="15" width="749.46094" height="255.03906"/>
	</clipPath>
	<g clip-path="url(#cl_64)">
		<path fill="none" stroke="#1F77B4" stroke-width="1" stroke-miterlimit="4" d="M69.6055 253.406L69.6055 253.406L83.8991 249.798L83.8991 249.798L83.8991 249.798L83.8991 249.798L83.8991 249.798L83.8991 249.798L83.8991 249.798L83.8991 249.798L83.8991 249.798L131.544 237.394L131.544 240.051L131.544 237.394L131.544 231.865L131.544 231.865L131.544 237.394L131.544 237.394L131.544 237.394L179.19 216.477L179.19 216.477L179.19 216.477L179.19 216.477L179.19 216.782L179.19 216.782L179.19 216.477L179.19 216.477L179.19 216.782L179.19 221.456L179.19 216.782L179.19 216.782L179.19 205.22L179.19 214.67L179.19 207.123L179.19 207.123L179.19 207.123L179.19 207.123L179.19 207.123L179.19 207.123L179.19 201.979L179.19 213.81L179.19 207.422L203.012 207.127L226.835 231.18L226.835 190.969L226.835 190.969L226.835 190.969L226.835 190.969L226.835 190.969L226.835 190.969L226.835 217.406L226.835 217.406L322.126 186.648L322.126 189.542L322.126 189.542L322.126 189.542L322.126 188.933L322.126 188.849L322.126 186.558L322.126 188.933L322.126 188.535L322.126 188.535L322.126 190.004L322.126 205.101L322.126 205.101L322.126 190.004L322.126 190.004L322.126 190.004L322.126 196.385L322.126 196.385L322.126 205.101L322.126 205.101L322.126 196.385L322.126 196.385L322.126 196.091L322.126 179.299L322.126 171.499L369.771 191.778L369.771 180.826L369.771 161.341L417.416 180.826L417.416 183.784L417.416 185.262L465.062 94.7161L465.062 94.7161L465.062 146.65L465.062 94.7161L465.062 94.7161L655.643 31.633L655.643 53.5909L655.643 43.5881L655.643 79.5693L703.288 69.0714L750.934 49.0914"/>
		<ellipse fill="#1F77B4" cx="69.605469" cy="253.40608" rx="2.5" ry="2.5"/>
		<ellipse fill="#1F77B4" cx="69.605469" cy="253.40608" rx="2.5" ry="2.5"/>
		<ellipse fill="#1F77B4" cx="83.899063" cy="249.79822" rx="2.5" ry="2.5"/>
		<ellipse fill="#1F77B4" cx="83.899063" cy="249.79822" rx="2.5" ry="2.5"/>
		<ellipse fill="#1F77B4" cx="83.899063" cy="249.79822" rx="2.5" ry="2.5"/>
		<ellipse fill="#1F77B4" cx="83.899063" cy="249.79822" rx="2.5" ry="2.5"/>
		<ellipse fill="#1F77B4" cx="83.899063" cy="249.79822" rx="2.5" ry="2.5"/>
		<ellipse fill="#1F77B4" cx="83.899063" cy="249.79822" rx="2.5" ry="2.5"/>
		<ellipse fill="#1F77B4" cx="83.899063" cy="249.79822" rx="2.5" ry="2.5"/>
		<ellipse fill="#1F77B4" cx="83.899063" cy="249.79822" rx="2.5" ry="2.5"/>
		<ellipse fill="#1F77B4" cx="83.899063" cy="249.79822" rx="2.5" ry="2.5"/>
		<ellipse fill="#1F77B4" cx="131.54439" cy="237.39392" rx="2.5" ry="2.5"/>
		<ellipse fill="#1F77B4" cx="131.54439" cy="240.05054" rx="2.5" ry="2.5"/>
		<ellipse fill="#1F77B4" cx="131.54439" cy="237.39392" rx="2.5" ry="2.5"/>
		<ellipse fill="#1F77B4" cx="131.54439" cy="231.86549" rx="2.5" ry="2.5"/>
		<ellipse fill="#1F77B4" cx="131.54439" cy="231.86549" rx="2.5" ry="2.5"/>
		<ellipse fill="#1F77B4" cx="131.54439" cy="237.39392" rx="2.5" ry="2.5"/>
		<ellipse fill="#1F77B4" cx="131.54439" cy="237.39392" rx="2.5" ry="2.5"/>
		<ellipse fill="#1F77B4" cx="131.54439" cy="237.39392" rx="2.5" ry="2.5"/>
		<ellipse fill="#1F77B4" cx="179.18971" cy="216.47656" rx="2.5" ry="2.5"/>
		<ellipse fill="#1F77B4" cx="179.18971" cy="216.47656" rx="2.5" ry="2.5"/>
		<ellipse fill="#1F77B4" cx="179.18971" cy="216.47656" rx="2.5" ry="2.5"/>
		<ellipse fill="#1F77B4" cx="179.18971" cy="216.47656" rx="2.5" ry="2.5"/>
		<ellipse fill="#1F77B4" cx="179.18971" cy="216.78178" rx="2.5" ry="2.5"/>
		<ellipse fill="#1F77B4" cx="179.18971" cy="216.78178" rx="2.5" ry="2.5"/>
		<ellipse fill="#1F77B4" cx="179.18971" cy="216.47656" rx="2.5" ry="2.5"/>
		<ellipse fill="#1F77B4" cx="179.18971" cy="216.47656" rx="2.5" ry="2.5"/>
		<ellipse fill="#1F77B4" cx="179.18971" cy="216.78178" rx="2.5" ry="2.5"/>
		<ellipse fill="#1F77B4" cx="179.18971" cy="221.45596" rx="2.5" ry="2.5"/>
		<ellipse fill="#1F77B4" cx="179.18971" cy="216.78178" rx="2.5" ry="2.5"/>
		<ellipse fill="#1F77B4" cx="179.18971" cy="216.78178" rx="2.5" ry="2.5"/>
		<ellipse fill="#1F77B4" cx="179.18971" cy="205.2204" rx="2.5" ry="2.5"/>
		<ellipse fill="#1F77B4" cx="179.18971" cy="214.67023" rx="2.5" ry="2.5"/>
		<ellipse fill="#1F77B4" cx="179.18971" cy="207.12309" rx="2.5" ry="2.5"/>
		<ellipse fill="#1F77B4" cx="179.18971" cy="207.12309" rx="2.5" ry="2.5"/>
		<ellipse fill="#1F77B4" cx="179.18971" cy="207.12309" rx="2.5" ry="2.5"/>
		<ellipse fill="#1F77B4" cx="179.18971" cy="207.12309" rx="2.5" ry="2.5"/>
		<ellipse fill="#1F77B4" cx="179.18971" cy="207.12309" rx="2.5" ry="2.5"/>
		<ellipse fill="#1F77B4" cx="179.18971" cy="207.12309" rx="2.5" ry="2.5"/>
		<ellipse fill="#1F77B4" cx="179.18971" cy="201.97888" rx="2.5" ry="2.5"/>
		<ellipse fill="#1F77B4" cx="179.18971" cy="213.8101" rx="2.5" ry="2.5"/>
		<ellipse fill="#1F77B4" cx="179.18971" cy="207.42206" rx="2.5" ry="2.5"/>
		<ellipse fill="#1F77B4" cx="203.01237" cy="207.12683" rx="2.5" ry="2.5"/>
		<ellipse fill="#1F77B4" cx="226.83504" cy="231.18002" rx="2.5" ry="2.5"/>
		<ellipse fill="#1F77B4" cx="226.83504" cy="190.96945" rx="2.5" ry="2.5"/>
		<ellipse fill="#1F77B4" cx="226.83504" cy="190.96945" rx="2.5" ry="2.5"/>
		<ellipse fill="#1F77B4" cx="226.83504" cy="190.96945" rx="2.5" ry="2.5"/>
		<ellipse fill="#1F77B4" cx="226.83504" cy="190.96945" rx="2.5" ry="2.5"/>
		<ellipse fill="#1F77B4" cx="226.83504" cy="190.96945" rx="2.5" ry="2.5"/>
		<ellipse fill="#1F77B4" cx="226.83504" cy="190.96945" rx="2.5" ry="2.5"/>
		<ellipse fill="#1F77B4" cx="226.83504" cy="217.40622" rx="2.5" ry="2.5"/>
		<ellipse fill="#1F77B4" cx="226.83504" cy="217.40622" rx="2.5" ry="2.5"/>
		<ellipse fill="#1F77B4" cx="322.12567" cy="186.64754" rx="2.5" ry="2.5"/>
		<ellipse fill="#1F77B4" cx="322.12567" cy="189.54181" rx="2.5" ry="2.5"/>
		<ellipse fill="#1F77B4" cx="322.12567" cy="189.54181" rx="2.5" ry="2.5"/>
		<ellipse fill="#1F77B4" cx="322.12567" cy="189.54181" rx="2.5" ry="2.5"/>
		<ellipse fill="#1F77B4" cx="322.12567" cy="188.93341" rx="2.5" ry="2.5"/>
		<ellipse fill="#1F77B4" cx="322.12567" cy="188.84921" rx="2.5" ry="2.5"/>
		<ellipse fill="#1F77B4" cx="322.12567" cy="186.5576" rx="2.5" ry="2.5"/>
		<ellipse fill="#1F77B4" cx="322.12567" cy="188.93341" rx="2.5" ry="2.5"/>
		<ellipse fill="#1F77B4" cx="322.12567" cy="188.53496" rx="2.5" ry="2.5"/>
		<ellipse fill="#1F77B4" cx="322.12567" cy="188.53496" rx="2.5" ry="2.5"/>
		<ellipse fill="#1F77B4" cx="322.12567" cy="190.00375" rx="2.5" ry="2.5"/>
		<ellipse fill="#1F77B4" cx="322.12567" cy="205.10144" rx="2.5" ry="2.5"/>
		<ellipse fill="#1F77B4" cx="322.12567" cy="205.10144" rx="2.5" ry="2.5"/>
		<ellipse fill="#1F77B4" cx="322.12567" cy="190.00375" rx="2.5" ry="2.5"/>
		<ellipse fill="#1F77B4" cx="322.12567" cy="190.00375" rx="2.5" ry="2.5"/>
		<ellipse fill="#1F77B4" cx="322.12567" cy="190.00375" rx="2.5" ry="2.5"/>
		<ellipse fill="#1F77B4" cx="322.12567" cy="196.38544" rx="2.5" ry="2.5"/>
		<ellipse fill="#1F77B4" cx="322.12567" cy="196.38544" rx="2.5" ry="2.5"/>
		<ellipse fill="#1F77B4" cx="322.12567" cy="205.10144" rx="2.5" ry="2.5"/>
		<ellipse fill="#1F77B4" cx="322.12567" cy="205.10144" rx="2.5" ry="2.5"/>
		<ellipse fill="#1F77B4" cx="322.12567" cy="196.38544" rx="2.5" ry="2.5"/>
		<ellipse fill="#1F77B4" cx="322.12567" cy="196.38544" rx="2.5" ry="2.5"/>
		<ellipse fill="#1F77B4" cx="322.12567" cy="196.09137" rx="2.5" ry="2.5"/>
		<ellipse fill="#1F77B4" cx="322.12567" cy="179.29907" rx="2.5" ry="2.5"/>
		<ellipse fill="#1F77B4" cx="322.12567" cy="171.4993" rx="2.5" ry="2.5"/>
		<ellipse fill="#1F77B4" cx="369.771" cy="191.77777" rx="2.5" ry="2.5"/>
		<ellipse fill="#1F77B4" cx="369.771" cy="180.82593" rx="2.5" ry="2.5"/>
		<ellipse fill="#1F77B4" cx="369.771" cy="161.34134" rx="2.5" ry="2.5"/>
		<ellipse fill="#1F77B4" cx="417.41632" cy="180.82593" rx="2.5" ry="2.5"/>
		<ellipse fill="#1F77B4" cx="417.41632" cy="183.78409" rx="2.5" ry="2.5"/>
		<ellipse fill="#1F77B4" cx="417.41632" cy="185.26205" rx="2.5" ry="2.5"/>
		<ellipse fill="#1F77B4" cx="465.06165" cy="94.716141" rx="2.5" ry="2.5"/>
		<ellipse fill="#1F77B4" cx="465.06165" cy="94.716141" rx="2.5" ry="2.5"/>
		<ellipse fill="#1F77B4" cx="465.06165" cy="146.65015" rx="2.5" ry="2.5"/>
		<ellipse fill="#1F77B4" cx="465.06165" cy="94.716141" rx="2.5" ry="2.5"/>
		<ellipse fill="#1F77B4" cx="465.06165" cy="94.716141" rx="2.5" ry="2.5"/>
		<ellipse fill="#1F77B4" cx="655.64294" cy="31.63298" rx="2.5" ry="2.5"/>
		<ellipse fill="#1F77B4" cx="655.64294" cy="53.590866" rx="2.5" ry="2.5"/>
		<ellipse fill="#1F77B4" cx="655.64294" cy="43.588058" rx="2.5" ry="2.5"/>
		<ellipse fill="#1F77B4" cx="655.64294" cy="79.569321" rx="2.5" ry="2.5"/>
		<ellipse fill="#1F77B4" cx="703.28827" cy="69.071442" rx="2.5" ry="2.5"/>
		<ellipse fill="#1F77B4" cx="750.93359" cy="49.091415" rx="2.5" ry="2.5"/>
	</g>
	<path fill="none" stroke="black" stroke-width="1" stroke-miterlimit="4" d="M36.2537 270.039L36.2537 274.039"/>
	<text transform="translate(36.2537 276.039)" font-size="12" font-family="Segoe UI" x="-6.46875, 0, " y="11.027344, ">
			15
	</text>
	<path fill="none" stroke="black" stroke-width="1" stroke-miterlimit="4" d="M83.8991 270.039L83.8991 274.039"/>
	<text transform="translate(83.8991 276.039)" font-size="12" font-family="Segoe UI" x="-6.46875, 0, " y="11.027344, ">
			16
	</text>
	<path fill="none" stroke="black" stroke-width="1" stroke-miterlimit="4" d="M131.544 270.039L131.544 274.039"/>
	<text transform="translate(131.544 276.039)" font-size="12" font-family="Segoe UI" x="-6.46875, 0, " y="11.027344, ">
			17
	</text>
	<path fill="none" stroke="black" stroke-width="1" stroke-miterlimit="4" d="M179.19 270.039L179.19 274.039"/>
	<text transform="translate(179.19 276.039)" font-size="12" font-family="Segoe UI" x="-6.46875, 0, " y="11.027344, ">
			18
	</text>
	<path fill="none" stroke="black" stroke-width="1" stroke-miterlimit="4" d="M226.835 270.039L226.835 274.039"/>
	<text transform="translate(226.835 276.039)" font-size="12" font-family="Segoe UI" x="-6.46875, 0, " y="11.027344, ">
			19
	</text>
	<path fill="none" stroke="black" stroke-width="1" stroke-miterlimit="4" d="M274.48 270.039L274.48 274.039"/>
	<text transform="translate(274.48 276.039)" font-size="12" font-family="Segoe UI" x="-6.46875, 0, " y="11.027344, ">
			20
	</text>
	<path fill="none" stroke="black" stroke-width="1" stroke-miterlimit="4" d="M322.126 270.039L322.126 274.039"/>
	<text transform="translate(322.126 276.039)" font-size="12" font-family="Segoe UI" x="-6.46875, 0, " y="11.027344, ">
			21
	</text>
	<path fill="none" stroke="black" stroke-width="1" stroke-miterlimit="4" d="M369.771 270.039L369.771 274.039"/>
	<text transform="translate(369.771 276.039)" font-size="12" font-family="Segoe UI" x="-6.46875, 0, " y="11.027344, ">
			22
	</text>
	<path fill="none" stroke="black" stroke-width="1" stroke-miterlimit="4" d="M417.416 270.039L417.416 274.039"/>
	<text transform="translate(417.416 276.039)" font-size="12" font-family="Segoe UI" x="-6.46875, 0, " y="11.027344, ">
			23
	</text>
	<path fill="none" stroke="black" stroke-width="1" stroke-miterlimit="4" d="M465.062 270.039L465.062 274.039"/>
	<text transform="translate(465.062 276.039)" font-size="12" font-family="Segoe UI" x="-6.46875, 0, " y="11.027344, ">
			24
	</text>
	<path fill="none" stroke="black" stroke-width="1" stroke-miterlimit="4" d="M512.707 270.039L512.707 274.039"/>
	<text transform="translate(512.707 276.039)" font-size="12" font-family="Segoe UI" x="-6.46875, 0, " y="11.027344, ">
			25
	</text>
	<path fill="none" stroke="black" stroke-width="1" stroke-miterlimit="4" d="M560.352 270.039L560.352 274.039"/>
	<text transform="translate(560.352 276.039)" font-size="12" font-family="Segoe UI" x="-6.46875, 0, " y="11.027344, ">
			26
	</text>
	<path fill="none" stroke="black" stroke-width="1" stroke-miterlimit="4" d="M607.998 270.039L607.998 274.039"/>
	<text transform="translate(607.998 276.039)" font-size="12" font-family="Segoe UI" x="-6.46875, 0, " y="11.027344, ">
			27
	</text>
	<path fill="none" stroke="black" stroke-width="1" stroke-miterlimit="4" d="M655.643 270.039L655.643 274.039"/>
	<text transform="translate(655.643 276.039)" font-size="12" font-family="Segoe UI" x="-6.46875, 0, " y="11.027344, ">
			28
	</text>
	<path fill="none" stroke="black" stroke-width="1" stroke-miterlimit="4" d="M703.288 270.039L703.288 274.039"/>
	<text transform="translate(703.288 276.039)" font-size="12" font-family="Segoe UI" x="-6.46875, 0, " y="11.027344, ">
			29
	</text>
	<path fill="none" stroke="black" stroke-width="1" stroke-miterlimit="4" d="M750.934 270.039L750.934 274.039"/>
	<text transform="translate(750.934 276.039)" font-size="12" font-family="Segoe UI" x="-6.46875, 0, " y="11.027344, ">
			30
	</text>
	<path fill="none" stroke="black" stroke-width="1" stroke-miterlimit="4" d="M45.7828 270.039L45.7828 272.039"/>
	<path fill="none" stroke="black" stroke-width="1" stroke-miterlimit="4" d="M55.3119 270.039L55.3119 272.039"/>
	<path fill="none" stroke="black" stroke-width="1" stroke-miterlimit="4" d="M64.8409 270.039L64.8409 272.039"/>
	<path fill="none" stroke="black" stroke-width="1" stroke-miterlimit="4" d="M74.37 270.039L74.37 272.039"/>
	<path fill="none" stroke="black" stroke-width="1" stroke-miterlimit="4" d="M93.4281 270.039L93.4281 272.039"/>
	<path fill="none" stroke="black" stroke-width="1" stroke-miterlimit="4" d="M102.957 270.039L102.957 272.039"/>
	<path fill="none" stroke="black" stroke-width="1" stroke-miterlimit="4" d="M112.486 270.039L112.486 272.039"/>
	<path fill="none" stroke="black" stroke-width="1" stroke-miterlimit="4" d="M122.015 270.039L122.015 272.039"/>
	<path fill="none" stroke="black" stroke-width="1" stroke-miterlimit="4" d="M141.073 270.039L141.073 272.039"/>
	<path fill="none" stroke="black" stroke-width="1" stroke-miterlimit="4" d="M150.603 270.039L150.603 272.039"/>
	<path fill="none" stroke="black" stroke-width="1" stroke-miterlimit="4" d="M160.132 270.039L160.132 272.039"/>
	<path fill="none" stroke="black" stroke-width="1" stroke-miterlimit="4" d="M169.661 270.039L169.661 272.039"/>
	<path fill="none" stroke="black" stroke-width="1" stroke-miterlimit="4" d="M188.719 270.039L188.719 272.039"/>
	<path fill="none" stroke="black" stroke-width="1" stroke-miterlimit="4" d="M198.248 270.039L198.248 272.039"/>
	<path fill="none" stroke="black" stroke-width="1" stroke-miterlimit="4" d="M207.777 270.039L207.777 272.039"/>
	<path fill="none" stroke="black" stroke-width="1" stroke-miterlimit="4" d="M217.306 270.039L217.306 272.039"/>
	<path fill="none" stroke="black" stroke-width="1" stroke-miterlimit="4" d="M236.364 270.039L236.364 272.039"/>
	<path fill="none" stroke="black" stroke-width="1" stroke-miterlimit="4" d="M245.893 270.039L245.893 272.039"/>
	<path fill="none" stroke="black" stroke-width="1" stroke-miterlimit="4" d="M255.422 270.039L255.422 272.039"/>
	<path fill="none" stroke="black" stroke-width="1" stroke-miterlimit="4" d="M264.951 270.039L264.951 272.039"/>
	<path fill="none" stroke="black" stroke-width="1" stroke-miterlimit="4" d="M284.009 270.039L284.009 272.039"/>
	<path fill="none" stroke="black" stroke-width="1" stroke-miterlimit="4" d="M293.538 270.039L293.538 272.039"/>
	<path fill="none" stroke="black" stroke-width="1" stroke-miterlimit="4" d="M303.068 270.039L303.068 272.039"/>
	<path fill="none" stroke="black" stroke-width="1" stroke-miterlimit="4" d="M312.597 270.039L312.597 272.039"/>
	<path fill="none" stroke="black" stroke-width="1" stroke-miterlimit="4" d="M331.655 270.039L331.655 272.039"/>
	<path fill="none" stroke="black" stroke-width="1" stroke-miterlimit="4" d="M341.184 270.039L341.184 272.039"/>
	<path fill="none" stroke="black" stroke-width="1" stroke-miterlimit="4" d="M350.713 270.039L350.713 272.039"/>
	<path fill="none" stroke="black" stroke-width="1" stroke-miterlimit="4" d="M360.242 270.039L360.242 272.039"/>
	<path fill="none" stroke="black" stroke-width="1" stroke-miterlimit="4" d="M379.3 270.039L379.3 272.039"/>
	<path fill="none" stroke="black" stroke-width="1" stroke-miterlimit="4" d="M388.829 270.039L388.829 272.039"/>
	<path fill="none" stroke="black" stroke-width="1" stroke-miterlimit="4" d="M398.358 270.039L398.358 272.039"/>
	<path fill="none" stroke="black" stroke-width="1" stroke-miterlimit="4" d="M407.887 270.039L407.887 272.039"/>
	<path fill="none" stroke="black" stroke-width="1" stroke-miterlimit="4" d="M426.945 270.039L426.945 272.039"/>
	<path fill="none" stroke="black" stroke-width="1" stroke-miterlimit="4" d="M436.474 270.039L436.474 272.039"/>
	<path fill="none" stroke="black" stroke-width="1" stroke-miterlimit="4" d="M446.004 270.039L446.004 272.039"/>
	<path fill="none" stroke="black" stroke-width="1" stroke-miterlimit="4" d="M455.533 270.039L455.533 272.039"/>
	<path fill="none" stroke="black" stroke-width="1" stroke-miterlimit="4" d="M474.591 270.039L474.591 272.039"/>
	<path fill="none" stroke="black" stroke-width="1" stroke-miterlimit="4" d="M484.12 270.039L484.12 272.039"/>
	<path fill="none" stroke="black" stroke-width="1" stroke-miterlimit="4" d="M493.649 270.039L493.649 272.039"/>
	<path fill="none" stroke="black" stroke-width="1" stroke-miterlimit="4" d="M503.178 270.039L503.178 272.039"/>
	<path fill="none" stroke="black" stroke-width="1" stroke-miterlimit="4" d="M522.236 270.039L522.236 272.039"/>
	<path fill="none" stroke="black" stroke-width="1" stroke-miterlimit="4" d="M531.765 270.039L531.765 272.039"/>
	<path fill="none" stroke="black" stroke-width="1" stroke-miterlimit="4" d="M541.294 270.039L541.294 272.039"/>
	<path fill="none" stroke="black" stroke-width="1" stroke-miterlimit="4" d="M550.823 270.039L550.823 272.039"/>
	<path fill="none" stroke="black" stroke-width="1" stroke-miterlimit="4" d="M569.881 270.039L569.881 272.039"/>
	<path fill="none" stroke="black" stroke-width="1" stroke-miterlimit="4" d="M579.41 270.039L579.41 272.039"/>
	<path fill="none" stroke="black" stroke-width="1" stroke-miterlimit="4" d="M588.94 270.039L588.94 272.039"/>
	<path fill="none" stroke="black" stroke-width="1" stroke-miterlimit="4" d="M598.469 270.039L598.469 272.039"/>
	<path fill="none" stroke="black" stroke-width="1" stroke-miterlimit="4" d="M617.527 270.039L617.527 272.039"/>
	<path fill="none" stroke="black" stroke-width="1" stroke-miterlimit="4" d="M627.056 270.039L627.056 272.039"/>
	<path fill="none" stroke="black" stroke-width="1" stroke-miterlimit="4" d="M636.585 270.039L636.585 272.039"/>
	<path fill="none" stroke="black" stroke-width="1" stroke-miterlimit="4" d="M646.114 270.039L646.114 272.039"/>
	<path fill="none" stroke="black" stroke-width="1" stroke-miterlimit="4" d="M665.172 270.039L665.172 272.039"/>
	<path fill="none" stroke="black" stroke-width="1" stroke-miterlimit="4" d="M674.701 270.039L674.701 272.039"/>
	<path fill="none" stroke="black" stroke-width="1" stroke-miterlimit="4" d="M684.23 270.039L684.23 272.039"/>
	<path fill="none" stroke="black" stroke-width="1" stroke-miterlimit="4" d="M693.759 270.039L693.759 272.039"/>
	<path fill="none" stroke="black" stroke-width="1" stroke-miterlimit="4" d="M712.817 270.039L712.817 272.039"/>
	<path fill="none" stroke="black" stroke-width="1" stroke-miterlimit="4" d="M722.346 270.039L722.346 272.039"/>
	<path fill="none" stroke="black" stroke-width="1" stroke-miterlimit="4" d="M731.875 270.039L731.875 272.039"/>
	<path fill="none" stroke="black" stroke-width="1" stroke-miterlimit="4" d="M741.405 270.039L741.405 272.039"/>
	<path fill="none" stroke="black" stroke-width="1" stroke-miterlimit="4" d="M760.463 270.039L760.463 272.039"/>
	<path fill="none" stroke="black" stroke-width="1" stroke-miterlimit="4" d="M769.992 270.039L769.992 272.039"/>
	<path fill="none" stroke="black" stroke-width="1" stroke-miterlimit="4" d="M779.521 270.039L779.521 272.039"/>
	<path fill="none" stroke="black" stroke-width="1" stroke-miterlimit="4" d="M35.5391 270.039L785 270.039"/>
	<path fill="none" stroke="black" stroke-width="1" stroke-miterlimit="4" d="M35.5391 15.1L785 15.1"/>
	<path fill="none" stroke="black" stroke-width="1" stroke-miterlimit="4" d="M35.5391 254.466L31.5391 254.466"/>
	<text transform="translate(26.5391 254.466)" font-size="12" font-family="Segoe UI" x="-15.539063, -9.0703125, -6.46875, " y="3.046875, ">
			0.5
	</text>
	<path fill="none" stroke="black" stroke-width="1" stroke-miterlimit="4" d="M35.5391 209.213L31.5391 209.213"/>
	<text transform="translate(26.5391 209.213)" font-size="12" font-family="Segoe UI" x="-6.46875, " y="3.046875, ">
			1
	</text>
	<path fill="none" stroke="black" stroke-width="1" stroke-miterlimit="4" d="M35.5391 163.96L31.5391 163.96"/>
	<text transform="translate(26.5391 163.96)" font-size="12" font-family="Segoe UI" x="-15.539063, -9.0703125, -6.46875, " y="3.046875, ">
			1.5
	</text>
	<path fill="none" stroke="black" stroke-width="1" stroke-miterlimit="4" d="M35.5391 118.707L31.5391 118.707"/>
	<text transform="translate(26.5391 118.707)" font-size="12" font-family="Segoe UI" x="-6.46875, " y="3.046875, ">
			2
	</text>
	<path fill="none" stroke="black" stroke-width="1" stroke-miterlimit="4" d="M35.5391 73.4544L31.5391 73.4544"/>
	<text transform="translate(26.5391 73.4544)" font-size="12" font-family="Segoe UI" x="-15.539063, -9.0703125, -6.46875, " y="3.046875, ">
			2.5
	</text>
	<path fill="none" stroke="black" stroke-width="1" stroke-miterlimit="4" d="M35.5391 28.2015L31.5391 28.2015"/>
	<text transform="translate(26.5391 28.2015)" font-size="12" font-family="Segoe UI" x="-6.46875, " y="3.046875, ">
			3
	</text>
	<path fill="none" stroke="black" stroke-width="1" stroke-miterlimit="4" d="M35.5391 263.516L33.5391 263.516"/>
	<path fill="none" stroke="black" stroke-width="1" stroke-miterlimit="4" d="M35.5391 245.415L33.5391 245.415"/>
	<path fill="none" stroke="black" stroke-width="1" stroke-miterlimit="4" d="M35.5391 236.365L33.5391 236.365"/>
	<path fill="none" stroke="black" stroke-width="1" stroke-miterlimit="4" d="M35.5391 227.314L33.5391 227.314"/>
	<path fill="none" stroke="black" stroke-width="1" stroke-miterlimit="4" d="M35.5391 218.264L33.5391 218.264"/>
	<path fill="none" stroke="black" stroke-width="1" stroke-miterlimit="4" d="M35.5391 200.162L33.5391 200.162"/>
	<path fill="none" stroke="black" stroke-width="1" stroke-miterlimit="4" d="M35.5391 191.112L33.5391 191.112"/>
	<path fill="none" stroke="black" stroke-width="1" stroke-miterlimit="4" d="M35.5391 182.061L33.5391 182.061"/>
	<path fill="none" stroke="black" stroke-width="1" stroke-miterlimit="4" d="M35.5391 173.011L33.5391 173.011"/>
	<path fill="none" stroke="black" stroke-width="1" stroke-miterlimit="4" d="M35.5391 154.91L33.5391 154.91"/>
	<path fill="none" stroke="black" stroke-width="1" stroke-miterlimit="4" d="M35.5391 145.859L33.5391 145.859"/>
	<path fill="none" stroke="black" stroke-width="1" stroke-miterlimit="4" d="M35.5391 136.808L33.5391 136.808"/>
	<path fill="none" stroke="black" stroke-width="1" stroke-miterlimit="4" d="M35.5391 127.758L33.5391 127.758"/>
	<path fill="none" stroke="black" stroke-width="1" stroke-miterlimit="4" d="M35.5391 109.657L33.5391 109.657"/>
	<path fill="none" stroke="black" stroke-width="1" stroke-miterlimit="4" d="M35.5391 100.606L33.5391 100.606"/>
	<path fill="none" stroke="black" stroke-width="1" stroke-miterlimit="4" d="M35.5391 91.5555L33.5391 91.5555"/>
	<path fill="none" stroke="black" stroke-width="1" stroke-miterlimit="4" d="M35.5391 82.5049L33.5391 82.5049"/>
	<path fill="none" stroke="black" stroke-width="1" stroke-miterlimit="4" d="M35.5391 64.4038L33.5391 64.4038"/>
	<path fill="none" stroke="black" stroke-width="1" stroke-miterlimit="4" d="M35.5391 55.3532L33.5391 55.3532"/>
	<path fill="none" stroke="black" stroke-width="1" stroke-miterlimit="4" d="M35.5391 46.3026L33.5391 46.3026"/>
	<path fill="none" stroke="black" stroke-width="1" stroke-miterlimit="4" d="M35.5391 37.2521L33.5391 37.2521"/>
	<path fill="none" stroke="black" stroke-width="1" stroke-miterlimit="4" d="M35.5391 19.1509L33.5391 19.1509"/>
	<path fill="none" stroke="black" stroke-width="1" stroke-miterlimit="4" d="M35.5391 270.039L35.5391 15"/>
	<path fill="none" stroke="black" stroke-width="1" stroke-miterlimit="4" d="M785 270.039L785 15"/>
</svg>
