<?xml version="1.0" encoding="utf-8" ?>
<svg xmlns="http://www.w3.org/2000/svg" xmlns:xlink="http://www.w3.org/1999/xlink" width="800" height="300">
	<rect fill="white" width="800" height="300"/>
	<path fill="none" stroke="#010101" stroke-width="1" stroke-miterlimit="4" stroke-opacity="0.098039217" d="M67.1222 270.039L67.1222 15M121.384 270.039L121.384 15M175.645 270.039L175.645 15M229.906 270.039L229.906 15M284.168 270.039L284.168 15M338.429 270.039L338.429 15M392.69 270.039L392.69 15M446.952 270.039L446.952 15M501.213 270.039L501.213 15M555.474 270.039L555.474 15M609.736 270.039L609.736 15M663.997 270.039L663.997 15M718.259 270.039L718.259 15M772.52 270.039L772.52 15"/>
	<path fill="none" stroke="#010101" stroke-width="1" stroke-miterlimit="4" stroke-opacity="0.098039217" d="M32.9375 243.091L785 243.091M32.9375 191.516L785 191.516M32.9375 139.941L785 139.941M32.9375 88.3656L785 88.3656M32.9375 36.7905L785 36.7905"/>
	<clipPath id="cl_88">
		<rect x="32.9375" y="15" width="752.0625" height="255.03906"/>
	</clipPath>
	<g clip-path="url(#cl_88)">
		<path fill="none" stroke="red" stroke-width="1" stroke-miterlimit="4" d=""/>
		<ellipse fill="red" cx="316.72443" cy="170.88586" rx="2.5" ry="2.5"/>
	</g>
	<clipPath id="cl_89">
		<rect x="32.9375" y="15" width="752.0625" height="255.03906"/>
	</clipPath>
	<g clip-path="url(#cl_89)">
		<path fill="none" stroke="lime" stroke-width="1" stroke-miterlimit="4" d="M143.088 212.146L143.088 212.146L186.497 191.516L186.497 191.516L219.054 191.516L219.054 181.201L229.906 181.201L251.611 170.886L284.168 170.886L295.02 170.886L295.02 181.201L295.02 181.201L316.724 181.201L316.724 181.201L577.179 88.3656L577.179 88.3656L609.736 88.3656"/>
		<ellipse fill="lime" cx="143.08807" cy="212.14597" rx="2.5" ry="2.5"/>
		<ellipse fill="lime" cx="143.08807" cy="212.14597" rx="2.5" ry="2.5"/>
		<ellipse fill="lime" cx="186.49716" cy="191.51591" rx="2.5" ry="2.5"/>
		<ellipse fill="lime" cx="186.49716" cy="191.51591" rx="2.5" ry="2.5"/>
		<ellipse fill="lime" cx="219.05397" cy="191.51591" rx="2.5" ry="2.5"/>
		<ellipse fill="lime" cx="219.05397" cy="181.20088" rx="2.5" ry="2.5"/>
		<ellipse fill="lime" cx="229.90625" cy="181.20088" rx="2.5" ry="2.5"/>
		<ellipse fill="lime" cx="251.61079" cy="170.88586" rx="2.5" ry="2.5"/>
		<ellipse fill="lime" cx="284.1676" cy="170.88586" rx="2.5" ry="2.5"/>
		<ellipse fill="lime" cx="295.0199" cy="170.88586" rx="2.5" ry="2.5"/>
		<ellipse fill="lime" cx="295.0199" cy="181.20088" rx="2.5" ry="2.5"/>
		<ellipse fill="lime" cx="295.0199" cy="181.20088" rx="2.5" ry="2.5"/>
		<ellipse fill="lime" cx="316.72443" cy="181.20088" rx="2.5" ry="2.5"/>
		<ellipse fill="lime" cx="316.72443" cy="181.20088" rx="2.5" ry="2.5"/>
		<ellipse fill="lime" cx="577.17896" cy="88.365631" rx="2.5" ry="2.5"/>
		<ellipse fill="lime" cx="577.17896" cy="88.365631" rx="2.5" ry="2.5"/>
		<ellipse fill="lime" cx="609.73578" cy="88.365631" rx="2.5" ry="2.5"/>
	</g>
	<clipPath id="cl_8a">
		<rect x="32.9375" y="15" width="752.0625" height="255.03906"/>
	</clipPath>
	<g clip-path="url(#cl_8a)">
		<path fill="none" stroke="#AFA" stroke-width="1" stroke-miterlimit="4" d="M67.1222 253.406L77.9744 243.091L99.679 232.776L110.531 232.776L110.531 232.776L121.384 232.776L153.94 212.146L153.94 212.146L175.645 212.146L175.645 232.776L175.645 212.146L186.497 212.146L186.497 181.201L186.497 212.146L197.349 222.461L197.349 212.146L208.202 217.303L240.759 212.146L240.759 232.776L251.611 212.146L295.02 150.256L295.02 150.256L295.02 150.256L295.02 150.256L316.724 181.201L327.577 181.201L327.577 181.201"/>
		<ellipse fill="#AFA" cx="67.122162" cy="253.40608" rx="2.5" ry="2.5"/>
		<ellipse fill="#AFA" cx="77.974426" cy="243.09105" rx="2.5" ry="2.5"/>
		<ellipse fill="#AFA" cx="99.678978" cy="232.77603" rx="2.5" ry="2.5"/>
		<ellipse fill="#AFA" cx="110.53125" cy="232.77603" rx="2.5" ry="2.5"/>
		<ellipse fill="#AFA" cx="110.53125" cy="232.77603" rx="2.5" ry="2.5"/>
		<ellipse fill="#AFA" cx="121.38352" cy="232.77603" rx="2.5" ry="2.5"/>
		<ellipse fill="#AFA" cx="153.94034" cy="212.14597" rx="2.5" ry="2.5"/>
		<ellipse fill="#AFA" cx="153.94034" cy="212.14597" rx="2.5" ry="2.5"/>
		<ellipse fill="#AFA" cx="175.64488" cy="212.14597" rx="2.5" ry="2.5"/>
		<ellipse fill="#AFA" cx="175.64488" cy="232.77603" rx="2.5" ry="2.5"/>
		<ellipse fill="#AFA" cx="175.64488" cy="212.14597" rx="2.5" ry="2.5"/>
		<ellipse fill="#AFA" cx="186.49716" cy="212.14597" rx="2.5" ry="2.5"/>
		<ellipse fill="#AFA" cx="186.49716" cy="181.20088" rx="2.5" ry="2.5"/>
		<ellipse fill="#AFA" cx="186.49716" cy="212.14597" rx="2.5" ry="2.5"/>
		<ellipse fill="#AFA" cx="197.34943" cy="222.461" rx="2.5" ry="2.5"/>
		<ellipse fill="#AFA" cx="197.34943" cy="212.14597" rx="2.5" ry="2.5"/>
		<ellipse fill="#AFA" cx="208.20171" cy="217.30348" rx="2.5" ry="2.5"/>
		<ellipse fill="#AFA" cx="240.75853" cy="212.14597" rx="2.5" ry="2.5"/>
		<ellipse fill="#AFA" cx="240.75853" cy="232.77603" rx="2.5" ry="2.5"/>
		<ellipse fill="#AFA" cx="251.61079" cy="212.14597" rx="2.5" ry="2.5"/>
		<ellipse fill="#AFA" cx="295.0199" cy="150.2558" rx="2.5" ry="2.5"/>
		<ellipse fill="#AFA" cx="295.0199" cy="150.2558" rx="2.5" ry="2.5"/>
		<ellipse fill="#AFA" cx="295.0199" cy="150.2558" rx="2.5" ry="2.5"/>
		<ellipse fill="#AFA" cx="295.0199" cy="150.2558" rx="2.5" ry="2.5"/>
		<ellipse fill="#AFA" cx="316.72443" cy="181.20088" rx="2.5" ry="2.5"/>
		<ellipse fill="#AFA" cx="327.57669" cy="181.20088" rx="2.5" ry="2.5"/>
		<ellipse fill="#AFA" cx="327.57669" cy="181.20088" rx="2.5" ry="2.5"/>
	</g>
	<clipPath id="cl_8b">
		<rect x="32.9375" y="15" width="752.0625" height="255.03906"/>
	</clipPath>
	<g clip-path="url(#cl_8b)">
		<path fill="none" stroke="#AAA" stroke-width="1" stroke-miterlimit="4" d="M77.9744 232.776L77.9744 232.776L77.9744 232.776L88.8267 232.776L132.236 222.461L143.088 222.461L164.793 222.461L164.793 222.461L175.645 222.461L175.645 212.146L186.497 212.146L186.497 212.146L186.497 212.146L186.497 212.146L197.349 212.146L208.202 212.146L208.202 212.146L208.202 212.146L219.054 212.146L219.054 212.146L229.906 212.146L229.906 212.146L240.759 212.146L240.759 201.831L262.463 201.831L262.463 201.831L262.463 201.831L262.463 201.831L273.315 191.516L273.315 181.201L273.315 191.516L284.168 191.516L295.02 170.886L295.02 160.571L295.02 170.886L305.872 170.886L305.872 181.201L316.724 181.201L316.724 181.201L316.724 181.201L327.577 181.201L338.429 181.201L338.429 170.886"/>
		<ellipse fill="#AAA" cx="77.974426" cy="232.77603" rx="2.5" ry="2.5"/>
		<ellipse fill="#AAA" cx="77.974426" cy="232.77603" rx="2.5" ry="2.5"/>
		<ellipse fill="#AAA" cx="77.974426" cy="232.77603" rx="2.5" ry="2.5"/>
		<ellipse fill="#AAA" cx="88.826706" cy="232.77603" rx="2.5" ry="2.5"/>
		<ellipse fill="#AAA" cx="132.23579" cy="222.461" rx="2.5" ry="2.5"/>
		<ellipse fill="#AAA" cx="143.08807" cy="222.461" rx="2.5" ry="2.5"/>
		<ellipse fill="#AAA" cx="164.79262" cy="222.461" rx="2.5" ry="2.5"/>
		<ellipse fill="#AAA" cx="164.79262" cy="222.461" rx="2.5" ry="2.5"/>
		<ellipse fill="#AAA" cx="175.64488" cy="222.461" rx="2.5" ry="2.5"/>
		<ellipse fill="#AAA" cx="175.64488" cy="212.14597" rx="2.5" ry="2.5"/>
		<ellipse fill="#AAA" cx="186.49716" cy="212.14597" rx="2.5" ry="2.5"/>
		<ellipse fill="#AAA" cx="186.49716" cy="212.14597" rx="2.5" ry="2.5"/>
		<ellipse fill="#AAA" cx="186.49716" cy="212.14597" rx="2.5" ry="2.5"/>
		<ellipse fill="#AAA" cx="186.49716" cy="212.14597" rx="2.5" ry="2.5"/>
		<ellipse fill="#AAA" cx="197.34943" cy="212.14597" rx="2.5" ry="2.5"/>
		<ellipse fill="#AAA" cx="208.20171" cy="212.14597" rx="2.5" ry="2.5"/>
		<ellipse fill="#AAA" cx="208.20171" cy="212.14597" rx="2.5" ry="2.5"/>
		<ellipse fill="#AAA" cx="208.20171" cy="212.14597" rx="2.5" ry="2.5"/>
		<ellipse fill="#AAA" cx="219.05397" cy="212.14597" rx="2.5" ry="2.5"/>
		<ellipse fill="#AAA" cx="219.05397" cy="212.14597" rx="2.5" ry="2.5"/>
		<ellipse fill="#AAA" cx="229.90625" cy="212.14597" rx="2.5" ry="2.5"/>
		<ellipse fill="#AAA" cx="229.90625" cy="212.14597" rx="2.5" ry="2.5"/>
		<ellipse fill="#AAA" cx="240.75853" cy="212.14597" rx="2.5" ry="2.5"/>
		<ellipse fill="#AAA" cx="240.75853" cy="201.83093" rx="2.5" ry="2.5"/>
		<ellipse fill="#AAA" cx="262.46307" cy="201.83093" rx="2.5" ry="2.5"/>
		<ellipse fill="#AAA" cx="262.46307" cy="201.83093" rx="2.5" ry="2.5"/>
		<ellipse fill="#AAA" cx="262.46307" cy="201.83093" rx="2.5" ry="2.5"/>
		<ellipse fill="#AAA" cx="262.46307" cy="201.83093" rx="2.5" ry="2.5"/>
		<ellipse fill="#AAA" cx="273.31534" cy="191.51591" rx="2.5" ry="2.5"/>
		<ellipse fill="#AAA" cx="273.31534" cy="181.20088" rx="2.5" ry="2.5"/>
		<ellipse fill="#AAA" cx="273.31534" cy="191.51591" rx="2.5" ry="2.5"/>
		<ellipse fill="#AAA" cx="284.1676" cy="191.51591" rx="2.5" ry="2.5"/>
		<ellipse fill="#AAA" cx="295.0199" cy="170.88586" rx="2.5" ry="2.5"/>
		<ellipse fill="#AAA" cx="295.0199" cy="160.57083" rx="2.5" ry="2.5"/>
		<ellipse fill="#AAA" cx="295.0199" cy="170.88586" rx="2.5" ry="2.5"/>
		<ellipse fill="#AAA" cx="305.87216" cy="170.88586" rx="2.5" ry="2.5"/>
		<ellipse fill="#AAA" cx="305.87216" cy="181.20088" rx="2.5" ry="2.5"/>
		<ellipse fill="#AAA" cx="316.72443" cy="181.20088" rx="2.5" ry="2.5"/>
		<ellipse fill="#AAA" cx="316.72443" cy="181.20088" rx="2.5" ry="2.5"/>
		<ellipse fill="#AAA" cx="316.72443" cy="181.20088" rx="2.5" ry="2.5"/>
		<ellipse fill="#AAA" cx="327.57669" cy="181.20088" rx="2.5" ry="2.5"/>
		<ellipse fill="#AAA" cx="338.42899" cy="181.20088" rx="2.5" ry="2.5"/>
		<ellipse fill="#AAA" cx="338.42899" cy="170.88586" rx="2.5" ry="2.5"/>
	</g>
	<clipPath id="cl_8c">
		<rect x="32.9375" y="15" width="752.0625" height="255.03906"/>
	</clipPath>
	<g clip-path="url(#cl_8c)">
		<path fill="none" stroke="#FF5454" stroke-width="1" stroke-miterlimit="4" d="M77.9744 222.461L77.9744 222.461L77.9744 222.461L88.8267 222.461L88.8267 222.461L88.8267 235.871L88.8267 222.461L88.8267 235.871L88.8267 222.461L88.8267 222.461L110.531 232.776L110.531 232.776L121.384 201.831L121.384 232.776L121.384 232.776L121.384 232.776L132.236 232.776L132.236 232.776L132.236 232.776L132.236 232.776L143.088 212.146L153.94 212.146L153.94 212.146L153.94 212.146L153.94 212.146L153.94 212.146L164.793 212.146L164.793 212.146L164.793 212.146L164.793 212.146L164.793 212.146L164.793 212.146L186.497 201.831L186.497 201.831L186.497 201.831L186.497 201.831L186.497 201.831L186.497 201.831L197.349 212.146L197.349 212.146L208.202 212.146L208.202 212.146L208.202 212.146L208.202 212.146L208.202 201.831L208.202 201.831L219.054 212.146L219.054 212.146L219.054 206.988L229.906 212.146L240.759 181.201L240.759 212.146L240.759 212.146L251.611 181.201L251.611 181.201L251.611 181.201L262.463 181.201L262.463 181.201L273.315 181.201L273.315 181.201L284.168 181.201L284.168 181.201L284.168 181.201L295.02 181.201L295.02 181.201L295.02 181.201L295.02 181.201L295.02 181.201L305.872 181.201L305.872 181.201L305.872 181.201L305.872 181.201L316.724 170.886L316.724 181.201L316.724 181.201L316.724 150.256L316.724 150.256L316.724 181.201L327.577 150.256L327.577 150.256L327.577 170.886L338.429 150.256L338.429 170.886L338.429 181.201L338.429 160.571L349.281 181.201L446.952 160.571L446.952 160.571L598.884 108.996L598.884 108.996L609.736 98.6807L609.736 108.996L609.736 108.996L653.145 88.3656"/>
		<ellipse fill="#FF5454" cx="77.974426" cy="222.461" rx="2.5" ry="2.5"/>
		<ellipse fill="#FF5454" cx="77.974426" cy="222.461" rx="2.5" ry="2.5"/>
		<ellipse fill="#FF5454" cx="77.974426" cy="222.461" rx="2.5" ry="2.5"/>
		<ellipse fill="#FF5454" cx="88.826706" cy="222.461" rx="2.5" ry="2.5"/>
		<ellipse fill="#FF5454" cx="88.826706" cy="222.461" rx="2.5" ry="2.5"/>
		<ellipse fill="#FF5454" cx="88.826706" cy="235.87053" rx="2.5" ry="2.5"/>
		<ellipse fill="#FF5454" cx="88.826706" cy="222.461" rx="2.5" ry="2.5"/>
		<ellipse fill="#FF5454" cx="88.826706" cy="235.87053" rx="2.5" ry="2.5"/>
		<ellipse fill="#FF5454" cx="88.826706" cy="222.461" rx="2.5" ry="2.5"/>
		<ellipse fill="#FF5454" cx="88.826706" cy="222.461" rx="2.5" ry="2.5"/>
		<ellipse fill="#FF5454" cx="110.53125" cy="232.77603" rx="2.5" ry="2.5"/>
		<ellipse fill="#FF5454" cx="110.53125" cy="232.77603" rx="2.5" ry="2.5"/>
		<ellipse fill="#FF5454" cx="121.38352" cy="201.83093" rx="2.5" ry="2.5"/>
		<ellipse fill="#FF5454" cx="121.38352" cy="232.77603" rx="2.5" ry="2.5"/>
		<ellipse fill="#FF5454" cx="121.38352" cy="232.77603" rx="2.5" ry="2.5"/>
		<ellipse fill="#FF5454" cx="121.38352" cy="232.77603" rx="2.5" ry="2.5"/>
		<ellipse fill="#FF5454" cx="132.23579" cy="232.77603" rx="2.5" ry="2.5"/>
		<ellipse fill="#FF5454" cx="132.23579" cy="232.77603" rx="2.5" ry="2.5"/>
		<ellipse fill="#FF5454" cx="132.23579" cy="232.77603" rx="2.5" ry="2.5"/>
		<ellipse fill="#FF5454" cx="132.23579" cy="232.77603" rx="2.5" ry="2.5"/>
		<ellipse fill="#FF5454" cx="143.08807" cy="212.14597" rx="2.5" ry="2.5"/>
		<ellipse fill="#FF5454" cx="153.94034" cy="212.14597" rx="2.5" ry="2.5"/>
		<ellipse fill="#FF5454" cx="153.94034" cy="212.14597" rx="2.5" ry="2.5"/>
		<ellipse fill="#FF5454" cx="153.94034" cy="212.14597" rx="2.5" ry="2.5"/>
		<ellipse fill="#FF5454" cx="153.94034" cy="212.14597" rx="2.5" ry="2.5"/>
		<ellipse fill="#FF5454" cx="153.94034" cy="212.14597" rx="2.5" ry="2.5"/>
		<ellipse fill="#FF5454" cx="164.79262" cy="212.14597" rx="2.5" ry="2.5"/>
		<ellipse fill="#FF5454" cx="164.79262" cy="212.14597" rx="2.5" ry="2.5"/>
		<ellipse fill="#FF5454" cx="164.79262" cy="212.14597" rx="2.5" ry="2.5"/>
		<ellipse fill="#FF5454" cx="164.79262" cy="212.14597" rx="2.5" ry="2.5"/>
		<ellipse fill="#FF5454" cx="164.79262" cy="212.14597" rx="2.5" ry="2.5"/>
		<ellipse fill="#FF5454" cx="164.79262" cy="212.14597" rx="2.5" ry="2.5"/>
		<ellipse fill="#FF5454" cx="186.49716" cy="201.83093" rx="2.5" ry="2.5"/>
		<ellipse fill="#FF5454" cx="186.49716" cy="201.83093" rx="2.5" ry="2.5"/>
		<ellipse fill="#FF5454" cx="186.49716" cy="201.83093" rx="2.5" ry="2.5"/>
		<ellipse fill="#FF5454" cx="186.49716" cy="201.83093" rx="2.5" ry="2.5"/>
		<ellipse fill="#FF5454" cx="186.49716" cy="201.83093" rx="2.5" ry="2.5"/>
		<ellipse fill="#FF5454" cx="186.49716" cy="201.83093" rx="2.5" ry="2.5"/>
		<ellipse fill="#FF5454" cx="197.34943" cy="212.14597" rx="2.5" ry="2.5"/>
		<ellipse fill="#FF5454" cx="197.34943" cy="212.14597" rx="2.5" ry="2.5"/>
		<ellipse fill="#FF5454" cx="208.20171" cy="212.14597" rx="2.5" ry="2.5"/>
		<ellipse fill="#FF5454" cx="208.20171" cy="212.14597" rx="2.5" ry="2.5"/>
		<ellipse fill="#FF5454" cx="208.20171" cy="212.14597" rx="2.5" ry="2.5"/>
		<ellipse fill="#FF5454" cx="208.20171" cy="212.14597" rx="2.5" ry="2.5"/>
		<ellipse fill="#FF5454" cx="208.20171" cy="201.83093" rx="2.5" ry="2.5"/>
		<ellipse fill="#FF5454" cx="208.20171" cy="201.83093" rx="2.5" ry="2.5"/>
		<ellipse fill="#FF5454" cx="219.05397" cy="212.14597" rx="2.5" ry="2.5"/>
		<ellipse fill="#FF5454" cx="219.05397" cy="212.14597" rx="2.5" ry="2.5"/>
		<ellipse fill="#FF5454" cx="219.05397" cy="206.98846" rx="2.5" ry="2.5"/>
		<ellipse fill="#FF5454" cx="229.90625" cy="212.14597" rx="2.5" ry="2.5"/>
		<ellipse fill="#FF5454" cx="240.75853" cy="181.20088" rx="2.5" ry="2.5"/>
		<ellipse fill="#FF5454" cx="240.75853" cy="212.14597" rx="2.5" ry="2.5"/>
		<ellipse fill="#FF5454" cx="240.75853" cy="212.14597" rx="2.5" ry="2.5"/>
		<ellipse fill="#FF5454" cx="251.61079" cy="181.20088" rx="2.5" ry="2.5"/>
		<ellipse fill="#FF5454" cx="251.61079" cy="181.20088" rx="2.5" ry="2.5"/>
		<ellipse fill="#FF5454" cx="251.61079" cy="181.20088" rx="2.5" ry="2.5"/>
		<ellipse fill="#FF5454" cx="262.46307" cy="181.20088" rx="2.5" ry="2.5"/>
		<ellipse fill="#FF5454" cx="262.46307" cy="181.20088" rx="2.5" ry="2.5"/>
		<ellipse fill="#FF5454" cx="273.31534" cy="181.20088" rx="2.5" ry="2.5"/>
		<ellipse fill="#FF5454" cx="273.31534" cy="181.20088" rx="2.5" ry="2.5"/>
		<ellipse fill="#FF5454" cx="284.1676" cy="181.20088" rx="2.5" ry="2.5"/>
		<ellipse fill="#FF5454" cx="284.1676" cy="181.20088" rx="2.5" ry="2.5"/>
		<ellipse fill="#FF5454" cx="284.1676" cy="181.20088" rx="2.5" ry="2.5"/>
		<ellipse fill="#FF5454" cx="295.0199" cy="181.20088" rx="2.5" ry="2.5"/>
		<ellipse fill="#FF5454" cx="295.0199" cy="181.20088" rx="2.5" ry="2.5"/>
		<ellipse fill="#FF5454" cx="295.0199" cy="181.20088" rx="2.5" ry="2.5"/>
		<ellipse fill="#FF5454" cx="295.0199" cy="181.20088" rx="2.5" ry="2.5"/>
		<ellipse fill="#FF5454" cx="295.0199" cy="181.20088" rx="2.5" ry="2.5"/>
		<ellipse fill="#FF5454" cx="305.87216" cy="181.20088" rx="2.5" ry="2.5"/>
		<ellipse fill="#FF5454" cx="305.87216" cy="181.20088" rx="2.5" ry="2.5"/>
		<ellipse fill="#FF5454" cx="305.87216" cy="181.20088" rx="2.5" ry="2.5"/>
		<ellipse fill="#FF5454" cx="305.87216" cy="181.20088" rx="2.5" ry="2.5"/>
		<ellipse fill="#FF5454" cx="316.72443" cy="170.88586" rx="2.5" ry="2.5"/>
		<ellipse fill="#FF5454" cx="316.72443" cy="181.20088" rx="2.5" ry="2.5"/>
		<ellipse fill="#FF5454" cx="316.72443" cy="181.20088" rx="2.5" ry="2.5"/>
		<ellipse fill="#FF5454" cx="316.72443" cy="150.2558" rx="2.5" ry="2.5"/>
		<ellipse fill="#FF5454" cx="316.72443" cy="150.2558" rx="2.5" ry="2.5"/>
		<ellipse fill="#FF5454" cx="316.72443" cy="181.20088" rx="2.5" ry="2.5"/>
		<ellipse fill="#FF5454" cx="327.57669" cy="150.2558" rx="2.5" ry="2.5"/>
		<ellipse fill="#FF5454" cx="327.57669" cy="150.2558" rx="2.5" ry="2.5"/>
		<ellipse fill="#FF5454" cx="327.57669" cy="170.88586" rx="2.5" ry="2.5"/>
		<ellipse fill="#FF5454" cx="338.42899" cy="150.2558" rx="2.5" ry="2.5"/>
		<ellipse fill="#FF5454" cx="338.42899" cy="170.88586" rx="2.5" ry="2.5"/>
		<ellipse fill="#FF5454" cx="338.42899" cy="181.20088" rx="2.5" ry="2.5"/>
		<ellipse fill="#FF5454" cx="338.42899" cy="160.57083" rx="2.5" ry="2.5"/>
		<ellipse fill="#FF5454" cx="349.28125" cy="181.20088" rx="2.5" ry="2.5"/>
		<ellipse fill="#FF5454" cx="446.95169" cy="160.57083" rx="2.5" ry="2.5"/>
		<ellipse fill="#FF5454" cx="446.95169" cy="160.57083" rx="2.5" ry="2.5"/>
		<ellipse fill="#FF5454" cx="598.88354" cy="108.9957" rx="2.5" ry="2.5"/>
		<ellipse fill="#FF5454" cx="598.88354" cy="108.9957" rx="2.5" ry="2.5"/>
		<ellipse fill="#FF5454" cx="609.73578" cy="98.680664" rx="2.5" ry="2.5"/>
		<ellipse fill="#FF5454" cx="609.73578" cy="108.9957" rx="2.5" ry="2.5"/>
		<ellipse fill="#FF5454" cx="609.73578" cy="108.9957" rx="2.5" ry="2.5"/>
		<ellipse fill="#FF5454" cx="653.1449" cy="88.365631" rx="2.5" ry="2.5"/>
	</g>
	<clipPath id="cl_8d">
		<rect x="32.9375" y="15" width="752.0625" height="255.03906"/>
	</clipPath>
	<g clip-path="url(#cl_8d)">
		<path fill="none" stroke="#303030" stroke-width="1" stroke-miterlimit="4" d="M566.327 78.0506L566.327 78.0506L598.884 88.3656L598.884 88.3656"/>
		<ellipse fill="#303030" cx="566.32672" cy="78.050613" rx="2.5" ry="2.5"/>
		<ellipse fill="#303030" cx="566.32672" cy="78.050613" rx="2.5" ry="2.5"/>
		<ellipse fill="#303030" cx="598.88354" cy="88.365631" rx="2.5" ry="2.5"/>
		<ellipse fill="#303030" cx="598.88354" cy="88.365631" rx="2.5" ry="2.5"/>
	</g>
	<clipPath id="cl_8e">
		<rect x="32.9375" y="15" width="752.0625" height="255.03906"/>
	</clipPath>
	<g clip-path="url(#cl_8e)">
		<path fill="none" stroke="blue" stroke-width="1" stroke-miterlimit="4" d="M77.9744 222.461L99.679 212.146L99.679 222.461L110.531 222.461L121.384 212.146L121.384 222.461L132.236 222.461L132.236 212.146L132.236 212.146L153.94 212.146L164.793 222.461L208.202 212.146L219.054 212.146L219.054 212.146L229.906 212.146L251.611 212.146L273.315 201.831L273.315 201.831L273.315 201.831L273.315 201.831L273.315 201.831L284.168 201.831L295.02 181.201L295.02 181.201L305.872 181.201L305.872 181.201L316.724 191.516L316.724 191.516L316.724 191.516L555.474 98.6807L566.327 98.6807L598.884 67.7356L609.736 67.7356"/>
		<ellipse fill="blue" cx="77.974426" cy="222.461" rx="2.5" ry="2.5"/>
		<ellipse fill="blue" cx="99.678978" cy="212.14597" rx="2.5" ry="2.5"/>
		<ellipse fill="blue" cx="99.678978" cy="222.461" rx="2.5" ry="2.5"/>
		<ellipse fill="blue" cx="110.53125" cy="222.461" rx="2.5" ry="2.5"/>
		<ellipse fill="blue" cx="121.38352" cy="212.14597" rx="2.5" ry="2.5"/>
		<ellipse fill="blue" cx="121.38352" cy="222.461" rx="2.5" ry="2.5"/>
		<ellipse fill="blue" cx="132.23579" cy="222.461" rx="2.5" ry="2.5"/>
		<ellipse fill="blue" cx="132.23579" cy="212.14597" rx="2.5" ry="2.5"/>
		<ellipse fill="blue" cx="132.23579" cy="212.14597" rx="2.5" ry="2.5"/>
		<ellipse fill="blue" cx="153.94034" cy="212.14597" rx="2.5" ry="2.5"/>
		<ellipse fill="blue" cx="164.79262" cy="222.461" rx="2.5" ry="2.5"/>
		<ellipse fill="blue" cx="208.20171" cy="212.14597" rx="2.5" ry="2.5"/>
		<ellipse fill="blue" cx="219.05397" cy="212.14597" rx="2.5" ry="2.5"/>
		<ellipse fill="blue" cx="219.05397" cy="212.14597" rx="2.5" ry="2.5"/>
		<ellipse fill="blue" cx="229.90625" cy="212.14597" rx="2.5" ry="2.5"/>
		<ellipse fill="blue" cx="251.61079" cy="212.14597" rx="2.5" ry="2.5"/>
		<ellipse fill="blue" cx="273.31534" cy="201.83093" rx="2.5" ry="2.5"/>
		<ellipse fill="blue" cx="273.31534" cy="201.83093" rx="2.5" ry="2.5"/>
		<ellipse fill="blue" cx="273.31534" cy="201.83093" rx="2.5" ry="2.5"/>
		<ellipse fill="blue" cx="273.31534" cy="201.83093" rx="2.5" ry="2.5"/>
		<ellipse fill="blue" cx="273.31534" cy="201.83093" rx="2.5" ry="2.5"/>
		<ellipse fill="blue" cx="284.1676" cy="201.83093" rx="2.5" ry="2.5"/>
		<ellipse fill="blue" cx="295.0199" cy="181.20088" rx="2.5" ry="2.5"/>
		<ellipse fill="blue" cx="295.0199" cy="181.20088" rx="2.5" ry="2.5"/>
		<ellipse fill="blue" cx="305.87216" cy="181.20088" rx="2.5" ry="2.5"/>
		<ellipse fill="blue" cx="305.87216" cy="181.20088" rx="2.5" ry="2.5"/>
		<ellipse fill="blue" cx="316.72443" cy="191.51591" rx="2.5" ry="2.5"/>
		<ellipse fill="blue" cx="316.72443" cy="191.51591" rx="2.5" ry="2.5"/>
		<ellipse fill="blue" cx="316.72443" cy="191.51591" rx="2.5" ry="2.5"/>
		<ellipse fill="blue" cx="555.47443" cy="98.680664" rx="2.5" ry="2.5"/>
		<ellipse fill="blue" cx="566.32672" cy="98.680664" rx="2.5" ry="2.5"/>
		<ellipse fill="blue" cx="598.88354" cy="67.73558" rx="2.5" ry="2.5"/>
		<ellipse fill="blue" cx="609.73578" cy="67.73558" rx="2.5" ry="2.5"/>
	</g>
	<clipPath id="cl_8f">
		<rect x="32.9375" y="15" width="752.0625" height="255.03906"/>
	</clipPath>
	<g clip-path="url(#cl_8f)">
		<path fill="none" stroke="#6060FF" stroke-width="1" stroke-miterlimit="4" d="M99.679 243.091L99.679 243.091L99.679 243.091L132.236 232.776L153.94 232.776L153.94 232.776L153.94 232.776L153.94 222.461L153.94 232.776L186.497 212.146L186.497 212.146L186.497 212.146L219.054 212.146L219.054 212.146L219.054 201.831L219.054 201.831L219.054 201.831L219.054 201.831L219.054 201.831L229.906 212.146L229.906 212.146L229.906 222.461L229.906 222.461L240.759 212.146L262.463 181.201L262.463 212.146L262.463 212.146L273.315 181.201L273.315 181.201L284.168 181.201L295.02 191.516L295.02 191.516L305.872 181.201L305.872 181.201L327.577 191.516L327.577 191.516L338.429 181.201L338.429 181.201L360.134 181.201L360.134 181.201L360.134 181.201L381.838 181.201L381.838 181.201L392.69 181.201L403.543 181.201L403.543 181.201L609.736 108.996L609.736 108.996L620.588 119.311L620.588 119.311L620.588 119.311L631.44 57.4205L631.44 57.4205L631.44 119.311L642.293 67.7356L653.145 67.7356"/>
		<ellipse fill="#6060FF" cx="99.678978" cy="243.09105" rx="2.5" ry="2.5"/>
		<ellipse fill="#6060FF" cx="99.678978" cy="243.09105" rx="2.5" ry="2.5"/>
		<ellipse fill="#6060FF" cx="99.678978" cy="243.09105" rx="2.5" ry="2.5"/>
		<ellipse fill="#6060FF" cx="132.23579" cy="232.77603" rx="2.5" ry="2.5"/>
		<ellipse fill="#6060FF" cx="153.94034" cy="232.77603" rx="2.5" ry="2.5"/>
		<ellipse fill="#6060FF" cx="153.94034" cy="232.77603" rx="2.5" ry="2.5"/>
		<ellipse fill="#6060FF" cx="153.94034" cy="232.77603" rx="2.5" ry="2.5"/>
		<ellipse fill="#6060FF" cx="153.94034" cy="222.461" rx="2.5" ry="2.5"/>
		<ellipse fill="#6060FF" cx="153.94034" cy="232.77603" rx="2.5" ry="2.5"/>
		<ellipse fill="#6060FF" cx="186.49716" cy="212.14597" rx="2.5" ry="2.5"/>
		<ellipse fill="#6060FF" cx="186.49716" cy="212.14597" rx="2.5" ry="2.5"/>
		<ellipse fill="#6060FF" cx="186.49716" cy="212.14597" rx="2.5" ry="2.5"/>
		<ellipse fill="#6060FF" cx="219.05397" cy="212.14597" rx="2.5" ry="2.5"/>
		<ellipse fill="#6060FF" cx="219.05397" cy="212.14597" rx="2.5" ry="2.5"/>
		<ellipse fill="#6060FF" cx="219.05397" cy="201.83093" rx="2.5" ry="2.5"/>
		<ellipse fill="#6060FF" cx="219.05397" cy="201.83093" rx="2.5" ry="2.5"/>
		<ellipse fill="#6060FF" cx="219.05397" cy="201.83093" rx="2.5" ry="2.5"/>
		<ellipse fill="#6060FF" cx="219.05397" cy="201.83093" rx="2.5" ry="2.5"/>
		<ellipse fill="#6060FF" cx="219.05397" cy="201.83093" rx="2.5" ry="2.5"/>
		<ellipse fill="#6060FF" cx="229.90625" cy="212.14597" rx="2.5" ry="2.5"/>
		<ellipse fill="#6060FF" cx="229.90625" cy="212.14597" rx="2.5" ry="2.5"/>
		<ellipse fill="#6060FF" cx="229.90625" cy="222.461" rx="2.5" ry="2.5"/>
		<ellipse fill="#6060FF" cx="229.90625" cy="222.461" rx="2.5" ry="2.5"/>
		<ellipse fill="#6060FF" cx="240.75853" cy="212.14597" rx="2.5" ry="2.5"/>
		<ellipse fill="#6060FF" cx="262.46307" cy="181.20088" rx="2.5" ry="2.5"/>
		<ellipse fill="#6060FF" cx="262.46307" cy="212.14597" rx="2.5" ry="2.5"/>
		<ellipse fill="#6060FF" cx="262.46307" cy="212.14597" rx="2.5" ry="2.5"/>
		<ellipse fill="#6060FF" cx="273.31534" cy="181.20088" rx="2.5" ry="2.5"/>
		<ellipse fill="#6060FF" cx="273.31534" cy="181.20088" rx="2.5" ry="2.5"/>
		<ellipse fill="#6060FF" cx="284.1676" cy="181.20088" rx="2.5" ry="2.5"/>
		<ellipse fill="#6060FF" cx="295.0199" cy="191.51591" rx="2.5" ry="2.5"/>
		<ellipse fill="#6060FF" cx="295.0199" cy="191.51591" rx="2.5" ry="2.5"/>
		<ellipse fill="#6060FF" cx="305.87216" cy="181.20088" rx="2.5" ry="2.5"/>
		<ellipse fill="#6060FF" cx="305.87216" cy="181.20088" rx="2.5" ry="2.5"/>
		<ellipse fill="#6060FF" cx="327.57669" cy="191.51591" rx="2.5" ry="2.5"/>
		<ellipse fill="#6060FF" cx="327.57669" cy="191.51591" rx="2.5" ry="2.5"/>
		<ellipse fill="#6060FF" cx="338.42899" cy="181.20088" rx="2.5" ry="2.5"/>
		<ellipse fill="#6060FF" cx="338.42899" cy="181.20088" rx="2.5" ry="2.5"/>
		<ellipse fill="#6060FF" cx="360.13351" cy="181.20088" rx="2.5" ry="2.5"/>
		<ellipse fill="#6060FF" cx="360.13351" cy="181.20088" rx="2.5" ry="2.5"/>
		<ellipse fill="#6060FF" cx="360.13351" cy="181.20088" rx="2.5" ry="2.5"/>
		<ellipse fill="#6060FF" cx="381.83807" cy="181.20088" rx="2.5" ry="2.5"/>
		<ellipse fill="#6060FF" cx="381.83807" cy="181.20088" rx="2.5" ry="2.5"/>
		<ellipse fill="#6060FF" cx="392.69034" cy="181.20088" rx="2.5" ry="2.5"/>
		<ellipse fill="#6060FF" cx="403.5426" cy="181.20088" rx="2.5" ry="2.5"/>
		<ellipse fill="#6060FF" cx="403.5426" cy="181.20088" rx="2.5" ry="2.5"/>
		<ellipse fill="#6060FF" cx="609.73578" cy="108.9957" rx="2.5" ry="2.5"/>
		<ellipse fill="#6060FF" cx="609.73578" cy="108.9957" rx="2.5" ry="2.5"/>
		<ellipse fill="#6060FF" cx="620.58807" cy="119.31071" rx="2.5" ry="2.5"/>
		<ellipse fill="#6060FF" cx="620.58807" cy="119.31071" rx="2.5" ry="2.5"/>
		<ellipse fill="#6060FF" cx="620.58807" cy="119.31071" rx="2.5" ry="2.5"/>
		<ellipse fill="#6060FF" cx="631.44037" cy="57.420547" rx="2.5" ry="2.5"/>
		<ellipse fill="#6060FF" cx="631.44037" cy="57.420547" rx="2.5" ry="2.5"/>
		<ellipse fill="#6060FF" cx="631.44037" cy="119.31071" rx="2.5" ry="2.5"/>
		<ellipse fill="#6060FF" cx="642.2926" cy="67.73558" rx="2.5" ry="2.5"/>
		<ellipse fill="#6060FF" cx="653.1449" cy="67.73558" rx="2.5" ry="2.5"/>
	</g>
	<clipPath id="cl_90">
		<rect x="32.9375" y="15" width="752.0625" height="255.03906"/>
	</clipPath>
	<g clip-path="url(#cl_90)">
		<path fill="none" stroke="yellow" stroke-width="1" stroke-miterlimit="4" d="M175.645 201.831L186.497 201.831L197.349 201.831L208.202 191.516L219.054 191.516L229.906 191.516L262.463 191.516L273.315 191.516L284.168 191.516L295.02 191.516L305.872 191.516L305.872 191.516L327.577 191.516"/>
		<ellipse fill="yellow" cx="175.64488" cy="201.83093" rx="2.5" ry="2.5"/>
		<ellipse fill="yellow" cx="186.49716" cy="201.83093" rx="2.5" ry="2.5"/>
		<ellipse fill="yellow" cx="197.34943" cy="201.83093" rx="2.5" ry="2.5"/>
		<ellipse fill="yellow" cx="208.20171" cy="191.51591" rx="2.5" ry="2.5"/>
		<ellipse fill="yellow" cx="219.05397" cy="191.51591" rx="2.5" ry="2.5"/>
		<ellipse fill="yellow" cx="229.90625" cy="191.51591" rx="2.5" ry="2.5"/>
		<ellipse fill="yellow" cx="262.46307" cy="191.51591" rx="2.5" ry="2.5"/>
		<ellipse fill="yellow" cx="273.31534" cy="191.51591" rx="2.5" ry="2.5"/>
		<ellipse fill="yellow" cx="284.1676" cy="191.51591" rx="2.5" ry="2.5"/>
		<ellipse fill="yellow" cx="295.0199" cy="191.51591" rx="2.5" ry="2.5"/>
		<ellipse fill="yellow" cx="305.87216" cy="191.51591" rx="2.5" ry="2.5"/>
		<ellipse fill="yellow" cx="305.87216" cy="191.51591" rx="2.5" ry="2.5"/>
		<ellipse fill="yellow" cx="327.57669" cy="191.51591" rx="2.5" ry="2.5"/>
	</g>
	<clipPath id="cl_91">
		<rect x="32.9375" y="15" width="752.0625" height="255.03906"/>
	</clipPath>
	<g clip-path="url(#cl_91)">
		<path fill="none" stroke="#FFB600" stroke-width="1" stroke-miterlimit="4" d="M305.872 201.831L316.724 201.831L327.577 201.831"/>
		<ellipse fill="#FFB600" cx="305.87216" cy="201.83093" rx="2.5" ry="2.5"/>
		<ellipse fill="#FFB600" cx="316.72443" cy="201.83093" rx="2.5" ry="2.5"/>
		<ellipse fill="#FFB600" cx="327.57669" cy="201.83093" rx="2.5" ry="2.5"/>
	</g>
	<clipPath id="cl_92">
		<rect x="32.9375" y="15" width="752.0625" height="255.03906"/>
	</clipPath>
	<g clip-path="url(#cl_92)">
		<path fill="none" stroke="#FFBFBF" stroke-width="1" stroke-miterlimit="4" d="M132.236 212.146L132.236 212.146L153.94 212.146L164.793 212.146L164.793 212.146L175.645 212.146L229.906 212.146L229.906 212.146L240.759 212.146L251.611 191.516L284.168 181.201L295.02 181.201L327.577 160.571L338.429 170.886L349.281 160.571L360.134 160.571L381.838 129.626L392.69 129.626L609.736 114.153L609.736 119.311"/>
		<ellipse fill="#FFBFBF" cx="132.23579" cy="212.14597" rx="2.5" ry="2.5"/>
		<ellipse fill="#FFBFBF" cx="132.23579" cy="212.14597" rx="2.5" ry="2.5"/>
		<ellipse fill="#FFBFBF" cx="153.94034" cy="212.14597" rx="2.5" ry="2.5"/>
		<ellipse fill="#FFBFBF" cx="164.79262" cy="212.14597" rx="2.5" ry="2.5"/>
		<ellipse fill="#FFBFBF" cx="164.79262" cy="212.14597" rx="2.5" ry="2.5"/>
		<ellipse fill="#FFBFBF" cx="175.64488" cy="212.14597" rx="2.5" ry="2.5"/>
		<ellipse fill="#FFBFBF" cx="229.90625" cy="212.14597" rx="2.5" ry="2.5"/>
		<ellipse fill="#FFBFBF" cx="229.90625" cy="212.14597" rx="2.5" ry="2.5"/>
		<ellipse fill="#FFBFBF" cx="240.75853" cy="212.14597" rx="2.5" ry="2.5"/>
		<ellipse fill="#FFBFBF" cx="251.61079" cy="191.51591" rx="2.5" ry="2.5"/>
		<ellipse fill="#FFBFBF" cx="284.1676" cy="181.20088" rx="2.5" ry="2.5"/>
		<ellipse fill="#FFBFBF" cx="295.0199" cy="181.20088" rx="2.5" ry="2.5"/>
		<ellipse fill="#FFBFBF" cx="327.57669" cy="160.57083" rx="2.5" ry="2.5"/>
		<ellipse fill="#FFBFBF" cx="338.42899" cy="170.88586" rx="2.5" ry="2.5"/>
		<ellipse fill="#FFBFBF" cx="349.28125" cy="160.57083" rx="2.5" ry="2.5"/>
		<ellipse fill="#FFBFBF" cx="360.13351" cy="160.57083" rx="2.5" ry="2.5"/>
		<ellipse fill="#FFBFBF" cx="381.83807" cy="129.62575" rx="2.5" ry="2.5"/>
		<ellipse fill="#FFBFBF" cx="392.69034" cy="129.62575" rx="2.5" ry="2.5"/>
		<ellipse fill="#FFBFBF" cx="609.73578" cy="114.1532" rx="2.5" ry="2.5"/>
		<ellipse fill="#FFBFBF" cx="609.73578" cy="119.31071" rx="2.5" ry="2.5"/>
	</g>
	<clipPath id="cl_93">
		<rect x="32.9375" y="15" width="752.0625" height="255.03906"/>
	</clipPath>
	<g clip-path="url(#cl_93)">
		<path fill="none" stroke="#AB4E00" stroke-width="1" stroke-miterlimit="4" d="M262.463 181.201L273.315 176.043"/>
		<ellipse fill="#AB4E00" cx="262.46307" cy="181.20088" rx="2.5" ry="2.5"/>
		<ellipse fill="#AB4E00" cx="273.31534" cy="176.04337" rx="2.5" ry="2.5"/>
	</g>
	<clipPath id="cl_94">
		<rect x="32.9375" y="15" width="752.0625" height="255.03906"/>
	</clipPath>
	<g clip-path="url(#cl_94)">
		<path fill="none" stroke="#AAF" stroke-width="1" stroke-miterlimit="4" d="M295.02 170.886L295.02 170.886"/>
		<ellipse fill="#AAF" cx="295.0199" cy="170.88586" rx="2.5" ry="2.5"/>
		<ellipse fill="#AAF" cx="295.0199" cy="170.88586" rx="2.5" ry="2.5"/>
	</g>
	<clipPath id="cl_95">
		<rect x="32.9375" y="15" width="752.0625" height="255.03906"/>
	</clipPath>
	<g clip-path="url(#cl_95)">
		<path fill="#FF5454" d="M240.759 139.441L250.759 139.441L250.759 140.441L240.759 140.441L240.759 139.441ZM260.759 139.441L270.759 139.441L270.759 140.441L260.759 140.441L260.759 139.441ZM275.307 132.752L278.616 123.315L279.56 123.646L276.25 133.082L275.307 132.752ZM281.925 113.878L284.168 107.485L286.178 113.219L285.235 113.549L283.696 109.161L284.168 108.996L284.639 109.161L282.869 114.209L281.925 113.878ZM289.488 122.655L292.797 132.092L291.853 132.423L288.544 122.986L289.488 122.655ZM294.52 138.083L294.52 128.083L295.52 128.083L295.52 138.083L294.52 138.083ZM294.52 118.083L294.52 108.496L295.932 108.496L295.932 109.496L295.02 109.496L295.02 108.996L295.52 108.996L295.52 118.083L294.52 118.083ZM305.599 108.573L313.287 102.178L313.927 102.947L306.238 109.342L305.599 108.573ZM320.976 95.7841L328.664 89.3897L329.303 90.1586L321.615 96.5529L320.976 95.7841ZM336.352 82.9954L344.041 76.601L344.68 77.3699L336.992 83.7642L336.352 82.9954ZM348.781 69.2931L348.781 67.2356L357.724 67.2356L357.724 68.2356L349.281 68.2356L349.281 67.7356L349.781 67.7356L349.781 69.2931L348.781 69.2931ZM367.724 67.2356L377.724 67.2356L377.724 68.2356L367.724 68.2356L367.724 67.2356ZM386.449 71.428L393.035 77.6882L392.69 78.0506L392.69 77.5506L393.604 77.5506L393.604 78.5506L392.491 78.5506L385.76 72.1529L386.449 71.428Z"/>
		<ellipse fill="#FF5454" cx="240.75853" cy="139.94078" rx="2.5" ry="2.5"/>
		<ellipse fill="#FF5454" cx="240.75853" cy="139.94078" rx="2.5" ry="2.5"/>
		<ellipse fill="#FF5454" cx="251.61079" cy="139.94078" rx="2.5" ry="2.5"/>
		<ellipse fill="#FF5454" cx="273.31534" cy="139.94078" rx="2.5" ry="2.5"/>
		<ellipse fill="#FF5454" cx="284.1676" cy="108.9957" rx="2.5" ry="2.5"/>
		<ellipse fill="#FF5454" cx="295.0199" cy="139.94078" rx="2.5" ry="2.5"/>
		<ellipse fill="#FF5454" cx="295.0199" cy="108.9957" rx="2.5" ry="2.5"/>
		<ellipse fill="#FF5454" cx="305.87216" cy="108.9957" rx="2.5" ry="2.5"/>
		<ellipse fill="#FF5454" cx="305.87216" cy="108.9957" rx="2.5" ry="2.5"/>
		<ellipse fill="#FF5454" cx="349.28125" cy="72.893097" rx="2.5" ry="2.5"/>
		<ellipse fill="#FF5454" cx="349.28125" cy="72.893097" rx="2.5" ry="2.5"/>
		<ellipse fill="#FF5454" cx="349.28125" cy="67.73558" rx="2.5" ry="2.5"/>
		<ellipse fill="#FF5454" cx="360.13351" cy="67.73558" rx="2.5" ry="2.5"/>
		<ellipse fill="#FF5454" cx="381.83807" cy="67.73558" rx="2.5" ry="2.5"/>
		<ellipse fill="#FF5454" cx="392.69034" cy="78.050613" rx="2.5" ry="2.5"/>
		<ellipse fill="#FF5454" cx="403.5426" cy="78.050613" rx="2.5" ry="2.5"/>
	</g>
	<clipPath id="cl_96">
		<rect x="32.9375" y="15" width="752.0625" height="255.03906"/>
	</clipPath>
	<g clip-path="url(#cl_96)">
		<path fill="#AAA" d="M273.053 111.149L281.56 105.893L282.085 106.744L273.578 112L273.053 111.149ZM291.116 106.977L295.198 108.528L295.02 108.996L294.973 108.498L300.581 107.965L300.675 108.96L294.951 109.504L290.761 107.911L291.116 106.977ZM308.111 112.163L311.862 121.433L310.935 121.808L307.184 112.538L308.111 112.163ZM315.613 130.703L317.188 134.596L316.724 134.783L316.224 134.783L316.224 128.983L317.224 128.983L317.224 134.783L316.261 134.971L314.686 131.078L315.613 130.703ZM323.165 124.385L333.12 123.439L333.215 124.435L323.26 125.381L323.165 124.385ZM342.077 120.409L350.403 114.869L350.957 115.702L342.631 121.241L342.077 120.409ZM358.728 109.33L360.134 108.395L367.608 113.368L367.054 114.201L359.857 109.412L360.134 108.996L360.41 109.412L359.282 110.163L358.728 109.33Z"/>
		<ellipse fill="#AAA" cx="273.31534" cy="111.57445" rx="2.5" ry="2.5"/>
		<ellipse fill="#AAA" cx="284.1676" cy="104.86967" rx="2.5" ry="2.5"/>
		<ellipse fill="#AAA" cx="295.0199" cy="108.9957" rx="2.5" ry="2.5"/>
		<ellipse fill="#AAA" cx="305.87216" cy="107.96419" rx="2.5" ry="2.5"/>
		<ellipse fill="#AAA" cx="316.72443" cy="134.78326" rx="2.5" ry="2.5"/>
		<ellipse fill="#AAA" cx="316.72443" cy="125.49974" rx="2.5" ry="2.5"/>
		<ellipse fill="#AAA" cx="338.42899" cy="123.43674" rx="2.5" ry="2.5"/>
		<ellipse fill="#AAA" cx="360.13351" cy="108.9957" rx="2.5" ry="2.5"/>
		<ellipse fill="#AAA" cx="370.98581" cy="116.21622" rx="2.5" ry="2.5"/>
	</g>
	<clipPath id="cl_97">
		<rect x="32.9375" y="15" width="752.0625" height="255.03906"/>
	</clipPath>
	<g clip-path="url(#cl_97)">
		<path fill="#303030" d=""/>
		<ellipse fill="#303030" cx="609.73578" cy="36.790497" rx="2.5" ry="2.5"/>
	</g>
	<clipPath id="cl_98">
		<rect x="32.9375" y="15" width="752.0625" height="255.03906"/>
	</clipPath>
	<g clip-path="url(#cl_98)">
		<path fill="#FF9300" d=""/>
		<ellipse fill="#FF9300" cx="609.73578" cy="47.10553" rx="2.5" ry="2.5"/>
	</g>
	<clipPath id="cl_99">
		<rect x="32.9375" y="15" width="752.0625" height="255.03906"/>
	</clipPath>
	<g clip-path="url(#cl_99)">
		<path fill="#FF5454" d=""/>
		<ellipse fill="#FF5454" cx="295.0199" cy="139.94078" rx="2.5" ry="2.5"/>
	</g>
	<clipPath id="cl_9a">
		<rect x="32.9375" y="15" width="752.0625" height="255.03906"/>
	</clipPath>
	<g clip-path="url(#cl_9a)">
		<path fill="#FFBFBF" d="M306.372 114.153L306.372 124.153L305.372 124.153L305.372 114.153L306.372 114.153ZM309.926 127.549L319.274 123.996L319.629 124.93L310.282 128.484L309.926 127.549ZM328.621 120.442L337.968 116.888L338.323 117.823L328.976 121.377L328.621 120.442ZM347.315 113.334L356.662 109.78L357.018 110.715L347.671 114.269L347.315 113.334ZM366.01 106.227L375.357 102.673L375.712 103.608L366.365 107.161L366.01 106.227ZM384.704 99.1191L394.051 95.5653L394.407 96.5L385.06 100.054L384.704 99.1191ZM403.399 92.0115L412.746 88.4577L413.101 89.3924L403.754 92.9462L403.399 92.0115ZM422.821 87.8656L432.821 87.8656L432.821 88.8656L422.821 88.8656L422.821 87.8656ZM442.821 87.8656L452.821 87.8656L452.821 88.8656L442.821 88.8656L442.821 87.8656ZM462.821 87.8656L472.821 87.8656L472.821 88.8656L462.821 88.8656L462.821 87.8656ZM482.821 87.8656L492.821 87.8656L492.821 88.8656L482.821 88.8656L482.821 87.8656ZM502.821 87.8656L512.821 87.8656L512.821 88.8656L502.821 88.8656L502.821 87.8656ZM522.821 87.8656L532.821 87.8656L532.821 88.8656L522.821 88.8656L522.821 87.8656ZM542.821 87.8656L552.821 87.8656L552.821 88.8656L542.821 88.8656L542.821 87.8656ZM562.821 87.8656L572.821 87.8656L572.821 88.8656L562.821 88.8656L562.821 87.8656Z"/>
		<ellipse fill="#FFBFBF" cx="305.87216" cy="114.1532" rx="2.5" ry="2.5"/>
		<ellipse fill="#FFBFBF" cx="305.87216" cy="114.1532" rx="2.5" ry="2.5"/>
		<ellipse fill="#FFBFBF" cx="305.87216" cy="114.1532" rx="2.5" ry="2.5"/>
		<ellipse fill="#FFBFBF" cx="305.87216" cy="129.62575" rx="2.5" ry="2.5"/>
		<ellipse fill="#FFBFBF" cx="414.3949" cy="88.365631" rx="2.5" ry="2.5"/>
		<ellipse fill="#FFBFBF" cx="577.17896" cy="88.365631" rx="2.5" ry="2.5"/>
		<ellipse fill="#FFBFBF" cx="577.17896" cy="88.365631" rx="2.5" ry="2.5"/>
		<ellipse fill="#FFBFBF" cx="577.17896" cy="88.365631" rx="2.5" ry="2.5"/>
		<ellipse fill="#FFBFBF" cx="577.17896" cy="88.365631" rx="2.5" ry="2.5"/>
	</g>
	<clipPath id="cl_9b">
		<rect x="32.9375" y="15" width="752.0625" height="255.03906"/>
	</clipPath>
	<g clip-path="url(#cl_9b)">
		<path fill="#AFA" d=""/>
		<ellipse fill="#AFA" cx="338.42899" cy="124.46823" rx="2.5" ry="2.5"/>
	</g>
	<clipPath id="cl_9c">
		<rect x="32.9375" y="15" width="752.0625" height="255.03906"/>
	</clipPath>
	<g clip-path="url(#cl_9c)">
		<path fill="#C00000" d="M620.454 67.2538L630.091 64.5822L630.358 65.5459L620.722 68.2174M639.728 61.9107L649.364 59.2392L649.631 60.2029L639.995 62.8744M659.001 56.5677L668.637 53.8962L668.904 54.8598L659.268 57.5313M678.274 51.2247L687.91 48.5531L688.177 49.5168L678.541 52.1883M697.547 45.8816L707.183 43.2101L707.451 44.1738L697.814 46.8453M716.82 40.5386L726.456 37.8671L726.724 38.8307L717.087 41.5022M736.093 35.1956L745.73 32.524L745.997 33.4877L736.36 36.1592"/>
		<ellipse fill="#C00000" cx="620.58807" cy="67.73558" rx="2.5" ry="2.5"/>
		<ellipse fill="#C00000" cx="750.81537" cy="31.63298" rx="2.5" ry="2.5"/>
	</g>
	<clipPath id="cl_9d">
		<rect x="32.9375" y="15" width="752.0625" height="255.03906"/>
	</clipPath>
	<g clip-path="url(#cl_9d)">
		<path fill="#6060FF" d="M446.952 56.9205L456.952 56.9205L456.952 57.9205L446.952 57.9205L446.952 56.9205ZM466.952 56.9205L476.952 56.9205L476.952 57.9205L466.952 57.9205L466.952 56.9205ZM486.952 56.9205L496.952 56.9205L496.952 57.9205L486.952 57.9205L486.952 56.9205ZM506.952 56.9205L516.952 56.9205L516.952 57.9205L506.952 57.9205L506.952 56.9205ZM526.952 56.9205L536.952 56.9205L536.952 57.9205L526.952 57.9205L526.952 56.9205ZM546.952 56.9205L556.952 56.9205L556.952 57.9205L546.952 57.9205L546.952 56.9205ZM566.952 56.9205L576.952 56.9205L576.952 57.9205L566.952 57.9205L566.952 56.9205ZM586.952 56.9205L596.952 56.9205L596.952 57.9205L586.952 57.9205L586.952 56.9205ZM606.952 56.9205L616.952 56.9205L616.952 57.9205L606.952 57.9205L606.952 56.9205ZM626.952 56.9205L636.952 56.9205L636.952 57.9205L626.952 57.9205L626.952 56.9205ZM646.952 56.9205L656.952 56.9205L656.952 57.9205L646.952 57.9205L646.952 56.9205Z"/>
		<ellipse fill="#6060FF" cx="446.95169" cy="57.420547" rx="2.5" ry="2.5"/>
		<ellipse fill="#6060FF" cx="642.2926" cy="57.420547" rx="2.5" ry="2.5"/>
		<ellipse fill="#6060FF" cx="642.2926" cy="57.420547" rx="2.5" ry="2.5"/>
		<ellipse fill="#6060FF" cx="663.99713" cy="57.420547" rx="2.5" ry="2.5"/>
	</g>
	<path fill="none" stroke="black" stroke-width="1" stroke-miterlimit="4" d="M67.1222 270.039L67.1222 274.039"/>
	<text transform="translate(67.1222 276.039)" font-size="12" font-family="Segoe UI" x="-14.238281, -7.7695313, -5.1679688, 1.3007813, 7.7695313, " y="11.027344, ">
			1,890
	</text>
	<path fill="none" stroke="black" stroke-width="1" stroke-miterlimit="4" d="M121.384 270.039L121.384 274.039"/>
	<text transform="translate(121.384 276.039)" font-size="12" font-family="Segoe UI" x="-14.238281, -7.7695313, -5.1679688, 1.3007813, 7.7695313, " y="11.027344, ">
			1,895
	</text>
	<path fill="none" stroke="black" stroke-width="1" stroke-miterlimit="4" d="M175.645 270.039L175.645 274.039"/>
	<text transform="translate(175.645 276.039)" font-size="12" font-family="Segoe UI" x="-14.238281, -7.7695313, -5.1679688, 1.3007813, 7.7695313, " y="11.027344, ">
			1,900
	</text>
	<path fill="none" stroke="black" stroke-width="1" stroke-miterlimit="4" d="M229.906 270.039L229.906 274.039"/>
	<text transform="translate(229.906 276.039)" font-size="12" font-family="Segoe UI" x="-14.238281, -7.7695313, -5.1679688, 1.3007813, 7.7695313, " y="11.027344, ">
			1,905
	</text>
	<path fill="none" stroke="black" stroke-width="1" stroke-miterlimit="4" d="M284.168 270.039L284.168 274.039"/>
	<text transform="translate(284.168 276.039)" font-size="12" font-family="Segoe UI" x="-14.238281, -7.7695313, -5.1679688, 1.3007813, 7.7695313, " y="11.027344, ">
			1,910
	</text>
	<path fill="none" stroke="black" stroke-width="1" stroke-miterlimit="4" d="M338.429 270.039L338.429 274.039"/>
	<text transform="translate(338.429 276.039)" font-size="12" font-family="Segoe UI" x="-14.238281, -7.7695313, -5.1679688, 1.3007813, 7.7695313, " y="11.027344, ">
			1,915
	</text>
	<path fill="none" stroke="black" stroke-width="1" stroke-miterlimit="4" d="M392.69 270.039L392.69 274.039"/>
	<text transform="translate(392.69 276.039)" font-size="12" font-family="Segoe UI" x="-14.238281, -7.7695313, -5.1679688, 1.3007813, 7.7695313, " y="11.027344, ">
			1,920
	</text>
	<path fill="none" stroke="black" stroke-width="1" stroke-miterlimit="4" d="M446.952 270.039L446.952 274.039"/>
	<text transform="translate(446.952 276.039)" font-size="12" font-family="Segoe UI" x="-14.238281, -7.7695313, -5.1679688, 1.3007813, 7.7695313, " y="11.027344, ">
			1,925
	</text>
	<path fill="none" stroke="black" stroke-width="1" stroke-miterlimit="4" d="M501.213 270.039L501.213 274.039"/>
	<text transform="translate(501.213 276.039)" font-size="12" font-family="Segoe UI" x="-14.238281, -7.7695313, -5.1679688, 1.3007813, 7.7695313, " y="11.027344, ">
			1,930
	</text>
	<path fill="none" stroke="black" stroke-width="1" stroke-miterlimit="4" d="M555.474 270.039L555.474 274.039"/>
	<text transform="translate(555.474 276.039)" font-size="12" font-family="Segoe UI" x="-14.238281, -7.7695313, -5.1679688, 1.3007813, 7.7695313, " y="11.027344, ">
			1,935
	</text>
	<path fill="none" stroke="black" stroke-width="1" stroke-miterlimit="4" d="M609.736 270.039L609.736 274.039"/>
	<text transform="translate(609.736 276.039)" font-size="12" font-family="Segoe UI" x="-14.238281, -7.7695313, -5.1679688, 1.3007813, 7.7695313, " y="11.027344, ">
			1,940
	</text>
	<path fill="none" stroke="black" stroke-width="1" stroke-miterlimit="4" d="M663.997 270.039L663.997 274.039"/>
	<text transform="translate(663.997 276.039)" font-size="12" font-family="Segoe UI" x="-14.238281, -7.7695313, -5.1679688, 1.3007813, 7.7695313, " y="11.027344, ">
			1,945
	</text>
	<path fill="none" stroke="black" stroke-width="1" stroke-miterlimit="4" d="M718.259 270.039L718.259 274.039"/>
	<text transform="translate(718.259 276.039)" font-size="12" font-family="Segoe UI" x="-14.238281, -7.7695313, -5.1679688, 1.3007813, 7.7695313, " y="11.027344, ">
			1,950
	</text>
	<path fill="none" stroke="black" stroke-width="1" stroke-miterlimit="4" d="M772.52 270.039L772.52 274.039"/>
	<text transform="translate(772.52 276.039)" font-size="12" font-family="Segoe UI" x="-14.238281, -7.7695313, -5.1679688, 1.3007813, 7.7695313, " y="11.027344, ">
			1,955
	</text>
	<path fill="none" stroke="black" stroke-width="1" stroke-miterlimit="4" d="M34.5653 270.039L34.5653 272.039"/>
	<path fill="none" stroke="black" stroke-width="1" stroke-miterlimit="4" d="M45.4176 270.039L45.4176 272.039"/>
	<path fill="none" stroke="black" stroke-width="1" stroke-miterlimit="4" d="M56.2699 270.039L56.2699 272.039"/>
	<path fill="none" stroke="black" stroke-width="1" stroke-miterlimit="4" d="M77.9744 270.039L77.9744 272.039"/>
	<path fill="none" stroke="black" stroke-width="1" stroke-miterlimit="4" d="M88.8267 270.039L88.8267 272.039"/>
	<path fill="none" stroke="black" stroke-width="1" stroke-miterlimit="4" d="M99.679 270.039L99.679 272.039"/>
	<path fill="none" stroke="black" stroke-width="1" stroke-miterlimit="4" d="M110.531 270.039L110.531 272.039"/>
	<path fill="none" stroke="black" stroke-width="1" stroke-miterlimit="4" d="M132.236 270.039L132.236 272.039"/>
	<path fill="none" stroke="black" stroke-width="1" stroke-miterlimit="4" d="M143.088 270.039L143.088 272.039"/>
	<path fill="none" stroke="black" stroke-width="1" stroke-miterlimit="4" d="M153.94 270.039L153.94 272.039"/>
	<path fill="none" stroke="black" stroke-width="1" stroke-miterlimit="4" d="M164.793 270.039L164.793 272.039"/>
	<path fill="none" stroke="black" stroke-width="1" stroke-miterlimit="4" d="M186.497 270.039L186.497 272.039"/>
	<path fill="none" stroke="black" stroke-width="1" stroke-miterlimit="4" d="M197.349 270.039L197.349 272.039"/>
	<path fill="none" stroke="black" stroke-width="1" stroke-miterlimit="4" d="M208.202 270.039L208.202 272.039"/>
	<path fill="none" stroke="black" stroke-width="1" stroke-miterlimit="4" d="M219.054 270.039L219.054 272.039"/>
	<path fill="none" stroke="black" stroke-width="1" stroke-miterlimit="4" d="M240.759 270.039L240.759 272.039"/>
	<path fill="none" stroke="black" stroke-width="1" stroke-miterlimit="4" d="M251.611 270.039L251.611 272.039"/>
	<path fill="none" stroke="black" stroke-width="1" stroke-miterlimit="4" d="M262.463 270.039L262.463 272.039"/>
	<path fill="none" stroke="black" stroke-width="1" stroke-miterlimit="4" d="M273.315 270.039L273.315 272.039"/>
	<path fill="none" stroke="black" stroke-width="1" stroke-miterlimit="4" d="M295.02 270.039L295.02 272.039"/>
	<path fill="none" stroke="black" stroke-width="1" stroke-miterlimit="4" d="M305.872 270.039L305.872 272.039"/>
	<path fill="none" stroke="black" stroke-width="1" stroke-miterlimit="4" d="M316.724 270.039L316.724 272.039"/>
	<path fill="none" stroke="black" stroke-width="1" stroke-miterlimit="4" d="M327.577 270.039L327.577 272.039"/>
	<path fill="none" stroke="black" stroke-width="1" stroke-miterlimit="4" d="M349.281 270.039L349.281 272.039"/>
	<path fill="none" stroke="black" stroke-width="1" stroke-miterlimit="4" d="M360.134 270.039L360.134 272.039"/>
	<path fill="none" stroke="black" stroke-width="1" stroke-miterlimit="4" d="M370.986 270.039L370.986 272.039"/>
	<path fill="none" stroke="black" stroke-width="1" stroke-miterlimit="4" d="M381.838 270.039L381.838 272.039"/>
	<path fill="none" stroke="black" stroke-width="1" stroke-miterlimit="4" d="M403.543 270.039L403.543 272.039"/>
	<path fill="none" stroke="black" stroke-width="1" stroke-miterlimit="4" d="M414.395 270.039L414.395 272.039"/>
	<path fill="none" stroke="black" stroke-width="1" stroke-miterlimit="4" d="M425.247 270.039L425.247 272.039"/>
	<path fill="none" stroke="black" stroke-width="1" stroke-miterlimit="4" d="M436.099 270.039L436.099 272.039"/>
	<path fill="none" stroke="black" stroke-width="1" stroke-miterlimit="4" d="M457.804 270.039L457.804 272.039"/>
	<path fill="none" stroke="black" stroke-width="1" stroke-miterlimit="4" d="M468.656 270.039L468.656 272.039"/>
	<path fill="none" stroke="black" stroke-width="1" stroke-miterlimit="4" d="M479.509 270.039L479.509 272.039"/>
	<path fill="none" stroke="black" stroke-width="1" stroke-miterlimit="4" d="M490.361 270.039L490.361 272.039"/>
	<path fill="none" stroke="black" stroke-width="1" stroke-miterlimit="4" d="M512.065 270.039L512.065 272.039"/>
	<path fill="none" stroke="black" stroke-width="1" stroke-miterlimit="4" d="M522.918 270.039L522.918 272.039"/>
	<path fill="none" stroke="black" stroke-width="1" stroke-miterlimit="4" d="M533.77 270.039L533.77 272.039"/>
	<path fill="none" stroke="black" stroke-width="1" stroke-miterlimit="4" d="M544.622 270.039L544.622 272.039"/>
	<path fill="none" stroke="black" stroke-width="1" stroke-miterlimit="4" d="M566.327 270.039L566.327 272.039"/>
	<path fill="none" stroke="black" stroke-width="1" stroke-miterlimit="4" d="M577.179 270.039L577.179 272.039"/>
	<path fill="none" stroke="black" stroke-width="1" stroke-miterlimit="4" d="M588.031 270.039L588.031 272.039"/>
	<path fill="none" stroke="black" stroke-width="1" stroke-miterlimit="4" d="M598.884 270.039L598.884 272.039"/>
	<path fill="none" stroke="black" stroke-width="1" stroke-miterlimit="4" d="M620.588 270.039L620.588 272.039"/>
	<path fill="none" stroke="black" stroke-width="1" stroke-miterlimit="4" d="M631.44 270.039L631.44 272.039"/>
	<path fill="none" stroke="black" stroke-width="1" stroke-miterlimit="4" d="M642.293 270.039L642.293 272.039"/>
	<path fill="none" stroke="black" stroke-width="1" stroke-miterlimit="4" d="M653.145 270.039L653.145 272.039"/>
	<path fill="none" stroke="black" stroke-width="1" stroke-miterlimit="4" d="M674.849 270.039L674.849 272.039"/>
	<path fill="none" stroke="black" stroke-width="1" stroke-miterlimit="4" d="M685.702 270.039L685.702 272.039"/>
	<path fill="none" stroke="black" stroke-width="1" stroke-miterlimit="4" d="M696.554 270.039L696.554 272.039"/>
	<path fill="none" stroke="black" stroke-width="1" stroke-miterlimit="4" d="M707.406 270.039L707.406 272.039"/>
	<path fill="none" stroke="black" stroke-width="1" stroke-miterlimit="4" d="M729.111 270.039L729.111 272.039"/>
	<path fill="none" stroke="black" stroke-width="1" stroke-miterlimit="4" d="M739.963 270.039L739.963 272.039"/>
	<path fill="none" stroke="black" stroke-width="1" stroke-miterlimit="4" d="M750.815 270.039L750.815 272.039"/>
	<path fill="none" stroke="black" stroke-width="1" stroke-miterlimit="4" d="M761.668 270.039L761.668 272.039"/>
	<path fill="none" stroke="black" stroke-width="1" stroke-miterlimit="4" d="M783.372 270.039L783.372 272.039"/>
	<path fill="none" stroke="black" stroke-width="1" stroke-miterlimit="4" d="M32.9375 270.039L785 270.039"/>
	<path fill="none" stroke="black" stroke-width="1" stroke-miterlimit="4" d="M32.9375 15.1L785 15.1"/>
	<path fill="none" stroke="black" stroke-width="1" stroke-miterlimit="4" d="M32.9375 243.091L28.9375 243.091"/>
	<text transform="translate(23.9375 243.091)" font-size="12" font-family="Segoe UI" x="-12.9375, -6.46875, " y="3.046875, ">
			15
	</text>
	<path fill="none" stroke="black" stroke-width="1" stroke-miterlimit="4" d="M32.9375 191.516L28.9375 191.516"/>
	<text transform="translate(23.9375 191.516)" font-size="12" font-family="Segoe UI" x="-12.9375, -6.46875, " y="3.046875, ">
			20
	</text>
	<path fill="none" stroke="black" stroke-width="1" stroke-miterlimit="4" d="M32.9375 139.941L28.9375 139.941"/>
	<text transform="translate(23.9375 139.941)" font-size="12" font-family="Segoe UI" x="-12.9375, -6.46875, " y="3.046875, ">
			25
	</text>
	<path fill="none" stroke="black" stroke-width="1" stroke-miterlimit="4" d="M32.9375 88.3656L28.9375 88.3656"/>
	<text transform="translate(23.9375 88.3656)" font-size="12" font-family="Segoe UI" x="-12.9375, -6.46875, " y="3.046875, ">
			30
	</text>
	<path fill="none" stroke="black" stroke-width="1" stroke-miterlimit="4" d="M32.9375 36.7905L28.9375 36.7905"/>
	<text transform="translate(23.9375 36.7905)" font-size="12" font-family="Segoe UI" x="-12.9375, -6.46875, " y="3.046875, ">
			35
	</text>
	<path fill="none" stroke="black" stroke-width="1" stroke-miterlimit="4" d="M32.9375 263.721L30.9375 263.721"/>
	<path fill="none" stroke="black" stroke-width="1" stroke-miterlimit="4" d="M32.9375 253.406L30.9375 253.406"/>
	<path fill="none" stroke="black" stroke-width="1" stroke-miterlimit="4" d="M32.9375 232.776L30.9375 232.776"/>
	<path fill="none" stroke="black" stroke-width="1" stroke-miterlimit="4" d="M32.9375 222.461L30.9375 222.461"/>
	<path fill="none" stroke="black" stroke-width="1" stroke-miterlimit="4" d="M32.9375 212.146L30.9375 212.146"/>
	<path fill="none" stroke="black" stroke-width="1" stroke-miterlimit="4" d="M32.9375 201.831L30.9375 201.831"/>
	<path fill="none" stroke="black" stroke-width="1" stroke-miterlimit="4" d="M32.9375 181.201L30.9375 181.201"/>
	<path fill="none" stroke="black" stroke-width="1" stroke-miterlimit="4" d="M32.9375 170.886L30.9375 170.886"/>
	<path fill="none" stroke="black" stroke-width="1" stroke-miterlimit="4" d="M32.9375 160.571L30.9375 160.571"/>
	<path fill="none" stroke="black" stroke-width="1" stroke-miterlimit="4" d="M32.9375 150.256L30.9375 150.256"/>
	<path fill="none" stroke="black" stroke-width="1" stroke-miterlimit="4" d="M32.9375 129.626L30.9375 129.626"/>
	<path fill="none" stroke="black" stroke-width="1" stroke-miterlimit="4" d="M32.9375 119.311L30.9375 119.311"/>
	<path fill="none" stroke="black" stroke-width="1" stroke-miterlimit="4" d="M32.9375 108.996L30.9375 108.996"/>
	<path fill="none" stroke="black" stroke-width="1" stroke-miterlimit="4" d="M32.9375 98.6807L30.9375 98.6807"/>
	<path fill="none" stroke="black" stroke-width="1" stroke-miterlimit="4" d="M32.9375 78.0506L30.9375 78.0506"/>
	<path fill="none" stroke="black" stroke-width="1" stroke-miterlimit="4" d="M32.9375 67.7356L30.9375 67.7356"/>
	<path fill="none" stroke="black" stroke-width="1" stroke-miterlimit="4" d="M32.9375 57.4205L30.9375 57.4205"/>
	<path fill="none" stroke="black" stroke-width="1" stroke-miterlimit="4" d="M32.9375 47.1055L30.9375 47.1055"/>
	<path fill="none" stroke="black" stroke-width="1" stroke-miterlimit="4" d="M32.9375 26.4755L30.9375 26.4755"/>
	<path fill="none" stroke="black" stroke-width="1" stroke-miterlimit="4" d="M32.9375 16.1604L30.9375 16.1604"/>
	<path fill="none" stroke="black" stroke-width="1" stroke-miterlimit="4" d="M32.9375 270.039L32.9375 15"/>
	<path fill="none" stroke="black" stroke-width="1" stroke-miterlimit="4" d="M785 270.039L785 15"/>
</svg>
