<?xml version="1.0" encoding="utf-8" ?>
<svg xmlns="http://www.w3.org/2000/svg" xmlns:xlink="http://www.w3.org/1999/xlink" width="800" height="300">
	<rect fill="white" width="800" height="300"/>
	<path fill="none" stroke="#010101" stroke-width="1" stroke-miterlimit="4" stroke-opacity="0.098039217" d="M81.9549 270.039L81.9549 15M148.912 270.039L148.912 15M215.868 270.039L215.868 15M282.825 270.039L282.825 15M349.782 270.039L349.782 15M416.738 270.039L416.738 15M483.695 270.039L483.695 15M550.652 270.039L550.652 15M617.608 270.039L617.608 15M684.565 270.039L684.565 15M751.522 270.039L751.522 15"/>
	<path fill="none" stroke="#010101" stroke-width="1" stroke-miterlimit="4" stroke-opacity="0.098039217" d="M48.4766 253.406L785 253.406M48.4766 209.051L785 209.051M48.4766 164.697L785 164.697M48.4766 120.342L785 120.342M48.4766 75.9876L785 75.9876M48.4766 31.633L785 31.633"/>
	<clipPath id="cl_46">
		<rect x="48.476563" y="15" width="736.52344" height="255.03906"/>
	</clipPath>
	<g clip-path="url(#cl_46)">
		<path fill="none" stroke="#1F77B4" stroke-width="1" stroke-miterlimit="4" d="M81.9549 253.406L751.522 31.633"/>
		<ellipse fill="#1F77B4" cx="81.954895" cy="253.40608" rx="2.5" ry="2.5"/>
		<ellipse fill="#1F77B4" cx="751.52167" cy="31.63298" rx="2.5" ry="2.5"/>
	</g>
	<path fill="none" stroke="black" stroke-width="1" stroke-miterlimit="4" d="M81.9549 270.039L81.9549 274.039"/>
	<text transform="translate(81.9549 276.039)" font-size="12" font-family="Segoe UI" x="-14.238281, -7.7695313, -5.1679688, 1.3007813, 7.7695313, " y="11.027344, ">
			1,908
	</text>
	<path fill="none" stroke="black" stroke-width="1" stroke-miterlimit="4" d="M148.912 270.039L148.912 274.039"/>
	<text transform="translate(148.912 276.039)" font-size="12" font-family="Segoe UI" x="-14.238281, -7.7695313, -5.1679688, 1.3007813, 7.7695313, " y="11.027344, ">
			1,908
	</text>
	<path fill="none" stroke="black" stroke-width="1" stroke-miterlimit="4" d="M215.868 270.039L215.868 274.039"/>
	<text transform="translate(215.868 276.039)" font-size="12" font-family="Segoe UI" x="-14.238281, -7.7695313, -5.1679688, 1.3007813, 7.7695313, " y="11.027344, ">
			1,908
	</text>
	<path fill="none" stroke="black" stroke-width="1" stroke-miterlimit="4" d="M282.825 270.039L282.825 274.039"/>
	<text transform="translate(282.825 276.039)" font-size="12" font-family="Segoe UI" x="-14.238281, -7.7695313, -5.1679688, 1.3007813, 7.7695313, " y="11.027344, ">
			1,908
	</text>
	<path fill="none" stroke="black" stroke-width="1" stroke-miterlimit="4" d="M349.782 270.039L349.782 274.039"/>
	<text transform="translate(349.782 276.039)" font-size="12" font-family="Segoe UI" x="-14.238281, -7.7695313, -5.1679688, 1.3007813, 7.7695313, " y="11.027344, ">
			1,908
	</text>
	<path fill="none" stroke="black" stroke-width="1" stroke-miterlimit="4" d="M416.738 270.039L416.738 274.039"/>
	<text transform="translate(416.738 276.039)" font-size="12" font-family="Segoe UI" x="-14.238281, -7.7695313, -5.1679688, 1.3007813, 7.7695313, " y="11.027344, ">
			1,908
	</text>
	<path fill="none" stroke="black" stroke-width="1" stroke-miterlimit="4" d="M483.695 270.039L483.695 274.039"/>
	<text transform="translate(483.695 276.039)" font-size="12" font-family="Segoe UI" x="-14.238281, -7.7695313, -5.1679688, 1.3007813, 7.7695313, " y="11.027344, ">
			1,909
	</text>
	<path fill="none" stroke="black" stroke-width="1" stroke-miterlimit="4" d="M550.652 270.039L550.652 274.039"/>
	<text transform="translate(550.652 276.039)" font-size="12" font-family="Segoe UI" x="-14.238281, -7.7695313, -5.1679688, 1.3007813, 7.7695313, " y="11.027344, ">
			1,909
	</text>
	<path fill="none" stroke="black" stroke-width="1" stroke-miterlimit="4" d="M617.608 270.039L617.608 274.039"/>
	<text transform="translate(617.608 276.039)" font-size="12" font-family="Segoe UI" x="-14.238281, -7.7695313, -5.1679688, 1.3007813, 7.7695313, " y="11.027344, ">
			1,909
	</text>
	<path fill="none" stroke="black" stroke-width="1" stroke-miterlimit="4" d="M684.565 270.039L684.565 274.039"/>
	<text transform="translate(684.565 276.039)" font-size="12" font-family="Segoe UI" x="-14.238281, -7.7695313, -5.1679688, 1.3007813, 7.7695313, " y="11.027344, ">
			1,909
	</text>
	<path fill="none" stroke="black" stroke-width="1" stroke-miterlimit="4" d="M751.522 270.039L751.522 274.039"/>
	<text transform="translate(751.522 276.039)" font-size="12" font-family="Segoe UI" x="-14.238281, -7.7695313, -5.1679688, 1.3007813, 7.7695313, " y="11.027344, ">
			1,909
	</text>
	<path fill="none" stroke="black" stroke-width="1" stroke-miterlimit="4" d="M55.1722 270.039L55.1722 272.039"/>
	<path fill="none" stroke="black" stroke-width="1" stroke-miterlimit="4" d="M68.5636 270.039L68.5636 272.039"/>
	<path fill="none" stroke="black" stroke-width="1" stroke-miterlimit="4" d="M95.3462 270.039L95.3462 272.039"/>
	<path fill="none" stroke="black" stroke-width="1" stroke-miterlimit="4" d="M108.738 270.039L108.738 272.039"/>
	<path fill="none" stroke="black" stroke-width="1" stroke-miterlimit="4" d="M122.129 270.039L122.129 272.039"/>
	<path fill="none" stroke="black" stroke-width="1" stroke-miterlimit="4" d="M135.52 270.039L135.52 272.039"/>
	<path fill="none" stroke="black" stroke-width="1" stroke-miterlimit="4" d="M162.303 270.039L162.303 272.039"/>
	<path fill="none" stroke="black" stroke-width="1" stroke-miterlimit="4" d="M175.694 270.039L175.694 272.039"/>
	<path fill="none" stroke="black" stroke-width="1" stroke-miterlimit="4" d="M189.086 270.039L189.086 272.039"/>
	<path fill="none" stroke="black" stroke-width="1" stroke-miterlimit="4" d="M202.477 270.039L202.477 272.039"/>
	<path fill="none" stroke="black" stroke-width="1" stroke-miterlimit="4" d="M229.26 270.039L229.26 272.039"/>
	<path fill="none" stroke="black" stroke-width="1" stroke-miterlimit="4" d="M242.651 270.039L242.651 272.039"/>
	<path fill="none" stroke="black" stroke-width="1" stroke-miterlimit="4" d="M256.042 270.039L256.042 272.039"/>
	<path fill="none" stroke="black" stroke-width="1" stroke-miterlimit="4" d="M269.434 270.039L269.434 272.039"/>
	<path fill="none" stroke="black" stroke-width="1" stroke-miterlimit="4" d="M296.216 270.039L296.216 272.039"/>
	<path fill="none" stroke="black" stroke-width="1" stroke-miterlimit="4" d="M309.608 270.039L309.608 272.039"/>
	<path fill="none" stroke="black" stroke-width="1" stroke-miterlimit="4" d="M322.999 270.039L322.999 272.039"/>
	<path fill="none" stroke="black" stroke-width="1" stroke-miterlimit="4" d="M336.39 270.039L336.39 272.039"/>
	<path fill="none" stroke="black" stroke-width="1" stroke-miterlimit="4" d="M363.173 270.039L363.173 272.039"/>
	<path fill="none" stroke="black" stroke-width="1" stroke-miterlimit="4" d="M376.564 270.039L376.564 272.039"/>
	<path fill="none" stroke="black" stroke-width="1" stroke-miterlimit="4" d="M389.956 270.039L389.956 272.039"/>
	<path fill="none" stroke="black" stroke-width="1" stroke-miterlimit="4" d="M403.347 270.039L403.347 272.039"/>
	<path fill="none" stroke="black" stroke-width="1" stroke-miterlimit="4" d="M430.13 270.039L430.13 272.039"/>
	<path fill="none" stroke="black" stroke-width="1" stroke-miterlimit="4" d="M443.521 270.039L443.521 272.039"/>
	<path fill="none" stroke="black" stroke-width="1" stroke-miterlimit="4" d="M456.912 270.039L456.912 272.039"/>
	<path fill="none" stroke="black" stroke-width="1" stroke-miterlimit="4" d="M470.304 270.039L470.304 272.039"/>
	<path fill="none" stroke="black" stroke-width="1" stroke-miterlimit="4" d="M497.086 270.039L497.086 272.039"/>
	<path fill="none" stroke="black" stroke-width="1" stroke-miterlimit="4" d="M510.478 270.039L510.478 272.039"/>
	<path fill="none" stroke="black" stroke-width="1" stroke-miterlimit="4" d="M523.869 270.039L523.869 272.039"/>
	<path fill="none" stroke="black" stroke-width="1" stroke-miterlimit="4" d="M537.26 270.039L537.26 272.039"/>
	<path fill="none" stroke="black" stroke-width="1" stroke-miterlimit="4" d="M564.043 270.039L564.043 272.039"/>
	<path fill="none" stroke="black" stroke-width="1" stroke-miterlimit="4" d="M577.434 270.039L577.434 272.039"/>
	<path fill="none" stroke="black" stroke-width="1" stroke-miterlimit="4" d="M590.826 270.039L590.826 272.039"/>
	<path fill="none" stroke="black" stroke-width="1" stroke-miterlimit="4" d="M604.217 270.039L604.217 272.039"/>
	<path fill="none" stroke="black" stroke-width="1" stroke-miterlimit="4" d="M631 270.039L631 272.039"/>
	<path fill="none" stroke="black" stroke-width="1" stroke-miterlimit="4" d="M644.391 270.039L644.391 272.039"/>
	<path fill="none" stroke="black" stroke-width="1" stroke-miterlimit="4" d="M657.782 270.039L657.782 272.039"/>
	<path fill="none" stroke="black" stroke-width="1" stroke-miterlimit="4" d="M671.174 270.039L671.174 272.039"/>
	<path fill="none" stroke="black" stroke-width="1" stroke-miterlimit="4" d="M697.956 270.039L697.956 272.039"/>
	<path fill="none" stroke="black" stroke-width="1" stroke-miterlimit="4" d="M711.348 270.039L711.348 272.039"/>
	<path fill="none" stroke="black" stroke-width="1" stroke-miterlimit="4" d="M724.739 270.039L724.739 272.039"/>
	<path fill="none" stroke="black" stroke-width="1" stroke-miterlimit="4" d="M738.13 270.039L738.13 272.039"/>
	<path fill="none" stroke="black" stroke-width="1" stroke-miterlimit="4" d="M764.913 270.039L764.913 272.039"/>
	<path fill="none" stroke="black" stroke-width="1" stroke-miterlimit="4" d="M778.304 270.039L778.304 272.039"/>
	<path fill="none" stroke="black" stroke-width="1" stroke-miterlimit="4" d="M48.4766 270.039L785 270.039"/>
	<path fill="none" stroke="black" stroke-width="1" stroke-miterlimit="4" d="M48.4766 15.1L785 15.1"/>
	<path fill="none" stroke="black" stroke-width="1" stroke-miterlimit="4" d="M48.4766 253.406L44.4766 253.406"/>
	<text transform="translate(39.4766 253.406)" font-size="12" font-family="Segoe UI" x="-12.9375, -6.46875, " y="3.046875, ">
			21
	</text>
	<path fill="none" stroke="black" stroke-width="1" stroke-miterlimit="4" d="M48.4766 209.051L44.4766 209.051"/>
	<text transform="translate(39.4766 209.051)" font-size="12" font-family="Segoe UI" x="-22.007813, -15.539063, -9.0703125, -6.46875, " y="3.046875, ">
			21.1
	</text>
	<path fill="none" stroke="black" stroke-width="1" stroke-miterlimit="4" d="M48.4766 164.697L44.4766 164.697"/>
	<text transform="translate(39.4766 164.697)" font-size="12" font-family="Segoe UI" x="-22.007813, -15.539063, -9.0703125, -6.46875, " y="3.046875, ">
			21.2
	</text>
	<path fill="none" stroke="black" stroke-width="1" stroke-miterlimit="4" d="M48.4766 120.342L44.4766 120.342"/>
	<text transform="translate(39.4766 120.342)" font-size="12" font-family="Segoe UI" x="-22.007813, -15.539063, -9.0703125, -6.46875, " y="3.046875, ">
			21.3
	</text>
	<path fill="none" stroke="black" stroke-width="1" stroke-miterlimit="4" d="M48.4766 75.9876L44.4766 75.9876"/>
	<text transform="translate(39.4766 75.9876)" font-size="12" font-family="Segoe UI" x="-22.007813, -15.539063, -9.0703125, -6.46875, " y="3.046875, ">
			21.4
	</text>
	<path fill="none" stroke="black" stroke-width="1" stroke-miterlimit="4" d="M48.4766 31.633L44.4766 31.633"/>
	<text transform="translate(39.4766 31.633)" font-size="12" font-family="Segoe UI" x="-22.007813, -15.539063, -9.0703125, -6.46875, " y="3.046875, ">
			21.5
	</text>
	<path fill="none" stroke="black" stroke-width="1" stroke-miterlimit="4" d="M48.4766 262.277L46.4766 262.277"/>
	<path fill="none" stroke="black" stroke-width="1" stroke-miterlimit="4" d="M48.4766 244.535L46.4766 244.535"/>
	<path fill="none" stroke="black" stroke-width="1" stroke-miterlimit="4" d="M48.4766 235.664L46.4766 235.664"/>
	<path fill="none" stroke="black" stroke-width="1" stroke-miterlimit="4" d="M48.4766 226.793L46.4766 226.793"/>
	<path fill="none" stroke="black" stroke-width="1" stroke-miterlimit="4" d="M48.4766 217.922L46.4766 217.922"/>
	<path fill="none" stroke="black" stroke-width="1" stroke-miterlimit="4" d="M48.4766 200.181L46.4766 200.181"/>
	<path fill="none" stroke="black" stroke-width="1" stroke-miterlimit="4" d="M48.4766 191.31L46.4766 191.31"/>
	<path fill="none" stroke="black" stroke-width="1" stroke-miterlimit="4" d="M48.4766 182.439L46.4766 182.439"/>
	<path fill="none" stroke="black" stroke-width="1" stroke-miterlimit="4" d="M48.4766 173.568L46.4766 173.568"/>
	<path fill="none" stroke="black" stroke-width="1" stroke-miterlimit="4" d="M48.4766 155.826L46.4766 155.826"/>
	<path fill="none" stroke="black" stroke-width="1" stroke-miterlimit="4" d="M48.4766 146.955L46.4766 146.955"/>
	<path fill="none" stroke="black" stroke-width="1" stroke-miterlimit="4" d="M48.4766 138.084L46.4766 138.084"/>
	<path fill="none" stroke="black" stroke-width="1" stroke-miterlimit="4" d="M48.4766 129.213L46.4766 129.213"/>
	<path fill="none" stroke="black" stroke-width="1" stroke-miterlimit="4" d="M48.4766 111.471L46.4766 111.471"/>
	<path fill="none" stroke="black" stroke-width="1" stroke-miterlimit="4" d="M48.4766 102.6L46.4766 102.6"/>
	<path fill="none" stroke="black" stroke-width="1" stroke-miterlimit="4" d="M48.4766 93.7294L46.4766 93.7294"/>
	<path fill="none" stroke="black" stroke-width="1" stroke-miterlimit="4" d="M48.4766 84.8585L46.4766 84.8585"/>
	<path fill="none" stroke="black" stroke-width="1" stroke-miterlimit="4" d="M48.4766 67.1167L46.4766 67.1167"/>
	<path fill="none" stroke="black" stroke-width="1" stroke-miterlimit="4" d="M48.4766 58.2458L46.4766 58.2458"/>
	<path fill="none" stroke="black" stroke-width="1" stroke-miterlimit="4" d="M48.4766 49.3748L46.4766 49.3748"/>
	<path fill="none" stroke="black" stroke-width="1" stroke-miterlimit="4" d="M48.4766 40.5039L46.4766 40.5039"/>
	<path fill="none" stroke="black" stroke-width="1" stroke-miterlimit="4" d="M48.4766 22.7621L46.4766 22.7621"/>
	<path fill="none" stroke="black" stroke-width="1" stroke-miterlimit="4" d="M48.4766 270.039L48.4766 15"/>
	<path fill="none" stroke="black" stroke-width="1" stroke-miterlimit="4" d="M785 270.039L785 15"/>
</svg>
