<?xml version="1.0" encoding="utf-8" ?>
<svg xmlns="http://www.w3.org/2000/svg" xmlns:xlink="http://www.w3.org/1999/xlink" width="800" height="300">
	<rect fill="white" width="800" height="300"/>
	<path fill="none" stroke="#010101" stroke-width="1" stroke-miterlimit="4" stroke-opacity="0.098039217" d="M75.7802 270.039L75.7802 15M129.816 270.039L129.816 15M183.852 270.039L183.852 15M237.888 270.039L237.888 15M291.923 270.039L291.923 15M345.959 270.039L345.959 15M399.995 270.039L399.995 15M454.031 270.039L454.031 15M508.067 270.039L508.067 15M562.102 270.039L562.102 15M616.138 270.039L616.138 15M670.174 270.039L670.174 15M724.21 270.039L724.21 15M778.246 270.039L778.246 15"/>
	<path fill="none" stroke="#010101" stroke-width="1" stroke-miterlimit="4" stroke-opacity="0.098039217" d="M42.0078 253.406L785 253.406M42.0078 225.684L785 225.684M42.0078 197.963L785 197.963M42.0078 170.241L785 170.241M42.0078 142.52L785 142.52M42.0078 114.798L785 114.798M42.0078 87.0763L785 87.0763M42.0078 59.3546L785 59.3546M42.0078 31.633L785 31.633"/>
	<clipPath id="cl_54">
		<rect x="42.007813" y="15" width="742.99219" height="255.03906"/>
	</clipPath>
	<g clip-path="url(#cl_54)">
		<path fill="none" stroke="#1F77B4" stroke-width="1" stroke-miterlimit="4" d="M75.7802 170.241L75.7802 170.241L75.7802 170.241L75.7802 253.406L345.959 31.633L751.228 31.633L751.228 31.633L751.228 31.633L751.228 31.633"/>
		<ellipse fill="#1F77B4" cx="75.780182" cy="170.24117" rx="2.5" ry="2.5"/>
		<ellipse fill="#1F77B4" cx="75.780182" cy="170.24117" rx="2.5" ry="2.5"/>
		<ellipse fill="#1F77B4" cx="75.780182" cy="170.24117" rx="2.5" ry="2.5"/>
		<ellipse fill="#1F77B4" cx="75.780182" cy="253.40608" rx="2.5" ry="2.5"/>
		<ellipse fill="#1F77B4" cx="345.95917" cy="31.63298" rx="2.5" ry="2.5"/>
		<ellipse fill="#1F77B4" cx="751.2276" cy="31.63298" rx="2.5" ry="2.5"/>
		<ellipse fill="#1F77B4" cx="751.2276" cy="31.63298" rx="2.5" ry="2.5"/>
		<ellipse fill="#1F77B4" cx="751.2276" cy="31.63298" rx="2.5" ry="2.5"/>
		<ellipse fill="#1F77B4" cx="751.2276" cy="31.63298" rx="2.5" ry="2.5"/>
	</g>
	<path fill="none" stroke="black" stroke-width="1" stroke-miterlimit="4" d="M75.7802 270.039L75.7802 274.039"/>
	<text transform="translate(75.7802 276.039)" font-size="12" font-family="Segoe UI" x="-14.238281, -7.7695313, -5.1679688, 1.3007813, 7.7695313, " y="11.027344, ">
			1,912
	</text>
	<path fill="none" stroke="black" stroke-width="1" stroke-miterlimit="4" d="M129.816 270.039L129.816 274.039"/>
	<text transform="translate(129.816 276.039)" font-size="12" font-family="Segoe UI" x="-14.238281, -7.7695313, -5.1679688, 1.3007813, 7.7695313, " y="11.027344, ">
			1,914
	</text>
	<path fill="none" stroke="black" stroke-width="1" stroke-miterlimit="4" d="M183.852 270.039L183.852 274.039"/>
	<text transform="translate(183.852 276.039)" font-size="12" font-family="Segoe UI" x="-14.238281, -7.7695313, -5.1679688, 1.3007813, 7.7695313, " y="11.027344, ">
			1,916
	</text>
	<path fill="none" stroke="black" stroke-width="1" stroke-miterlimit="4" d="M237.888 270.039L237.888 274.039"/>
	<text transform="translate(237.888 276.039)" font-size="12" font-family="Segoe UI" x="-14.238281, -7.7695313, -5.1679688, 1.3007813, 7.7695313, " y="11.027344, ">
			1,918
	</text>
	<path fill="none" stroke="black" stroke-width="1" stroke-miterlimit="4" d="M291.923 270.039L291.923 274.039"/>
	<text transform="translate(291.923 276.039)" font-size="12" font-family="Segoe UI" x="-14.238281, -7.7695313, -5.1679688, 1.3007813, 7.7695313, " y="11.027344, ">
			1,920
	</text>
	<path fill="none" stroke="black" stroke-width="1" stroke-miterlimit="4" d="M345.959 270.039L345.959 274.039"/>
	<text transform="translate(345.959 276.039)" font-size="12" font-family="Segoe UI" x="-14.238281, -7.7695313, -5.1679688, 1.3007813, 7.7695313, " y="11.027344, ">
			1,922
	</text>
	<path fill="none" stroke="black" stroke-width="1" stroke-miterlimit="4" d="M399.995 270.039L399.995 274.039"/>
	<text transform="translate(399.995 276.039)" font-size="12" font-family="Segoe UI" x="-14.238281, -7.7695313, -5.1679688, 1.3007813, 7.7695313, " y="11.027344, ">
			1,924
	</text>
	<path fill="none" stroke="black" stroke-width="1" stroke-miterlimit="4" d="M454.031 270.039L454.031 274.039"/>
	<text transform="translate(454.031 276.039)" font-size="12" font-family="Segoe UI" x="-14.238281, -7.7695313, -5.1679688, 1.3007813, 7.7695313, " y="11.027344, ">
			1,926
	</text>
	<path fill="none" stroke="black" stroke-width="1" stroke-miterlimit="4" d="M508.067 270.039L508.067 274.039"/>
	<text transform="translate(508.067 276.039)" font-size="12" font-family="Segoe UI" x="-14.238281, -7.7695313, -5.1679688, 1.3007813, 7.7695313, " y="11.027344, ">
			1,928
	</text>
	<path fill="none" stroke="black" stroke-width="1" stroke-miterlimit="4" d="M562.102 270.039L562.102 274.039"/>
	<text transform="translate(562.102 276.039)" font-size="12" font-family="Segoe UI" x="-14.238281, -7.7695313, -5.1679688, 1.3007813, 7.7695313, " y="11.027344, ">
			1,930
	</text>
	<path fill="none" stroke="black" stroke-width="1" stroke-miterlimit="4" d="M616.138 270.039L616.138 274.039"/>
	<text transform="translate(616.138 276.039)" font-size="12" font-family="Segoe UI" x="-14.238281, -7.7695313, -5.1679688, 1.3007813, 7.7695313, " y="11.027344, ">
			1,932
	</text>
	<path fill="none" stroke="black" stroke-width="1" stroke-miterlimit="4" d="M670.174 270.039L670.174 274.039"/>
	<text transform="translate(670.174 276.039)" font-size="12" font-family="Segoe UI" x="-14.238281, -7.7695313, -5.1679688, 1.3007813, 7.7695313, " y="11.027344, ">
			1,934
	</text>
	<path fill="none" stroke="black" stroke-width="1" stroke-miterlimit="4" d="M724.21 270.039L724.21 274.039"/>
	<text transform="translate(724.21 276.039)" font-size="12" font-family="Segoe UI" x="-14.238281, -7.7695313, -5.1679688, 1.3007813, 7.7695313, " y="11.027344, ">
			1,936
	</text>
	<path fill="none" stroke="black" stroke-width="1" stroke-miterlimit="4" d="M778.246 270.039L778.246 274.039"/>
	<text transform="translate(778.246 276.039)" font-size="12" font-family="Segoe UI" x="-14.238281, -7.7695313, -5.1679688, 1.3007813, 7.7695313, " y="11.027344, ">
			1,938
	</text>
	<path fill="none" stroke="black" stroke-width="1" stroke-miterlimit="4" d="M43.3587 270.039L43.3587 272.039"/>
	<path fill="none" stroke="black" stroke-width="1" stroke-miterlimit="4" d="M54.1659 270.039L54.1659 272.039"/>
	<path fill="none" stroke="black" stroke-width="1" stroke-miterlimit="4" d="M64.973 270.039L64.973 272.039"/>
	<path fill="none" stroke="black" stroke-width="1" stroke-miterlimit="4" d="M86.5873 270.039L86.5873 272.039"/>
	<path fill="none" stroke="black" stroke-width="1" stroke-miterlimit="4" d="M97.3945 270.039L97.3945 272.039"/>
	<path fill="none" stroke="black" stroke-width="1" stroke-miterlimit="4" d="M108.202 270.039L108.202 272.039"/>
	<path fill="none" stroke="black" stroke-width="1" stroke-miterlimit="4" d="M119.009 270.039L119.009 272.039"/>
	<path fill="none" stroke="black" stroke-width="1" stroke-miterlimit="4" d="M140.623 270.039L140.623 272.039"/>
	<path fill="none" stroke="black" stroke-width="1" stroke-miterlimit="4" d="M151.43 270.039L151.43 272.039"/>
	<path fill="none" stroke="black" stroke-width="1" stroke-miterlimit="4" d="M162.237 270.039L162.237 272.039"/>
	<path fill="none" stroke="black" stroke-width="1" stroke-miterlimit="4" d="M173.045 270.039L173.045 272.039"/>
	<path fill="none" stroke="black" stroke-width="1" stroke-miterlimit="4" d="M194.659 270.039L194.659 272.039"/>
	<path fill="none" stroke="black" stroke-width="1" stroke-miterlimit="4" d="M205.466 270.039L205.466 272.039"/>
	<path fill="none" stroke="black" stroke-width="1" stroke-miterlimit="4" d="M216.273 270.039L216.273 272.039"/>
	<path fill="none" stroke="black" stroke-width="1" stroke-miterlimit="4" d="M227.08 270.039L227.08 272.039"/>
	<path fill="none" stroke="black" stroke-width="1" stroke-miterlimit="4" d="M248.695 270.039L248.695 272.039"/>
	<path fill="none" stroke="black" stroke-width="1" stroke-miterlimit="4" d="M259.502 270.039L259.502 272.039"/>
	<path fill="none" stroke="black" stroke-width="1" stroke-miterlimit="4" d="M270.309 270.039L270.309 272.039"/>
	<path fill="none" stroke="black" stroke-width="1" stroke-miterlimit="4" d="M281.116 270.039L281.116 272.039"/>
	<path fill="none" stroke="black" stroke-width="1" stroke-miterlimit="4" d="M302.731 270.039L302.731 272.039"/>
	<path fill="none" stroke="black" stroke-width="1" stroke-miterlimit="4" d="M313.538 270.039L313.538 272.039"/>
	<path fill="none" stroke="black" stroke-width="1" stroke-miterlimit="4" d="M324.345 270.039L324.345 272.039"/>
	<path fill="none" stroke="black" stroke-width="1" stroke-miterlimit="4" d="M335.152 270.039L335.152 272.039"/>
	<path fill="none" stroke="black" stroke-width="1" stroke-miterlimit="4" d="M356.766 270.039L356.766 272.039"/>
	<path fill="none" stroke="black" stroke-width="1" stroke-miterlimit="4" d="M367.573 270.039L367.573 272.039"/>
	<path fill="none" stroke="black" stroke-width="1" stroke-miterlimit="4" d="M378.381 270.039L378.381 272.039"/>
	<path fill="none" stroke="black" stroke-width="1" stroke-miterlimit="4" d="M389.188 270.039L389.188 272.039"/>
	<path fill="none" stroke="black" stroke-width="1" stroke-miterlimit="4" d="M410.802 270.039L410.802 272.039"/>
	<path fill="none" stroke="black" stroke-width="1" stroke-miterlimit="4" d="M421.609 270.039L421.609 272.039"/>
	<path fill="none" stroke="black" stroke-width="1" stroke-miterlimit="4" d="M432.416 270.039L432.416 272.039"/>
	<path fill="none" stroke="black" stroke-width="1" stroke-miterlimit="4" d="M443.224 270.039L443.224 272.039"/>
	<path fill="none" stroke="black" stroke-width="1" stroke-miterlimit="4" d="M464.838 270.039L464.838 272.039"/>
	<path fill="none" stroke="black" stroke-width="1" stroke-miterlimit="4" d="M475.645 270.039L475.645 272.039"/>
	<path fill="none" stroke="black" stroke-width="1" stroke-miterlimit="4" d="M486.452 270.039L486.452 272.039"/>
	<path fill="none" stroke="black" stroke-width="1" stroke-miterlimit="4" d="M497.259 270.039L497.259 272.039"/>
	<path fill="none" stroke="black" stroke-width="1" stroke-miterlimit="4" d="M518.874 270.039L518.874 272.039"/>
	<path fill="none" stroke="black" stroke-width="1" stroke-miterlimit="4" d="M529.681 270.039L529.681 272.039"/>
	<path fill="none" stroke="black" stroke-width="1" stroke-miterlimit="4" d="M540.488 270.039L540.488 272.039"/>
	<path fill="none" stroke="black" stroke-width="1" stroke-miterlimit="4" d="M551.295 270.039L551.295 272.039"/>
	<path fill="none" stroke="black" stroke-width="1" stroke-miterlimit="4" d="M572.909 270.039L572.909 272.039"/>
	<path fill="none" stroke="black" stroke-width="1" stroke-miterlimit="4" d="M583.717 270.039L583.717 272.039"/>
	<path fill="none" stroke="black" stroke-width="1" stroke-miterlimit="4" d="M594.524 270.039L594.524 272.039"/>
	<path fill="none" stroke="black" stroke-width="1" stroke-miterlimit="4" d="M605.331 270.039L605.331 272.039"/>
	<path fill="none" stroke="black" stroke-width="1" stroke-miterlimit="4" d="M626.945 270.039L626.945 272.039"/>
	<path fill="none" stroke="black" stroke-width="1" stroke-miterlimit="4" d="M637.752 270.039L637.752 272.039"/>
	<path fill="none" stroke="black" stroke-width="1" stroke-miterlimit="4" d="M648.56 270.039L648.56 272.039"/>
	<path fill="none" stroke="black" stroke-width="1" stroke-miterlimit="4" d="M659.367 270.039L659.367 272.039"/>
	<path fill="none" stroke="black" stroke-width="1" stroke-miterlimit="4" d="M680.981 270.039L680.981 272.039"/>
	<path fill="none" stroke="black" stroke-width="1" stroke-miterlimit="4" d="M691.788 270.039L691.788 272.039"/>
	<path fill="none" stroke="black" stroke-width="1" stroke-miterlimit="4" d="M702.595 270.039L702.595 272.039"/>
	<path fill="none" stroke="black" stroke-width="1" stroke-miterlimit="4" d="M713.403 270.039L713.403 272.039"/>
	<path fill="none" stroke="black" stroke-width="1" stroke-miterlimit="4" d="M735.017 270.039L735.017 272.039"/>
	<path fill="none" stroke="black" stroke-width="1" stroke-miterlimit="4" d="M745.824 270.039L745.824 272.039"/>
	<path fill="none" stroke="black" stroke-width="1" stroke-miterlimit="4" d="M756.631 270.039L756.631 272.039"/>
	<path fill="none" stroke="black" stroke-width="1" stroke-miterlimit="4" d="M767.438 270.039L767.438 272.039"/>
	<path fill="none" stroke="black" stroke-width="1" stroke-miterlimit="4" d="M42.0078 270.039L785 270.039"/>
	<path fill="none" stroke="black" stroke-width="1" stroke-miterlimit="4" d="M42.0078 15.1L785 15.1"/>
	<path fill="none" stroke="black" stroke-width="1" stroke-miterlimit="4" d="M42.0078 253.406L38.0078 253.406"/>
	<text transform="translate(33.0078 253.406)" font-size="12" font-family="Segoe UI" x="-12.9375, -6.46875, " y="3.046875, ">
			26
	</text>
	<path fill="none" stroke="black" stroke-width="1" stroke-miterlimit="4" d="M42.0078 225.684L38.0078 225.684"/>
	<text transform="translate(33.0078 225.684)" font-size="12" font-family="Segoe UI" x="-22.007813, -15.539063, -9.0703125, -6.46875, " y="3.046875, ">
			26.5
	</text>
	<path fill="none" stroke="black" stroke-width="1" stroke-miterlimit="4" d="M42.0078 197.963L38.0078 197.963"/>
	<text transform="translate(33.0078 197.963)" font-size="12" font-family="Segoe UI" x="-12.9375, -6.46875, " y="3.046875, ">
			27
	</text>
	<path fill="none" stroke="black" stroke-width="1" stroke-miterlimit="4" d="M42.0078 170.241L38.0078 170.241"/>
	<text transform="translate(33.0078 170.241)" font-size="12" font-family="Segoe UI" x="-22.007813, -15.539063, -9.0703125, -6.46875, " y="3.046875, ">
			27.5
	</text>
	<path fill="none" stroke="black" stroke-width="1" stroke-miterlimit="4" d="M42.0078 142.52L38.0078 142.52"/>
	<text transform="translate(33.0078 142.52)" font-size="12" font-family="Segoe UI" x="-12.9375, -6.46875, " y="3.046875, ">
			28
	</text>
	<path fill="none" stroke="black" stroke-width="1" stroke-miterlimit="4" d="M42.0078 114.798L38.0078 114.798"/>
	<text transform="translate(33.0078 114.798)" font-size="12" font-family="Segoe UI" x="-22.007813, -15.539063, -9.0703125, -6.46875, " y="3.046875, ">
			28.5
	</text>
	<path fill="none" stroke="black" stroke-width="1" stroke-miterlimit="4" d="M42.0078 87.0763L38.0078 87.0763"/>
	<text transform="translate(33.0078 87.0763)" font-size="12" font-family="Segoe UI" x="-12.9375, -6.46875, " y="3.046875, ">
			29
	</text>
	<path fill="none" stroke="black" stroke-width="1" stroke-miterlimit="4" d="M42.0078 59.3546L38.0078 59.3546"/>
	<text transform="translate(33.0078 59.3546)" font-size="12" font-family="Segoe UI" x="-22.007813, -15.539063, -9.0703125, -6.46875, " y="3.046875, ">
			29.5
	</text>
	<path fill="none" stroke="black" stroke-width="1" stroke-miterlimit="4" d="M42.0078 31.633L38.0078 31.633"/>
	<text transform="translate(33.0078 31.633)" font-size="12" font-family="Segoe UI" x="-12.9375, -6.46875, " y="3.046875, ">
			30
	</text>
	<path fill="none" stroke="black" stroke-width="1" stroke-miterlimit="4" d="M42.0078 270.039L40.0078 270.039"/>
	<path fill="none" stroke="black" stroke-width="1" stroke-miterlimit="4" d="M42.0078 264.495L40.0078 264.495"/>
	<path fill="none" stroke="black" stroke-width="1" stroke-miterlimit="4" d="M42.0078 258.95L40.0078 258.95"/>
	<path fill="none" stroke="black" stroke-width="1" stroke-miterlimit="4" d="M42.0078 247.862L40.0078 247.862"/>
	<path fill="none" stroke="black" stroke-width="1" stroke-miterlimit="4" d="M42.0078 242.317L40.0078 242.317"/>
	<path fill="none" stroke="black" stroke-width="1" stroke-miterlimit="4" d="M42.0078 236.773L40.0078 236.773"/>
	<path fill="none" stroke="black" stroke-width="1" stroke-miterlimit="4" d="M42.0078 231.229L40.0078 231.229"/>
	<path fill="none" stroke="black" stroke-width="1" stroke-miterlimit="4" d="M42.0078 220.14L40.0078 220.14"/>
	<path fill="none" stroke="black" stroke-width="1" stroke-miterlimit="4" d="M42.0078 214.596L40.0078 214.596"/>
	<path fill="none" stroke="black" stroke-width="1" stroke-miterlimit="4" d="M42.0078 209.051L40.0078 209.051"/>
	<path fill="none" stroke="black" stroke-width="1" stroke-miterlimit="4" d="M42.0078 203.507L40.0078 203.507"/>
	<path fill="none" stroke="black" stroke-width="1" stroke-miterlimit="4" d="M42.0078 192.418L40.0078 192.418"/>
	<path fill="none" stroke="black" stroke-width="1" stroke-miterlimit="4" d="M42.0078 186.874L40.0078 186.874"/>
	<path fill="none" stroke="black" stroke-width="1" stroke-miterlimit="4" d="M42.0078 181.33L40.0078 181.33"/>
	<path fill="none" stroke="black" stroke-width="1" stroke-miterlimit="4" d="M42.0078 175.785L40.0078 175.785"/>
	<path fill="none" stroke="black" stroke-width="1" stroke-miterlimit="4" d="M42.0078 164.697L40.0078 164.697"/>
	<path fill="none" stroke="black" stroke-width="1" stroke-miterlimit="4" d="M42.0078 159.153L40.0078 159.153"/>
	<path fill="none" stroke="black" stroke-width="1" stroke-miterlimit="4" d="M42.0078 153.608L40.0078 153.608"/>
	<path fill="none" stroke="black" stroke-width="1" stroke-miterlimit="4" d="M42.0078 148.064L40.0078 148.064"/>
	<path fill="none" stroke="black" stroke-width="1" stroke-miterlimit="4" d="M42.0078 136.975L40.0078 136.975"/>
	<path fill="none" stroke="black" stroke-width="1" stroke-miterlimit="4" d="M42.0078 131.431L40.0078 131.431"/>
	<path fill="none" stroke="black" stroke-width="1" stroke-miterlimit="4" d="M42.0078 125.887L40.0078 125.887"/>
	<path fill="none" stroke="black" stroke-width="1" stroke-miterlimit="4" d="M42.0078 120.342L40.0078 120.342"/>
	<path fill="none" stroke="black" stroke-width="1" stroke-miterlimit="4" d="M42.0078 109.254L40.0078 109.254"/>
	<path fill="none" stroke="black" stroke-width="1" stroke-miterlimit="4" d="M42.0078 103.709L40.0078 103.709"/>
	<path fill="none" stroke="black" stroke-width="1" stroke-miterlimit="4" d="M42.0078 98.1649L40.0078 98.1649"/>
	<path fill="none" stroke="black" stroke-width="1" stroke-miterlimit="4" d="M42.0078 92.6206L40.0078 92.6206"/>
	<path fill="none" stroke="black" stroke-width="1" stroke-miterlimit="4" d="M42.0078 81.5319L40.0078 81.5319"/>
	<path fill="none" stroke="black" stroke-width="1" stroke-miterlimit="4" d="M42.0078 75.9876L40.0078 75.9876"/>
	<path fill="none" stroke="black" stroke-width="1" stroke-miterlimit="4" d="M42.0078 70.4433L40.0078 70.4433"/>
	<path fill="none" stroke="black" stroke-width="1" stroke-miterlimit="4" d="M42.0078 64.8989L40.0078 64.8989"/>
	<path fill="none" stroke="black" stroke-width="1" stroke-miterlimit="4" d="M42.0078 53.8103L40.0078 53.8103"/>
	<path fill="none" stroke="black" stroke-width="1" stroke-miterlimit="4" d="M42.0078 48.266L40.0078 48.266"/>
	<path fill="none" stroke="black" stroke-width="1" stroke-miterlimit="4" d="M42.0078 42.7216L40.0078 42.7216"/>
	<path fill="none" stroke="black" stroke-width="1" stroke-miterlimit="4" d="M42.0078 37.1773L40.0078 37.1773"/>
	<path fill="none" stroke="black" stroke-width="1" stroke-miterlimit="4" d="M42.0078 26.0887L40.0078 26.0887"/>
	<path fill="none" stroke="black" stroke-width="1" stroke-miterlimit="4" d="M42.0078 20.5443L40.0078 20.5443"/>
	<path fill="none" stroke="black" stroke-width="1" stroke-miterlimit="4" d="M42.0078 15L40.0078 15"/>
	<path fill="none" stroke="black" stroke-width="1" stroke-miterlimit="4" d="M42.0078 270.039L42.0078 15"/>
	<path fill="none" stroke="black" stroke-width="1" stroke-miterlimit="4" d="M785 270.039L785 15"/>
</svg>
