<?xml version="1.0" encoding="utf-8" ?>
<svg xmlns="http://www.w3.org/2000/svg" xmlns:xlink="http://www.w3.org/1999/xlink" width="800" height="300">
	<rect fill="white" width="800" height="300"/>
	<path fill="none" stroke="#010101" stroke-width="1" stroke-miterlimit="4" stroke-opacity="0.098039217" d="M38.6349 270.039L38.6349 15M95.6094 270.039L95.6094 15M152.584 270.039L152.584 15M209.558 270.039L209.558 15M266.533 270.039L266.533 15M323.507 270.039L323.507 15M380.482 270.039L380.482 15M437.456 270.039L437.456 15M494.43 270.039L494.43 15M551.405 270.039L551.405 15M608.379 270.039L608.379 15M665.354 270.039L665.354 15M722.328 270.039L722.328 15M779.303 270.039L779.303 15"/>
	<path fill="none" stroke="#010101" stroke-width="1" stroke-miterlimit="4" stroke-opacity="0.098039217" d="M32.9375 253.406L785 253.406M32.9375 221.724L785 221.724M32.9375 190.042L785 190.042M32.9375 158.36L785 158.36M32.9375 126.679L785 126.679M32.9375 94.9967L785 94.9967M32.9375 63.3148L785 63.3148M32.9375 31.633L785 31.633"/>
	<clipPath id="cl_36">
		<rect x="32.9375" y="15" width="752.0625" height="255.03906"/>
	</clipPath>
	<g clip-path="url(#cl_36)">
		<path fill="none" stroke="#1F77B4" stroke-width="1" stroke-miterlimit="4" d="M67.1222 253.406L67.1222 253.406L67.1222 253.406L95.6094 253.406L209.558 221.724L238.045 221.724L295.02 221.724L295.02 221.724L323.507 221.724L323.507 190.042L351.994 190.042L351.994 190.042L351.994 190.042L351.994 190.042L380.482 190.042L408.969 190.042L408.969 190.042L408.969 190.042L437.456 190.042L437.456 190.042L465.943 190.042L465.943 190.042L494.43 190.042L494.43 158.36L551.405 158.36L551.405 158.36L551.405 158.36L551.405 158.36L579.892 126.679L579.892 94.9967L579.892 126.679L608.379 126.679L636.866 63.3148L636.866 31.633L636.866 63.3148L665.354 63.3148L665.354 94.9967L693.841 94.9967L693.841 94.9967L693.841 94.9967L722.328 94.9967L750.815 94.9967L750.815 63.3148"/>
		<ellipse fill="#1F77B4" cx="67.122162" cy="253.40608" rx="2.5" ry="2.5"/>
		<ellipse fill="#1F77B4" cx="67.122162" cy="253.40608" rx="2.5" ry="2.5"/>
		<ellipse fill="#1F77B4" cx="67.122162" cy="253.40608" rx="2.5" ry="2.5"/>
		<ellipse fill="#1F77B4" cx="95.609375" cy="253.40608" rx="2.5" ry="2.5"/>
		<ellipse fill="#1F77B4" cx="209.55824" cy="221.72421" rx="2.5" ry="2.5"/>
		<ellipse fill="#1F77B4" cx="238.04546" cy="221.72421" rx="2.5" ry="2.5"/>
		<ellipse fill="#1F77B4" cx="295.0199" cy="221.72421" rx="2.5" ry="2.5"/>
		<ellipse fill="#1F77B4" cx="295.0199" cy="221.72421" rx="2.5" ry="2.5"/>
		<ellipse fill="#1F77B4" cx="323.50711" cy="221.72421" rx="2.5" ry="2.5"/>
		<ellipse fill="#1F77B4" cx="323.50711" cy="190.04233" rx="2.5" ry="2.5"/>
		<ellipse fill="#1F77B4" cx="351.99432" cy="190.04233" rx="2.5" ry="2.5"/>
		<ellipse fill="#1F77B4" cx="351.99432" cy="190.04233" rx="2.5" ry="2.5"/>
		<ellipse fill="#1F77B4" cx="351.99432" cy="190.04233" rx="2.5" ry="2.5"/>
		<ellipse fill="#1F77B4" cx="351.99432" cy="190.04233" rx="2.5" ry="2.5"/>
		<ellipse fill="#1F77B4" cx="380.48154" cy="190.04233" rx="2.5" ry="2.5"/>
		<ellipse fill="#1F77B4" cx="408.96875" cy="190.04233" rx="2.5" ry="2.5"/>
		<ellipse fill="#1F77B4" cx="408.96875" cy="190.04233" rx="2.5" ry="2.5"/>
		<ellipse fill="#1F77B4" cx="408.96875" cy="190.04233" rx="2.5" ry="2.5"/>
		<ellipse fill="#1F77B4" cx="437.45596" cy="190.04233" rx="2.5" ry="2.5"/>
		<ellipse fill="#1F77B4" cx="437.45596" cy="190.04233" rx="2.5" ry="2.5"/>
		<ellipse fill="#1F77B4" cx="465.94318" cy="190.04233" rx="2.5" ry="2.5"/>
		<ellipse fill="#1F77B4" cx="465.94318" cy="190.04233" rx="2.5" ry="2.5"/>
		<ellipse fill="#1F77B4" cx="494.43039" cy="190.04233" rx="2.5" ry="2.5"/>
		<ellipse fill="#1F77B4" cx="494.43039" cy="158.36047" rx="2.5" ry="2.5"/>
		<ellipse fill="#1F77B4" cx="551.40485" cy="158.36047" rx="2.5" ry="2.5"/>
		<ellipse fill="#1F77B4" cx="551.40485" cy="158.36047" rx="2.5" ry="2.5"/>
		<ellipse fill="#1F77B4" cx="551.40485" cy="158.36047" rx="2.5" ry="2.5"/>
		<ellipse fill="#1F77B4" cx="551.40485" cy="158.36047" rx="2.5" ry="2.5"/>
		<ellipse fill="#1F77B4" cx="579.89203" cy="126.67859" rx="2.5" ry="2.5"/>
		<ellipse fill="#1F77B4" cx="579.89203" cy="94.996719" rx="2.5" ry="2.5"/>
		<ellipse fill="#1F77B4" cx="579.89203" cy="126.67859" rx="2.5" ry="2.5"/>
		<ellipse fill="#1F77B4" cx="608.37927" cy="126.67859" rx="2.5" ry="2.5"/>
		<ellipse fill="#1F77B4" cx="636.86646" cy="63.31485" rx="2.5" ry="2.5"/>
		<ellipse fill="#1F77B4" cx="636.86646" cy="31.63298" rx="2.5" ry="2.5"/>
		<ellipse fill="#1F77B4" cx="636.86646" cy="63.31485" rx="2.5" ry="2.5"/>
		<ellipse fill="#1F77B4" cx="665.3537" cy="63.31485" rx="2.5" ry="2.5"/>
		<ellipse fill="#1F77B4" cx="665.3537" cy="94.996719" rx="2.5" ry="2.5"/>
		<ellipse fill="#1F77B4" cx="693.84088" cy="94.996719" rx="2.5" ry="2.5"/>
		<ellipse fill="#1F77B4" cx="693.84088" cy="94.996719" rx="2.5" ry="2.5"/>
		<ellipse fill="#1F77B4" cx="693.84088" cy="94.996719" rx="2.5" ry="2.5"/>
		<ellipse fill="#1F77B4" cx="722.32813" cy="94.996719" rx="2.5" ry="2.5"/>
		<ellipse fill="#1F77B4" cx="750.81537" cy="94.996719" rx="2.5" ry="2.5"/>
		<ellipse fill="#1F77B4" cx="750.81537" cy="63.31485" rx="2.5" ry="2.5"/>
	</g>
	<path fill="none" stroke="black" stroke-width="1" stroke-miterlimit="4" d="M38.6349 270.039L38.6349 274.039"/>
	<text transform="translate(38.6349 276.039)" font-size="12" font-family="Segoe UI" x="-14.238281, -7.7695313, -5.1679688, 1.3007813, 7.7695313, " y="11.027344, ">
			1,890
	</text>
	<path fill="none" stroke="black" stroke-width="1" stroke-miterlimit="4" d="M95.6094 270.039L95.6094 274.039"/>
	<text transform="translate(95.6094 276.039)" font-size="12" font-family="Segoe UI" x="-14.238281, -7.7695313, -5.1679688, 1.3007813, 7.7695313, " y="11.027344, ">
			1,892
	</text>
	<path fill="none" stroke="black" stroke-width="1" stroke-miterlimit="4" d="M152.584 270.039L152.584 274.039"/>
	<text transform="translate(152.584 276.039)" font-size="12" font-family="Segoe UI" x="-14.238281, -7.7695313, -5.1679688, 1.3007813, 7.7695313, " y="11.027344, ">
			1,894
	</text>
	<path fill="none" stroke="black" stroke-width="1" stroke-miterlimit="4" d="M209.558 270.039L209.558 274.039"/>
	<text transform="translate(209.558 276.039)" font-size="12" font-family="Segoe UI" x="-14.238281, -7.7695313, -5.1679688, 1.3007813, 7.7695313, " y="11.027344, ">
			1,896
	</text>
	<path fill="none" stroke="black" stroke-width="1" stroke-miterlimit="4" d="M266.533 270.039L266.533 274.039"/>
	<text transform="translate(266.533 276.039)" font-size="12" font-family="Segoe UI" x="-14.238281, -7.7695313, -5.1679688, 1.3007813, 7.7695313, " y="11.027344, ">
			1,898
	</text>
	<path fill="none" stroke="black" stroke-width="1" stroke-miterlimit="4" d="M323.507 270.039L323.507 274.039"/>
	<text transform="translate(323.507 276.039)" font-size="12" font-family="Segoe UI" x="-14.238281, -7.7695313, -5.1679688, 1.3007813, 7.7695313, " y="11.027344, ">
			1,900
	</text>
	<path fill="none" stroke="black" stroke-width="1" stroke-miterlimit="4" d="M380.482 270.039L380.482 274.039"/>
	<text transform="translate(380.482 276.039)" font-size="12" font-family="Segoe UI" x="-14.238281, -7.7695313, -5.1679688, 1.3007813, 7.7695313, " y="11.027344, ">
			1,902
	</text>
	<path fill="none" stroke="black" stroke-width="1" stroke-miterlimit="4" d="M437.456 270.039L437.456 274.039"/>
	<text transform="translate(437.456 276.039)" font-size="12" font-family="Segoe UI" x="-14.238281, -7.7695313, -5.1679688, 1.3007813, 7.7695313, " y="11.027344, ">
			1,904
	</text>
	<path fill="none" stroke="black" stroke-width="1" stroke-miterlimit="4" d="M494.43 270.039L494.43 274.039"/>
	<text transform="translate(494.43 276.039)" font-size="12" font-family="Segoe UI" x="-14.238281, -7.7695313, -5.1679688, 1.3007813, 7.7695313, " y="11.027344, ">
			1,906
	</text>
	<path fill="none" stroke="black" stroke-width="1" stroke-miterlimit="4" d="M551.405 270.039L551.405 274.039"/>
	<text transform="translate(551.405 276.039)" font-size="12" font-family="Segoe UI" x="-14.238281, -7.7695313, -5.1679688, 1.3007813, 7.7695313, " y="11.027344, ">
			1,908
	</text>
	<path fill="none" stroke="black" stroke-width="1" stroke-miterlimit="4" d="M608.379 270.039L608.379 274.039"/>
	<text transform="translate(608.379 276.039)" font-size="12" font-family="Segoe UI" x="-14.238281, -7.7695313, -5.1679688, 1.3007813, 7.7695313, " y="11.027344, ">
			1,910
	</text>
	<path fill="none" stroke="black" stroke-width="1" stroke-miterlimit="4" d="M665.354 270.039L665.354 274.039"/>
	<text transform="translate(665.354 276.039)" font-size="12" font-family="Segoe UI" x="-14.238281, -7.7695313, -5.1679688, 1.3007813, 7.7695313, " y="11.027344, ">
			1,912
	</text>
	<path fill="none" stroke="black" stroke-width="1" stroke-miterlimit="4" d="M722.328 270.039L722.328 274.039"/>
	<text transform="translate(722.328 276.039)" font-size="12" font-family="Segoe UI" x="-14.238281, -7.7695313, -5.1679688, 1.3007813, 7.7695313, " y="11.027344, ">
			1,914
	</text>
	<path fill="none" stroke="black" stroke-width="1" stroke-miterlimit="4" d="M779.303 270.039L779.303 274.039"/>
	<text transform="translate(779.303 276.039)" font-size="12" font-family="Segoe UI" x="-14.238281, -7.7695313, -5.1679688, 1.3007813, 7.7695313, " y="11.027344, ">
			1,916
	</text>
	<path fill="none" stroke="black" stroke-width="1" stroke-miterlimit="4" d="M50.0298 270.039L50.0298 272.039"/>
	<path fill="none" stroke="black" stroke-width="1" stroke-miterlimit="4" d="M61.4247 270.039L61.4247 272.039"/>
	<path fill="none" stroke="black" stroke-width="1" stroke-miterlimit="4" d="M72.8196 270.039L72.8196 272.039"/>
	<path fill="none" stroke="black" stroke-width="1" stroke-miterlimit="4" d="M84.2145 270.039L84.2145 272.039"/>
	<path fill="none" stroke="black" stroke-width="1" stroke-miterlimit="4" d="M107.004 270.039L107.004 272.039"/>
	<path fill="none" stroke="black" stroke-width="1" stroke-miterlimit="4" d="M118.399 270.039L118.399 272.039"/>
	<path fill="none" stroke="black" stroke-width="1" stroke-miterlimit="4" d="M129.794 270.039L129.794 272.039"/>
	<path fill="none" stroke="black" stroke-width="1" stroke-miterlimit="4" d="M141.189 270.039L141.189 272.039"/>
	<path fill="none" stroke="black" stroke-width="1" stroke-miterlimit="4" d="M163.979 270.039L163.979 272.039"/>
	<path fill="none" stroke="black" stroke-width="1" stroke-miterlimit="4" d="M175.374 270.039L175.374 272.039"/>
	<path fill="none" stroke="black" stroke-width="1" stroke-miterlimit="4" d="M186.768 270.039L186.768 272.039"/>
	<path fill="none" stroke="black" stroke-width="1" stroke-miterlimit="4" d="M198.163 270.039L198.163 272.039"/>
	<path fill="none" stroke="black" stroke-width="1" stroke-miterlimit="4" d="M220.953 270.039L220.953 272.039"/>
	<path fill="none" stroke="black" stroke-width="1" stroke-miterlimit="4" d="M232.348 270.039L232.348 272.039"/>
	<path fill="none" stroke="black" stroke-width="1" stroke-miterlimit="4" d="M243.743 270.039L243.743 272.039"/>
	<path fill="none" stroke="black" stroke-width="1" stroke-miterlimit="4" d="M255.138 270.039L255.138 272.039"/>
	<path fill="none" stroke="black" stroke-width="1" stroke-miterlimit="4" d="M277.928 270.039L277.928 272.039"/>
	<path fill="none" stroke="black" stroke-width="1" stroke-miterlimit="4" d="M289.322 270.039L289.322 272.039"/>
	<path fill="none" stroke="black" stroke-width="1" stroke-miterlimit="4" d="M300.717 270.039L300.717 272.039"/>
	<path fill="none" stroke="black" stroke-width="1" stroke-miterlimit="4" d="M312.112 270.039L312.112 272.039"/>
	<path fill="none" stroke="black" stroke-width="1" stroke-miterlimit="4" d="M334.902 270.039L334.902 272.039"/>
	<path fill="none" stroke="black" stroke-width="1" stroke-miterlimit="4" d="M346.297 270.039L346.297 272.039"/>
	<path fill="none" stroke="black" stroke-width="1" stroke-miterlimit="4" d="M357.692 270.039L357.692 272.039"/>
	<path fill="none" stroke="black" stroke-width="1" stroke-miterlimit="4" d="M369.087 270.039L369.087 272.039"/>
	<path fill="none" stroke="black" stroke-width="1" stroke-miterlimit="4" d="M391.876 270.039L391.876 272.039"/>
	<path fill="none" stroke="black" stroke-width="1" stroke-miterlimit="4" d="M403.271 270.039L403.271 272.039"/>
	<path fill="none" stroke="black" stroke-width="1" stroke-miterlimit="4" d="M414.666 270.039L414.666 272.039"/>
	<path fill="none" stroke="black" stroke-width="1" stroke-miterlimit="4" d="M426.061 270.039L426.061 272.039"/>
	<path fill="none" stroke="black" stroke-width="1" stroke-miterlimit="4" d="M448.851 270.039L448.851 272.039"/>
	<path fill="none" stroke="black" stroke-width="1" stroke-miterlimit="4" d="M460.246 270.039L460.246 272.039"/>
	<path fill="none" stroke="black" stroke-width="1" stroke-miterlimit="4" d="M471.641 270.039L471.641 272.039"/>
	<path fill="none" stroke="black" stroke-width="1" stroke-miterlimit="4" d="M483.036 270.039L483.036 272.039"/>
	<path fill="none" stroke="black" stroke-width="1" stroke-miterlimit="4" d="M505.825 270.039L505.825 272.039"/>
	<path fill="none" stroke="black" stroke-width="1" stroke-miterlimit="4" d="M517.22 270.039L517.22 272.039"/>
	<path fill="none" stroke="black" stroke-width="1" stroke-miterlimit="4" d="M528.615 270.039L528.615 272.039"/>
	<path fill="none" stroke="black" stroke-width="1" stroke-miterlimit="4" d="M540.01 270.039L540.01 272.039"/>
	<path fill="none" stroke="black" stroke-width="1" stroke-miterlimit="4" d="M562.8 270.039L562.8 272.039"/>
	<path fill="none" stroke="black" stroke-width="1" stroke-miterlimit="4" d="M574.195 270.039L574.195 272.039"/>
	<path fill="none" stroke="black" stroke-width="1" stroke-miterlimit="4" d="M585.589 270.039L585.589 272.039"/>
	<path fill="none" stroke="black" stroke-width="1" stroke-miterlimit="4" d="M596.984 270.039L596.984 272.039"/>
	<path fill="none" stroke="black" stroke-width="1" stroke-miterlimit="4" d="M619.774 270.039L619.774 272.039"/>
	<path fill="none" stroke="black" stroke-width="1" stroke-miterlimit="4" d="M631.169 270.039L631.169 272.039"/>
	<path fill="none" stroke="black" stroke-width="1" stroke-miterlimit="4" d="M642.564 270.039L642.564 272.039"/>
	<path fill="none" stroke="black" stroke-width="1" stroke-miterlimit="4" d="M653.959 270.039L653.959 272.039"/>
	<path fill="none" stroke="black" stroke-width="1" stroke-miterlimit="4" d="M676.749 270.039L676.749 272.039"/>
	<path fill="none" stroke="black" stroke-width="1" stroke-miterlimit="4" d="M688.143 270.039L688.143 272.039"/>
	<path fill="none" stroke="black" stroke-width="1" stroke-miterlimit="4" d="M699.538 270.039L699.538 272.039"/>
	<path fill="none" stroke="black" stroke-width="1" stroke-miterlimit="4" d="M710.933 270.039L710.933 272.039"/>
	<path fill="none" stroke="black" stroke-width="1" stroke-miterlimit="4" d="M733.723 270.039L733.723 272.039"/>
	<path fill="none" stroke="black" stroke-width="1" stroke-miterlimit="4" d="M745.118 270.039L745.118 272.039"/>
	<path fill="none" stroke="black" stroke-width="1" stroke-miterlimit="4" d="M756.513 270.039L756.513 272.039"/>
	<path fill="none" stroke="black" stroke-width="1" stroke-miterlimit="4" d="M767.908 270.039L767.908 272.039"/>
	<path fill="none" stroke="black" stroke-width="1" stroke-miterlimit="4" d="M32.9375 270.039L785 270.039"/>
	<path fill="none" stroke="black" stroke-width="1" stroke-miterlimit="4" d="M32.9375 15.1L785 15.1"/>
	<path fill="none" stroke="black" stroke-width="1" stroke-miterlimit="4" d="M32.9375 253.406L28.9375 253.406"/>
	<text transform="translate(23.9375 253.406)" font-size="12" font-family="Segoe UI" x="-12.9375, -6.46875, " y="3.046875, ">
			16
	</text>
	<path fill="none" stroke="black" stroke-width="1" stroke-miterlimit="4" d="M32.9375 221.724L28.9375 221.724"/>
	<text transform="translate(23.9375 221.724)" font-size="12" font-family="Segoe UI" x="-12.9375, -6.46875, " y="3.046875, ">
			17
	</text>
	<path fill="none" stroke="black" stroke-width="1" stroke-miterlimit="4" d="M32.9375 190.042L28.9375 190.042"/>
	<text transform="translate(23.9375 190.042)" font-size="12" font-family="Segoe UI" x="-12.9375, -6.46875, " y="3.046875, ">
			18
	</text>
	<path fill="none" stroke="black" stroke-width="1" stroke-miterlimit="4" d="M32.9375 158.36L28.9375 158.36"/>
	<text transform="translate(23.9375 158.36)" font-size="12" font-family="Segoe UI" x="-12.9375, -6.46875, " y="3.046875, ">
			19
	</text>
	<path fill="none" stroke="black" stroke-width="1" stroke-miterlimit="4" d="M32.9375 126.679L28.9375 126.679"/>
	<text transform="translate(23.9375 126.679)" font-size="12" font-family="Segoe UI" x="-12.9375, -6.46875, " y="3.046875, ">
			20
	</text>
	<path fill="none" stroke="black" stroke-width="1" stroke-miterlimit="4" d="M32.9375 94.9967L28.9375 94.9967"/>
	<text transform="translate(23.9375 94.9967)" font-size="12" font-family="Segoe UI" x="-12.9375, -6.46875, " y="3.046875, ">
			21
	</text>
	<path fill="none" stroke="black" stroke-width="1" stroke-miterlimit="4" d="M32.9375 63.3148L28.9375 63.3148"/>
	<text transform="translate(23.9375 63.3148)" font-size="12" font-family="Segoe UI" x="-12.9375, -6.46875, " y="3.046875, ">
			22
	</text>
	<path fill="none" stroke="black" stroke-width="1" stroke-miterlimit="4" d="M32.9375 31.633L28.9375 31.633"/>
	<text transform="translate(23.9375 31.633)" font-size="12" font-family="Segoe UI" x="-12.9375, -6.46875, " y="3.046875, ">
			23
	</text>
	<path fill="none" stroke="black" stroke-width="1" stroke-miterlimit="4" d="M32.9375 266.079L30.9375 266.079"/>
	<path fill="none" stroke="black" stroke-width="1" stroke-miterlimit="4" d="M32.9375 259.742L30.9375 259.742"/>
	<path fill="none" stroke="black" stroke-width="1" stroke-miterlimit="4" d="M32.9375 247.07L30.9375 247.07"/>
	<path fill="none" stroke="black" stroke-width="1" stroke-miterlimit="4" d="M32.9375 240.733L30.9375 240.733"/>
	<path fill="none" stroke="black" stroke-width="1" stroke-miterlimit="4" d="M32.9375 234.397L30.9375 234.397"/>
	<path fill="none" stroke="black" stroke-width="1" stroke-miterlimit="4" d="M32.9375 228.061L30.9375 228.061"/>
	<path fill="none" stroke="black" stroke-width="1" stroke-miterlimit="4" d="M32.9375 215.388L30.9375 215.388"/>
	<path fill="none" stroke="black" stroke-width="1" stroke-miterlimit="4" d="M32.9375 209.051L30.9375 209.051"/>
	<path fill="none" stroke="black" stroke-width="1" stroke-miterlimit="4" d="M32.9375 202.715L30.9375 202.715"/>
	<path fill="none" stroke="black" stroke-width="1" stroke-miterlimit="4" d="M32.9375 196.379L30.9375 196.379"/>
	<path fill="none" stroke="black" stroke-width="1" stroke-miterlimit="4" d="M32.9375 183.706L30.9375 183.706"/>
	<path fill="none" stroke="black" stroke-width="1" stroke-miterlimit="4" d="M32.9375 177.37L30.9375 177.37"/>
	<path fill="none" stroke="black" stroke-width="1" stroke-miterlimit="4" d="M32.9375 171.033L30.9375 171.033"/>
	<path fill="none" stroke="black" stroke-width="1" stroke-miterlimit="4" d="M32.9375 164.697L30.9375 164.697"/>
	<path fill="none" stroke="black" stroke-width="1" stroke-miterlimit="4" d="M32.9375 152.024L30.9375 152.024"/>
	<path fill="none" stroke="black" stroke-width="1" stroke-miterlimit="4" d="M32.9375 145.688L30.9375 145.688"/>
	<path fill="none" stroke="black" stroke-width="1" stroke-miterlimit="4" d="M32.9375 139.351L30.9375 139.351"/>
	<path fill="none" stroke="black" stroke-width="1" stroke-miterlimit="4" d="M32.9375 133.015L30.9375 133.015"/>
	<path fill="none" stroke="black" stroke-width="1" stroke-miterlimit="4" d="M32.9375 120.342L30.9375 120.342"/>
	<path fill="none" stroke="black" stroke-width="1" stroke-miterlimit="4" d="M32.9375 114.006L30.9375 114.006"/>
	<path fill="none" stroke="black" stroke-width="1" stroke-miterlimit="4" d="M32.9375 107.669L30.9375 107.669"/>
	<path fill="none" stroke="black" stroke-width="1" stroke-miterlimit="4" d="M32.9375 101.333L30.9375 101.333"/>
	<path fill="none" stroke="black" stroke-width="1" stroke-miterlimit="4" d="M32.9375 88.6604L30.9375 88.6604"/>
	<path fill="none" stroke="black" stroke-width="1" stroke-miterlimit="4" d="M32.9375 82.324L30.9375 82.324"/>
	<path fill="none" stroke="black" stroke-width="1" stroke-miterlimit="4" d="M32.9375 75.9876L30.9375 75.9876"/>
	<path fill="none" stroke="black" stroke-width="1" stroke-miterlimit="4" d="M32.9375 69.6512L30.9375 69.6512"/>
	<path fill="none" stroke="black" stroke-width="1" stroke-miterlimit="4" d="M32.9375 56.9785L30.9375 56.9785"/>
	<path fill="none" stroke="black" stroke-width="1" stroke-miterlimit="4" d="M32.9375 50.6421L30.9375 50.6421"/>
	<path fill="none" stroke="black" stroke-width="1" stroke-miterlimit="4" d="M32.9375 44.3057L30.9375 44.3057"/>
	<path fill="none" stroke="black" stroke-width="1" stroke-miterlimit="4" d="M32.9375 37.9694L30.9375 37.9694"/>
	<path fill="none" stroke="black" stroke-width="1" stroke-miterlimit="4" d="M32.9375 25.2966L30.9375 25.2966"/>
	<path fill="none" stroke="black" stroke-width="1" stroke-miterlimit="4" d="M32.9375 18.9602L30.9375 18.9602"/>
	<path fill="none" stroke="black" stroke-width="1" stroke-miterlimit="4" d="M32.9375 270.039L32.9375 15"/>
	<path fill="none" stroke="black" stroke-width="1" stroke-miterlimit="4" d="M785 270.039L785 15"/>
</svg>
