<?xml version="1.0" encoding="utf-8" ?>
<svg xmlns="http://www.w3.org/2000/svg" xmlns:xlink="http://www.w3.org/1999/xlink" width="800" height="300">
	<rect fill="white" width="800" height="300"/>
	<path fill="none" stroke="#010101" stroke-width="1" stroke-miterlimit="4" stroke-opacity="0.098039217" d="M93.9337 270.039L93.9337 15M160.962 270.039L160.962 15M227.991 270.039L227.991 15M295.02 270.039L295.02 15M362.049 270.039L362.049 15M429.077 270.039L429.077 15M496.106 270.039L496.106 15M563.135 270.039L563.135 15M630.164 270.039L630.164 15M697.192 270.039L697.192 15M764.221 270.039L764.221 15"/>
	<path fill="none" stroke="#010101" stroke-width="1" stroke-miterlimit="4" stroke-opacity="0.098039217" d="M32.9375 265.727L785 265.727M32.9375 241.085L785 241.085M32.9375 216.444L785 216.444M32.9375 191.802L785 191.802M32.9375 167.161L785 167.161M32.9375 142.52L785 142.52M32.9375 117.878L785 117.878M32.9375 93.2366L785 93.2366M32.9375 68.5952L785 68.5952M32.9375 43.9537L785 43.9537M32.9375 19.3123L785 19.3123"/>
	<clipPath id="cl_3e">
		<rect x="32.9375" y="15" width="752.0625" height="255.03906"/>
	</clipPath>
	<g clip-path="url(#cl_3e)">
		<path fill="none" stroke="#1F77B4" stroke-width="1" stroke-miterlimit="4" d="M67.1222 253.406L67.1222 253.406L67.1222 253.406L107.339 241.085L134.151 241.085L134.151 241.085L134.151 241.085L134.151 228.765L134.151 241.085L174.368 216.444L174.368 216.444L174.368 216.444L214.585 216.444L214.585 216.444L214.585 204.123L214.585 204.123L214.585 204.123L214.585 204.123L214.585 204.123L227.991 216.444L227.991 216.444L227.991 228.765L227.991 228.765L241.397 216.444L268.208 179.482L268.208 216.444L268.208 216.444L281.614 179.482L281.614 179.482L295.02 179.482L308.426 191.802L308.426 191.802L321.831 179.482L321.831 179.482L348.643 191.802L348.643 191.802L362.049 179.482L362.049 179.482L388.86 179.482L388.86 179.482L388.86 179.482L415.672 179.482L415.672 179.482L429.077 179.482L442.483 179.482L442.483 179.482L697.192 93.2366L697.192 93.2366L710.598 105.557L710.598 105.557L710.598 105.557L724.004 31.633L724.004 31.633L724.004 105.557L737.41 43.9537L750.815 43.9537"/>
		<ellipse fill="#1F77B4" cx="67.122162" cy="253.40608" rx="2.5" ry="2.5"/>
		<ellipse fill="#1F77B4" cx="67.122162" cy="253.40608" rx="2.5" ry="2.5"/>
		<ellipse fill="#1F77B4" cx="67.122162" cy="253.40608" rx="2.5" ry="2.5"/>
		<ellipse fill="#1F77B4" cx="107.33941" cy="241.08536" rx="2.5" ry="2.5"/>
		<ellipse fill="#1F77B4" cx="134.15091" cy="241.08536" rx="2.5" ry="2.5"/>
		<ellipse fill="#1F77B4" cx="134.15091" cy="241.08536" rx="2.5" ry="2.5"/>
		<ellipse fill="#1F77B4" cx="134.15091" cy="241.08536" rx="2.5" ry="2.5"/>
		<ellipse fill="#1F77B4" cx="134.15091" cy="228.76462" rx="2.5" ry="2.5"/>
		<ellipse fill="#1F77B4" cx="134.15091" cy="241.08536" rx="2.5" ry="2.5"/>
		<ellipse fill="#1F77B4" cx="174.36815" cy="216.44389" rx="2.5" ry="2.5"/>
		<ellipse fill="#1F77B4" cx="174.36815" cy="216.44389" rx="2.5" ry="2.5"/>
		<ellipse fill="#1F77B4" cx="174.36815" cy="216.44389" rx="2.5" ry="2.5"/>
		<ellipse fill="#1F77B4" cx="214.58539" cy="216.44389" rx="2.5" ry="2.5"/>
		<ellipse fill="#1F77B4" cx="214.58539" cy="216.44389" rx="2.5" ry="2.5"/>
		<ellipse fill="#1F77B4" cx="214.58539" cy="204.12317" rx="2.5" ry="2.5"/>
		<ellipse fill="#1F77B4" cx="214.58539" cy="204.12317" rx="2.5" ry="2.5"/>
		<ellipse fill="#1F77B4" cx="214.58539" cy="204.12317" rx="2.5" ry="2.5"/>
		<ellipse fill="#1F77B4" cx="214.58539" cy="204.12317" rx="2.5" ry="2.5"/>
		<ellipse fill="#1F77B4" cx="214.58539" cy="204.12317" rx="2.5" ry="2.5"/>
		<ellipse fill="#1F77B4" cx="227.99115" cy="216.44389" rx="2.5" ry="2.5"/>
		<ellipse fill="#1F77B4" cx="227.99115" cy="216.44389" rx="2.5" ry="2.5"/>
		<ellipse fill="#1F77B4" cx="227.99115" cy="228.76462" rx="2.5" ry="2.5"/>
		<ellipse fill="#1F77B4" cx="227.99115" cy="228.76462" rx="2.5" ry="2.5"/>
		<ellipse fill="#1F77B4" cx="241.3969" cy="216.44389" rx="2.5" ry="2.5"/>
		<ellipse fill="#1F77B4" cx="268.20837" cy="179.48172" rx="2.5" ry="2.5"/>
		<ellipse fill="#1F77B4" cx="268.20837" cy="216.44389" rx="2.5" ry="2.5"/>
		<ellipse fill="#1F77B4" cx="268.20837" cy="216.44389" rx="2.5" ry="2.5"/>
		<ellipse fill="#1F77B4" cx="281.61414" cy="179.48172" rx="2.5" ry="2.5"/>
		<ellipse fill="#1F77B4" cx="281.61414" cy="179.48172" rx="2.5" ry="2.5"/>
		<ellipse fill="#1F77B4" cx="295.0199" cy="179.48172" rx="2.5" ry="2.5"/>
		<ellipse fill="#1F77B4" cx="308.42563" cy="191.80244" rx="2.5" ry="2.5"/>
		<ellipse fill="#1F77B4" cx="308.42563" cy="191.80244" rx="2.5" ry="2.5"/>
		<ellipse fill="#1F77B4" cx="321.83139" cy="179.48172" rx="2.5" ry="2.5"/>
		<ellipse fill="#1F77B4" cx="321.83139" cy="179.48172" rx="2.5" ry="2.5"/>
		<ellipse fill="#1F77B4" cx="348.64288" cy="191.80244" rx="2.5" ry="2.5"/>
		<ellipse fill="#1F77B4" cx="348.64288" cy="191.80244" rx="2.5" ry="2.5"/>
		<ellipse fill="#1F77B4" cx="362.04861" cy="179.48172" rx="2.5" ry="2.5"/>
		<ellipse fill="#1F77B4" cx="362.04861" cy="179.48172" rx="2.5" ry="2.5"/>
		<ellipse fill="#1F77B4" cx="388.86014" cy="179.48172" rx="2.5" ry="2.5"/>
		<ellipse fill="#1F77B4" cx="388.86014" cy="179.48172" rx="2.5" ry="2.5"/>
		<ellipse fill="#1F77B4" cx="388.86014" cy="179.48172" rx="2.5" ry="2.5"/>
		<ellipse fill="#1F77B4" cx="415.67163" cy="179.48172" rx="2.5" ry="2.5"/>
		<ellipse fill="#1F77B4" cx="415.67163" cy="179.48172" rx="2.5" ry="2.5"/>
		<ellipse fill="#1F77B4" cx="429.07736" cy="179.48172" rx="2.5" ry="2.5"/>
		<ellipse fill="#1F77B4" cx="442.48312" cy="179.48172" rx="2.5" ry="2.5"/>
		<ellipse fill="#1F77B4" cx="442.48312" cy="179.48172" rx="2.5" ry="2.5"/>
		<ellipse fill="#1F77B4" cx="697.19232" cy="93.236618" rx="2.5" ry="2.5"/>
		<ellipse fill="#1F77B4" cx="697.19232" cy="93.236618" rx="2.5" ry="2.5"/>
		<ellipse fill="#1F77B4" cx="710.59808" cy="105.55734" rx="2.5" ry="2.5"/>
		<ellipse fill="#1F77B4" cx="710.59808" cy="105.55734" rx="2.5" ry="2.5"/>
		<ellipse fill="#1F77B4" cx="710.59808" cy="105.55734" rx="2.5" ry="2.5"/>
		<ellipse fill="#1F77B4" cx="724.00385" cy="31.63298" rx="2.5" ry="2.5"/>
		<ellipse fill="#1F77B4" cx="724.00385" cy="31.63298" rx="2.5" ry="2.5"/>
		<ellipse fill="#1F77B4" cx="724.00385" cy="105.55734" rx="2.5" ry="2.5"/>
		<ellipse fill="#1F77B4" cx="737.40961" cy="43.953705" rx="2.5" ry="2.5"/>
		<ellipse fill="#1F77B4" cx="750.81537" cy="43.953705" rx="2.5" ry="2.5"/>
	</g>
	<path fill="none" stroke="black" stroke-width="1" stroke-miterlimit="4" d="M93.9337 270.039L93.9337 274.039"/>
	<text transform="translate(93.9337 276.039)" font-size="12" font-family="Segoe UI" x="-14.238281, -7.7695313, -5.1679688, 1.3007813, 7.7695313, " y="11.027344, ">
			1,895
	</text>
	<path fill="none" stroke="black" stroke-width="1" stroke-miterlimit="4" d="M160.962 270.039L160.962 274.039"/>
	<text transform="translate(160.962 276.039)" font-size="12" font-family="Segoe UI" x="-14.238281, -7.7695313, -5.1679688, 1.3007813, 7.7695313, " y="11.027344, ">
			1,900
	</text>
	<path fill="none" stroke="black" stroke-width="1" stroke-miterlimit="4" d="M227.991 270.039L227.991 274.039"/>
	<text transform="translate(227.991 276.039)" font-size="12" font-family="Segoe UI" x="-14.238281, -7.7695313, -5.1679688, 1.3007813, 7.7695313, " y="11.027344, ">
			1,905
	</text>
	<path fill="none" stroke="black" stroke-width="1" stroke-miterlimit="4" d="M295.02 270.039L295.02 274.039"/>
	<text transform="translate(295.02 276.039)" font-size="12" font-family="Segoe UI" x="-14.238281, -7.7695313, -5.1679688, 1.3007813, 7.7695313, " y="11.027344, ">
			1,910
	</text>
	<path fill="none" stroke="black" stroke-width="1" stroke-miterlimit="4" d="M362.049 270.039L362.049 274.039"/>
	<text transform="translate(362.049 276.039)" font-size="12" font-family="Segoe UI" x="-14.238281, -7.7695313, -5.1679688, 1.3007813, 7.7695313, " y="11.027344, ">
			1,915
	</text>
	<path fill="none" stroke="black" stroke-width="1" stroke-miterlimit="4" d="M429.077 270.039L429.077 274.039"/>
	<text transform="translate(429.077 276.039)" font-size="12" font-family="Segoe UI" x="-14.238281, -7.7695313, -5.1679688, 1.3007813, 7.7695313, " y="11.027344, ">
			1,920
	</text>
	<path fill="none" stroke="black" stroke-width="1" stroke-miterlimit="4" d="M496.106 270.039L496.106 274.039"/>
	<text transform="translate(496.106 276.039)" font-size="12" font-family="Segoe UI" x="-14.238281, -7.7695313, -5.1679688, 1.3007813, 7.7695313, " y="11.027344, ">
			1,925
	</text>
	<path fill="none" stroke="black" stroke-width="1" stroke-miterlimit="4" d="M563.135 270.039L563.135 274.039"/>
	<text transform="translate(563.135 276.039)" font-size="12" font-family="Segoe UI" x="-14.238281, -7.7695313, -5.1679688, 1.3007813, 7.7695313, " y="11.027344, ">
			1,930
	</text>
	<path fill="none" stroke="black" stroke-width="1" stroke-miterlimit="4" d="M630.164 270.039L630.164 274.039"/>
	<text transform="translate(630.164 276.039)" font-size="12" font-family="Segoe UI" x="-14.238281, -7.7695313, -5.1679688, 1.3007813, 7.7695313, " y="11.027344, ">
			1,935
	</text>
	<path fill="none" stroke="black" stroke-width="1" stroke-miterlimit="4" d="M697.192 270.039L697.192 274.039"/>
	<text transform="translate(697.192 276.039)" font-size="12" font-family="Segoe UI" x="-14.238281, -7.7695313, -5.1679688, 1.3007813, 7.7695313, " y="11.027344, ">
			1,940
	</text>
	<path fill="none" stroke="black" stroke-width="1" stroke-miterlimit="4" d="M764.221 270.039L764.221 274.039"/>
	<text transform="translate(764.221 276.039)" font-size="12" font-family="Segoe UI" x="-14.238281, -7.7695313, -5.1679688, 1.3007813, 7.7695313, " y="11.027344, ">
			1,945
	</text>
	<path fill="none" stroke="black" stroke-width="1" stroke-miterlimit="4" d="M40.3107 270.039L40.3107 272.039"/>
	<path fill="none" stroke="black" stroke-width="1" stroke-miterlimit="4" d="M53.7164 270.039L53.7164 272.039"/>
	<path fill="none" stroke="black" stroke-width="1" stroke-miterlimit="4" d="M67.1222 270.039L67.1222 272.039"/>
	<path fill="none" stroke="black" stroke-width="1" stroke-miterlimit="4" d="M80.5279 270.039L80.5279 272.039"/>
	<path fill="none" stroke="black" stroke-width="1" stroke-miterlimit="4" d="M107.339 270.039L107.339 272.039"/>
	<path fill="none" stroke="black" stroke-width="1" stroke-miterlimit="4" d="M120.745 270.039L120.745 272.039"/>
	<path fill="none" stroke="black" stroke-width="1" stroke-miterlimit="4" d="M134.151 270.039L134.151 272.039"/>
	<path fill="none" stroke="black" stroke-width="1" stroke-miterlimit="4" d="M147.557 270.039L147.557 272.039"/>
	<path fill="none" stroke="black" stroke-width="1" stroke-miterlimit="4" d="M174.368 270.039L174.368 272.039"/>
	<path fill="none" stroke="black" stroke-width="1" stroke-miterlimit="4" d="M187.774 270.039L187.774 272.039"/>
	<path fill="none" stroke="black" stroke-width="1" stroke-miterlimit="4" d="M201.18 270.039L201.18 272.039"/>
	<path fill="none" stroke="black" stroke-width="1" stroke-miterlimit="4" d="M214.585 270.039L214.585 272.039"/>
	<path fill="none" stroke="black" stroke-width="1" stroke-miterlimit="4" d="M241.397 270.039L241.397 272.039"/>
	<path fill="none" stroke="black" stroke-width="1" stroke-miterlimit="4" d="M254.803 270.039L254.803 272.039"/>
	<path fill="none" stroke="black" stroke-width="1" stroke-miterlimit="4" d="M268.208 270.039L268.208 272.039"/>
	<path fill="none" stroke="black" stroke-width="1" stroke-miterlimit="4" d="M281.614 270.039L281.614 272.039"/>
	<path fill="none" stroke="black" stroke-width="1" stroke-miterlimit="4" d="M308.426 270.039L308.426 272.039"/>
	<path fill="none" stroke="black" stroke-width="1" stroke-miterlimit="4" d="M321.831 270.039L321.831 272.039"/>
	<path fill="none" stroke="black" stroke-width="1" stroke-miterlimit="4" d="M335.237 270.039L335.237 272.039"/>
	<path fill="none" stroke="black" stroke-width="1" stroke-miterlimit="4" d="M348.643 270.039L348.643 272.039"/>
	<path fill="none" stroke="black" stroke-width="1" stroke-miterlimit="4" d="M375.454 270.039L375.454 272.039"/>
	<path fill="none" stroke="black" stroke-width="1" stroke-miterlimit="4" d="M388.86 270.039L388.86 272.039"/>
	<path fill="none" stroke="black" stroke-width="1" stroke-miterlimit="4" d="M402.266 270.039L402.266 272.039"/>
	<path fill="none" stroke="black" stroke-width="1" stroke-miterlimit="4" d="M415.672 270.039L415.672 272.039"/>
	<path fill="none" stroke="black" stroke-width="1" stroke-miterlimit="4" d="M442.483 270.039L442.483 272.039"/>
	<path fill="none" stroke="black" stroke-width="1" stroke-miterlimit="4" d="M455.889 270.039L455.889 272.039"/>
	<path fill="none" stroke="black" stroke-width="1" stroke-miterlimit="4" d="M469.295 270.039L469.295 272.039"/>
	<path fill="none" stroke="black" stroke-width="1" stroke-miterlimit="4" d="M482.7 270.039L482.7 272.039"/>
	<path fill="none" stroke="black" stroke-width="1" stroke-miterlimit="4" d="M509.512 270.039L509.512 272.039"/>
	<path fill="none" stroke="black" stroke-width="1" stroke-miterlimit="4" d="M522.918 270.039L522.918 272.039"/>
	<path fill="none" stroke="black" stroke-width="1" stroke-miterlimit="4" d="M536.323 270.039L536.323 272.039"/>
	<path fill="none" stroke="black" stroke-width="1" stroke-miterlimit="4" d="M549.729 270.039L549.729 272.039"/>
	<path fill="none" stroke="black" stroke-width="1" stroke-miterlimit="4" d="M576.541 270.039L576.541 272.039"/>
	<path fill="none" stroke="black" stroke-width="1" stroke-miterlimit="4" d="M589.946 270.039L589.946 272.039"/>
	<path fill="none" stroke="black" stroke-width="1" stroke-miterlimit="4" d="M603.352 270.039L603.352 272.039"/>
	<path fill="none" stroke="black" stroke-width="1" stroke-miterlimit="4" d="M616.758 270.039L616.758 272.039"/>
	<path fill="none" stroke="black" stroke-width="1" stroke-miterlimit="4" d="M643.569 270.039L643.569 272.039"/>
	<path fill="none" stroke="black" stroke-width="1" stroke-miterlimit="4" d="M656.975 270.039L656.975 272.039"/>
	<path fill="none" stroke="black" stroke-width="1" stroke-miterlimit="4" d="M670.381 270.039L670.381 272.039"/>
	<path fill="none" stroke="black" stroke-width="1" stroke-miterlimit="4" d="M683.787 270.039L683.787 272.039"/>
	<path fill="none" stroke="black" stroke-width="1" stroke-miterlimit="4" d="M710.598 270.039L710.598 272.039"/>
	<path fill="none" stroke="black" stroke-width="1" stroke-miterlimit="4" d="M724.004 270.039L724.004 272.039"/>
	<path fill="none" stroke="black" stroke-width="1" stroke-miterlimit="4" d="M737.41 270.039L737.41 272.039"/>
	<path fill="none" stroke="black" stroke-width="1" stroke-miterlimit="4" d="M750.815 270.039L750.815 272.039"/>
	<path fill="none" stroke="black" stroke-width="1" stroke-miterlimit="4" d="M777.627 270.039L777.627 272.039"/>
	<path fill="none" stroke="black" stroke-width="1" stroke-miterlimit="4" d="M32.9375 270.039L785 270.039"/>
	<path fill="none" stroke="black" stroke-width="1" stroke-miterlimit="4" d="M32.9375 15.1L785 15.1"/>
	<path fill="none" stroke="black" stroke-width="1" stroke-miterlimit="4" d="M32.9375 265.727L28.9375 265.727"/>
	<text transform="translate(23.9375 265.727)" font-size="12" font-family="Segoe UI" x="-12.9375, -6.46875, " y="3.046875, ">
			14
	</text>
	<path fill="none" stroke="black" stroke-width="1" stroke-miterlimit="4" d="M32.9375 241.085L28.9375 241.085"/>
	<text transform="translate(23.9375 241.085)" font-size="12" font-family="Segoe UI" x="-12.9375, -6.46875, " y="3.046875, ">
			16
	</text>
	<path fill="none" stroke="black" stroke-width="1" stroke-miterlimit="4" d="M32.9375 216.444L28.9375 216.444"/>
	<text transform="translate(23.9375 216.444)" font-size="12" font-family="Segoe UI" x="-12.9375, -6.46875, " y="3.046875, ">
			18
	</text>
	<path fill="none" stroke="black" stroke-width="1" stroke-miterlimit="4" d="M32.9375 191.802L28.9375 191.802"/>
	<text transform="translate(23.9375 191.802)" font-size="12" font-family="Segoe UI" x="-12.9375, -6.46875, " y="3.046875, ">
			20
	</text>
	<path fill="none" stroke="black" stroke-width="1" stroke-miterlimit="4" d="M32.9375 167.161L28.9375 167.161"/>
	<text transform="translate(23.9375 167.161)" font-size="12" font-family="Segoe UI" x="-12.9375, -6.46875, " y="3.046875, ">
			22
	</text>
	<path fill="none" stroke="black" stroke-width="1" stroke-miterlimit="4" d="M32.9375 142.52L28.9375 142.52"/>
	<text transform="translate(23.9375 142.52)" font-size="12" font-family="Segoe UI" x="-12.9375, -6.46875, " y="3.046875, ">
			24
	</text>
	<path fill="none" stroke="black" stroke-width="1" stroke-miterlimit="4" d="M32.9375 117.878L28.9375 117.878"/>
	<text transform="translate(23.9375 117.878)" font-size="12" font-family="Segoe UI" x="-12.9375, -6.46875, " y="3.046875, ">
			26
	</text>
	<path fill="none" stroke="black" stroke-width="1" stroke-miterlimit="4" d="M32.9375 93.2366L28.9375 93.2366"/>
	<text transform="translate(23.9375 93.2366)" font-size="12" font-family="Segoe UI" x="-12.9375, -6.46875, " y="3.046875, ">
			28
	</text>
	<path fill="none" stroke="black" stroke-width="1" stroke-miterlimit="4" d="M32.9375 68.5952L28.9375 68.5952"/>
	<text transform="translate(23.9375 68.5952)" font-size="12" font-family="Segoe UI" x="-12.9375, -6.46875, " y="3.046875, ">
			30
	</text>
	<path fill="none" stroke="black" stroke-width="1" stroke-miterlimit="4" d="M32.9375 43.9537L28.9375 43.9537"/>
	<text transform="translate(23.9375 43.9537)" font-size="12" font-family="Segoe UI" x="-12.9375, -6.46875, " y="3.046875, ">
			32
	</text>
	<path fill="none" stroke="black" stroke-width="1" stroke-miterlimit="4" d="M32.9375 19.3123L28.9375 19.3123"/>
	<text transform="translate(23.9375 19.3123)" font-size="12" font-family="Segoe UI" x="-12.9375, -6.46875, " y="3.046875, ">
			34
	</text>
	<path fill="none" stroke="black" stroke-width="1" stroke-miterlimit="4" d="M32.9375 260.799L30.9375 260.799"/>
	<path fill="none" stroke="black" stroke-width="1" stroke-miterlimit="4" d="M32.9375 255.87L30.9375 255.87"/>
	<path fill="none" stroke="black" stroke-width="1" stroke-miterlimit="4" d="M32.9375 250.942L30.9375 250.942"/>
	<path fill="none" stroke="black" stroke-width="1" stroke-miterlimit="4" d="M32.9375 246.014L30.9375 246.014"/>
	<path fill="none" stroke="black" stroke-width="1" stroke-miterlimit="4" d="M32.9375 236.157L30.9375 236.157"/>
	<path fill="none" stroke="black" stroke-width="1" stroke-miterlimit="4" d="M32.9375 231.229L30.9375 231.229"/>
	<path fill="none" stroke="black" stroke-width="1" stroke-miterlimit="4" d="M32.9375 226.3L30.9375 226.3"/>
	<path fill="none" stroke="black" stroke-width="1" stroke-miterlimit="4" d="M32.9375 221.372L30.9375 221.372"/>
	<path fill="none" stroke="black" stroke-width="1" stroke-miterlimit="4" d="M32.9375 211.516L30.9375 211.516"/>
	<path fill="none" stroke="black" stroke-width="1" stroke-miterlimit="4" d="M32.9375 206.587L30.9375 206.587"/>
	<path fill="none" stroke="black" stroke-width="1" stroke-miterlimit="4" d="M32.9375 201.659L30.9375 201.659"/>
	<path fill="none" stroke="black" stroke-width="1" stroke-miterlimit="4" d="M32.9375 196.731L30.9375 196.731"/>
	<path fill="none" stroke="black" stroke-width="1" stroke-miterlimit="4" d="M32.9375 186.874L30.9375 186.874"/>
	<path fill="none" stroke="black" stroke-width="1" stroke-miterlimit="4" d="M32.9375 181.946L30.9375 181.946"/>
	<path fill="none" stroke="black" stroke-width="1" stroke-miterlimit="4" d="M32.9375 177.018L30.9375 177.018"/>
	<path fill="none" stroke="black" stroke-width="1" stroke-miterlimit="4" d="M32.9375 172.089L30.9375 172.089"/>
	<path fill="none" stroke="black" stroke-width="1" stroke-miterlimit="4" d="M32.9375 162.233L30.9375 162.233"/>
	<path fill="none" stroke="black" stroke-width="1" stroke-miterlimit="4" d="M32.9375 157.304L30.9375 157.304"/>
	<path fill="none" stroke="black" stroke-width="1" stroke-miterlimit="4" d="M32.9375 152.376L30.9375 152.376"/>
	<path fill="none" stroke="black" stroke-width="1" stroke-miterlimit="4" d="M32.9375 147.448L30.9375 147.448"/>
	<path fill="none" stroke="black" stroke-width="1" stroke-miterlimit="4" d="M32.9375 137.591L30.9375 137.591"/>
	<path fill="none" stroke="black" stroke-width="1" stroke-miterlimit="4" d="M32.9375 132.663L30.9375 132.663"/>
	<path fill="none" stroke="black" stroke-width="1" stroke-miterlimit="4" d="M32.9375 127.735L30.9375 127.735"/>
	<path fill="none" stroke="black" stroke-width="1" stroke-miterlimit="4" d="M32.9375 122.806L30.9375 122.806"/>
	<path fill="none" stroke="black" stroke-width="1" stroke-miterlimit="4" d="M32.9375 112.95L30.9375 112.95"/>
	<path fill="none" stroke="black" stroke-width="1" stroke-miterlimit="4" d="M32.9375 108.021L30.9375 108.021"/>
	<path fill="none" stroke="black" stroke-width="1" stroke-miterlimit="4" d="M32.9375 103.093L30.9375 103.093"/>
	<path fill="none" stroke="black" stroke-width="1" stroke-miterlimit="4" d="M32.9375 98.1649L30.9375 98.1649"/>
	<path fill="none" stroke="black" stroke-width="1" stroke-miterlimit="4" d="M32.9375 88.3083L30.9375 88.3083"/>
	<path fill="none" stroke="black" stroke-width="1" stroke-miterlimit="4" d="M32.9375 83.38L30.9375 83.38"/>
	<path fill="none" stroke="black" stroke-width="1" stroke-miterlimit="4" d="M32.9375 78.4518L30.9375 78.4518"/>
	<path fill="none" stroke="black" stroke-width="1" stroke-miterlimit="4" d="M32.9375 73.5235L30.9375 73.5235"/>
	<path fill="none" stroke="black" stroke-width="1" stroke-miterlimit="4" d="M32.9375 63.6669L30.9375 63.6669"/>
	<path fill="none" stroke="black" stroke-width="1" stroke-miterlimit="4" d="M32.9375 58.7386L30.9375 58.7386"/>
	<path fill="none" stroke="black" stroke-width="1" stroke-miterlimit="4" d="M32.9375 53.8103L30.9375 53.8103"/>
	<path fill="none" stroke="black" stroke-width="1" stroke-miterlimit="4" d="M32.9375 48.882L30.9375 48.882"/>
	<path fill="none" stroke="black" stroke-width="1" stroke-miterlimit="4" d="M32.9375 39.0254L30.9375 39.0254"/>
	<path fill="none" stroke="black" stroke-width="1" stroke-miterlimit="4" d="M32.9375 34.0971L30.9375 34.0971"/>
	<path fill="none" stroke="black" stroke-width="1" stroke-miterlimit="4" d="M32.9375 29.1688L30.9375 29.1688"/>
	<path fill="none" stroke="black" stroke-width="1" stroke-miterlimit="4" d="M32.9375 24.2405L30.9375 24.2405"/>
	<path fill="none" stroke="black" stroke-width="1" stroke-miterlimit="4" d="M32.9375 270.039L32.9375 15"/>
	<path fill="none" stroke="black" stroke-width="1" stroke-miterlimit="4" d="M785 270.039L785 15"/>
</svg>
