<?xml version="1.0" encoding="utf-8" ?>
<svg xmlns="http://www.w3.org/2000/svg" xmlns:xlink="http://www.w3.org/1999/xlink" width="800" height="300">
	<rect fill="white" width="800" height="300"/>
	<path fill="none" stroke="#010101" stroke-width="1" stroke-miterlimit="4" stroke-opacity="0.098039217" d="M54.2223 270.039L54.2223 15M118.722 270.039L118.722 15M183.221 270.039L183.221 15M247.72 270.039L247.72 15M312.22 270.039L312.22 15M376.719 270.039L376.719 15M441.218 270.039L441.218 15M505.718 270.039L505.718 15M570.217 270.039L570.217 15M634.716 270.039L634.716 15M699.216 270.039L699.216 15M763.715 270.039L763.715 15"/>
	<path fill="none" stroke="#010101" stroke-width="1" stroke-miterlimit="4" stroke-opacity="0.098039217" d="M32.9375 248.753L785 248.753M32.9375 217.736L785 217.736M32.9375 186.719L785 186.719M32.9375 155.702L785 155.702M32.9375 124.685L785 124.685M32.9375 93.6674L785 93.6674M32.9375 62.6502L785 62.6502M32.9375 31.633L785 31.633"/>
	<clipPath id="cl_38">
		<rect x="32.9375" y="15" width="752.0625" height="255.03906"/>
	</clipPath>
	<g clip-path="url(#cl_38)">
		<path fill="none" stroke="#1F77B4" stroke-width="1" stroke-miterlimit="4" d="M67.1222 233.245L67.1222 233.245L67.1222 233.245L80.022 233.245L80.022 233.245L80.022 253.406L80.022 233.245L80.022 253.406L80.022 233.245L80.022 233.245L105.822 248.753L105.822 248.753L118.722 202.228L118.722 248.753L118.722 248.753L118.722 248.753L131.622 248.753L131.622 248.753L131.622 248.753L131.622 248.753L144.521 217.736L157.421 217.736L157.421 217.736L157.421 217.736L157.421 217.736L157.421 217.736L170.321 217.736L170.321 217.736L170.321 217.736L170.321 217.736L170.321 217.736L170.321 217.736L196.121 202.228L196.121 202.228L196.121 202.228L196.121 202.228L196.121 202.228L196.121 202.228L209.021 217.736L209.021 217.736L221.921 217.736L221.921 217.736L221.921 217.736L221.921 217.736L221.921 202.228L221.921 202.228L234.82 217.736L234.82 217.736L234.82 209.982L247.72 217.736L260.62 171.21L260.62 217.736L260.62 217.736L273.52 171.21L273.52 171.21L273.52 171.21L286.42 171.21L286.42 171.21L299.32 171.21L299.32 171.21L312.22 171.21L312.22 171.21L312.22 171.21L325.12 171.21L325.12 171.21L325.12 171.21L325.12 171.21L325.12 171.21L338.019 171.21L338.019 171.21L338.019 171.21L338.019 171.21L350.919 155.702L350.919 171.21L350.919 171.21L350.919 124.685L350.919 124.685L350.919 171.21L363.819 124.685L363.819 124.685L363.819 155.702L376.719 124.685L376.719 155.702L376.719 171.21L376.719 140.193L389.619 171.21L505.718 140.193L505.718 140.193L686.316 62.6502L686.316 62.6502L699.216 47.1416L699.216 62.6502L699.216 62.6502L750.815 31.633"/>
		<ellipse fill="#1F77B4" cx="67.122162" cy="233.24489" rx="2.5" ry="2.5"/>
		<ellipse fill="#1F77B4" cx="67.122162" cy="233.24489" rx="2.5" ry="2.5"/>
		<ellipse fill="#1F77B4" cx="67.122162" cy="233.24489" rx="2.5" ry="2.5"/>
		<ellipse fill="#1F77B4" cx="80.022034" cy="233.24489" rx="2.5" ry="2.5"/>
		<ellipse fill="#1F77B4" cx="80.022034" cy="233.24489" rx="2.5" ry="2.5"/>
		<ellipse fill="#1F77B4" cx="80.022034" cy="253.40608" rx="2.5" ry="2.5"/>
		<ellipse fill="#1F77B4" cx="80.022034" cy="233.24489" rx="2.5" ry="2.5"/>
		<ellipse fill="#1F77B4" cx="80.022034" cy="253.40608" rx="2.5" ry="2.5"/>
		<ellipse fill="#1F77B4" cx="80.022034" cy="233.24489" rx="2.5" ry="2.5"/>
		<ellipse fill="#1F77B4" cx="80.022034" cy="233.24489" rx="2.5" ry="2.5"/>
		<ellipse fill="#1F77B4" cx="105.82177" cy="248.75349" rx="2.5" ry="2.5"/>
		<ellipse fill="#1F77B4" cx="105.82177" cy="248.75349" rx="2.5" ry="2.5"/>
		<ellipse fill="#1F77B4" cx="118.72164" cy="202.22768" rx="2.5" ry="2.5"/>
		<ellipse fill="#1F77B4" cx="118.72164" cy="248.75349" rx="2.5" ry="2.5"/>
		<ellipse fill="#1F77B4" cx="118.72164" cy="248.75349" rx="2.5" ry="2.5"/>
		<ellipse fill="#1F77B4" cx="118.72164" cy="248.75349" rx="2.5" ry="2.5"/>
		<ellipse fill="#1F77B4" cx="131.62152" cy="248.75349" rx="2.5" ry="2.5"/>
		<ellipse fill="#1F77B4" cx="131.62152" cy="248.75349" rx="2.5" ry="2.5"/>
		<ellipse fill="#1F77B4" cx="131.62152" cy="248.75349" rx="2.5" ry="2.5"/>
		<ellipse fill="#1F77B4" cx="131.62152" cy="248.75349" rx="2.5" ry="2.5"/>
		<ellipse fill="#1F77B4" cx="144.52139" cy="217.73628" rx="2.5" ry="2.5"/>
		<ellipse fill="#1F77B4" cx="157.42126" cy="217.73628" rx="2.5" ry="2.5"/>
		<ellipse fill="#1F77B4" cx="157.42126" cy="217.73628" rx="2.5" ry="2.5"/>
		<ellipse fill="#1F77B4" cx="157.42126" cy="217.73628" rx="2.5" ry="2.5"/>
		<ellipse fill="#1F77B4" cx="157.42126" cy="217.73628" rx="2.5" ry="2.5"/>
		<ellipse fill="#1F77B4" cx="157.42126" cy="217.73628" rx="2.5" ry="2.5"/>
		<ellipse fill="#1F77B4" cx="170.32114" cy="217.73628" rx="2.5" ry="2.5"/>
		<ellipse fill="#1F77B4" cx="170.32114" cy="217.73628" rx="2.5" ry="2.5"/>
		<ellipse fill="#1F77B4" cx="170.32114" cy="217.73628" rx="2.5" ry="2.5"/>
		<ellipse fill="#1F77B4" cx="170.32114" cy="217.73628" rx="2.5" ry="2.5"/>
		<ellipse fill="#1F77B4" cx="170.32114" cy="217.73628" rx="2.5" ry="2.5"/>
		<ellipse fill="#1F77B4" cx="170.32114" cy="217.73628" rx="2.5" ry="2.5"/>
		<ellipse fill="#1F77B4" cx="196.12088" cy="202.22768" rx="2.5" ry="2.5"/>
		<ellipse fill="#1F77B4" cx="196.12088" cy="202.22768" rx="2.5" ry="2.5"/>
		<ellipse fill="#1F77B4" cx="196.12088" cy="202.22768" rx="2.5" ry="2.5"/>
		<ellipse fill="#1F77B4" cx="196.12088" cy="202.22768" rx="2.5" ry="2.5"/>
		<ellipse fill="#1F77B4" cx="196.12088" cy="202.22768" rx="2.5" ry="2.5"/>
		<ellipse fill="#1F77B4" cx="196.12088" cy="202.22768" rx="2.5" ry="2.5"/>
		<ellipse fill="#1F77B4" cx="209.02074" cy="217.73628" rx="2.5" ry="2.5"/>
		<ellipse fill="#1F77B4" cx="209.02074" cy="217.73628" rx="2.5" ry="2.5"/>
		<ellipse fill="#1F77B4" cx="221.92061" cy="217.73628" rx="2.5" ry="2.5"/>
		<ellipse fill="#1F77B4" cx="221.92061" cy="217.73628" rx="2.5" ry="2.5"/>
		<ellipse fill="#1F77B4" cx="221.92061" cy="217.73628" rx="2.5" ry="2.5"/>
		<ellipse fill="#1F77B4" cx="221.92061" cy="217.73628" rx="2.5" ry="2.5"/>
		<ellipse fill="#1F77B4" cx="221.92061" cy="202.22768" rx="2.5" ry="2.5"/>
		<ellipse fill="#1F77B4" cx="221.92061" cy="202.22768" rx="2.5" ry="2.5"/>
		<ellipse fill="#1F77B4" cx="234.82048" cy="217.73628" rx="2.5" ry="2.5"/>
		<ellipse fill="#1F77B4" cx="234.82048" cy="217.73628" rx="2.5" ry="2.5"/>
		<ellipse fill="#1F77B4" cx="234.82048" cy="209.98198" rx="2.5" ry="2.5"/>
		<ellipse fill="#1F77B4" cx="247.72035" cy="217.73628" rx="2.5" ry="2.5"/>
		<ellipse fill="#1F77B4" cx="260.62024" cy="171.21045" rx="2.5" ry="2.5"/>
		<ellipse fill="#1F77B4" cx="260.62024" cy="217.73628" rx="2.5" ry="2.5"/>
		<ellipse fill="#1F77B4" cx="260.62024" cy="217.73628" rx="2.5" ry="2.5"/>
		<ellipse fill="#1F77B4" cx="273.52008" cy="171.21045" rx="2.5" ry="2.5"/>
		<ellipse fill="#1F77B4" cx="273.52008" cy="171.21045" rx="2.5" ry="2.5"/>
		<ellipse fill="#1F77B4" cx="273.52008" cy="171.21045" rx="2.5" ry="2.5"/>
		<ellipse fill="#1F77B4" cx="286.41998" cy="171.21045" rx="2.5" ry="2.5"/>
		<ellipse fill="#1F77B4" cx="286.41998" cy="171.21045" rx="2.5" ry="2.5"/>
		<ellipse fill="#1F77B4" cx="299.31985" cy="171.21045" rx="2.5" ry="2.5"/>
		<ellipse fill="#1F77B4" cx="299.31985" cy="171.21045" rx="2.5" ry="2.5"/>
		<ellipse fill="#1F77B4" cx="312.21973" cy="171.21045" rx="2.5" ry="2.5"/>
		<ellipse fill="#1F77B4" cx="312.21973" cy="171.21045" rx="2.5" ry="2.5"/>
		<ellipse fill="#1F77B4" cx="312.21973" cy="171.21045" rx="2.5" ry="2.5"/>
		<ellipse fill="#1F77B4" cx="325.1196" cy="171.21045" rx="2.5" ry="2.5"/>
		<ellipse fill="#1F77B4" cx="325.1196" cy="171.21045" rx="2.5" ry="2.5"/>
		<ellipse fill="#1F77B4" cx="325.1196" cy="171.21045" rx="2.5" ry="2.5"/>
		<ellipse fill="#1F77B4" cx="325.1196" cy="171.21045" rx="2.5" ry="2.5"/>
		<ellipse fill="#1F77B4" cx="325.1196" cy="171.21045" rx="2.5" ry="2.5"/>
		<ellipse fill="#1F77B4" cx="338.01947" cy="171.21045" rx="2.5" ry="2.5"/>
		<ellipse fill="#1F77B4" cx="338.01947" cy="171.21045" rx="2.5" ry="2.5"/>
		<ellipse fill="#1F77B4" cx="338.01947" cy="171.21045" rx="2.5" ry="2.5"/>
		<ellipse fill="#1F77B4" cx="338.01947" cy="171.21045" rx="2.5" ry="2.5"/>
		<ellipse fill="#1F77B4" cx="350.91934" cy="155.70184" rx="2.5" ry="2.5"/>
		<ellipse fill="#1F77B4" cx="350.91934" cy="171.21045" rx="2.5" ry="2.5"/>
		<ellipse fill="#1F77B4" cx="350.91934" cy="171.21045" rx="2.5" ry="2.5"/>
		<ellipse fill="#1F77B4" cx="350.91934" cy="124.68463" rx="2.5" ry="2.5"/>
		<ellipse fill="#1F77B4" cx="350.91934" cy="124.68463" rx="2.5" ry="2.5"/>
		<ellipse fill="#1F77B4" cx="350.91934" cy="171.21045" rx="2.5" ry="2.5"/>
		<ellipse fill="#1F77B4" cx="363.81921" cy="124.68463" rx="2.5" ry="2.5"/>
		<ellipse fill="#1F77B4" cx="363.81921" cy="124.68463" rx="2.5" ry="2.5"/>
		<ellipse fill="#1F77B4" cx="363.81921" cy="155.70184" rx="2.5" ry="2.5"/>
		<ellipse fill="#1F77B4" cx="376.71909" cy="124.68463" rx="2.5" ry="2.5"/>
		<ellipse fill="#1F77B4" cx="376.71909" cy="155.70184" rx="2.5" ry="2.5"/>
		<ellipse fill="#1F77B4" cx="376.71909" cy="171.21045" rx="2.5" ry="2.5"/>
		<ellipse fill="#1F77B4" cx="376.71909" cy="140.19324" rx="2.5" ry="2.5"/>
		<ellipse fill="#1F77B4" cx="389.61896" cy="171.21045" rx="2.5" ry="2.5"/>
		<ellipse fill="#1F77B4" cx="505.71777" cy="140.19324" rx="2.5" ry="2.5"/>
		<ellipse fill="#1F77B4" cx="505.71777" cy="140.19324" rx="2.5" ry="2.5"/>
		<ellipse fill="#1F77B4" cx="686.31598" cy="62.650192" rx="2.5" ry="2.5"/>
		<ellipse fill="#1F77B4" cx="686.31598" cy="62.650192" rx="2.5" ry="2.5"/>
		<ellipse fill="#1F77B4" cx="699.21588" cy="47.141586" rx="2.5" ry="2.5"/>
		<ellipse fill="#1F77B4" cx="699.21588" cy="62.650192" rx="2.5" ry="2.5"/>
		<ellipse fill="#1F77B4" cx="699.21588" cy="62.650192" rx="2.5" ry="2.5"/>
		<ellipse fill="#1F77B4" cx="750.81537" cy="31.63298" rx="2.5" ry="2.5"/>
	</g>
	<path fill="none" stroke="black" stroke-width="1" stroke-miterlimit="4" d="M54.2223 270.039L54.2223 274.039"/>
	<text transform="translate(54.2223 276.039)" font-size="12" font-family="Segoe UI" x="-14.238281, -7.7695313, -5.1679688, 1.3007813, 7.7695313, " y="11.027344, ">
			1,890
	</text>
	<path fill="none" stroke="black" stroke-width="1" stroke-miterlimit="4" d="M118.722 270.039L118.722 274.039"/>
	<text transform="translate(118.722 276.039)" font-size="12" font-family="Segoe UI" x="-14.238281, -7.7695313, -5.1679688, 1.3007813, 7.7695313, " y="11.027344, ">
			1,895
	</text>
	<path fill="none" stroke="black" stroke-width="1" stroke-miterlimit="4" d="M183.221 270.039L183.221 274.039"/>
	<text transform="translate(183.221 276.039)" font-size="12" font-family="Segoe UI" x="-14.238281, -7.7695313, -5.1679688, 1.3007813, 7.7695313, " y="11.027344, ">
			1,900
	</text>
	<path fill="none" stroke="black" stroke-width="1" stroke-miterlimit="4" d="M247.72 270.039L247.72 274.039"/>
	<text transform="translate(247.72 276.039)" font-size="12" font-family="Segoe UI" x="-14.238281, -7.7695313, -5.1679688, 1.3007813, 7.7695313, " y="11.027344, ">
			1,905
	</text>
	<path fill="none" stroke="black" stroke-width="1" stroke-miterlimit="4" d="M312.22 270.039L312.22 274.039"/>
	<text transform="translate(312.22 276.039)" font-size="12" font-family="Segoe UI" x="-14.238281, -7.7695313, -5.1679688, 1.3007813, 7.7695313, " y="11.027344, ">
			1,910
	</text>
	<path fill="none" stroke="black" stroke-width="1" stroke-miterlimit="4" d="M376.719 270.039L376.719 274.039"/>
	<text transform="translate(376.719 276.039)" font-size="12" font-family="Segoe UI" x="-14.238281, -7.7695313, -5.1679688, 1.3007813, 7.7695313, " y="11.027344, ">
			1,915
	</text>
	<path fill="none" stroke="black" stroke-width="1" stroke-miterlimit="4" d="M441.218 270.039L441.218 274.039"/>
	<text transform="translate(441.218 276.039)" font-size="12" font-family="Segoe UI" x="-14.238281, -7.7695313, -5.1679688, 1.3007813, 7.7695313, " y="11.027344, ">
			1,920
	</text>
	<path fill="none" stroke="black" stroke-width="1" stroke-miterlimit="4" d="M505.718 270.039L505.718 274.039"/>
	<text transform="translate(505.718 276.039)" font-size="12" font-family="Segoe UI" x="-14.238281, -7.7695313, -5.1679688, 1.3007813, 7.7695313, " y="11.027344, ">
			1,925
	</text>
	<path fill="none" stroke="black" stroke-width="1" stroke-miterlimit="4" d="M570.217 270.039L570.217 274.039"/>
	<text transform="translate(570.217 276.039)" font-size="12" font-family="Segoe UI" x="-14.238281, -7.7695313, -5.1679688, 1.3007813, 7.7695313, " y="11.027344, ">
			1,930
	</text>
	<path fill="none" stroke="black" stroke-width="1" stroke-miterlimit="4" d="M634.716 270.039L634.716 274.039"/>
	<text transform="translate(634.716 276.039)" font-size="12" font-family="Segoe UI" x="-14.238281, -7.7695313, -5.1679688, 1.3007813, 7.7695313, " y="11.027344, ">
			1,935
	</text>
	<path fill="none" stroke="black" stroke-width="1" stroke-miterlimit="4" d="M699.216 270.039L699.216 274.039"/>
	<text transform="translate(699.216 276.039)" font-size="12" font-family="Segoe UI" x="-14.238281, -7.7695313, -5.1679688, 1.3007813, 7.7695313, " y="11.027344, ">
			1,940
	</text>
	<path fill="none" stroke="black" stroke-width="1" stroke-miterlimit="4" d="M763.715 270.039L763.715 274.039"/>
	<text transform="translate(763.715 276.039)" font-size="12" font-family="Segoe UI" x="-14.238281, -7.7695313, -5.1679688, 1.3007813, 7.7695313, " y="11.027344, ">
			1,945
	</text>
	<path fill="none" stroke="black" stroke-width="1" stroke-miterlimit="4" d="M41.3224 270.039L41.3224 272.039"/>
	<path fill="none" stroke="black" stroke-width="1" stroke-miterlimit="4" d="M67.1222 270.039L67.1222 272.039"/>
	<path fill="none" stroke="black" stroke-width="1" stroke-miterlimit="4" d="M80.022 270.039L80.022 272.039"/>
	<path fill="none" stroke="black" stroke-width="1" stroke-miterlimit="4" d="M92.9219 270.039L92.9219 272.039"/>
	<path fill="none" stroke="black" stroke-width="1" stroke-miterlimit="4" d="M105.822 270.039L105.822 272.039"/>
	<path fill="none" stroke="black" stroke-width="1" stroke-miterlimit="4" d="M131.622 270.039L131.622 272.039"/>
	<path fill="none" stroke="black" stroke-width="1" stroke-miterlimit="4" d="M144.521 270.039L144.521 272.039"/>
	<path fill="none" stroke="black" stroke-width="1" stroke-miterlimit="4" d="M157.421 270.039L157.421 272.039"/>
	<path fill="none" stroke="black" stroke-width="1" stroke-miterlimit="4" d="M170.321 270.039L170.321 272.039"/>
	<path fill="none" stroke="black" stroke-width="1" stroke-miterlimit="4" d="M196.121 270.039L196.121 272.039"/>
	<path fill="none" stroke="black" stroke-width="1" stroke-miterlimit="4" d="M209.021 270.039L209.021 272.039"/>
	<path fill="none" stroke="black" stroke-width="1" stroke-miterlimit="4" d="M221.921 270.039L221.921 272.039"/>
	<path fill="none" stroke="black" stroke-width="1" stroke-miterlimit="4" d="M234.82 270.039L234.82 272.039"/>
	<path fill="none" stroke="black" stroke-width="1" stroke-miterlimit="4" d="M260.62 270.039L260.62 272.039"/>
	<path fill="none" stroke="black" stroke-width="1" stroke-miterlimit="4" d="M273.52 270.039L273.52 272.039"/>
	<path fill="none" stroke="black" stroke-width="1" stroke-miterlimit="4" d="M286.42 270.039L286.42 272.039"/>
	<path fill="none" stroke="black" stroke-width="1" stroke-miterlimit="4" d="M299.32 270.039L299.32 272.039"/>
	<path fill="none" stroke="black" stroke-width="1" stroke-miterlimit="4" d="M325.12 270.039L325.12 272.039"/>
	<path fill="none" stroke="black" stroke-width="1" stroke-miterlimit="4" d="M338.019 270.039L338.019 272.039"/>
	<path fill="none" stroke="black" stroke-width="1" stroke-miterlimit="4" d="M350.919 270.039L350.919 272.039"/>
	<path fill="none" stroke="black" stroke-width="1" stroke-miterlimit="4" d="M363.819 270.039L363.819 272.039"/>
	<path fill="none" stroke="black" stroke-width="1" stroke-miterlimit="4" d="M389.619 270.039L389.619 272.039"/>
	<path fill="none" stroke="black" stroke-width="1" stroke-miterlimit="4" d="M402.519 270.039L402.519 272.039"/>
	<path fill="none" stroke="black" stroke-width="1" stroke-miterlimit="4" d="M415.419 270.039L415.419 272.039"/>
	<path fill="none" stroke="black" stroke-width="1" stroke-miterlimit="4" d="M428.319 270.039L428.319 272.039"/>
	<path fill="none" stroke="black" stroke-width="1" stroke-miterlimit="4" d="M454.118 270.039L454.118 272.039"/>
	<path fill="none" stroke="black" stroke-width="1" stroke-miterlimit="4" d="M467.018 270.039L467.018 272.039"/>
	<path fill="none" stroke="black" stroke-width="1" stroke-miterlimit="4" d="M479.918 270.039L479.918 272.039"/>
	<path fill="none" stroke="black" stroke-width="1" stroke-miterlimit="4" d="M492.818 270.039L492.818 272.039"/>
	<path fill="none" stroke="black" stroke-width="1" stroke-miterlimit="4" d="M518.618 270.039L518.618 272.039"/>
	<path fill="none" stroke="black" stroke-width="1" stroke-miterlimit="4" d="M531.518 270.039L531.518 272.039"/>
	<path fill="none" stroke="black" stroke-width="1" stroke-miterlimit="4" d="M544.417 270.039L544.417 272.039"/>
	<path fill="none" stroke="black" stroke-width="1" stroke-miterlimit="4" d="M557.317 270.039L557.317 272.039"/>
	<path fill="none" stroke="black" stroke-width="1" stroke-miterlimit="4" d="M583.117 270.039L583.117 272.039"/>
	<path fill="none" stroke="black" stroke-width="1" stroke-miterlimit="4" d="M596.017 270.039L596.017 272.039"/>
	<path fill="none" stroke="black" stroke-width="1" stroke-miterlimit="4" d="M608.917 270.039L608.917 272.039"/>
	<path fill="none" stroke="black" stroke-width="1" stroke-miterlimit="4" d="M621.817 270.039L621.817 272.039"/>
	<path fill="none" stroke="black" stroke-width="1" stroke-miterlimit="4" d="M647.616 270.039L647.616 272.039"/>
	<path fill="none" stroke="black" stroke-width="1" stroke-miterlimit="4" d="M660.516 270.039L660.516 272.039"/>
	<path fill="none" stroke="black" stroke-width="1" stroke-miterlimit="4" d="M673.416 270.039L673.416 272.039"/>
	<path fill="none" stroke="black" stroke-width="1" stroke-miterlimit="4" d="M686.316 270.039L686.316 272.039"/>
	<path fill="none" stroke="black" stroke-width="1" stroke-miterlimit="4" d="M712.116 270.039L712.116 272.039"/>
	<path fill="none" stroke="black" stroke-width="1" stroke-miterlimit="4" d="M725.016 270.039L725.016 272.039"/>
	<path fill="none" stroke="black" stroke-width="1" stroke-miterlimit="4" d="M737.915 270.039L737.915 272.039"/>
	<path fill="none" stroke="black" stroke-width="1" stroke-miterlimit="4" d="M750.815 270.039L750.815 272.039"/>
	<path fill="none" stroke="black" stroke-width="1" stroke-miterlimit="4" d="M776.615 270.039L776.615 272.039"/>
	<path fill="none" stroke="black" stroke-width="1" stroke-miterlimit="4" d="M32.9375 270.039L785 270.039"/>
	<path fill="none" stroke="black" stroke-width="1" stroke-miterlimit="4" d="M32.9375 15.1L785 15.1"/>
	<path fill="none" stroke="black" stroke-width="1" stroke-miterlimit="4" d="M32.9375 248.753L28.9375 248.753"/>
	<text transform="translate(23.9375 248.753)" font-size="12" font-family="Segoe UI" x="-12.9375, -6.46875, " y="3.046875, ">
			16
	</text>
	<path fill="none" stroke="black" stroke-width="1" stroke-miterlimit="4" d="M32.9375 217.736L28.9375 217.736"/>
	<text transform="translate(23.9375 217.736)" font-size="12" font-family="Segoe UI" x="-12.9375, -6.46875, " y="3.046875, ">
			18
	</text>
	<path fill="none" stroke="black" stroke-width="1" stroke-miterlimit="4" d="M32.9375 186.719L28.9375 186.719"/>
	<text transform="translate(23.9375 186.719)" font-size="12" font-family="Segoe UI" x="-12.9375, -6.46875, " y="3.046875, ">
			20
	</text>
	<path fill="none" stroke="black" stroke-width="1" stroke-miterlimit="4" d="M32.9375 155.702L28.9375 155.702"/>
	<text transform="translate(23.9375 155.702)" font-size="12" font-family="Segoe UI" x="-12.9375, -6.46875, " y="3.046875, ">
			22
	</text>
	<path fill="none" stroke="black" stroke-width="1" stroke-miterlimit="4" d="M32.9375 124.685L28.9375 124.685"/>
	<text transform="translate(23.9375 124.685)" font-size="12" font-family="Segoe UI" x="-12.9375, -6.46875, " y="3.046875, ">
			24
	</text>
	<path fill="none" stroke="black" stroke-width="1" stroke-miterlimit="4" d="M32.9375 93.6674L28.9375 93.6674"/>
	<text transform="translate(23.9375 93.6674)" font-size="12" font-family="Segoe UI" x="-12.9375, -6.46875, " y="3.046875, ">
			26
	</text>
	<path fill="none" stroke="black" stroke-width="1" stroke-miterlimit="4" d="M32.9375 62.6502L28.9375 62.6502"/>
	<text transform="translate(23.9375 62.6502)" font-size="12" font-family="Segoe UI" x="-12.9375, -6.46875, " y="3.046875, ">
			28
	</text>
	<path fill="none" stroke="black" stroke-width="1" stroke-miterlimit="4" d="M32.9375 31.633L28.9375 31.633"/>
	<text transform="translate(23.9375 31.633)" font-size="12" font-family="Segoe UI" x="-12.9375, -6.46875, " y="3.046875, ">
			30
	</text>
	<path fill="none" stroke="black" stroke-width="1" stroke-miterlimit="4" d="M32.9375 267.364L30.9375 267.364"/>
	<path fill="none" stroke="black" stroke-width="1" stroke-miterlimit="4" d="M32.9375 261.16L30.9375 261.16"/>
	<path fill="none" stroke="black" stroke-width="1" stroke-miterlimit="4" d="M32.9375 254.957L30.9375 254.957"/>
	<path fill="none" stroke="black" stroke-width="1" stroke-miterlimit="4" d="M32.9375 242.55L30.9375 242.55"/>
	<path fill="none" stroke="black" stroke-width="1" stroke-miterlimit="4" d="M32.9375 236.347L30.9375 236.347"/>
	<path fill="none" stroke="black" stroke-width="1" stroke-miterlimit="4" d="M32.9375 230.143L30.9375 230.143"/>
	<path fill="none" stroke="black" stroke-width="1" stroke-miterlimit="4" d="M32.9375 223.94L30.9375 223.94"/>
	<path fill="none" stroke="black" stroke-width="1" stroke-miterlimit="4" d="M32.9375 211.533L30.9375 211.533"/>
	<path fill="none" stroke="black" stroke-width="1" stroke-miterlimit="4" d="M32.9375 205.329L30.9375 205.329"/>
	<path fill="none" stroke="black" stroke-width="1" stroke-miterlimit="4" d="M32.9375 199.126L30.9375 199.126"/>
	<path fill="none" stroke="black" stroke-width="1" stroke-miterlimit="4" d="M32.9375 192.923L30.9375 192.923"/>
	<path fill="none" stroke="black" stroke-width="1" stroke-miterlimit="4" d="M32.9375 180.516L30.9375 180.516"/>
	<path fill="none" stroke="black" stroke-width="1" stroke-miterlimit="4" d="M32.9375 174.312L30.9375 174.312"/>
	<path fill="none" stroke="black" stroke-width="1" stroke-miterlimit="4" d="M32.9375 168.109L30.9375 168.109"/>
	<path fill="none" stroke="black" stroke-width="1" stroke-miterlimit="4" d="M32.9375 161.905L30.9375 161.905"/>
	<path fill="none" stroke="black" stroke-width="1" stroke-miterlimit="4" d="M32.9375 149.498L30.9375 149.498"/>
	<path fill="none" stroke="black" stroke-width="1" stroke-miterlimit="4" d="M32.9375 143.295L30.9375 143.295"/>
	<path fill="none" stroke="black" stroke-width="1" stroke-miterlimit="4" d="M32.9375 137.092L30.9375 137.092"/>
	<path fill="none" stroke="black" stroke-width="1" stroke-miterlimit="4" d="M32.9375 130.888L30.9375 130.888"/>
	<path fill="none" stroke="black" stroke-width="1" stroke-miterlimit="4" d="M32.9375 118.481L30.9375 118.481"/>
	<path fill="none" stroke="black" stroke-width="1" stroke-miterlimit="4" d="M32.9375 112.278L30.9375 112.278"/>
	<path fill="none" stroke="black" stroke-width="1" stroke-miterlimit="4" d="M32.9375 106.074L30.9375 106.074"/>
	<path fill="none" stroke="black" stroke-width="1" stroke-miterlimit="4" d="M32.9375 99.8709L30.9375 99.8709"/>
	<path fill="none" stroke="black" stroke-width="1" stroke-miterlimit="4" d="M32.9375 87.464L30.9375 87.464"/>
	<path fill="none" stroke="black" stroke-width="1" stroke-miterlimit="4" d="M32.9375 81.2605L30.9375 81.2605"/>
	<path fill="none" stroke="black" stroke-width="1" stroke-miterlimit="4" d="M32.9375 75.0571L30.9375 75.0571"/>
	<path fill="none" stroke="black" stroke-width="1" stroke-miterlimit="4" d="M32.9375 68.8536L30.9375 68.8536"/>
	<path fill="none" stroke="black" stroke-width="1" stroke-miterlimit="4" d="M32.9375 56.4468L30.9375 56.4468"/>
	<path fill="none" stroke="black" stroke-width="1" stroke-miterlimit="4" d="M32.9375 50.2433L30.9375 50.2433"/>
	<path fill="none" stroke="black" stroke-width="1" stroke-miterlimit="4" d="M32.9375 44.0399L30.9375 44.0399"/>
	<path fill="none" stroke="black" stroke-width="1" stroke-miterlimit="4" d="M32.9375 37.8364L30.9375 37.8364"/>
	<path fill="none" stroke="black" stroke-width="1" stroke-miterlimit="4" d="M32.9375 25.4295L30.9375 25.4295"/>
	<path fill="none" stroke="black" stroke-width="1" stroke-miterlimit="4" d="M32.9375 19.2261L30.9375 19.2261"/>
	<path fill="none" stroke="black" stroke-width="1" stroke-miterlimit="4" d="M32.9375 270.039L32.9375 15"/>
	<path fill="none" stroke="black" stroke-width="1" stroke-miterlimit="4" d="M785 270.039L785 15"/>
</svg>
