<?xml version="1.0" encoding="utf-8" ?>
<svg xmlns="http://www.w3.org/2000/svg" xmlns:xlink="http://www.w3.org/1999/xlink" width="800" height="300">
	<rect fill="white" width="800" height="300"/>
	<path fill="none" stroke="#010101" stroke-width="1" stroke-miterlimit="4" stroke-opacity="0.098039217" d="M79.5994 270.039L79.5994 15M133.818 270.039L133.818 15M188.037 270.039L188.037 15M242.255 270.039L242.255 15M296.474 270.039L296.474 15M350.692 270.039L350.692 15M404.911 270.039L404.911 15M459.13 270.039L459.13 15M513.348 270.039L513.348 15M567.567 270.039L567.567 15M621.786 270.039L621.786 15M676.004 270.039L676.004 15M730.223 270.039L730.223 15M784.441 270.039L784.441 15"/>
	<path fill="none" stroke="#010101" stroke-width="1" stroke-miterlimit="4" stroke-opacity="0.098039217" d="M32.9375 243.091L785 243.091M32.9375 191.516L785 191.516M32.9375 139.941L785 139.941M32.9375 88.3656L785 88.3656M32.9375 36.7905L785 36.7905"/>
	<clipPath id="cl_13c">
		<rect x="32.9375" y="15" width="752.0625" height="255.03906"/>
	</clipPath>
	<g clip-path="url(#cl_13c)">
		<path fill="none" stroke="red" stroke-width="1" stroke-miterlimit="4" d=""/>
		<ellipse fill="red" cx="286.2547" cy="170.88586" rx="2.5" ry="2.5"/>
	</g>
	<clipPath id="cl_13d">
		<rect x="32.9375" y="15" width="752.0625" height="255.03906"/>
	</clipPath>
	<g clip-path="url(#cl_13d)">
		<path fill="none" stroke="lime" stroke-width="1" stroke-miterlimit="4" d="M77.4233 212.146L82.2378 212.146L116.755 191.516L116.755 191.516L122.891 170.886L122.913 181.201L123.277 191.516L124.456 181.201L186.571 170.886L223.001 181.201L223.144 181.201L256.886 181.201L256.886 181.201L256.886 170.886L442.057 88.3656L475.128 88.3656L475.128 88.3656"/>
		<ellipse fill="lime" cx="77.423264" cy="212.14597" rx="2.5" ry="2.5"/>
		<ellipse fill="lime" cx="82.237793" cy="212.14597" rx="2.5" ry="2.5"/>
		<ellipse fill="lime" cx="116.75475" cy="191.51591" rx="2.5" ry="2.5"/>
		<ellipse fill="lime" cx="116.75475" cy="191.51591" rx="2.5" ry="2.5"/>
		<ellipse fill="lime" cx="122.89133" cy="170.88586" rx="2.5" ry="2.5"/>
		<ellipse fill="lime" cx="122.91338" cy="181.20088" rx="2.5" ry="2.5"/>
		<ellipse fill="lime" cx="123.27694" cy="191.51591" rx="2.5" ry="2.5"/>
		<ellipse fill="lime" cx="124.45578" cy="181.20088" rx="2.5" ry="2.5"/>
		<ellipse fill="lime" cx="186.57088" cy="170.88586" rx="2.5" ry="2.5"/>
		<ellipse fill="lime" cx="223.00096" cy="181.20088" rx="2.5" ry="2.5"/>
		<ellipse fill="lime" cx="223.14362" cy="181.20088" rx="2.5" ry="2.5"/>
		<ellipse fill="lime" cx="256.88647" cy="181.20088" rx="2.5" ry="2.5"/>
		<ellipse fill="lime" cx="256.88647" cy="181.20088" rx="2.5" ry="2.5"/>
		<ellipse fill="lime" cx="256.88647" cy="170.88586" rx="2.5" ry="2.5"/>
		<ellipse fill="lime" cx="442.05701" cy="88.365631" rx="2.5" ry="2.5"/>
		<ellipse fill="lime" cx="475.1275" cy="88.365631" rx="2.5" ry="2.5"/>
		<ellipse fill="lime" cx="475.1275" cy="88.365631" rx="2.5" ry="2.5"/>
	</g>
	<clipPath id="cl_13e">
		<rect x="32.9375" y="15" width="752.0625" height="255.03906"/>
	</clipPath>
	<g clip-path="url(#cl_13e)">
		<path fill="none" stroke="#AFA" stroke-width="1" stroke-miterlimit="4" d="M67.1222 253.406L83.6039 243.091L96.2517 232.776L97.8602 232.776L101.628 232.776L111.5 232.776L111.962 212.146L113.269 212.146L113.291 232.776L117.89 232.776L117.912 212.146L123.31 212.146L126.406 212.146L127.067 212.146L129.898 212.146L129.975 222.461L129.979 217.303L161.98 212.146L161.98 212.146L229.108 181.201L229.108 181.201L229.108 181.201L240.086 150.256L240.086 150.256L240.086 150.256L240.086 150.256L242.671 181.201"/>
		<ellipse fill="#AFA" cx="67.122162" cy="253.40608" rx="2.5" ry="2.5"/>
		<ellipse fill="#AFA" cx="83.603928" cy="243.09105" rx="2.5" ry="2.5"/>
		<ellipse fill="#AFA" cx="96.251694" cy="232.77603" rx="2.5" ry="2.5"/>
		<ellipse fill="#AFA" cx="97.860207" cy="232.77603" rx="2.5" ry="2.5"/>
		<ellipse fill="#AFA" cx="101.6281" cy="232.77603" rx="2.5" ry="2.5"/>
		<ellipse fill="#AFA" cx="111.49953" cy="232.77603" rx="2.5" ry="2.5"/>
		<ellipse fill="#AFA" cx="111.96225" cy="212.14597" rx="2.5" ry="2.5"/>
		<ellipse fill="#AFA" cx="113.26914" cy="212.14597" rx="2.5" ry="2.5"/>
		<ellipse fill="#AFA" cx="113.29082" cy="232.77603" rx="2.5" ry="2.5"/>
		<ellipse fill="#AFA" cx="117.88952" cy="232.77603" rx="2.5" ry="2.5"/>
		<ellipse fill="#AFA" cx="117.91155" cy="212.14597" rx="2.5" ry="2.5"/>
		<ellipse fill="#AFA" cx="123.30999" cy="212.14597" rx="2.5" ry="2.5"/>
		<ellipse fill="#AFA" cx="126.40582" cy="212.14597" rx="2.4999962" ry="2.5"/>
		<ellipse fill="#AFA" cx="127.06686" cy="212.14597" rx="2.5" ry="2.5"/>
		<ellipse fill="#AFA" cx="129.89828" cy="212.14597" rx="2.5" ry="2.5"/>
		<ellipse fill="#AFA" cx="129.9754" cy="222.461" rx="2.5" ry="2.5"/>
		<ellipse fill="#AFA" cx="129.97931" cy="217.30348" rx="2.5" ry="2.5"/>
		<ellipse fill="#AFA" cx="161.98044" cy="212.14597" rx="2.5" ry="2.5"/>
		<ellipse fill="#AFA" cx="161.98044" cy="212.14597" rx="2.5" ry="2.5"/>
		<ellipse fill="#AFA" cx="229.10838" cy="181.20088" rx="2.5" ry="2.5"/>
		<ellipse fill="#AFA" cx="229.10838" cy="181.20088" rx="2.5" ry="2.5"/>
		<ellipse fill="#AFA" cx="229.10838" cy="181.20088" rx="2.5" ry="2.5"/>
		<ellipse fill="#AFA" cx="240.08647" cy="150.2558" rx="2.5" ry="2.5"/>
		<ellipse fill="#AFA" cx="240.08647" cy="150.2558" rx="2.5" ry="2.5"/>
		<ellipse fill="#AFA" cx="240.08647" cy="150.2558" rx="2.5" ry="2.5"/>
		<ellipse fill="#AFA" cx="240.08647" cy="150.2558" rx="2.5" ry="2.5"/>
		<ellipse fill="#AFA" cx="242.67058" cy="181.20088" rx="2.5" ry="2.5"/>
	</g>
	<clipPath id="cl_13f">
		<rect x="32.9375" y="15" width="752.0625" height="255.03906"/>
	</clipPath>
	<g clip-path="url(#cl_13f)">
		<path fill="none" stroke="#AAA" stroke-width="1" stroke-miterlimit="4" d="M79.7403 232.776L79.7403 232.776L79.7403 232.776L79.7403 232.776L91.4949 222.461L91.4949 222.461L91.4949 222.461L91.4949 222.461L91.4949 222.461L98.8361 212.146L98.8361 212.146L98.8361 212.146L98.8361 212.146L98.8361 212.146L114.202 212.146L114.202 212.146L114.202 212.146L114.202 212.146L114.202 201.831L114.386 212.146L114.386 212.146L114.386 212.146L114.386 212.146L114.386 212.146L175.816 201.831L175.816 201.831L175.816 201.831L175.816 201.831L218.486 191.516L218.486 191.516L218.486 191.516L218.486 181.201L239.262 181.201L239.262 170.886L239.262 170.886L239.262 170.886L239.262 160.571L250.887 181.201L250.887 181.201L250.887 181.201L250.887 181.201L280.534 181.201L280.534 170.886"/>
		<ellipse fill="#AAA" cx="79.740349" cy="232.77603" rx="2.5" ry="2.5"/>
		<ellipse fill="#AAA" cx="79.740349" cy="232.77603" rx="2.5" ry="2.5"/>
		<ellipse fill="#AAA" cx="79.740349" cy="232.77603" rx="2.5" ry="2.5"/>
		<ellipse fill="#AAA" cx="79.740349" cy="232.77603" rx="2.5" ry="2.5"/>
		<ellipse fill="#AAA" cx="91.494949" cy="222.461" rx="2.5" ry="2.5"/>
		<ellipse fill="#AAA" cx="91.494949" cy="222.461" rx="2.5" ry="2.5"/>
		<ellipse fill="#AAA" cx="91.494949" cy="222.461" rx="2.5" ry="2.5"/>
		<ellipse fill="#AAA" cx="91.494949" cy="222.461" rx="2.5" ry="2.5"/>
		<ellipse fill="#AAA" cx="91.494949" cy="222.461" rx="2.5" ry="2.5"/>
		<ellipse fill="#AAA" cx="98.836143" cy="212.14597" rx="2.5" ry="2.5"/>
		<ellipse fill="#AAA" cx="98.836143" cy="212.14597" rx="2.5" ry="2.5"/>
		<ellipse fill="#AAA" cx="98.836143" cy="212.14597" rx="2.5" ry="2.5"/>
		<ellipse fill="#AAA" cx="98.836143" cy="212.14597" rx="2.5" ry="2.5"/>
		<ellipse fill="#AAA" cx="98.836143" cy="212.14597" rx="2.5" ry="2.5"/>
		<ellipse fill="#AAA" cx="114.2017" cy="212.14597" rx="2.5" ry="2.5"/>
		<ellipse fill="#AAA" cx="114.2017" cy="212.14597" rx="2.5" ry="2.5"/>
		<ellipse fill="#AAA" cx="114.2017" cy="212.14597" rx="2.5" ry="2.5"/>
		<ellipse fill="#AAA" cx="114.2017" cy="212.14597" rx="2.5" ry="2.5"/>
		<ellipse fill="#AAA" cx="114.2017" cy="201.83093" rx="2.5" ry="2.5"/>
		<ellipse fill="#AAA" cx="114.38604" cy="212.14597" rx="2.5" ry="2.5"/>
		<ellipse fill="#AAA" cx="114.38604" cy="212.14597" rx="2.5" ry="2.5"/>
		<ellipse fill="#AAA" cx="114.38604" cy="212.14597" rx="2.5" ry="2.5"/>
		<ellipse fill="#AAA" cx="114.38604" cy="212.14597" rx="2.5" ry="2.5"/>
		<ellipse fill="#AAA" cx="114.38604" cy="212.14597" rx="2.5" ry="2.5"/>
		<ellipse fill="#AAA" cx="175.81573" cy="201.83093" rx="2.5" ry="2.5"/>
		<ellipse fill="#AAA" cx="175.81573" cy="201.83093" rx="2.5" ry="2.5"/>
		<ellipse fill="#AAA" cx="175.81573" cy="201.83093" rx="2.5" ry="2.5"/>
		<ellipse fill="#AAA" cx="175.81573" cy="201.83093" rx="2.5" ry="2.5"/>
		<ellipse fill="#AAA" cx="218.48578" cy="191.51591" rx="2.5" ry="2.5"/>
		<ellipse fill="#AAA" cx="218.48578" cy="191.51591" rx="2.5" ry="2.5"/>
		<ellipse fill="#AAA" cx="218.48578" cy="191.51591" rx="2.5" ry="2.5"/>
		<ellipse fill="#AAA" cx="218.48578" cy="181.20088" rx="2.5" ry="2.5"/>
		<ellipse fill="#AAA" cx="239.26236" cy="181.20088" rx="2.5" ry="2.5"/>
		<ellipse fill="#AAA" cx="239.26236" cy="170.88586" rx="2.5" ry="2.5"/>
		<ellipse fill="#AAA" cx="239.26236" cy="170.88586" rx="2.5" ry="2.5"/>
		<ellipse fill="#AAA" cx="239.26236" cy="170.88586" rx="2.5" ry="2.5"/>
		<ellipse fill="#AAA" cx="239.26236" cy="160.57083" rx="2.5" ry="2.5"/>
		<ellipse fill="#AAA" cx="250.88683" cy="181.20088" rx="2.5" ry="2.5"/>
		<ellipse fill="#AAA" cx="250.88683" cy="181.20088" rx="2.5" ry="2.5"/>
		<ellipse fill="#AAA" cx="250.88683" cy="181.20088" rx="2.5" ry="2.5"/>
		<ellipse fill="#AAA" cx="250.88683" cy="181.20088" rx="2.5" ry="2.5"/>
		<ellipse fill="#AAA" cx="280.53357" cy="181.20088" rx="2.5" ry="2.5"/>
		<ellipse fill="#AAA" cx="280.53357" cy="170.88586" rx="2.5" ry="2.5"/>
	</g>
	<clipPath id="cl_140">
		<rect x="32.9375" y="15" width="752.0625" height="255.03906"/>
	</clipPath>
	<g clip-path="url(#cl_140)">
		<path fill="none" stroke="#FF5454" stroke-width="1" stroke-miterlimit="4" d="M88.3193 222.461L88.3193 222.461L100.035 201.831L105.297 201.831L105.297 201.831L114.41 212.146L114.41 212.146L114.41 212.146L114.41 212.146L114.41 212.146L114.41 212.146L117.361 201.831L117.361 201.831L117.361 201.831L117.361 201.831L117.361 201.831L117.361 201.831L126.946 212.146L126.946 212.146L127.056 222.461L127.056 222.461L127.056 222.461L127.056 222.461L127.056 222.461L130.912 212.146L130.912 212.146L130.912 212.146L130.912 212.146L130.912 212.146L133.997 222.461L140.365 212.146L140.453 212.146L142.81 235.871L142.81 235.871L142.866 212.146L142.866 212.146L142.866 212.146L142.866 212.146L142.866 212.146L142.866 212.146L142.866 212.146L142.872 206.988L148.099 232.776L148.099 232.776L148.099 232.776L148.099 232.776L148.099 232.776L148.099 232.776L148.099 232.776L148.099 232.776L148.099 232.776L152.946 212.146L170.794 181.201L176.038 181.201L176.038 181.201L176.038 181.201L187.981 181.201L188.037 181.201L188.201 181.201L188.201 181.201L191.837 181.201L191.837 181.201L212.682 181.201L212.682 181.201L212.682 181.201L212.682 181.201L222.134 181.201L246.593 181.201L246.593 181.201L246.593 181.201L246.593 181.201L251.22 181.201L251.22 181.201L251.22 181.201L251.22 181.201L254.856 170.886L277.331 181.201L280.296 170.886L297.162 181.201L301.348 170.886L301.348 160.571L330.213 150.256L330.213 150.256L330.213 150.256L330.213 150.256L330.213 150.256L352.1 160.571L357.019 160.571L392.651 108.996L409.78 108.996L428.767 108.996L440.496 98.6807L461.539 108.996L480.223 88.3656"/>
		<ellipse fill="#FF5454" cx="88.31929" cy="222.461" rx="2.5" ry="2.5"/>
		<ellipse fill="#FF5454" cx="88.31929" cy="222.461" rx="2.5" ry="2.5"/>
		<ellipse fill="#FF5454" cx="100.03487" cy="201.83093" rx="2.5" ry="2.5"/>
		<ellipse fill="#FF5454" cx="105.29684" cy="201.83093" rx="2.5" ry="2.5"/>
		<ellipse fill="#FF5454" cx="105.29684" cy="201.83093" rx="2.5" ry="2.5"/>
		<ellipse fill="#FF5454" cx="114.40971" cy="212.14597" rx="2.5" ry="2.5"/>
		<ellipse fill="#FF5454" cx="114.40971" cy="212.14597" rx="2.5" ry="2.5"/>
		<ellipse fill="#FF5454" cx="114.40971" cy="212.14597" rx="2.5" ry="2.5"/>
		<ellipse fill="#FF5454" cx="114.40971" cy="212.14597" rx="2.5" ry="2.5"/>
		<ellipse fill="#FF5454" cx="114.40971" cy="212.14597" rx="2.5" ry="2.5"/>
		<ellipse fill="#FF5454" cx="114.40971" cy="212.14597" rx="2.5" ry="2.5"/>
		<ellipse fill="#FF5454" cx="117.36069" cy="201.83093" rx="2.5" ry="2.5"/>
		<ellipse fill="#FF5454" cx="117.36069" cy="201.83093" rx="2.5" ry="2.5"/>
		<ellipse fill="#FF5454" cx="117.36069" cy="201.83093" rx="2.5" ry="2.5"/>
		<ellipse fill="#FF5454" cx="117.36069" cy="201.83093" rx="2.5" ry="2.5"/>
		<ellipse fill="#FF5454" cx="117.36069" cy="201.83093" rx="2.5" ry="2.5"/>
		<ellipse fill="#FF5454" cx="117.36069" cy="201.83093" rx="2.5" ry="2.5"/>
		<ellipse fill="#FF5454" cx="126.94568" cy="212.14597" rx="2.5" ry="2.5"/>
		<ellipse fill="#FF5454" cx="126.94568" cy="212.14597" rx="2.5" ry="2.5"/>
		<ellipse fill="#FF5454" cx="127.05585" cy="222.461" rx="2.5" ry="2.5"/>
		<ellipse fill="#FF5454" cx="127.05585" cy="222.461" rx="2.5" ry="2.5"/>
		<ellipse fill="#FF5454" cx="127.05585" cy="222.461" rx="2.5" ry="2.5"/>
		<ellipse fill="#FF5454" cx="127.05585" cy="222.461" rx="2.5" ry="2.5"/>
		<ellipse fill="#FF5454" cx="127.05585" cy="222.461" rx="2.5" ry="2.5"/>
		<ellipse fill="#FF5454" cx="130.91187" cy="212.14597" rx="2.5" ry="2.5"/>
		<ellipse fill="#FF5454" cx="130.91187" cy="212.14597" rx="2.5" ry="2.5"/>
		<ellipse fill="#FF5454" cx="130.91187" cy="212.14597" rx="2.5" ry="2.5"/>
		<ellipse fill="#FF5454" cx="130.91187" cy="212.14597" rx="2.5" ry="2.5"/>
		<ellipse fill="#FF5454" cx="130.91187" cy="212.14597" rx="2.5" ry="2.5"/>
		<ellipse fill="#FF5454" cx="133.9967" cy="222.461" rx="2.5" ry="2.5"/>
		<ellipse fill="#FF5454" cx="140.36465" cy="212.14597" rx="2.5" ry="2.5"/>
		<ellipse fill="#FF5454" cx="140.45279" cy="212.14597" rx="2.5" ry="2.5"/>
		<ellipse fill="#FF5454" cx="142.81049" cy="235.87053" rx="2.5" ry="2.5"/>
		<ellipse fill="#FF5454" cx="142.81049" cy="235.87053" rx="2.5" ry="2.5"/>
		<ellipse fill="#FF5454" cx="142.86557" cy="212.14597" rx="2.5" ry="2.5"/>
		<ellipse fill="#FF5454" cx="142.86557" cy="212.14597" rx="2.5" ry="2.5"/>
		<ellipse fill="#FF5454" cx="142.86557" cy="212.14597" rx="2.5" ry="2.5"/>
		<ellipse fill="#FF5454" cx="142.86557" cy="212.14597" rx="2.5" ry="2.5"/>
		<ellipse fill="#FF5454" cx="142.86557" cy="212.14597" rx="2.5" ry="2.5"/>
		<ellipse fill="#FF5454" cx="142.86557" cy="212.14597" rx="2.5" ry="2.5"/>
		<ellipse fill="#FF5454" cx="142.86557" cy="212.14597" rx="2.5" ry="2.5"/>
		<ellipse fill="#FF5454" cx="142.8725" cy="206.98846" rx="2.5" ry="2.5"/>
		<ellipse fill="#FF5454" cx="148.09874" cy="232.77603" rx="2.5" ry="2.5"/>
		<ellipse fill="#FF5454" cx="148.09874" cy="232.77603" rx="2.5" ry="2.5"/>
		<ellipse fill="#FF5454" cx="148.09874" cy="232.77603" rx="2.5" ry="2.5"/>
		<ellipse fill="#FF5454" cx="148.09874" cy="232.77603" rx="2.5" ry="2.5"/>
		<ellipse fill="#FF5454" cx="148.09874" cy="232.77603" rx="2.5" ry="2.5"/>
		<ellipse fill="#FF5454" cx="148.09874" cy="232.77603" rx="2.5" ry="2.5"/>
		<ellipse fill="#FF5454" cx="148.09874" cy="232.77603" rx="2.5" ry="2.5"/>
		<ellipse fill="#FF5454" cx="148.09874" cy="232.77603" rx="2.5" ry="2.5"/>
		<ellipse fill="#FF5454" cx="148.09874" cy="232.77603" rx="2.5" ry="2.5"/>
		<ellipse fill="#FF5454" cx="152.94632" cy="212.14597" rx="2.5" ry="2.5"/>
		<ellipse fill="#FF5454" cx="170.79422" cy="181.20088" rx="2.5" ry="2.5"/>
		<ellipse fill="#FF5454" cx="176.03842" cy="181.20088" rx="2.5" ry="2.5"/>
		<ellipse fill="#FF5454" cx="176.03842" cy="181.20088" rx="2.5" ry="2.5"/>
		<ellipse fill="#FF5454" cx="176.03842" cy="181.20088" rx="2.5" ry="2.5"/>
		<ellipse fill="#FF5454" cx="187.98108" cy="181.20088" rx="2.5" ry="2.5"/>
		<ellipse fill="#FF5454" cx="188.03661" cy="181.20088" rx="2.5" ry="2.5"/>
		<ellipse fill="#FF5454" cx="188.20143" cy="181.20088" rx="2.5" ry="2.5"/>
		<ellipse fill="#FF5454" cx="188.20143" cy="181.20088" rx="2.5" ry="2.5"/>
		<ellipse fill="#FF5454" cx="191.83711" cy="181.20088" rx="2.5" ry="2.5"/>
		<ellipse fill="#FF5454" cx="191.83711" cy="181.20088" rx="2.5" ry="2.5"/>
		<ellipse fill="#FF5454" cx="212.6817" cy="181.20088" rx="2.5" ry="2.5"/>
		<ellipse fill="#FF5454" cx="212.6817" cy="181.20088" rx="2.5" ry="2.5"/>
		<ellipse fill="#FF5454" cx="212.6817" cy="181.20088" rx="2.5" ry="2.5"/>
		<ellipse fill="#FF5454" cx="212.6817" cy="181.20088" rx="2.5" ry="2.5"/>
		<ellipse fill="#FF5454" cx="222.13448" cy="181.20088" rx="2.5" ry="2.5"/>
		<ellipse fill="#FF5454" cx="246.59271" cy="181.20088" rx="2.5" ry="2.5"/>
		<ellipse fill="#FF5454" cx="246.59271" cy="181.20088" rx="2.5" ry="2.5"/>
		<ellipse fill="#FF5454" cx="246.59271" cy="181.20088" rx="2.5" ry="2.5"/>
		<ellipse fill="#FF5454" cx="246.59271" cy="181.20088" rx="2.5" ry="2.5"/>
		<ellipse fill="#FF5454" cx="251.21994" cy="181.20088" rx="2.5" ry="2.5"/>
		<ellipse fill="#FF5454" cx="251.21994" cy="181.20088" rx="2.5" ry="2.5"/>
		<ellipse fill="#FF5454" cx="251.21994" cy="181.20088" rx="2.5" ry="2.5"/>
		<ellipse fill="#FF5454" cx="251.21994" cy="181.20088" rx="2.5" ry="2.5"/>
		<ellipse fill="#FF5454" cx="254.85562" cy="170.88586" rx="2.5" ry="2.5"/>
		<ellipse fill="#FF5454" cx="277.33075" cy="181.20088" rx="2.5" ry="2.5"/>
		<ellipse fill="#FF5454" cx="280.29639" cy="170.88586" rx="2.5" ry="2.5"/>
		<ellipse fill="#FF5454" cx="297.16177" cy="181.20088" rx="2.5" ry="2.5"/>
		<ellipse fill="#FF5454" cx="301.3483" cy="170.88586" rx="2.5" ry="2.5"/>
		<ellipse fill="#FF5454" cx="301.3483" cy="160.57083" rx="2.5" ry="2.5"/>
		<ellipse fill="#FF5454" cx="330.21344" cy="150.2558" rx="2.5" ry="2.5"/>
		<ellipse fill="#FF5454" cx="330.21344" cy="150.2558" rx="2.5" ry="2.5"/>
		<ellipse fill="#FF5454" cx="330.21344" cy="150.2558" rx="2.5" ry="2.5"/>
		<ellipse fill="#FF5454" cx="330.21344" cy="150.2558" rx="2.5" ry="2.5"/>
		<ellipse fill="#FF5454" cx="330.21344" cy="150.2558" rx="2.5" ry="2.5"/>
		<ellipse fill="#FF5454" cx="352.09964" cy="160.57083" rx="2.5" ry="2.5"/>
		<ellipse fill="#FF5454" cx="357.01865" cy="160.57083" rx="2.5" ry="2.5"/>
		<ellipse fill="#FF5454" cx="392.65057" cy="108.9957" rx="2.5" ry="2.5"/>
		<ellipse fill="#FF5454" cx="409.78018" cy="108.9957" rx="2.5" ry="2.5"/>
		<ellipse fill="#FF5454" cx="428.76724" cy="108.9957" rx="2.5" ry="2.5"/>
		<ellipse fill="#FF5454" cx="440.49582" cy="98.680664" rx="2.5" ry="2.5"/>
		<ellipse fill="#FF5454" cx="461.53873" cy="108.9957" rx="2.5" ry="2.5"/>
		<ellipse fill="#FF5454" cx="480.22278" cy="88.365631" rx="2.5" ry="2.5"/>
	</g>
	<clipPath id="cl_141">
		<rect x="32.9375" y="15" width="752.0625" height="255.03906"/>
	</clipPath>
	<g clip-path="url(#cl_141)">
		<path fill="none" stroke="#303030" stroke-width="1" stroke-miterlimit="4" d="M368.414 78.0506L368.414 78.0506L479.091 88.3656L493.708 88.3656"/>
		<ellipse fill="#303030" cx="368.414" cy="78.050613" rx="2.5" ry="2.5"/>
		<ellipse fill="#303030" cx="368.414" cy="78.050613" rx="2.5" ry="2.5"/>
		<ellipse fill="#303030" cx="479.09143" cy="88.365631" rx="2.5" ry="2.5"/>
		<ellipse fill="#303030" cx="493.7081" cy="88.365631" rx="2.5" ry="2.5"/>
	</g>
	<clipPath id="cl_142">
		<rect x="32.9375" y="15" width="752.0625" height="255.03906"/>
	</clipPath>
	<g clip-path="url(#cl_142)">
		<path fill="none" stroke="blue" stroke-width="1" stroke-miterlimit="4" d="M85.9694 212.146L86.9367 222.461L93.2625 222.461L94.9433 212.146L97.9036 212.146L98.4132 222.461L99.3133 222.461L99.541 212.146L100.788 222.461L103.456 212.146L105.971 222.461L122.881 212.146L122.881 212.146L122.881 212.146L122.881 212.146L132.408 212.146L174.525 201.831L174.525 201.831L174.525 201.831L174.525 201.831L174.525 201.831L174.525 201.831L223.062 191.516L225.719 181.201L225.719 181.201L225.719 181.201L225.719 181.201L230.717 191.516L230.717 191.516L293.947 98.6807L313.962 98.6807L432.148 67.7356L432.148 67.7356"/>
		<ellipse fill="blue" cx="85.96936" cy="212.14597" rx="2.5" ry="2.5"/>
		<ellipse fill="blue" cx="86.936699" cy="222.461" rx="2.5" ry="2.5"/>
		<ellipse fill="blue" cx="93.262466" cy="222.461" rx="2.5" ry="2.5"/>
		<ellipse fill="blue" cx="94.943253" cy="212.14597" rx="2.5" ry="2.5"/>
		<ellipse fill="blue" cx="97.903587" cy="212.14597" rx="2.5" ry="2.5"/>
		<ellipse fill="blue" cx="98.413239" cy="222.461" rx="2.5" ry="2.5"/>
		<ellipse fill="blue" cx="99.313271" cy="222.461" rx="2.5" ry="2.5"/>
		<ellipse fill="blue" cx="99.540985" cy="212.14597" rx="2.5" ry="2.5"/>
		<ellipse fill="blue" cx="100.78802" cy="222.461" rx="2.5" ry="2.5"/>
		<ellipse fill="blue" cx="103.45557" cy="212.14597" rx="2.5" ry="2.5"/>
		<ellipse fill="blue" cx="105.97131" cy="222.461" rx="2.5" ry="2.5"/>
		<ellipse fill="blue" cx="122.88078" cy="212.14597" rx="2.5" ry="2.5"/>
		<ellipse fill="blue" cx="122.88078" cy="212.14597" rx="2.5" ry="2.5"/>
		<ellipse fill="blue" cx="122.88078" cy="212.14597" rx="2.5" ry="2.5"/>
		<ellipse fill="blue" cx="122.88078" cy="212.14597" rx="2.5" ry="2.5"/>
		<ellipse fill="blue" cx="132.40831" cy="212.14597" rx="2.5" ry="2.5"/>
		<ellipse fill="blue" cx="174.52533" cy="201.83093" rx="2.5" ry="2.5"/>
		<ellipse fill="blue" cx="174.52533" cy="201.83093" rx="2.5" ry="2.5"/>
		<ellipse fill="blue" cx="174.52533" cy="201.83093" rx="2.5" ry="2.5"/>
		<ellipse fill="blue" cx="174.52533" cy="201.83093" rx="2.5" ry="2.5"/>
		<ellipse fill="blue" cx="174.52533" cy="201.83093" rx="2.5" ry="2.5"/>
		<ellipse fill="blue" cx="174.52533" cy="201.83093" rx="2.5" ry="2.5"/>
		<ellipse fill="blue" cx="223.06183" cy="191.51591" rx="2.5" ry="2.5"/>
		<ellipse fill="blue" cx="225.71854" cy="181.20088" rx="2.5" ry="2.5"/>
		<ellipse fill="blue" cx="225.71854" cy="181.20088" rx="2.5" ry="2.5"/>
		<ellipse fill="blue" cx="225.71854" cy="181.20088" rx="2.5" ry="2.5"/>
		<ellipse fill="blue" cx="225.71854" cy="181.20088" rx="2.5" ry="2.5"/>
		<ellipse fill="blue" cx="230.7175" cy="191.51591" rx="2.5" ry="2.5"/>
		<ellipse fill="blue" cx="230.7175" cy="191.51591" rx="2.5" ry="2.5"/>
		<ellipse fill="blue" cx="293.94696" cy="98.680664" rx="2.5" ry="2.5"/>
		<ellipse fill="blue" cx="313.96204" cy="98.680664" rx="2.5" ry="2.5"/>
		<ellipse fill="blue" cx="432.14758" cy="67.73558" rx="2.5" ry="2.5"/>
		<ellipse fill="blue" cx="432.14758" cy="67.73558" rx="2.5" ry="2.5"/>
	</g>
	<clipPath id="cl_143">
		<rect x="32.9375" y="15" width="752.0625" height="255.03906"/>
	</clipPath>
	<g clip-path="url(#cl_143)">
		<path fill="none" stroke="#6060FF" stroke-width="1" stroke-miterlimit="4" d="M84.5073 243.091L84.5073 243.091L84.6841 232.776L84.6841 222.461L96.8687 232.776L98.5763 232.776L98.5763 232.776L98.5763 232.776L107.357 212.146L108.109 243.091L111.334 212.146L112.131 222.461L112.689 212.146L114.397 222.461L135.848 201.831L135.848 201.831L135.848 201.831L135.848 201.831L135.848 201.831L147.438 212.146L147.438 212.146L147.438 212.146L147.438 212.146L147.438 212.146L147.438 212.146L147.438 212.146L195.693 181.201L195.693 181.201L207.826 181.201L211.613 181.201L257.61 191.516L257.61 191.516L269.365 191.516L274.136 191.516L297.179 181.201L304.156 181.201L323.713 181.201L323.713 181.201L323.713 181.201L327.018 181.201L327.018 181.201L330.324 181.201L330.568 181.201L330.568 181.201L331.348 181.201L359.294 181.201L437.059 108.996L437.059 108.996L476.593 119.311L476.593 119.311L476.593 119.311L476.593 119.311L555.597 67.7356L558.906 67.7356L605.093 57.4205L632.195 57.4205"/>
		<ellipse fill="#6060FF" cx="84.507339" cy="243.09105" rx="2.5" ry="2.5"/>
		<ellipse fill="#6060FF" cx="84.507339" cy="243.09105" rx="2.5" ry="2.5"/>
		<ellipse fill="#6060FF" cx="84.684128" cy="232.77603" rx="2.5" ry="2.5"/>
		<ellipse fill="#6060FF" cx="84.684128" cy="222.461" rx="2.5" ry="2.5"/>
		<ellipse fill="#6060FF" cx="96.86866" cy="232.77603" rx="2.5" ry="2.5"/>
		<ellipse fill="#6060FF" cx="98.576332" cy="232.77603" rx="2.5" ry="2.5"/>
		<ellipse fill="#6060FF" cx="98.576332" cy="232.77603" rx="2.5" ry="2.5"/>
		<ellipse fill="#6060FF" cx="98.576332" cy="232.77603" rx="2.5" ry="2.5"/>
		<ellipse fill="#6060FF" cx="107.35706" cy="212.14597" rx="2.5" ry="2.5"/>
		<ellipse fill="#6060FF" cx="108.10912" cy="243.09105" rx="2.5" ry="2.5"/>
		<ellipse fill="#6060FF" cx="111.33427" cy="212.14597" rx="2.5" ry="2.5"/>
		<ellipse fill="#6060FF" cx="112.13055" cy="222.461" rx="2.5" ry="2.5"/>
		<ellipse fill="#6060FF" cx="112.68939" cy="212.14597" rx="2.5" ry="2.5"/>
		<ellipse fill="#6060FF" cx="114.39689" cy="222.461" rx="2.5" ry="2.5"/>
		<ellipse fill="#6060FF" cx="135.8476" cy="201.83093" rx="2.5" ry="2.5"/>
		<ellipse fill="#6060FF" cx="135.8476" cy="201.83093" rx="2.5" ry="2.5"/>
		<ellipse fill="#6060FF" cx="135.8476" cy="201.83093" rx="2.5" ry="2.5"/>
		<ellipse fill="#6060FF" cx="135.8476" cy="201.83093" rx="2.5" ry="2.5"/>
		<ellipse fill="#6060FF" cx="135.8476" cy="201.83093" rx="2.5" ry="2.5"/>
		<ellipse fill="#6060FF" cx="147.43771" cy="212.14597" rx="2.5" ry="2.5"/>
		<ellipse fill="#6060FF" cx="147.43771" cy="212.14597" rx="2.5" ry="2.5"/>
		<ellipse fill="#6060FF" cx="147.43771" cy="212.14597" rx="2.5" ry="2.5"/>
		<ellipse fill="#6060FF" cx="147.43771" cy="212.14597" rx="2.5" ry="2.5"/>
		<ellipse fill="#6060FF" cx="147.43771" cy="212.14597" rx="2.5" ry="2.5"/>
		<ellipse fill="#6060FF" cx="147.43771" cy="212.14597" rx="2.5" ry="2.5"/>
		<ellipse fill="#6060FF" cx="147.43771" cy="212.14597" rx="2.5" ry="2.5"/>
		<ellipse fill="#6060FF" cx="195.69315" cy="181.20088" rx="2.5" ry="2.5"/>
		<ellipse fill="#6060FF" cx="195.69315" cy="181.20088" rx="2.5" ry="2.5"/>
		<ellipse fill="#6060FF" cx="207.8264" cy="181.20088" rx="2.5" ry="2.5"/>
		<ellipse fill="#6060FF" cx="211.61302" cy="181.20088" rx="2.5" ry="2.5"/>
		<ellipse fill="#6060FF" cx="257.60992" cy="191.51591" rx="2.5" ry="2.5"/>
		<ellipse fill="#6060FF" cx="257.60992" cy="191.51591" rx="2.5" ry="2.5"/>
		<ellipse fill="#6060FF" cx="269.36453" cy="191.51591" rx="2.5" ry="2.5"/>
		<ellipse fill="#6060FF" cx="274.13574" cy="191.51591" rx="2.5" ry="2.5"/>
		<ellipse fill="#6060FF" cx="297.17932" cy="181.20088" rx="2.5" ry="2.5"/>
		<ellipse fill="#6060FF" cx="304.15585" cy="181.20088" rx="2.5" ry="2.5"/>
		<ellipse fill="#6060FF" cx="323.71326" cy="181.20088" rx="2.5" ry="2.5"/>
		<ellipse fill="#6060FF" cx="323.71326" cy="181.20088" rx="2.5" ry="2.5"/>
		<ellipse fill="#6060FF" cx="323.71326" cy="181.20088" rx="2.5" ry="2.5"/>
		<ellipse fill="#6060FF" cx="327.01843" cy="181.20088" rx="2.5" ry="2.5"/>
		<ellipse fill="#6060FF" cx="327.01843" cy="181.20088" rx="2.5" ry="2.5"/>
		<ellipse fill="#6060FF" cx="330.32361" cy="181.20088" rx="2.5" ry="2.5"/>
		<ellipse fill="#6060FF" cx="330.56808" cy="181.20088" rx="2.5" ry="2.5"/>
		<ellipse fill="#6060FF" cx="330.56808" cy="181.20088" rx="2.5" ry="2.5"/>
		<ellipse fill="#6060FF" cx="331.34821" cy="181.20088" rx="2.5" ry="2.5"/>
		<ellipse fill="#6060FF" cx="359.29391" cy="181.20088" rx="2.5" ry="2.5"/>
		<ellipse fill="#6060FF" cx="437.05872" cy="108.9957" rx="2.5" ry="2.5"/>
		<ellipse fill="#6060FF" cx="437.05872" cy="108.9957" rx="2.5" ry="2.5"/>
		<ellipse fill="#6060FF" cx="476.59338" cy="119.31071" rx="2.5" ry="2.5"/>
		<ellipse fill="#6060FF" cx="476.59338" cy="119.31071" rx="2.5" ry="2.5"/>
		<ellipse fill="#6060FF" cx="476.59338" cy="119.31071" rx="2.5" ry="2.5"/>
		<ellipse fill="#6060FF" cx="476.59338" cy="119.31071" rx="2.5" ry="2.5"/>
		<ellipse fill="#6060FF" cx="555.59674" cy="67.73558" rx="2.5" ry="2.5"/>
		<ellipse fill="#6060FF" cx="558.90625" cy="67.73558" rx="2.5" ry="2.5"/>
		<ellipse fill="#6060FF" cx="605.09314" cy="57.420547" rx="2.5" ry="2.5"/>
		<ellipse fill="#6060FF" cx="632.1955" cy="57.420547" rx="2.5" ry="2.5"/>
	</g>
	<clipPath id="cl_144">
		<rect x="32.9375" y="15" width="752.0625" height="255.03906"/>
	</clipPath>
	<g clip-path="url(#cl_144)">
		<path fill="none" stroke="yellow" stroke-width="1" stroke-miterlimit="4" d="M67.5408 201.831L68.3671 201.831L68.3671 201.831L86.5345 191.516L86.5345 191.516L86.5345 191.516L130.912 191.516L130.912 191.516L131 191.516L188.037 191.516L206.352 191.516L206.352 191.516L214.871 191.516"/>
		<ellipse fill="yellow" cx="67.540817" cy="201.83093" rx="2.5" ry="2.5"/>
		<ellipse fill="yellow" cx="68.367104" cy="201.83093" rx="2.5" ry="2.5"/>
		<ellipse fill="yellow" cx="68.367104" cy="201.83093" rx="2.5" ry="2.5"/>
		<ellipse fill="yellow" cx="86.5345" cy="191.51591" rx="2.5" ry="2.5"/>
		<ellipse fill="yellow" cx="86.5345" cy="191.51591" rx="2.5" ry="2.5"/>
		<ellipse fill="yellow" cx="86.5345" cy="191.51591" rx="2.5" ry="2.5"/>
		<ellipse fill="yellow" cx="130.91187" cy="191.51591" rx="2.5" ry="2.5"/>
		<ellipse fill="yellow" cx="130.91187" cy="191.51591" rx="2.5" ry="2.5"/>
		<ellipse fill="yellow" cx="131.00002" cy="191.51591" rx="2.5" ry="2.5"/>
		<ellipse fill="yellow" cx="188.03661" cy="191.51591" rx="2.5" ry="2.5"/>
		<ellipse fill="yellow" cx="206.35165" cy="191.51591" rx="2.5" ry="2.5"/>
		<ellipse fill="yellow" cx="206.35165" cy="191.51591" rx="2.5" ry="2.5"/>
		<ellipse fill="yellow" cx="214.87077" cy="191.51591" rx="2.5" ry="2.5"/>
	</g>
	<clipPath id="cl_145">
		<rect x="32.9375" y="15" width="752.0625" height="255.03906"/>
	</clipPath>
	<g clip-path="url(#cl_145)">
		<path fill="none" stroke="#FFB600" stroke-width="1" stroke-miterlimit="4" d="M141.409 201.831L141.409 201.831L141.409 201.831"/>
		<ellipse fill="#FFB600" cx="141.4086" cy="201.83093" rx="2.5" ry="2.5"/>
		<ellipse fill="#FFB600" cx="141.4086" cy="201.83093" rx="2.5" ry="2.5"/>
		<ellipse fill="#FFB600" cx="141.4086" cy="201.83093" rx="2.5" ry="2.5"/>
	</g>
	<clipPath id="cl_146">
		<rect x="32.9375" y="15" width="752.0625" height="255.03906"/>
	</clipPath>
	<g clip-path="url(#cl_146)">
		<path fill="none" stroke="#FFBFBF" stroke-width="1" stroke-miterlimit="4" d="M105.903 212.146L105.903 212.146L128.841 212.146L134.768 212.146L137.963 212.146L138.624 212.146L146.887 212.146L151.657 212.146L184.588 212.146L192.608 191.516L207.404 181.201L211.701 181.201L334.085 170.886L334.134 160.571L342.178 160.571L342.178 160.571L369.71 129.626L369.71 129.626L676.297 119.311L750.815 114.153"/>
		<ellipse fill="#FFBFBF" cx="105.90278" cy="212.14597" rx="2.5" ry="2.5"/>
		<ellipse fill="#FFBFBF" cx="105.90278" cy="212.14597" rx="2.5" ry="2.5"/>
		<ellipse fill="#FFBFBF" cx="128.84064" cy="212.14597" rx="2.5" ry="2.5"/>
		<ellipse fill="#FFBFBF" cx="134.76791" cy="212.14597" rx="2.5" ry="2.5"/>
		<ellipse fill="#FFBFBF" cx="137.96289" cy="212.14597" rx="2.5" ry="2.5"/>
		<ellipse fill="#FFBFBF" cx="138.62393" cy="212.14597" rx="2.5" ry="2.5"/>
		<ellipse fill="#FFBFBF" cx="146.88684" cy="212.14597" rx="2.5" ry="2.5"/>
		<ellipse fill="#FFBFBF" cx="151.6573" cy="212.14597" rx="2.5" ry="2.5"/>
		<ellipse fill="#FFBFBF" cx="184.58778" cy="212.14597" rx="2.5" ry="2.5"/>
		<ellipse fill="#FFBFBF" cx="192.60832" cy="191.51591" rx="2.5" ry="2.5"/>
		<ellipse fill="#FFBFBF" cx="207.40445" cy="181.20088" rx="2.5" ry="2.5"/>
		<ellipse fill="#FFBFBF" cx="211.70117" cy="181.20088" rx="2.5" ry="2.5"/>
		<ellipse fill="#FFBFBF" cx="334.08453" cy="170.88586" rx="2.5" ry="2.5"/>
		<ellipse fill="#FFBFBF" cx="334.13403" cy="160.57083" rx="2.5" ry="2.5"/>
		<ellipse fill="#FFBFBF" cx="342.17807" cy="160.57083" rx="2.5" ry="2.5"/>
		<ellipse fill="#FFBFBF" cx="342.17807" cy="160.57083" rx="2.5" ry="2.5"/>
		<ellipse fill="#FFBFBF" cx="369.71002" cy="129.62575" rx="2.5" ry="2.5"/>
		<ellipse fill="#FFBFBF" cx="369.71002" cy="129.62575" rx="2.5" ry="2.5"/>
		<ellipse fill="#FFBFBF" cx="676.29688" cy="119.31071" rx="2.5" ry="2.5"/>
		<ellipse fill="#FFBFBF" cx="750.81537" cy="114.1532" rx="2.5" ry="2.5"/>
	</g>
	<clipPath id="cl_147">
		<rect x="32.9375" y="15" width="752.0625" height="255.03906"/>
	</clipPath>
	<g clip-path="url(#cl_147)">
		<path fill="none" stroke="#AB4E00" stroke-width="1" stroke-miterlimit="4" d="M180.24 181.201L203.872 176.043"/>
		<ellipse fill="#AB4E00" cx="180.23997" cy="181.20088" rx="2.5" ry="2.5"/>
		<ellipse fill="#AB4E00" cx="203.87172" cy="176.04337" rx="2.5" ry="2.5"/>
	</g>
	<clipPath id="cl_148">
		<rect x="32.9375" y="15" width="752.0625" height="255.03906"/>
	</clipPath>
	<g clip-path="url(#cl_148)">
		<path fill="none" stroke="#AAF" stroke-width="1" stroke-miterlimit="4" d="M311.487 170.886L311.487 170.886"/>
		<ellipse fill="#AAF" cx="311.48697" cy="170.88586" rx="2.5" ry="2.5"/>
		<ellipse fill="#AAF" cx="311.48697" cy="170.88586" rx="2.5" ry="2.5"/>
	</g>
	<clipPath id="cl_149">
		<rect x="32.9375" y="15" width="752.0625" height="255.03906"/>
	</clipPath>
	<g clip-path="url(#cl_149)">
		<path fill="#FF5454" d="M161.253 139.441L161.686 139.441L162.955 139.441L171.253 139.441L171.253 140.441L162.955 140.441L161.686 140.441L161.253 140.441L161.253 139.441ZM175.167 133.694L176.195 123.747L177.189 123.85L176.162 133.797L175.167 133.694ZM177.222 113.8L178.25 103.853L179.245 103.956L178.217 113.903L177.222 113.8ZM179.278 93.9057L180.306 83.9587L181.3 84.0615L180.273 94.0085L179.278 93.9057ZM181.333 74.0116L182.034 67.2356L182.506 67.2356L186.123 67.2356L186.123 68.2356L182.506 68.2356L182.485 68.2356L182.485 67.7356L182.982 67.787L182.328 74.1144L181.333 74.0116ZM196.123 67.2356L206.123 67.2356L206.123 68.2356L196.123 68.2356L196.123 67.2356ZM216.123 67.2356L219.691 67.2356L224.524 72.0872L223.815 72.7929L219.129 68.0884L219.483 67.7356L219.483 68.2356L216.123 68.2356L216.123 67.2356ZM231.581 79.1722L238.638 86.2572L237.929 86.9629L230.872 79.8779L231.581 79.1722ZM245.695 93.3422L252.752 100.427L252.044 101.133L244.986 94.0479L245.695 93.3422ZM259.809 107.512L260.935 108.643L260.581 108.996L260.581 108.496L266.111 108.496L266.111 108.996L265.611 108.996L265.611 106.122L266.611 106.122L266.611 109.496L260.373 109.496L259.101 108.218L259.809 107.512ZM265.611 96.1218L265.611 86.1218L266.611 86.1218L266.611 96.1218L265.611 96.1218ZM265.611 76.1218L265.611 72.3931L270.781 72.3931L271.853 74.9428L270.931 75.3304L269.988 73.0869L270.449 72.8931L270.449 73.3931L266.111 73.3931L266.111 72.8931L266.611 72.8931L266.611 76.1218L265.611 76.1218ZM275.729 84.161L279.606 93.3792L278.684 93.7668L274.808 84.5486L275.729 84.161ZM283.482 102.597L286.091 108.802L285.63 108.996L285.531 108.506L288.736 107.858L288.934 108.838L285.328 109.567L282.56 102.985L283.482 102.597ZM298.538 105.878L308.34 103.898L308.538 104.878L298.736 106.858L298.538 105.878ZM318.141 101.917L327.943 99.937L328.141 100.917L318.34 102.898L318.141 101.917ZM337.745 97.9568L347.547 95.9765L347.745 96.9567L337.943 98.937L337.745 97.9568ZM357.349 93.9962L367.151 92.0159L367.349 92.9961L357.547 94.9764L357.349 93.9962ZM376.953 90.0356L386.755 88.0553L386.953 89.0355L377.151 91.0158L376.953 90.0356ZM396.557 86.075L406.359 84.0947L406.557 85.0749L396.755 87.0552L396.557 86.075ZM416.161 82.1145L425.963 80.1342L426.161 81.1144L416.359 83.0947L416.161 82.1145ZM435.765 78.1539L438.751 77.5506L445.805 77.5506L445.805 78.5506L438.801 78.5506L438.801 78.0506L438.9 78.5407L435.963 79.1341L435.765 78.1539ZM455.805 77.5506L465.805 77.5506L465.805 78.5506L455.805 78.5506L455.805 77.5506ZM475.805 77.5506L485.805 77.5506L485.805 78.5506L475.805 78.5506L475.805 77.5506ZM495.805 77.5506L504.673 77.5506L504.673 78.5506L495.805 78.5506L495.805 77.5506Z"/>
		<ellipse fill="#FF5454" cx="161.25261" cy="139.94078" rx="2.5" ry="2.5"/>
		<ellipse fill="#FF5454" cx="161.68636" cy="139.94078" rx="2.5" ry="2.5"/>
		<ellipse fill="#FF5454" cx="162.95508" cy="139.94078" rx="2.5" ry="2.5"/>
		<ellipse fill="#FF5454" cx="175.02414" cy="139.94078" rx="2.5" ry="2.5"/>
		<ellipse fill="#FF5454" cx="175.02414" cy="139.94078" rx="2.5" ry="2.5"/>
		<ellipse fill="#FF5454" cx="182.48462" cy="67.73558" rx="2.5" ry="2.5"/>
		<ellipse fill="#FF5454" cx="182.5063" cy="67.73558" rx="2.5" ry="2.5"/>
		<ellipse fill="#FF5454" cx="219.4834" cy="67.73558" rx="2.5" ry="2.5"/>
		<ellipse fill="#FF5454" cx="260.58112" cy="108.9957" rx="2.5" ry="2.5"/>
		<ellipse fill="#FF5454" cx="260.58112" cy="108.9957" rx="2.5" ry="2.5"/>
		<ellipse fill="#FF5454" cx="266.11139" cy="108.9957" rx="2.5" ry="2.5"/>
		<ellipse fill="#FF5454" cx="266.11139" cy="72.893097" rx="2.5" ry="2.5"/>
		<ellipse fill="#FF5454" cx="270.44891" cy="72.893097" rx="2.5" ry="2.5"/>
		<ellipse fill="#FF5454" cx="285.63013" cy="108.9957" rx="2.5" ry="2.5"/>
		<ellipse fill="#FF5454" cx="438.80103" cy="78.050613" rx="2.5" ry="2.5"/>
		<ellipse fill="#FF5454" cx="504.67331" cy="78.050613" rx="2.5" ry="2.5"/>
	</g>
	<clipPath id="cl_14a">
		<rect x="32.9375" y="15" width="752.0625" height="255.03906"/>
	</clipPath>
	<g clip-path="url(#cl_14a)">
		<path fill="#AAA" d="M181.172 111.076L191.151 110.418L191.216 111.416L181.238 112.073L181.172 111.076ZM201.129 109.761L211.107 109.103L211.173 110.101L201.195 110.758L201.129 109.761ZM219.84 108.216L219.84 104.294L226.998 105.31L226.858 106.301L220.27 105.365L220.34 104.87L220.84 104.87L220.84 108.216L219.84 108.216ZM236.899 106.717L242.42 107.501L245.083 111.587L244.245 112.133L241.706 108.237L242.125 107.964L242.055 108.459L236.758 107.707L236.899 106.717ZM250.544 119.965L256.004 128.342L255.166 128.888L249.706 120.511L250.544 119.965ZM259.54 132.099L260.669 125.249L263.109 122.996L263.391 122.903L263.703 123.853L263.524 123.912L263.368 123.437L263.707 123.804L261.473 125.867L261.134 125.5L261.628 125.581L260.527 132.262L259.54 132.099ZM272.891 119.781L282.391 116.66L282.704 117.61L273.203 120.731L272.891 119.781ZM291.892 113.538L301.392 110.416L301.704 111.366L292.204 114.488L291.892 113.538ZM311.241 109.523L320.904 112.097L320.647 113.063L310.984 110.49L311.241 109.523ZM330.567 114.671L334.556 115.733L334.298 116.699L330.31 115.637L330.567 114.671Z"/>
		<ellipse fill="#AAA" cx="181.20506" cy="111.57445" rx="2.5" ry="2.5"/>
		<ellipse fill="#AAA" cx="220.34006" cy="108.9957" rx="2.5" ry="2.5"/>
		<ellipse fill="#AAA" cx="220.34006" cy="104.86967" rx="2.5" ry="2.5"/>
		<ellipse fill="#AAA" cx="242.12509" cy="107.96419" rx="2.5" ry="2.5"/>
		<ellipse fill="#AAA" cx="259.60516" cy="134.78326" rx="2.5" ry="2.5"/>
		<ellipse fill="#AAA" cx="261.13416" cy="125.49974" rx="2.5" ry="2.5"/>
		<ellipse fill="#AAA" cx="263.36795" cy="123.43674" rx="2.5" ry="2.5"/>
		<ellipse fill="#AAA" cx="307.31757" cy="108.9957" rx="2.5" ry="2.5"/>
		<ellipse fill="#AAA" cx="334.42685" cy="116.21622" rx="2.5" ry="2.5"/>
	</g>
	<clipPath id="cl_14b">
		<rect x="32.9375" y="15" width="752.0625" height="255.03906"/>
	</clipPath>
	<g clip-path="url(#cl_14b)">
		<path fill="#303030" d=""/>
		<ellipse fill="#303030" cx="328.83206" cy="36.790497" rx="2.5" ry="2.5"/>
	</g>
	<clipPath id="cl_14c">
		<rect x="32.9375" y="15" width="752.0625" height="255.03906"/>
	</clipPath>
	<g clip-path="url(#cl_14c)">
		<path fill="#FF9300" d=""/>
		<ellipse fill="#FF9300" cx="274.65625" cy="47.10553" rx="2.5" ry="2.5"/>
	</g>
	<clipPath id="cl_14d">
		<rect x="32.9375" y="15" width="752.0625" height="255.03906"/>
	</clipPath>
	<g clip-path="url(#cl_14d)">
		<path fill="#FF5454" d=""/>
		<ellipse fill="#FF5454" cx="175.02414" cy="139.94078" rx="2.5" ry="2.5"/>
	</g>
	<clipPath id="cl_14e">
		<rect x="32.9375" y="15" width="752.0625" height="255.03906"/>
	</clipPath>
	<g clip-path="url(#cl_14e)">
		<path fill="#FFBFBF" d="M267.607 129.626L267.607 119.626L268.607 119.626L268.607 129.626L267.607 129.626ZM272.366 112.538L282.048 110.039L282.298 111.008L272.615 113.506L272.366 112.538ZM291.731 107.541L301.414 105.042L301.664 106.01L291.981 108.509L291.731 107.541ZM311.097 102.544L320.78 100.045L321.03 101.013L311.347 103.512L311.097 102.544ZM330.463 97.5464L340.145 95.0478L340.395 96.0161L330.712 98.5147L330.463 97.5464ZM349.828 92.5493L359.511 90.0507L359.761 91.019L350.078 93.5176L349.828 92.5493ZM369.361 87.8656L379.361 87.8656L379.361 88.8656L369.361 88.8656L369.361 87.8656ZM389.361 87.8656L399.361 87.8656L399.361 88.8656L389.361 88.8656L389.361 87.8656ZM409.361 87.8656L418.108 87.8656L418.108 88.8656L409.361 88.8656L409.361 87.8656Z"/>
		<ellipse fill="#FFBFBF" cx="268.10666" cy="129.62575" rx="2.5" ry="2.5"/>
		<ellipse fill="#FFBFBF" cx="268.10666" cy="114.1532" rx="2.5" ry="2.5"/>
		<ellipse fill="#FFBFBF" cx="268.10666" cy="114.1532" rx="2.5" ry="2.5"/>
		<ellipse fill="#FFBFBF" cx="268.10666" cy="114.1532" rx="2.5" ry="2.5"/>
		<ellipse fill="#FFBFBF" cx="368.04239" cy="88.365631" rx="2.5" ry="2.5"/>
		<ellipse fill="#FFBFBF" cx="368.04239" cy="88.365631" rx="2.5" ry="2.5"/>
		<ellipse fill="#FFBFBF" cx="368.04239" cy="88.365631" rx="2.5" ry="2.5"/>
		<ellipse fill="#FFBFBF" cx="368.04239" cy="88.365631" rx="2.5" ry="2.5"/>
		<ellipse fill="#FFBFBF" cx="418.10788" cy="88.365631" rx="2.5" ry="2.5"/>
	</g>
	<clipPath id="cl_14f">
		<rect x="32.9375" y="15" width="752.0625" height="255.03906"/>
	</clipPath>
	<g clip-path="url(#cl_14f)">
		<path fill="#AFA" d=""/>
		<ellipse fill="#AFA" cx="329.24356" cy="124.46823" rx="2.5" ry="2.5"/>
	</g>
	<clipPath id="cl_150">
		<rect x="32.9375" y="15" width="752.0625" height="255.03906"/>
	</clipPath>
	<g clip-path="url(#cl_150)">
		<path fill="#C00000" d="M416.095 31.2683L423.388 38.1095L422.704 38.8389L415.41 31.9977M430.682 44.9507L437.976 51.7919L437.292 52.5213L429.998 45.6801M445.269 58.6331L452.563 65.4743L451.879 66.2036L444.585 59.3624"/>
		<ellipse fill="#C00000" cx="415.75253" cy="31.63298" rx="2.5" ry="2.5"/>
		<ellipse fill="#C00000" cx="454.2431" cy="67.73558" rx="2.5" ry="2.5"/>
	</g>
	<clipPath id="cl_151">
		<rect x="32.9375" y="15" width="752.0625" height="255.03906"/>
	</clipPath>
	<g clip-path="url(#cl_151)">
		<path fill="#6060FF" d="M367.58 56.9205L377.58 56.9205L377.58 57.9205L367.58 57.9205L367.58 56.9205ZM387.58 56.9205L397.58 56.9205L397.58 57.9205L387.58 57.9205L387.58 56.9205ZM407.58 56.9205L417.58 56.9205L417.58 57.9205L407.58 57.9205L407.58 56.9205ZM427.58 56.9205L437.58 56.9205L437.58 57.9205L427.58 57.9205L427.58 56.9205ZM447.58 56.9205L450.455 56.9205L450.455 57.9205L447.58 57.9205L447.58 56.9205Z"/>
		<ellipse fill="#6060FF" cx="367.58038" cy="57.420547" rx="2.5" ry="2.5"/>
		<ellipse fill="#6060FF" cx="367.58038" cy="57.420547" rx="2.5" ry="2.5"/>
		<ellipse fill="#6060FF" cx="367.58038" cy="57.420547" rx="2.5" ry="2.5"/>
		<ellipse fill="#6060FF" cx="450.45468" cy="57.420547" rx="2.5" ry="2.5"/>
	</g>
	<path fill="none" stroke="black" stroke-width="1" stroke-miterlimit="4" d="M79.5994 270.039L79.5994 274.039"/>
	<text transform="translate(79.5994 276.039)" font-size="12" font-family="Segoe UI" x="-17.472656, -11.003906, -4.5351563, -1.9335938, 4.5351563, 11.003906, " y="11.027344, ">
			10,000
	</text>
	<path fill="none" stroke="black" stroke-width="1" stroke-miterlimit="4" d="M133.818 270.039L133.818 274.039"/>
	<text transform="translate(133.818 276.039)" font-size="12" font-family="Segoe UI" x="-17.472656, -11.003906, -4.5351563, -1.9335938, 4.5351563, 11.003906, " y="11.027344, ">
			15,000
	</text>
	<path fill="none" stroke="black" stroke-width="1" stroke-miterlimit="4" d="M188.037 270.039L188.037 274.039"/>
	<text transform="translate(188.037 276.039)" font-size="12" font-family="Segoe UI" x="-17.472656, -11.003906, -4.5351563, -1.9335938, 4.5351563, 11.003906, " y="11.027344, ">
			20,000
	</text>
	<path fill="none" stroke="black" stroke-width="1" stroke-miterlimit="4" d="M242.255 270.039L242.255 274.039"/>
	<text transform="translate(242.255 276.039)" font-size="12" font-family="Segoe UI" x="-17.472656, -11.003906, -4.5351563, -1.9335938, 4.5351563, 11.003906, " y="11.027344, ">
			25,000
	</text>
	<path fill="none" stroke="black" stroke-width="1" stroke-miterlimit="4" d="M296.474 270.039L296.474 274.039"/>
	<text transform="translate(296.474 276.039)" font-size="12" font-family="Segoe UI" x="-17.472656, -11.003906, -4.5351563, -1.9335938, 4.5351563, 11.003906, " y="11.027344, ">
			30,000
	</text>
	<path fill="none" stroke="black" stroke-width="1" stroke-miterlimit="4" d="M350.692 270.039L350.692 274.039"/>
	<text transform="translate(350.692 276.039)" font-size="12" font-family="Segoe UI" x="-17.472656, -11.003906, -4.5351563, -1.9335938, 4.5351563, 11.003906, " y="11.027344, ">
			35,000
	</text>
	<path fill="none" stroke="black" stroke-width="1" stroke-miterlimit="4" d="M404.911 270.039L404.911 274.039"/>
	<text transform="translate(404.911 276.039)" font-size="12" font-family="Segoe UI" x="-17.472656, -11.003906, -4.5351563, -1.9335938, 4.5351563, 11.003906, " y="11.027344, ">
			40,000
	</text>
	<path fill="none" stroke="black" stroke-width="1" stroke-miterlimit="4" d="M459.13 270.039L459.13 274.039"/>
	<text transform="translate(459.13 276.039)" font-size="12" font-family="Segoe UI" x="-17.472656, -11.003906, -4.5351563, -1.9335938, 4.5351563, 11.003906, " y="11.027344, ">
			45,000
	</text>
	<path fill="none" stroke="black" stroke-width="1" stroke-miterlimit="4" d="M513.348 270.039L513.348 274.039"/>
	<text transform="translate(513.348 276.039)" font-size="12" font-family="Segoe UI" x="-17.472656, -11.003906, -4.5351563, -1.9335938, 4.5351563, 11.003906, " y="11.027344, ">
			50,000
	</text>
	<path fill="none" stroke="black" stroke-width="1" stroke-miterlimit="4" d="M567.567 270.039L567.567 274.039"/>
	<text transform="translate(567.567 276.039)" font-size="12" font-family="Segoe UI" x="-17.472656, -11.003906, -4.5351563, -1.9335938, 4.5351563, 11.003906, " y="11.027344, ">
			55,000
	</text>
	<path fill="none" stroke="black" stroke-width="1" stroke-miterlimit="4" d="M621.786 270.039L621.786 274.039"/>
	<text transform="translate(621.786 276.039)" font-size="12" font-family="Segoe UI" x="-17.472656, -11.003906, -4.5351563, -1.9335938, 4.5351563, 11.003906, " y="11.027344, ">
			60,000
	</text>
	<path fill="none" stroke="black" stroke-width="1" stroke-miterlimit="4" d="M676.004 270.039L676.004 274.039"/>
	<text transform="translate(676.004 276.039)" font-size="12" font-family="Segoe UI" x="-17.472656, -11.003906, -4.5351563, -1.9335938, 4.5351563, 11.003906, " y="11.027344, ">
			65,000
	</text>
	<path fill="none" stroke="black" stroke-width="1" stroke-miterlimit="4" d="M730.223 270.039L730.223 274.039"/>
	<text transform="translate(730.223 276.039)" font-size="12" font-family="Segoe UI" x="-17.472656, -11.003906, -4.5351563, -1.9335938, 4.5351563, 11.003906, " y="11.027344, ">
			70,000
	</text>
	<path fill="none" stroke="black" stroke-width="1" stroke-miterlimit="4" d="M784.441 270.039L784.441 274.039"/>
	<text transform="translate(784.441 276.039)" font-size="12" font-family="Segoe UI" x="-17.472656, -11.003906, -4.5351563, -1.9335938, 4.5351563, 11.003906, " y="11.027344, ">
			75,000
	</text>
	<path fill="none" stroke="black" stroke-width="1" stroke-miterlimit="4" d="M36.2245 270.039L36.2245 272.039"/>
	<path fill="none" stroke="black" stroke-width="1" stroke-miterlimit="4" d="M47.0682 270.039L47.0682 272.039"/>
	<path fill="none" stroke="black" stroke-width="1" stroke-miterlimit="4" d="M57.9119 270.039L57.9119 272.039"/>
	<path fill="none" stroke="black" stroke-width="1" stroke-miterlimit="4" d="M68.7557 270.039L68.7557 272.039"/>
	<path fill="none" stroke="black" stroke-width="1" stroke-miterlimit="4" d="M90.4431 270.039L90.4431 272.039"/>
	<path fill="none" stroke="black" stroke-width="1" stroke-miterlimit="4" d="M101.287 270.039L101.287 272.039"/>
	<path fill="none" stroke="black" stroke-width="1" stroke-miterlimit="4" d="M112.131 270.039L112.131 272.039"/>
	<path fill="none" stroke="black" stroke-width="1" stroke-miterlimit="4" d="M122.974 270.039L122.974 272.039"/>
	<path fill="none" stroke="black" stroke-width="1" stroke-miterlimit="4" d="M144.662 270.039L144.662 272.039"/>
	<path fill="none" stroke="black" stroke-width="1" stroke-miterlimit="4" d="M155.505 270.039L155.505 272.039"/>
	<path fill="none" stroke="black" stroke-width="1" stroke-miterlimit="4" d="M166.349 270.039L166.349 272.039"/>
	<path fill="none" stroke="black" stroke-width="1" stroke-miterlimit="4" d="M177.193 270.039L177.193 272.039"/>
	<path fill="none" stroke="black" stroke-width="1" stroke-miterlimit="4" d="M198.88 270.039L198.88 272.039"/>
	<path fill="none" stroke="black" stroke-width="1" stroke-miterlimit="4" d="M209.724 270.039L209.724 272.039"/>
	<path fill="none" stroke="black" stroke-width="1" stroke-miterlimit="4" d="M220.568 270.039L220.568 272.039"/>
	<path fill="none" stroke="black" stroke-width="1" stroke-miterlimit="4" d="M231.411 270.039L231.411 272.039"/>
	<path fill="none" stroke="black" stroke-width="1" stroke-miterlimit="4" d="M253.099 270.039L253.099 272.039"/>
	<path fill="none" stroke="black" stroke-width="1" stroke-miterlimit="4" d="M263.943 270.039L263.943 272.039"/>
	<path fill="none" stroke="black" stroke-width="1" stroke-miterlimit="4" d="M274.786 270.039L274.786 272.039"/>
	<path fill="none" stroke="black" stroke-width="1" stroke-miterlimit="4" d="M285.63 270.039L285.63 272.039"/>
	<path fill="none" stroke="black" stroke-width="1" stroke-miterlimit="4" d="M307.318 270.039L307.318 272.039"/>
	<path fill="none" stroke="black" stroke-width="1" stroke-miterlimit="4" d="M318.161 270.039L318.161 272.039"/>
	<path fill="none" stroke="black" stroke-width="1" stroke-miterlimit="4" d="M329.005 270.039L329.005 272.039"/>
	<path fill="none" stroke="black" stroke-width="1" stroke-miterlimit="4" d="M339.849 270.039L339.849 272.039"/>
	<path fill="none" stroke="black" stroke-width="1" stroke-miterlimit="4" d="M361.536 270.039L361.536 272.039"/>
	<path fill="none" stroke="black" stroke-width="1" stroke-miterlimit="4" d="M372.38 270.039L372.38 272.039"/>
	<path fill="none" stroke="black" stroke-width="1" stroke-miterlimit="4" d="M383.224 270.039L383.224 272.039"/>
	<path fill="none" stroke="black" stroke-width="1" stroke-miterlimit="4" d="M394.067 270.039L394.067 272.039"/>
	<path fill="none" stroke="black" stroke-width="1" stroke-miterlimit="4" d="M415.755 270.039L415.755 272.039"/>
	<path fill="none" stroke="black" stroke-width="1" stroke-miterlimit="4" d="M426.599 270.039L426.599 272.039"/>
	<path fill="none" stroke="black" stroke-width="1" stroke-miterlimit="4" d="M437.442 270.039L437.442 272.039"/>
	<path fill="none" stroke="black" stroke-width="1" stroke-miterlimit="4" d="M448.286 270.039L448.286 272.039"/>
	<path fill="none" stroke="black" stroke-width="1" stroke-miterlimit="4" d="M469.973 270.039L469.973 272.039"/>
	<path fill="none" stroke="black" stroke-width="1" stroke-miterlimit="4" d="M480.817 270.039L480.817 272.039"/>
	<path fill="none" stroke="black" stroke-width="1" stroke-miterlimit="4" d="M491.661 270.039L491.661 272.039"/>
	<path fill="none" stroke="black" stroke-width="1" stroke-miterlimit="4" d="M502.505 270.039L502.505 272.039"/>
	<path fill="none" stroke="black" stroke-width="1" stroke-miterlimit="4" d="M524.192 270.039L524.192 272.039"/>
	<path fill="none" stroke="black" stroke-width="1" stroke-miterlimit="4" d="M535.036 270.039L535.036 272.039"/>
	<path fill="none" stroke="black" stroke-width="1" stroke-miterlimit="4" d="M545.879 270.039L545.879 272.039"/>
	<path fill="none" stroke="black" stroke-width="1" stroke-miterlimit="4" d="M556.723 270.039L556.723 272.039"/>
	<path fill="none" stroke="black" stroke-width="1" stroke-miterlimit="4" d="M578.411 270.039L578.411 272.039"/>
	<path fill="none" stroke="black" stroke-width="1" stroke-miterlimit="4" d="M589.254 270.039L589.254 272.039"/>
	<path fill="none" stroke="black" stroke-width="1" stroke-miterlimit="4" d="M600.098 270.039L600.098 272.039"/>
	<path fill="none" stroke="black" stroke-width="1" stroke-miterlimit="4" d="M610.942 270.039L610.942 272.039"/>
	<path fill="none" stroke="black" stroke-width="1" stroke-miterlimit="4" d="M632.629 270.039L632.629 272.039"/>
	<path fill="none" stroke="black" stroke-width="1" stroke-miterlimit="4" d="M643.473 270.039L643.473 272.039"/>
	<path fill="none" stroke="black" stroke-width="1" stroke-miterlimit="4" d="M654.317 270.039L654.317 272.039"/>
	<path fill="none" stroke="black" stroke-width="1" stroke-miterlimit="4" d="M665.16 270.039L665.16 272.039"/>
	<path fill="none" stroke="black" stroke-width="1" stroke-miterlimit="4" d="M686.848 270.039L686.848 272.039"/>
	<path fill="none" stroke="black" stroke-width="1" stroke-miterlimit="4" d="M697.692 270.039L697.692 272.039"/>
	<path fill="none" stroke="black" stroke-width="1" stroke-miterlimit="4" d="M708.535 270.039L708.535 272.039"/>
	<path fill="none" stroke="black" stroke-width="1" stroke-miterlimit="4" d="M719.379 270.039L719.379 272.039"/>
	<path fill="none" stroke="black" stroke-width="1" stroke-miterlimit="4" d="M741.066 270.039L741.066 272.039"/>
	<path fill="none" stroke="black" stroke-width="1" stroke-miterlimit="4" d="M751.91 270.039L751.91 272.039"/>
	<path fill="none" stroke="black" stroke-width="1" stroke-miterlimit="4" d="M762.754 270.039L762.754 272.039"/>
	<path fill="none" stroke="black" stroke-width="1" stroke-miterlimit="4" d="M773.598 270.039L773.598 272.039"/>
	<path fill="none" stroke="black" stroke-width="1" stroke-miterlimit="4" d="M32.9375 270.039L785 270.039"/>
	<path fill="none" stroke="black" stroke-width="1" stroke-miterlimit="4" d="M32.9375 15.1L785 15.1"/>
	<path fill="none" stroke="black" stroke-width="1" stroke-miterlimit="4" d="M32.9375 243.091L28.9375 243.091"/>
	<text transform="translate(23.9375 243.091)" font-size="12" font-family="Segoe UI" x="-12.9375, -6.46875, " y="3.046875, ">
			15
	</text>
	<path fill="none" stroke="black" stroke-width="1" stroke-miterlimit="4" d="M32.9375 191.516L28.9375 191.516"/>
	<text transform="translate(23.9375 191.516)" font-size="12" font-family="Segoe UI" x="-12.9375, -6.46875, " y="3.046875, ">
			20
	</text>
	<path fill="none" stroke="black" stroke-width="1" stroke-miterlimit="4" d="M32.9375 139.941L28.9375 139.941"/>
	<text transform="translate(23.9375 139.941)" font-size="12" font-family="Segoe UI" x="-12.9375, -6.46875, " y="3.046875, ">
			25
	</text>
	<path fill="none" stroke="black" stroke-width="1" stroke-miterlimit="4" d="M32.9375 88.3656L28.9375 88.3656"/>
	<text transform="translate(23.9375 88.3656)" font-size="12" font-family="Segoe UI" x="-12.9375, -6.46875, " y="3.046875, ">
			30
	</text>
	<path fill="none" stroke="black" stroke-width="1" stroke-miterlimit="4" d="M32.9375 36.7905L28.9375 36.7905"/>
	<text transform="translate(23.9375 36.7905)" font-size="12" font-family="Segoe UI" x="-12.9375, -6.46875, " y="3.046875, ">
			35
	</text>
	<path fill="none" stroke="black" stroke-width="1" stroke-miterlimit="4" d="M32.9375 263.721L30.9375 263.721"/>
	<path fill="none" stroke="black" stroke-width="1" stroke-miterlimit="4" d="M32.9375 253.406L30.9375 253.406"/>
	<path fill="none" stroke="black" stroke-width="1" stroke-miterlimit="4" d="M32.9375 232.776L30.9375 232.776"/>
	<path fill="none" stroke="black" stroke-width="1" stroke-miterlimit="4" d="M32.9375 222.461L30.9375 222.461"/>
	<path fill="none" stroke="black" stroke-width="1" stroke-miterlimit="4" d="M32.9375 212.146L30.9375 212.146"/>
	<path fill="none" stroke="black" stroke-width="1" stroke-miterlimit="4" d="M32.9375 201.831L30.9375 201.831"/>
	<path fill="none" stroke="black" stroke-width="1" stroke-miterlimit="4" d="M32.9375 181.201L30.9375 181.201"/>
	<path fill="none" stroke="black" stroke-width="1" stroke-miterlimit="4" d="M32.9375 170.886L30.9375 170.886"/>
	<path fill="none" stroke="black" stroke-width="1" stroke-miterlimit="4" d="M32.9375 160.571L30.9375 160.571"/>
	<path fill="none" stroke="black" stroke-width="1" stroke-miterlimit="4" d="M32.9375 150.256L30.9375 150.256"/>
	<path fill="none" stroke="black" stroke-width="1" stroke-miterlimit="4" d="M32.9375 129.626L30.9375 129.626"/>
	<path fill="none" stroke="black" stroke-width="1" stroke-miterlimit="4" d="M32.9375 119.311L30.9375 119.311"/>
	<path fill="none" stroke="black" stroke-width="1" stroke-miterlimit="4" d="M32.9375 108.996L30.9375 108.996"/>
	<path fill="none" stroke="black" stroke-width="1" stroke-miterlimit="4" d="M32.9375 98.6807L30.9375 98.6807"/>
	<path fill="none" stroke="black" stroke-width="1" stroke-miterlimit="4" d="M32.9375 78.0506L30.9375 78.0506"/>
	<path fill="none" stroke="black" stroke-width="1" stroke-miterlimit="4" d="M32.9375 67.7356L30.9375 67.7356"/>
	<path fill="none" stroke="black" stroke-width="1" stroke-miterlimit="4" d="M32.9375 57.4205L30.9375 57.4205"/>
	<path fill="none" stroke="black" stroke-width="1" stroke-miterlimit="4" d="M32.9375 47.1055L30.9375 47.1055"/>
	<path fill="none" stroke="black" stroke-width="1" stroke-miterlimit="4" d="M32.9375 26.4755L30.9375 26.4755"/>
	<path fill="none" stroke="black" stroke-width="1" stroke-miterlimit="4" d="M32.9375 16.1604L30.9375 16.1604"/>
	<path fill="none" stroke="black" stroke-width="1" stroke-miterlimit="4" d="M32.9375 270.039L32.9375 15"/>
	<path fill="none" stroke="black" stroke-width="1" stroke-miterlimit="4" d="M785 270.039L785 15"/>
</svg>
