<?xml version="1.0" encoding="utf-8" ?>
<svg xmlns="http://www.w3.org/2000/svg" xmlns:xlink="http://www.w3.org/1999/xlink" width="800" height="300">
	<rect fill="white" width="800" height="300"/>
	<path fill="none" stroke="#010101" stroke-width="1" stroke-miterlimit="4" stroke-opacity="0.098039217" d="M57.03 270.039L57.03 15M105.859 270.039L105.859 15M154.687 270.039L154.687 15M203.516 270.039L203.516 15M252.345 270.039L252.345 15M301.173 270.039L301.173 15M350.002 270.039L350.002 15M398.831 270.039L398.831 15M447.66 270.039L447.66 15M496.488 270.039L496.488 15M545.317 270.039L545.317 15M594.146 270.039L594.146 15M642.974 270.039L642.974 15M691.803 270.039L691.803 15M740.632 270.039L740.632 15"/>
	<path fill="none" stroke="#010101" stroke-width="1" stroke-miterlimit="4" stroke-opacity="0.098039217" d="M42.0078 253.406L785 253.406M42.0078 225.684L785 225.684M42.0078 197.963L785 197.963M42.0078 170.241L785 170.241M42.0078 142.52L785 142.52M42.0078 114.798L785 114.798M42.0078 87.0763L785 87.0763M42.0078 59.3546L785 59.3546M42.0078 31.633L785 31.633"/>
	<clipPath id="cl_134">
		<rect x="42.007813" y="15" width="742.99219" height="255.03906"/>
	</clipPath>
	<g clip-path="url(#cl_134)">
		<path fill="none" stroke="#1F77B4" stroke-width="1" stroke-miterlimit="4" d="M75.7802 253.406L75.7802 170.241L75.7802 170.241L75.7802 170.241L525.786 31.633L525.786 31.633L525.786 31.633L525.786 31.633L751.228 31.633"/>
		<ellipse fill="#1F77B4" cx="75.780182" cy="253.40608" rx="2.5" ry="2.5"/>
		<ellipse fill="#1F77B4" cx="75.780182" cy="170.24117" rx="2.5" ry="2.5"/>
		<ellipse fill="#1F77B4" cx="75.780182" cy="170.24117" rx="2.5" ry="2.5"/>
		<ellipse fill="#1F77B4" cx="75.780182" cy="170.24117" rx="2.5" ry="2.5"/>
		<ellipse fill="#1F77B4" cx="525.78552" cy="31.63298" rx="2.5" ry="2.5"/>
		<ellipse fill="#1F77B4" cx="525.78552" cy="31.63298" rx="2.5" ry="2.5"/>
		<ellipse fill="#1F77B4" cx="525.78552" cy="31.63298" rx="2.5" ry="2.5"/>
		<ellipse fill="#1F77B4" cx="525.78552" cy="31.63298" rx="2.5" ry="2.5"/>
		<ellipse fill="#1F77B4" cx="751.2276" cy="31.63298" rx="2.5" ry="2.5"/>
	</g>
	<path fill="none" stroke="black" stroke-width="1" stroke-miterlimit="4" d="M57.03 270.039L57.03 274.039"/>
	<text transform="translate(57.03 276.039)" font-size="12" font-family="Segoe UI" x="-17.472656, -11.003906, -4.5351563, -1.9335938, 4.5351563, 11.003906, " y="11.027344, ">
			27,000
	</text>
	<path fill="none" stroke="black" stroke-width="1" stroke-miterlimit="4" d="M105.859 270.039L105.859 274.039"/>
	<text transform="translate(105.859 276.039)" font-size="12" font-family="Segoe UI" x="-17.472656, -11.003906, -4.5351563, -1.9335938, 4.5351563, 11.003906, " y="11.027344, ">
			28,000
	</text>
	<path fill="none" stroke="black" stroke-width="1" stroke-miterlimit="4" d="M154.687 270.039L154.687 274.039"/>
	<text transform="translate(154.687 276.039)" font-size="12" font-family="Segoe UI" x="-17.472656, -11.003906, -4.5351563, -1.9335938, 4.5351563, 11.003906, " y="11.027344, ">
			29,000
	</text>
	<path fill="none" stroke="black" stroke-width="1" stroke-miterlimit="4" d="M203.516 270.039L203.516 274.039"/>
	<text transform="translate(203.516 276.039)" font-size="12" font-family="Segoe UI" x="-17.472656, -11.003906, -4.5351563, -1.9335938, 4.5351563, 11.003906, " y="11.027344, ">
			30,000
	</text>
	<path fill="none" stroke="black" stroke-width="1" stroke-miterlimit="4" d="M252.345 270.039L252.345 274.039"/>
	<text transform="translate(252.345 276.039)" font-size="12" font-family="Segoe UI" x="-17.472656, -11.003906, -4.5351563, -1.9335938, 4.5351563, 11.003906, " y="11.027344, ">
			31,000
	</text>
	<path fill="none" stroke="black" stroke-width="1" stroke-miterlimit="4" d="M301.173 270.039L301.173 274.039"/>
	<text transform="translate(301.173 276.039)" font-size="12" font-family="Segoe UI" x="-17.472656, -11.003906, -4.5351563, -1.9335938, 4.5351563, 11.003906, " y="11.027344, ">
			32,000
	</text>
	<path fill="none" stroke="black" stroke-width="1" stroke-miterlimit="4" d="M350.002 270.039L350.002 274.039"/>
	<text transform="translate(350.002 276.039)" font-size="12" font-family="Segoe UI" x="-17.472656, -11.003906, -4.5351563, -1.9335938, 4.5351563, 11.003906, " y="11.027344, ">
			33,000
	</text>
	<path fill="none" stroke="black" stroke-width="1" stroke-miterlimit="4" d="M398.831 270.039L398.831 274.039"/>
	<text transform="translate(398.831 276.039)" font-size="12" font-family="Segoe UI" x="-17.472656, -11.003906, -4.5351563, -1.9335938, 4.5351563, 11.003906, " y="11.027344, ">
			34,000
	</text>
	<path fill="none" stroke="black" stroke-width="1" stroke-miterlimit="4" d="M447.66 270.039L447.66 274.039"/>
	<text transform="translate(447.66 276.039)" font-size="12" font-family="Segoe UI" x="-17.472656, -11.003906, -4.5351563, -1.9335938, 4.5351563, 11.003906, " y="11.027344, ">
			35,000
	</text>
	<path fill="none" stroke="black" stroke-width="1" stroke-miterlimit="4" d="M496.488 270.039L496.488 274.039"/>
	<text transform="translate(496.488 276.039)" font-size="12" font-family="Segoe UI" x="-17.472656, -11.003906, -4.5351563, -1.9335938, 4.5351563, 11.003906, " y="11.027344, ">
			36,000
	</text>
	<path fill="none" stroke="black" stroke-width="1" stroke-miterlimit="4" d="M545.317 270.039L545.317 274.039"/>
	<text transform="translate(545.317 276.039)" font-size="12" font-family="Segoe UI" x="-17.472656, -11.003906, -4.5351563, -1.9335938, 4.5351563, 11.003906, " y="11.027344, ">
			37,000
	</text>
	<path fill="none" stroke="black" stroke-width="1" stroke-miterlimit="4" d="M594.146 270.039L594.146 274.039"/>
	<text transform="translate(594.146 276.039)" font-size="12" font-family="Segoe UI" x="-17.472656, -11.003906, -4.5351563, -1.9335938, 4.5351563, 11.003906, " y="11.027344, ">
			38,000
	</text>
	<path fill="none" stroke="black" stroke-width="1" stroke-miterlimit="4" d="M642.974 270.039L642.974 274.039"/>
	<text transform="translate(642.974 276.039)" font-size="12" font-family="Segoe UI" x="-17.472656, -11.003906, -4.5351563, -1.9335938, 4.5351563, 11.003906, " y="11.027344, ">
			39,000
	</text>
	<path fill="none" stroke="black" stroke-width="1" stroke-miterlimit="4" d="M691.803 270.039L691.803 274.039"/>
	<text transform="translate(691.803 276.039)" font-size="12" font-family="Segoe UI" x="-17.472656, -11.003906, -4.5351563, -1.9335938, 4.5351563, 11.003906, " y="11.027344, ">
			40,000
	</text>
	<path fill="none" stroke="black" stroke-width="1" stroke-miterlimit="4" d="M740.632 270.039L740.632 274.039"/>
	<text transform="translate(740.632 276.039)" font-size="12" font-family="Segoe UI" x="-17.472656, -11.003906, -4.5351563, -1.9335938, 4.5351563, 11.003906, " y="11.027344, ">
			41,000
	</text>
	<path fill="none" stroke="black" stroke-width="1" stroke-miterlimit="4" d="M47.2642 270.039L47.2642 272.039"/>
	<path fill="none" stroke="black" stroke-width="1" stroke-miterlimit="4" d="M66.7957 270.039L66.7957 272.039"/>
	<path fill="none" stroke="black" stroke-width="1" stroke-miterlimit="4" d="M76.5614 270.039L76.5614 272.039"/>
	<path fill="none" stroke="black" stroke-width="1" stroke-miterlimit="4" d="M86.3272 270.039L86.3272 272.039"/>
	<path fill="none" stroke="black" stroke-width="1" stroke-miterlimit="4" d="M96.0929 270.039L96.0929 272.039"/>
	<path fill="none" stroke="black" stroke-width="1" stroke-miterlimit="4" d="M115.624 270.039L115.624 272.039"/>
	<path fill="none" stroke="black" stroke-width="1" stroke-miterlimit="4" d="M125.39 270.039L125.39 272.039"/>
	<path fill="none" stroke="black" stroke-width="1" stroke-miterlimit="4" d="M135.156 270.039L135.156 272.039"/>
	<path fill="none" stroke="black" stroke-width="1" stroke-miterlimit="4" d="M144.922 270.039L144.922 272.039"/>
	<path fill="none" stroke="black" stroke-width="1" stroke-miterlimit="4" d="M164.453 270.039L164.453 272.039"/>
	<path fill="none" stroke="black" stroke-width="1" stroke-miterlimit="4" d="M174.219 270.039L174.219 272.039"/>
	<path fill="none" stroke="black" stroke-width="1" stroke-miterlimit="4" d="M183.985 270.039L183.985 272.039"/>
	<path fill="none" stroke="black" stroke-width="1" stroke-miterlimit="4" d="M193.75 270.039L193.75 272.039"/>
	<path fill="none" stroke="black" stroke-width="1" stroke-miterlimit="4" d="M213.282 270.039L213.282 272.039"/>
	<path fill="none" stroke="black" stroke-width="1" stroke-miterlimit="4" d="M223.048 270.039L223.048 272.039"/>
	<path fill="none" stroke="black" stroke-width="1" stroke-miterlimit="4" d="M232.813 270.039L232.813 272.039"/>
	<path fill="none" stroke="black" stroke-width="1" stroke-miterlimit="4" d="M242.579 270.039L242.579 272.039"/>
	<path fill="none" stroke="black" stroke-width="1" stroke-miterlimit="4" d="M262.111 270.039L262.111 272.039"/>
	<path fill="none" stroke="black" stroke-width="1" stroke-miterlimit="4" d="M271.876 270.039L271.876 272.039"/>
	<path fill="none" stroke="black" stroke-width="1" stroke-miterlimit="4" d="M281.642 270.039L281.642 272.039"/>
	<path fill="none" stroke="black" stroke-width="1" stroke-miterlimit="4" d="M291.408 270.039L291.408 272.039"/>
	<path fill="none" stroke="black" stroke-width="1" stroke-miterlimit="4" d="M310.939 270.039L310.939 272.039"/>
	<path fill="none" stroke="black" stroke-width="1" stroke-miterlimit="4" d="M320.705 270.039L320.705 272.039"/>
	<path fill="none" stroke="black" stroke-width="1" stroke-miterlimit="4" d="M330.471 270.039L330.471 272.039"/>
	<path fill="none" stroke="black" stroke-width="1" stroke-miterlimit="4" d="M340.236 270.039L340.236 272.039"/>
	<path fill="none" stroke="black" stroke-width="1" stroke-miterlimit="4" d="M359.768 270.039L359.768 272.039"/>
	<path fill="none" stroke="black" stroke-width="1" stroke-miterlimit="4" d="M369.534 270.039L369.534 272.039"/>
	<path fill="none" stroke="black" stroke-width="1" stroke-miterlimit="4" d="M379.299 270.039L379.299 272.039"/>
	<path fill="none" stroke="black" stroke-width="1" stroke-miterlimit="4" d="M389.065 270.039L389.065 272.039"/>
	<path fill="none" stroke="black" stroke-width="1" stroke-miterlimit="4" d="M408.597 270.039L408.597 272.039"/>
	<path fill="none" stroke="black" stroke-width="1" stroke-miterlimit="4" d="M418.362 270.039L418.362 272.039"/>
	<path fill="none" stroke="black" stroke-width="1" stroke-miterlimit="4" d="M428.128 270.039L428.128 272.039"/>
	<path fill="none" stroke="black" stroke-width="1" stroke-miterlimit="4" d="M437.894 270.039L437.894 272.039"/>
	<path fill="none" stroke="black" stroke-width="1" stroke-miterlimit="4" d="M457.425 270.039L457.425 272.039"/>
	<path fill="none" stroke="black" stroke-width="1" stroke-miterlimit="4" d="M467.191 270.039L467.191 272.039"/>
	<path fill="none" stroke="black" stroke-width="1" stroke-miterlimit="4" d="M476.957 270.039L476.957 272.039"/>
	<path fill="none" stroke="black" stroke-width="1" stroke-miterlimit="4" d="M486.723 270.039L486.723 272.039"/>
	<path fill="none" stroke="black" stroke-width="1" stroke-miterlimit="4" d="M506.254 270.039L506.254 272.039"/>
	<path fill="none" stroke="black" stroke-width="1" stroke-miterlimit="4" d="M516.02 270.039L516.02 272.039"/>
	<path fill="none" stroke="black" stroke-width="1" stroke-miterlimit="4" d="M525.786 270.039L525.786 272.039"/>
	<path fill="none" stroke="black" stroke-width="1" stroke-miterlimit="4" d="M535.551 270.039L535.551 272.039"/>
	<path fill="none" stroke="black" stroke-width="1" stroke-miterlimit="4" d="M555.083 270.039L555.083 272.039"/>
	<path fill="none" stroke="black" stroke-width="1" stroke-miterlimit="4" d="M564.848 270.039L564.848 272.039"/>
	<path fill="none" stroke="black" stroke-width="1" stroke-miterlimit="4" d="M574.614 270.039L574.614 272.039"/>
	<path fill="none" stroke="black" stroke-width="1" stroke-miterlimit="4" d="M584.38 270.039L584.38 272.039"/>
	<path fill="none" stroke="black" stroke-width="1" stroke-miterlimit="4" d="M603.911 270.039L603.911 272.039"/>
	<path fill="none" stroke="black" stroke-width="1" stroke-miterlimit="4" d="M613.677 270.039L613.677 272.039"/>
	<path fill="none" stroke="black" stroke-width="1" stroke-miterlimit="4" d="M623.443 270.039L623.443 272.039"/>
	<path fill="none" stroke="black" stroke-width="1" stroke-miterlimit="4" d="M633.209 270.039L633.209 272.039"/>
	<path fill="none" stroke="black" stroke-width="1" stroke-miterlimit="4" d="M652.74 270.039L652.74 272.039"/>
	<path fill="none" stroke="black" stroke-width="1" stroke-miterlimit="4" d="M662.506 270.039L662.506 272.039"/>
	<path fill="none" stroke="black" stroke-width="1" stroke-miterlimit="4" d="M672.272 270.039L672.272 272.039"/>
	<path fill="none" stroke="black" stroke-width="1" stroke-miterlimit="4" d="M682.037 270.039L682.037 272.039"/>
	<path fill="none" stroke="black" stroke-width="1" stroke-miterlimit="4" d="M701.569 270.039L701.569 272.039"/>
	<path fill="none" stroke="black" stroke-width="1" stroke-miterlimit="4" d="M711.335 270.039L711.335 272.039"/>
	<path fill="none" stroke="black" stroke-width="1" stroke-miterlimit="4" d="M721.1 270.039L721.1 272.039"/>
	<path fill="none" stroke="black" stroke-width="1" stroke-miterlimit="4" d="M730.866 270.039L730.866 272.039"/>
	<path fill="none" stroke="black" stroke-width="1" stroke-miterlimit="4" d="M750.398 270.039L750.398 272.039"/>
	<path fill="none" stroke="black" stroke-width="1" stroke-miterlimit="4" d="M760.163 270.039L760.163 272.039"/>
	<path fill="none" stroke="black" stroke-width="1" stroke-miterlimit="4" d="M769.929 270.039L769.929 272.039"/>
	<path fill="none" stroke="black" stroke-width="1" stroke-miterlimit="4" d="M779.695 270.039L779.695 272.039"/>
	<path fill="none" stroke="black" stroke-width="1" stroke-miterlimit="4" d="M42.0078 270.039L785 270.039"/>
	<path fill="none" stroke="black" stroke-width="1" stroke-miterlimit="4" d="M42.0078 15.1L785 15.1"/>
	<path fill="none" stroke="black" stroke-width="1" stroke-miterlimit="4" d="M42.0078 253.406L38.0078 253.406"/>
	<text transform="translate(33.0078 253.406)" font-size="12" font-family="Segoe UI" x="-12.9375, -6.46875, " y="3.046875, ">
			26
	</text>
	<path fill="none" stroke="black" stroke-width="1" stroke-miterlimit="4" d="M42.0078 225.684L38.0078 225.684"/>
	<text transform="translate(33.0078 225.684)" font-size="12" font-family="Segoe UI" x="-22.007813, -15.539063, -9.0703125, -6.46875, " y="3.046875, ">
			26.5
	</text>
	<path fill="none" stroke="black" stroke-width="1" stroke-miterlimit="4" d="M42.0078 197.963L38.0078 197.963"/>
	<text transform="translate(33.0078 197.963)" font-size="12" font-family="Segoe UI" x="-12.9375, -6.46875, " y="3.046875, ">
			27
	</text>
	<path fill="none" stroke="black" stroke-width="1" stroke-miterlimit="4" d="M42.0078 170.241L38.0078 170.241"/>
	<text transform="translate(33.0078 170.241)" font-size="12" font-family="Segoe UI" x="-22.007813, -15.539063, -9.0703125, -6.46875, " y="3.046875, ">
			27.5
	</text>
	<path fill="none" stroke="black" stroke-width="1" stroke-miterlimit="4" d="M42.0078 142.52L38.0078 142.52"/>
	<text transform="translate(33.0078 142.52)" font-size="12" font-family="Segoe UI" x="-12.9375, -6.46875, " y="3.046875, ">
			28
	</text>
	<path fill="none" stroke="black" stroke-width="1" stroke-miterlimit="4" d="M42.0078 114.798L38.0078 114.798"/>
	<text transform="translate(33.0078 114.798)" font-size="12" font-family="Segoe UI" x="-22.007813, -15.539063, -9.0703125, -6.46875, " y="3.046875, ">
			28.5
	</text>
	<path fill="none" stroke="black" stroke-width="1" stroke-miterlimit="4" d="M42.0078 87.0763L38.0078 87.0763"/>
	<text transform="translate(33.0078 87.0763)" font-size="12" font-family="Segoe UI" x="-12.9375, -6.46875, " y="3.046875, ">
			29
	</text>
	<path fill="none" stroke="black" stroke-width="1" stroke-miterlimit="4" d="M42.0078 59.3546L38.0078 59.3546"/>
	<text transform="translate(33.0078 59.3546)" font-size="12" font-family="Segoe UI" x="-22.007813, -15.539063, -9.0703125, -6.46875, " y="3.046875, ">
			29.5
	</text>
	<path fill="none" stroke="black" stroke-width="1" stroke-miterlimit="4" d="M42.0078 31.633L38.0078 31.633"/>
	<text transform="translate(33.0078 31.633)" font-size="12" font-family="Segoe UI" x="-12.9375, -6.46875, " y="3.046875, ">
			30
	</text>
	<path fill="none" stroke="black" stroke-width="1" stroke-miterlimit="4" d="M42.0078 270.039L40.0078 270.039"/>
	<path fill="none" stroke="black" stroke-width="1" stroke-miterlimit="4" d="M42.0078 264.495L40.0078 264.495"/>
	<path fill="none" stroke="black" stroke-width="1" stroke-miterlimit="4" d="M42.0078 258.95L40.0078 258.95"/>
	<path fill="none" stroke="black" stroke-width="1" stroke-miterlimit="4" d="M42.0078 247.862L40.0078 247.862"/>
	<path fill="none" stroke="black" stroke-width="1" stroke-miterlimit="4" d="M42.0078 242.317L40.0078 242.317"/>
	<path fill="none" stroke="black" stroke-width="1" stroke-miterlimit="4" d="M42.0078 236.773L40.0078 236.773"/>
	<path fill="none" stroke="black" stroke-width="1" stroke-miterlimit="4" d="M42.0078 231.229L40.0078 231.229"/>
	<path fill="none" stroke="black" stroke-width="1" stroke-miterlimit="4" d="M42.0078 220.14L40.0078 220.14"/>
	<path fill="none" stroke="black" stroke-width="1" stroke-miterlimit="4" d="M42.0078 214.596L40.0078 214.596"/>
	<path fill="none" stroke="black" stroke-width="1" stroke-miterlimit="4" d="M42.0078 209.051L40.0078 209.051"/>
	<path fill="none" stroke="black" stroke-width="1" stroke-miterlimit="4" d="M42.0078 203.507L40.0078 203.507"/>
	<path fill="none" stroke="black" stroke-width="1" stroke-miterlimit="4" d="M42.0078 192.418L40.0078 192.418"/>
	<path fill="none" stroke="black" stroke-width="1" stroke-miterlimit="4" d="M42.0078 186.874L40.0078 186.874"/>
	<path fill="none" stroke="black" stroke-width="1" stroke-miterlimit="4" d="M42.0078 181.33L40.0078 181.33"/>
	<path fill="none" stroke="black" stroke-width="1" stroke-miterlimit="4" d="M42.0078 175.785L40.0078 175.785"/>
	<path fill="none" stroke="black" stroke-width="1" stroke-miterlimit="4" d="M42.0078 164.697L40.0078 164.697"/>
	<path fill="none" stroke="black" stroke-width="1" stroke-miterlimit="4" d="M42.0078 159.153L40.0078 159.153"/>
	<path fill="none" stroke="black" stroke-width="1" stroke-miterlimit="4" d="M42.0078 153.608L40.0078 153.608"/>
	<path fill="none" stroke="black" stroke-width="1" stroke-miterlimit="4" d="M42.0078 148.064L40.0078 148.064"/>
	<path fill="none" stroke="black" stroke-width="1" stroke-miterlimit="4" d="M42.0078 136.975L40.0078 136.975"/>
	<path fill="none" stroke="black" stroke-width="1" stroke-miterlimit="4" d="M42.0078 131.431L40.0078 131.431"/>
	<path fill="none" stroke="black" stroke-width="1" stroke-miterlimit="4" d="M42.0078 125.887L40.0078 125.887"/>
	<path fill="none" stroke="black" stroke-width="1" stroke-miterlimit="4" d="M42.0078 120.342L40.0078 120.342"/>
	<path fill="none" stroke="black" stroke-width="1" stroke-miterlimit="4" d="M42.0078 109.254L40.0078 109.254"/>
	<path fill="none" stroke="black" stroke-width="1" stroke-miterlimit="4" d="M42.0078 103.709L40.0078 103.709"/>
	<path fill="none" stroke="black" stroke-width="1" stroke-miterlimit="4" d="M42.0078 98.1649L40.0078 98.1649"/>
	<path fill="none" stroke="black" stroke-width="1" stroke-miterlimit="4" d="M42.0078 92.6206L40.0078 92.6206"/>
	<path fill="none" stroke="black" stroke-width="1" stroke-miterlimit="4" d="M42.0078 81.5319L40.0078 81.5319"/>
	<path fill="none" stroke="black" stroke-width="1" stroke-miterlimit="4" d="M42.0078 75.9876L40.0078 75.9876"/>
	<path fill="none" stroke="black" stroke-width="1" stroke-miterlimit="4" d="M42.0078 70.4433L40.0078 70.4433"/>
	<path fill="none" stroke="black" stroke-width="1" stroke-miterlimit="4" d="M42.0078 64.8989L40.0078 64.8989"/>
	<path fill="none" stroke="black" stroke-width="1" stroke-miterlimit="4" d="M42.0078 53.8103L40.0078 53.8103"/>
	<path fill="none" stroke="black" stroke-width="1" stroke-miterlimit="4" d="M42.0078 48.266L40.0078 48.266"/>
	<path fill="none" stroke="black" stroke-width="1" stroke-miterlimit="4" d="M42.0078 42.7216L40.0078 42.7216"/>
	<path fill="none" stroke="black" stroke-width="1" stroke-miterlimit="4" d="M42.0078 37.1773L40.0078 37.1773"/>
	<path fill="none" stroke="black" stroke-width="1" stroke-miterlimit="4" d="M42.0078 26.0887L40.0078 26.0887"/>
	<path fill="none" stroke="black" stroke-width="1" stroke-miterlimit="4" d="M42.0078 20.5443L40.0078 20.5443"/>
	<path fill="none" stroke="black" stroke-width="1" stroke-miterlimit="4" d="M42.0078 15L40.0078 15"/>
	<path fill="none" stroke="black" stroke-width="1" stroke-miterlimit="4" d="M42.0078 270.039L42.0078 15"/>
	<path fill="none" stroke="black" stroke-width="1" stroke-miterlimit="4" d="M785 270.039L785 15"/>
</svg>
