<?xml version="1.0" encoding="utf-8" ?>
<svg xmlns="http://www.w3.org/2000/svg" xmlns:xlink="http://www.w3.org/1999/xlink" width="800" height="300">
	<rect fill="white" width="800" height="300"/>
	<path fill="none" stroke="#010101" stroke-width="1" stroke-miterlimit="4" stroke-opacity="0.098039217" d="M51.9099 270.039L51.9099 15M146.497 270.039L146.497 15M241.083 270.039L241.083 15M335.67 270.039L335.67 15M430.257 270.039L430.257 15M524.844 270.039L524.844 15M619.431 270.039L619.431 15M714.017 270.039L714.017 15"/>
	<path fill="none" stroke="#010101" stroke-width="1" stroke-miterlimit="4" stroke-opacity="0.098039217" d="M32.9375 248.753L785 248.753M32.9375 217.736L785 217.736M32.9375 186.719L785 186.719M32.9375 155.702L785 155.702M32.9375 124.685L785 124.685M32.9375 93.6674L785 93.6674M32.9375 62.6502L785 62.6502M32.9375 31.633L785 31.633"/>
	<clipPath id="cl_118">
		<rect x="32.9375" y="15" width="752.0625" height="255.03906"/>
	</clipPath>
	<g clip-path="url(#cl_118)">
		<path fill="none" stroke="#1F77B4" stroke-width="1" stroke-miterlimit="4" d="M67.1222 233.245L67.1222 233.245L87.5605 202.228L96.7402 202.228L96.7402 202.228L112.638 217.736L112.638 217.736L112.638 217.736L112.638 217.736L112.638 217.736L112.638 217.736L117.786 202.228L117.786 202.228L117.786 202.228L117.786 202.228L117.786 202.228L117.786 202.228L134.508 217.736L134.508 217.736L134.7 233.245L134.7 233.245L134.7 233.245L134.7 233.245L134.7 233.245L141.427 217.736L141.427 217.736L141.427 217.736L141.427 217.736L141.427 217.736L146.808 233.245L157.918 217.736L158.071 217.736L162.184 253.406L162.184 253.406L162.281 217.736L162.281 217.736L162.281 217.736L162.281 217.736L162.281 217.736L162.281 217.736L162.281 217.736L162.293 209.982L171.41 248.753L171.41 248.753L171.41 248.753L171.41 248.753L171.41 248.753L171.41 248.753L171.41 248.753L171.41 248.753L171.41 248.753L179.867 217.736L211.003 171.21L220.152 171.21L220.152 171.21L220.152 171.21L240.987 171.21L241.083 171.21L241.371 171.21L241.371 171.21L247.714 171.21L247.714 171.21L284.078 171.21L284.078 171.21L284.078 171.21L284.078 171.21L300.569 171.21L343.237 171.21L343.237 171.21L343.237 171.21L343.237 171.21L351.31 171.21L351.31 171.21L351.31 171.21L351.31 171.21L357.652 155.702L396.861 171.21L402.035 155.702L431.457 171.21L438.761 155.702L438.761 140.193L489.117 124.685L489.117 124.685L489.117 124.685L489.117 124.685L489.117 124.685L527.299 140.193L535.88 140.193L598.042 62.6502L627.925 62.6502L661.049 62.6502L681.51 47.1416L718.22 62.6502L750.815 31.633"/>
		<ellipse fill="#1F77B4" cx="67.122162" cy="233.24489" rx="2.5" ry="2.5"/>
		<ellipse fill="#1F77B4" cx="67.122162" cy="233.24489" rx="2.5" ry="2.5"/>
		<ellipse fill="#1F77B4" cx="87.560509" cy="202.22768" rx="2.5" ry="2.5"/>
		<ellipse fill="#1F77B4" cx="96.740234" cy="202.22768" rx="2.5" ry="2.5"/>
		<ellipse fill="#1F77B4" cx="96.740234" cy="202.22768" rx="2.5" ry="2.5"/>
		<ellipse fill="#1F77B4" cx="112.63807" cy="217.73628" rx="2.5" ry="2.5"/>
		<ellipse fill="#1F77B4" cx="112.63807" cy="217.73628" rx="2.5" ry="2.5"/>
		<ellipse fill="#1F77B4" cx="112.63807" cy="217.73628" rx="2.5" ry="2.5"/>
		<ellipse fill="#1F77B4" cx="112.63807" cy="217.73628" rx="2.5" ry="2.5"/>
		<ellipse fill="#1F77B4" cx="112.63807" cy="217.73628" rx="2.5" ry="2.5"/>
		<ellipse fill="#1F77B4" cx="112.63807" cy="217.73628" rx="2.5" ry="2.5"/>
		<ellipse fill="#1F77B4" cx="117.78618" cy="202.22768" rx="2.5" ry="2.5"/>
		<ellipse fill="#1F77B4" cx="117.78618" cy="202.22768" rx="2.5" ry="2.5"/>
		<ellipse fill="#1F77B4" cx="117.78618" cy="202.22768" rx="2.5" ry="2.5"/>
		<ellipse fill="#1F77B4" cx="117.78618" cy="202.22768" rx="2.5" ry="2.5"/>
		<ellipse fill="#1F77B4" cx="117.78618" cy="202.22768" rx="2.5" ry="2.5"/>
		<ellipse fill="#1F77B4" cx="117.78618" cy="202.22768" rx="2.5" ry="2.5"/>
		<ellipse fill="#1F77B4" cx="134.50761" cy="217.73628" rx="2.5" ry="2.5"/>
		<ellipse fill="#1F77B4" cx="134.50761" cy="217.73628" rx="2.5" ry="2.5"/>
		<ellipse fill="#1F77B4" cx="134.69981" cy="233.24489" rx="2.5" ry="2.5"/>
		<ellipse fill="#1F77B4" cx="134.69981" cy="233.24489" rx="2.5" ry="2.5"/>
		<ellipse fill="#1F77B4" cx="134.69981" cy="233.24489" rx="2.5" ry="2.5"/>
		<ellipse fill="#1F77B4" cx="134.69981" cy="233.24489" rx="2.5" ry="2.5"/>
		<ellipse fill="#1F77B4" cx="134.69981" cy="233.24489" rx="2.5" ry="2.5"/>
		<ellipse fill="#1F77B4" cx="141.42682" cy="217.73628" rx="2.5" ry="2.5"/>
		<ellipse fill="#1F77B4" cx="141.42682" cy="217.73628" rx="2.5" ry="2.5"/>
		<ellipse fill="#1F77B4" cx="141.42682" cy="217.73628" rx="2.5" ry="2.5"/>
		<ellipse fill="#1F77B4" cx="141.42682" cy="217.73628" rx="2.5" ry="2.5"/>
		<ellipse fill="#1F77B4" cx="141.42682" cy="217.73628" rx="2.5" ry="2.5"/>
		<ellipse fill="#1F77B4" cx="146.80844" cy="233.24489" rx="2.5" ry="2.5"/>
		<ellipse fill="#1F77B4" cx="157.91762" cy="217.73628" rx="2.5" ry="2.5"/>
		<ellipse fill="#1F77B4" cx="158.07138" cy="217.73628" rx="2.5" ry="2.5"/>
		<ellipse fill="#1F77B4" cx="162.18446" cy="253.40608" rx="2.5" ry="2.5"/>
		<ellipse fill="#1F77B4" cx="162.18446" cy="253.40608" rx="2.5" ry="2.5"/>
		<ellipse fill="#1F77B4" cx="162.28056" cy="217.73628" rx="2.5" ry="2.5"/>
		<ellipse fill="#1F77B4" cx="162.28056" cy="217.73628" rx="2.5" ry="2.5"/>
		<ellipse fill="#1F77B4" cx="162.28056" cy="217.73628" rx="2.5" ry="2.5"/>
		<ellipse fill="#1F77B4" cx="162.28056" cy="217.73628" rx="2.5" ry="2.5"/>
		<ellipse fill="#1F77B4" cx="162.28056" cy="217.73628" rx="2.5" ry="2.5"/>
		<ellipse fill="#1F77B4" cx="162.28056" cy="217.73628" rx="2.5" ry="2.5"/>
		<ellipse fill="#1F77B4" cx="162.28056" cy="217.73628" rx="2.5" ry="2.5"/>
		<ellipse fill="#1F77B4" cx="162.29268" cy="209.98198" rx="2.5" ry="2.5"/>
		<ellipse fill="#1F77B4" cx="171.41008" cy="248.75349" rx="2.5" ry="2.5"/>
		<ellipse fill="#1F77B4" cx="171.41008" cy="248.75349" rx="2.5" ry="2.5"/>
		<ellipse fill="#1F77B4" cx="171.41008" cy="248.75349" rx="2.5" ry="2.5"/>
		<ellipse fill="#1F77B4" cx="171.41008" cy="248.75349" rx="2.5" ry="2.5"/>
		<ellipse fill="#1F77B4" cx="171.41008" cy="248.75349" rx="2.5" ry="2.5"/>
		<ellipse fill="#1F77B4" cx="171.41008" cy="248.75349" rx="2.5" ry="2.5"/>
		<ellipse fill="#1F77B4" cx="171.41008" cy="248.75349" rx="2.5" ry="2.5"/>
		<ellipse fill="#1F77B4" cx="171.41008" cy="248.75349" rx="2.5" ry="2.5"/>
		<ellipse fill="#1F77B4" cx="171.41008" cy="248.75349" rx="2.5" ry="2.5"/>
		<ellipse fill="#1F77B4" cx="179.8669" cy="217.73628" rx="2.5" ry="2.5"/>
		<ellipse fill="#1F77B4" cx="211.00336" cy="171.21045" rx="2.5" ry="2.5"/>
		<ellipse fill="#1F77B4" cx="220.1521" cy="171.21045" rx="2.5" ry="2.5"/>
		<ellipse fill="#1F77B4" cx="220.1521" cy="171.21045" rx="2.5" ry="2.5"/>
		<ellipse fill="#1F77B4" cx="220.1521" cy="171.21045" rx="2.5" ry="2.5"/>
		<ellipse fill="#1F77B4" cx="240.98662" cy="171.21045" rx="2.5" ry="2.5"/>
		<ellipse fill="#1F77B4" cx="241.08348" cy="171.21045" rx="2.5" ry="2.5"/>
		<ellipse fill="#1F77B4" cx="241.37102" cy="171.21045" rx="2.5" ry="2.5"/>
		<ellipse fill="#1F77B4" cx="241.37102" cy="171.21045" rx="2.5" ry="2.5"/>
		<ellipse fill="#1F77B4" cx="247.71364" cy="171.21045" rx="2.5" ry="2.5"/>
		<ellipse fill="#1F77B4" cx="247.71364" cy="171.21045" rx="2.5" ry="2.5"/>
		<ellipse fill="#1F77B4" cx="284.07794" cy="171.21045" rx="2.5" ry="2.5"/>
		<ellipse fill="#1F77B4" cx="284.07794" cy="171.21045" rx="2.5" ry="2.5"/>
		<ellipse fill="#1F77B4" cx="284.07794" cy="171.21045" rx="2.5" ry="2.5"/>
		<ellipse fill="#1F77B4" cx="284.07794" cy="171.21045" rx="2.5" ry="2.5"/>
		<ellipse fill="#1F77B4" cx="300.56876" cy="171.21045" rx="2.5" ry="2.5"/>
		<ellipse fill="#1F77B4" cx="343.23721" cy="171.21045" rx="2.5" ry="2.5"/>
		<ellipse fill="#1F77B4" cx="343.23721" cy="171.21045" rx="2.5" ry="2.5"/>
		<ellipse fill="#1F77B4" cx="343.23721" cy="171.21045" rx="2.5" ry="2.5"/>
		<ellipse fill="#1F77B4" cx="343.23721" cy="171.21045" rx="2.5" ry="2.5"/>
		<ellipse fill="#1F77B4" cx="351.30963" cy="171.21045" rx="2.5" ry="2.5"/>
		<ellipse fill="#1F77B4" cx="351.30963" cy="171.21045" rx="2.5" ry="2.5"/>
		<ellipse fill="#1F77B4" cx="351.30963" cy="171.21045" rx="2.5" ry="2.5"/>
		<ellipse fill="#1F77B4" cx="351.30963" cy="171.21045" rx="2.5" ry="2.5"/>
		<ellipse fill="#1F77B4" cx="357.65225" cy="155.70184" rx="2.5" ry="2.5"/>
		<ellipse fill="#1F77B4" cx="396.86115" cy="171.21045" rx="2.5" ry="2.5"/>
		<ellipse fill="#1F77B4" cx="402.03482" cy="155.70184" rx="2.5" ry="2.5"/>
		<ellipse fill="#1F77B4" cx="431.45721" cy="171.21045" rx="2.5" ry="2.5"/>
		<ellipse fill="#1F77B4" cx="438.7608" cy="155.70184" rx="2.5" ry="2.5"/>
		<ellipse fill="#1F77B4" cx="438.7608" cy="140.19324" rx="2.5" ry="2.5"/>
		<ellipse fill="#1F77B4" cx="489.11731" cy="124.68463" rx="2.5" ry="2.5"/>
		<ellipse fill="#1F77B4" cx="489.11731" cy="124.68463" rx="2.5" ry="2.5"/>
		<ellipse fill="#1F77B4" cx="489.11731" cy="124.68463" rx="2.5" ry="2.5"/>
		<ellipse fill="#1F77B4" cx="489.11731" cy="124.68463" rx="2.5" ry="2.5"/>
		<ellipse fill="#1F77B4" cx="489.11731" cy="124.68463" rx="2.5" ry="2.5"/>
		<ellipse fill="#1F77B4" cx="527.29883" cy="140.19324" rx="2.5" ry="2.5"/>
		<ellipse fill="#1F77B4" cx="535.88025" cy="140.19324" rx="2.5" ry="2.5"/>
		<ellipse fill="#1F77B4" cx="598.04169" cy="62.650192" rx="2.5" ry="2.5"/>
		<ellipse fill="#1F77B4" cx="627.92505" cy="62.650192" rx="2.5" ry="2.5"/>
		<ellipse fill="#1F77B4" cx="661.04889" cy="62.650192" rx="2.5" ry="2.5"/>
		<ellipse fill="#1F77B4" cx="681.50989" cy="47.141586" rx="2.5" ry="2.5"/>
		<ellipse fill="#1F77B4" cx="718.22015" cy="62.650192" rx="2.5" ry="2.5"/>
		<ellipse fill="#1F77B4" cx="750.81537" cy="31.63298" rx="2.5" ry="2.5"/>
	</g>
	<path fill="none" stroke="black" stroke-width="1" stroke-miterlimit="4" d="M51.9099 270.039L51.9099 274.039"/>
	<text transform="translate(51.9099 276.039)" font-size="12" font-family="Segoe UI" x="-17.472656, -11.003906, -4.5351563, -1.9335938, 4.5351563, 11.003906, " y="11.027344, ">
			10,000
	</text>
	<path fill="none" stroke="black" stroke-width="1" stroke-miterlimit="4" d="M146.497 270.039L146.497 274.039"/>
	<text transform="translate(146.497 276.039)" font-size="12" font-family="Segoe UI" x="-17.472656, -11.003906, -4.5351563, -1.9335938, 4.5351563, 11.003906, " y="11.027344, ">
			15,000
	</text>
	<path fill="none" stroke="black" stroke-width="1" stroke-miterlimit="4" d="M241.083 270.039L241.083 274.039"/>
	<text transform="translate(241.083 276.039)" font-size="12" font-family="Segoe UI" x="-17.472656, -11.003906, -4.5351563, -1.9335938, 4.5351563, 11.003906, " y="11.027344, ">
			20,000
	</text>
	<path fill="none" stroke="black" stroke-width="1" stroke-miterlimit="4" d="M335.67 270.039L335.67 274.039"/>
	<text transform="translate(335.67 276.039)" font-size="12" font-family="Segoe UI" x="-17.472656, -11.003906, -4.5351563, -1.9335938, 4.5351563, 11.003906, " y="11.027344, ">
			25,000
	</text>
	<path fill="none" stroke="black" stroke-width="1" stroke-miterlimit="4" d="M430.257 270.039L430.257 274.039"/>
	<text transform="translate(430.257 276.039)" font-size="12" font-family="Segoe UI" x="-17.472656, -11.003906, -4.5351563, -1.9335938, 4.5351563, 11.003906, " y="11.027344, ">
			30,000
	</text>
	<path fill="none" stroke="black" stroke-width="1" stroke-miterlimit="4" d="M524.844 270.039L524.844 274.039"/>
	<text transform="translate(524.844 276.039)" font-size="12" font-family="Segoe UI" x="-17.472656, -11.003906, -4.5351563, -1.9335938, 4.5351563, 11.003906, " y="11.027344, ">
			35,000
	</text>
	<path fill="none" stroke="black" stroke-width="1" stroke-miterlimit="4" d="M619.431 270.039L619.431 274.039"/>
	<text transform="translate(619.431 276.039)" font-size="12" font-family="Segoe UI" x="-17.472656, -11.003906, -4.5351563, -1.9335938, 4.5351563, 11.003906, " y="11.027344, ">
			40,000
	</text>
	<path fill="none" stroke="black" stroke-width="1" stroke-miterlimit="4" d="M714.017 270.039L714.017 274.039"/>
	<text transform="translate(714.017 276.039)" font-size="12" font-family="Segoe UI" x="-17.472656, -11.003906, -4.5351563, -1.9335938, 4.5351563, 11.003906, " y="11.027344, ">
			45,000
	</text>
	<path fill="none" stroke="black" stroke-width="1" stroke-miterlimit="4" d="M32.9925 270.039L32.9925 272.039"/>
	<path fill="none" stroke="black" stroke-width="1" stroke-miterlimit="4" d="M70.8272 270.039L70.8272 272.039"/>
	<path fill="none" stroke="black" stroke-width="1" stroke-miterlimit="4" d="M89.7446 270.039L89.7446 272.039"/>
	<path fill="none" stroke="black" stroke-width="1" stroke-miterlimit="4" d="M108.662 270.039L108.662 272.039"/>
	<path fill="none" stroke="black" stroke-width="1" stroke-miterlimit="4" d="M127.579 270.039L127.579 272.039"/>
	<path fill="none" stroke="black" stroke-width="1" stroke-miterlimit="4" d="M165.414 270.039L165.414 272.039"/>
	<path fill="none" stroke="black" stroke-width="1" stroke-miterlimit="4" d="M184.331 270.039L184.331 272.039"/>
	<path fill="none" stroke="black" stroke-width="1" stroke-miterlimit="4" d="M203.249 270.039L203.249 272.039"/>
	<path fill="none" stroke="black" stroke-width="1" stroke-miterlimit="4" d="M222.166 270.039L222.166 272.039"/>
	<path fill="none" stroke="black" stroke-width="1" stroke-miterlimit="4" d="M260.001 270.039L260.001 272.039"/>
	<path fill="none" stroke="black" stroke-width="1" stroke-miterlimit="4" d="M278.918 270.039L278.918 272.039"/>
	<path fill="none" stroke="black" stroke-width="1" stroke-miterlimit="4" d="M297.836 270.039L297.836 272.039"/>
	<path fill="none" stroke="black" stroke-width="1" stroke-miterlimit="4" d="M316.753 270.039L316.753 272.039"/>
	<path fill="none" stroke="black" stroke-width="1" stroke-miterlimit="4" d="M354.588 270.039L354.588 272.039"/>
	<path fill="none" stroke="black" stroke-width="1" stroke-miterlimit="4" d="M373.505 270.039L373.505 272.039"/>
	<path fill="none" stroke="black" stroke-width="1" stroke-miterlimit="4" d="M392.422 270.039L392.422 272.039"/>
	<path fill="none" stroke="black" stroke-width="1" stroke-miterlimit="4" d="M411.34 270.039L411.34 272.039"/>
	<path fill="none" stroke="black" stroke-width="1" stroke-miterlimit="4" d="M449.174 270.039L449.174 272.039"/>
	<path fill="none" stroke="black" stroke-width="1" stroke-miterlimit="4" d="M468.092 270.039L468.092 272.039"/>
	<path fill="none" stroke="black" stroke-width="1" stroke-miterlimit="4" d="M487.009 270.039L487.009 272.039"/>
	<path fill="none" stroke="black" stroke-width="1" stroke-miterlimit="4" d="M505.927 270.039L505.927 272.039"/>
	<path fill="none" stroke="black" stroke-width="1" stroke-miterlimit="4" d="M543.761 270.039L543.761 272.039"/>
	<path fill="none" stroke="black" stroke-width="1" stroke-miterlimit="4" d="M562.679 270.039L562.679 272.039"/>
	<path fill="none" stroke="black" stroke-width="1" stroke-miterlimit="4" d="M581.596 270.039L581.596 272.039"/>
	<path fill="none" stroke="black" stroke-width="1" stroke-miterlimit="4" d="M600.513 270.039L600.513 272.039"/>
	<path fill="none" stroke="black" stroke-width="1" stroke-miterlimit="4" d="M638.348 270.039L638.348 272.039"/>
	<path fill="none" stroke="black" stroke-width="1" stroke-miterlimit="4" d="M657.265 270.039L657.265 272.039"/>
	<path fill="none" stroke="black" stroke-width="1" stroke-miterlimit="4" d="M676.183 270.039L676.183 272.039"/>
	<path fill="none" stroke="black" stroke-width="1" stroke-miterlimit="4" d="M695.1 270.039L695.1 272.039"/>
	<path fill="none" stroke="black" stroke-width="1" stroke-miterlimit="4" d="M732.935 270.039L732.935 272.039"/>
	<path fill="none" stroke="black" stroke-width="1" stroke-miterlimit="4" d="M751.852 270.039L751.852 272.039"/>
	<path fill="none" stroke="black" stroke-width="1" stroke-miterlimit="4" d="M770.77 270.039L770.77 272.039"/>
	<path fill="none" stroke="black" stroke-width="1" stroke-miterlimit="4" d="M32.9375 270.039L785 270.039"/>
	<path fill="none" stroke="black" stroke-width="1" stroke-miterlimit="4" d="M32.9375 15.1L785 15.1"/>
	<path fill="none" stroke="black" stroke-width="1" stroke-miterlimit="4" d="M32.9375 248.753L28.9375 248.753"/>
	<text transform="translate(23.9375 248.753)" font-size="12" font-family="Segoe UI" x="-12.9375, -6.46875, " y="3.046875, ">
			16
	</text>
	<path fill="none" stroke="black" stroke-width="1" stroke-miterlimit="4" d="M32.9375 217.736L28.9375 217.736"/>
	<text transform="translate(23.9375 217.736)" font-size="12" font-family="Segoe UI" x="-12.9375, -6.46875, " y="3.046875, ">
			18
	</text>
	<path fill="none" stroke="black" stroke-width="1" stroke-miterlimit="4" d="M32.9375 186.719L28.9375 186.719"/>
	<text transform="translate(23.9375 186.719)" font-size="12" font-family="Segoe UI" x="-12.9375, -6.46875, " y="3.046875, ">
			20
	</text>
	<path fill="none" stroke="black" stroke-width="1" stroke-miterlimit="4" d="M32.9375 155.702L28.9375 155.702"/>
	<text transform="translate(23.9375 155.702)" font-size="12" font-family="Segoe UI" x="-12.9375, -6.46875, " y="3.046875, ">
			22
	</text>
	<path fill="none" stroke="black" stroke-width="1" stroke-miterlimit="4" d="M32.9375 124.685L28.9375 124.685"/>
	<text transform="translate(23.9375 124.685)" font-size="12" font-family="Segoe UI" x="-12.9375, -6.46875, " y="3.046875, ">
			24
	</text>
	<path fill="none" stroke="black" stroke-width="1" stroke-miterlimit="4" d="M32.9375 93.6674L28.9375 93.6674"/>
	<text transform="translate(23.9375 93.6674)" font-size="12" font-family="Segoe UI" x="-12.9375, -6.46875, " y="3.046875, ">
			26
	</text>
	<path fill="none" stroke="black" stroke-width="1" stroke-miterlimit="4" d="M32.9375 62.6502L28.9375 62.6502"/>
	<text transform="translate(23.9375 62.6502)" font-size="12" font-family="Segoe UI" x="-12.9375, -6.46875, " y="3.046875, ">
			28
	</text>
	<path fill="none" stroke="black" stroke-width="1" stroke-miterlimit="4" d="M32.9375 31.633L28.9375 31.633"/>
	<text transform="translate(23.9375 31.633)" font-size="12" font-family="Segoe UI" x="-12.9375, -6.46875, " y="3.046875, ">
			30
	</text>
	<path fill="none" stroke="black" stroke-width="1" stroke-miterlimit="4" d="M32.9375 267.364L30.9375 267.364"/>
	<path fill="none" stroke="black" stroke-width="1" stroke-miterlimit="4" d="M32.9375 261.16L30.9375 261.16"/>
	<path fill="none" stroke="black" stroke-width="1" stroke-miterlimit="4" d="M32.9375 254.957L30.9375 254.957"/>
	<path fill="none" stroke="black" stroke-width="1" stroke-miterlimit="4" d="M32.9375 242.55L30.9375 242.55"/>
	<path fill="none" stroke="black" stroke-width="1" stroke-miterlimit="4" d="M32.9375 236.347L30.9375 236.347"/>
	<path fill="none" stroke="black" stroke-width="1" stroke-miterlimit="4" d="M32.9375 230.143L30.9375 230.143"/>
	<path fill="none" stroke="black" stroke-width="1" stroke-miterlimit="4" d="M32.9375 223.94L30.9375 223.94"/>
	<path fill="none" stroke="black" stroke-width="1" stroke-miterlimit="4" d="M32.9375 211.533L30.9375 211.533"/>
	<path fill="none" stroke="black" stroke-width="1" stroke-miterlimit="4" d="M32.9375 205.329L30.9375 205.329"/>
	<path fill="none" stroke="black" stroke-width="1" stroke-miterlimit="4" d="M32.9375 199.126L30.9375 199.126"/>
	<path fill="none" stroke="black" stroke-width="1" stroke-miterlimit="4" d="M32.9375 192.923L30.9375 192.923"/>
	<path fill="none" stroke="black" stroke-width="1" stroke-miterlimit="4" d="M32.9375 180.516L30.9375 180.516"/>
	<path fill="none" stroke="black" stroke-width="1" stroke-miterlimit="4" d="M32.9375 174.312L30.9375 174.312"/>
	<path fill="none" stroke="black" stroke-width="1" stroke-miterlimit="4" d="M32.9375 168.109L30.9375 168.109"/>
	<path fill="none" stroke="black" stroke-width="1" stroke-miterlimit="4" d="M32.9375 161.905L30.9375 161.905"/>
	<path fill="none" stroke="black" stroke-width="1" stroke-miterlimit="4" d="M32.9375 149.498L30.9375 149.498"/>
	<path fill="none" stroke="black" stroke-width="1" stroke-miterlimit="4" d="M32.9375 143.295L30.9375 143.295"/>
	<path fill="none" stroke="black" stroke-width="1" stroke-miterlimit="4" d="M32.9375 137.092L30.9375 137.092"/>
	<path fill="none" stroke="black" stroke-width="1" stroke-miterlimit="4" d="M32.9375 130.888L30.9375 130.888"/>
	<path fill="none" stroke="black" stroke-width="1" stroke-miterlimit="4" d="M32.9375 118.481L30.9375 118.481"/>
	<path fill="none" stroke="black" stroke-width="1" stroke-miterlimit="4" d="M32.9375 112.278L30.9375 112.278"/>
	<path fill="none" stroke="black" stroke-width="1" stroke-miterlimit="4" d="M32.9375 106.074L30.9375 106.074"/>
	<path fill="none" stroke="black" stroke-width="1" stroke-miterlimit="4" d="M32.9375 99.8709L30.9375 99.8709"/>
	<path fill="none" stroke="black" stroke-width="1" stroke-miterlimit="4" d="M32.9375 87.464L30.9375 87.464"/>
	<path fill="none" stroke="black" stroke-width="1" stroke-miterlimit="4" d="M32.9375 81.2605L30.9375 81.2605"/>
	<path fill="none" stroke="black" stroke-width="1" stroke-miterlimit="4" d="M32.9375 75.0571L30.9375 75.0571"/>
	<path fill="none" stroke="black" stroke-width="1" stroke-miterlimit="4" d="M32.9375 68.8536L30.9375 68.8536"/>
	<path fill="none" stroke="black" stroke-width="1" stroke-miterlimit="4" d="M32.9375 56.4468L30.9375 56.4468"/>
	<path fill="none" stroke="black" stroke-width="1" stroke-miterlimit="4" d="M32.9375 50.2433L30.9375 50.2433"/>
	<path fill="none" stroke="black" stroke-width="1" stroke-miterlimit="4" d="M32.9375 44.0399L30.9375 44.0399"/>
	<path fill="none" stroke="black" stroke-width="1" stroke-miterlimit="4" d="M32.9375 37.8364L30.9375 37.8364"/>
	<path fill="none" stroke="black" stroke-width="1" stroke-miterlimit="4" d="M32.9375 25.4295L30.9375 25.4295"/>
	<path fill="none" stroke="black" stroke-width="1" stroke-miterlimit="4" d="M32.9375 19.2261L30.9375 19.2261"/>
	<path fill="none" stroke="black" stroke-width="1" stroke-miterlimit="4" d="M32.9375 270.039L32.9375 15"/>
	<path fill="none" stroke="black" stroke-width="1" stroke-miterlimit="4" d="M785 270.039L785 15"/>
</svg>
