<?xml version="1.0" encoding="utf-8" ?>
<svg xmlns="http://www.w3.org/2000/svg" xmlns:xlink="http://www.w3.org/1999/xlink" width="800" height="300">
	<rect fill="white" width="800" height="300"/>
	<path fill="none" stroke="#010101" stroke-width="1" stroke-miterlimit="4" stroke-opacity="0.098039217" d="M60.9954 270.039L60.9954 15M128.678 270.039L128.678 15M196.36 270.039L196.36 15M264.043 270.039L264.043 15M331.725 270.039L331.725 15M399.408 270.039L399.408 15M467.09 270.039L467.09 15M534.773 270.039L534.773 15M602.455 270.039L602.455 15M670.138 270.039L670.138 15M737.82 270.039L737.82 15"/>
	<path fill="none" stroke="#010101" stroke-width="1" stroke-miterlimit="4" stroke-opacity="0.098039217" d="M32.9375 265.727L785 265.727M32.9375 241.085L785 241.085M32.9375 216.444L785 216.444M32.9375 191.802L785 191.802M32.9375 167.161L785 167.161M32.9375 142.52L785 142.52M32.9375 117.878L785 117.878M32.9375 93.2366L785 93.2366M32.9375 68.5952L785 68.5952M32.9375 43.9537L785 43.9537M32.9375 19.3123L785 19.3123"/>
	<clipPath id="cl_11e">
		<rect x="32.9375" y="15" width="752.0625" height="255.03906"/>
	</clipPath>
	<g clip-path="url(#cl_11e)">
		<path fill="none" stroke="#1F77B4" stroke-width="1" stroke-miterlimit="4" d="M67.1222 253.406L67.1222 253.406L67.3429 241.085L67.3429 228.765L82.5531 241.085L84.6848 241.085L84.6848 241.085L84.6848 241.085L95.646 216.444L96.5849 253.406L100.611 216.444L101.605 228.765L102.303 216.444L104.434 228.765L131.212 204.123L131.212 204.123L131.212 204.123L131.212 204.123L131.212 204.123L145.68 216.444L145.68 216.444L145.68 216.444L145.68 216.444L145.68 216.444L145.68 216.444L145.68 216.444L205.918 179.482L205.918 179.482L221.065 179.482L225.791 179.482L283.211 191.802L283.211 191.802L297.884 191.802L303.84 191.802L332.606 179.482L341.315 179.482L365.729 179.482L365.729 179.482L365.729 179.482L369.855 179.482L369.855 179.482L373.981 179.482L374.286 179.482L374.286 179.482L375.26 179.482L410.145 179.482L507.221 93.2366L507.221 93.2366L556.573 105.557L556.573 105.557L556.573 105.557L556.573 105.557L655.195 43.9537L659.326 43.9537L716.983 31.633L750.815 31.633"/>
		<ellipse fill="#1F77B4" cx="67.122162" cy="253.40608" rx="2.5" ry="2.5"/>
		<ellipse fill="#1F77B4" cx="67.122162" cy="253.40608" rx="2.5" ry="2.5"/>
		<ellipse fill="#1F77B4" cx="67.342857" cy="241.08536" rx="2.5" ry="2.5"/>
		<ellipse fill="#1F77B4" cx="67.342857" cy="228.76462" rx="2.5" ry="2.5"/>
		<ellipse fill="#1F77B4" cx="82.553116" cy="241.08536" rx="2.5" ry="2.5"/>
		<ellipse fill="#1F77B4" cx="84.684845" cy="241.08536" rx="2.5" ry="2.5"/>
		<ellipse fill="#1F77B4" cx="84.684845" cy="241.08536" rx="2.5" ry="2.5"/>
		<ellipse fill="#1F77B4" cx="84.684845" cy="241.08536" rx="2.5" ry="2.5"/>
		<ellipse fill="#1F77B4" cx="95.646049" cy="216.44389" rx="2.5" ry="2.5"/>
		<ellipse fill="#1F77B4" cx="96.584869" cy="253.40608" rx="2.5" ry="2.5"/>
		<ellipse fill="#1F77B4" cx="100.61091" cy="216.44389" rx="2.5" ry="2.5"/>
		<ellipse fill="#1F77B4" cx="101.60493" cy="228.76462" rx="2.5" ry="2.5"/>
		<ellipse fill="#1F77B4" cx="102.30254" cy="216.44389" rx="2.5" ry="2.5"/>
		<ellipse fill="#1F77B4" cx="104.43405" cy="228.76462" rx="2.5" ry="2.5"/>
		<ellipse fill="#1F77B4" cx="131.21152" cy="204.12317" rx="2.5" ry="2.5"/>
		<ellipse fill="#1F77B4" cx="131.21152" cy="204.12317" rx="2.5" ry="2.5"/>
		<ellipse fill="#1F77B4" cx="131.21152" cy="204.12317" rx="2.5" ry="2.5"/>
		<ellipse fill="#1F77B4" cx="131.21152" cy="204.12317" rx="2.5" ry="2.5"/>
		<ellipse fill="#1F77B4" cx="131.21152" cy="204.12317" rx="2.5" ry="2.5"/>
		<ellipse fill="#1F77B4" cx="145.67975" cy="216.44389" rx="2.5" ry="2.5"/>
		<ellipse fill="#1F77B4" cx="145.67975" cy="216.44389" rx="2.5" ry="2.5"/>
		<ellipse fill="#1F77B4" cx="145.67975" cy="216.44389" rx="2.5" ry="2.5"/>
		<ellipse fill="#1F77B4" cx="145.67975" cy="216.44389" rx="2.5" ry="2.5"/>
		<ellipse fill="#1F77B4" cx="145.67975" cy="216.44389" rx="2.5" ry="2.5"/>
		<ellipse fill="#1F77B4" cx="145.67975" cy="216.44389" rx="2.5" ry="2.5"/>
		<ellipse fill="#1F77B4" cx="145.67975" cy="216.44389" rx="2.5" ry="2.5"/>
		<ellipse fill="#1F77B4" cx="205.91826" cy="179.48172" rx="2.5" ry="2.5"/>
		<ellipse fill="#1F77B4" cx="205.91826" cy="179.48172" rx="2.5" ry="2.5"/>
		<ellipse fill="#1F77B4" cx="221.06451" cy="179.48172" rx="2.5" ry="2.5"/>
		<ellipse fill="#1F77B4" cx="225.79146" cy="179.48172" rx="2.5" ry="2.5"/>
		<ellipse fill="#1F77B4" cx="283.21057" cy="191.80244" rx="2.5" ry="2.5"/>
		<ellipse fill="#1F77B4" cx="283.21057" cy="191.80244" rx="2.5" ry="2.5"/>
		<ellipse fill="#1F77B4" cx="297.88412" cy="191.80244" rx="2.5" ry="2.5"/>
		<ellipse fill="#1F77B4" cx="303.84021" cy="191.80244" rx="2.5" ry="2.5"/>
		<ellipse fill="#1F77B4" cx="332.60605" cy="179.48172" rx="2.5" ry="2.5"/>
		<ellipse fill="#1F77B4" cx="341.31503" cy="179.48172" rx="2.5" ry="2.5"/>
		<ellipse fill="#1F77B4" cx="365.72906" cy="179.48172" rx="2.5" ry="2.5"/>
		<ellipse fill="#1F77B4" cx="365.72906" cy="179.48172" rx="2.5" ry="2.5"/>
		<ellipse fill="#1F77B4" cx="365.72906" cy="179.48172" rx="2.5" ry="2.5"/>
		<ellipse fill="#1F77B4" cx="369.85498" cy="179.48172" rx="2.5" ry="2.5"/>
		<ellipse fill="#1F77B4" cx="369.85498" cy="179.48172" rx="2.5" ry="2.5"/>
		<ellipse fill="#1F77B4" cx="373.9809" cy="179.48172" rx="2.5" ry="2.5"/>
		<ellipse fill="#1F77B4" cx="374.2861" cy="179.48172" rx="2.5" ry="2.5"/>
		<ellipse fill="#1F77B4" cx="374.2861" cy="179.48172" rx="2.5" ry="2.5"/>
		<ellipse fill="#1F77B4" cx="375.25995" cy="179.48172" rx="2.5" ry="2.5"/>
		<ellipse fill="#1F77B4" cx="410.14532" cy="179.48172" rx="2.5" ry="2.5"/>
		<ellipse fill="#1F77B4" cx="507.2211" cy="93.236618" rx="2.5" ry="2.5"/>
		<ellipse fill="#1F77B4" cx="507.2211" cy="93.236618" rx="2.5" ry="2.5"/>
		<ellipse fill="#1F77B4" cx="556.57324" cy="105.55734" rx="2.5" ry="2.5"/>
		<ellipse fill="#1F77B4" cx="556.57324" cy="105.55734" rx="2.5" ry="2.5"/>
		<ellipse fill="#1F77B4" cx="556.57324" cy="105.55734" rx="2.5" ry="2.5"/>
		<ellipse fill="#1F77B4" cx="556.57324" cy="105.55734" rx="2.5" ry="2.5"/>
		<ellipse fill="#1F77B4" cx="655.19513" cy="43.953705" rx="2.5" ry="2.5"/>
		<ellipse fill="#1F77B4" cx="659.32648" cy="43.953705" rx="2.5" ry="2.5"/>
		<ellipse fill="#1F77B4" cx="716.98279" cy="31.63298" rx="2.5" ry="2.5"/>
		<ellipse fill="#1F77B4" cx="750.81537" cy="31.63298" rx="2.5" ry="2.5"/>
	</g>
	<path fill="none" stroke="black" stroke-width="1" stroke-miterlimit="4" d="M60.9954 270.039L60.9954 274.039"/>
	<text transform="translate(60.9954 276.039)" font-size="12" font-family="Segoe UI" x="-17.472656, -11.003906, -4.5351563, -1.9335938, 4.5351563, 11.003906, " y="11.027344, ">
			10,000
	</text>
	<path fill="none" stroke="black" stroke-width="1" stroke-miterlimit="4" d="M128.678 270.039L128.678 274.039"/>
	<text transform="translate(128.678 276.039)" font-size="12" font-family="Segoe UI" x="-17.472656, -11.003906, -4.5351563, -1.9335938, 4.5351563, 11.003906, " y="11.027344, ">
			15,000
	</text>
	<path fill="none" stroke="black" stroke-width="1" stroke-miterlimit="4" d="M196.36 270.039L196.36 274.039"/>
	<text transform="translate(196.36 276.039)" font-size="12" font-family="Segoe UI" x="-17.472656, -11.003906, -4.5351563, -1.9335938, 4.5351563, 11.003906, " y="11.027344, ">
			20,000
	</text>
	<path fill="none" stroke="black" stroke-width="1" stroke-miterlimit="4" d="M264.043 270.039L264.043 274.039"/>
	<text transform="translate(264.043 276.039)" font-size="12" font-family="Segoe UI" x="-17.472656, -11.003906, -4.5351563, -1.9335938, 4.5351563, 11.003906, " y="11.027344, ">
			25,000
	</text>
	<path fill="none" stroke="black" stroke-width="1" stroke-miterlimit="4" d="M331.725 270.039L331.725 274.039"/>
	<text transform="translate(331.725 276.039)" font-size="12" font-family="Segoe UI" x="-17.472656, -11.003906, -4.5351563, -1.9335938, 4.5351563, 11.003906, " y="11.027344, ">
			30,000
	</text>
	<path fill="none" stroke="black" stroke-width="1" stroke-miterlimit="4" d="M399.408 270.039L399.408 274.039"/>
	<text transform="translate(399.408 276.039)" font-size="12" font-family="Segoe UI" x="-17.472656, -11.003906, -4.5351563, -1.9335938, 4.5351563, 11.003906, " y="11.027344, ">
			35,000
	</text>
	<path fill="none" stroke="black" stroke-width="1" stroke-miterlimit="4" d="M467.09 270.039L467.09 274.039"/>
	<text transform="translate(467.09 276.039)" font-size="12" font-family="Segoe UI" x="-17.472656, -11.003906, -4.5351563, -1.9335938, 4.5351563, 11.003906, " y="11.027344, ">
			40,000
	</text>
	<path fill="none" stroke="black" stroke-width="1" stroke-miterlimit="4" d="M534.773 270.039L534.773 274.039"/>
	<text transform="translate(534.773 276.039)" font-size="12" font-family="Segoe UI" x="-17.472656, -11.003906, -4.5351563, -1.9335938, 4.5351563, 11.003906, " y="11.027344, ">
			45,000
	</text>
	<path fill="none" stroke="black" stroke-width="1" stroke-miterlimit="4" d="M602.455 270.039L602.455 274.039"/>
	<text transform="translate(602.455 276.039)" font-size="12" font-family="Segoe UI" x="-17.472656, -11.003906, -4.5351563, -1.9335938, 4.5351563, 11.003906, " y="11.027344, ">
			50,000
	</text>
	<path fill="none" stroke="black" stroke-width="1" stroke-miterlimit="4" d="M670.138 270.039L670.138 274.039"/>
	<text transform="translate(670.138 276.039)" font-size="12" font-family="Segoe UI" x="-17.472656, -11.003906, -4.5351563, -1.9335938, 4.5351563, 11.003906, " y="11.027344, ">
			55,000
	</text>
	<path fill="none" stroke="black" stroke-width="1" stroke-miterlimit="4" d="M737.82 270.039L737.82 274.039"/>
	<text transform="translate(737.82 276.039)" font-size="12" font-family="Segoe UI" x="-17.472656, -11.003906, -4.5351563, -1.9335938, 4.5351563, 11.003906, " y="11.027344, ">
			60,000
	</text>
	<path fill="none" stroke="black" stroke-width="1" stroke-miterlimit="4" d="M33.9224 270.039L33.9224 272.039"/>
	<path fill="none" stroke="black" stroke-width="1" stroke-miterlimit="4" d="M47.4589 270.039L47.4589 272.039"/>
	<path fill="none" stroke="black" stroke-width="1" stroke-miterlimit="4" d="M74.5319 270.039L74.5319 272.039"/>
	<path fill="none" stroke="black" stroke-width="1" stroke-miterlimit="4" d="M88.0684 270.039L88.0684 272.039"/>
	<path fill="none" stroke="black" stroke-width="1" stroke-miterlimit="4" d="M101.605 270.039L101.605 272.039"/>
	<path fill="none" stroke="black" stroke-width="1" stroke-miterlimit="4" d="M115.141 270.039L115.141 272.039"/>
	<path fill="none" stroke="black" stroke-width="1" stroke-miterlimit="4" d="M142.214 270.039L142.214 272.039"/>
	<path fill="none" stroke="black" stroke-width="1" stroke-miterlimit="4" d="M155.751 270.039L155.751 272.039"/>
	<path fill="none" stroke="black" stroke-width="1" stroke-miterlimit="4" d="M169.287 270.039L169.287 272.039"/>
	<path fill="none" stroke="black" stroke-width="1" stroke-miterlimit="4" d="M182.824 270.039L182.824 272.039"/>
	<path fill="none" stroke="black" stroke-width="1" stroke-miterlimit="4" d="M209.897 270.039L209.897 272.039"/>
	<path fill="none" stroke="black" stroke-width="1" stroke-miterlimit="4" d="M223.433 270.039L223.433 272.039"/>
	<path fill="none" stroke="black" stroke-width="1" stroke-miterlimit="4" d="M236.97 270.039L236.97 272.039"/>
	<path fill="none" stroke="black" stroke-width="1" stroke-miterlimit="4" d="M250.506 270.039L250.506 272.039"/>
	<path fill="none" stroke="black" stroke-width="1" stroke-miterlimit="4" d="M277.579 270.039L277.579 272.039"/>
	<path fill="none" stroke="black" stroke-width="1" stroke-miterlimit="4" d="M291.116 270.039L291.116 272.039"/>
	<path fill="none" stroke="black" stroke-width="1" stroke-miterlimit="4" d="M304.652 270.039L304.652 272.039"/>
	<path fill="none" stroke="black" stroke-width="1" stroke-miterlimit="4" d="M318.189 270.039L318.189 272.039"/>
	<path fill="none" stroke="black" stroke-width="1" stroke-miterlimit="4" d="M345.262 270.039L345.262 272.039"/>
	<path fill="none" stroke="black" stroke-width="1" stroke-miterlimit="4" d="M358.798 270.039L358.798 272.039"/>
	<path fill="none" stroke="black" stroke-width="1" stroke-miterlimit="4" d="M372.335 270.039L372.335 272.039"/>
	<path fill="none" stroke="black" stroke-width="1" stroke-miterlimit="4" d="M385.871 270.039L385.871 272.039"/>
	<path fill="none" stroke="black" stroke-width="1" stroke-miterlimit="4" d="M412.944 270.039L412.944 272.039"/>
	<path fill="none" stroke="black" stroke-width="1" stroke-miterlimit="4" d="M426.481 270.039L426.481 272.039"/>
	<path fill="none" stroke="black" stroke-width="1" stroke-miterlimit="4" d="M440.017 270.039L440.017 272.039"/>
	<path fill="none" stroke="black" stroke-width="1" stroke-miterlimit="4" d="M453.554 270.039L453.554 272.039"/>
	<path fill="none" stroke="black" stroke-width="1" stroke-miterlimit="4" d="M480.627 270.039L480.627 272.039"/>
	<path fill="none" stroke="black" stroke-width="1" stroke-miterlimit="4" d="M494.163 270.039L494.163 272.039"/>
	<path fill="none" stroke="black" stroke-width="1" stroke-miterlimit="4" d="M507.7 270.039L507.7 272.039"/>
	<path fill="none" stroke="black" stroke-width="1" stroke-miterlimit="4" d="M521.236 270.039L521.236 272.039"/>
	<path fill="none" stroke="black" stroke-width="1" stroke-miterlimit="4" d="M548.309 270.039L548.309 272.039"/>
	<path fill="none" stroke="black" stroke-width="1" stroke-miterlimit="4" d="M561.846 270.039L561.846 272.039"/>
	<path fill="none" stroke="black" stroke-width="1" stroke-miterlimit="4" d="M575.382 270.039L575.382 272.039"/>
	<path fill="none" stroke="black" stroke-width="1" stroke-miterlimit="4" d="M588.919 270.039L588.919 272.039"/>
	<path fill="none" stroke="black" stroke-width="1" stroke-miterlimit="4" d="M615.992 270.039L615.992 272.039"/>
	<path fill="none" stroke="black" stroke-width="1" stroke-miterlimit="4" d="M629.528 270.039L629.528 272.039"/>
	<path fill="none" stroke="black" stroke-width="1" stroke-miterlimit="4" d="M643.065 270.039L643.065 272.039"/>
	<path fill="none" stroke="black" stroke-width="1" stroke-miterlimit="4" d="M656.601 270.039L656.601 272.039"/>
	<path fill="none" stroke="black" stroke-width="1" stroke-miterlimit="4" d="M683.674 270.039L683.674 272.039"/>
	<path fill="none" stroke="black" stroke-width="1" stroke-miterlimit="4" d="M697.211 270.039L697.211 272.039"/>
	<path fill="none" stroke="black" stroke-width="1" stroke-miterlimit="4" d="M710.747 270.039L710.747 272.039"/>
	<path fill="none" stroke="black" stroke-width="1" stroke-miterlimit="4" d="M724.284 270.039L724.284 272.039"/>
	<path fill="none" stroke="black" stroke-width="1" stroke-miterlimit="4" d="M751.357 270.039L751.357 272.039"/>
	<path fill="none" stroke="black" stroke-width="1" stroke-miterlimit="4" d="M764.893 270.039L764.893 272.039"/>
	<path fill="none" stroke="black" stroke-width="1" stroke-miterlimit="4" d="M778.43 270.039L778.43 272.039"/>
	<path fill="none" stroke="black" stroke-width="1" stroke-miterlimit="4" d="M32.9375 270.039L785 270.039"/>
	<path fill="none" stroke="black" stroke-width="1" stroke-miterlimit="4" d="M32.9375 15.1L785 15.1"/>
	<path fill="none" stroke="black" stroke-width="1" stroke-miterlimit="4" d="M32.9375 265.727L28.9375 265.727"/>
	<text transform="translate(23.9375 265.727)" font-size="12" font-family="Segoe UI" x="-12.9375, -6.46875, " y="3.046875, ">
			14
	</text>
	<path fill="none" stroke="black" stroke-width="1" stroke-miterlimit="4" d="M32.9375 241.085L28.9375 241.085"/>
	<text transform="translate(23.9375 241.085)" font-size="12" font-family="Segoe UI" x="-12.9375, -6.46875, " y="3.046875, ">
			16
	</text>
	<path fill="none" stroke="black" stroke-width="1" stroke-miterlimit="4" d="M32.9375 216.444L28.9375 216.444"/>
	<text transform="translate(23.9375 216.444)" font-size="12" font-family="Segoe UI" x="-12.9375, -6.46875, " y="3.046875, ">
			18
	</text>
	<path fill="none" stroke="black" stroke-width="1" stroke-miterlimit="4" d="M32.9375 191.802L28.9375 191.802"/>
	<text transform="translate(23.9375 191.802)" font-size="12" font-family="Segoe UI" x="-12.9375, -6.46875, " y="3.046875, ">
			20
	</text>
	<path fill="none" stroke="black" stroke-width="1" stroke-miterlimit="4" d="M32.9375 167.161L28.9375 167.161"/>
	<text transform="translate(23.9375 167.161)" font-size="12" font-family="Segoe UI" x="-12.9375, -6.46875, " y="3.046875, ">
			22
	</text>
	<path fill="none" stroke="black" stroke-width="1" stroke-miterlimit="4" d="M32.9375 142.52L28.9375 142.52"/>
	<text transform="translate(23.9375 142.52)" font-size="12" font-family="Segoe UI" x="-12.9375, -6.46875, " y="3.046875, ">
			24
	</text>
	<path fill="none" stroke="black" stroke-width="1" stroke-miterlimit="4" d="M32.9375 117.878L28.9375 117.878"/>
	<text transform="translate(23.9375 117.878)" font-size="12" font-family="Segoe UI" x="-12.9375, -6.46875, " y="3.046875, ">
			26
	</text>
	<path fill="none" stroke="black" stroke-width="1" stroke-miterlimit="4" d="M32.9375 93.2366L28.9375 93.2366"/>
	<text transform="translate(23.9375 93.2366)" font-size="12" font-family="Segoe UI" x="-12.9375, -6.46875, " y="3.046875, ">
			28
	</text>
	<path fill="none" stroke="black" stroke-width="1" stroke-miterlimit="4" d="M32.9375 68.5952L28.9375 68.5952"/>
	<text transform="translate(23.9375 68.5952)" font-size="12" font-family="Segoe UI" x="-12.9375, -6.46875, " y="3.046875, ">
			30
	</text>
	<path fill="none" stroke="black" stroke-width="1" stroke-miterlimit="4" d="M32.9375 43.9537L28.9375 43.9537"/>
	<text transform="translate(23.9375 43.9537)" font-size="12" font-family="Segoe UI" x="-12.9375, -6.46875, " y="3.046875, ">
			32
	</text>
	<path fill="none" stroke="black" stroke-width="1" stroke-miterlimit="4" d="M32.9375 19.3123L28.9375 19.3123"/>
	<text transform="translate(23.9375 19.3123)" font-size="12" font-family="Segoe UI" x="-12.9375, -6.46875, " y="3.046875, ">
			34
	</text>
	<path fill="none" stroke="black" stroke-width="1" stroke-miterlimit="4" d="M32.9375 260.799L30.9375 260.799"/>
	<path fill="none" stroke="black" stroke-width="1" stroke-miterlimit="4" d="M32.9375 255.87L30.9375 255.87"/>
	<path fill="none" stroke="black" stroke-width="1" stroke-miterlimit="4" d="M32.9375 250.942L30.9375 250.942"/>
	<path fill="none" stroke="black" stroke-width="1" stroke-miterlimit="4" d="M32.9375 246.014L30.9375 246.014"/>
	<path fill="none" stroke="black" stroke-width="1" stroke-miterlimit="4" d="M32.9375 236.157L30.9375 236.157"/>
	<path fill="none" stroke="black" stroke-width="1" stroke-miterlimit="4" d="M32.9375 231.229L30.9375 231.229"/>
	<path fill="none" stroke="black" stroke-width="1" stroke-miterlimit="4" d="M32.9375 226.3L30.9375 226.3"/>
	<path fill="none" stroke="black" stroke-width="1" stroke-miterlimit="4" d="M32.9375 221.372L30.9375 221.372"/>
	<path fill="none" stroke="black" stroke-width="1" stroke-miterlimit="4" d="M32.9375 211.516L30.9375 211.516"/>
	<path fill="none" stroke="black" stroke-width="1" stroke-miterlimit="4" d="M32.9375 206.587L30.9375 206.587"/>
	<path fill="none" stroke="black" stroke-width="1" stroke-miterlimit="4" d="M32.9375 201.659L30.9375 201.659"/>
	<path fill="none" stroke="black" stroke-width="1" stroke-miterlimit="4" d="M32.9375 196.731L30.9375 196.731"/>
	<path fill="none" stroke="black" stroke-width="1" stroke-miterlimit="4" d="M32.9375 186.874L30.9375 186.874"/>
	<path fill="none" stroke="black" stroke-width="1" stroke-miterlimit="4" d="M32.9375 181.946L30.9375 181.946"/>
	<path fill="none" stroke="black" stroke-width="1" stroke-miterlimit="4" d="M32.9375 177.018L30.9375 177.018"/>
	<path fill="none" stroke="black" stroke-width="1" stroke-miterlimit="4" d="M32.9375 172.089L30.9375 172.089"/>
	<path fill="none" stroke="black" stroke-width="1" stroke-miterlimit="4" d="M32.9375 162.233L30.9375 162.233"/>
	<path fill="none" stroke="black" stroke-width="1" stroke-miterlimit="4" d="M32.9375 157.304L30.9375 157.304"/>
	<path fill="none" stroke="black" stroke-width="1" stroke-miterlimit="4" d="M32.9375 152.376L30.9375 152.376"/>
	<path fill="none" stroke="black" stroke-width="1" stroke-miterlimit="4" d="M32.9375 147.448L30.9375 147.448"/>
	<path fill="none" stroke="black" stroke-width="1" stroke-miterlimit="4" d="M32.9375 137.591L30.9375 137.591"/>
	<path fill="none" stroke="black" stroke-width="1" stroke-miterlimit="4" d="M32.9375 132.663L30.9375 132.663"/>
	<path fill="none" stroke="black" stroke-width="1" stroke-miterlimit="4" d="M32.9375 127.735L30.9375 127.735"/>
	<path fill="none" stroke="black" stroke-width="1" stroke-miterlimit="4" d="M32.9375 122.806L30.9375 122.806"/>
	<path fill="none" stroke="black" stroke-width="1" stroke-miterlimit="4" d="M32.9375 112.95L30.9375 112.95"/>
	<path fill="none" stroke="black" stroke-width="1" stroke-miterlimit="4" d="M32.9375 108.021L30.9375 108.021"/>
	<path fill="none" stroke="black" stroke-width="1" stroke-miterlimit="4" d="M32.9375 103.093L30.9375 103.093"/>
	<path fill="none" stroke="black" stroke-width="1" stroke-miterlimit="4" d="M32.9375 98.1649L30.9375 98.1649"/>
	<path fill="none" stroke="black" stroke-width="1" stroke-miterlimit="4" d="M32.9375 88.3083L30.9375 88.3083"/>
	<path fill="none" stroke="black" stroke-width="1" stroke-miterlimit="4" d="M32.9375 83.38L30.9375 83.38"/>
	<path fill="none" stroke="black" stroke-width="1" stroke-miterlimit="4" d="M32.9375 78.4518L30.9375 78.4518"/>
	<path fill="none" stroke="black" stroke-width="1" stroke-miterlimit="4" d="M32.9375 73.5235L30.9375 73.5235"/>
	<path fill="none" stroke="black" stroke-width="1" stroke-miterlimit="4" d="M32.9375 63.6669L30.9375 63.6669"/>
	<path fill="none" stroke="black" stroke-width="1" stroke-miterlimit="4" d="M32.9375 58.7386L30.9375 58.7386"/>
	<path fill="none" stroke="black" stroke-width="1" stroke-miterlimit="4" d="M32.9375 53.8103L30.9375 53.8103"/>
	<path fill="none" stroke="black" stroke-width="1" stroke-miterlimit="4" d="M32.9375 48.882L30.9375 48.882"/>
	<path fill="none" stroke="black" stroke-width="1" stroke-miterlimit="4" d="M32.9375 39.0254L30.9375 39.0254"/>
	<path fill="none" stroke="black" stroke-width="1" stroke-miterlimit="4" d="M32.9375 34.0971L30.9375 34.0971"/>
	<path fill="none" stroke="black" stroke-width="1" stroke-miterlimit="4" d="M32.9375 29.1688L30.9375 29.1688"/>
	<path fill="none" stroke="black" stroke-width="1" stroke-miterlimit="4" d="M32.9375 24.2405L30.9375 24.2405"/>
	<path fill="none" stroke="black" stroke-width="1" stroke-miterlimit="4" d="M32.9375 270.039L32.9375 15"/>
	<path fill="none" stroke="black" stroke-width="1" stroke-miterlimit="4" d="M785 270.039L785 15"/>
</svg>
