<?xml version="1.0" encoding="utf-8" ?>
<svg xmlns="http://www.w3.org/2000/svg" xmlns:xlink="http://www.w3.org/1999/xlink" width="800" height="300">
	<rect fill="white" width="800" height="300"/>
	<path fill="none" stroke="#010101" stroke-width="1" stroke-miterlimit="4" stroke-opacity="0.098039217" d="M60.9474 270.039L60.9474 15M115.676 270.039L115.676 15M170.404 270.039L170.404 15M225.132 270.039L225.132 15M279.86 270.039L279.86 15M334.588 270.039L334.588 15M389.316 270.039L389.316 15M444.044 270.039L444.044 15M498.772 270.039L498.772 15M553.5 270.039L553.5 15M608.228 270.039L608.228 15M662.956 270.039L662.956 15M717.684 270.039L717.684 15M772.413 270.039L772.413 15"/>
	<path fill="none" stroke="#010101" stroke-width="1" stroke-miterlimit="4" stroke-opacity="0.098039217" d="M26.4688 236.265L785 236.265M26.4688 201.161L785 201.161M26.4688 166.057L785 166.057M26.4688 130.953L785 130.953M26.4688 95.8489L785 95.8489M26.4688 60.7449L785 60.7449M26.4688 25.6408L785 25.6408"/>
	<clipPath id="cl_9f">
		<rect x="26.46875" y="15" width="758.53125" height="255.03906"/>
	</clipPath>
	<g clip-path="url(#cl_9f)">
		<path fill="none" stroke="red" stroke-width="1" stroke-miterlimit="4" d=""/>
		<ellipse fill="red" cx="312.69662" cy="226.67003" rx="2.5" ry="2.5"/>
	</g>
	<clipPath id="cl_a0">
		<rect x="26.46875" y="15" width="758.53125" height="255.03906"/>
	</clipPath>
	<g clip-path="url(#cl_a0)">
		<path fill="none" stroke="lime" stroke-width="1" stroke-miterlimit="4" d="M137.567 227.276L137.567 227.773L181.349 223.19L181.349 220.095L214.186 227.904L214.186 227.959L225.132 224.619L247.023 219.011L279.86 214.485L290.805 230.069L290.805 230.069L290.805 230.069L312.697 226.049L312.697 226.024L575.391 174.536L575.391 174.536L608.228 167.897"/>
		<ellipse fill="lime" cx="137.56677" cy="227.27574" rx="2.5" ry="2.5"/>
		<ellipse fill="lime" cx="137.56677" cy="227.77336" rx="2.5" ry="2.5"/>
		<ellipse fill="lime" cx="181.34923" cy="223.18962" rx="2.5" ry="2.5"/>
		<ellipse fill="lime" cx="181.34923" cy="220.09531" rx="2.5" ry="2.5"/>
		<ellipse fill="lime" cx="214.18608" cy="227.90399" rx="2.5" ry="2.5"/>
		<ellipse fill="lime" cx="214.18608" cy="227.95888" rx="2.5" ry="2.5"/>
		<ellipse fill="lime" cx="225.1317" cy="224.61916" rx="2.5" ry="2.5"/>
		<ellipse fill="lime" cx="247.02293" cy="219.01146" rx="2.5" ry="2.5"/>
		<ellipse fill="lime" cx="279.8598" cy="214.48476" rx="2.5" ry="2.5"/>
		<ellipse fill="lime" cx="290.80539" cy="230.06917" rx="2.5" ry="2.5"/>
		<ellipse fill="lime" cx="290.80539" cy="230.06917" rx="2.5" ry="2.5"/>
		<ellipse fill="lime" cx="290.80539" cy="230.06917" rx="2.5" ry="2.5"/>
		<ellipse fill="lime" cx="312.69662" cy="226.04935" rx="2.5" ry="2.5"/>
		<ellipse fill="lime" cx="312.69662" cy="226.02367" rx="2.5" ry="2.5"/>
		<ellipse fill="lime" cx="575.39142" cy="174.53625" rx="2.5" ry="2.5"/>
		<ellipse fill="lime" cx="575.39142" cy="174.53625" rx="2.5" ry="2.5"/>
		<ellipse fill="lime" cx="608.22827" cy="167.89746" rx="2.5" ry="2.5"/>
	</g>
	<clipPath id="cl_a1">
		<rect x="26.46875" y="15" width="758.53125" height="255.03906"/>
	</clipPath>
	<g clip-path="url(#cl_a1)">
		<path fill="none" stroke="#AFA" stroke-width="1" stroke-miterlimit="4" d="M60.9474 241.023L71.8931 243.948L93.7843 246.619L104.73 239.112L104.73 242.707L115.676 240.442L148.512 240.075L148.512 238.719L170.404 237.518L170.404 245.818L170.404 232.438L181.349 235.398L181.349 233L181.349 232.073L192.295 237.771L192.295 236.649L203.24 237.286L236.077 238.015L236.077 244.055L247.023 238.015L290.805 197.764L290.805 197.764L290.805 197.764L290.805 197.764L312.697 233L323.642 233.515L323.642 233"/>
		<ellipse fill="#AFA" cx="60.947445" cy="241.0228" rx="2.5" ry="2.5"/>
		<ellipse fill="#AFA" cx="71.893059" cy="243.94756" rx="2.5" ry="2.5"/>
		<ellipse fill="#AFA" cx="93.784294" cy="246.61931" rx="2.5" ry="2.5"/>
		<ellipse fill="#AFA" cx="104.72991" cy="239.11243" rx="2.5" ry="2.5"/>
		<ellipse fill="#AFA" cx="104.72991" cy="242.70667" rx="2.5" ry="2.5"/>
		<ellipse fill="#AFA" cx="115.67553" cy="240.44171" rx="2.5" ry="2.5"/>
		<ellipse fill="#AFA" cx="148.51237" cy="240.07451" rx="2.5" ry="2.5"/>
		<ellipse fill="#AFA" cx="148.51237" cy="238.71939" rx="2.5" ry="2.5"/>
		<ellipse fill="#AFA" cx="170.40361" cy="237.51831" rx="2.5" ry="2.5"/>
		<ellipse fill="#AFA" cx="170.40361" cy="245.8185" rx="2.5" ry="2.5"/>
		<ellipse fill="#AFA" cx="170.40361" cy="232.4382" rx="2.5" ry="2.5"/>
		<ellipse fill="#AFA" cx="181.34923" cy="235.39822" rx="2.5" ry="2.5"/>
		<ellipse fill="#AFA" cx="181.34923" cy="233.00023" rx="2.5" ry="2.5"/>
		<ellipse fill="#AFA" cx="181.34923" cy="232.073" rx="2.5" ry="2.5"/>
		<ellipse fill="#AFA" cx="192.29485" cy="237.77071" rx="2.5" ry="2.5"/>
		<ellipse fill="#AFA" cx="192.29485" cy="236.64948" rx="2.5" ry="2.5"/>
		<ellipse fill="#AFA" cx="203.24046" cy="237.28618" rx="2.5" ry="2.5"/>
		<ellipse fill="#AFA" cx="236.07732" cy="238.01486" rx="2.5" ry="2.5"/>
		<ellipse fill="#AFA" cx="236.07732" cy="244.05476" rx="2.5" ry="2.5"/>
		<ellipse fill="#AFA" cx="247.02293" cy="238.01486" rx="2.5" ry="2.5"/>
		<ellipse fill="#AFA" cx="290.80539" cy="197.7639" rx="2.5" ry="2.5"/>
		<ellipse fill="#AFA" cx="290.80539" cy="197.7639" rx="2.5" ry="2.5"/>
		<ellipse fill="#AFA" cx="290.80539" cy="197.7639" rx="2.5" ry="2.5"/>
		<ellipse fill="#AFA" cx="290.80539" cy="197.7639" rx="2.5" ry="2.5"/>
		<ellipse fill="#AFA" cx="312.69662" cy="233.00023" rx="2.5" ry="2.5"/>
		<ellipse fill="#AFA" cx="323.64224" cy="233.5148" rx="2.5" ry="2.5"/>
		<ellipse fill="#AFA" cx="323.64224" cy="233.00023" rx="2.5" ry="2.5"/>
	</g>
	<clipPath id="cl_a2">
		<rect x="26.46875" y="15" width="758.53125" height="255.03906"/>
	</clipPath>
	<g clip-path="url(#cl_a2)">
		<path fill="none" stroke="#AAA" stroke-width="1" stroke-miterlimit="4" d="M71.8931 236.311L71.8931 236.311L71.8931 236.311L82.8387 236.311L126.621 230.245L137.567 230.81L159.458 230.245L159.458 230.245L170.404 230.245L170.404 229.628L181.349 229.628L181.349 229.628L181.349 229.628L181.349 229.628L192.295 233.097L203.24 233.097L203.24 228.845L203.24 228.845L214.186 228.845L214.186 229.372L225.132 224.922L225.132 224.922L236.077 221.699L236.077 226.749L257.969 231.007L257.969 231.007L257.969 231.009L257.969 231.007L268.914 228.274L268.914 228.274L268.914 228.274L279.86 228.274L290.805 232.158L290.805 232.158L290.805 232.158L301.751 232.158L301.751 234.958L312.697 209.359L312.697 209.359L312.697 209.359L323.642 209.359L334.588 228.304L334.588 228.304"/>
		<ellipse fill="#AAA" cx="71.893059" cy="236.3107" rx="2.5" ry="2.5"/>
		<ellipse fill="#AAA" cx="71.893059" cy="236.3107" rx="2.5" ry="2.5"/>
		<ellipse fill="#AAA" cx="71.893059" cy="236.3107" rx="2.5" ry="2.5"/>
		<ellipse fill="#AAA" cx="82.838676" cy="236.3107" rx="2.5" ry="2.5"/>
		<ellipse fill="#AAA" cx="126.62115" cy="230.24521" rx="2.5000038" ry="2.5"/>
		<ellipse fill="#AAA" cx="137.56677" cy="230.80983" rx="2.5" ry="2.5"/>
		<ellipse fill="#AAA" cx="159.45799" cy="230.24521" rx="2.5" ry="2.5"/>
		<ellipse fill="#AAA" cx="159.45799" cy="230.24521" rx="2.5" ry="2.5"/>
		<ellipse fill="#AAA" cx="170.40361" cy="230.24521" rx="2.5" ry="2.5"/>
		<ellipse fill="#AAA" cx="170.40361" cy="229.62833" rx="2.5" ry="2.5"/>
		<ellipse fill="#AAA" cx="181.34923" cy="229.62833" rx="2.5" ry="2.5"/>
		<ellipse fill="#AAA" cx="181.34923" cy="229.62833" rx="2.5" ry="2.5"/>
		<ellipse fill="#AAA" cx="181.34923" cy="229.62833" rx="2.5" ry="2.5"/>
		<ellipse fill="#AAA" cx="181.34923" cy="229.62833" rx="2.5" ry="2.5"/>
		<ellipse fill="#AAA" cx="192.29485" cy="233.09705" rx="2.5" ry="2.5"/>
		<ellipse fill="#AAA" cx="203.24046" cy="233.09705" rx="2.5" ry="2.5"/>
		<ellipse fill="#AAA" cx="203.24046" cy="228.84457" rx="2.5" ry="2.5"/>
		<ellipse fill="#AAA" cx="203.24046" cy="228.84457" rx="2.5" ry="2.5"/>
		<ellipse fill="#AAA" cx="214.18608" cy="228.84457" rx="2.5" ry="2.5"/>
		<ellipse fill="#AAA" cx="214.18608" cy="229.37219" rx="2.5" ry="2.5"/>
		<ellipse fill="#AAA" cx="225.1317" cy="224.92197" rx="2.5" ry="2.5"/>
		<ellipse fill="#AAA" cx="225.1317" cy="224.92197" rx="2.5" ry="2.5"/>
		<ellipse fill="#AAA" cx="236.07732" cy="221.69939" rx="2.5" ry="2.5"/>
		<ellipse fill="#AAA" cx="236.07732" cy="226.74916" rx="2.5" ry="2.5"/>
		<ellipse fill="#AAA" cx="257.96857" cy="231.00687" rx="2.5" ry="2.5"/>
		<ellipse fill="#AAA" cx="257.96857" cy="231.00687" rx="2.5" ry="2.5"/>
		<ellipse fill="#AAA" cx="257.96857" cy="231.00858" rx="2.5" ry="2.5"/>
		<ellipse fill="#AAA" cx="257.96857" cy="231.00687" rx="2.5" ry="2.5"/>
		<ellipse fill="#AAA" cx="268.91418" cy="228.27405" rx="2.5" ry="2.5"/>
		<ellipse fill="#AAA" cx="268.91418" cy="228.27405" rx="2.5" ry="2.5"/>
		<ellipse fill="#AAA" cx="268.91418" cy="228.27405" rx="2.5" ry="2.5"/>
		<ellipse fill="#AAA" cx="279.8598" cy="228.27405" rx="2.5" ry="2.5"/>
		<ellipse fill="#AAA" cx="290.80539" cy="232.15752" rx="2.5" ry="2.5"/>
		<ellipse fill="#AAA" cx="290.80539" cy="232.15752" rx="2.5" ry="2.5"/>
		<ellipse fill="#AAA" cx="290.80539" cy="232.15752" rx="2.5" ry="2.5"/>
		<ellipse fill="#AAA" cx="301.75101" cy="232.15752" rx="2.5" ry="2.5"/>
		<ellipse fill="#AAA" cx="301.75101" cy="234.95834" rx="2.5" ry="2.5"/>
		<ellipse fill="#AAA" cx="312.69662" cy="209.35883" rx="2.5" ry="2.5"/>
		<ellipse fill="#AAA" cx="312.69662" cy="209.35883" rx="2.5" ry="2.5"/>
		<ellipse fill="#AAA" cx="312.69662" cy="209.35883" rx="2.5" ry="2.5"/>
		<ellipse fill="#AAA" cx="323.64224" cy="209.35883" rx="2.5" ry="2.5"/>
		<ellipse fill="#AAA" cx="334.58786" cy="228.30426" rx="2.5" ry="2.5"/>
		<ellipse fill="#AAA" cx="334.58786" cy="228.30426" rx="2.5" ry="2.5"/>
	</g>
	<clipPath id="cl_a3">
		<rect x="26.46875" y="15" width="758.53125" height="255.03906"/>
	</clipPath>
	<g clip-path="url(#cl_a3)">
		<path fill="none" stroke="#FF5454" stroke-width="1" stroke-miterlimit="4" d="M71.8931 247.196L71.8931 248.226L71.8931 247.196L82.8387 245.051L82.8387 245.051L82.8387 253.406L82.8387 247.196L82.8387 253.406L82.8387 247.196L82.8387 247.196L104.73 252.007L104.73 252.007L115.676 244.785L115.676 252.007L115.676 252.007L115.676 252.007L126.621 252.007L126.621 252.007L126.621 252.007L126.621 252.007L137.567 239.082L148.512 239.082L148.512 239.082L148.512 239.082L148.512 239.201L148.512 239.201L159.458 239.082L159.458 239.082L159.458 239.201L159.458 241.014L159.458 239.201L159.458 239.201L181.349 229.189L181.349 229.189L181.349 229.189L181.349 229.189L181.349 229.189L181.349 229.189L192.295 234.717L192.295 238.382L203.24 235.455L203.24 235.455L203.24 235.455L203.24 235.455L203.24 239.443L203.24 239.443L214.186 235.455L214.186 235.455L214.186 235.456L225.132 233.459L236.077 227.513L236.077 238.048L236.077 235.57L247.023 228.635L247.023 228.635L247.023 228.635L257.969 228.399L257.969 228.367L268.914 227.478L268.914 228.399L279.86 228.245L279.86 228.245L279.86 228.815L290.805 234.67L290.805 234.67L290.805 228.815L290.805 228.815L290.805 228.815L301.751 231.29L301.751 231.29L301.751 234.67L301.751 234.67L312.697 229.503L312.697 231.29L312.697 231.29L312.697 191.856L312.697 191.856L312.697 231.176L323.642 211.999L323.642 191.856L323.642 225.255L334.588 191.856L334.588 217.697L334.588 224.663L334.588 225.255L345.533 221.637L444.044 226.402L444.044 226.975L597.283 167.388L597.283 175.905L608.228 181.909L608.228 172.025L608.228 185.981L652.011 174.16"/>
		<ellipse fill="#FF5454" cx="71.893059" cy="247.19553" rx="2.5" ry="2.5"/>
		<ellipse fill="#FF5454" cx="71.893059" cy="248.22592" rx="2.5" ry="2.5"/>
		<ellipse fill="#FF5454" cx="71.893059" cy="247.19553" rx="2.5" ry="2.5"/>
		<ellipse fill="#FF5454" cx="82.838676" cy="245.05124" rx="2.5" ry="2.5"/>
		<ellipse fill="#FF5454" cx="82.838676" cy="245.05124" rx="2.5" ry="2.5"/>
		<ellipse fill="#FF5454" cx="82.838676" cy="253.40608" rx="2.5" ry="2.5"/>
		<ellipse fill="#FF5454" cx="82.838676" cy="247.19553" rx="2.5" ry="2.5"/>
		<ellipse fill="#FF5454" cx="82.838676" cy="253.40608" rx="2.5" ry="2.5"/>
		<ellipse fill="#FF5454" cx="82.838676" cy="247.19553" rx="2.5" ry="2.5"/>
		<ellipse fill="#FF5454" cx="82.838676" cy="247.19553" rx="2.5" ry="2.5"/>
		<ellipse fill="#FF5454" cx="104.72991" cy="252.00671" rx="2.5" ry="2.5"/>
		<ellipse fill="#FF5454" cx="104.72991" cy="252.00671" rx="2.5" ry="2.5"/>
		<ellipse fill="#FF5454" cx="115.67553" cy="244.78537" rx="2.5" ry="2.5"/>
		<ellipse fill="#FF5454" cx="115.67553" cy="252.00671" rx="2.5" ry="2.5"/>
		<ellipse fill="#FF5454" cx="115.67553" cy="252.00671" rx="2.5" ry="2.5"/>
		<ellipse fill="#FF5454" cx="115.67553" cy="252.00671" rx="2.5" ry="2.5"/>
		<ellipse fill="#FF5454" cx="126.62115" cy="252.00671" rx="2.5000038" ry="2.5"/>
		<ellipse fill="#FF5454" cx="126.62115" cy="252.00671" rx="2.5000038" ry="2.5"/>
		<ellipse fill="#FF5454" cx="126.62115" cy="252.00671" rx="2.5000038" ry="2.5"/>
		<ellipse fill="#FF5454" cx="126.62115" cy="252.00671" rx="2.5000038" ry="2.5"/>
		<ellipse fill="#FF5454" cx="137.56677" cy="239.0824" rx="2.5" ry="2.5"/>
		<ellipse fill="#FF5454" cx="148.51237" cy="239.0824" rx="2.5" ry="2.5"/>
		<ellipse fill="#FF5454" cx="148.51237" cy="239.0824" rx="2.5" ry="2.5"/>
		<ellipse fill="#FF5454" cx="148.51237" cy="239.0824" rx="2.5" ry="2.5"/>
		<ellipse fill="#FF5454" cx="148.51237" cy="239.20079" rx="2.5" ry="2.5"/>
		<ellipse fill="#FF5454" cx="148.51237" cy="239.20079" rx="2.5" ry="2.5"/>
		<ellipse fill="#FF5454" cx="159.45799" cy="239.0824" rx="2.5" ry="2.5"/>
		<ellipse fill="#FF5454" cx="159.45799" cy="239.0824" rx="2.5" ry="2.5"/>
		<ellipse fill="#FF5454" cx="159.45799" cy="239.20079" rx="2.5" ry="2.5"/>
		<ellipse fill="#FF5454" cx="159.45799" cy="241.01373" rx="2.5" ry="2.5"/>
		<ellipse fill="#FF5454" cx="159.45799" cy="239.20079" rx="2.5" ry="2.5"/>
		<ellipse fill="#FF5454" cx="159.45799" cy="239.20079" rx="2.5" ry="2.5"/>
		<ellipse fill="#FF5454" cx="181.34923" cy="229.18907" rx="2.5" ry="2.5"/>
		<ellipse fill="#FF5454" cx="181.34923" cy="229.18907" rx="2.5" ry="2.5"/>
		<ellipse fill="#FF5454" cx="181.34923" cy="229.18907" rx="2.5" ry="2.5"/>
		<ellipse fill="#FF5454" cx="181.34923" cy="229.18907" rx="2.5" ry="2.5"/>
		<ellipse fill="#FF5454" cx="181.34923" cy="229.18907" rx="2.5" ry="2.5"/>
		<ellipse fill="#FF5454" cx="181.34923" cy="229.18907" rx="2.5" ry="2.5"/>
		<ellipse fill="#FF5454" cx="192.29485" cy="234.71652" rx="2.5" ry="2.5"/>
		<ellipse fill="#FF5454" cx="192.29485" cy="238.38179" rx="2.5" ry="2.5"/>
		<ellipse fill="#FF5454" cx="203.24046" cy="235.45451" rx="2.5" ry="2.5"/>
		<ellipse fill="#FF5454" cx="203.24046" cy="235.45451" rx="2.5" ry="2.5"/>
		<ellipse fill="#FF5454" cx="203.24046" cy="235.45451" rx="2.5" ry="2.5"/>
		<ellipse fill="#FF5454" cx="203.24046" cy="235.45451" rx="2.5" ry="2.5"/>
		<ellipse fill="#FF5454" cx="203.24046" cy="239.44298" rx="2.5" ry="2.5"/>
		<ellipse fill="#FF5454" cx="203.24046" cy="239.44298" rx="2.5" ry="2.5"/>
		<ellipse fill="#FF5454" cx="214.18608" cy="235.45451" rx="2.5" ry="2.5"/>
		<ellipse fill="#FF5454" cx="214.18608" cy="235.45451" rx="2.5" ry="2.5"/>
		<ellipse fill="#FF5454" cx="214.18608" cy="235.45596" rx="2.5" ry="2.5"/>
		<ellipse fill="#FF5454" cx="225.1317" cy="233.45926" rx="2.5" ry="2.5"/>
		<ellipse fill="#FF5454" cx="236.07732" cy="227.51276" rx="2.5" ry="2.5"/>
		<ellipse fill="#FF5454" cx="236.07732" cy="238.04817" rx="2.5" ry="2.5"/>
		<ellipse fill="#FF5454" cx="236.07732" cy="235.57047" rx="2.5" ry="2.5"/>
		<ellipse fill="#FF5454" cx="247.02293" cy="228.63535" rx="2.5" ry="2.5"/>
		<ellipse fill="#FF5454" cx="247.02293" cy="228.63535" rx="2.5" ry="2.5"/>
		<ellipse fill="#FF5454" cx="247.02293" cy="228.63535" rx="2.5" ry="2.5"/>
		<ellipse fill="#FF5454" cx="257.96857" cy="228.39937" rx="2.5" ry="2.5"/>
		<ellipse fill="#FF5454" cx="257.96857" cy="228.36671" rx="2.5" ry="2.5"/>
		<ellipse fill="#FF5454" cx="268.91418" cy="227.47787" rx="2.5" ry="2.5"/>
		<ellipse fill="#FF5454" cx="268.91418" cy="228.39937" rx="2.5" ry="2.5"/>
		<ellipse fill="#FF5454" cx="279.8598" cy="228.24481" rx="2.5" ry="2.5"/>
		<ellipse fill="#FF5454" cx="279.8598" cy="228.24481" rx="2.5" ry="2.5"/>
		<ellipse fill="#FF5454" cx="279.8598" cy="228.81451" rx="2.5" ry="2.5"/>
		<ellipse fill="#FF5454" cx="290.80539" cy="234.67038" rx="2.5" ry="2.5"/>
		<ellipse fill="#FF5454" cx="290.80539" cy="234.67038" rx="2.5" ry="2.5"/>
		<ellipse fill="#FF5454" cx="290.80539" cy="228.81451" rx="2.5" ry="2.5"/>
		<ellipse fill="#FF5454" cx="290.80539" cy="228.81451" rx="2.5" ry="2.5"/>
		<ellipse fill="#FF5454" cx="290.80539" cy="228.81451" rx="2.5" ry="2.5"/>
		<ellipse fill="#FF5454" cx="301.75101" cy="231.28975" rx="2.5" ry="2.5"/>
		<ellipse fill="#FF5454" cx="301.75101" cy="231.28975" rx="2.5" ry="2.5"/>
		<ellipse fill="#FF5454" cx="301.75101" cy="234.67038" rx="2.5" ry="2.5"/>
		<ellipse fill="#FF5454" cx="301.75101" cy="234.67038" rx="2.5" ry="2.5"/>
		<ellipse fill="#FF5454" cx="312.69662" cy="229.50259" rx="2.5" ry="2.5"/>
		<ellipse fill="#FF5454" cx="312.69662" cy="231.28975" rx="2.5" ry="2.5"/>
		<ellipse fill="#FF5454" cx="312.69662" cy="231.28975" rx="2.5" ry="2.5"/>
		<ellipse fill="#FF5454" cx="312.69662" cy="191.85574" rx="2.5" ry="2.5"/>
		<ellipse fill="#FF5454" cx="312.69662" cy="191.85574" rx="2.5" ry="2.5"/>
		<ellipse fill="#FF5454" cx="312.69662" cy="231.17569" rx="2.5" ry="2.5"/>
		<ellipse fill="#FF5454" cx="323.64224" cy="211.99915" rx="2.5" ry="2.5"/>
		<ellipse fill="#FF5454" cx="323.64224" cy="191.85574" rx="2.5" ry="2.5"/>
		<ellipse fill="#FF5454" cx="323.64224" cy="225.25475" rx="2.5" ry="2.5"/>
		<ellipse fill="#FF5454" cx="334.58786" cy="191.85574" rx="2.5" ry="2.5"/>
		<ellipse fill="#FF5454" cx="334.58786" cy="217.69736" rx="2.5" ry="2.5"/>
		<ellipse fill="#FF5454" cx="334.58786" cy="224.66254" rx="2.5" ry="2.5"/>
		<ellipse fill="#FF5454" cx="334.58786" cy="225.25475" rx="2.5" ry="2.5"/>
		<ellipse fill="#FF5454" cx="345.53348" cy="221.63728" rx="2.5" ry="2.5"/>
		<ellipse fill="#FF5454" cx="444.04404" cy="226.40211" rx="2.5" ry="2.5"/>
		<ellipse fill="#FF5454" cx="444.04404" cy="226.97537" rx="2.5" ry="2.5"/>
		<ellipse fill="#FF5454" cx="597.28265" cy="167.38797" rx="2.5" ry="2.5"/>
		<ellipse fill="#FF5454" cx="597.28265" cy="175.90469" rx="2.5" ry="2.5"/>
		<ellipse fill="#FF5454" cx="608.22827" cy="181.90906" rx="2.5" ry="2.5"/>
		<ellipse fill="#FF5454" cx="608.22827" cy="172.02493" rx="2.5" ry="2.5"/>
		<ellipse fill="#FF5454" cx="608.22827" cy="185.98082" rx="2.5" ry="2.5"/>
		<ellipse fill="#FF5454" cx="652.01074" cy="174.1595" rx="2.5" ry="2.5"/>
	</g>
	<clipPath id="cl_a4">
		<rect x="26.46875" y="15" width="758.53125" height="255.03906"/>
	</clipPath>
	<g clip-path="url(#cl_a4)">
		<path fill="none" stroke="#303030" stroke-width="1" stroke-miterlimit="4" d="M564.446 112.37L564.446 116.362L597.283 158.827L597.283 152.61"/>
		<ellipse fill="#303030" cx="564.4458" cy="112.3701" rx="2.5" ry="2.5"/>
		<ellipse fill="#303030" cx="564.4458" cy="116.36208" rx="2.5" ry="2.5"/>
		<ellipse fill="#303030" cx="597.28265" cy="158.82693" rx="2.5" ry="2.5"/>
		<ellipse fill="#303030" cx="597.28265" cy="152.60977" rx="2.5" ry="2.5"/>
	</g>
	<clipPath id="cl_a5">
		<rect x="26.46875" y="15" width="758.53125" height="255.03906"/>
	</clipPath>
	<g clip-path="url(#cl_a5)">
		<path fill="none" stroke="blue" stroke-width="1" stroke-miterlimit="4" d="M71.8931 230.27L93.7843 232.615L93.7843 232.763L104.73 228.289L115.676 227.701L115.676 228.891L126.621 227.099L126.621 223.292L126.621 231.086L148.512 221.813L159.458 230.2L203.24 230.623L214.186 232.304L214.186 232.304L225.132 230.134L247.023 230.134L268.914 229.253L268.914 229.253L268.914 229.253L268.914 229.253L268.914 229.253L279.86 229.253L290.805 229.499L290.805 229.499L301.751 229.499L301.751 229.499L312.697 230.305L312.697 227.546L312.697 230.305L553.5 111.474L564.446 146.445L597.283 143.378L608.228 143.378"/>
		<ellipse fill="blue" cx="71.893059" cy="230.27005" rx="2.5" ry="2.5"/>
		<ellipse fill="blue" cx="93.784294" cy="232.61505" rx="2.5" ry="2.5"/>
		<ellipse fill="blue" cx="93.784294" cy="232.76334" rx="2.5" ry="2.5"/>
		<ellipse fill="blue" cx="104.72991" cy="228.28934" rx="2.5" ry="2.5"/>
		<ellipse fill="blue" cx="115.67553" cy="227.70053" rx="2.5" ry="2.5"/>
		<ellipse fill="blue" cx="115.67553" cy="228.89133" rx="2.5" ry="2.5"/>
		<ellipse fill="blue" cx="126.62115" cy="227.09941" rx="2.5000038" ry="2.5"/>
		<ellipse fill="blue" cx="126.62115" cy="223.2925" rx="2.5000038" ry="2.5"/>
		<ellipse fill="blue" cx="126.62115" cy="231.08583" rx="2.5000038" ry="2.5"/>
		<ellipse fill="blue" cx="148.51237" cy="221.81264" rx="2.5" ry="2.5"/>
		<ellipse fill="blue" cx="159.45799" cy="230.19984" rx="2.5" ry="2.5"/>
		<ellipse fill="blue" cx="203.24046" cy="230.62299" rx="2.5" ry="2.5"/>
		<ellipse fill="blue" cx="214.18608" cy="232.3044" rx="2.5" ry="2.5"/>
		<ellipse fill="blue" cx="214.18608" cy="232.3044" rx="2.5" ry="2.5"/>
		<ellipse fill="blue" cx="225.1317" cy="230.13412" rx="2.5" ry="2.5"/>
		<ellipse fill="blue" cx="247.02293" cy="230.13412" rx="2.5" ry="2.5"/>
		<ellipse fill="blue" cx="268.91418" cy="229.2533" rx="2.5" ry="2.5"/>
		<ellipse fill="blue" cx="268.91418" cy="229.2533" rx="2.5" ry="2.5"/>
		<ellipse fill="blue" cx="268.91418" cy="229.2533" rx="2.5" ry="2.5"/>
		<ellipse fill="blue" cx="268.91418" cy="229.2533" rx="2.5" ry="2.5"/>
		<ellipse fill="blue" cx="268.91418" cy="229.2533" rx="2.5" ry="2.5"/>
		<ellipse fill="blue" cx="279.8598" cy="229.2533" rx="2.5" ry="2.5"/>
		<ellipse fill="blue" cx="290.80539" cy="229.49854" rx="2.5" ry="2.5"/>
		<ellipse fill="blue" cx="290.80539" cy="229.49854" rx="2.5" ry="2.5"/>
		<ellipse fill="blue" cx="301.75101" cy="229.49854" rx="2.5" ry="2.5"/>
		<ellipse fill="blue" cx="301.75101" cy="229.49854" rx="2.5" ry="2.5"/>
		<ellipse fill="blue" cx="312.69662" cy="230.30495" rx="2.5" ry="2.5"/>
		<ellipse fill="blue" cx="312.69662" cy="227.54578" rx="2.5" ry="2.5"/>
		<ellipse fill="blue" cx="312.69662" cy="230.30495" rx="2.5" ry="2.5"/>
		<ellipse fill="blue" cx="553.50018" cy="111.47443" rx="2.5" ry="2.5"/>
		<ellipse fill="blue" cx="564.4458" cy="146.4447" rx="2.5" ry="2.5"/>
		<ellipse fill="blue" cx="597.28265" cy="143.37796" rx="2.5" ry="2.5"/>
		<ellipse fill="blue" cx="608.22827" cy="143.37796" rx="2.5" ry="2.5"/>
	</g>
	<clipPath id="cl_a6">
		<rect x="26.46875" y="15" width="758.53125" height="255.03906"/>
	</clipPath>
	<g clip-path="url(#cl_a6)">
		<path fill="none" stroke="#6060FF" stroke-width="1" stroke-miterlimit="4" d="M93.7843 246.353L93.7843 244.166L93.7843 244.166L126.621 241.39L148.512 244.481L148.512 244.481L148.512 244.481L148.512 236.139L148.512 234.615L181.349 232.638L181.349 231.122L181.349 232.264L214.186 239.301L214.186 239.301L214.186 231.844L214.186 231.844L214.186 231.844L214.186 231.844L214.186 231.844L225.132 237.52L225.132 237.52L225.132 244.793L225.132 245.716L236.077 237.52L257.969 228.985L257.969 237.52L257.969 237.52L268.914 228.985L268.914 227.042L279.86 226.333L290.805 234.16L290.805 234.16L301.751 241.608L301.751 241.608L323.642 239.712L323.642 241.768L334.588 238.636L334.588 231.671L356.479 236.818L356.479 236.818L356.479 241.677L378.37 240.776L378.37 240.776L389.316 240.739L400.262 235.625L400.262 240.827L608.228 172.507L608.228 172.507L619.174 173.461L619.174 173.461L619.174 173.461L630.12 144.069L630.12 149.288L630.12 173.461L641.065 133.288L652.011 134.065"/>
		<ellipse fill="#6060FF" cx="93.784294" cy="246.35272" rx="2.5" ry="2.5"/>
		<ellipse fill="#6060FF" cx="93.784294" cy="244.16612" rx="2.5" ry="2.5"/>
		<ellipse fill="#6060FF" cx="93.784294" cy="244.16612" rx="2.5" ry="2.5"/>
		<ellipse fill="#6060FF" cx="126.62115" cy="241.39046" rx="2.5000038" ry="2.5"/>
		<ellipse fill="#6060FF" cx="148.51237" cy="244.48105" rx="2.5" ry="2.5"/>
		<ellipse fill="#6060FF" cx="148.51237" cy="244.48105" rx="2.5" ry="2.5"/>
		<ellipse fill="#6060FF" cx="148.51237" cy="244.48105" rx="2.5" ry="2.5"/>
		<ellipse fill="#6060FF" cx="148.51237" cy="236.13875" rx="2.5" ry="2.5"/>
		<ellipse fill="#6060FF" cx="148.51237" cy="234.61473" rx="2.5" ry="2.5"/>
		<ellipse fill="#6060FF" cx="181.34923" cy="232.63823" rx="2.5" ry="2.5"/>
		<ellipse fill="#6060FF" cx="181.34923" cy="231.12183" rx="2.5" ry="2.5"/>
		<ellipse fill="#6060FF" cx="181.34923" cy="232.26379" rx="2.5" ry="2.5"/>
		<ellipse fill="#6060FF" cx="214.18608" cy="239.30132" rx="2.5" ry="2.5"/>
		<ellipse fill="#6060FF" cx="214.18608" cy="239.30132" rx="2.5" ry="2.5"/>
		<ellipse fill="#6060FF" cx="214.18608" cy="231.84375" rx="2.5" ry="2.5"/>
		<ellipse fill="#6060FF" cx="214.18608" cy="231.84375" rx="2.5" ry="2.5"/>
		<ellipse fill="#6060FF" cx="214.18608" cy="231.84375" rx="2.5" ry="2.5"/>
		<ellipse fill="#6060FF" cx="214.18608" cy="231.84375" rx="2.5" ry="2.5"/>
		<ellipse fill="#6060FF" cx="214.18608" cy="231.84375" rx="2.5" ry="2.5"/>
		<ellipse fill="#6060FF" cx="225.1317" cy="237.51976" rx="2.5" ry="2.5"/>
		<ellipse fill="#6060FF" cx="225.1317" cy="237.51976" rx="2.5" ry="2.5"/>
		<ellipse fill="#6060FF" cx="225.1317" cy="244.79332" rx="2.5" ry="2.5"/>
		<ellipse fill="#6060FF" cx="225.1317" cy="245.71622" rx="2.5" ry="2.5"/>
		<ellipse fill="#6060FF" cx="236.07732" cy="237.51976" rx="2.5" ry="2.5"/>
		<ellipse fill="#6060FF" cx="257.96857" cy="228.98543" rx="2.5" ry="2.5"/>
		<ellipse fill="#6060FF" cx="257.96857" cy="237.51976" rx="2.5" ry="2.5"/>
		<ellipse fill="#6060FF" cx="257.96857" cy="237.51976" rx="2.5" ry="2.5"/>
		<ellipse fill="#6060FF" cx="268.91418" cy="228.98543" rx="2.5" ry="2.5"/>
		<ellipse fill="#6060FF" cx="268.91418" cy="227.04228" rx="2.5" ry="2.5"/>
		<ellipse fill="#6060FF" cx="279.8598" cy="226.33304" rx="2.5" ry="2.5"/>
		<ellipse fill="#6060FF" cx="290.80539" cy="234.16016" rx="2.5" ry="2.5"/>
		<ellipse fill="#6060FF" cx="290.80539" cy="234.16016" rx="2.5" ry="2.5"/>
		<ellipse fill="#6060FF" cx="301.75101" cy="241.60754" rx="2.5" ry="2.5"/>
		<ellipse fill="#6060FF" cx="301.75101" cy="241.60754" rx="2.5" ry="2.5"/>
		<ellipse fill="#6060FF" cx="323.64224" cy="239.7117" rx="2.5" ry="2.5"/>
		<ellipse fill="#6060FF" cx="323.64224" cy="241.76819" rx="2.5" ry="2.5"/>
		<ellipse fill="#6060FF" cx="334.58786" cy="238.6358" rx="2.5" ry="2.5"/>
		<ellipse fill="#6060FF" cx="334.58786" cy="231.67067" rx="2.5" ry="2.5"/>
		<ellipse fill="#6060FF" cx="356.4791" cy="236.81793" rx="2.5" ry="2.5"/>
		<ellipse fill="#6060FF" cx="356.4791" cy="236.81793" rx="2.5" ry="2.5"/>
		<ellipse fill="#6060FF" cx="356.4791" cy="241.67671" rx="2.5" ry="2.5"/>
		<ellipse fill="#6060FF" cx="378.37033" cy="240.77582" rx="2.5" ry="2.5"/>
		<ellipse fill="#6060FF" cx="378.37033" cy="240.77582" rx="2.5" ry="2.5"/>
		<ellipse fill="#6060FF" cx="389.31595" cy="240.7394" rx="2.5" ry="2.5"/>
		<ellipse fill="#6060FF" cx="400.26157" cy="235.62546" rx="2.5" ry="2.5"/>
		<ellipse fill="#6060FF" cx="400.26157" cy="240.82654" rx="2.5" ry="2.5"/>
		<ellipse fill="#6060FF" cx="608.22827" cy="172.50668" rx="2.5" ry="2.5"/>
		<ellipse fill="#6060FF" cx="608.22827" cy="172.50668" rx="2.5" ry="2.5"/>
		<ellipse fill="#6060FF" cx="619.17389" cy="173.46146" rx="2.5" ry="2.5"/>
		<ellipse fill="#6060FF" cx="619.17389" cy="173.46146" rx="2.5" ry="2.5"/>
		<ellipse fill="#6060FF" cx="619.17389" cy="173.46146" rx="2.5" ry="2.5"/>
		<ellipse fill="#6060FF" cx="630.11951" cy="144.06885" rx="2.5" ry="2.5"/>
		<ellipse fill="#6060FF" cx="630.11951" cy="149.28815" rx="2.5" ry="2.5"/>
		<ellipse fill="#6060FF" cx="630.11951" cy="173.46146" rx="2.5" ry="2.5"/>
		<ellipse fill="#6060FF" cx="641.06512" cy="133.28764" rx="2.5" ry="2.5"/>
		<ellipse fill="#6060FF" cx="652.01074" cy="134.06516" rx="2.5" ry="2.5"/>
	</g>
	<clipPath id="cl_a7">
		<rect x="26.46875" y="15" width="758.53125" height="255.03906"/>
	</clipPath>
	<g clip-path="url(#cl_a7)">
		<path fill="none" stroke="yellow" stroke-width="1" stroke-miterlimit="4" d="M170.404 218.281L181.349 220.513L192.295 214.978L203.24 217.919L214.186 217.919L225.132 214.95L257.969 226.573L268.914 224.189L279.86 223.712L290.805 223.979L301.751 228.64L301.751 228.64L323.642 230.759"/>
		<ellipse fill="yellow" cx="170.40361" cy="218.28058" rx="2.5" ry="2.5"/>
		<ellipse fill="yellow" cx="181.34923" cy="220.51274" rx="2.5" ry="2.5"/>
		<ellipse fill="yellow" cx="192.29485" cy="214.97818" rx="2.5" ry="2.5"/>
		<ellipse fill="yellow" cx="203.24046" cy="217.91902" rx="2.5" ry="2.5"/>
		<ellipse fill="yellow" cx="214.18608" cy="217.91902" rx="2.5" ry="2.5"/>
		<ellipse fill="yellow" cx="225.1317" cy="214.94957" rx="2.5" ry="2.5"/>
		<ellipse fill="yellow" cx="257.96857" cy="226.5726" rx="2.5" ry="2.5"/>
		<ellipse fill="yellow" cx="268.91418" cy="224.18887" rx="2.5" ry="2.5"/>
		<ellipse fill="yellow" cx="279.8598" cy="223.71231" rx="2.5" ry="2.5"/>
		<ellipse fill="yellow" cx="290.80539" cy="223.9787" rx="2.5" ry="2.5"/>
		<ellipse fill="yellow" cx="301.75101" cy="228.64029" rx="2.5" ry="2.5"/>
		<ellipse fill="yellow" cx="301.75101" cy="228.64029" rx="2.5" ry="2.5"/>
		<ellipse fill="yellow" cx="323.64224" cy="230.7587" rx="2.5" ry="2.5"/>
	</g>
	<clipPath id="cl_a8">
		<rect x="26.46875" y="15" width="758.53125" height="255.03906"/>
	</clipPath>
	<g clip-path="url(#cl_a8)">
		<path fill="none" stroke="#FFB600" stroke-width="1" stroke-miterlimit="4" d="M301.751 236.712L312.697 236.712L323.642 236.712"/>
		<ellipse fill="#FFB600" cx="301.75101" cy="236.71231" rx="2.5" ry="2.5"/>
		<ellipse fill="#FFB600" cx="312.69662" cy="236.71231" rx="2.5" ry="2.5"/>
		<ellipse fill="#FFB600" cx="323.64224" cy="236.71231" rx="2.5" ry="2.5"/>
	</g>
	<clipPath id="cl_a9">
		<rect x="26.46875" y="15" width="758.53125" height="255.03906"/>
	</clipPath>
	<g clip-path="url(#cl_a9)">
		<path fill="none" stroke="#FFBFBF" stroke-width="1" stroke-miterlimit="4" d="M126.621 237.044L126.621 237.044L148.512 241.006L159.458 240.682L159.458 239.865L170.404 240.561L225.132 239.714L225.132 236.71L236.077 242.056L247.023 230.114L279.86 231.806L290.805 231.087L323.642 229.42L334.588 229.414L345.533 225.2L356.479 225.2L378.37 194.96L389.316 194.96L608.228 198.133L608.228 190.393"/>
		<ellipse fill="#FFBFBF" cx="126.62115" cy="237.04395" rx="2.5000038" ry="2.5"/>
		<ellipse fill="#FFBFBF" cx="126.62115" cy="237.04395" rx="2.5000038" ry="2.5"/>
		<ellipse fill="#FFBFBF" cx="148.51237" cy="241.00597" rx="2.5" ry="2.5"/>
		<ellipse fill="#FFBFBF" cx="159.45799" cy="240.68222" rx="2.5" ry="2.5"/>
		<ellipse fill="#FFBFBF" cx="159.45799" cy="239.86459" rx="2.5" ry="2.5"/>
		<ellipse fill="#FFBFBF" cx="170.40361" cy="240.56061" rx="2.5" ry="2.5"/>
		<ellipse fill="#FFBFBF" cx="225.1317" cy="239.71356" rx="2.5" ry="2.5"/>
		<ellipse fill="#FFBFBF" cx="225.1317" cy="236.70963" rx="2.5" ry="2.5"/>
		<ellipse fill="#FFBFBF" cx="236.07732" cy="242.05627" rx="2.5" ry="2.5"/>
		<ellipse fill="#FFBFBF" cx="247.02293" cy="230.11397" rx="2.5" ry="2.5"/>
		<ellipse fill="#FFBFBF" cx="279.8598" cy="231.80609" rx="2.5" ry="2.5"/>
		<ellipse fill="#FFBFBF" cx="290.80539" cy="231.08652" rx="2.5" ry="2.5"/>
		<ellipse fill="#FFBFBF" cx="323.64224" cy="229.42007" rx="2.5" ry="2.5"/>
		<ellipse fill="#FFBFBF" cx="334.58786" cy="229.41435" rx="2.5" ry="2.5"/>
		<ellipse fill="#FFBFBF" cx="345.53348" cy="225.19963" rx="2.5" ry="2.5"/>
		<ellipse fill="#FFBFBF" cx="356.4791" cy="225.19963" rx="2.5" ry="2.5"/>
		<ellipse fill="#FFBFBF" cx="378.37033" cy="194.96007" rx="2.5" ry="2.5"/>
		<ellipse fill="#FFBFBF" cx="389.31595" cy="194.96007" rx="2.5" ry="2.5"/>
		<ellipse fill="#FFBFBF" cx="608.22827" cy="198.13303" rx="2.5" ry="2.5"/>
		<ellipse fill="#FFBFBF" cx="608.22827" cy="190.39346" rx="2.5" ry="2.5"/>
	</g>
	<clipPath id="cl_aa">
		<rect x="26.46875" y="15" width="758.53125" height="255.03906"/>
	</clipPath>
	<g clip-path="url(#cl_aa)">
		<path fill="none" stroke="#AB4E00" stroke-width="1" stroke-miterlimit="4" d="M257.969 228.584L268.914 228.635"/>
		<ellipse fill="#AB4E00" cx="257.96857" cy="228.58377" rx="2.5" ry="2.5"/>
		<ellipse fill="#AB4E00" cx="268.91418" cy="228.63477" rx="2.5" ry="2.5"/>
	</g>
	<clipPath id="cl_ab">
		<rect x="26.46875" y="15" width="758.53125" height="255.03906"/>
	</clipPath>
	<g clip-path="url(#cl_ab)">
		<path fill="none" stroke="#AAF" stroke-width="1" stroke-miterlimit="4" d="M290.805 226.629L290.805 226.629"/>
		<ellipse fill="#AAF" cx="290.80539" cy="226.62856" rx="2.5" ry="2.5"/>
		<ellipse fill="#AAF" cx="290.80539" cy="226.62856" rx="2.5" ry="2.5"/>
	</g>
	<clipPath id="cl_ac">
		<rect x="26.46875" y="15" width="758.53125" height="255.03906"/>
	</clipPath>
	<g clip-path="url(#cl_ac)">
		<path fill="#FF5454" d="M236.577 189.266L236.577 189.453L236.077 189.453L236.102 188.954L245.903 189.439L245.854 190.438L235.577 189.929L235.577 189.266L236.577 189.266ZM255.891 189.933L265.879 190.427L265.829 191.426L255.841 190.932L255.891 189.933ZM273.27 185.657L279.83 178.6L280.832 179.507L280.161 180.248L279.524 179.672L279.86 179.302L280.226 179.642L274.002 186.338L273.27 185.657ZM288.245 186.218L291.141 188.84L290.805 189.211L290.305 189.211L290.305 183.117L291.305 183.117L291.305 190.338L287.574 186.96L288.245 186.218ZM296.285 176.391L301.553 174.116L301.751 174.575L301.251 174.575L301.251 170.313L302.251 170.313L302.251 174.904L296.681 177.309L296.285 176.391ZM307.474 162.633L314.894 155.929L315.564 156.671L308.145 163.375L307.474 162.633ZM322.314 149.225L329.733 142.52L330.404 143.262L322.984 149.967L322.314 149.225ZM337.153 135.816L344.573 129.112L345.243 129.854L337.824 136.558L337.153 135.816ZM345.033 119.761L345.033 109.761L346.033 109.761L346.033 119.761L345.033 119.761ZM355.039 108.753L356.7 108.75L362.599 115.259L361.858 115.93L356.109 109.586L356.479 109.251L356.48 109.751L355.041 109.753L355.039 108.753ZM369.314 122.668L376.029 130.078L375.288 130.75L368.573 123.34L369.314 122.668ZM381.595 138.446L386.261 147.29L385.376 147.757L380.71 138.912L381.595 138.446ZM391.863 154.345L400.396 156.728L400.127 157.691L391.594 155.308L391.863 154.345Z"/>
		<ellipse fill="#FF5454" cx="236.07732" cy="189.26614" rx="2.5" ry="2.5"/>
		<ellipse fill="#FF5454" cx="236.07732" cy="189.45306" rx="2.5" ry="2.5"/>
		<ellipse fill="#FF5454" cx="247.02293" cy="189.99493" rx="2.5" ry="2.5"/>
		<ellipse fill="#FF5454" cx="268.91418" cy="191.078" rx="2.5" ry="2.5"/>
		<ellipse fill="#FF5454" cx="279.8598" cy="179.30161" rx="2.5" ry="2.5"/>
		<ellipse fill="#FF5454" cx="290.80539" cy="189.21075" rx="2.5" ry="2.5"/>
		<ellipse fill="#FF5454" cx="290.80539" cy="179.30161" rx="2.5" ry="2.5"/>
		<ellipse fill="#FF5454" cx="301.75101" cy="174.57492" rx="2.5" ry="2.5"/>
		<ellipse fill="#FF5454" cx="301.75101" cy="168.478" rx="2.5" ry="2.5"/>
		<ellipse fill="#FF5454" cx="345.53348" cy="128.91795" rx="2.5" ry="2.5"/>
		<ellipse fill="#FF5454" cx="345.53348" cy="126.82307" rx="2.5" ry="2.5"/>
		<ellipse fill="#FF5454" cx="345.53348" cy="109.26735" rx="2.5" ry="2.5"/>
		<ellipse fill="#FF5454" cx="356.4791" cy="109.25072" rx="2.5" ry="2.5"/>
		<ellipse fill="#FF5454" cx="378.37033" cy="133.40565" rx="2.5" ry="2.5"/>
		<ellipse fill="#FF5454" cx="389.31595" cy="154.15302" rx="2.5" ry="2.5"/>
		<ellipse fill="#FF5454" cx="400.26157" cy="157.20966" rx="2.5" ry="2.5"/>
	</g>
	<clipPath id="cl_ad">
		<rect x="26.46875" y="15" width="758.53125" height="255.03906"/>
	</clipPath>
	<g clip-path="url(#cl_ad)">
		<path fill="#AAA" d="M268.771 195.814L278.351 192.947L278.638 193.905L269.058 196.772L268.771 195.814ZM288.434 192.517L290.805 192.517L290.805 193.017L290.319 192.901L292.085 185.48L293.058 185.711L291.2 193.517L288.434 193.517L288.434 192.517ZM294.401 175.751L296.716 166.023L297.689 166.255L295.374 175.983L294.401 175.751ZM299.031 156.295L301.265 146.911L302.235 146.902L302.324 147.246L301.355 147.495L301.267 147.152L301.751 147.027L302.237 147.143L300.004 156.526L299.031 156.295ZM304.816 156.93L307.309 166.614L306.341 166.864L303.848 157.179L304.816 156.93ZM309.802 176.299L312.295 185.983L311.327 186.232L308.834 176.548L309.802 176.299ZM312.197 183.1L312.197 173.1L313.197 173.1L313.197 183.1L312.197 183.1ZM315.908 167.746L324.614 172.666L324.122 173.537L315.416 168.617L315.908 167.746ZM333.32 177.586L334.834 178.442L334.588 178.877L334.39 178.418L341.978 175.152L342.373 176.07L334.558 179.434L332.828 178.457L333.32 177.586ZM351.163 171.198L356.536 168.885L360.401 171.57L359.83 172.391L356.194 169.865L356.479 169.454L356.677 169.913L351.559 172.116L351.163 171.198Z"/>
		<ellipse fill="#AAA" cx="268.91418" cy="196.29326" rx="2.5" ry="2.5"/>
		<ellipse fill="#AAA" cx="279.8598" cy="193.01712" rx="2.5" ry="2.5"/>
		<ellipse fill="#AAA" cx="290.80539" cy="193.01712" rx="2.5" ry="2.5"/>
		<ellipse fill="#AAA" cx="301.75101" cy="147.0271" rx="2.5" ry="2.5"/>
		<ellipse fill="#AAA" cx="312.69662" cy="189.5477" rx="2.5" ry="2.5"/>
		<ellipse fill="#AAA" cx="312.69662" cy="166.50598" rx="2.5" ry="2.5"/>
		<ellipse fill="#AAA" cx="334.58786" cy="178.87695" rx="2.5" ry="2.5"/>
		<ellipse fill="#AAA" cx="356.4791" cy="169.45419" rx="2.5" ry="2.5"/>
		<ellipse fill="#AAA" cx="367.42471" cy="177.05978" rx="2.5" ry="2.5"/>
	</g>
	<clipPath id="cl_ae">
		<rect x="26.46875" y="15" width="758.53125" height="255.03906"/>
	</clipPath>
	<g clip-path="url(#cl_ae)">
		<path fill="#303030" d=""/>
		<ellipse fill="#303030" cx="608.22827" cy="147.91345" rx="2.5" ry="2.5"/>
	</g>
	<clipPath id="cl_af">
		<rect x="26.46875" y="15" width="758.53125" height="255.03906"/>
	</clipPath>
	<g clip-path="url(#cl_af)">
		<path fill="#FF9300" d=""/>
		<ellipse fill="#FF9300" cx="608.22827" cy="45.603516" rx="2.5" ry="2.5"/>
	</g>
	<clipPath id="cl_b0">
		<rect x="26.46875" y="15" width="758.53125" height="255.03906"/>
	</clipPath>
	<g clip-path="url(#cl_b0)">
		<path fill="#FF5454" d=""/>
		<ellipse fill="#FF5454" cx="290.80539" cy="189.21075" rx="2.5" ry="2.5"/>
	</g>
	<clipPath id="cl_b1">
		<rect x="26.46875" y="15" width="758.53125" height="255.03906"/>
	</clipPath>
	<g clip-path="url(#cl_b1)">
		<path fill="#FFBFBF" d="M301.62 188.844L311.271 186.225L311.533 187.19L301.882 189.809L301.62 188.844ZM320.922 183.607L330.573 180.988L330.835 181.953L321.184 184.572L320.922 183.607ZM340.224 178.369L349.875 175.751L350.137 176.716L340.486 179.334L340.224 178.369ZM359.526 173.132L369.177 170.513L369.439 171.479L359.788 174.097L359.526 173.132ZM378.828 167.895L388.48 165.276L388.741 166.241L379.09 168.86L378.828 167.895ZM398.131 162.658L407.782 160.039L408.044 161.004L398.392 163.623L398.131 162.658ZM417.695 158.385L427.63 157.254L427.743 158.247L417.808 159.379L417.695 158.385ZM437.566 156.122L447.502 154.991L447.615 155.984L437.679 157.116L437.566 156.122ZM457.438 153.859L467.373 152.727L467.487 153.721L457.551 154.853L457.438 153.859ZM477.309 151.596L487.245 150.464L487.358 151.458L477.422 152.589L477.309 151.596ZM497.181 149.332L507.116 148.201L507.23 149.194L497.294 150.326L497.181 149.332ZM517.052 147.069L526.988 145.938L527.101 146.931L517.165 148.063L517.052 147.069ZM536.924 144.806L546.859 143.674L546.973 144.668L537.037 145.8L536.924 144.806ZM556.795 142.543L566.731 141.411L566.844 142.405L556.908 143.536L556.795 142.543Z"/>
		<ellipse fill="#FFBFBF" cx="301.75101" cy="189.3264" rx="2.5" ry="2.5"/>
		<ellipse fill="#FFBFBF" cx="301.75101" cy="189.3264" rx="2.5" ry="2.5"/>
		<ellipse fill="#FFBFBF" cx="301.75101" cy="189.3264" rx="2.5" ry="2.5"/>
		<ellipse fill="#FFBFBF" cx="301.75101" cy="189.3264" rx="2.5" ry="2.5"/>
		<ellipse fill="#FFBFBF" cx="411.20718" cy="159.62762" rx="2.5" ry="2.5"/>
		<ellipse fill="#FFBFBF" cx="575.39142" cy="140.92789" rx="2.5" ry="2.5"/>
		<ellipse fill="#FFBFBF" cx="575.39142" cy="140.92789" rx="2.5" ry="2.5"/>
		<ellipse fill="#FFBFBF" cx="575.39142" cy="140.92789" rx="2.5" ry="2.5"/>
		<ellipse fill="#FFBFBF" cx="575.39142" cy="140.92789" rx="2.5" ry="2.5"/>
	</g>
	<clipPath id="cl_b2">
		<rect x="26.46875" y="15" width="758.53125" height="255.03906"/>
	</clipPath>
	<g clip-path="url(#cl_b2)">
		<path fill="#AFA" d=""/>
		<ellipse fill="#AFA" cx="334.58786" cy="201.20786" rx="2.5" ry="2.5"/>
	</g>
	<clipPath id="cl_b3">
		<rect x="26.46875" y="15" width="758.53125" height="255.03906"/>
	</clipPath>
	<g clip-path="url(#cl_b3)">
		<path fill="#C00000" d="M618.928 105.458L627.633 100.536L628.125 101.407L619.42 106.328M636.338 95.6147L645.043 90.6931L645.535 91.5636L636.83 96.4852M653.748 85.7715L662.453 80.85L662.945 81.7205L654.24 86.642M671.158 75.9284L679.863 71.0068L680.355 71.8773L671.65 76.7989M688.568 66.0852L697.273 61.1636L697.765 62.0341L689.06 66.9557M705.978 56.242L714.683 51.3204L715.176 52.1909L706.47 57.1125M723.388 46.3988L732.093 41.4772L732.586 42.3477L723.881 47.2693M740.799 36.5556L749.504 31.634L749.996 32.5045L741.291 37.4261"/>
		<ellipse fill="#C00000" cx="619.17389" cy="105.89317" rx="2.5" ry="2.5"/>
		<ellipse fill="#C00000" cx="750.5213" cy="31.63298" rx="2.5" ry="2.5"/>
	</g>
	<clipPath id="cl_b4">
		<rect x="26.46875" y="15" width="758.53125" height="255.03906"/>
	</clipPath>
	<g clip-path="url(#cl_b4)">
		<path fill="#6060FF" d="M444.041 127.912L454.041 127.857L454.047 128.857L444.047 128.911L444.041 127.912ZM464.041 127.802L474.041 127.747L474.046 128.747L464.046 128.802L464.041 127.802ZM484.041 127.692L494.041 127.638L494.046 128.638L484.046 128.692L484.041 127.692ZM504.04 127.583L514.04 127.528L514.046 128.528L504.046 128.583L504.04 127.583ZM524.04 127.473L534.04 127.419L534.045 128.419L524.046 128.473L524.04 127.473ZM544.04 127.364L554.04 127.309L554.045 128.309L544.045 128.364L544.04 127.364ZM564.039 127.254L574.039 127.2L574.045 128.2L564.045 128.254L564.039 127.254ZM584.039 127.145L594.039 127.09L594.044 128.09L584.045 128.145L584.039 127.145ZM604.039 127.035L614.039 126.98L614.044 127.98L604.044 128.035L604.039 127.035ZM624.039 126.926L634.038 126.871L634.044 127.871L624.044 127.926L624.039 126.926ZM644.041 126.832L654.041 126.832L654.041 127.832L644.041 127.832L644.041 126.832Z"/>
		<ellipse fill="#6060FF" cx="444.04404" cy="128.4115" rx="2.5" ry="2.5"/>
		<ellipse fill="#6060FF" cx="641.06512" cy="127.33244" rx="2.5" ry="2.5"/>
		<ellipse fill="#6060FF" cx="641.06512" cy="127.33244" rx="2.5" ry="2.5"/>
		<ellipse fill="#6060FF" cx="662.95636" cy="127.33244" rx="2.5" ry="2.5"/>
	</g>
	<path fill="none" stroke="black" stroke-width="1" stroke-miterlimit="4" d="M60.9474 270.039L60.9474 274.039"/>
	<text transform="translate(60.9474 276.039)" font-size="12" font-family="Segoe UI" x="-14.238281, -7.7695313, -5.1679688, 1.3007813, 7.7695313, " y="11.027344, ">
			1,890
	</text>
	<path fill="none" stroke="black" stroke-width="1" stroke-miterlimit="4" d="M115.676 270.039L115.676 274.039"/>
	<text transform="translate(115.676 276.039)" font-size="12" font-family="Segoe UI" x="-14.238281, -7.7695313, -5.1679688, 1.3007813, 7.7695313, " y="11.027344, ">
			1,895
	</text>
	<path fill="none" stroke="black" stroke-width="1" stroke-miterlimit="4" d="M170.404 270.039L170.404 274.039"/>
	<text transform="translate(170.404 276.039)" font-size="12" font-family="Segoe UI" x="-14.238281, -7.7695313, -5.1679688, 1.3007813, 7.7695313, " y="11.027344, ">
			1,900
	</text>
	<path fill="none" stroke="black" stroke-width="1" stroke-miterlimit="4" d="M225.132 270.039L225.132 274.039"/>
	<text transform="translate(225.132 276.039)" font-size="12" font-family="Segoe UI" x="-14.238281, -7.7695313, -5.1679688, 1.3007813, 7.7695313, " y="11.027344, ">
			1,905
	</text>
	<path fill="none" stroke="black" stroke-width="1" stroke-miterlimit="4" d="M279.86 270.039L279.86 274.039"/>
	<text transform="translate(279.86 276.039)" font-size="12" font-family="Segoe UI" x="-14.238281, -7.7695313, -5.1679688, 1.3007813, 7.7695313, " y="11.027344, ">
			1,910
	</text>
	<path fill="none" stroke="black" stroke-width="1" stroke-miterlimit="4" d="M334.588 270.039L334.588 274.039"/>
	<text transform="translate(334.588 276.039)" font-size="12" font-family="Segoe UI" x="-14.238281, -7.7695313, -5.1679688, 1.3007813, 7.7695313, " y="11.027344, ">
			1,915
	</text>
	<path fill="none" stroke="black" stroke-width="1" stroke-miterlimit="4" d="M389.316 270.039L389.316 274.039"/>
	<text transform="translate(389.316 276.039)" font-size="12" font-family="Segoe UI" x="-14.238281, -7.7695313, -5.1679688, 1.3007813, 7.7695313, " y="11.027344, ">
			1,920
	</text>
	<path fill="none" stroke="black" stroke-width="1" stroke-miterlimit="4" d="M444.044 270.039L444.044 274.039"/>
	<text transform="translate(444.044 276.039)" font-size="12" font-family="Segoe UI" x="-14.238281, -7.7695313, -5.1679688, 1.3007813, 7.7695313, " y="11.027344, ">
			1,925
	</text>
	<path fill="none" stroke="black" stroke-width="1" stroke-miterlimit="4" d="M498.772 270.039L498.772 274.039"/>
	<text transform="translate(498.772 276.039)" font-size="12" font-family="Segoe UI" x="-14.238281, -7.7695313, -5.1679688, 1.3007813, 7.7695313, " y="11.027344, ">
			1,930
	</text>
	<path fill="none" stroke="black" stroke-width="1" stroke-miterlimit="4" d="M553.5 270.039L553.5 274.039"/>
	<text transform="translate(553.5 276.039)" font-size="12" font-family="Segoe UI" x="-14.238281, -7.7695313, -5.1679688, 1.3007813, 7.7695313, " y="11.027344, ">
			1,935
	</text>
	<path fill="none" stroke="black" stroke-width="1" stroke-miterlimit="4" d="M608.228 270.039L608.228 274.039"/>
	<text transform="translate(608.228 276.039)" font-size="12" font-family="Segoe UI" x="-14.238281, -7.7695313, -5.1679688, 1.3007813, 7.7695313, " y="11.027344, ">
			1,940
	</text>
	<path fill="none" stroke="black" stroke-width="1" stroke-miterlimit="4" d="M662.956 270.039L662.956 274.039"/>
	<text transform="translate(662.956 276.039)" font-size="12" font-family="Segoe UI" x="-14.238281, -7.7695313, -5.1679688, 1.3007813, 7.7695313, " y="11.027344, ">
			1,945
	</text>
	<path fill="none" stroke="black" stroke-width="1" stroke-miterlimit="4" d="M717.684 270.039L717.684 274.039"/>
	<text transform="translate(717.684 276.039)" font-size="12" font-family="Segoe UI" x="-14.238281, -7.7695313, -5.1679688, 1.3007813, 7.7695313, " y="11.027344, ">
			1,950
	</text>
	<path fill="none" stroke="black" stroke-width="1" stroke-miterlimit="4" d="M772.413 270.039L772.413 274.039"/>
	<text transform="translate(772.413 276.039)" font-size="12" font-family="Segoe UI" x="-14.238281, -7.7695313, -5.1679688, 1.3007813, 7.7695313, " y="11.027344, ">
			1,955
	</text>
	<path fill="none" stroke="black" stroke-width="1" stroke-miterlimit="4" d="M28.1106 270.039L28.1106 272.039"/>
	<path fill="none" stroke="black" stroke-width="1" stroke-miterlimit="4" d="M39.0562 270.039L39.0562 272.039"/>
	<path fill="none" stroke="black" stroke-width="1" stroke-miterlimit="4" d="M50.0018 270.039L50.0018 272.039"/>
	<path fill="none" stroke="black" stroke-width="1" stroke-miterlimit="4" d="M71.8931 270.039L71.8931 272.039"/>
	<path fill="none" stroke="black" stroke-width="1" stroke-miterlimit="4" d="M82.8387 270.039L82.8387 272.039"/>
	<path fill="none" stroke="black" stroke-width="1" stroke-miterlimit="4" d="M93.7843 270.039L93.7843 272.039"/>
	<path fill="none" stroke="black" stroke-width="1" stroke-miterlimit="4" d="M104.73 270.039L104.73 272.039"/>
	<path fill="none" stroke="black" stroke-width="1" stroke-miterlimit="4" d="M126.621 270.039L126.621 272.039"/>
	<path fill="none" stroke="black" stroke-width="1" stroke-miterlimit="4" d="M137.567 270.039L137.567 272.039"/>
	<path fill="none" stroke="black" stroke-width="1" stroke-miterlimit="4" d="M148.512 270.039L148.512 272.039"/>
	<path fill="none" stroke="black" stroke-width="1" stroke-miterlimit="4" d="M159.458 270.039L159.458 272.039"/>
	<path fill="none" stroke="black" stroke-width="1" stroke-miterlimit="4" d="M181.349 270.039L181.349 272.039"/>
	<path fill="none" stroke="black" stroke-width="1" stroke-miterlimit="4" d="M192.295 270.039L192.295 272.039"/>
	<path fill="none" stroke="black" stroke-width="1" stroke-miterlimit="4" d="M203.24 270.039L203.24 272.039"/>
	<path fill="none" stroke="black" stroke-width="1" stroke-miterlimit="4" d="M214.186 270.039L214.186 272.039"/>
	<path fill="none" stroke="black" stroke-width="1" stroke-miterlimit="4" d="M236.077 270.039L236.077 272.039"/>
	<path fill="none" stroke="black" stroke-width="1" stroke-miterlimit="4" d="M247.023 270.039L247.023 272.039"/>
	<path fill="none" stroke="black" stroke-width="1" stroke-miterlimit="4" d="M257.969 270.039L257.969 272.039"/>
	<path fill="none" stroke="black" stroke-width="1" stroke-miterlimit="4" d="M268.914 270.039L268.914 272.039"/>
	<path fill="none" stroke="black" stroke-width="1" stroke-miterlimit="4" d="M290.805 270.039L290.805 272.039"/>
	<path fill="none" stroke="black" stroke-width="1" stroke-miterlimit="4" d="M301.751 270.039L301.751 272.039"/>
	<path fill="none" stroke="black" stroke-width="1" stroke-miterlimit="4" d="M312.697 270.039L312.697 272.039"/>
	<path fill="none" stroke="black" stroke-width="1" stroke-miterlimit="4" d="M323.642 270.039L323.642 272.039"/>
	<path fill="none" stroke="black" stroke-width="1" stroke-miterlimit="4" d="M345.533 270.039L345.533 272.039"/>
	<path fill="none" stroke="black" stroke-width="1" stroke-miterlimit="4" d="M356.479 270.039L356.479 272.039"/>
	<path fill="none" stroke="black" stroke-width="1" stroke-miterlimit="4" d="M367.425 270.039L367.425 272.039"/>
	<path fill="none" stroke="black" stroke-width="1" stroke-miterlimit="4" d="M378.37 270.039L378.37 272.039"/>
	<path fill="none" stroke="black" stroke-width="1" stroke-miterlimit="4" d="M400.262 270.039L400.262 272.039"/>
	<path fill="none" stroke="black" stroke-width="1" stroke-miterlimit="4" d="M411.207 270.039L411.207 272.039"/>
	<path fill="none" stroke="black" stroke-width="1" stroke-miterlimit="4" d="M422.153 270.039L422.153 272.039"/>
	<path fill="none" stroke="black" stroke-width="1" stroke-miterlimit="4" d="M433.098 270.039L433.098 272.039"/>
	<path fill="none" stroke="black" stroke-width="1" stroke-miterlimit="4" d="M454.99 270.039L454.99 272.039"/>
	<path fill="none" stroke="black" stroke-width="1" stroke-miterlimit="4" d="M465.935 270.039L465.935 272.039"/>
	<path fill="none" stroke="black" stroke-width="1" stroke-miterlimit="4" d="M476.881 270.039L476.881 272.039"/>
	<path fill="none" stroke="black" stroke-width="1" stroke-miterlimit="4" d="M487.827 270.039L487.827 272.039"/>
	<path fill="none" stroke="black" stroke-width="1" stroke-miterlimit="4" d="M509.718 270.039L509.718 272.039"/>
	<path fill="none" stroke="black" stroke-width="1" stroke-miterlimit="4" d="M520.663 270.039L520.663 272.039"/>
	<path fill="none" stroke="black" stroke-width="1" stroke-miterlimit="4" d="M531.609 270.039L531.609 272.039"/>
	<path fill="none" stroke="black" stroke-width="1" stroke-miterlimit="4" d="M542.555 270.039L542.555 272.039"/>
	<path fill="none" stroke="black" stroke-width="1" stroke-miterlimit="4" d="M564.446 270.039L564.446 272.039"/>
	<path fill="none" stroke="black" stroke-width="1" stroke-miterlimit="4" d="M575.391 270.039L575.391 272.039"/>
	<path fill="none" stroke="black" stroke-width="1" stroke-miterlimit="4" d="M586.337 270.039L586.337 272.039"/>
	<path fill="none" stroke="black" stroke-width="1" stroke-miterlimit="4" d="M597.283 270.039L597.283 272.039"/>
	<path fill="none" stroke="black" stroke-width="1" stroke-miterlimit="4" d="M619.174 270.039L619.174 272.039"/>
	<path fill="none" stroke="black" stroke-width="1" stroke-miterlimit="4" d="M630.12 270.039L630.12 272.039"/>
	<path fill="none" stroke="black" stroke-width="1" stroke-miterlimit="4" d="M641.065 270.039L641.065 272.039"/>
	<path fill="none" stroke="black" stroke-width="1" stroke-miterlimit="4" d="M652.011 270.039L652.011 272.039"/>
	<path fill="none" stroke="black" stroke-width="1" stroke-miterlimit="4" d="M673.902 270.039L673.902 272.039"/>
	<path fill="none" stroke="black" stroke-width="1" stroke-miterlimit="4" d="M684.848 270.039L684.848 272.039"/>
	<path fill="none" stroke="black" stroke-width="1" stroke-miterlimit="4" d="M695.793 270.039L695.793 272.039"/>
	<path fill="none" stroke="black" stroke-width="1" stroke-miterlimit="4" d="M706.739 270.039L706.739 272.039"/>
	<path fill="none" stroke="black" stroke-width="1" stroke-miterlimit="4" d="M728.63 270.039L728.63 272.039"/>
	<path fill="none" stroke="black" stroke-width="1" stroke-miterlimit="4" d="M739.576 270.039L739.576 272.039"/>
	<path fill="none" stroke="black" stroke-width="1" stroke-miterlimit="4" d="M750.521 270.039L750.521 272.039"/>
	<path fill="none" stroke="black" stroke-width="1" stroke-miterlimit="4" d="M761.467 270.039L761.467 272.039"/>
	<path fill="none" stroke="black" stroke-width="1" stroke-miterlimit="4" d="M783.358 270.039L783.358 272.039"/>
	<path fill="none" stroke="black" stroke-width="1" stroke-miterlimit="4" d="M26.4688 270.039L785 270.039"/>
	<path fill="none" stroke="black" stroke-width="1" stroke-miterlimit="4" d="M26.4688 15.1L785 15.1"/>
	<path fill="none" stroke="black" stroke-width="1" stroke-miterlimit="4" d="M26.4688 236.265L22.4688 236.265"/>
	<text transform="translate(17.4688 236.265)" font-size="12" font-family="Segoe UI" x="-6.46875, " y="3.046875, ">
			1
	</text>
	<path fill="none" stroke="black" stroke-width="1" stroke-miterlimit="4" d="M26.4688 201.161L22.4688 201.161"/>
	<text transform="translate(17.4688 201.161)" font-size="12" font-family="Segoe UI" x="-6.46875, " y="3.046875, ">
			2
	</text>
	<path fill="none" stroke="black" stroke-width="1" stroke-miterlimit="4" d="M26.4688 166.057L22.4688 166.057"/>
	<text transform="translate(17.4688 166.057)" font-size="12" font-family="Segoe UI" x="-6.46875, " y="3.046875, ">
			3
	</text>
	<path fill="none" stroke="black" stroke-width="1" stroke-miterlimit="4" d="M26.4688 130.953L22.4688 130.953"/>
	<text transform="translate(17.4688 130.953)" font-size="12" font-family="Segoe UI" x="-6.46875, " y="3.046875, ">
			4
	</text>
	<path fill="none" stroke="black" stroke-width="1" stroke-miterlimit="4" d="M26.4688 95.8489L22.4688 95.8489"/>
	<text transform="translate(17.4688 95.8489)" font-size="12" font-family="Segoe UI" x="-6.46875, " y="3.046875, ">
			5
	</text>
	<path fill="none" stroke="black" stroke-width="1" stroke-miterlimit="4" d="M26.4688 60.7449L22.4688 60.7449"/>
	<text transform="translate(17.4688 60.7449)" font-size="12" font-family="Segoe UI" x="-6.46875, " y="3.046875, ">
			6
	</text>
	<path fill="none" stroke="black" stroke-width="1" stroke-miterlimit="4" d="M26.4688 25.6408L22.4688 25.6408"/>
	<text transform="translate(17.4688 25.6408)" font-size="12" font-family="Segoe UI" x="-6.46875, " y="3.046875, ">
			7
	</text>
	<path fill="none" stroke="black" stroke-width="1" stroke-miterlimit="4" d="M26.4688 264.348L24.4688 264.348"/>
	<path fill="none" stroke="black" stroke-width="1" stroke-miterlimit="4" d="M26.4688 257.328L24.4688 257.328"/>
	<path fill="none" stroke="black" stroke-width="1" stroke-miterlimit="4" d="M26.4688 250.307L24.4688 250.307"/>
	<path fill="none" stroke="black" stroke-width="1" stroke-miterlimit="4" d="M26.4688 243.286L24.4688 243.286"/>
	<path fill="none" stroke="black" stroke-width="1" stroke-miterlimit="4" d="M26.4688 229.244L24.4688 229.244"/>
	<path fill="none" stroke="black" stroke-width="1" stroke-miterlimit="4" d="M26.4688 222.223L24.4688 222.223"/>
	<path fill="none" stroke="black" stroke-width="1" stroke-miterlimit="4" d="M26.4688 215.203L24.4688 215.203"/>
	<path fill="none" stroke="black" stroke-width="1" stroke-miterlimit="4" d="M26.4688 208.182L24.4688 208.182"/>
	<path fill="none" stroke="black" stroke-width="1" stroke-miterlimit="4" d="M26.4688 194.14L24.4688 194.14"/>
	<path fill="none" stroke="black" stroke-width="1" stroke-miterlimit="4" d="M26.4688 187.119L24.4688 187.119"/>
	<path fill="none" stroke="black" stroke-width="1" stroke-miterlimit="4" d="M26.4688 180.099L24.4688 180.099"/>
	<path fill="none" stroke="black" stroke-width="1" stroke-miterlimit="4" d="M26.4688 173.078L24.4688 173.078"/>
	<path fill="none" stroke="black" stroke-width="1" stroke-miterlimit="4" d="M26.4688 159.036L24.4688 159.036"/>
	<path fill="none" stroke="black" stroke-width="1" stroke-miterlimit="4" d="M26.4688 152.015L24.4688 152.015"/>
	<path fill="none" stroke="black" stroke-width="1" stroke-miterlimit="4" d="M26.4688 144.995L24.4688 144.995"/>
	<path fill="none" stroke="black" stroke-width="1" stroke-miterlimit="4" d="M26.4688 137.974L24.4688 137.974"/>
	<path fill="none" stroke="black" stroke-width="1" stroke-miterlimit="4" d="M26.4688 123.932L24.4688 123.932"/>
	<path fill="none" stroke="black" stroke-width="1" stroke-miterlimit="4" d="M26.4688 116.911L24.4688 116.911"/>
	<path fill="none" stroke="black" stroke-width="1" stroke-miterlimit="4" d="M26.4688 109.891L24.4688 109.891"/>
	<path fill="none" stroke="black" stroke-width="1" stroke-miterlimit="4" d="M26.4688 102.87L24.4688 102.87"/>
	<path fill="none" stroke="black" stroke-width="1" stroke-miterlimit="4" d="M26.4688 88.8281L24.4688 88.8281"/>
	<path fill="none" stroke="black" stroke-width="1" stroke-miterlimit="4" d="M26.4688 81.8073L24.4688 81.8073"/>
	<path fill="none" stroke="black" stroke-width="1" stroke-miterlimit="4" d="M26.4688 74.7865L24.4688 74.7865"/>
	<path fill="none" stroke="black" stroke-width="1" stroke-miterlimit="4" d="M26.4688 67.7657L24.4688 67.7657"/>
	<path fill="none" stroke="black" stroke-width="1" stroke-miterlimit="4" d="M26.4688 53.7241L24.4688 53.7241"/>
	<path fill="none" stroke="black" stroke-width="1" stroke-miterlimit="4" d="M26.4688 46.7032L24.4688 46.7032"/>
	<path fill="none" stroke="black" stroke-width="1" stroke-miterlimit="4" d="M26.4688 39.6824L24.4688 39.6824"/>
	<path fill="none" stroke="black" stroke-width="1" stroke-miterlimit="4" d="M26.4688 32.6616L24.4688 32.6616"/>
	<path fill="none" stroke="black" stroke-width="1" stroke-miterlimit="4" d="M26.4688 18.62L24.4688 18.62"/>
	<path fill="none" stroke="black" stroke-width="1" stroke-miterlimit="4" d="M26.4688 270.039L26.4688 15"/>
	<path fill="none" stroke="black" stroke-width="1" stroke-miterlimit="4" d="M785 270.039L785 15"/>
</svg>
