<?xml version="1.0" encoding="utf-8" ?>
<svg xmlns="http://www.w3.org/2000/svg" xmlns:xlink="http://www.w3.org/1999/xlink" width="800" height="300">
	<rect fill="white" width="800" height="300"/>
	<path fill="none" stroke="#010101" stroke-width="1" stroke-miterlimit="4" stroke-opacity="0.098039217" d="M69.6055 270.039L69.6055 15M137.738 270.039L137.738 15M205.871 270.039L205.871 15M274.004 270.039L274.004 15M342.137 270.039L342.137 15M410.27 270.039L410.27 15M478.402 270.039L478.402 15M546.535 270.039L546.535 15M614.668 270.039L614.668 15M682.801 270.039L682.801 15M750.934 270.039L750.934 15"/>
	<path fill="none" stroke="#010101" stroke-width="1" stroke-miterlimit="4" stroke-opacity="0.098039217" d="M35.5391 255.275L785 255.275M35.5391 199.831L785 199.831M35.5391 144.388L785 144.388M35.5391 88.9448L785 88.9448M35.5391 33.5015L785 33.5015"/>
	<clipPath id="cl_22">
		<rect x="35.539063" y="15" width="749.46094" height="255.03906"/>
	</clipPath>
	<g clip-path="url(#cl_22)">
		<path fill="none" stroke="#1F77B4" stroke-width="1" stroke-miterlimit="4" d=""/>
		<ellipse fill="#1F77B4" cx="410.26953" cy="142.51953" rx="2.5" ry="2.5"/>
	</g>
	<path fill="none" stroke="black" stroke-width="1" stroke-miterlimit="4" d="M69.6055 270.039L69.6055 274.039"/>
	<text transform="translate(69.6055 276.039)" font-size="12" font-family="Segoe UI" x="-14.238281, -7.7695313, -5.1679688, 1.3007813, 7.7695313, " y="11.027344, ">
			1,939
	</text>
	<path fill="none" stroke="black" stroke-width="1" stroke-miterlimit="4" d="M137.738 270.039L137.738 274.039"/>
	<text transform="translate(137.738 276.039)" font-size="12" font-family="Segoe UI" x="-14.238281, -7.7695313, -5.1679688, 1.3007813, 7.7695313, " y="11.027344, ">
			1,939
	</text>
	<path fill="none" stroke="black" stroke-width="1" stroke-miterlimit="4" d="M205.871 270.039L205.871 274.039"/>
	<text transform="translate(205.871 276.039)" font-size="12" font-family="Segoe UI" x="-14.238281, -7.7695313, -5.1679688, 1.3007813, 7.7695313, " y="11.027344, ">
			1,939
	</text>
	<path fill="none" stroke="black" stroke-width="1" stroke-miterlimit="4" d="M274.004 270.039L274.004 274.039"/>
	<text transform="translate(274.004 276.039)" font-size="12" font-family="Segoe UI" x="-14.238281, -7.7695313, -5.1679688, 1.3007813, 7.7695313, " y="11.027344, ">
			1,940
	</text>
	<path fill="none" stroke="black" stroke-width="1" stroke-miterlimit="4" d="M342.137 270.039L342.137 274.039"/>
	<text transform="translate(342.137 276.039)" font-size="12" font-family="Segoe UI" x="-14.238281, -7.7695313, -5.1679688, 1.3007813, 7.7695313, " y="11.027344, ">
			1,940
	</text>
	<path fill="none" stroke="black" stroke-width="1" stroke-miterlimit="4" d="M410.27 270.039L410.27 274.039"/>
	<text transform="translate(410.27 276.039)" font-size="12" font-family="Segoe UI" x="-14.238281, -7.7695313, -5.1679688, 1.3007813, 7.7695313, " y="11.027344, ">
			1,940
	</text>
	<path fill="none" stroke="black" stroke-width="1" stroke-miterlimit="4" d="M478.402 270.039L478.402 274.039"/>
	<text transform="translate(478.402 276.039)" font-size="12" font-family="Segoe UI" x="-14.238281, -7.7695313, -5.1679688, 1.3007813, 7.7695313, " y="11.027344, ">
			1,940
	</text>
	<path fill="none" stroke="black" stroke-width="1" stroke-miterlimit="4" d="M546.535 270.039L546.535 274.039"/>
	<text transform="translate(546.535 276.039)" font-size="12" font-family="Segoe UI" x="-14.238281, -7.7695313, -5.1679688, 1.3007813, 7.7695313, " y="11.027344, ">
			1,940
	</text>
	<path fill="none" stroke="black" stroke-width="1" stroke-miterlimit="4" d="M614.668 270.039L614.668 274.039"/>
	<text transform="translate(614.668 276.039)" font-size="12" font-family="Segoe UI" x="-14.238281, -7.7695313, -5.1679688, 1.3007813, 7.7695313, " y="11.027344, ">
			1,941
	</text>
	<path fill="none" stroke="black" stroke-width="1" stroke-miterlimit="4" d="M682.801 270.039L682.801 274.039"/>
	<text transform="translate(682.801 276.039)" font-size="12" font-family="Segoe UI" x="-14.238281, -7.7695313, -5.1679688, 1.3007813, 7.7695313, " y="11.027344, ">
			1,941
	</text>
	<path fill="none" stroke="black" stroke-width="1" stroke-miterlimit="4" d="M750.934 270.039L750.934 274.039"/>
	<text transform="translate(750.934 276.039)" font-size="12" font-family="Segoe UI" x="-14.238281, -7.7695313, -5.1679688, 1.3007813, 7.7695313, " y="11.027344, ">
			1,941
	</text>
	<path fill="none" stroke="black" stroke-width="1" stroke-miterlimit="4" d="M42.3523 270.039L42.3523 272.039"/>
	<path fill="none" stroke="black" stroke-width="1" stroke-miterlimit="4" d="M55.9789 270.039L55.9789 272.039"/>
	<path fill="none" stroke="black" stroke-width="1" stroke-miterlimit="4" d="M83.232 270.039L83.232 272.039"/>
	<path fill="none" stroke="black" stroke-width="1" stroke-miterlimit="4" d="M96.8586 270.039L96.8586 272.039"/>
	<path fill="none" stroke="black" stroke-width="1" stroke-miterlimit="4" d="M110.485 270.039L110.485 272.039"/>
	<path fill="none" stroke="black" stroke-width="1" stroke-miterlimit="4" d="M124.112 270.039L124.112 272.039"/>
	<path fill="none" stroke="black" stroke-width="1" stroke-miterlimit="4" d="M151.365 270.039L151.365 272.039"/>
	<path fill="none" stroke="black" stroke-width="1" stroke-miterlimit="4" d="M164.991 270.039L164.991 272.039"/>
	<path fill="none" stroke="black" stroke-width="1" stroke-miterlimit="4" d="M178.618 270.039L178.618 272.039"/>
	<path fill="none" stroke="black" stroke-width="1" stroke-miterlimit="4" d="M192.245 270.039L192.245 272.039"/>
	<path fill="none" stroke="black" stroke-width="1" stroke-miterlimit="4" d="M219.498 270.039L219.498 272.039"/>
	<path fill="none" stroke="black" stroke-width="1" stroke-miterlimit="4" d="M233.124 270.039L233.124 272.039"/>
	<path fill="none" stroke="black" stroke-width="1" stroke-miterlimit="4" d="M246.751 270.039L246.751 272.039"/>
	<path fill="none" stroke="black" stroke-width="1" stroke-miterlimit="4" d="M260.377 270.039L260.377 272.039"/>
	<path fill="none" stroke="black" stroke-width="1" stroke-miterlimit="4" d="M287.63 270.039L287.63 272.039"/>
	<path fill="none" stroke="black" stroke-width="1" stroke-miterlimit="4" d="M301.257 270.039L301.257 272.039"/>
	<path fill="none" stroke="black" stroke-width="1" stroke-miterlimit="4" d="M314.884 270.039L314.884 272.039"/>
	<path fill="none" stroke="black" stroke-width="1" stroke-miterlimit="4" d="M328.51 270.039L328.51 272.039"/>
	<path fill="none" stroke="black" stroke-width="1" stroke-miterlimit="4" d="M355.763 270.039L355.763 272.039"/>
	<path fill="none" stroke="black" stroke-width="1" stroke-miterlimit="4" d="M369.39 270.039L369.39 272.039"/>
	<path fill="none" stroke="black" stroke-width="1" stroke-miterlimit="4" d="M383.016 270.039L383.016 272.039"/>
	<path fill="none" stroke="black" stroke-width="1" stroke-miterlimit="4" d="M396.643 270.039L396.643 272.039"/>
	<path fill="none" stroke="black" stroke-width="1" stroke-miterlimit="4" d="M423.896 270.039L423.896 272.039"/>
	<path fill="none" stroke="black" stroke-width="1" stroke-miterlimit="4" d="M437.523 270.039L437.523 272.039"/>
	<path fill="none" stroke="black" stroke-width="1" stroke-miterlimit="4" d="M451.149 270.039L451.149 272.039"/>
	<path fill="none" stroke="black" stroke-width="1" stroke-miterlimit="4" d="M464.776 270.039L464.776 272.039"/>
	<path fill="none" stroke="black" stroke-width="1" stroke-miterlimit="4" d="M492.029 270.039L492.029 272.039"/>
	<path fill="none" stroke="black" stroke-width="1" stroke-miterlimit="4" d="M505.655 270.039L505.655 272.039"/>
	<path fill="none" stroke="black" stroke-width="1" stroke-miterlimit="4" d="M519.282 270.039L519.282 272.039"/>
	<path fill="none" stroke="black" stroke-width="1" stroke-miterlimit="4" d="M532.909 270.039L532.909 272.039"/>
	<path fill="none" stroke="black" stroke-width="1" stroke-miterlimit="4" d="M560.162 270.039L560.162 272.039"/>
	<path fill="none" stroke="black" stroke-width="1" stroke-miterlimit="4" d="M573.788 270.039L573.788 272.039"/>
	<path fill="none" stroke="black" stroke-width="1" stroke-miterlimit="4" d="M587.415 270.039L587.415 272.039"/>
	<path fill="none" stroke="black" stroke-width="1" stroke-miterlimit="4" d="M601.041 270.039L601.041 272.039"/>
	<path fill="none" stroke="black" stroke-width="1" stroke-miterlimit="4" d="M628.295 270.039L628.295 272.039"/>
	<path fill="none" stroke="black" stroke-width="1" stroke-miterlimit="4" d="M641.921 270.039L641.921 272.039"/>
	<path fill="none" stroke="black" stroke-width="1" stroke-miterlimit="4" d="M655.548 270.039L655.548 272.039"/>
	<path fill="none" stroke="black" stroke-width="1" stroke-miterlimit="4" d="M669.174 270.039L669.174 272.039"/>
	<path fill="none" stroke="black" stroke-width="1" stroke-miterlimit="4" d="M696.427 270.039L696.427 272.039"/>
	<path fill="none" stroke="black" stroke-width="1" stroke-miterlimit="4" d="M710.054 270.039L710.054 272.039"/>
	<path fill="none" stroke="black" stroke-width="1" stroke-miterlimit="4" d="M723.68 270.039L723.68 272.039"/>
	<path fill="none" stroke="black" stroke-width="1" stroke-miterlimit="4" d="M737.307 270.039L737.307 272.039"/>
	<path fill="none" stroke="black" stroke-width="1" stroke-miterlimit="4" d="M764.56 270.039L764.56 272.039"/>
	<path fill="none" stroke="black" stroke-width="1" stroke-miterlimit="4" d="M778.187 270.039L778.187 272.039"/>
	<path fill="none" stroke="black" stroke-width="1" stroke-miterlimit="4" d="M35.5391 270.039L785 270.039"/>
	<path fill="none" stroke="black" stroke-width="1" stroke-miterlimit="4" d="M35.5391 15.1L785 15.1"/>
	<path fill="none" stroke="black" stroke-width="1" stroke-miterlimit="4" d="M35.5391 255.275L31.5391 255.275"/>
	<text transform="translate(26.5391 255.275)" font-size="12" font-family="Segoe UI" x="-15.539063, -9.0703125, -6.46875, " y="3.046875, ">
			2.5
	</text>
	<path fill="none" stroke="black" stroke-width="1" stroke-miterlimit="4" d="M35.5391 199.831L31.5391 199.831"/>
	<text transform="translate(26.5391 199.831)" font-size="12" font-family="Segoe UI" x="-6.46875, " y="3.046875, ">
			3
	</text>
	<path fill="none" stroke="black" stroke-width="1" stroke-miterlimit="4" d="M35.5391 144.388L31.5391 144.388"/>
	<text transform="translate(26.5391 144.388)" font-size="12" font-family="Segoe UI" x="-15.539063, -9.0703125, -6.46875, " y="3.046875, ">
			3.5
	</text>
	<path fill="none" stroke="black" stroke-width="1" stroke-miterlimit="4" d="M35.5391 88.9448L31.5391 88.9448"/>
	<text transform="translate(26.5391 88.9448)" font-size="12" font-family="Segoe UI" x="-6.46875, " y="3.046875, ">
			4
	</text>
	<path fill="none" stroke="black" stroke-width="1" stroke-miterlimit="4" d="M35.5391 33.5015L31.5391 33.5015"/>
	<text transform="translate(26.5391 33.5015)" font-size="12" font-family="Segoe UI" x="-15.539063, -9.0703125, -6.46875, " y="3.046875, ">
			4.5
	</text>
	<path fill="none" stroke="black" stroke-width="1" stroke-miterlimit="4" d="M35.5391 266.363L33.5391 266.363"/>
	<path fill="none" stroke="black" stroke-width="1" stroke-miterlimit="4" d="M35.5391 244.186L33.5391 244.186"/>
	<path fill="none" stroke="black" stroke-width="1" stroke-miterlimit="4" d="M35.5391 233.097L33.5391 233.097"/>
	<path fill="none" stroke="black" stroke-width="1" stroke-miterlimit="4" d="M35.5391 222.009L33.5391 222.009"/>
	<path fill="none" stroke="black" stroke-width="1" stroke-miterlimit="4" d="M35.5391 210.92L33.5391 210.92"/>
	<path fill="none" stroke="black" stroke-width="1" stroke-miterlimit="4" d="M35.5391 188.743L33.5391 188.743"/>
	<path fill="none" stroke="black" stroke-width="1" stroke-miterlimit="4" d="M35.5391 177.654L33.5391 177.654"/>
	<path fill="none" stroke="black" stroke-width="1" stroke-miterlimit="4" d="M35.5391 166.565L33.5391 166.565"/>
	<path fill="none" stroke="black" stroke-width="1" stroke-miterlimit="4" d="M35.5391 155.477L33.5391 155.477"/>
	<path fill="none" stroke="black" stroke-width="1" stroke-miterlimit="4" d="M35.5391 133.299L33.5391 133.299"/>
	<path fill="none" stroke="black" stroke-width="1" stroke-miterlimit="4" d="M35.5391 122.211L33.5391 122.211"/>
	<path fill="none" stroke="black" stroke-width="1" stroke-miterlimit="4" d="M35.5391 111.122L33.5391 111.122"/>
	<path fill="none" stroke="black" stroke-width="1" stroke-miterlimit="4" d="M35.5391 100.033L33.5391 100.033"/>
	<path fill="none" stroke="black" stroke-width="1" stroke-miterlimit="4" d="M35.5391 77.8562L33.5391 77.8562"/>
	<path fill="none" stroke="black" stroke-width="1" stroke-miterlimit="4" d="M35.5391 66.7675L33.5391 66.7675"/>
	<path fill="none" stroke="black" stroke-width="1" stroke-miterlimit="4" d="M35.5391 55.6788L33.5391 55.6788"/>
	<path fill="none" stroke="black" stroke-width="1" stroke-miterlimit="4" d="M35.5391 44.5902L33.5391 44.5902"/>
	<path fill="none" stroke="black" stroke-width="1" stroke-miterlimit="4" d="M35.5391 22.4129L33.5391 22.4129"/>
	<path fill="none" stroke="black" stroke-width="1" stroke-miterlimit="4" d="M35.5391 270.039L35.5391 15"/>
	<path fill="none" stroke="black" stroke-width="1" stroke-miterlimit="4" d="M785 270.039L785 15"/>
</svg>
