<?xml version="1.0" encoding="utf-8" ?>
<svg xmlns="http://www.w3.org/2000/svg" xmlns:xlink="http://www.w3.org/1999/xlink" width="800" height="300">
	<rect fill="white" width="800" height="300"/>
	<path fill="none" stroke="#010101" stroke-width="1" stroke-miterlimit="4" stroke-opacity="0.098039217" d="M69.6055 270.039L69.6055 15M126.383 270.039L126.383 15M183.16 270.039L183.16 15M239.938 270.039L239.938 15M296.715 270.039L296.715 15M353.492 270.039L353.492 15M410.27 270.039L410.27 15M467.047 270.039L467.047 15M523.824 270.039L523.824 15M580.602 270.039L580.602 15M637.379 270.039L637.379 15M694.156 270.039L694.156 15M750.934 270.039L750.934 15"/>
	<path fill="none" stroke="#010101" stroke-width="1" stroke-miterlimit="4" stroke-opacity="0.098039217" d="M35.5391 223.41L785 223.41M35.5391 170.992L785 170.992M35.5391 118.574L785 118.574M35.5391 66.1557L785 66.1557"/>
	<clipPath id="cl_2c">
		<rect x="35.539063" y="15" width="749.46094" height="255.03906"/>
	</clipPath>
	<g clip-path="url(#cl_2c)">
		<path fill="none" stroke="#1F77B4" stroke-width="1" stroke-miterlimit="4" d="M69.6055 253.406L750.934 31.633"/>
		<ellipse fill="#1F77B4" cx="69.605469" cy="253.40608" rx="2.5" ry="2.5"/>
		<ellipse fill="#1F77B4" cx="750.93359" cy="31.63298" rx="2.5" ry="2.5"/>
	</g>
	<path fill="none" stroke="black" stroke-width="1" stroke-miterlimit="4" d="M69.6055 270.039L69.6055 274.039"/>
	<text transform="translate(69.6055 276.039)" font-size="12" font-family="Segoe UI" x="-14.238281, -7.7695313, -5.1679688, 1.3007813, 7.7695313, " y="11.027344, ">
			1,941
	</text>
	<path fill="none" stroke="black" stroke-width="1" stroke-miterlimit="4" d="M126.383 270.039L126.383 274.039"/>
	<text transform="translate(126.383 276.039)" font-size="12" font-family="Segoe UI" x="-14.238281, -7.7695313, -5.1679688, 1.3007813, 7.7695313, " y="11.027344, ">
			1,942
	</text>
	<path fill="none" stroke="black" stroke-width="1" stroke-miterlimit="4" d="M183.16 270.039L183.16 274.039"/>
	<text transform="translate(183.16 276.039)" font-size="12" font-family="Segoe UI" x="-14.238281, -7.7695313, -5.1679688, 1.3007813, 7.7695313, " y="11.027344, ">
			1,943
	</text>
	<path fill="none" stroke="black" stroke-width="1" stroke-miterlimit="4" d="M239.938 270.039L239.938 274.039"/>
	<text transform="translate(239.938 276.039)" font-size="12" font-family="Segoe UI" x="-14.238281, -7.7695313, -5.1679688, 1.3007813, 7.7695313, " y="11.027344, ">
			1,944
	</text>
	<path fill="none" stroke="black" stroke-width="1" stroke-miterlimit="4" d="M296.715 270.039L296.715 274.039"/>
	<text transform="translate(296.715 276.039)" font-size="12" font-family="Segoe UI" x="-14.238281, -7.7695313, -5.1679688, 1.3007813, 7.7695313, " y="11.027344, ">
			1,945
	</text>
	<path fill="none" stroke="black" stroke-width="1" stroke-miterlimit="4" d="M353.492 270.039L353.492 274.039"/>
	<text transform="translate(353.492 276.039)" font-size="12" font-family="Segoe UI" x="-14.238281, -7.7695313, -5.1679688, 1.3007813, 7.7695313, " y="11.027344, ">
			1,946
	</text>
	<path fill="none" stroke="black" stroke-width="1" stroke-miterlimit="4" d="M410.27 270.039L410.27 274.039"/>
	<text transform="translate(410.27 276.039)" font-size="12" font-family="Segoe UI" x="-14.238281, -7.7695313, -5.1679688, 1.3007813, 7.7695313, " y="11.027344, ">
			1,947
	</text>
	<path fill="none" stroke="black" stroke-width="1" stroke-miterlimit="4" d="M467.047 270.039L467.047 274.039"/>
	<text transform="translate(467.047 276.039)" font-size="12" font-family="Segoe UI" x="-14.238281, -7.7695313, -5.1679688, 1.3007813, 7.7695313, " y="11.027344, ">
			1,948
	</text>
	<path fill="none" stroke="black" stroke-width="1" stroke-miterlimit="4" d="M523.824 270.039L523.824 274.039"/>
	<text transform="translate(523.824 276.039)" font-size="12" font-family="Segoe UI" x="-14.238281, -7.7695313, -5.1679688, 1.3007813, 7.7695313, " y="11.027344, ">
			1,949
	</text>
	<path fill="none" stroke="black" stroke-width="1" stroke-miterlimit="4" d="M580.602 270.039L580.602 274.039"/>
	<text transform="translate(580.602 276.039)" font-size="12" font-family="Segoe UI" x="-14.238281, -7.7695313, -5.1679688, 1.3007813, 7.7695313, " y="11.027344, ">
			1,950
	</text>
	<path fill="none" stroke="black" stroke-width="1" stroke-miterlimit="4" d="M637.379 270.039L637.379 274.039"/>
	<text transform="translate(637.379 276.039)" font-size="12" font-family="Segoe UI" x="-14.238281, -7.7695313, -5.1679688, 1.3007813, 7.7695313, " y="11.027344, ">
			1,951
	</text>
	<path fill="none" stroke="black" stroke-width="1" stroke-miterlimit="4" d="M694.156 270.039L694.156 274.039"/>
	<text transform="translate(694.156 276.039)" font-size="12" font-family="Segoe UI" x="-14.238281, -7.7695313, -5.1679688, 1.3007813, 7.7695313, " y="11.027344, ">
			1,952
	</text>
	<path fill="none" stroke="black" stroke-width="1" stroke-miterlimit="4" d="M750.934 270.039L750.934 274.039"/>
	<text transform="translate(750.934 276.039)" font-size="12" font-family="Segoe UI" x="-14.238281, -7.7695313, -5.1679688, 1.3007813, 7.7695313, " y="11.027344, ">
			1,953
	</text>
	<path fill="none" stroke="black" stroke-width="1" stroke-miterlimit="4" d="M35.5391 270.039L35.5391 272.039"/>
	<path fill="none" stroke="black" stroke-width="1" stroke-miterlimit="4" d="M46.8945 270.039L46.8945 272.039"/>
	<path fill="none" stroke="black" stroke-width="1" stroke-miterlimit="4" d="M58.25 270.039L58.25 272.039"/>
	<path fill="none" stroke="black" stroke-width="1" stroke-miterlimit="4" d="M80.9609 270.039L80.9609 272.039"/>
	<path fill="none" stroke="black" stroke-width="1" stroke-miterlimit="4" d="M92.3164 270.039L92.3164 272.039"/>
	<path fill="none" stroke="black" stroke-width="1" stroke-miterlimit="4" d="M103.672 270.039L103.672 272.039"/>
	<path fill="none" stroke="black" stroke-width="1" stroke-miterlimit="4" d="M115.027 270.039L115.027 272.039"/>
	<path fill="none" stroke="black" stroke-width="1" stroke-miterlimit="4" d="M137.738 270.039L137.738 272.039"/>
	<path fill="none" stroke="black" stroke-width="1" stroke-miterlimit="4" d="M149.094 270.039L149.094 272.039"/>
	<path fill="none" stroke="black" stroke-width="1" stroke-miterlimit="4" d="M160.449 270.039L160.449 272.039"/>
	<path fill="none" stroke="black" stroke-width="1" stroke-miterlimit="4" d="M171.805 270.039L171.805 272.039"/>
	<path fill="none" stroke="black" stroke-width="1" stroke-miterlimit="4" d="M194.516 270.039L194.516 272.039"/>
	<path fill="none" stroke="black" stroke-width="1" stroke-miterlimit="4" d="M205.871 270.039L205.871 272.039"/>
	<path fill="none" stroke="black" stroke-width="1" stroke-miterlimit="4" d="M217.227 270.039L217.227 272.039"/>
	<path fill="none" stroke="black" stroke-width="1" stroke-miterlimit="4" d="M228.582 270.039L228.582 272.039"/>
	<path fill="none" stroke="black" stroke-width="1" stroke-miterlimit="4" d="M251.293 270.039L251.293 272.039"/>
	<path fill="none" stroke="black" stroke-width="1" stroke-miterlimit="4" d="M262.648 270.039L262.648 272.039"/>
	<path fill="none" stroke="black" stroke-width="1" stroke-miterlimit="4" d="M274.004 270.039L274.004 272.039"/>
	<path fill="none" stroke="black" stroke-width="1" stroke-miterlimit="4" d="M285.359 270.039L285.359 272.039"/>
	<path fill="none" stroke="black" stroke-width="1" stroke-miterlimit="4" d="M308.07 270.039L308.07 272.039"/>
	<path fill="none" stroke="black" stroke-width="1" stroke-miterlimit="4" d="M319.426 270.039L319.426 272.039"/>
	<path fill="none" stroke="black" stroke-width="1" stroke-miterlimit="4" d="M330.781 270.039L330.781 272.039"/>
	<path fill="none" stroke="black" stroke-width="1" stroke-miterlimit="4" d="M342.137 270.039L342.137 272.039"/>
	<path fill="none" stroke="black" stroke-width="1" stroke-miterlimit="4" d="M364.848 270.039L364.848 272.039"/>
	<path fill="none" stroke="black" stroke-width="1" stroke-miterlimit="4" d="M376.203 270.039L376.203 272.039"/>
	<path fill="none" stroke="black" stroke-width="1" stroke-miterlimit="4" d="M387.559 270.039L387.559 272.039"/>
	<path fill="none" stroke="black" stroke-width="1" stroke-miterlimit="4" d="M398.914 270.039L398.914 272.039"/>
	<path fill="none" stroke="black" stroke-width="1" stroke-miterlimit="4" d="M421.625 270.039L421.625 272.039"/>
	<path fill="none" stroke="black" stroke-width="1" stroke-miterlimit="4" d="M432.98 270.039L432.98 272.039"/>
	<path fill="none" stroke="black" stroke-width="1" stroke-miterlimit="4" d="M444.336 270.039L444.336 272.039"/>
	<path fill="none" stroke="black" stroke-width="1" stroke-miterlimit="4" d="M455.691 270.039L455.691 272.039"/>
	<path fill="none" stroke="black" stroke-width="1" stroke-miterlimit="4" d="M478.402 270.039L478.402 272.039"/>
	<path fill="none" stroke="black" stroke-width="1" stroke-miterlimit="4" d="M489.758 270.039L489.758 272.039"/>
	<path fill="none" stroke="black" stroke-width="1" stroke-miterlimit="4" d="M501.113 270.039L501.113 272.039"/>
	<path fill="none" stroke="black" stroke-width="1" stroke-miterlimit="4" d="M512.469 270.039L512.469 272.039"/>
	<path fill="none" stroke="black" stroke-width="1" stroke-miterlimit="4" d="M535.18 270.039L535.18 272.039"/>
	<path fill="none" stroke="black" stroke-width="1" stroke-miterlimit="4" d="M546.535 270.039L546.535 272.039"/>
	<path fill="none" stroke="black" stroke-width="1" stroke-miterlimit="4" d="M557.891 270.039L557.891 272.039"/>
	<path fill="none" stroke="black" stroke-width="1" stroke-miterlimit="4" d="M569.246 270.039L569.246 272.039"/>
	<path fill="none" stroke="black" stroke-width="1" stroke-miterlimit="4" d="M591.957 270.039L591.957 272.039"/>
	<path fill="none" stroke="black" stroke-width="1" stroke-miterlimit="4" d="M603.313 270.039L603.313 272.039"/>
	<path fill="none" stroke="black" stroke-width="1" stroke-miterlimit="4" d="M614.668 270.039L614.668 272.039"/>
	<path fill="none" stroke="black" stroke-width="1" stroke-miterlimit="4" d="M626.023 270.039L626.023 272.039"/>
	<path fill="none" stroke="black" stroke-width="1" stroke-miterlimit="4" d="M648.734 270.039L648.734 272.039"/>
	<path fill="none" stroke="black" stroke-width="1" stroke-miterlimit="4" d="M660.09 270.039L660.09 272.039"/>
	<path fill="none" stroke="black" stroke-width="1" stroke-miterlimit="4" d="M671.445 270.039L671.445 272.039"/>
	<path fill="none" stroke="black" stroke-width="1" stroke-miterlimit="4" d="M682.801 270.039L682.801 272.039"/>
	<path fill="none" stroke="black" stroke-width="1" stroke-miterlimit="4" d="M705.512 270.039L705.512 272.039"/>
	<path fill="none" stroke="black" stroke-width="1" stroke-miterlimit="4" d="M716.867 270.039L716.867 272.039"/>
	<path fill="none" stroke="black" stroke-width="1" stroke-miterlimit="4" d="M728.223 270.039L728.223 272.039"/>
	<path fill="none" stroke="black" stroke-width="1" stroke-miterlimit="4" d="M739.578 270.039L739.578 272.039"/>
	<path fill="none" stroke="black" stroke-width="1" stroke-miterlimit="4" d="M762.289 270.039L762.289 272.039"/>
	<path fill="none" stroke="black" stroke-width="1" stroke-miterlimit="4" d="M773.645 270.039L773.645 272.039"/>
	<path fill="none" stroke="black" stroke-width="1" stroke-miterlimit="4" d="M785 270.039L785 272.039"/>
	<path fill="none" stroke="black" stroke-width="1" stroke-miterlimit="4" d="M35.5391 270.039L785 270.039"/>
	<path fill="none" stroke="black" stroke-width="1" stroke-miterlimit="4" d="M35.5391 15.1L785 15.1"/>
	<path fill="none" stroke="black" stroke-width="1" stroke-miterlimit="4" d="M35.5391 223.41L31.5391 223.41"/>
	<text transform="translate(26.5391 223.41)" font-size="12" font-family="Segoe UI" x="-6.46875, " y="3.046875, ">
			5
	</text>
	<path fill="none" stroke="black" stroke-width="1" stroke-miterlimit="4" d="M35.5391 170.992L31.5391 170.992"/>
	<text transform="translate(26.5391 170.992)" font-size="12" font-family="Segoe UI" x="-15.539063, -9.0703125, -6.46875, " y="3.046875, ">
			5.5
	</text>
	<path fill="none" stroke="black" stroke-width="1" stroke-miterlimit="4" d="M35.5391 118.574L31.5391 118.574"/>
	<text transform="translate(26.5391 118.574)" font-size="12" font-family="Segoe UI" x="-6.46875, " y="3.046875, ">
			6
	</text>
	<path fill="none" stroke="black" stroke-width="1" stroke-miterlimit="4" d="M35.5391 66.1557L31.5391 66.1557"/>
	<text transform="translate(26.5391 66.1557)" font-size="12" font-family="Segoe UI" x="-15.539063, -9.0703125, -6.46875, " y="3.046875, ">
			6.5
	</text>
	<path fill="none" stroke="black" stroke-width="1" stroke-miterlimit="4" d="M35.5391 265.344L33.5391 265.344"/>
	<path fill="none" stroke="black" stroke-width="1" stroke-miterlimit="4" d="M35.5391 254.86L33.5391 254.86"/>
	<path fill="none" stroke="black" stroke-width="1" stroke-miterlimit="4" d="M35.5391 244.377L33.5391 244.377"/>
	<path fill="none" stroke="black" stroke-width="1" stroke-miterlimit="4" d="M35.5391 233.893L33.5391 233.893"/>
	<path fill="none" stroke="black" stroke-width="1" stroke-miterlimit="4" d="M35.5391 212.926L33.5391 212.926"/>
	<path fill="none" stroke="black" stroke-width="1" stroke-miterlimit="4" d="M35.5391 202.442L33.5391 202.442"/>
	<path fill="none" stroke="black" stroke-width="1" stroke-miterlimit="4" d="M35.5391 191.959L33.5391 191.959"/>
	<path fill="none" stroke="black" stroke-width="1" stroke-miterlimit="4" d="M35.5391 181.475L33.5391 181.475"/>
	<path fill="none" stroke="black" stroke-width="1" stroke-miterlimit="4" d="M35.5391 160.508L33.5391 160.508"/>
	<path fill="none" stroke="black" stroke-width="1" stroke-miterlimit="4" d="M35.5391 150.024L33.5391 150.024"/>
	<path fill="none" stroke="black" stroke-width="1" stroke-miterlimit="4" d="M35.5391 139.541L33.5391 139.541"/>
	<path fill="none" stroke="black" stroke-width="1" stroke-miterlimit="4" d="M35.5391 129.057L33.5391 129.057"/>
	<path fill="none" stroke="black" stroke-width="1" stroke-miterlimit="4" d="M35.5391 108.09L33.5391 108.09"/>
	<path fill="none" stroke="black" stroke-width="1" stroke-miterlimit="4" d="M35.5391 97.6065L33.5391 97.6065"/>
	<path fill="none" stroke="black" stroke-width="1" stroke-miterlimit="4" d="M35.5391 87.1229L33.5391 87.1229"/>
	<path fill="none" stroke="black" stroke-width="1" stroke-miterlimit="4" d="M35.5391 76.6393L33.5391 76.6393"/>
	<path fill="none" stroke="black" stroke-width="1" stroke-miterlimit="4" d="M35.5391 55.6721L33.5391 55.6721"/>
	<path fill="none" stroke="black" stroke-width="1" stroke-miterlimit="4" d="M35.5391 45.1886L33.5391 45.1886"/>
	<path fill="none" stroke="black" stroke-width="1" stroke-miterlimit="4" d="M35.5391 34.705L33.5391 34.705"/>
	<path fill="none" stroke="black" stroke-width="1" stroke-miterlimit="4" d="M35.5391 24.2214L33.5391 24.2214"/>
	<path fill="none" stroke="black" stroke-width="1" stroke-miterlimit="4" d="M35.5391 270.039L35.5391 15"/>
	<path fill="none" stroke="black" stroke-width="1" stroke-miterlimit="4" d="M785 270.039L785 15"/>
</svg>
