<?xml version="1.0" encoding="utf-8" ?>
<svg xmlns="http://www.w3.org/2000/svg" xmlns:xlink="http://www.w3.org/1999/xlink" width="800" height="300">
	<rect fill="white" width="800" height="300"/>
	<path fill="none" stroke="#010101" stroke-width="1" stroke-miterlimit="4" stroke-opacity="0.098039217" d="M96.3242 270.039L96.3242 15M163.121 270.039L163.121 15M229.918 270.039L229.918 15M296.715 270.039L296.715 15M363.512 270.039L363.512 15M430.309 270.039L430.309 15M497.105 270.039L497.105 15M563.902 270.039L563.902 15M630.699 270.039L630.699 15M697.496 270.039L697.496 15M764.293 270.039L764.293 15"/>
	<path fill="none" stroke="#010101" stroke-width="1" stroke-miterlimit="4" stroke-opacity="0.098039217" d="M35.5391 268.047L785 268.047M35.5391 233.62L785 233.62M35.5391 199.192L785 199.192M35.5391 164.764L785 164.764M35.5391 130.337L785 130.337M35.5391 95.909L785 95.909M35.5391 61.4813L785 61.4813M35.5391 27.0536L785 27.0536"/>
	<clipPath id="cl_12">
		<rect x="35.539063" y="15" width="749.46094" height="255.03906"/>
	</clipPath>
	<g clip-path="url(#cl_12)">
		<path fill="none" stroke="#1F77B4" stroke-width="1" stroke-miterlimit="4" d="M69.6055 253.406L69.6055 249.117L69.6055 249.117L109.684 243.673L136.402 249.735L136.402 249.735L136.402 249.735L136.402 233.372L136.402 230.382L176.48 226.506L176.48 223.531L176.48 225.771L216.559 239.575L216.559 239.575L216.559 224.947L216.559 224.947L216.559 224.947L216.559 224.947L216.559 224.947L229.918 236.081L229.918 236.081L229.918 250.347L229.918 252.158L243.277 236.081L269.996 219.341L269.996 236.081L269.996 236.081L283.355 219.341L283.355 215.529L296.715 214.138L310.074 229.491L310.074 229.491L323.434 244.099L323.434 244.099L350.152 240.38L350.152 244.414L363.512 238.27L363.512 224.608L390.23 234.704L390.23 234.704L390.23 244.234L416.949 242.467L416.949 242.467L430.309 242.396L443.668 232.365L443.668 242.567L697.496 108.56L697.496 108.56L710.855 110.432L710.855 110.432L710.855 110.432L724.215 52.7799L724.215 63.0174L724.215 110.432L737.574 31.633L750.934 33.1581"/>
		<ellipse fill="#1F77B4" cx="69.605469" cy="253.40608" rx="2.5" ry="2.5"/>
		<ellipse fill="#1F77B4" cx="69.605469" cy="249.11716" rx="2.5" ry="2.5"/>
		<ellipse fill="#1F77B4" cx="69.605469" cy="249.11716" rx="2.5" ry="2.5"/>
		<ellipse fill="#1F77B4" cx="109.68359" cy="243.67278" rx="2.5" ry="2.5"/>
		<ellipse fill="#1F77B4" cx="136.40234" cy="249.73488" rx="2.5" ry="2.5"/>
		<ellipse fill="#1F77B4" cx="136.40234" cy="249.73488" rx="2.5" ry="2.5"/>
		<ellipse fill="#1F77B4" cx="136.40234" cy="249.73488" rx="2.5" ry="2.5"/>
		<ellipse fill="#1F77B4" cx="136.40234" cy="233.37173" rx="2.5" ry="2.5"/>
		<ellipse fill="#1F77B4" cx="136.40234" cy="230.38243" rx="2.5" ry="2.5"/>
		<ellipse fill="#1F77B4" cx="176.48047" cy="226.50558" rx="2.5" ry="2.5"/>
		<ellipse fill="#1F77B4" cx="176.48047" cy="223.53122" rx="2.5" ry="2.5"/>
		<ellipse fill="#1F77B4" cx="176.48047" cy="225.77115" rx="2.5" ry="2.5"/>
		<ellipse fill="#1F77B4" cx="216.55859" cy="239.575" rx="2.5" ry="2.5"/>
		<ellipse fill="#1F77B4" cx="216.55859" cy="239.575" rx="2.5" ry="2.5"/>
		<ellipse fill="#1F77B4" cx="216.55859" cy="224.94725" rx="2.5" ry="2.5"/>
		<ellipse fill="#1F77B4" cx="216.55859" cy="224.94725" rx="2.5" ry="2.5"/>
		<ellipse fill="#1F77B4" cx="216.55859" cy="224.94725" rx="2.5" ry="2.5"/>
		<ellipse fill="#1F77B4" cx="216.55859" cy="224.94725" rx="2.5" ry="2.5"/>
		<ellipse fill="#1F77B4" cx="216.55859" cy="224.94725" rx="2.5" ry="2.5"/>
		<ellipse fill="#1F77B4" cx="229.91797" cy="236.08055" rx="2.5" ry="2.5"/>
		<ellipse fill="#1F77B4" cx="229.91797" cy="236.08055" rx="2.5" ry="2.5"/>
		<ellipse fill="#1F77B4" cx="229.91797" cy="250.34737" rx="2.5" ry="2.5"/>
		<ellipse fill="#1F77B4" cx="229.91797" cy="252.15759" rx="2.5" ry="2.5"/>
		<ellipse fill="#1F77B4" cx="243.27734" cy="236.08055" rx="2.5" ry="2.5"/>
		<ellipse fill="#1F77B4" cx="269.99609" cy="219.34076" rx="2.5" ry="2.5"/>
		<ellipse fill="#1F77B4" cx="269.99609" cy="236.08055" rx="2.5" ry="2.5"/>
		<ellipse fill="#1F77B4" cx="269.99609" cy="236.08055" rx="2.5" ry="2.5"/>
		<ellipse fill="#1F77B4" cx="283.35547" cy="219.34076" rx="2.5" ry="2.5"/>
		<ellipse fill="#1F77B4" cx="283.35547" cy="215.52934" rx="2.5" ry="2.5"/>
		<ellipse fill="#1F77B4" cx="296.71484" cy="214.13821" rx="2.5" ry="2.5"/>
		<ellipse fill="#1F77B4" cx="310.07422" cy="229.4908" rx="2.5" ry="2.5"/>
		<ellipse fill="#1F77B4" cx="310.07422" cy="229.4908" rx="2.5" ry="2.5"/>
		<ellipse fill="#1F77B4" cx="323.43359" cy="244.09859" rx="2.5" ry="2.5"/>
		<ellipse fill="#1F77B4" cx="323.43359" cy="244.09859" rx="2.5" ry="2.5"/>
		<ellipse fill="#1F77B4" cx="350.15234" cy="240.37996" rx="2.5" ry="2.5"/>
		<ellipse fill="#1F77B4" cx="350.15234" cy="244.4137" rx="2.5" ry="2.5"/>
		<ellipse fill="#1F77B4" cx="363.51172" cy="238.26962" rx="2.5" ry="2.5"/>
		<ellipse fill="#1F77B4" cx="363.51172" cy="224.60777" rx="2.5" ry="2.5"/>
		<ellipse fill="#1F77B4" cx="390.23047" cy="234.70395" rx="2.5" ry="2.5"/>
		<ellipse fill="#1F77B4" cx="390.23047" cy="234.70395" rx="2.5" ry="2.5"/>
		<ellipse fill="#1F77B4" cx="390.23047" cy="244.23425" rx="2.5" ry="2.5"/>
		<ellipse fill="#1F77B4" cx="416.94922" cy="242.46719" rx="2.5" ry="2.5"/>
		<ellipse fill="#1F77B4" cx="416.94922" cy="242.46719" rx="2.5" ry="2.5"/>
		<ellipse fill="#1F77B4" cx="430.30859" cy="242.39575" rx="2.5" ry="2.5"/>
		<ellipse fill="#1F77B4" cx="443.66797" cy="232.36493" rx="2.5" ry="2.5"/>
		<ellipse fill="#1F77B4" cx="443.66797" cy="242.56665" rx="2.5" ry="2.5"/>
		<ellipse fill="#1F77B4" cx="697.49609" cy="108.55975" rx="2.5" ry="2.5"/>
		<ellipse fill="#1F77B4" cx="697.49609" cy="108.55975" rx="2.5" ry="2.5"/>
		<ellipse fill="#1F77B4" cx="710.85547" cy="110.43248" rx="2.5" ry="2.5"/>
		<ellipse fill="#1F77B4" cx="710.85547" cy="110.43248" rx="2.5" ry="2.5"/>
		<ellipse fill="#1F77B4" cx="710.85547" cy="110.43248" rx="2.5" ry="2.5"/>
		<ellipse fill="#1F77B4" cx="724.21484" cy="52.779922" rx="2.5" ry="2.5"/>
		<ellipse fill="#1F77B4" cx="724.21484" cy="63.017426" rx="2.5" ry="2.5"/>
		<ellipse fill="#1F77B4" cx="724.21484" cy="110.43248" rx="2.5" ry="2.5"/>
		<ellipse fill="#1F77B4" cx="737.57422" cy="31.63298" rx="2.5" ry="2.5"/>
		<ellipse fill="#1F77B4" cx="750.93359" cy="33.158051" rx="2.5" ry="2.5"/>
	</g>
	<path fill="none" stroke="black" stroke-width="1" stroke-miterlimit="4" d="M96.3242 270.039L96.3242 274.039"/>
	<text transform="translate(96.3242 276.039)" font-size="12" font-family="Segoe UI" x="-14.238281, -7.7695313, -5.1679688, 1.3007813, 7.7695313, " y="11.027344, ">
			1,895
	</text>
	<path fill="none" stroke="black" stroke-width="1" stroke-miterlimit="4" d="M163.121 270.039L163.121 274.039"/>
	<text transform="translate(163.121 276.039)" font-size="12" font-family="Segoe UI" x="-14.238281, -7.7695313, -5.1679688, 1.3007813, 7.7695313, " y="11.027344, ">
			1,900
	</text>
	<path fill="none" stroke="black" stroke-width="1" stroke-miterlimit="4" d="M229.918 270.039L229.918 274.039"/>
	<text transform="translate(229.918 276.039)" font-size="12" font-family="Segoe UI" x="-14.238281, -7.7695313, -5.1679688, 1.3007813, 7.7695313, " y="11.027344, ">
			1,905
	</text>
	<path fill="none" stroke="black" stroke-width="1" stroke-miterlimit="4" d="M296.715 270.039L296.715 274.039"/>
	<text transform="translate(296.715 276.039)" font-size="12" font-family="Segoe UI" x="-14.238281, -7.7695313, -5.1679688, 1.3007813, 7.7695313, " y="11.027344, ">
			1,910
	</text>
	<path fill="none" stroke="black" stroke-width="1" stroke-miterlimit="4" d="M363.512 270.039L363.512 274.039"/>
	<text transform="translate(363.512 276.039)" font-size="12" font-family="Segoe UI" x="-14.238281, -7.7695313, -5.1679688, 1.3007813, 7.7695313, " y="11.027344, ">
			1,915
	</text>
	<path fill="none" stroke="black" stroke-width="1" stroke-miterlimit="4" d="M430.309 270.039L430.309 274.039"/>
	<text transform="translate(430.309 276.039)" font-size="12" font-family="Segoe UI" x="-14.238281, -7.7695313, -5.1679688, 1.3007813, 7.7695313, " y="11.027344, ">
			1,920
	</text>
	<path fill="none" stroke="black" stroke-width="1" stroke-miterlimit="4" d="M497.105 270.039L497.105 274.039"/>
	<text transform="translate(497.105 276.039)" font-size="12" font-family="Segoe UI" x="-14.238281, -7.7695313, -5.1679688, 1.3007813, 7.7695313, " y="11.027344, ">
			1,925
	</text>
	<path fill="none" stroke="black" stroke-width="1" stroke-miterlimit="4" d="M563.902 270.039L563.902 274.039"/>
	<text transform="translate(563.902 276.039)" font-size="12" font-family="Segoe UI" x="-14.238281, -7.7695313, -5.1679688, 1.3007813, 7.7695313, " y="11.027344, ">
			1,930
	</text>
	<path fill="none" stroke="black" stroke-width="1" stroke-miterlimit="4" d="M630.699 270.039L630.699 274.039"/>
	<text transform="translate(630.699 276.039)" font-size="12" font-family="Segoe UI" x="-14.238281, -7.7695313, -5.1679688, 1.3007813, 7.7695313, " y="11.027344, ">
			1,935
	</text>
	<path fill="none" stroke="black" stroke-width="1" stroke-miterlimit="4" d="M697.496 270.039L697.496 274.039"/>
	<text transform="translate(697.496 276.039)" font-size="12" font-family="Segoe UI" x="-14.238281, -7.7695313, -5.1679688, 1.3007813, 7.7695313, " y="11.027344, ">
			1,940
	</text>
	<path fill="none" stroke="black" stroke-width="1" stroke-miterlimit="4" d="M764.293 270.039L764.293 274.039"/>
	<text transform="translate(764.293 276.039)" font-size="12" font-family="Segoe UI" x="-14.238281, -7.7695313, -5.1679688, 1.3007813, 7.7695313, " y="11.027344, ">
			1,945
	</text>
	<path fill="none" stroke="black" stroke-width="1" stroke-miterlimit="4" d="M42.8867 270.039L42.8867 272.039"/>
	<path fill="none" stroke="black" stroke-width="1" stroke-miterlimit="4" d="M56.2461 270.039L56.2461 272.039"/>
	<path fill="none" stroke="black" stroke-width="1" stroke-miterlimit="4" d="M69.6055 270.039L69.6055 272.039"/>
	<path fill="none" stroke="black" stroke-width="1" stroke-miterlimit="4" d="M82.9648 270.039L82.9648 272.039"/>
	<path fill="none" stroke="black" stroke-width="1" stroke-miterlimit="4" d="M109.684 270.039L109.684 272.039"/>
	<path fill="none" stroke="black" stroke-width="1" stroke-miterlimit="4" d="M123.043 270.039L123.043 272.039"/>
	<path fill="none" stroke="black" stroke-width="1" stroke-miterlimit="4" d="M136.402 270.039L136.402 272.039"/>
	<path fill="none" stroke="black" stroke-width="1" stroke-miterlimit="4" d="M149.762 270.039L149.762 272.039"/>
	<path fill="none" stroke="black" stroke-width="1" stroke-miterlimit="4" d="M176.48 270.039L176.48 272.039"/>
	<path fill="none" stroke="black" stroke-width="1" stroke-miterlimit="4" d="M189.84 270.039L189.84 272.039"/>
	<path fill="none" stroke="black" stroke-width="1" stroke-miterlimit="4" d="M203.199 270.039L203.199 272.039"/>
	<path fill="none" stroke="black" stroke-width="1" stroke-miterlimit="4" d="M216.559 270.039L216.559 272.039"/>
	<path fill="none" stroke="black" stroke-width="1" stroke-miterlimit="4" d="M243.277 270.039L243.277 272.039"/>
	<path fill="none" stroke="black" stroke-width="1" stroke-miterlimit="4" d="M256.637 270.039L256.637 272.039"/>
	<path fill="none" stroke="black" stroke-width="1" stroke-miterlimit="4" d="M269.996 270.039L269.996 272.039"/>
	<path fill="none" stroke="black" stroke-width="1" stroke-miterlimit="4" d="M283.355 270.039L283.355 272.039"/>
	<path fill="none" stroke="black" stroke-width="1" stroke-miterlimit="4" d="M310.074 270.039L310.074 272.039"/>
	<path fill="none" stroke="black" stroke-width="1" stroke-miterlimit="4" d="M323.434 270.039L323.434 272.039"/>
	<path fill="none" stroke="black" stroke-width="1" stroke-miterlimit="4" d="M336.793 270.039L336.793 272.039"/>
	<path fill="none" stroke="black" stroke-width="1" stroke-miterlimit="4" d="M350.152 270.039L350.152 272.039"/>
	<path fill="none" stroke="black" stroke-width="1" stroke-miterlimit="4" d="M376.871 270.039L376.871 272.039"/>
	<path fill="none" stroke="black" stroke-width="1" stroke-miterlimit="4" d="M390.23 270.039L390.23 272.039"/>
	<path fill="none" stroke="black" stroke-width="1" stroke-miterlimit="4" d="M403.59 270.039L403.59 272.039"/>
	<path fill="none" stroke="black" stroke-width="1" stroke-miterlimit="4" d="M416.949 270.039L416.949 272.039"/>
	<path fill="none" stroke="black" stroke-width="1" stroke-miterlimit="4" d="M443.668 270.039L443.668 272.039"/>
	<path fill="none" stroke="black" stroke-width="1" stroke-miterlimit="4" d="M457.027 270.039L457.027 272.039"/>
	<path fill="none" stroke="black" stroke-width="1" stroke-miterlimit="4" d="M470.387 270.039L470.387 272.039"/>
	<path fill="none" stroke="black" stroke-width="1" stroke-miterlimit="4" d="M483.746 270.039L483.746 272.039"/>
	<path fill="none" stroke="black" stroke-width="1" stroke-miterlimit="4" d="M510.465 270.039L510.465 272.039"/>
	<path fill="none" stroke="black" stroke-width="1" stroke-miterlimit="4" d="M523.824 270.039L523.824 272.039"/>
	<path fill="none" stroke="black" stroke-width="1" stroke-miterlimit="4" d="M537.184 270.039L537.184 272.039"/>
	<path fill="none" stroke="black" stroke-width="1" stroke-miterlimit="4" d="M550.543 270.039L550.543 272.039"/>
	<path fill="none" stroke="black" stroke-width="1" stroke-miterlimit="4" d="M577.262 270.039L577.262 272.039"/>
	<path fill="none" stroke="black" stroke-width="1" stroke-miterlimit="4" d="M590.621 270.039L590.621 272.039"/>
	<path fill="none" stroke="black" stroke-width="1" stroke-miterlimit="4" d="M603.98 270.039L603.98 272.039"/>
	<path fill="none" stroke="black" stroke-width="1" stroke-miterlimit="4" d="M617.34 270.039L617.34 272.039"/>
	<path fill="none" stroke="black" stroke-width="1" stroke-miterlimit="4" d="M644.059 270.039L644.059 272.039"/>
	<path fill="none" stroke="black" stroke-width="1" stroke-miterlimit="4" d="M657.418 270.039L657.418 272.039"/>
	<path fill="none" stroke="black" stroke-width="1" stroke-miterlimit="4" d="M670.777 270.039L670.777 272.039"/>
	<path fill="none" stroke="black" stroke-width="1" stroke-miterlimit="4" d="M684.137 270.039L684.137 272.039"/>
	<path fill="none" stroke="black" stroke-width="1" stroke-miterlimit="4" d="M710.855 270.039L710.855 272.039"/>
	<path fill="none" stroke="black" stroke-width="1" stroke-miterlimit="4" d="M724.215 270.039L724.215 272.039"/>
	<path fill="none" stroke="black" stroke-width="1" stroke-miterlimit="4" d="M737.574 270.039L737.574 272.039"/>
	<path fill="none" stroke="black" stroke-width="1" stroke-miterlimit="4" d="M750.934 270.039L750.934 272.039"/>
	<path fill="none" stroke="black" stroke-width="1" stroke-miterlimit="4" d="M777.652 270.039L777.652 272.039"/>
	<path fill="none" stroke="black" stroke-width="1" stroke-miterlimit="4" d="M35.5391 270.039L785 270.039"/>
	<path fill="none" stroke="black" stroke-width="1" stroke-miterlimit="4" d="M35.5391 15.1L785 15.1"/>
	<path fill="none" stroke="black" stroke-width="1" stroke-miterlimit="4" d="M35.5391 268.047L31.5391 268.047"/>
	<text transform="translate(26.5391 268.047)" font-size="12" font-family="Segoe UI" x="-15.539063, -9.0703125, -6.46875, " y="3.046875, ">
			0.5
	</text>
	<path fill="none" stroke="black" stroke-width="1" stroke-miterlimit="4" d="M35.5391 233.62L31.5391 233.62"/>
	<text transform="translate(26.5391 233.62)" font-size="12" font-family="Segoe UI" x="-6.46875, " y="3.046875, ">
			1
	</text>
	<path fill="none" stroke="black" stroke-width="1" stroke-miterlimit="4" d="M35.5391 199.192L31.5391 199.192"/>
	<text transform="translate(26.5391 199.192)" font-size="12" font-family="Segoe UI" x="-15.539063, -9.0703125, -6.46875, " y="3.046875, ">
			1.5
	</text>
	<path fill="none" stroke="black" stroke-width="1" stroke-miterlimit="4" d="M35.5391 164.764L31.5391 164.764"/>
	<text transform="translate(26.5391 164.764)" font-size="12" font-family="Segoe UI" x="-6.46875, " y="3.046875, ">
			2
	</text>
	<path fill="none" stroke="black" stroke-width="1" stroke-miterlimit="4" d="M35.5391 130.337L31.5391 130.337"/>
	<text transform="translate(26.5391 130.337)" font-size="12" font-family="Segoe UI" x="-15.539063, -9.0703125, -6.46875, " y="3.046875, ">
			2.5
	</text>
	<path fill="none" stroke="black" stroke-width="1" stroke-miterlimit="4" d="M35.5391 95.909L31.5391 95.909"/>
	<text transform="translate(26.5391 95.909)" font-size="12" font-family="Segoe UI" x="-6.46875, " y="3.046875, ">
			3
	</text>
	<path fill="none" stroke="black" stroke-width="1" stroke-miterlimit="4" d="M35.5391 61.4813L31.5391 61.4813"/>
	<text transform="translate(26.5391 61.4813)" font-size="12" font-family="Segoe UI" x="-15.539063, -9.0703125, -6.46875, " y="3.046875, ">
			3.5
	</text>
	<path fill="none" stroke="black" stroke-width="1" stroke-miterlimit="4" d="M35.5391 27.0536L31.5391 27.0536"/>
	<text transform="translate(26.5391 27.0536)" font-size="12" font-family="Segoe UI" x="-6.46875, " y="3.046875, ">
			4
	</text>
	<path fill="none" stroke="black" stroke-width="1" stroke-miterlimit="4" d="M35.5391 261.162L33.5391 261.162"/>
	<path fill="none" stroke="black" stroke-width="1" stroke-miterlimit="4" d="M35.5391 254.276L33.5391 254.276"/>
	<path fill="none" stroke="black" stroke-width="1" stroke-miterlimit="4" d="M35.5391 247.391L33.5391 247.391"/>
	<path fill="none" stroke="black" stroke-width="1" stroke-miterlimit="4" d="M35.5391 240.505L33.5391 240.505"/>
	<path fill="none" stroke="black" stroke-width="1" stroke-miterlimit="4" d="M35.5391 226.734L33.5391 226.734"/>
	<path fill="none" stroke="black" stroke-width="1" stroke-miterlimit="4" d="M35.5391 219.849L33.5391 219.849"/>
	<path fill="none" stroke="black" stroke-width="1" stroke-miterlimit="4" d="M35.5391 212.963L33.5391 212.963"/>
	<path fill="none" stroke="black" stroke-width="1" stroke-miterlimit="4" d="M35.5391 206.077L33.5391 206.077"/>
	<path fill="none" stroke="black" stroke-width="1" stroke-miterlimit="4" d="M35.5391 192.306L33.5391 192.306"/>
	<path fill="none" stroke="black" stroke-width="1" stroke-miterlimit="4" d="M35.5391 185.421L33.5391 185.421"/>
	<path fill="none" stroke="black" stroke-width="1" stroke-miterlimit="4" d="M35.5391 178.535L33.5391 178.535"/>
	<path fill="none" stroke="black" stroke-width="1" stroke-miterlimit="4" d="M35.5391 171.65L33.5391 171.65"/>
	<path fill="none" stroke="black" stroke-width="1" stroke-miterlimit="4" d="M35.5391 157.879L33.5391 157.879"/>
	<path fill="none" stroke="black" stroke-width="1" stroke-miterlimit="4" d="M35.5391 150.993L33.5391 150.993"/>
	<path fill="none" stroke="black" stroke-width="1" stroke-miterlimit="4" d="M35.5391 144.108L33.5391 144.108"/>
	<path fill="none" stroke="black" stroke-width="1" stroke-miterlimit="4" d="M35.5391 137.222L33.5391 137.222"/>
	<path fill="none" stroke="black" stroke-width="1" stroke-miterlimit="4" d="M35.5391 123.451L33.5391 123.451"/>
	<path fill="none" stroke="black" stroke-width="1" stroke-miterlimit="4" d="M35.5391 116.566L33.5391 116.566"/>
	<path fill="none" stroke="black" stroke-width="1" stroke-miterlimit="4" d="M35.5391 109.68L33.5391 109.68"/>
	<path fill="none" stroke="black" stroke-width="1" stroke-miterlimit="4" d="M35.5391 102.794L33.5391 102.794"/>
	<path fill="none" stroke="black" stroke-width="1" stroke-miterlimit="4" d="M35.5391 89.0234L33.5391 89.0234"/>
	<path fill="none" stroke="black" stroke-width="1" stroke-miterlimit="4" d="M35.5391 82.1379L33.5391 82.1379"/>
	<path fill="none" stroke="black" stroke-width="1" stroke-miterlimit="4" d="M35.5391 75.2523L33.5391 75.2523"/>
	<path fill="none" stroke="black" stroke-width="1" stroke-miterlimit="4" d="M35.5391 68.3668L33.5391 68.3668"/>
	<path fill="none" stroke="black" stroke-width="1" stroke-miterlimit="4" d="M35.5391 54.5957L33.5391 54.5957"/>
	<path fill="none" stroke="black" stroke-width="1" stroke-miterlimit="4" d="M35.5391 47.7102L33.5391 47.7102"/>
	<path fill="none" stroke="black" stroke-width="1" stroke-miterlimit="4" d="M35.5391 40.8247L33.5391 40.8247"/>
	<path fill="none" stroke="black" stroke-width="1" stroke-miterlimit="4" d="M35.5391 33.9391L33.5391 33.9391"/>
	<path fill="none" stroke="black" stroke-width="1" stroke-miterlimit="4" d="M35.5391 20.1681L33.5391 20.1681"/>
	<path fill="none" stroke="black" stroke-width="1" stroke-miterlimit="4" d="M35.5391 270.039L35.5391 15"/>
	<path fill="none" stroke="black" stroke-width="1" stroke-miterlimit="4" d="M785 270.039L785 15"/>
</svg>
